# This file uses meters as units for non-parametric coordinates.

v -4.867982 277.048981 -3.689523
v -4.867982 79.000069 -3.689523
v -4.867982 -103.690582 -3.689523
v -4.867982 405.397278 -3.689523
v 128.244705 320.906067 93.952484
v 78.244705 277.048981 41.358337
v 78.244705 79.000069 41.358337
v 107.942169 50.810837 78.965988
v 128.244705 320.906067 -3.689523
v 78.244705 277.048981 -3.689523
v 78.244705 79.000069 -3.689523
v 107.942169 50.810837 -3.689523
v 128.244705 -103.690582 93.952484
v 128.244705 -103.690582 -3.689523
v 128.244705 405.397278 -3.689523
v 128.244705 405.397278 93.952484
v 93.952484 320.906067 129.065399
v 41.358337 277.048981 79.065399
v 41.358337 79.000069 79.065399
v 77.695007 50.810837 108.762817
v -4.867982 320.906067 129.065399
v -4.867982 277.048981 79.065399
v -4.867982 79.000069 79.065399
v -4.867982 50.810837 108.762817
v 93.952484 -103.690582 129.065399
v -4.867982 -103.690582 129.065399
v -4.867982 405.397278 129.065399
v 93.952484 405.397278 129.065399
v 77.695007 19.040253 108.762817
v 107.942169 19.040253 78.965988
v 107.942169 19.040253 -3.689523
v -4.867982 -2.188331 -3.689523
v -4.867982 19.040253 108.762817
v 93.952484 5.536606 129.065399
v 128.244705 5.536606 93.952484
v 128.244705 5.536606 -3.689523
v -4.867982 5.536606 129.065399
v -4.867982 55.996002 104.977417
v 73.063354 55.996002 104.977417
v 104.156769 55.996002 74.172363
v 104.156769 55.996002 -3.689523
vt 0.235271 0.325733
vt 0.235271 0.325731
vt 0.243164 0.329239
vt 0.243164 0.329242
vt 0.245797 0.378364
vt 0.245797 0.378364
vt 0.245797 0.378364
vt 0.245797 0.378364
vt 0.245797 0.378364
vt 0.245797 0.378364
vt 0.235271 0.325731
vt 0.235271 0.325733
vt 0.235271 0.325733
vt 0.235271 0.325733
vt 0.235271 0.325733
vt 0.243164 0.329242
vt 0.243164 0.329239
vt 0.235271 0.325733
vt 0.235271 0.325733
vt 0.245797 0.378364
vt 0.245797 0.378364
vt 0.245797 0.378364
vt 0.245797 0.378364
vt 0.245797 0.378364
vt 0.245797 0.378364
vt 0.245797 0.378364
vt 0.245797 0.378364
vt 0.245797 0.378364
vt 0.245797 0.378364
vt 0.235271 0.325733
vt 0.235271 0.325731
vt 0.235271 0.325733
vt 0.235271 0.325731
vt 0.235271 0.325733
vt 0.243164 0.329241
vt 0.245797 0.378364
vt 0.245797 0.378364
vt 0.245797 0.378364
vt 0.245797 0.378364
vt 0.245797 0.378364
vt 0.245797 0.378364
vt 0.243164 0.329243
vt 0.243164 0.329239
vt 0.245797 0.378364
vt 0.245797 0.378364
vt 0.245797 0.378364
vt 0.245797 0.378364
vt 0.245797 0.378364
vt 0.245797 0.378364
vt 0.245797 0.378364
vt 0.245797 0.378364
vt 0.243164 0.329242
vt 0.243164 0.329239
vt 0.245797 0.378364
vt 0.245797 0.378364
vt 0.245797 0.378364
vt 0.245797 0.378364
vt 0.245797 0.378364
vt 0.245797 0.378364
vt 0.245797 0.378364
vt 0.245797 0.378364
vt 0.245797 0.378364
vt 0.245797 0.378364
vt 0.245797 0.378364
vt 0.245797 0.378364
vt 0.245797 0.378364
vt 0.245797 0.378364
vt 0.245797 0.378364
vt 0.245797 0.378364
vt 0.245797 0.378364
vt 0.245797 0.378364
vt 0.245797 0.378364
vt 0.245797 0.378364
vt 0.245797 0.378364
vt 0.245797 0.378364
vt 0.245797 0.378364
vt 0.245797 0.378364
vt 0.245797 0.378364
vt 0.245797 0.378364
vt 0.245797 0.378364
vt 0.245797 0.378364
vt 0.245797 0.378364
vt 0.245797 0.378364
vt 0.245797 0.378364
vt 0.243164 0.329242
vt 0.245797 0.378364
vt 0.245797 0.378364
vt 0.245797 0.378364
vt 0.245797 0.378364
vt 0.245797 0.378364
vt 0.245797 0.378364
vt 0.245797 0.378364
vt 0.245797 0.378364
vn 0.659416 -0.751778 0.000000
vn 0.659416 -0.751778 0.000000
vn 0.659416 -0.751778 0.000000
vn 0.659416 -0.751778 0.000000
vn 1.000000 0.000000 0.000000
vn 1.000000 0.000000 0.000000
vn 1.000000 0.000000 0.000000
vn 1.000000 0.000000 0.000000
vn 0.663898 0.747823 0.000000
vn 0.663898 0.747823 0.000000
vn 0.663898 0.747823 0.000000
vn 0.663898 0.747823 0.000000
vn 1.000000 0.000000 0.000000
vn 1.000000 0.000000 0.000000
vn 1.000000 0.000000 0.000000
vn 1.000000 0.000000 0.000000
vn 1.000000 0.000000 0.000000
vn 1.000000 0.000000 0.000000
vn 1.000000 0.000000 0.000000
vn 1.000000 0.000000 0.000000
vn 0.000000 0.000000 -1.000000
vn 0.000000 0.000000 -1.000000
vn 0.000000 0.000000 -1.000000
vn 0.000000 0.000000 -1.000000
vn 0.000000 0.000000 -1.000000
vn 0.000000 0.000000 -1.000000
vn 0.000000 0.000000 -1.000000
vn 0.000000 0.000000 -1.000000
vn 0.000000 0.000000 -1.000000
vn 0.000000 0.000000 -1.000000
vn 0.000000 0.000000 -1.000000
vn 0.000000 0.000000 -1.000000
vn 0.000000 0.000000 -1.000000
vn 0.000000 0.000000 -1.000000
vn 0.000000 0.000000 -1.000000
vn 0.000000 -1.000000 0.000000
vn 0.000000 -1.000000 0.000000
vn 0.000000 -1.000000 0.000000
vn 0.000000 0.000000 -1.000000
vn 0.000000 0.000000 -1.000000
vn 0.000000 0.000000 -1.000000
vn 0.000000 0.000000 -1.000000
vn 0.000000 1.000000 0.000000
vn 0.000000 1.000000 0.000000
vn 0.000000 1.000000 0.000000
vn 0.715418 0.000000 0.698697
vn 0.715418 0.000000 0.698697
vn 0.715418 0.000000 0.698697
vn 0.715418 0.000000 0.698697
vn 0.369989 -0.855755 0.361650
vn 0.369989 -0.855755 0.361650
vn 0.369989 -0.855756 0.361650
vn 0.369989 -0.855755 0.361650
vn 0.714843 0.000000 0.699285
vn 0.714843 0.000000 0.699285
vn 0.714843 0.000000 0.699285
vn 0.714843 0.000000 0.699285
vn 0.346499 0.872774 0.343807
vn 0.346499 0.872774 0.343807
vn 0.346499 0.872774 0.343807
vn 0.346499 0.872774 0.343807
vn 0.701784 0.000000 0.712390
vn 0.701784 0.000000 0.712390
vn 0.701784 0.000000 0.712390
vn 0.701784 0.000000 0.712390
vn 0.000000 -1.000000 0.000000
vn 0.000000 -1.000000 0.000000
vn 0.000000 -1.000000 0.000000
vn 0.000000 -0.751778 0.659416
vn 0.000000 -0.751778 0.659416
vn 0.000000 -0.751778 0.659416
vn 0.000000 -0.751778 0.659416
vn 0.000000 0.000000 1.000000
vn 0.000000 0.000000 1.000000
vn 0.000000 0.000000 1.000000
vn 0.000000 0.000000 1.000000
vn 0.000000 0.747822 0.663899
vn 0.000000 0.747823 0.663899
vn 0.000000 0.747823 0.663899
vn 0.000000 0.747822 0.663899
vn 0.000000 0.000000 1.000000
vn 0.000000 0.000000 1.000000
vn 0.000000 0.000000 1.000000
vn 0.000000 0.000000 1.000000
vn 0.000000 0.000000 1.000000
vn 0.000000 0.000000 1.000000
vn 0.000000 0.000000 1.000000
vn 0.000000 0.000000 1.000000
vn -1.000000 0.000000 0.000000
vn -1.000000 0.000000 0.000000
vn -1.000000 0.000000 0.000000
vn -1.000000 0.000000 0.000000
vn -1.000000 0.000000 0.000000
vn -1.000000 0.000000 0.000000
vn -1.000000 0.000000 0.000000
vn -1.000000 0.000000 0.000000
vn -1.000000 0.000000 0.000000
vn -1.000000 0.000000 0.000000
vn -1.000000 0.000000 0.000000
vn -1.000000 0.000000 0.000000
vn -1.000000 0.000000 0.000000
vn -1.000000 0.000000 0.000000
vn -1.000000 0.000000 0.000000
vn 0.000000 -1.000000 0.000000
vn 0.000000 -1.000000 0.000000
vn 0.000000 -1.000000 0.000000
vn -1.000000 0.000000 0.000000
vn -1.000000 0.000000 0.000000
vn -1.000000 0.000000 0.000000
vn -1.000000 0.000000 0.000000
vn 0.000000 1.000000 0.000000
vn 0.000000 1.000000 0.000000
vn 0.000000 1.000000 0.000000
vn 0.000000 1.000000 0.000000
vn 0.000000 1.000000 0.000000
vn 0.000000 1.000000 0.000000
vn 0.332843 0.883001 0.330944
vn 0.332843 0.883001 0.330944
vn 0.332843 0.883001 0.330944
vn 0.332843 0.883001 0.330944
vn 0.553809 0.832644 0.000000
vn 0.553809 0.832644 0.000000
vn 0.553809 0.832644 0.000000
vn 0.553809 0.832644 0.000000
vn 0.000000 0.000000 -1.000000
vn 0.000000 0.000000 -1.000000
vn 0.000000 0.000000 -1.000000
vn -1.000000 0.000000 0.000000
vn -1.000000 0.000000 0.000000
vn -1.000000 0.000000 0.000000
vn 0.000000 0.832644 0.553808
vn 0.000000 0.832644 0.553808
vn 0.000000 0.832644 0.553808
vn 0.000000 0.832644 0.553808
vn 0.715418 0.000000 0.698697
vn 0.715418 0.000000 0.698697
vn 0.715418 0.000000 0.698697
vn 0.715418 0.000000 0.698697
vn 1.000000 0.000000 0.000000
vn 1.000000 0.000000 0.000000
vn 1.000000 0.000000 0.000000
vn 1.000000 0.000000 0.000000
vn 0.000000 0.000000 -1.000000
vn 0.000000 0.000000 -1.000000
vn 0.000000 0.000000 -1.000000
vn 0.000000 0.000000 -1.000000
vn -1.000000 0.000000 0.000000
vn -1.000000 0.000000 0.000000
vn -1.000000 0.000000 0.000000
vn -1.000000 0.000000 0.000000
vn 0.000000 0.000000 1.000000
vn 0.000000 0.000000 1.000000
vn 0.000000 0.000000 1.000000
vn 0.000000 0.000000 1.000000
vn 0.000000 0.589635 0.807670
vn 0.000000 0.589635 0.807670
vn 0.000000 0.589635 0.807670
vn 0.000000 0.589635 0.807670
vn 0.459135 0.757113 0.464732
vn 0.459135 0.757113 0.464732
vn 0.459135 0.757113 0.464732
vn 0.459135 0.757113 0.464732
vn 0.807670 0.589634 0.000000
vn 0.807670 0.589635 0.000000
vn 0.807670 0.589634 0.000000
vn 0.807670 0.589634 0.000000
s off
f 5/1/1 6/2/2 10/11/3 9/12/4
f 6/3/5 7/4/6 11/16/7 10/17/8
f 7/6/9 40/90/10 41/93/11 11/5/12
f 8/8/13 30/77/14 31/64/15 12/7/16
f 9/12/17 15/13/18 16/14/19 5/1/20
f 10/11/21 1/15/22 9/12/23
f 11/16/24 2/35/25 1/42/26 10/17/27
f 12/20/28 2/22/29 11/21/30 41/92/31
f 31/65/32 32/38/33 2/25/34 12/24/35
f 13/27/36 3/29/37 14/28/38
f 9/12/39 1/15/40 4/18/41 15/13/42
f 15/13/43 4/18/44 16/14/45
f 5/1/46 16/14/47 28/19/48 17/30/49
f 6/2/50 5/1/51 17/30/52 18/31/53
f 7/4/54 6/3/55 18/43/56 19/52/57
f 40/91/58 7/44/59 19/84/60 39/88/61
f 30/66/62 8/46/63 20/82/64 29/79/65
f 3/48/66 13/49/67 25/80/68
f 17/30/69 21/32/70 22/33/71 18/31/72
f 18/43/73 22/53/74 23/85/75 19/52/76
f 19/55/77 23/54/78 38/86/79 39/89/80
f 20/57/81 24/56/82 33/63/83 29/78/84
f 21/32/85 17/30/86 28/19/87 27/34/88
f 22/33/89 21/32/90 1/15/91
f 23/85/92 22/53/93 1/42/94 2/35/95
f 24/67/96 38/87/97 23/68/98 2/69/99
f 33/62/100 24/71/101 2/72/102 32/39/103
f 25/74/104 26/75/105 3/76/106
f 21/32/107 27/34/108 4/18/109 1/15/110
f 27/34/111 28/19/112 4/18/113
f 4/18/114 28/19/115 16/14/116
f 35/50/117 30/66/118 29/79/119 34/61/120
f 31/64/121 30/77/122 35/51/123 36/40/124
f 36/41/125 32/38/126 31/65/127
f 37/36/128 33/62/129 32/39/130
f 29/78/131 33/63/132 37/37/133 34/60/134
f 13/47/135 35/50/136 34/61/137 25/81/138
f 36/40/139 35/51/140 13/10/141 14/9/142
f 14/23/143 3/26/144 32/38/145 36/41/146
f 26/70/147 37/36/148 32/39/149 3/73/150
f 34/60/151 37/37/152 26/58/153 25/59/154
f 39/89/155 38/86/156 24/56/157 20/57/158
f 8/45/159 40/91/160 39/88/161 20/83/162
f 41/93/163 40/90/164 8/8/165 12/7/166
