# This file uses meters as units for non-parametric coordinates.

v 240.848389 -3.648595 237.878265
v 9.151306 -3.648595 237.878265
v 235.734253 1.054928 232.938995
v 14.192810 1.054927 232.938995
v 240.848694 -3.648595 12.121887
v 9.151306 -3.648595 12.122345
v 235.734253 1.054928 17.060852
v 14.192810 1.054927 17.060852
v 3.742981 0.000003 3.743286
v 0.000000 0.000000 0.000000
v 3.743286 0.000003 246.257019
v 0.000000 0.000000 250.000000
v 246.257019 0.000003 3.743286
v 250.000000 0.000000 0.000000
v 246.256714 0.000003 246.257019
v 250.000000 0.000000 250.000000
v 6.180725 -3.648595 6.181030
v 6.181030 -3.648595 243.819122
v 243.819275 -3.648595 6.181030
v 243.818665 -3.648595 243.819122
v 125.000000 0.000000 0.000000
v 125.000000 0.000003 3.743286
v 125.000000 -3.648595 6.181030
v 125.000000 -3.648595 12.122040
v 125.000000 -3.648595 237.878265
v 125.000000 -3.648595 243.819122
v 125.000000 0.000003 246.257019
v 125.000000 0.000000 250.000000
v 122.276611 1.054928 17.060852
v 122.276611 1.054928 232.938995
v 127.650452 1.054928 232.938995
v 127.650452 1.054928 17.060852
v 0.000000 0.000000 125.000000
v 3.743134 0.000003 125.000153
v 6.180878 -3.648595 125.000153
v 9.151306 -3.648595 125.000305
v 122.276611 1.054928 122.349396
v 127.650452 1.054928 122.349396
v 240.848541 -3.648595 125.000153
v 243.818970 -3.648595 125.000153
v 246.256866 0.000003 125.000153
v 250.000000 0.000000 125.000000
v 14.192810 1.054927 127.723236
v 122.276611 1.054928 127.723236
v 127.650452 1.054928 127.723236
v 235.734253 1.054928 127.723236
v 235.734253 1.054928 122.349396
v 14.192810 1.054927 122.349396
v 181.692352 1.054928 17.060852
v 152.569427 1.054928 122.349396
v 176.814575 1.054928 17.060852
v 147.691498 1.054928 122.349396
v 152.569427 1.054928 69.705048
v 147.691498 1.054928 66.416779
v 181.692352 1.054928 43.383026
v 176.814575 1.054928 40.094757
v 235.734253 1.054928 171.022034
v 235.734253 1.054928 176.362457
v 152.569427 1.054928 232.938995
v 152.569427 1.054928 185.671539
v 147.691498 1.054928 180.331116
v 147.691498 1.054928 232.938995
v 191.712952 1.054928 180.331116
v 194.814758 1.054928 185.671539
v 203.986359 1.054928 171.022034
v 207.088165 1.054928 176.362457
v 122.276611 1.054928 92.660065
v 122.276611 1.054928 87.930603
v 69.815826 1.054928 122.349396
v 69.815826 1.054928 107.504730
v 63.986206 1.054928 122.349396
v 95.255737 1.054928 92.660065
v 93.131409 1.054928 87.930603
v 63.986206 1.054928 105.139923
v 14.192810 1.054927 200.835419
v 50.880280 1.054927 232.938995
v 23.179016 1.054927 192.048035
v 28.448792 1.054928 222.090912
v 98.693848 1.054927 127.723236
v 122.276611 1.054928 142.571259
v 115.231476 1.054928 132.956085
v 235.734253 1.054928 59.526520
v 216.862030 1.054928 32.504272
v 203.167419 1.054928 17.060852
v 228.256073 1.054928 39.204865
v 218.402710 1.054928 20.690155
v 0.000000 -20.680943 0.000000
v 125.000000 -20.680943 0.000000
v 0.000000 -20.680943 250.000000
v 0.000000 -20.680943 125.000000
v 250.000000 -20.680943 0.000000
v 250.000000 -20.680943 125.000000
v 250.000000 -20.680943 250.000000
v 125.000000 -20.680943 250.000000
v 125.000000 -20.680943 125.000000
vt 0.245043 0.229708
vt 0.245043 0.229708
vt 0.245043 0.229708
vt 0.245043 0.229708
vt 0.244717 0.302596
vt 0.210896 0.278342
vt 0.245043 0.229708
vt 0.245043 0.229708
vt 0.245043 0.229708
vt 0.245043 0.229708
vt 0.209184 0.279369
vt 0.244717 0.302596
vt 0.235444 0.229363
vt 0.235444 0.229363
vt 0.235444 0.229363
vt 0.235444 0.229363
vt 0.235444 0.229363
vt 0.235444 0.229363
vt 0.235444 0.229363
vt 0.235444 0.229363
vt 0.235444 0.229363
vt 0.235444 0.229363
vt 0.235444 0.229363
vt 0.235444 0.229363
vt 0.235444 0.229363
vt 0.235444 0.229363
vt 0.235444 0.229363
vt 0.235444 0.229363
vt 0.245553 0.252220
vt 0.245553 0.252220
vt 0.245553 0.252220
vt 0.245553 0.252220
vt 0.245553 0.252220
vt 0.245553 0.252220
vt 0.245553 0.252220
vt 0.245553 0.252220
vt 0.245553 0.252220
vt 0.245553 0.252220
vt 0.245553 0.252220
vt 0.245553 0.252220
vt 0.245553 0.252220
vt 0.245553 0.252220
vt 0.245553 0.252220
vt 0.245553 0.252220
vt 0.234942 0.227865
vt 0.234942 0.227865
vt 0.234942 0.227865
vt 0.234942 0.227865
vt 0.234943 0.227865
vt 0.234943 0.227865
vt 0.234943 0.227865
vt 0.234943 0.227865
vt 0.235444 0.229363
vt 0.235444 0.229363
vt 0.245553 0.252220
vt 0.234943 0.227865
vt 0.245553 0.252220
vt 0.245043 0.229708
vt 0.234943 0.227865
vt 0.234943 0.227865
vt 0.245043 0.229708
vt 0.234943 0.227865
vt 0.245553 0.252220
vt 0.235444 0.229363
vt 0.245553 0.252220
vt 0.235444 0.229363
vt 0.244717 0.302596
vt 0.245043 0.229708
vt 0.245043 0.229708
vt 0.244717 0.302596
vt 0.245043 0.229708
vt 0.244717 0.302596
vt 0.244717 0.302596
vt 0.245043 0.229708
vt 0.235566 0.252530
vt 0.235566 0.252530
vt 0.235566 0.252530
vt 0.235566 0.252530
vt 0.235444 0.229363
vt 0.235444 0.229363
vt 0.245553 0.252220
vt 0.234943 0.227865
vt 0.245553 0.252220
vt 0.234943 0.227865
vt 0.245043 0.229708
vt 0.235565 0.252530
vt 0.235565 0.252530
vt 0.245043 0.229708
vt 0.234942 0.227865
vt 0.234942 0.227865
vt 0.245553 0.252220
vt 0.235444 0.229363
vt 0.245553 0.252220
vt 0.235444 0.229363
vt 0.245043 0.229708
vt 0.244717 0.302596
vt 0.235566 0.252530
vt 0.209869 0.278684
vt 0.235566 0.252530
vt 0.244717 0.302596
vt 0.244717 0.302596
vt 0.245043 0.229708
vt 0.244717 0.302596
vt 0.245043 0.229708
vt 0.244717 0.302596
vt 0.244717 0.302596
vt 0.245043 0.229708
vt 0.244717 0.302596
vt 0.235566 0.252530
vt 0.235566 0.252530
vt 0.235566 0.252530
vt 0.235566 0.252530
vt 0.244717 0.302596
vt 0.245043 0.229708
vt 0.235566 0.252530
vt 0.244717 0.302596
vt 0.244717 0.302596
vt 0.245043 0.229708
vt 0.235566 0.252530
vt 0.244717 0.302596
vt 0.244717 0.302596
vt 0.244717 0.302596
vt 0.244717 0.302596
vt 0.244717 0.302596
vt 0.235476 0.278423
vt 0.235476 0.278423
vt 0.235476 0.278423
vt 0.235476 0.278423
vt 0.235476 0.278423
vt 0.235476 0.278423
vt 0.235476 0.278423
vt 0.235476 0.278423
vt 0.244717 0.302596
vt 0.245043 0.229708
vt 0.244717 0.302596
vt 0.245043 0.229708
vt 0.245043 0.229708
vt 0.244717 0.302596
vt 0.244717 0.302596
vt 0.244717 0.302596
vt 0.245043 0.229708
vt 0.244717 0.302596
vt 0.234873 0.278046
vt 0.234873 0.278046
vt 0.234873 0.278046
vt 0.234873 0.278046
vt 0.234873 0.278046
vt 0.234873 0.278046
vt 0.244717 0.302596
vt 0.234873 0.278046
vt 0.244717 0.302596
vt 0.234873 0.278046
vt 0.244717 0.302596
vt 0.234873 0.278046
vt 0.244717 0.302596
vt 0.234873 0.278046
vt 0.235566 0.252530
vt 0.244717 0.302596
vt 0.235566 0.252530
vt 0.244717 0.302596
vt 0.235566 0.252530
vt 0.244717 0.302596
vt 0.244717 0.302596
vt 0.235566 0.252530
vt 0.244717 0.302596
vt 0.244717 0.302596
vt 0.244717 0.302596
vt 0.244717 0.302596
vt 0.234873 0.277079
vt 0.234873 0.277079
vt 0.234873 0.277079
vt 0.234873 0.277079
vt 0.234873 0.277079
vt 0.234873 0.277079
vt 0.234873 0.277079
vt 0.234873 0.277079
vt 0.245043 0.229708
vt 0.244717 0.302596
vt 0.245043 0.229708
vt 0.244717 0.302596
vt 0.244717 0.302596
vt 0.244717 0.302596
vt 0.210896 0.278342
vt 0.210896 0.278342
vt 0.210896 0.278342
vt 0.210896 0.278342
vt 0.235566 0.252530
vt 0.244717 0.302596
vt 0.235566 0.252530
vt 0.244717 0.302596
vt 0.244717 0.302596
vt 0.209869 0.278684
vt 0.209869 0.278684
vt 0.209869 0.278684
vt 0.244717 0.302596
vt 0.245043 0.229708
vt 0.244717 0.302596
vt 0.244717 0.302596
vt 0.245043 0.229708
vt 0.244717 0.302596
vt 0.244717 0.302596
vt 0.209184 0.279369
vt 0.209184 0.279369
vt 0.209184 0.279369
vt 0.209184 0.279369
vt 0.209184 0.279369
vt 0.236092 0.250575
vt 0.236092 0.250575
vt 0.236092 0.250575
vt 0.236092 0.250575
vt 0.236092 0.250575
vt 0.236092 0.250575
vt 0.236092 0.250575
vt 0.236092 0.250575
vt 0.236092 0.250575
vt 0.236092 0.250575
vt 0.236092 0.250575
vt 0.236092 0.250575
vt 0.236092 0.250575
vt 0.236092 0.250575
vt 0.236092 0.250575
vt 0.236092 0.250575
vt 0.236092 0.250575
vn 0.000000 0.724178 0.689613
vn 0.000000 0.724178 0.689613
vn 0.000000 0.724178 0.689613
vn 0.000000 0.724178 0.689613
vn 0.000000 0.724178 0.689613
vn 0.000000 0.724178 0.689613
vn 0.676925 0.736052 0.000000
vn 0.676925 0.736052 0.000000
vn 0.676925 0.736052 0.000000
vn 0.676925 0.736052 0.000000
vn 0.676925 0.736052 0.000000
vn -0.682173 0.731191 0.000000
vn -0.682173 0.731191 0.000000
vn -0.682173 0.731191 0.000000
vn 0.000000 0.724145 -0.689648
vn 0.000000 0.724145 -0.689648
vn 0.000000 0.724145 -0.689648
vn 0.000000 1.000000 -0.000001
vn 0.000000 1.000000 -0.000001
vn 0.000000 1.000000 -0.000001
vn 0.000000 1.000000 -0.000001
vn -0.000001 1.000000 0.000000
vn -0.000001 1.000000 0.000000
vn -0.000001 1.000000 0.000000
vn -0.000001 1.000000 0.000000
vn 0.000001 1.000000 0.000000
vn 0.000001 1.000000 0.000000
vn 0.000001 1.000000 0.000000
vn 0.000001 1.000000 0.000000
vn 0.000000 1.000000 0.000001
vn 0.000000 1.000000 0.000001
vn 0.000000 1.000000 0.000001
vn 0.000000 1.000000 0.000001
vn 0.831488 0.555543 -0.000001
vn 0.831488 0.555543 -0.000001
vn 0.831488 0.555543 -0.000001
vn 0.831488 0.555543 -0.000001
vn 0.000000 0.555567 -0.831472
vn 0.000000 0.555567 -0.831472
vn 0.000000 0.555567 -0.831472
vn 0.000000 0.555567 -0.831472
vn 0.000000 0.555543 0.831488
vn 0.000000 0.555543 0.831488
vn 0.000000 0.555543 0.831488
vn 0.000000 0.555543 0.831488
vn -0.831480 0.555555 -0.000002
vn -0.831480 0.555555 -0.000002
vn -0.831480 0.555555 -0.000002
vn -0.831480 0.555555 -0.000002
vn 0.000000 1.000000 -0.000000
vn 0.000000 1.000000 -0.000000
vn 0.000000 1.000000 -0.000000
vn 0.000000 1.000000 -0.000000
vn 0.000000 1.000000 0.000000
vn 0.000000 1.000000 0.000000
vn 0.000000 1.000000 0.000000
vn 0.000000 1.000000 0.000000
vn 0.000000 1.000000 0.000000
vn 0.000000 1.000000 0.000000
vn 0.000000 1.000000 0.000000
vn 0.000000 1.000000 0.000000
vn 0.000000 1.000000 0.000000
vn 0.000000 1.000000 0.000000
vn 0.000000 1.000000 0.000000
vn 0.000000 1.000000 0.000000
vn 0.000000 1.000000 -0.000001
vn 0.000000 1.000000 -0.000001
vn 0.000000 1.000000 -0.000001
vn 0.000000 1.000000 -0.000001
vn 0.000000 0.555543 0.831488
vn 0.000000 0.555543 0.831488
vn 0.000000 0.555543 0.831488
vn 0.000000 0.555543 0.831488
vn 0.000000 1.000000 -0.000000
vn 0.000000 1.000000 -0.000000
vn 0.000000 1.000000 -0.000000
vn 0.000000 1.000000 -0.000000
vn 0.000000 0.724178 0.689613
vn 0.000000 0.724178 0.689613
vn 0.000000 0.724178 0.689613
vn 0.000000 0.724178 0.689613
vn 0.000000 0.724178 0.689613
vn 0.000000 1.000000 0.000000
vn 0.000000 1.000000 0.000000
vn 0.000000 1.000000 0.000000
vn 0.000000 1.000000 0.000000
vn 0.000000 0.555567 -0.831472
vn 0.000000 0.555567 -0.831472
vn 0.000000 0.555567 -0.831472
vn 0.000000 0.555567 -0.831472
vn 0.000000 1.000000 0.000001
vn 0.000000 1.000000 0.000001
vn 0.000000 1.000000 0.000001
vn 0.000000 1.000000 0.000001
vn -0.000000 0.724151 -0.689641
vn -0.000000 0.724151 -0.689641
vn -0.000000 0.724151 -0.689641
vn -0.000000 0.724151 -0.689641
vn -0.000000 0.724151 -0.689641
vn -0.000000 0.724151 -0.689641
vn -0.000000 0.724151 -0.689641
vn -0.000001 0.724135 -0.689658
vn -0.000001 0.724135 -0.689658
vn -0.000001 0.724135 -0.689658
vn -0.000001 0.724135 -0.689658
vn 0.000000 0.724178 0.689613
vn 0.000000 0.724178 0.689613
vn 0.000000 0.724178 0.689613
vn 0.000000 1.000000 0.000000
vn 0.000000 1.000000 0.000000
vn 0.000000 1.000000 0.000000
vn 0.000000 1.000000 0.000000
vn 0.000000 1.000000 0.000000
vn 0.000000 1.000000 0.000000
vn -0.000001 1.000000 0.000000
vn -0.000001 1.000000 0.000000
vn -0.000001 1.000000 0.000000
vn -0.000001 1.000000 0.000000
vn 0.831488 0.555544 -0.000001
vn 0.831488 0.555544 -0.000001
vn 0.831488 0.555544 -0.000001
vn 0.831487 0.555543 -0.000001
vn 0.000000 1.000000 0.000000
vn 0.000000 1.000000 0.000000
vn 0.000000 1.000000 0.000000
vn 0.000000 1.000000 0.000000
vn 0.000000 1.000000 0.000000
vn 0.000000 1.000000 0.000000
vn 0.000000 1.000000 0.000000
vn 0.000000 1.000000 0.000000
vn 0.000000 1.000000 0.000000
vn 0.676935 0.736042 0.000000
vn 0.676935 0.736042 0.000000
vn 0.676935 0.736042 0.000000
vn 0.676935 0.736042 0.000000
vn 0.676935 0.736042 0.000000
vn 0.676935 0.736042 0.000000
vn 0.000000 1.000000 -0.000000
vn 0.000000 1.000000 -0.000000
vn 0.000000 1.000000 -0.000000
vn 0.000000 1.000000 -0.000000
vn -0.831464 0.555578 -0.000002
vn -0.831464 0.555578 -0.000002
vn -0.831464 0.555578 -0.000002
vn -0.831464 0.555578 -0.000002
vn 0.000001 1.000000 0.000000
vn 0.000001 1.000000 0.000000
vn 0.000001 1.000000 0.000000
vn 0.000001 1.000000 0.000000
vn -0.000000 1.000000 -0.000000
vn -0.000000 1.000000 -0.000000
vn -0.000000 1.000000 -0.000000
vn 0.000000 1.000000 0.000000
vn 0.000000 1.000000 0.000000
vn 0.000000 1.000000 0.000000
vn 0.000000 1.000000 0.000000
vn -0.000000 1.000000 0.000000
vn -0.000000 1.000000 0.000000
vn -0.000000 1.000000 0.000000
vn -0.000000 1.000000 0.000000
vn 0.000000 1.000000 0.000000
vn 0.000000 1.000000 0.000000
vn 0.000000 1.000000 0.000000
vn 0.000000 1.000000 0.000000
vn 0.000000 1.000000 0.000000
vn 0.000000 1.000000 0.000000
vn 0.000000 1.000000 0.000000
vn 0.000000 1.000000 0.000000
vn -0.000000 1.000000 0.000000
vn -0.000000 1.000000 0.000000
vn -0.000000 1.000000 0.000000
vn -0.000000 1.000000 0.000000
vn -0.000000 1.000000 0.000000
vn -0.000000 1.000000 0.000000
vn -0.000000 1.000000 0.000000
vn -0.000000 1.000000 0.000000
vn -0.000000 1.000000 0.000000
vn -0.000000 1.000000 0.000000
vn -0.000000 1.000000 0.000000
vn -0.000000 1.000000 0.000000
vn -0.000000 1.000000 0.000000
vn -0.682172 0.731191 0.000000
vn -0.682172 0.731191 0.000000
vn -0.682172 0.731191 0.000000
vn -0.682172 0.731191 0.000000
vn -0.682172 0.731191 0.000000
vn -0.682172 0.731191 0.000000
vn -0.682172 0.731191 0.000000
vn -0.682172 0.731191 0.000000
vn -0.682172 0.731191 0.000000
vn 0.676930 0.736047 0.000000
vn 0.676930 0.736048 0.000000
vn 0.676930 0.736047 0.000000
vn 0.000000 1.000000 0.000000
vn 0.000000 1.000000 0.000000
vn 0.000000 1.000000 0.000000
vn 0.000000 1.000000 0.000000
vn 0.000000 1.000000 0.000000
vn 0.000000 1.000000 0.000000
vn 0.000000 1.000000 0.000000
vn 0.000000 1.000000 0.000000
vn 0.000000 1.000000 0.000000
vn 0.000000 1.000000 0.000000
vn 0.000000 1.000000 0.000000
vn 0.000000 1.000000 0.000000
vn 0.000000 1.000000 0.000000
vn 0.000000 1.000000 0.000000
vn 0.000000 1.000000 0.000000
vn -0.000000 1.000000 -0.000000
vn -0.000000 1.000000 -0.000000
vn -0.000000 1.000000 -0.000000
vn -0.000000 1.000000 -0.000000
vn 0.000000 1.000000 0.000000
vn 0.000000 1.000000 0.000000
vn 0.000000 1.000000 0.000000
vn -0.000000 1.000000 0.000000
vn -0.000000 1.000000 0.000000
vn -0.000000 1.000000 0.000000
vn -0.000000 1.000000 0.000000
vn 0.000000 1.000000 0.000000
vn 0.000000 1.000000 0.000000
vn 0.000000 1.000000 0.000000
vn 0.000000 1.000000 0.000000
vn 0.000000 1.000000 0.000000
vn 0.000000 1.000000 0.000000
vn 0.000000 1.000000 0.000000
vn 0.000000 1.000000 0.000000
vn 0.000000 1.000000 0.000000
vn 0.000000 1.000000 0.000000
vn 0.000000 1.000000 0.000000
vn -0.000000 1.000000 -0.000000
vn -0.000000 1.000000 -0.000000
vn -0.000000 1.000000 -0.000000
vn -0.000000 1.000000 -0.000000
vn 0.000000 1.000000 0.000000
vn 0.000000 1.000000 0.000000
vn 0.000000 1.000000 0.000000
vn 0.000000 1.000000 0.000000
vn 0.000000 1.000000 0.000000
vn -0.000000 1.000000 0.000000
vn -0.000000 1.000000 0.000000
vn -0.000000 1.000000 0.000000
vn -0.000000 1.000000 0.000000
vn -0.000000 1.000000 0.000000
vn -0.000000 1.000000 0.000000
vn -0.000000 1.000000 0.000000
vn 0.000000 1.000000 0.000000
vn 0.000000 1.000000 0.000000
vn 0.000000 1.000000 0.000000
vn 0.000000 1.000000 0.000000
vn 0.000000 1.000000 0.000000
vn 0.000000 1.000000 0.000000
vn 0.000000 1.000000 0.000000
vn 0.000000 1.000000 0.000000
vn 0.000000 1.000000 0.000000
vn 0.000000 1.000000 0.000000
vn 0.000000 1.000000 0.000000
vn 0.000000 1.000000 0.000000
vn 0.000000 1.000000 0.000000
vn 0.000000 1.000000 0.000000
vn -0.000000 1.000000 -0.000000
vn -0.000000 1.000000 -0.000000
vn -0.000000 1.000000 -0.000000
vn 0.000000 1.000000 0.000000
vn 0.000000 1.000000 0.000000
vn 0.000000 1.000000 0.000000
vn 0.000000 1.000000 0.000000
vn 0.000000 1.000000 0.000000
vn 0.000000 1.000000 0.000000
vn -0.000000 1.000000 -0.000000
vn -0.000000 1.000000 -0.000000
vn -0.000000 1.000000 -0.000000
vn -0.000000 1.000000 -0.000000
vn 0.000000 1.000000 0.000000
vn 0.000000 1.000000 0.000000
vn 0.000000 1.000000 0.000000
vn -0.000000 1.000000 -0.000000
vn -0.000000 1.000000 -0.000000
vn -0.000000 1.000000 -0.000000
vn 0.000000 1.000000 -0.000000
vn 0.000000 1.000000 -0.000000
vn 0.000000 1.000000 -0.000000
vn 0.000000 1.000000 0.000000
vn 0.000000 1.000000 0.000000
vn 0.000000 1.000000 0.000000
vn 0.000000 1.000000 0.000000
vn 0.000000 1.000000 0.000000
vn 0.000000 1.000000 0.000000
vn -0.000000 1.000000 -0.000000
vn -0.000000 1.000000 -0.000000
vn -0.000000 1.000000 -0.000000
vn -0.000000 1.000000 -0.000000
vn -0.000000 1.000000 -0.000000
vn -0.000000 1.000000 0.000000
vn -0.000000 1.000000 0.000000
vn -0.000000 1.000000 0.000000
vn -0.000000 1.000000 0.000000
vn -0.000000 1.000000 0.000000
vn -0.000000 1.000000 0.000000
vn 0.000000 1.000000 0.000000
vn 0.000000 1.000000 0.000000
vn 0.000000 1.000000 0.000000
vn 0.000000 1.000000 0.000000
vn -0.000000 1.000000 -0.000000
vn -0.000000 1.000000 -0.000000
vn -0.000000 1.000000 -0.000000
vn -0.000000 1.000000 -0.000000
vn 0.000000 1.000000 0.000000
vn 0.000000 1.000000 0.000000
vn 0.000000 1.000000 0.000000
vn 0.000000 1.000000 -0.000000
vn 0.000000 1.000000 -0.000000
vn 0.000000 1.000000 -0.000000
vn 0.000000 1.000000 0.000000
vn 0.000000 1.000000 0.000000
vn 0.000000 1.000000 0.000000
vn -0.000000 1.000000 0.000000
vn -0.000000 1.000000 0.000000
vn -0.000000 1.000000 0.000000
vn -0.000000 1.000000 0.000000
vn -0.000000 1.000000 0.000000
vn -0.000000 1.000000 0.000000
vn -0.000000 1.000000 -0.000000
vn -0.000000 1.000000 -0.000000
vn -0.000000 1.000000 -0.000000
vn -0.000000 1.000000 0.000000
vn -0.000000 1.000000 0.000000
vn -0.000000 1.000000 0.000000
vn 0.000000 1.000000 0.000000
vn 0.000000 1.000000 0.000000
vn 0.000000 1.000000 0.000000
vn 0.000000 1.000000 0.000000
vn 0.000000 1.000000 0.000000
vn 0.000000 1.000000 0.000000
vn 0.000000 0.000000 -1.000000
vn 0.000000 0.000000 -1.000000
vn 0.000000 0.000000 -1.000000
vn 0.000000 0.000000 -1.000000
vn -1.000000 0.000000 0.000000
vn -1.000000 0.000000 0.000000
vn -1.000000 0.000000 0.000000
vn -1.000000 0.000000 0.000000
vn 1.000000 0.000000 0.000000
vn 1.000000 0.000000 0.000000
vn 1.000000 0.000000 0.000000
vn 1.000000 0.000000 0.000000
vn 0.000000 0.000000 1.000000
vn 0.000000 0.000000 1.000000
vn 0.000000 0.000000 1.000000
vn 0.000000 0.000000 1.000000
vn 0.000000 0.000000 -1.000000
vn 0.000000 0.000000 -1.000000
vn 0.000000 0.000000 -1.000000
vn 0.000000 0.000000 -1.000000
vn 0.000000 0.000000 1.000000
vn 0.000000 0.000000 1.000000
vn 0.000000 0.000000 1.000000
vn 0.000000 0.000000 1.000000
vn -1.000000 0.000000 0.000000
vn -1.000000 0.000000 0.000000
vn -1.000000 0.000000 0.000000
vn -1.000000 0.000000 0.000000
vn 1.000000 0.000000 0.000000
vn 1.000000 0.000000 0.000000
vn 1.000000 0.000000 0.000000
vn 1.000000 0.000000 0.000000
vn 0.000000 -1.000000 0.000000
vn 0.000000 -1.000000 0.000000
vn 0.000000 -1.000000 0.000000
vn 0.000000 -1.000000 0.000000
vn 0.000000 -1.000000 0.000000
vn 0.000000 -1.000000 0.000000
vn 0.000000 -1.000000 0.000000
vn 0.000000 -1.000000 0.000000
vn 0.000000 -1.000000 0.000000
vn 0.000000 -1.000000 0.000000
vn 0.000000 -1.000000 0.000000
vn 0.000000 -1.000000 0.000000
vn 0.000000 -1.000000 0.000000
vn 0.000000 -1.000000 0.000000
vn 0.000000 -1.000000 0.000000
vn 0.000000 -1.000000 0.000000
s off
f 3/1/1 59/137/2 62/141/3 31/71/4 25/61/5 1/4/6
f 47/104/7 39/88/8 5/8/9 7/7/10 82/196/11
f 48/107/12 36/85/13 43/95/14
f 29/68/15 32/74/16 24/58/17
f 14/24/18 21/53/19 22/54/20 13/23/21
f 10/14/22 33/79/23 34/80/24 9/13/25
f 42/94/26 14/21/27 13/22/28 41/92/29
f 28/66/30 16/25/31 15/26/32 27/64/33
f 17/37/34 9/36/35 34/81/36 35/83/37
f 26/63/38 27/65/39 15/31/40 20/43/41
f 19/42/42 13/34/43 22/55/44 23/57/45
f 40/91/46 41/93/47 13/33/48 19/41/49
f 24/59/50 5/46/51 19/45/52 23/56/53
f 5/46/54 39/89/55 40/90/56 19/45/57
f 36/84/58 6/50/59 17/49/60 35/82/61
f 1/48/62 25/60/63 26/62/64 20/47/65
f 21/53/66 10/15/67 9/16/68 22/54/69
f 23/57/70 22/55/71 9/35/72 17/38/73
f 6/50/74 24/59/75 23/56/76 17/49/77
f 25/61/78 30/69/79 76/179/80 4/2/81 2/3/82
f 26/62/83 25/60/84 2/52/85 18/51/86
f 18/39/87 11/30/88 27/65/89 26/63/90
f 12/18/91 28/66/92 27/64/93 11/17/94
f 7/7/95 5/8/96 24/58/97 32/74/98 51/118/99 49/114/100 84/199/101
f 29/68/102 24/58/103 6/9/104 8/10/105
f 25/61/106 31/71/107 30/69/108
f 37/75/109 38/76/110 32/77/111 29/78/112 68/159/113 67/157/114
f 33/79/115 12/19/116 11/20/117 34/80/118
f 35/83/119 34/81/120 11/29/121 18/40/122
f 2/52/123 36/84/124 35/82/125 18/51/126
f 30/86/127 31/87/128 45/97/129 44/99/130 80/189/131
f 3/1/132 1/4/133 39/88/134 46/102/135 57/134/136 58/136/137
f 40/90/138 39/89/139 1/48/140 20/47/141
f 20/44/142 15/32/143 41/93/144 40/91/145
f 16/28/146 42/94/147 41/92/148 15/27/149
f 44/98/150 79/192/151 81/193/152
f 59/143/153 60/144/154 61/145/155 62/146/156
f 85/200/157 55/123/158 47/103/159 82/195/160
f 70/169/161 74/170/162 71/171/163 69/172/164
f 44/99/165 45/97/166 38/76/167 37/75/168
f 44/99/169 37/75/170 69/161/171 71/164/172 48/109/173 43/110/174 79/187/175
f 46/111/176 47/112/177 50/115/178 52/119/179 38/76/180 45/97/181
f 36/85/182 48/107/183 8/10/184 6/9/185
f 2/3/186 4/2/187 75/177/188 43/95/189 36/85/190
f 39/88/191 47/104/192 46/102/193
f 53/125/194 54/126/195 52/127/196 50/128/197
f 54/122/198 38/105/199 52/120/200
f 55/129/201 56/130/202 54/126/203 53/125/204
f 51/131/205 56/130/206 55/129/207 49/132/208
f 3/5/209 64/151/210 60/139/211 59/138/212
f 31/72/213 62/142/214 61/140/215
f 57/147/216 65/154/217 66/156/218 58/148/219
f 45/100/220 61/140/221 63/149/222
f 64/152/223 63/150/224 61/145/225 60/144/226
f 66/156/227 65/154/228 63/150/229 64/152/230
f 8/12/231 73/167/232 68/160/233 29/67/234
f 67/158/235 72/166/236 70/163/237 69/162/238 37/106/239
f 71/165/240 74/168/241 8/12/242 48/108/243
f 8/12/244 74/168/245 73/167/246
f 73/173/247 72/174/248 67/175/249 68/176/250
f 73/173/251 74/170/252 70/169/253 72/174/254
f 4/6/255 77/183/256 75/184/257
f 76/185/258 78/186/259 4/6/260
f 4/6/261 78/186/262 77/183/263
f 77/181/264 43/96/265 75/178/266
f 44/98/267 81/193/268 80/194/269
f 47/103/270 55/123/271 53/121/272 50/116/273
f 32/73/274 56/124/275 51/117/276
f 7/11/277 84/202/278 86/203/279
f 7/11/280 83/204/281 85/205/282
f 7/11/283 85/205/284 82/206/285
f 7/11/286 86/203/287 83/204/288
f 49/113/289 55/123/290 83/197/291 86/201/292 84/198/293
f 83/197/294 55/123/295 85/200/296
f 80/190/297 76/180/298 30/70/299
f 80/190/300 81/191/301 78/182/302 76/180/303
f 78/182/304 81/191/305 79/188/306 77/181/307
f 77/181/308 79/188/309 43/96/310
f 32/73/311 54/122/312 56/124/313
f 45/100/314 63/149/315 65/153/316
f 45/100/317 65/153/318 46/101/319
f 58/135/320 66/155/321 3/5/322
f 3/5/323 66/155/324 64/151/325
f 46/101/326 65/153/327 57/133/328
f 31/72/329 61/140/330 45/100/331
f 32/73/332 38/105/333 54/122/334
f 10/207/335 21/208/336 88/209/337 87/210/338
f 12/211/339 33/212/340 90/213/341 89/214/342
f 14/215/343 42/216/344 92/217/345 91/218/346
f 16/219/347 28/220/348 94/221/349 93/222/350
f 21/208/351 14/215/352 91/218/353 88/209/354
f 28/220/355 12/211/356 89/214/357 94/221/358
f 33/212/359 10/207/360 87/210/361 90/213/362
f 42/216/363 16/219/364 93/222/365 92/217/366
f 94/221/367 95/223/368 92/217/369 93/222/370
f 89/214/371 90/213/372 95/223/373 94/221/374
f 95/223/375 90/213/376 87/210/377 88/209/378
f 92/217/379 95/223/380 88/209/381 91/218/382
