# This file uses meters as units for non-parametric coordinates.

v 0.000153 400.000000 500.000000
v 500.000000 400.000000 500.000000
v 0.000153 400.000000 0.000000
v 500.000000 400.000000 0.000000
v 0.000153 422.748932 500.000000
v 500.000000 422.748932 500.000000
v 500.000000 422.748932 0.000000
v 0.000153 422.748932 0.000000
v 8.213959 422.748932 491.786194
v 491.786194 422.748932 491.786194
v 491.786194 422.748932 8.213837
v 8.213959 422.748932 8.213837
v 16.460571 417.197388 483.539551
v 483.539429 417.197388 483.539551
v 483.539429 417.197388 16.460434
v 16.460571 417.197388 16.460434
vt 0.235500 0.280315
vt 0.235500 0.280315
vt 0.235500 0.280315
vt 0.235500 0.280315
vt 0.235500 0.280315
vt 0.235500 0.280315
vt 0.235500 0.280315
vt 0.235500 0.280315
vt 0.235500 0.280315
vt 0.235500 0.280315
vt 0.235500 0.280315
vt 0.235500 0.280315
vt 0.235500 0.280315
vt 0.235500 0.280315
vt 0.235500 0.280315
vt 0.235500 0.280315
vt 0.235500 0.280315
vt 0.235500 0.280315
vt 0.235500 0.280315
vt 0.235500 0.280315
vt 0.254927 0.709983
vt 0.445839 0.709983
vt 0.445839 0.900895
vt 0.254927 0.900895
vt 0.235500 0.280315
vt 0.235500 0.280315
vt 0.235500 0.280315
vt 0.235500 0.280315
vt 0.235500 0.280315
vt 0.235500 0.280315
vt 0.235500 0.280315
vt 0.235500 0.280315
vt 0.235500 0.280315
vt 0.235500 0.280315
vt 0.235500 0.280315
vt 0.235500 0.280315
vt 0.235500 0.280315
vt 0.235500 0.280315
vt 0.235500 0.280315
vt 0.235500 0.280315
vt 0.235500 0.280315
vt 0.235500 0.280315
vt 0.235500 0.280315
vt 0.235500 0.280315
vt 0.235500 0.280315
vt 0.235500 0.280315
vt 0.235500 0.280315
vt 0.235500 0.280315
vt 0.235500 0.280315
vt 0.235500 0.280315
vt 0.235500 0.280315
vt 0.235500 0.280315
vt 0.235500 0.280315
vt 0.235500 0.280315
vt 0.235500 0.280315
vt 0.235500 0.280315
vn 0.000000 1.000000 0.000000
vn 0.000000 1.000000 0.000000
vn 0.000000 1.000000 0.000000
vn 0.000000 1.000000 0.000000
vn 0.000000 -1.000000 0.000000
vn 0.000000 -1.000000 0.000000
vn 0.000000 -1.000000 0.000000
vn 0.000000 -1.000000 0.000000
vn 0.000000 0.000000 1.000000
vn 0.000000 0.000000 1.000000
vn 0.000000 0.000000 1.000000
vn 0.000000 0.000000 1.000000
vn 1.000000 0.000000 0.000000
vn 1.000000 0.000000 0.000000
vn 1.000000 0.000000 0.000000
vn 1.000000 0.000000 0.000000
vn 0.000000 0.000000 -1.000000
vn 0.000000 0.000000 -1.000000
vn 0.000000 0.000000 -1.000000
vn 0.000000 0.000000 -1.000000
vn -1.000000 0.000000 0.000000
vn -1.000000 0.000000 0.000000
vn -1.000000 0.000000 0.000000
vn -1.000000 0.000000 0.000000
vn 0.000000 1.000000 -0.000003
vn 0.000000 1.000000 -0.000003
vn 0.000000 1.000000 -0.000003
vn 0.000000 1.000000 -0.000003
vn 0.000000 1.000000 0.000000
vn 0.000000 1.000000 0.000000
vn 0.000000 1.000000 0.000000
vn 0.000000 1.000000 0.000000
vn 0.000000 1.000000 0.000003
vn 0.000000 1.000000 0.000003
vn 0.000000 1.000000 0.000003
vn 0.000000 1.000000 0.000003
vn 0.000000 1.000000 0.000000
vn 0.000000 1.000000 0.000000
vn 0.000000 1.000000 0.000000
vn 0.000000 1.000000 0.000000
vn 0.000000 0.829546 -0.558439
vn 0.000000 0.829546 -0.558439
vn 0.000000 0.829545 -0.558439
vn 0.000000 0.829545 -0.558439
vn -0.558434 0.829549 0.000000
vn -0.558434 0.829549 0.000000
vn -0.558434 0.829549 0.000000
vn -0.558434 0.829549 0.000000
vn 0.000000 0.829544 0.558441
vn 0.000000 0.829544 0.558441
vn 0.000000 0.829544 0.558441
vn 0.000000 0.829544 0.558441
vn 0.558441 0.829544 0.000000
vn 0.558441 0.829544 0.000000
vn 0.558441 0.829544 0.000000
vn 0.558441 0.829544 0.000000
s off
f 13/21/1 14/22/2 15/23/3 16/24/4
f 1/5/5 3/8/6 4/7/7 2/6/8
f 1/1/9 2/55/10 6/48/11 5/50/12
f 2/2/13 4/54/14 7/45/15 6/47/16
f 4/4/17 3/53/18 8/42/19 7/44/20
f 3/3/21 1/56/22 5/51/23 8/41/24
f 5/9/25 6/49/26 10/36/27 9/38/28
f 6/10/29 7/46/30 11/33/31 10/35/32
f 7/11/33 8/43/34 12/29/35 11/32/36
f 8/12/37 5/52/38 9/39/39 12/28/40
f 9/13/41 10/37/42 14/31/43 13/17/44
f 10/14/45 11/34/46 15/27/47 14/18/48
f 11/15/49 12/30/50 16/26/51 15/19/52
f 12/16/53 9/40/54 13/25/55 16/20/56
