# This file uses meters as units for non-parametric coordinates.

v -46.316528 219.347855 -3.100586
v -46.316528 219.347855 34.292908
v -46.316528 253.750626 -3.100586
v -46.316528 253.750626 34.292908
v 46.316528 253.750626 -3.100586
v 46.316528 253.750626 34.292908
v 46.316528 219.347855 -3.100586
v 46.316528 219.347855 34.292908
v 21.054993 207.996033 -3.100586
v 21.055130 207.996033 42.806549
v 21.055130 265.102478 42.806549
v 21.054993 265.102478 -3.100586
v -21.054993 207.996033 -3.100586
v -21.054855 207.996033 42.806549
v -21.054855 265.102478 42.806549
v -21.054993 265.102478 -3.100586
v 20.200500 250.313568 82.491455
v 20.200500 65.905609 82.491455
v 20.200500 39.119183 102.900085
v -20.200500 250.313568 82.491455
v -20.200500 65.905609 82.491455
v -20.200500 39.119183 102.900085
v 20.200500 -103.690582 102.900085
v -20.200500 -103.690582 102.900085
v -20.200500 405.397278 82.491455
v 20.200500 405.397278 82.491455
v 20.200500 238.307053 0.000000
v 20.200500 65.905609 0.000000
v 20.200500 -103.690582 0.000000
v -20.200500 238.307053 0.000000
v -20.200500 65.905609 0.000000
v -20.200500 -103.690582 0.000000
v -20.200500 405.397278 0.000000
v 20.200500 405.397278 0.000000
v 20.200500 265.458954 100.559998
v -20.200500 265.458954 100.559998
v 20.200500 405.397278 100.559998
v -20.200500 405.397278 100.559998
v 12.565918 71.979012 82.491455
v -12.565613 71.979012 82.491455
v 12.565918 244.240158 82.491455
v -12.565613 244.240158 82.491455
v 8.110352 75.359016 70.143127
v -8.110046 75.359016 70.143127
v 8.110352 240.860168 70.143127
v -8.110046 240.860168 70.143127
v 6.380615 212.243240 76.010742
v 9.023270 212.243240 69.630280
v -9.023300 212.243240 69.630280
v -6.380310 212.243240 76.010742
v 0.000168 212.243240 78.654022
v 6.380615 218.817123 76.010742
v 9.023270 218.817123 69.630280
v -9.023300 218.817123 69.630280
v -6.380310 218.817123 76.010742
v 0.000168 218.817123 78.654022
v 0.000137 218.817123 69.630280
v 0.000137 212.243240 69.630280
v 4.249268 71.820053 73.879700
v 6.009079 71.820053 69.630585
v -6.009048 71.820053 69.630585
v -4.248962 71.820053 73.879700
v 0.000000 71.820053 75.639648
v 4.249268 247.442612 73.879700
v 6.009079 247.442612 69.630585
v -6.009048 247.442612 69.630585
v -4.248962 247.442612 73.879700
v 0.000000 247.442612 75.639648
v 6.380615 97.588341 76.010742
v 9.023270 97.588341 69.630280
v -9.023300 97.588341 69.630280
v -6.380310 97.588341 76.010742
v 0.000168 97.588341 78.654022
v 6.380615 104.162224 76.010742
v 9.023270 104.162224 69.630280
v -9.023300 104.162224 69.630280
v -6.380310 104.162224 76.010742
v 0.000168 104.162224 78.654022
v 0.000137 104.162224 69.630280
v 0.000137 97.588341 69.630280
v -46.316528 71.681229 -3.100586
v -46.316528 71.681229 34.292908
v -46.316528 106.084007 -3.100586
v -46.316528 106.084007 34.292908
v 46.316528 106.084007 -3.100586
v 46.316528 106.084007 34.292908
v 46.316528 71.681229 -3.100586
v 46.316528 71.681229 34.292908
v 21.054993 60.329403 -3.100586
v 21.055130 60.329403 42.806549
v 21.055130 117.435837 42.806549
v 21.054993 117.435837 -3.100586
v -21.054993 60.329403 -3.100586
v -21.054855 60.329403 42.806549
v -21.054855 117.435837 42.806549
v -21.054993 117.435837 -3.100586
vt 0.236317 0.256358
vt 0.236317 0.256358
vt 0.236317 0.256358
vt 0.236317 0.256358
vt 0.236317 0.256358
vt 0.236317 0.256358
vt 0.236317 0.256358
vt 0.236317 0.256358
vt 0.236317 0.256358
vt 0.236317 0.256358
vt 0.236317 0.256358
vt 0.236317 0.256358
vt 0.236317 0.256358
vt 0.236317 0.256358
vt 0.236317 0.256358
vt 0.236317 0.256358
vt 0.236317 0.256358
vt 0.236317 0.256358
vt 0.236317 0.256358
vt 0.236317 0.256358
vt 0.236317 0.256358
vt 0.236317 0.256358
vt 0.236317 0.256358
vt 0.236317 0.256358
vt 0.245163 0.326402
vt 0.245163 0.326402
vt 0.245163 0.326401
vt 0.245163 0.326401
vt 0.245163 0.326402
vt 0.245163 0.326402
vt 0.245163 0.326402
vt 0.245163 0.326402
vt 0.245163 0.326403
vt 0.245163 0.326403
vt 0.245163 0.326401
vt 0.245163 0.326401
vt 0.245163 0.326401
vt 0.245163 0.326401
vt 0.245163 0.326402
vt 0.245163 0.326401
vt 0.245163 0.326401
vt 0.245163 0.326402
vt 0.245163 0.326401
vt 0.245163 0.326402
vt 0.245163 0.326401
vt 0.245163 0.326402
vt 0.245163 0.326401
vt 0.245163 0.326401
vt 0.245163 0.326401
vt 0.245163 0.326401
vt 0.245163 0.326402
vt 0.245163 0.326402
vt 0.245163 0.326401
vt 0.245163 0.326401
vt 0.236317 0.256358
vt 0.236317 0.256358
vt 0.236317 0.256358
vt 0.236317 0.256358
vt 0.236317 0.256358
vt 0.236317 0.256358
vt 0.236317 0.256358
vt 0.236317 0.256358
vt 0.236317 0.256358
vt 0.236317 0.256358
vt 0.236317 0.256358
vt 0.236317 0.256358
vt 0.236317 0.256358
vt 0.236317 0.256358
vt 0.236317 0.256358
vt 0.236317 0.256358
vt 0.236317 0.256358
vt 0.236317 0.256358
vt 0.236317 0.256358
vt 0.236317 0.256358
vt 0.236317 0.256358
vt 0.236317 0.256358
vt 0.236317 0.256358
vt 0.236317 0.256358
vt 0.234848 0.327877
vt 0.234848 0.327877
vt 0.234848 0.327877
vt 0.234848 0.327877
vt 0.234848 0.327877
vt 0.234848 0.327877
vt 0.234848 0.327877
vt 0.234848 0.327877
vt 0.234848 0.327877
vt 0.234848 0.327877
vt 0.234848 0.327877
vt 0.234848 0.327877
vt 0.234848 0.327877
vt 0.234848 0.327877
vt 0.234848 0.327877
vt 0.234848 0.327877
vt 0.234848 0.327877
vt 0.234848 0.327877
vt 0.264343 0.027794
vt 0.264343 0.027794
vt 0.264343 0.027794
vt 0.264343 0.027794
vt 0.264343 0.027794
vt 0.264343 0.027794
vt 0.264343 0.027794
vt 0.264343 0.027794
vt 0.264343 0.027794
vt 0.264343 0.027794
vt 0.234848 0.327877
vt 0.234848 0.327877
vt 0.234848 0.327877
vt 0.234848 0.327877
vt 0.234848 0.327877
vt 0.234848 0.327877
vt 0.232875 0.253696
vt 0.232875 0.253696
vt 0.232875 0.253696
vt 0.232875 0.253696
vt 0.232875 0.253696
vt 0.232875 0.253696
vt 0.232875 0.253696
vt 0.232875 0.253696
vn -1.000000 0.000000 0.000000
vn -1.000000 0.000000 0.000000
vn -1.000000 0.000000 0.000000
vn -1.000000 0.000000 0.000000
vn -0.409888 0.912136 0.000001
vn -0.409888 0.912136 0.000001
vn -0.409888 0.912136 0.000001
vn -0.409888 0.912136 0.000001
vn 1.000000 0.000000 0.000000
vn 1.000000 0.000000 0.000000
vn 1.000000 0.000000 0.000000
vn 1.000000 0.000000 0.000000
vn -0.409887 -0.912136 0.000001
vn -0.409887 -0.912136 0.000001
vn -0.409887 -0.912136 0.000001
vn -0.409887 -0.912136 0.000001
vn -0.319369 0.000000 0.947631
vn -0.319369 0.000000 0.947631
vn -0.319369 0.000000 0.947631
vn -0.319369 0.000000 0.947631
vn 0.409889 -0.912135 -0.000001
vn 0.409889 -0.912135 -0.000001
vn 0.409889 -0.912135 -0.000001
vn 0.409889 -0.912135 -0.000001
vn 0.319372 0.000000 0.947630
vn 0.319372 0.000000 0.947630
vn 0.319372 0.000000 0.947630
vn 0.319372 0.000000 0.947630
vn 0.409890 0.912135 -0.000001
vn 0.409890 0.912135 -0.000001
vn 0.409890 0.912135 -0.000001
vn 0.409890 0.912135 -0.000001
vn 0.000000 -1.000000 0.000000
vn 0.000000 -1.000000 0.000000
vn 0.000000 -1.000000 0.000000
vn 0.000000 -1.000000 0.000000
vn 0.000000 0.000000 1.000000
vn 0.000000 0.000000 1.000000
vn 0.000000 0.000000 1.000000
vn 0.000000 0.000000 1.000000
vn 0.000000 1.000000 0.000000
vn 0.000000 1.000000 0.000000
vn 0.000000 1.000000 0.000000
vn 0.000000 1.000000 0.000000
vn 0.000000 0.000000 1.000000
vn 0.000000 0.000000 1.000000
vn 0.000000 0.000000 1.000000
vn 0.000000 0.000000 1.000000
vn 0.000000 0.606042 0.795433
vn 0.000000 0.606042 0.795433
vn 0.000000 0.606042 0.795433
vn 0.000000 0.606042 0.795433
vn 0.000000 0.000000 1.000000
vn 0.000000 0.000000 1.000000
vn 0.000000 0.000000 1.000000
vn 0.000000 0.000000 1.000000
vn 0.000000 0.000000 1.000000
vn 0.000000 0.000000 1.000000
vn 0.000000 0.000000 1.000000
vn 0.000000 0.000000 1.000000
vn 1.000000 0.000000 0.000000
vn 1.000000 0.000000 0.000000
vn 1.000000 0.000000 0.000000
vn 1.000000 0.000000 0.000000
vn 1.000000 0.000000 0.000000
vn 1.000000 0.000000 0.000000
vn 1.000000 0.000000 0.000000
vn 1.000000 0.000000 0.000000
vn -1.000000 0.000000 0.000000
vn -1.000000 0.000000 0.000000
vn -1.000000 0.000000 0.000000
vn -1.000000 0.000000 0.000000
vn -1.000000 0.000000 0.000000
vn -1.000000 0.000000 0.000000
vn -1.000000 0.000000 0.000000
vn -1.000000 0.000000 0.000000
vn 1.000000 0.000000 0.000000
vn 1.000000 0.000000 0.000000
vn 1.000000 0.000000 0.000000
vn -1.000000 0.000000 0.000000
vn -1.000000 0.000000 0.000000
vn -1.000000 0.000000 0.000000
vn 0.000000 -1.000000 0.000000
vn 0.000000 -1.000000 0.000000
vn 0.000000 -1.000000 0.000000
vn 0.000000 -1.000000 0.000000
vn -1.000000 0.000000 0.000000
vn -1.000000 0.000000 0.000000
vn -1.000000 0.000000 0.000000
vn -1.000000 0.000000 0.000000
vn 1.000000 0.000000 0.000000
vn 1.000000 0.000000 0.000000
vn 1.000000 0.000000 0.000000
vn 1.000000 0.000000 0.000000
vn 0.000000 1.000000 0.000000
vn 0.000000 1.000000 0.000000
vn 0.000000 1.000000 0.000000
vn 0.000000 1.000000 0.000000
vn 0.000000 -0.766377 0.642391
vn 0.000000 -0.766377 0.642391
vn 0.000000 -0.766377 0.642391
vn 0.000000 -0.766377 0.642391
vn 1.000000 0.000000 0.000000
vn 1.000000 0.000000 0.000000
vn 1.000000 0.000000 0.000000
vn 1.000000 0.000000 0.000000
vn 0.000000 1.000000 0.000000
vn 0.000000 1.000000 0.000000
vn 0.000000 1.000000 0.000000
vn 0.000000 1.000000 0.000000
vn -1.000000 0.000000 0.000000
vn -1.000000 0.000000 0.000000
vn -1.000000 0.000000 0.000000
vn -1.000000 0.000000 0.000000
vn 0.000000 0.000000 1.000000
vn 0.000000 0.000000 1.000000
vn 0.000000 0.000000 1.000000
vn 0.000000 0.000000 1.000000
vn -0.000000 0.000000 1.000000
vn -0.000000 0.000000 1.000000
vn -0.000000 0.000000 1.000000
vn -0.000000 0.000000 1.000000
vn 0.000000 0.000000 1.000000
vn 0.000000 0.000000 1.000000
vn 0.000000 0.000000 1.000000
vn 0.000000 0.000000 1.000000
vn 0.000000 0.000000 1.000000
vn 0.000000 0.000000 1.000000
vn 0.000000 0.000000 1.000000
vn 0.000000 0.000000 1.000000
vn 0.000000 0.964520 0.264010
vn 0.000000 0.964520 0.264010
vn 0.000000 0.964520 0.264010
vn 0.000000 0.964520 0.264010
vn -0.940640 0.000000 0.339405
vn -0.940640 0.000000 0.339405
vn -0.940640 0.000000 0.339405
vn -0.940640 0.000000 0.339405
vn 0.000000 -0.964520 0.264008
vn 0.000000 -0.964520 0.264008
vn 0.000000 -0.964520 0.264008
vn 0.000000 -0.964520 0.264008
vn 0.940640 0.000000 0.339405
vn 0.940640 0.000000 0.339405
vn 0.940640 0.000000 0.339405
vn 0.940640 0.000000 0.339405
vn 0.923891 0.000000 0.382656
vn 0.923891 0.000000 0.382656
vn 0.923891 0.000000 0.382656
vn 0.923891 0.000000 0.382656
vn -0.923874 0.000000 0.382697
vn -0.923874 0.000000 0.382697
vn -0.923874 0.000000 0.382697
vn -0.923874 0.000000 0.382697
vn -0.382732 0.000000 0.923859
vn -0.382732 0.000000 0.923859
vn -0.382732 0.000000 0.923859
vn -0.382732 0.000000 0.923859
vn 0.382734 0.000000 0.923859
vn 0.382734 0.000000 0.923859
vn 0.382734 0.000000 0.923859
vn 0.382734 0.000000 0.923859
vn 0.000000 1.000000 0.000000
vn 0.000000 1.000000 0.000000
vn 0.000000 1.000000 0.000000
vn 0.000000 1.000000 0.000000
vn 0.000000 1.000000 0.000000
vn 0.000000 1.000000 0.000000
vn 0.000000 1.000000 0.000000
vn 0.000000 1.000000 0.000000
vn 0.000000 1.000000 0.000000
vn 0.000000 1.000000 0.000001
vn 0.000000 1.000000 0.000001
vn 0.000000 1.000000 0.000001
vn 0.000000 -1.000000 0.000000
vn 0.000000 -1.000000 0.000000
vn 0.000000 -1.000000 0.000000
vn 0.000000 -1.000000 0.000000
vn 0.000000 -1.000000 0.000000
vn 0.000000 -1.000000 0.000000
vn 0.000000 -1.000000 -0.000000
vn 0.000000 -1.000000 -0.000000
vn 0.000000 -1.000000 -0.000000
vn 0.000000 -1.000000 0.000000
vn 0.000000 -1.000000 0.000000
vn 0.000000 -1.000000 0.000000
vn 0.923897 0.000000 0.382641
vn 0.923897 0.000000 0.382641
vn 0.923897 0.000000 0.382641
vn 0.923897 0.000000 0.382641
vn -0.923876 0.000000 0.382692
vn -0.923876 0.000000 0.382692
vn -0.923876 0.000000 0.382692
vn -0.923876 0.000000 0.382692
vn -0.382678 0.000000 0.923882
vn -0.382678 0.000000 0.923882
vn -0.382678 0.000000 0.923882
vn -0.382678 0.000000 0.923882
vn 0.382655 0.000000 0.923891
vn 0.382655 0.000000 0.923891
vn 0.382655 0.000000 0.923891
vn 0.382655 0.000000 0.923891
vn 0.923891 0.000000 0.382656
vn 0.923891 0.000000 0.382656
vn 0.923891 0.000000 0.382656
vn 0.923891 0.000000 0.382656
vn -0.923874 0.000000 0.382697
vn -0.923874 0.000000 0.382697
vn -0.923874 0.000000 0.382697
vn -0.923874 0.000000 0.382697
vn -0.382732 0.000000 0.923859
vn -0.382732 0.000000 0.923859
vn -0.382732 0.000000 0.923859
vn -0.382732 0.000000 0.923859
vn 0.382734 0.000000 0.923859
vn 0.382734 0.000000 0.923859
vn 0.382734 0.000000 0.923859
vn 0.382734 0.000000 0.923859
vn 0.000000 1.000000 -0.000002
vn 0.000000 1.000000 -0.000002
vn 0.000000 1.000000 -0.000002
vn 0.000000 1.000000 0.000002
vn 0.000000 1.000000 0.000002
vn 0.000000 1.000000 0.000002
vn 0.000000 1.000000 -0.000002
vn 0.000000 1.000000 -0.000002
vn 0.000000 1.000000 -0.000002
vn 0.000000 1.000000 0.000002
vn 0.000000 1.000000 0.000002
vn 0.000000 1.000000 0.000002
vn 0.000000 -1.000000 0.000002
vn 0.000000 -1.000000 0.000002
vn 0.000000 -1.000000 0.000002
vn 0.000000 -1.000000 0.000002
vn 0.000000 -1.000000 0.000002
vn 0.000000 -1.000000 0.000002
vn 0.000000 -1.000000 0.000000
vn 0.000000 -1.000000 0.000000
vn 0.000000 -1.000000 0.000000
vn 0.000000 -1.000000 0.000000
vn 0.000000 -1.000000 0.000000
vn 0.000000 -1.000000 0.000000
vn -1.000000 0.000000 0.000000
vn -1.000000 0.000000 0.000000
vn -1.000000 0.000000 0.000000
vn -1.000000 0.000000 0.000000
vn -0.409888 0.912136 0.000001
vn -0.409888 0.912136 0.000001
vn -0.409888 0.912136 0.000001
vn -0.409888 0.912136 0.000001
vn 1.000000 0.000000 0.000000
vn 1.000000 0.000000 0.000000
vn 1.000000 0.000000 0.000000
vn 1.000000 0.000000 0.000000
vn -0.409887 -0.912136 0.000001
vn -0.409887 -0.912136 0.000001
vn -0.409887 -0.912136 0.000001
vn -0.409887 -0.912136 0.000001
vn -0.319369 0.000000 0.947631
vn -0.319369 0.000000 0.947631
vn -0.319369 0.000000 0.947631
vn -0.319369 0.000000 0.947631
vn 0.409889 -0.912135 -0.000001
vn 0.409889 -0.912135 -0.000001
vn 0.409889 -0.912135 -0.000001
vn 0.409889 -0.912135 -0.000001
vn 0.319372 0.000000 0.947630
vn 0.319372 0.000000 0.947630
vn 0.319372 0.000000 0.947630
vn 0.319372 0.000000 0.947630
vn 0.409889 0.912135 -0.000001
vn 0.409889 0.912135 -0.000001
vn 0.409889 0.912135 -0.000001
vn 0.409889 0.912135 -0.000001
vn 0.000000 -1.000000 0.000000
vn 0.000000 -1.000000 0.000000
vn 0.000000 -1.000000 0.000000
vn 0.000000 -1.000000 0.000000
vn 0.000000 0.000000 1.000000
vn 0.000000 0.000000 1.000000
vn 0.000000 0.000000 1.000000
vn 0.000000 0.000000 1.000000
vn 0.000000 1.000000 0.000000
vn 0.000000 1.000000 0.000000
vn 0.000000 1.000000 0.000000
vn 0.000000 1.000000 0.000000
vn 0.000000 0.000000 -1.000000
vn 0.000000 0.000000 -1.000000
vn 0.000000 0.000000 -1.000000
vn 0.000000 0.000000 -1.000000
vn 0.000000 0.000000 -1.000000
vn 0.000000 0.000000 -1.000000
vn 0.000000 0.000000 -1.000000
vn 0.000000 0.000000 -1.000000
vn 0.000000 0.000000 -1.000000
vn 0.000000 0.000000 -1.000000
vn 0.000000 0.000000 -1.000000
vn 0.000000 0.000000 -1.000000
vn 0.000000 0.000000 -1.000000
vn -0.000000 0.000000 -1.000000
vn -0.000000 0.000000 -1.000000
vn -0.000000 0.000000 -1.000000
vn -0.000000 0.000000 -1.000000
vn -0.000000 0.000000 -1.000000
vn -0.000000 0.000000 -1.000000
vn 0.000000 0.000000 -1.000000
vn -0.000000 0.000000 -1.000000
vn -0.000000 0.000000 -1.000000
vn 0.000000 0.000000 -1.000000
vn 0.000000 0.000000 -1.000000
vn 0.000000 0.000000 -1.000000
vn 0.000000 0.000000 -1.000000
vn 0.000000 0.000000 -1.000000
vn 0.000000 0.000000 -1.000000
vn 0.000000 0.000000 -1.000000
vn 0.000000 0.000000 -1.000000
vn 0.000000 0.000000 -1.000000
vn 0.000000 0.000000 -1.000000
vn 0.000000 0.000000 -1.000000
vn 0.000000 0.000000 -1.000000
vn 0.000000 0.000000 -1.000000
vn 0.000000 0.000000 -1.000000
vn 0.000000 0.000000 -1.000000
vn -0.000000 0.000000 -1.000000
vn 0.000000 0.000000 -1.000000
vn 0.000000 0.000000 -1.000000
vn -0.000000 0.000000 -1.000000
vn -0.000000 0.000000 -1.000000
vn -0.000000 0.000000 -1.000000
vn -0.000000 0.000000 -1.000000
vn -0.000000 0.000000 -1.000000
vn -0.000000 0.000000 -1.000000
vn 0.000000 0.000000 -1.000000
vn -0.000000 0.000000 -1.000000
s off
f 1/1/1 2/2/2 4/4/3 3/3/4
f 3/3/5 4/4/6 15/22/7 16/24/8
f 5/5/9 6/6/10 8/8/11 7/7/12
f 13/19/13 14/20/14 2/10/15 1/9/16
f 2/2/17 14/21/18 15/23/19 4/4/20
f 7/7/21 8/8/22 10/14/23 9/13/24
f 11/17/25 10/15/26 8/11/27 6/12/28
f 12/18/29 11/16/30 6/6/31 5/5/32
f 9/13/33 10/14/34 14/20/35 13/19/36
f 15/23/37 14/21/38 10/15/39 11/17/40
f 16/24/41 15/22/42 11/16/43 12/18/44
f 44/25/45 43/26/46 45/27/47 46/28/48
f 18/29/49 21/30/50 22/31/51 19/32/52
f 19/32/53 22/31/54 24/33/55 23/34/56
f 36/35/57 35/36/58 37/37/59 38/38/60
f 28/39/61 27/40/62 17/41/63 18/29/64
f 18/29/65 19/32/66 29/42/67 28/39/68
f 30/43/69 31/44/70 21/30/71 20/45/72
f 22/31/73 21/30/74 31/44/75 32/46/76
f 19/32/77 23/34/78 29/42/79
f 24/33/80 22/31/81 32/46/82
f 23/34/83 24/33/84 32/46/85 29/42/86
f 20/45/87 25/47/88 33/48/89 30/43/90
f 26/49/91 17/41/92 27/40/93 34/50/94
f 25/47/95 26/49/96 34/50/97 33/48/98
f 20/45/99 17/41/100 35/36/101 36/35/102
f 17/41/103 26/49/104 37/37/105 35/36/106
f 26/49/107 25/47/108 38/38/109 37/37/110
f 25/47/111 20/45/112 36/35/113 38/38/114
f 21/30/115 18/29/116 39/51/117 40/52/118
f 18/29/119 17/41/120 41/53/121 39/51/122
f 17/41/123 20/45/124 42/54/125 41/53/126
f 20/45/127 21/30/128 40/52/129 42/54/130
f 40/52/131 39/51/132 43/26/133 44/25/134
f 39/51/135 41/53/136 45/27/137 43/26/138
f 41/53/139 42/54/140 46/28/141 45/27/142
f 42/54/143 40/52/144 44/25/145 46/28/146
f 47/85/147 48/86/148 53/87/149 52/88/150
f 49/89/151 50/90/152 55/91/153 54/92/154
f 50/90/155 51/93/156 56/94/157 55/91/158
f 51/93/159 47/85/160 52/88/161 56/94/162
f 52/88/163 53/87/164 57/95/165
f 54/92/166 55/91/167 57/95/168
f 55/91/169 56/94/170 57/95/171
f 56/94/172 52/88/173 57/95/174
f 48/86/175 47/85/176 58/96/177
f 50/90/178 49/89/179 58/96/180
f 51/93/181 50/90/182 58/96/183
f 47/85/184 51/93/185 58/96/186
f 59/97/187 60/98/188 65/99/189 64/100/190
f 61/101/191 62/102/192 67/103/193 66/104/194
f 62/102/195 63/105/196 68/106/197 67/103/198
f 63/105/199 59/97/200 64/100/201 68/106/202
f 69/107/203 70/108/204 75/109/205 74/110/206
f 71/111/207 72/112/208 77/84/209 76/83/210
f 72/112/211 73/82/212 78/81/213 77/84/214
f 73/82/215 69/107/216 74/110/217 78/81/218
f 74/110/219 75/109/220 79/80/221
f 76/83/222 77/84/223 79/80/224
f 77/84/225 78/81/226 79/80/227
f 78/81/228 74/110/229 79/80/230
f 70/108/231 69/107/232 80/79/233
f 72/112/234 71/111/235 80/79/236
f 73/82/237 72/112/238 80/79/239
f 69/107/240 73/82/241 80/79/242
f 81/78/243 82/77/244 84/76/245 83/75/246
f 83/75/247 84/76/248 95/74/249 96/73/250
f 85/72/251 86/71/252 88/70/253 87/69/254
f 93/68/255 94/67/256 82/66/257 81/65/258
f 82/77/259 94/64/260 95/63/261 84/76/262
f 87/69/263 88/70/264 90/62/265 89/61/266
f 91/60/267 90/59/268 88/58/269 86/57/270
f 92/56/271 91/55/272 86/71/273 85/72/274
f 89/61/275 90/62/276 94/67/277 93/68/278
f 95/63/279 94/64/280 90/59/281 91/60/282
f 96/73/283 95/74/284 91/55/285 92/56/286
f 30/113/287 33/114/288 34/115/289 27/116/290
f 27/116/291 28/117/292 31/118/293 30/113/294
f 32/119/295 31/118/296 28/117/297 29/120/298
f 3/3/299 16/24/300 1/1/301
f 1/1/302 16/24/303 13/19/304
f 16/24/305 12/18/306 13/19/307
f 13/19/308 12/18/309 9/13/310
f 12/18/311 5/5/312 9/13/313
f 5/5/314 7/7/315 9/13/316
f 83/75/317 96/73/318 81/78/319
f 81/78/320 96/73/321 93/68/322
f 96/73/323 92/56/324 93/68/325
f 93/68/326 92/56/327 89/61/328
f 92/56/329 85/72/330 89/61/331
f 85/72/332 87/69/333 89/61/334
