# This file uses meters as units for non-parametric coordinates.

v -4.867982 334.744385 -3.689905
v -4.867982 20.945093 -3.689905
v -4.867982 -103.690582 -3.689905
v -4.867982 405.397278 -3.689905
v 150.000000 342.005310 93.952484
v 100.000000 261.735474 41.358337
v 100.000000 53.897858 41.358337
v 150.000000 0.000076 93.952484
v 150.000000 342.005310 -3.689905
v 100.000000 261.735474 -3.689905
v 100.000000 53.897858 -3.689905
v 150.000000 0.000076 -3.689905
v 150.000000 -103.690582 93.952484
v 150.000000 -103.690582 -3.689905
v 150.000000 405.397278 -3.689905
v 150.000000 405.397278 93.952484
v 93.952484 342.005310 150.000000
v 41.358337 261.735474 100.000000
v 41.358337 53.897858 100.000000
v 93.952484 0.000076 150.000000
v -4.867982 342.005310 150.000000
v -4.867982 261.735474 100.000000
v -4.867982 53.897858 100.000000
v -4.867982 0.000076 150.000000
v 93.952484 -103.690582 150.000000
v -4.867982 -103.690582 150.000000
v -4.867982 405.397278 150.000000
v 93.952484 405.397278 150.000000
v -4.867982 309.899353 143.047333
v 86.639099 309.899353 143.047333
v 143.047333 309.899353 86.639099
v 143.047333 309.899353 -3.689828
v 41.358337 230.251144 100.000000
v 100.000000 230.251144 41.358337
v 100.000000 230.251144 -3.689828
v -4.867982 230.251144 -3.689828
v -4.867982 230.251144 100.000000
v 41.358337 76.382126 100.000000
v 100.000000 76.382126 41.358337
v 100.000000 76.382126 -3.689905
v -4.867982 76.382118 -3.689905
v -4.867982 76.382126 100.000000
v 42.775803 222.294128 103.405457
v 42.775803 84.339134 103.405457
v 103.405426 222.294128 42.775803
v 103.405426 84.339134 42.775803
v 103.995438 222.294128 -3.689828
v 103.995438 84.339134 -3.689905
v -4.867982 222.294128 103.995361
v -4.867982 84.339134 103.995361
v 143.773315 -2.640657 94.193573
v 102.451477 47.653725 50.811768
v 146.761841 -87.930588 97.253265
v 50.811844 47.653725 102.451477
v 94.193649 -2.640656 143.773346
v 97.253265 -87.930588 146.761780
v 138.246338 -4.964857 93.283997
v 97.703064 43.145363 50.668716
v 140.456360 -88.070618 95.577240
v 50.348625 43.145370 98.124390
v 92.963943 -4.964849 138.667755
v 95.257080 -88.070618 140.877686
vt 0.236134 0.353409
vt 0.236134 0.353411
vt 0.245934 0.356911
vt 0.245934 0.356911
vt 0.245934 0.356911
vt 0.245934 0.356911
vt 0.245934 0.356911
vt 0.245934 0.356911
vt 0.245934 0.356911
vt 0.245934 0.356911
vt 0.236134 0.353411
vt 0.236134 0.353409
vt 0.236134 0.353409
vt 0.236134 0.353409
vt 0.236134 0.353411
vt 0.245934 0.356911
vt 0.236134 0.353411
vt 0.236134 0.353411
vt 0.245934 0.356911
vt 0.245934 0.356911
vt 0.245934 0.356911
vt 0.245934 0.356911
vt 0.245934 0.356911
vt 0.245934 0.356911
vt 0.245934 0.356911
vt 0.245934 0.356911
vt 0.245934 0.356911
vt 0.245934 0.356911
vt 0.245934 0.356911
vt 0.236134 0.353411
vt 0.236134 0.353409
vt 0.236134 0.353409
vt 0.236134 0.353409
vt 0.236134 0.353411
vt 0.236134 0.353411
vt 0.236134 0.353409
vt 0.236134 0.353409
vt 0.236134 0.353411
vt 0.236134 0.353411
vt 0.245934 0.356911
vt 0.245934 0.356911
vt 0.245934 0.356911
vt 0.245934 0.356911
vt 0.245934 0.356911
vt 0.245934 0.356911
vt 0.245934 0.356911
vt 0.245934 0.356911
vt 0.236134 0.353411
vt 0.236134 0.353411
vt 0.234734 0.305108
vt 0.234734 0.305107
vt 0.308921 0.383356
vt 0.234734 0.305107
vt 0.245934 0.356911
vt 0.245934 0.356911
vt 0.245934 0.356911
vt 0.245934 0.356911
vt 0.245934 0.356911
vt 0.245934 0.356911
vt 0.245934 0.356911
vt 0.245934 0.356911
vt 0.234734 0.305108
vt 0.234734 0.305109
vt 0.234734 0.305107
vt 0.234734 0.305107
vt 0.245934 0.356911
vt 0.234734 0.305108
vt 0.234734 0.305107
vt 0.245934 0.356911
vt 0.245934 0.356911
vt 0.245934 0.356911
vt 0.245934 0.356911
vt 0.245934 0.356911
vt 0.245934 0.356911
vt 0.245934 0.356911
vt 0.245934 0.356911
vt 0.245934 0.356911
vt 0.245934 0.356911
vt 0.245934 0.356911
vt 0.234734 0.305107
vt 0.234734 0.305108
vt 0.234734 0.305108
vt 0.234734 0.305109
vt 0.234734 0.305107
vt 0.234734 0.305109
vt 0.234734 0.305107
vt 0.234734 0.305109
vt 0.234734 0.305107
vt 0.245934 0.356911
vt 0.245934 0.356911
vt 0.245934 0.356911
vt 0.245934 0.356911
vt 0.245934 0.356911
vt 0.245934 0.356911
vt 0.245934 0.356911
vt 0.245934 0.356911
vt 0.245934 0.356911
vt 0.308921 0.383356
vt 0.245934 0.356911
vt 0.245934 0.356911
vt 0.245934 0.356911
vt 0.245934 0.356911
vt 0.245934 0.356911
vt 0.245934 0.356911
vt 0.245934 0.356911
vt 0.245934 0.356911
vt 0.245934 0.356911
vt 0.245934 0.356911
vt 0.245934 0.356911
vt 0.245934 0.356911
vt 0.245934 0.356911
vt 0.245934 0.356911
vt 0.245934 0.356911
vt 0.245934 0.356911
vt 0.245934 0.356911
vt 0.245934 0.356911
vt 0.245934 0.356911
vt 0.245934 0.356911
vt 0.245934 0.356911
vt 0.245934 0.356911
vt 0.245934 0.356911
vt 0.245934 0.356911
vt 0.245934 0.356911
vt 0.245934 0.356911
vt 0.245934 0.356911
vt 0.245934 0.356911
vt 0.245934 0.356911
vt 0.245934 0.356911
vt 0.308921 0.383357
vt 0.308921 0.383356
vt 0.308921 0.383356
vt 0.308921 0.383357
vn 0.977346 -0.211648 0.000000
vn 0.977346 -0.211648 0.000000
vn 0.977346 -0.211648 0.000000
vn 0.977346 -0.211648 0.000000
vn 1.000000 0.000000 0.000000
vn 1.000000 0.000000 0.000000
vn 1.000000 0.000000 0.000000
vn 1.000000 0.000000 0.000000
vn 0.733119 0.680101 0.000000
vn 0.733119 0.680101 0.000000
vn 0.733119 0.680101 0.000000
vn 0.733119 0.680101 0.000000
vn 1.000000 0.000000 0.000000
vn 1.000000 0.000000 0.000000
vn 1.000000 0.000000 0.000000
vn 1.000000 0.000000 0.000000
vn 1.000000 0.000000 0.000000
vn 1.000000 0.000000 0.000000
vn 1.000000 0.000000 0.000000
vn 1.000000 0.000000 0.000000
vn 0.000000 -0.000000 -1.000000
vn 0.000000 -0.000000 -1.000000
vn 0.000000 -0.000000 -1.000000
vn 0.000000 -0.000000 -1.000000
vn -0.000000 -0.000001 -1.000000
vn -0.000000 -0.000001 -1.000000
vn -0.000000 -0.000001 -1.000000
vn -0.000000 -0.000001 -1.000000
vn 0.000000 0.000000 -1.000000
vn 0.000000 0.000000 -1.000000
vn 0.000000 0.000000 -1.000000
vn 0.000000 0.000000 -1.000000
vn 0.000000 0.000000 -1.000000
vn 0.000000 0.000000 -1.000000
vn 0.000000 0.000000 -1.000000
vn 0.000000 -1.000000 0.000000
vn 0.000000 -1.000000 0.000000
vn 0.000000 -1.000000 0.000000
vn 0.000000 0.000000 -1.000000
vn 0.000000 0.000000 -1.000000
vn 0.000000 0.000000 -1.000000
vn 0.000000 0.000000 -1.000000
vn 0.000000 1.000000 0.000000
vn 0.000000 1.000000 0.000000
vn 0.000000 1.000000 0.000000
vn 0.707107 0.000000 0.707107
vn 0.707107 0.000000 0.707107
vn 0.707107 0.000000 0.707107
vn 0.707107 0.000000 0.707107
vn 0.674592 -0.299750 0.674592
vn 0.674592 -0.299750 0.674592
vn 0.674592 -0.299750 0.674593
vn 0.674592 -0.299750 0.674593
vn 0.707107 0.000000 0.707107
vn 0.707107 0.000000 0.707107
vn 0.707107 0.000000 0.707107
vn 0.707107 0.000000 0.707107
vn 0.448253 0.773960 0.447274
vn 0.448253 0.773961 0.447274
vn 0.448253 0.773961 0.447274
vn 0.448253 0.773961 0.447274
vn 0.707378 0.038287 0.705798
vn 0.707378 0.038287 0.705798
vn 0.707378 0.038287 0.705798
vn 0.707378 0.038287 0.705798
vn 0.000000 -1.000000 0.000000
vn 0.000000 -1.000000 0.000000
vn 0.000000 -1.000000 0.000000
vn 0.000000 -0.211648 0.977346
vn 0.000000 -0.211648 0.977346
vn 0.000000 -0.211648 0.977346
vn 0.000000 -0.211648 0.977346
vn 0.000000 0.000000 1.000000
vn 0.000000 0.000000 1.000000
vn 0.000000 0.000000 1.000000
vn 0.000000 0.000000 1.000000
vn 0.000000 0.680101 0.733119
vn 0.000000 0.680101 0.733119
vn 0.000000 0.680101 0.733119
vn 0.000000 0.680101 0.733119
vn 0.000000 0.000000 1.000000
vn 0.000000 0.000000 1.000000
vn 0.000000 0.000000 1.000000
vn 0.000000 0.000000 1.000000
vn 0.000000 0.000000 1.000000
vn 0.000000 0.000000 1.000000
vn 0.000000 0.000000 1.000000
vn 0.000000 0.000000 1.000000
vn -1.000000 0.000000 0.000000
vn -1.000000 0.000000 0.000000
vn -1.000000 0.000000 0.000000
vn -1.000000 0.000000 0.000000
vn -1.000000 0.000000 0.000000
vn -1.000000 0.000000 0.000000
vn -1.000000 0.000000 0.000000
vn -1.000000 0.000000 0.000000
vn -1.000000 0.000000 0.000000
vn -1.000000 0.000000 0.000000
vn -1.000000 0.000000 0.000000
vn -1.000000 0.000000 0.000000
vn -1.000000 0.000000 0.000000
vn -1.000000 0.000000 0.000000
vn -1.000000 0.000000 0.000000
vn 0.000000 -1.000000 0.000000
vn 0.000000 -1.000000 0.000000
vn 0.000000 -1.000000 0.000000
vn -1.000000 0.000000 0.000000
vn -1.000000 0.000000 0.000000
vn -1.000000 0.000000 0.000000
vn -1.000000 0.000000 0.000000
vn 0.000000 1.000000 0.000000
vn 0.000000 1.000000 0.000000
vn 0.000000 1.000000 0.000000
vn 0.000000 1.000000 0.000000
vn 0.000000 1.000000 0.000000
vn 0.000000 1.000000 0.000000
vn 0.000000 -0.666394 0.745600
vn 0.000000 -0.666394 0.745600
vn 0.000000 -0.666394 0.745600
vn 0.000000 -0.666394 0.745600
vn 0.431805 -0.791890 0.431805
vn 0.431805 -0.791890 0.431805
vn 0.431805 -0.791890 0.431805
vn 0.431805 -0.791890 0.431805
vn 0.745600 -0.666394 0.000000
vn 0.745600 -0.666394 0.000000
vn 0.745600 -0.666394 0.000000
vn 0.745600 -0.666394 0.000000
vn 0.707107 0.000000 0.707107
vn 0.707107 0.000000 0.707107
vn 0.707107 0.000000 0.707107
vn 0.707107 0.000000 0.707107
vn 0.999905 -0.000000 0.013792
vn 0.999905 -0.000000 0.013792
vn 0.999905 -0.000000 0.013792
vn 0.999905 -0.000000 0.013792
vn -0.000000 0.000000 -1.000000
vn -0.000000 0.000000 -1.000000
vn -0.000000 0.000000 -1.000000
vn -0.000000 0.000000 -1.000000
vn -1.000000 0.000000 0.000000
vn -1.000000 0.000000 0.000000
vn -1.000000 0.000000 0.000000
vn -1.000000 0.000000 0.000000
vn 0.013789 0.000000 0.999905
vn 0.013789 0.000000 0.999905
vn 0.013789 0.000000 0.999905
vn 0.013789 0.000000 0.999905
vn 0.707107 0.000000 0.707107
vn 0.707107 0.000000 0.707107
vn 0.707107 0.000000 0.707107
vn 0.707107 0.000000 0.707107
vn 1.000000 0.000000 0.000000
vn 1.000000 0.000000 0.000000
vn 1.000000 0.000000 0.000000
vn 1.000000 0.000000 0.000000
vn 0.000000 0.000000 -1.000000
vn 0.000000 0.000000 -1.000000
vn 0.000000 0.000000 -1.000000
vn 0.000000 0.000000 -1.000000
vn -1.000000 0.000000 0.000000
vn -1.000000 0.000000 0.000000
vn -1.000000 0.000000 0.000000
vn -1.000000 0.000000 0.000000
vn 0.000000 0.000000 1.000000
vn 0.000000 0.000000 1.000000
vn 0.000000 0.000000 1.000000
vn 0.000000 0.000000 1.000000
vn 0.649929 -0.393935 0.649929
vn 0.649929 -0.393935 0.649929
vn 0.649929 -0.393935 0.649929
vn 0.649929 -0.393935 0.649929
vn 0.649929 0.393935 0.649929
vn 0.649929 0.393935 0.649929
vn 0.649929 0.393935 0.649929
vn 0.649929 0.393935 0.649929
vn 0.906508 0.422140 0.006357
vn 0.906508 0.422140 0.006357
vn 0.906508 0.422140 0.006357
vn 0.906508 0.422140 0.006357
vn 0.906508 -0.422140 0.006357
vn 0.906508 -0.422140 0.006357
vn 0.906508 -0.422140 0.006357
vn 0.906508 -0.422140 0.006357
vn 0.000000 0.000001 -1.000000
vn 0.000000 0.000001 -1.000000
vn 0.000000 0.000001 -1.000000
vn 0.000000 0.000001 -1.000000
vn 0.006356 0.422138 0.906509
vn 0.006356 0.422138 0.906509
vn 0.006356 0.422138 0.906509
vn 0.006356 0.422138 0.906509
vn -1.000000 0.000000 0.000000
vn -1.000000 0.000000 0.000000
vn -1.000000 0.000000 0.000000
vn -1.000000 0.000000 0.000000
vn 0.006356 -0.422139 0.906509
vn 0.006356 -0.422139 0.906509
vn 0.006356 -0.422139 0.906509
vn 0.006356 -0.422139 0.906509
vn 0.090359 0.716430 0.691783
vn 0.371356 0.799376 0.472327
vn 0.289667 0.785281 0.547198
vn 0.090359 0.716430 0.691783
vn 0.289667 0.785281 0.547198
vn 0.371356 0.799376 0.472327
vn 0.472327 0.799376 0.371356
vn 0.547197 0.785282 0.289670
vn 0.664709 -0.000160 0.747102
vn 0.368079 0.021339 0.929550
vn 0.368079 0.021339 0.929550
vn 0.572835 0.007165 0.819639
vn 0.472327 0.799376 0.371356
vn 0.691779 0.716432 0.090368
vn 0.691779 0.716433 0.090368
vn 0.547197 0.785282 0.289670
vn 0.929547 0.021338 0.368085
vn 0.747102 -0.000160 0.664709
vn 0.819638 0.007165 0.572837
vn 0.929547 0.021338 0.368085
vn 0.819638 0.007165 0.572837
vn 0.747102 -0.000160 0.664709
vn 0.664709 -0.000160 0.747102
vn 0.572835 0.007165 0.819639
vn -0.297121 0.222632 0.928523
vn -0.365285 0.421474 0.830016
vn -0.365285 0.421474 0.830016
vn -0.295663 0.218718 0.929917
vn 0.563452 -0.604725 0.562876
vn 0.563452 -0.604725 0.562876
vn 0.563452 -0.604725 0.562876
vn 0.563452 -0.604725 0.562876
vn -0.218241 0.024275 0.975593
vn -0.297121 0.222632 0.928523
vn -0.295663 0.218718 0.929917
vn -0.218241 0.024275 0.975593
vn 0.827191 0.374008 -0.419372
vn 0.912394 0.197745 -0.358376
vn 0.914122 0.192985 -0.356564
vn 0.827191 0.374008 -0.419372
vn 0.912394 0.197745 -0.358376
vn 0.957971 0.021620 -0.286049
vn 0.957971 0.021620 -0.286049
vn 0.914122 0.192985 -0.356564
vn -0.017660 0.999688 -0.017640
vn -0.017660 0.999688 -0.017640
vn -0.017660 0.999689 -0.017640
vn -0.017660 0.999688 -0.017640
s off
f 5/1/1 31/2/2 32/11/3 9/12/4
f 6/4/5 34/110/6 35/108/7 10/3/8
f 7/6/9 8/8/10 12/7/11 11/5/12
f 8/8/13 13/10/14 14/9/15 12/7/16
f 9/12/17 15/13/18 16/14/19 5/1/20
f 10/15/21 1/17/22 9/12/23 32/11/24
f 35/18/25 36/30/26 1/17/27 10/15/28
f 12/20/29 2/22/30 11/21/31
f 14/23/32 3/26/33 2/25/34 12/24/35
f 13/27/36 3/29/37 14/28/38
f 9/12/39 1/17/40 4/31/41 15/13/42
f 15/13/43 4/31/44 16/14/45
f 5/1/46 16/14/47 28/36/48 17/32/49
f 30/35/50 31/2/51 5/1/52 17/32/53
f 34/109/54 6/40/55 18/96/56 33/111/57
f 57/52/58 58/98/59 60/130/60 61/131/61
f 59/129/62 57/52/63 61/131/64 62/132/65
f 3/46/66 13/47/67 25/103/68
f 17/32/69 21/33/70 29/34/71 30/35/72
f 18/55/73 22/54/74 37/107/75 33/112/76
f 19/57/77 23/56/78 24/58/79 20/59/80
f 20/59/81 24/58/82 26/60/83 25/61/84
f 21/33/85 17/32/86 28/36/87 27/37/88
f 22/38/89 29/34/90 21/33/91 1/17/92
f 37/39/93 22/38/94 1/17/95 36/30/96
f 24/70/97 23/71/98 2/72/99
f 26/73/100 24/74/101 2/75/102 3/76/103
f 25/77/104 26/78/105 3/79/106
f 21/33/107 27/37/108 4/31/109 1/17/110
f 27/37/111 28/36/112 4/31/113
f 4/31/114 28/36/115 16/14/116
f 30/35/117 29/34/118 22/38/119 18/48/120
f 18/48/121 6/49/122 31/2/123 30/35/124
f 32/11/125 31/2/126 6/49/127 10/15/128
f 44/87/129 46/85/130 45/86/131 43/88/132
f 47/84/133 45/86/134 46/85/135 48/83/136
f 40/82/137 41/81/138 36/80/139 35/68/140
f 42/67/141 37/65/142 36/80/143 41/81/144
f 43/88/145 49/64/146 50/63/147 44/87/148
f 7/41/149 39/95/150 38/106/151 19/97/152
f 40/93/153 39/104/154 7/6/155 11/5/156
f 11/16/157 2/19/158 41/91/159 40/94/160
f 23/66/161 42/89/162 41/92/163 2/69/164
f 38/105/165 42/90/166 23/56/167 19/57/168
f 44/87/169 38/62/170 39/50/171 46/85/172
f 43/88/173 45/86/174 34/51/175 33/53/176
f 35/68/177 34/51/178 45/86/179 47/84/180
f 39/50/181 40/82/182 48/83/183 46/85/184
f 40/82/185 35/68/186 47/84/187 48/83/188
f 33/53/189 37/65/190 49/64/191 43/88/192
f 37/65/193 42/67/194 50/63/195 49/64/196
f 42/67/197 38/62/198 44/87/199 50/63/200
f 8/43/201 7/42/202 52/114/203 51/113/204
f 52/114/205 7/42/206 19/99/207 54/117/208
f 13/45/209 8/44/210 51/116/211 53/115/212
f 19/99/213 20/100/214 55/118/215 54/117/216
f 20/101/217 25/102/218 56/120/219 55/119/220
f 56/120/221 25/102/222 13/45/223 53/115/224
f 51/113/225 52/114/226 58/122/227 57/121/228
f 58/122/229 52/114/230 54/117/231 60/125/232
f 53/115/233 51/116/234 57/124/235 59/123/236
f 54/117/237 55/118/238 61/126/239 60/125/240
f 55/119/241 56/120/242 62/128/243 61/127/244
f 59/123/245 62/128/246 56/120/247 53/115/248
