# This file uses meters as units for non-parametric coordinates.

v -0.000000 0.000000 250.000000
v 0.000000 0.000000 0.000000
v 250.000000 0.000000 250.000000
v 250.000000 0.000000 0.000000
v -0.000000 -49.971283 250.000000
v 0.000000 -49.971283 0.000000
v 250.000000 -49.971283 250.000000
v 250.000000 -49.971283 0.000000
v -15.876465 -5.188466 244.149612
v -15.876465 -49.971283 244.149612
v -15.876465 -5.188466 5.850372
v -15.876465 -49.971283 5.850372
v 265.876465 -5.188466 5.850372
v 265.876465 -49.971283 5.850372
v 265.876465 -5.188466 244.149612
v 265.876465 -49.971283 244.149612
v -0.000000 0.000000 44.663086
v -15.876465 -5.188466 44.663086
v -15.876465 -49.971283 44.663086
v -0.000000 -49.971283 55.431671
v 250.000000 -49.971283 55.431671
v 265.876465 -49.971283 44.663086
v 265.876465 -5.188466 44.663086
v 250.000000 0.000000 44.663086
v -0.000000 0.000000 205.336914
v -15.876465 -5.188466 205.336914
v -15.876465 -49.971283 205.336914
v -0.000000 -49.971283 194.568329
v 250.000000 -49.971283 194.568329
v 265.876465 -49.971283 205.336914
v 265.876465 -5.188466 205.336914
v 250.000000 0.000000 205.336914
v -15.876465 -24.985641 205.336914
v -15.876465 -24.985641 244.149612
v -0.000000 -24.985641 250.000000
v 250.000000 -24.985641 250.000000
v 265.876465 -24.985641 244.149612
v 265.876465 -24.985641 205.336914
v 265.876465 -24.985641 44.663086
v 265.876465 -24.985641 5.850372
v 250.000000 -24.985641 0.000000
v 0.000000 -24.985641 0.000000
v -15.876465 -24.985641 5.850372
v -15.876465 -24.985641 44.663086
v -0.000000 -41.692848 194.568481
v -0.000000 -41.692848 55.431671
v -6.631470 -37.480789 194.568329
v -6.631470 -37.480789 55.431671
v -7.598267 -24.985641 194.568329
v -7.598267 -24.985641 55.431671
v 250.000000 -41.692848 194.568481
v 256.631470 -37.480789 194.568329
v 250.000000 -41.692848 55.431671
v 256.631470 -37.480789 55.431671
v 257.598267 -24.985641 55.431671
v 257.598267 -24.985641 194.568329
v 237.684326 -49.971283 237.684326
v 237.684326 -49.971283 187.714081
v 12.315674 -49.971283 237.684326
v 12.315674 -49.971283 187.714081
v 237.684326 -49.971283 62.285919
v 237.684326 -49.971283 12.315674
v 12.315674 -49.971283 62.285919
v 12.315674 -49.971283 12.315674
v 228.652954 -41.068161 228.652954
v 228.652954 -41.068161 182.687683
v 21.347046 -41.068161 228.652954
v 21.347046 -41.068161 182.687683
v 228.652954 -41.068161 67.312317
v 228.652954 -41.068161 21.347046
v 21.347046 -41.068161 67.312317
v 21.347046 -41.068161 21.347046
v 213.425903 -41.068161 213.425903
v 213.425903 -41.068161 174.213104
v 36.574097 -41.068161 213.425903
v 36.574097 -41.068161 174.213104
v 213.425903 -41.068161 75.786896
v 213.425903 -41.068161 36.574097
v 36.574097 -41.068161 75.786896
v 36.574097 -41.068161 36.574097
v 51.403046 -41.068161 83.218536
v 198.596954 -41.068161 83.218536
v 51.403046 -41.068161 166.781464
v 198.596954 -41.068161 166.781464
v 243.437057 -3.617362 243.437057
v 6.562958 -3.617362 243.437057
v 6.562958 -3.617362 201.118927
v 243.437057 -3.617362 201.118927
v 243.437057 -3.617362 6.562958
v 6.562958 -3.617362 6.562958
v 6.562958 -3.617362 48.881073
v 243.437057 -3.617362 48.881073
v 125.000000 -3.617362 125.000000
vt 0.245911 0.302556
vt 0.245911 0.302556
vt 0.245911 0.302556
vt 0.245911 0.302556
vt 0.245911 0.302556
vt 0.245911 0.302556
vt 0.245911 0.302556
vt 0.245911 0.302556
vt 0.245911 0.302556
vt 0.245911 0.302556
vt 0.245911 0.302556
vt 0.245911 0.302556
vt 0.245911 0.302556
vt 0.245911 0.302556
vt 0.245911 0.302556
vt 0.245911 0.302556
vt 0.245911 0.302556
vt 0.245911 0.302556
vt 0.245911 0.302556
vt 0.245911 0.302556
vt 0.245911 0.302556
vt 0.245911 0.302556
vt 0.245911 0.302556
vt 0.245911 0.302556
vt 0.245912 0.302556
vt 0.245912 0.302556
vt 0.245912 0.302556
vt 0.245911 0.302556
vt 0.245912 0.302556
vt 0.245912 0.302556
vt 0.245911 0.302556
vt 0.245912 0.302556
vt 0.245912 0.302556
vt 0.245912 0.302556
vt 0.245912 0.302556
vt 0.245912 0.302556
vt 0.245912 0.302556
vt 0.245911 0.302556
vt 0.245912 0.302556
vt 0.245912 0.302556
vt 0.245911 0.302556
vt 0.245912 0.302556
vt 0.245912 0.302556
vt 0.245912 0.302556
vt 0.245912 0.302556
vt 0.245911 0.302556
vt 0.245911 0.302556
vt 0.245911 0.302556
vt 0.245911 0.302556
vt 0.245911 0.302556
vt 0.245911 0.302556
vt 0.245912 0.302556
vt 0.245912 0.302556
vt 0.245911 0.302556
vt 0.245911 0.302556
vt 0.245911 0.302556
vt 0.245911 0.302556
vt 0.245911 0.302556
vt 0.245911 0.302556
vt 0.245912 0.302556
vt 0.245912 0.302556
vt 0.245912 0.302556
vt 0.245912 0.302556
vt 0.245912 0.302556
vt 0.245912 0.302556
vt 0.245912 0.302556
vt 0.245912 0.302556
vt 0.245912 0.302556
vt 0.245912 0.302556
vt 0.245912 0.302556
vt 0.245912 0.302556
vt 0.245912 0.302556
vt 0.245911 0.302556
vt 0.245911 0.302556
vt 0.245911 0.302556
vt 0.245911 0.302556
vt 0.245911 0.302556
vt 0.245911 0.302556
vt 0.245911 0.302556
vt 0.245911 0.302556
vt 0.245911 0.302556
vt 0.245911 0.302556
vt 0.245911 0.302556
vt 0.245911 0.302556
vt 0.245911 0.302556
vt 0.245911 0.302556
vt 0.245911 0.302556
vt 0.245911 0.302556
vt 0.245911 0.302556
vt 0.245911 0.302556
vt 0.245911 0.302556
vt 0.245911 0.302556
vt 0.245911 0.302556
vt 0.245911 0.302556
vt 0.245911 0.302556
vt 0.245911 0.302556
vt 0.234772 0.254154
vt 0.234772 0.254154
vt 0.234772 0.254154
vt 0.234772 0.254154
vt 0.234772 0.254154
vt 0.234772 0.254154
vt 0.234772 0.254154
vt 0.234772 0.254154
vt 0.234772 0.254154
vt 0.234772 0.254154
vt 0.234772 0.254154
vt 0.234772 0.254154
vt 0.234772 0.278809
vt 0.234772 0.278809
vt 0.234772 0.278809
vt 0.234772 0.278809
vt 0.234772 0.278809
vt 0.234772 0.278809
vt 0.234772 0.278809
vt 0.234772 0.278809
vt 0.234772 0.278809
vt 0.234772 0.278809
vt 0.234772 0.278809
vt 0.234772 0.278809
vt 0.234772 0.278809
vt 0.234772 0.278809
vt 0.234772 0.278809
vt 0.234772 0.278809
vt 0.245911 0.302556
vt 0.234772 0.278809
vt 0.234772 0.278809
vt 0.245911 0.302556
vt 0.245911 0.302556
vt 0.234772 0.278809
vt 0.234772 0.278809
vt 0.245911 0.302556
vt 0.245912 0.302556
vt 0.245912 0.302556
vt 0.245912 0.302556
vt 0.245912 0.302556
vt 0.245912 0.302556
vt 0.245912 0.302556
vt 0.245912 0.302556
vt 0.245912 0.302556
vt 0.245912 0.302556
vt 0.245912 0.302556
vt 0.245912 0.302556
vt 0.245912 0.302556
vt 0.245912 0.302556
vt 0.245912 0.302556
vt 0.245912 0.302556
vt 0.245912 0.302556
vt 0.245912 0.302556
vt 0.245912 0.302556
vt 0.245912 0.302556
vt 0.245912 0.302556
vt 0.245912 0.302556
vt 0.245912 0.302556
vt 0.245912 0.302556
vt 0.245912 0.302556
vt 0.245912 0.302556
vt 0.245912 0.302556
vt 0.244644 0.303686
vt 0.244644 0.303686
vt 0.244644 0.303686
vt 0.244644 0.303686
vt 0.244644 0.303686
vt 0.244644 0.303686
vt 0.244644 0.303686
vt 0.244644 0.303686
vt 0.244644 0.303686
vt 0.244644 0.303686
vt 0.244644 0.303686
vt 0.244644 0.303686
vt 0.244644 0.303686
vt 0.244644 0.303686
vt 0.244644 0.303686
vt 0.244644 0.303686
vt 0.244644 0.303686
vn -1.000000 0.000000 0.000000
vn -1.000000 0.000000 0.000000
vn -1.000000 0.000000 0.000000
vn -1.000000 0.000000 0.000000
vn 0.000000 0.000000 -1.000000
vn 0.000000 0.000000 -1.000000
vn 0.000000 0.000000 -1.000000
vn 0.000000 0.000000 -1.000000
vn 0.000000 0.000000 1.000000
vn 0.000000 0.000000 1.000000
vn 0.000000 0.000000 1.000000
vn 0.000000 0.000000 1.000000
vn 1.000000 0.000000 0.000000
vn 1.000000 0.000000 0.000000
vn 1.000000 0.000000 0.000000
vn 1.000000 0.000000 0.000000
vn 0.000000 -1.000000 -0.000000
vn 0.000000 -1.000000 0.000000
vn 0.000000 -1.000000 0.000000
vn 0.000000 -1.000000 -0.000000
vn -0.345765 0.000000 0.938321
vn -0.345764 0.000000 0.938322
vn -0.345764 0.000000 0.938322
vn -0.345765 0.000000 0.938321
vn -0.310635 0.950529 0.000000
vn -0.310635 0.950529 0.000000
vn -0.310635 0.950529 0.000000
vn -0.310635 0.950529 0.000000
vn -0.345765 0.000000 -0.938321
vn -0.345765 0.000000 -0.938321
vn -0.345765 0.000000 -0.938321
vn -0.345765 0.000000 -0.938321
vn 0.000000 -1.000000 0.000000
vn 0.000000 -1.000000 0.000000
vn 0.000000 -1.000000 0.000000
vn 0.000000 -1.000000 0.000000
vn 0.345765 0.000000 -0.938321
vn 0.345765 0.000000 -0.938321
vn 0.345765 0.000000 -0.938321
vn 0.345765 0.000000 -0.938321
vn 0.310635 0.950529 0.000000
vn 0.310635 0.950529 0.000000
vn 0.310635 0.950529 0.000000
vn 0.310635 0.950529 0.000000
vn 0.345764 0.000000 0.938321
vn 0.345765 0.000000 0.938321
vn 0.345765 0.000000 0.938321
vn 0.345764 0.000000 0.938321
vn 0.000000 -1.000000 0.000000
vn 0.000000 -1.000000 0.000000
vn 0.000000 -1.000000 0.000000
vn 0.000000 -1.000000 0.000000
vn -0.310635 0.950529 0.000000
vn -0.310635 0.950529 0.000000
vn -0.310635 0.950529 0.000000
vn -0.310635 0.950529 0.000000
vn -1.000000 0.000000 0.000000
vn -1.000000 0.000000 0.000000
vn -1.000000 0.000000 0.000000
vn -1.000000 0.000000 0.000000
vn 0.000000 -1.000000 0.000000
vn 0.000000 -1.000000 0.000000
vn 0.000000 -1.000000 0.000000
vn 0.000000 -1.000000 0.000000
vn 0.000000 -1.000000 0.000000
vn 0.000000 -1.000000 0.000000
vn 0.000000 -1.000000 0.000000
vn 0.000000 -1.000000 0.000000
vn 0.000000 -1.000000 0.000000
vn 0.000000 -1.000000 0.000000
vn 0.000000 -1.000000 0.000000
vn 0.000000 -1.000000 0.000000
vn 1.000000 0.000000 0.000000
vn 1.000000 0.000000 0.000000
vn 1.000000 0.000000 0.000000
vn 1.000000 0.000000 0.000000
vn 0.310635 0.950529 0.000000
vn 0.310635 0.950529 0.000000
vn 0.310635 0.950529 0.000000
vn 0.310635 0.950529 0.000000
vn -0.310635 0.950529 0.000000
vn -0.310635 0.950529 0.000000
vn -0.310635 0.950529 0.000000
vn -0.310635 0.950529 0.000000
vn -1.000000 0.000000 0.000000
vn -1.000000 0.000000 0.000000
vn -1.000000 0.000000 0.000000
vn -1.000000 0.000000 0.000000
vn -0.536153 -0.844121 -0.000000
vn -0.536153 -0.844121 -0.000000
vn -0.536153 -0.844121 -0.000000
vn -0.536153 -0.844121 -0.000000
vn 0.000000 -1.000000 -0.000000
vn 0.000000 -1.000000 -0.000000
vn 0.000000 -1.000000 -0.000000
vn 0.000000 -1.000000 -0.000000
vn 0.536154 -0.844120 0.000000
vn 0.536154 -0.844120 0.000000
vn 0.536154 -0.844120 0.000000
vn 0.536154 -0.844120 0.000000
vn 1.000000 0.000000 0.000000
vn 1.000000 0.000000 0.000000
vn 1.000000 0.000000 0.000000
vn 1.000000 0.000000 0.000000
vn 0.310635 0.950529 0.000000
vn 0.310635 0.950529 0.000000
vn 0.310635 0.950529 0.000000
vn 0.310635 0.950529 0.000000
vn -1.000000 0.000000 0.000000
vn -1.000000 0.000000 0.000000
vn -1.000000 0.000000 0.000000
vn -1.000000 0.000000 0.000000
vn -0.345765 0.000000 0.938321
vn -0.345765 0.000000 0.938321
vn -0.345765 0.000000 0.938321
vn -0.345765 0.000000 0.938321
vn 0.000000 0.000000 1.000000
vn 0.000000 0.000000 1.000000
vn 0.000000 0.000000 1.000000
vn 0.000000 0.000000 1.000000
vn 0.345765 0.000000 0.938321
vn 0.345765 0.000000 0.938321
vn 0.345765 0.000000 0.938321
vn 0.345765 0.000000 0.938321
vn 1.000000 0.000000 0.000000
vn 1.000000 0.000000 0.000000
vn 1.000000 0.000000 0.000000
vn 1.000000 0.000000 0.000000
vn 0.997020 -0.077145 0.000000
vn 0.997020 -0.077145 0.000000
vn 0.997020 -0.077145 0.000000
vn 0.997020 -0.077145 0.000000
vn 1.000000 0.000000 0.000000
vn 1.000000 0.000000 0.000000
vn 1.000000 0.000000 0.000000
vn 1.000000 0.000000 0.000000
vn 0.345765 0.000000 -0.938321
vn 0.345765 0.000000 -0.938321
vn 0.345765 0.000000 -0.938321
vn 0.345765 0.000000 -0.938321
vn 0.000000 0.000000 -1.000000
vn 0.000000 0.000000 -1.000000
vn 0.000000 0.000000 -1.000000
vn 0.000000 0.000000 -1.000000
vn -0.345765 0.000000 -0.938321
vn -0.345765 0.000000 -0.938321
vn -0.345765 0.000000 -0.938321
vn -0.345765 0.000000 -0.938321
vn -1.000000 0.000000 0.000000
vn -1.000000 0.000000 0.000000
vn -1.000000 0.000000 0.000000
vn -1.000000 0.000000 0.000000
vn -0.997020 -0.077143 0.000000
vn -0.997020 -0.077143 0.000000
vn -0.997020 -0.077143 0.000000
vn -0.997020 -0.077143 0.000000
vn -1.000000 0.000000 -0.000000
vn -1.000000 0.000000 -0.000000
vn -1.000000 0.000000 -0.000000
vn -1.000000 0.000000 -0.000000
vn -0.500908 -0.265942 -0.823630
vn -0.711614 -0.100992 -0.695274
vn -0.721714 -0.074164 -0.688206
vn -0.721714 -0.074165 0.688206
vn -0.500909 -0.265943 0.823629
vn 0.000000 0.000000 1.000000
vn -0.711614 -0.100992 -0.695274
vn -0.769865 -0.019858 -0.637898
vn -0.769865 -0.019858 -0.637898
vn -0.721714 -0.074164 -0.688206
vn 0.000000 -1.000000 0.000000
vn 0.000000 -1.000000 0.000000
vn 0.000000 -1.000000 0.000000
vn 0.000000 -1.000000 0.000000
vn -0.769864 -0.019858 0.637899
vn -0.711614 -0.100992 0.695274
vn -0.721714 -0.074165 0.688206
vn -0.769864 -0.019858 0.637899
vn 0.721714 -0.074164 -0.688206
vn 0.500908 -0.265942 -0.823630
vn -0.000038 0.000018 -1.000000
vn 1.000000 0.000000 0.000000
vn 1.000000 0.000000 0.000000
vn 1.000000 0.000000 0.000000
vn 1.000000 0.000000 0.000000
vn 0.500909 -0.265943 0.823629
vn 0.711614 -0.100992 0.695274
vn 0.721714 -0.074164 0.688206
vn 0.711614 -0.100992 0.695274
vn 0.769864 -0.019858 0.637899
vn 0.769864 -0.019858 0.637899
vn 0.721714 -0.074164 0.688206
vn 0.000000 -1.000000 0.000000
vn 0.000000 -1.000000 0.000000
vn 0.000000 -1.000000 0.000000
vn 0.000000 -1.000000 0.000000
vn 0.769865 -0.019857 -0.637898
vn 0.711614 -0.100992 -0.695274
vn 0.721714 -0.074164 -0.688206
vn 0.769865 -0.019857 -0.637898
vn 0.711614 -0.100992 -0.695274
vn 0.500908 -0.265942 -0.823630
vn 0.721714 -0.074164 -0.688206
vn 0.500909 -0.265943 0.823629
vn 0.721714 -0.074164 0.688206
vn 0.000000 0.000000 1.000000
vn -0.500908 -0.265942 -0.823630
vn -0.721714 -0.074164 -0.688206
vn 0.000040 0.000018 -1.000000
vn -0.711614 -0.100992 0.695274
vn -0.500909 -0.265943 0.823629
vn -0.721714 -0.074165 0.688206
vn 0.000000 -1.000000 0.000000
vn 0.000000 -1.000000 0.000000
vn 0.000000 -1.000000 0.000000
vn 0.000000 -1.000000 0.000000
vn 0.000000 -1.000000 0.000000
vn 0.000000 -1.000000 0.000000
vn 0.000000 -1.000000 0.000000
vn 0.000000 -1.000000 0.000000
vn 0.000000 -1.000000 0.000000
vn 0.000000 -1.000000 0.000000
vn 0.000000 -1.000000 0.000000
vn 0.000000 -1.000000 0.000000
vn 0.000000 -1.000000 0.000000
vn 0.000000 -1.000000 0.000000
vn 0.000000 -1.000000 0.000000
vn 0.000000 -1.000000 0.000000
vn 0.000000 -1.000000 0.000000
vn 0.000000 -1.000000 0.000000
vn 0.000000 -1.000000 0.000000
vn 0.000000 -1.000000 0.000000
vn 0.000000 -1.000000 -0.000000
vn 0.000000 -1.000000 -0.000000
vn 0.000000 -1.000000 -0.000000
vn 0.000000 -1.000000 -0.000000
vn 0.000000 -1.000000 0.000000
vn 0.000000 -1.000000 0.000000
vn 0.000000 -1.000000 0.000000
vn 0.000000 -1.000000 0.000000
vn 0.000000 -1.000000 0.000000
vn 0.000000 -1.000000 0.000000
vn 0.000000 -1.000000 0.000000
vn 0.000000 -1.000000 0.000000
vn -0.702032 -0.712145 0.000000
vn -0.702032 -0.712145 0.000000
vn -0.702032 -0.712145 0.000000
vn -0.702032 -0.712145 0.000000
vn 0.000000 -0.712145 -0.702032
vn 0.000000 -0.712145 -0.702032
vn 0.000000 -0.712145 -0.702032
vn 0.000000 -0.712145 -0.702032
vn 0.702032 -0.712145 0.000000
vn 0.702032 -0.712145 0.000000
vn 0.702032 -0.712145 0.000000
vn 0.702032 -0.712145 0.000000
vn -0.702032 -0.712146 0.000000
vn -0.702032 -0.712146 0.000000
vn -0.702032 -0.712146 0.000000
vn -0.702032 -0.712146 0.000000
vn 0.702032 -0.712145 0.000000
vn 0.702032 -0.712145 0.000000
vn 0.702032 -0.712145 0.000000
vn 0.702032 -0.712145 0.000000
vn 0.000000 -0.712145 0.702032
vn 0.000000 -0.712145 0.702032
vn 0.000000 -0.712145 0.702032
vn 0.000000 -0.712145 0.702032
vn -0.702032 -0.712146 0.000000
vn -0.702032 -0.712146 0.000000
vn -0.702032 -0.712146 0.000000
vn -0.702032 -0.712146 0.000000
vn 0.702032 -0.712145 0.000000
vn 0.702032 -0.712145 0.000000
vn 0.702032 -0.712145 0.000000
vn 0.702032 -0.712145 0.000000
vn 0.000000 -1.000000 0.000000
vn 0.000000 -1.000000 0.000000
vn 0.000000 -1.000000 0.000000
vn 0.000000 -1.000000 0.000000
vn 0.000000 -1.000000 -0.000000
vn 0.000000 -1.000000 -0.000000
vn 0.000000 -1.000000 -0.000000
vn 0.000000 -1.000000 -0.000000
vn 0.000000 -1.000000 0.000000
vn 0.000000 -1.000000 0.000000
vn 0.000000 -1.000000 0.000000
vn 0.000000 -1.000000 0.000000
vn 0.000000 -1.000000 0.000000
vn 0.000000 -1.000000 0.000000
vn 0.000000 -1.000000 0.000000
vn 0.000000 -1.000000 0.000000
vn 0.000000 -1.000000 0.000000
vn 0.000000 -1.000000 0.000000
vn 0.000000 -1.000000 0.000000
vn 0.000000 -1.000000 0.000000
vn 0.000000 -1.000000 0.000000
vn 0.000000 -1.000000 0.000000
vn 0.000000 -1.000000 0.000000
vn 0.000000 -1.000000 0.000000
vn 0.000000 -1.000000 0.000000
vn 0.000000 -1.000000 0.000000
vn 0.000000 -1.000000 0.000000
vn 0.000000 -1.000000 0.000000
vn 0.000000 -1.000000 0.000000
vn 0.000000 -1.000000 0.000000
vn 0.000000 -1.000000 0.000000
vn 0.000000 -1.000000 0.000000
vn 0.000000 -1.000000 0.000000
vn 0.000000 -1.000000 0.000000
vn 0.000000 -1.000000 0.000000
vn 0.000000 -1.000000 0.000000
vn 0.000000 -1.000000 0.000000
vn 0.000000 -1.000000 0.000000
vn 0.000000 -1.000000 0.000000
vn 0.000000 -1.000000 0.000000
vn 0.000000 -1.000000 0.000000
vn 0.000000 -1.000000 0.000000
vn 0.000000 -1.000000 0.000000
vn 0.000000 -1.000000 0.000000
vn 0.000000 -1.000000 0.000000
vn 0.000000 -1.000000 0.000000
vn 0.000000 -1.000000 0.000000
vn 0.000000 -1.000000 0.000000
vn 0.000000 -1.000000 0.000000
vn 0.000000 -1.000000 0.000000
vn 0.000000 -1.000000 0.000000
vn 0.000000 -1.000000 0.000000
vn 0.000000 -1.000000 0.000000
vn 0.000000 -1.000000 -0.000000
vn 0.000000 -1.000000 -0.000000
vn 0.000000 -1.000000 0.000000
vn 0.000000 0.875779 -0.482712
vn 0.000000 0.875779 -0.482712
vn 0.000000 0.875779 -0.482712
vn 0.000000 0.875779 -0.482712
vn 0.482711 0.875780 0.000000
vn 0.482711 0.875780 0.000000
vn 0.482711 0.875780 0.000000
vn 0.482711 0.875780 0.000000
vn -0.482712 0.875779 0.000000
vn -0.482712 0.875779 0.000000
vn -0.482712 0.875779 0.000000
vn -0.482712 0.875779 0.000000
vn 0.000000 0.875780 0.482711
vn 0.000000 0.875780 0.482711
vn 0.000000 0.875780 0.482711
vn 0.000000 0.875780 0.482711
vn 0.482711 0.875780 0.000000
vn 0.482711 0.875780 0.000000
vn 0.482711 0.875780 0.000000
vn 0.482711 0.875780 0.000000
vn -0.482712 0.875779 0.000000
vn -0.482712 0.875779 0.000000
vn -0.482712 0.875779 0.000000
vn -0.482712 0.875779 0.000000
vn -0.482712 0.875779 0.000000
vn -0.482712 0.875779 0.000000
vn -0.482712 0.875779 0.000000
vn -0.482712 0.875779 0.000000
vn 0.482711 0.875780 0.000000
vn 0.482711 0.875780 0.000000
vn 0.482711 0.875780 0.000000
vn 0.482711 0.875780 0.000000
vn 0.000000 1.000000 0.000000
vn 0.000000 1.000000 0.000000
vn 0.000000 1.000000 0.000000
vn 0.000000 1.000000 0.000000
vn 0.000000 1.000000 0.000000
vn 0.000000 1.000000 0.000000
vn 0.000000 1.000000 0.000000
vn 0.000000 1.000000 0.000000
vn 0.000000 1.000000 0.000000
vn 0.000000 1.000000 0.000000
vn 0.000000 1.000000 0.000000
vn 0.000000 1.000000 0.000000
vn 0.000000 1.000000 0.000000
vn 0.000000 1.000000 0.000000
vn 0.000000 1.000000 0.000000
vn 0.000000 1.000000 0.000000
vn 0.000000 1.000000 0.000000
vn 0.000000 1.000000 0.000000
vn 0.000000 1.000000 0.000000
vn 0.000000 1.000000 0.000000
vn 0.000000 1.000000 0.000000
vn 0.000000 1.000000 0.000000
vn 0.000000 1.000000 0.000000
vn 0.000000 1.000000 0.000000
s off
f 34/46/1 9/18/2 26/36/3 33/45/4
f 42/58/5 2/3/6 4/11/7 41/55/8
f 36/50/9 3/13/10 1/5/11 35/47/12
f 38/52/13 31/43/14 15/23/15 37/51/16
f 74/89/17 73/90/18 75/91/19 76/92/20
f 35/48/21 1/1/22 9/18/23 34/46/24
f 1/1/25 25/35/26 26/36/27 9/18/28
f 2/7/29 42/57/30 43/59/31 11/19/32
f 28/39/33 5/2/34 10/17/35 27/37/36
f 41/56/37 4/15/38 13/22/39 40/54/40
f 32/44/41 3/9/42 15/23/43 31/43/44
f 3/9/45 36/49/46 37/51/47 15/23/48
f 7/10/49 29/40/50 30/42/51 16/24/52
f 17/25/53 2/7/54 11/19/55 18/26/56
f 44/60/57 18/26/58 11/19/59 43/59/60
f 6/8/61 20/29/62 19/27/63 12/20/64
f 78/93/65 77/94/66 79/95/67 80/96/68
f 22/32/69 21/30/70 8/16/71 14/21/72
f 40/54/73 13/22/74 23/33/75 39/53/76
f 4/15/77 24/34/78 23/33/79 13/22/80
f 26/36/81 25/35/82 17/25/83 18/26/84
f 33/45/85 26/36/86 18/26/87 44/60/88
f 45/98/89 47/99/90 48/100/91 46/97/92
f 84/132/93 74/89/94 76/92/95 83/129/96
f 52/101/97 51/102/98 53/103/99 54/104/100
f 31/43/101 38/52/102 39/53/103 23/33/104
f 24/34/105 32/44/106 31/43/107 23/33/108
f 10/17/109 34/46/110 33/45/111 27/37/112
f 5/2/113 35/48/114 34/46/115 10/17/116
f 7/14/117 36/50/118 35/47/119 5/6/120
f 37/51/121 36/49/122 7/10/123 16/24/124
f 30/42/125 38/52/126 37/51/127 16/24/128
f 56/106/129 52/101/130 54/104/131 55/105/132
f 14/21/133 40/54/134 39/53/135 22/32/136
f 8/16/137 41/56/138 40/54/139 14/21/140
f 6/4/141 42/58/142 41/55/143 8/12/144
f 43/59/145 42/57/146 6/8/147 12/20/148
f 19/27/149 44/60/150 43/59/151 12/20/152
f 47/99/153 49/107/154 50/108/155 48/100/156
f 28/39/157 45/62/158 46/61/159 20/29/160
f 28/39/161 27/37/162 47/63/163
f 48/64/164 20/29/165 46/61/166
f 27/133/167 33/134/168 49/66/169 47/65/170
f 49/66/171 33/135/172 44/136/173 50/67/174
f 44/137/175 19/138/176 48/68/177 50/67/178
f 52/139/179 29/140/180 51/69/181
f 51/69/182 29/141/183 21/142/184 53/70/185
f 21/143/186 22/144/187 54/145/188
f 22/146/189 39/147/190 55/71/191 54/148/192
f 38/149/193 56/72/194 55/71/195 39/150/196
f 38/151/197 30/152/198 52/153/199 56/72/200
f 30/154/201 29/155/202 52/156/203
f 21/157/204 54/158/205 53/70/206
f 28/39/207 47/63/208 45/62/209
f 19/27/210 20/29/211 48/64/212
f 29/41/213 7/14/214 57/74/215 58/73/216
f 7/14/217 5/2/218 59/75/219 57/74/220
f 5/2/221 28/38/222 60/76/223 59/75/224
f 8/16/225 21/31/226 61/78/227 62/77/228
f 20/28/229 6/4/230 64/80/231 63/79/232
f 6/4/233 8/16/234 62/77/235 64/80/236
f 29/41/237 58/73/238 61/78/239 21/31/240
f 60/76/241 28/38/242 20/28/243 63/79/244
f 58/73/245 57/74/246 65/82/247 66/81/248
f 57/74/249 59/75/250 67/83/251 65/82/252
f 59/75/253 60/76/254 68/84/255 67/83/256
f 62/77/257 61/78/258 69/86/259 70/85/260
f 63/79/261 64/80/262 72/88/263 71/87/264
f 64/80/265 62/77/266 70/85/267 72/88/268
f 58/73/269 66/81/270 69/86/271 61/78/272
f 68/84/273 60/76/274 63/79/275 71/87/276
f 66/109/277 65/110/278 73/111/279 74/112/280
f 65/110/281 67/113/282 75/114/283 73/111/284
f 67/113/285 68/115/286 76/116/287 75/114/288
f 70/117/289 69/118/290 77/119/291 78/120/292
f 71/121/293 72/122/294 80/123/295 79/124/296
f 72/122/297 70/117/298 78/120/299 80/123/300
f 66/109/301 74/112/302 69/118/303
f 69/118/304 74/112/305 77/119/306
f 74/112/307 84/131/308 77/119/309
f 84/131/310 82/127/311 77/119/312
f 68/115/313 71/121/314 76/116/315
f 71/121/316 79/124/317 76/116/318
f 76/116/319 79/124/320 83/130/321
f 83/130/322 79/124/323 81/126/324
f 77/94/325 82/128/326 81/125/327 79/95/328
f 82/128/329 84/132/330 83/129/331 81/125/332
f 1/159/333 3/160/334 85/161/335 86/162/336
f 25/163/337 1/159/338 86/162/339 87/164/340
f 3/160/341 32/165/342 88/166/343 85/161/344
f 4/167/345 2/168/346 90/169/347 89/170/348
f 2/168/349 17/171/350 91/172/351 90/169/352
f 24/173/353 4/167/354 89/170/355 92/174/356
f 32/165/357 24/173/358 92/174/359 88/166/360
f 17/171/361 25/163/362 87/164/363 91/172/364
f 86/162/365 85/161/366 93/175/367
f 87/164/368 86/162/369 93/175/370
f 85/161/371 88/166/372 93/175/373
f 89/170/374 90/169/375 93/175/376
f 90/169/377 91/172/378 93/175/379
f 92/174/380 89/170/381 93/175/382
f 88/166/383 92/174/384 93/175/385
f 91/172/386 87/164/387 93/175/388
