# This file uses meters as units for non-parametric coordinates.

v 0.000000 0.000000 0.000000
v -31.752930 -10.376932 -11.700745
v -31.752930 -99.942566 -11.700745
v 0.000000 -99.942566 0.000000
v 500.000000 -99.942566 0.000000
v 531.752930 -99.942566 -11.700745
v 531.752930 -10.376932 -11.700745
v 500.000000 0.000000 0.000000
v 24.631348 -99.942566 0.000000
v 0.000000 0.000000 67.037048
v 0.000000 -10.033590 77.070618
v 500.000000 0.000000 67.037048
v 500.000000 -10.033590 77.070618
v 1.789856 -99.942566 67.037048
v 0.000000 -89.908981 77.070618
v 498.210114 -99.942566 67.037048
v 500.000000 -89.908981 77.070618
v -31.752930 -20.410522 65.369873
v -31.752930 -10.376932 55.336304
v -31.752930 -89.908981 65.369873
v -31.752930 -99.942566 55.336304
v 531.752930 -20.410522 65.369873
v 531.752930 -10.376932 55.336304
v 531.752930 -89.908981 65.369873
v 531.752930 -99.942566 55.336304
vt 0.245912 0.302556
vt 0.245912 0.302556
vt 0.245911 0.302556
vt 0.245911 0.302556
vt 0.245911 0.302556
vt 0.245912 0.302556
vt 0.245911 0.302556
vt 0.245911 0.302556
vt 0.245911 0.302556
vt 0.245911 0.302556
vt 0.245911 0.302556
vt 0.245912 0.302556
vt 0.245912 0.302556
vt 0.245912 0.302556
vt 0.245912 0.302556
vt 0.245912 0.302556
vt 0.245912 0.302556
vt 0.245911 0.302556
vt 0.245912 0.302556
vt 0.245912 0.302556
vt 0.245912 0.302556
vt 0.245911 0.302556
vt 0.243790 0.302831
vt 0.243790 0.302831
vt 0.243790 0.302831
vt 0.243790 0.302831
vt 0.245499 0.302830
vt 0.245912 0.302556
vt 0.245911 0.302556
vt 0.245499 0.302830
vt 0.245499 0.302831
vt 0.245499 0.302831
vt 0.245499 0.302830
vt 0.245499 0.301976
vt 0.245499 0.301976
vt 0.245499 0.301975
vt 0.245499 0.301976
vt 0.245499 0.301975
vt 0.245499 0.301976
vt 0.245499 0.301976
vn 1.000000 0.000000 0.000000
vn 1.000000 0.000000 0.000000
vn 1.000000 0.000000 0.000000
vn 1.000000 0.000000 0.000000
vn 1.000000 0.000000 0.000000
vn 1.000000 0.000000 0.000000
vn -1.000000 0.000000 0.000000
vn -1.000000 0.000000 0.000000
vn -1.000000 0.000000 0.000000
vn -1.000000 0.000000 0.000000
vn -1.000000 0.000000 0.000000
vn -1.000000 0.000000 0.000000
vn 0.000000 0.707106 0.707107
vn 0.000000 0.707106 0.707107
vn 0.000000 0.707106 0.707107
vn 0.000000 0.707106 0.707107
vn -0.441208 0.634561 0.634562
vn -0.441208 0.634561 0.634562
vn -0.441208 0.634561 0.634562
vn -0.441208 0.634561 0.634562
vn 0.441208 0.634560 0.634562
vn 0.441208 0.634561 0.634562
vn 0.441208 0.634560 0.634562
vn 0.441208 0.634561 0.634562
vn -0.241992 -0.696797 0.675214
vn -0.241992 -0.696797 0.675214
vn -0.241992 -0.696797 0.675214
vn -0.241992 -0.696797 0.675214
vn 0.000000 -0.707106 0.707107
vn 0.000000 -0.707106 0.707107
vn 0.000000 -0.707106 0.707107
vn 0.000000 -0.707106 0.707107
vn 0.241992 -0.696797 0.675214
vn 0.241992 -0.696797 0.675214
vn 0.241992 -0.696797 0.675214
vn 0.241992 -0.696797 0.675214
vn 0.000000 0.000000 1.000000
vn 0.000000 0.000000 1.000000
vn 0.000000 0.000000 1.000000
vn 0.000000 0.000000 1.000000
vn -0.345765 0.000000 0.938321
vn -0.345765 0.000000 0.938321
vn -0.345765 0.000000 0.938321
vn -0.345765 0.000000 0.938321
vn -0.310635 0.950529 0.000000
vn -0.310635 0.950529 0.000000
vn -0.310635 0.950529 0.000000
vn -0.310635 0.950529 0.000000
vn 0.000000 -1.000000 0.000000
vn 0.000000 -1.000000 0.000000
vn 0.000000 -1.000000 0.000000
vn 0.000000 -1.000000 0.000000
vn 0.310635 0.950529 0.000000
vn 0.310635 0.950529 0.000000
vn 0.310635 0.950529 0.000000
vn 0.310635 0.950529 0.000000
vn 0.345765 0.000000 0.938321
vn 0.345765 0.000000 0.938321
vn 0.345765 0.000000 0.938321
vn 0.345765 0.000000 0.938321
vn 0.000000 -1.000000 -0.000000
vn 0.000000 -1.000000 -0.000000
vn 0.000000 -1.000000 -0.000000
vn 0.000000 -1.000000 -0.000000
vn 0.000000 1.000000 0.000000
vn 0.000000 1.000000 0.000000
vn 0.000000 1.000000 0.000000
vn 0.000000 1.000000 0.000000
vn 0.000000 -1.000000 -0.000000
vn 0.000000 -1.000000 -0.000000
vn 0.000000 -1.000000 -0.000000
vn 0.000000 -1.000000 -0.000000
vn 0.000000 -1.000000 -0.000000
vn 0.000000 0.748162 -0.663516
vn 0.000000 0.748162 -0.663516
vn 0.000000 0.748162 -0.663516
vn 0.000000 0.748162 -0.663516
vn 0.345765 0.000000 -0.938321
vn 0.345765 0.000000 -0.938321
vn 0.345765 0.000000 -0.938321
vn 0.000000 -0.129538 -0.991574
vn 0.000000 -0.129538 -0.991574
vn 0.000000 -0.129538 -0.991575
vn 0.000000 -0.129538 -0.991575
vn 0.000000 -0.129538 -0.991574
vn 0.000000 -0.129538 -0.991574
vn 0.000000 -0.129538 -0.991574
vn -0.345765 0.000000 -0.938321
vn -0.345765 0.000000 -0.938321
vn -0.345765 0.000000 -0.938321
s off
f 6/2/1 7/17/2 23/5/3 22/18/4 24/7/5 25/22/6
f 18/4/7 19/14/8 2/1/9 3/15/10 21/6/11 20/10/12
f 10/12/13 11/8/14 13/19/15 12/3/16
f 11/8/17 10/12/18 19/14/19 18/4/20
f 12/3/21 13/19/22 22/18/23 23/5/24
f 14/28/25 15/11/26 20/10/27 21/6/28
f 15/11/29 14/28/30 16/20/31 17/9/32
f 17/9/33 16/20/34 25/22/35 24/7/36
f 13/19/37 11/8/38 15/11/39 17/9/40
f 11/8/41 18/4/42 20/10/43 15/11/44
f 10/12/45 1/13/46 2/1/47 19/14/48
f 4/29/49 14/28/50 21/6/51 3/15/52
f 8/16/53 12/3/54 23/5/55 7/17/56
f 22/18/57 13/19/58 17/9/59 24/7/60
f 16/20/61 5/21/62 6/2/63 25/22/64
f 1/23/65 10/24/66 12/25/67 8/26/68
f 9/27/69 5/21/70 16/20/71 14/28/72 4/29/73
f 2/30/74 1/31/75 8/32/76 7/33/77
f 4/34/78 3/35/79 2/36/80
f 9/37/81 4/34/82 2/36/83 7/38/84
f 5/39/85 9/37/86 7/38/87
f 6/40/88 5/39/89 7/38/90
