# This file uses meters as units for non-parametric coordinates.

v -23.281479 373.455566 21.398010
v -59.983742 321.267944 21.398010
v 0.000000 347.361755 21.398010
v -59.983742 128.656448 21.398010
v 0.000000 91.888901 21.398010
v -71.973488 65.905609 21.398010
v 0.000000 0.000076 21.398010
v 0.000000 -103.690582 21.398010
v -23.281479 405.397278 21.398010
v 0.000000 405.397278 21.398010
v -71.973488 128.656448 21.398010
v -35.271225 0.000076 21.398010
v -35.271225 -103.690582 21.398010
v -23.281479 373.455566 -21.397934
v -59.983742 321.267944 -21.397934
v 0.000000 347.361755 -21.397934
v -59.983742 128.656448 -21.397934
v 0.000000 91.888901 -21.397934
v -23.281479 405.397278 -21.397934
v 0.000000 405.397278 -21.397934
v -71.973488 65.905609 -21.397934
v -71.973488 128.656448 -21.397934
v 0.000000 0.000076 -21.397934
v -35.271225 0.000076 -21.397934
v 0.000000 -103.690582 -21.397934
v -35.271225 -103.690582 -21.397934
v -68.209923 321.267944 -13.520203
v -68.209923 136.115967 -13.520203
v -80.199669 136.115967 -13.520203
v -80.199669 65.905609 -13.520203
v -43.497391 0.000076 -13.520203
v -43.497391 -103.690582 -13.520203
v -31.507645 405.397278 -13.520203
v -31.507645 373.455566 -13.520203
v -68.209923 321.267944 13.520355
v -68.209923 136.115967 13.520355
v -80.199669 136.115967 13.520355
v -80.199669 65.905609 13.520355
v -43.497391 0.000076 13.520355
v -43.497391 -103.690582 13.520355
v -31.507645 405.397278 13.520355
v -31.507645 373.455566 13.520355
vt 0.235597 0.278732
vt 0.235597 0.278732
vt 0.235597 0.278732
vt 0.235597 0.278732
vt 0.235597 0.278732
vt 0.235597 0.278732
vt 0.235597 0.278732
vt 0.235597 0.278732
vt 0.235597 0.278732
vt 0.235597 0.278732
vt 0.235597 0.278732
vt 0.235597 0.278732
vt 0.235597 0.278732
vt 0.235597 0.278732
vt 0.235597 0.278732
vt 0.235597 0.278732
vt 0.235597 0.278732
vt 0.235597 0.278732
vt 0.235597 0.278732
vt 0.235597 0.278732
vt 0.235597 0.278732
vt 0.235597 0.278732
vt 0.235597 0.278732
vt 0.235597 0.278732
vt 0.235597 0.278732
vt 0.235597 0.278732
vt 0.235597 0.278732
vt 0.235597 0.278732
vt 0.235597 0.278732
vt 0.235597 0.278732
vt 0.235597 0.278732
vt 0.235597 0.278732
vt 0.235597 0.278732
vt 0.235597 0.278732
vt 0.235597 0.278732
vt 0.235597 0.278732
vt 0.235597 0.278732
vt 0.235597 0.278732
vt 0.235597 0.278732
vt 0.235597 0.278732
vt 0.235597 0.278732
vt 0.235597 0.278732
vt 0.235597 0.278732
vt 0.235597 0.278732
vt 0.235597 0.278732
vt 0.235597 0.278732
vt 0.235597 0.278732
vt 0.235597 0.278732
vt 0.235597 0.278732
vt 0.235597 0.278732
vt 0.235597 0.278732
vt 0.235597 0.278732
vt 0.235597 0.278732
vt 0.235597 0.278732
vt 0.235597 0.278732
vt 0.235597 0.278732
vt 0.235597 0.278732
vt 0.235597 0.278732
vt 0.235597 0.278732
vt 0.235597 0.278732
vt 0.235597 0.278732
vt 0.235597 0.278732
vt 0.235597 0.278732
vt 0.235597 0.278732
vt 0.235597 0.278732
vt 0.235597 0.278732
vt 0.235597 0.278732
vt 0.235597 0.278732
vt 0.235597 0.278732
vt 0.235597 0.278732
vt 0.235597 0.278732
vt 0.235597 0.278732
vt 0.235597 0.278732
vt 0.235597 0.278732
vt 0.235597 0.278732
vt 0.235597 0.278732
vt 0.235597 0.278732
vn 0.000000 0.000000 -1.000000
vn 0.000000 0.000000 -1.000000
vn 0.000000 0.000000 -1.000000
vn 0.000000 0.000000 -1.000000
vn 0.000000 0.000000 -1.000000
vn 0.000000 0.000000 -1.000000
vn 0.000000 0.000000 -1.000000
vn -0.000000 0.000000 -1.000000
vn -0.000000 0.000000 -1.000000
vn -0.000000 0.000000 -1.000000
vn -0.000000 0.000000 -1.000000
vn -0.000000 0.000000 -1.000000
vn -0.000000 0.000000 -1.000000
vn -0.000000 0.000000 -1.000000
vn 0.000000 0.000000 -1.000000
vn 0.000000 0.000000 -1.000000
vn 0.000000 0.000000 -1.000000
vn 0.000000 0.000000 -1.000000
vn 0.000000 0.000000 -1.000000
vn 0.000000 0.000000 -1.000000
vn 0.000000 0.000000 -1.000000
vn 0.000000 0.000000 -1.000000
vn 0.000000 0.000000 -1.000000
vn 0.000000 0.000000 -1.000000
vn 0.000000 0.000000 -1.000000
vn 0.000000 0.000000 1.000000
vn 0.000000 0.000000 1.000000
vn 0.000000 0.000000 1.000000
vn 0.000000 0.000000 1.000000
vn 0.000000 0.000000 1.000000
vn 0.000000 0.000000 1.000000
vn 0.000000 0.000000 1.000000
vn 0.000000 0.000000 1.000000
vn 0.000000 0.000000 1.000000
vn 0.000000 0.000000 1.000000
vn 0.000000 0.000000 1.000000
vn -0.000000 0.000000 1.000000
vn -0.000000 0.000000 1.000000
vn -0.000000 0.000000 1.000000
vn 0.000000 0.000000 1.000000
vn 0.000000 0.000000 1.000000
vn 0.000000 0.000000 1.000000
vn 0.000000 0.000000 1.000000
vn 0.000000 0.000000 1.000000
vn 0.000000 0.000000 1.000000
vn 0.000000 0.000000 1.000000
vn 0.000000 0.000000 1.000000
vn 0.000000 0.000000 1.000000
vn 0.000000 0.000000 1.000000
vn 0.000000 0.000000 1.000000
vn -0.621966 0.437414 0.649482
vn -0.621966 0.437414 0.649482
vn -0.621966 0.437414 0.649482
vn -0.621966 0.437414 0.649482
vn -0.691641 0.000000 0.722241
vn -0.691641 0.000000 0.722241
vn -0.691641 0.000000 0.722241
vn -0.691641 0.000000 0.722241
vn 1.000000 0.000000 0.000000
vn 1.000000 0.000000 0.000000
vn 1.000000 0.000000 0.000000
vn 1.000000 0.000000 0.000000
vn -0.691642 0.000000 0.722241
vn -0.691642 0.000000 0.722241
vn -0.691642 0.000000 0.722241
vn -0.691642 0.000000 0.722241
vn 0.000000 1.000000 -0.000005
vn 0.000000 1.000000 -0.000005
vn 0.000000 1.000000 -0.000005
vn 1.000000 0.000000 0.000000
vn 1.000000 0.000000 0.000000
vn 1.000000 0.000000 0.000000
vn 1.000000 0.000000 0.000000
vn -0.691641 0.000000 0.722241
vn -0.691641 0.000000 0.722241
vn -0.691641 0.000000 0.722241
vn -0.691641 0.000000 0.722241
vn 0.000000 0.726115 0.687574
vn 0.000000 0.726115 0.687574
vn 0.000000 0.726115 0.687574
vn 0.000000 0.726115 0.687574
vn -0.645421 -0.359430 0.673975
vn -0.645421 -0.359430 0.673975
vn -0.645421 -0.359430 0.673975
vn -0.645421 -0.359430 0.673975
vn 1.000000 0.000000 0.000000
vn 1.000000 0.000000 0.000000
vn 1.000000 0.000000 0.000000
vn 1.000000 0.000000 0.000000
vn 0.000000 -1.000000 0.000000
vn 0.000000 -1.000000 0.000000
vn 0.000000 -1.000000 0.000000
vn -0.691642 0.000000 0.722241
vn -0.691642 0.000000 0.722241
vn -0.691642 0.000000 0.722241
vn -0.691642 0.000000 0.722241
vn 1.000000 0.000000 0.000000
vn 1.000000 0.000000 0.000000
vn 1.000000 0.000000 0.000000
vn 1.000000 0.000000 0.000000
vn -0.691645 0.000000 -0.722238
vn -0.691645 0.000000 -0.722238
vn -0.691645 0.000000 -0.722238
vn -0.691645 0.000000 -0.722238
vn 0.000000 0.726118 -0.687570
vn 0.000000 0.726118 -0.687570
vn 0.000000 0.726118 -0.687570
vn 0.000000 0.726118 -0.687570
vn -0.691645 0.000000 -0.722238
vn -0.691645 0.000000 -0.722238
vn -0.691645 0.000000 -0.722238
vn -0.691645 0.000000 -0.722238
vn -0.645424 -0.359431 -0.673971
vn -0.645424 -0.359431 -0.673971
vn -0.645424 -0.359431 -0.673971
vn -0.645424 -0.359431 -0.673971
vn -0.691646 0.000000 -0.722237
vn -0.691646 0.000000 -0.722237
vn -0.691646 0.000000 -0.722237
vn -0.691646 0.000000 -0.722237
vn 0.000000 -1.000000 0.000000
vn 0.000000 -1.000000 0.000000
vn 0.000000 -1.000000 0.000000
vn 0.000000 1.000000 0.000005
vn 0.000000 1.000000 0.000005
vn 0.000000 1.000000 0.000005
vn -0.691646 0.000000 -0.722237
vn -0.691646 0.000000 -0.722237
vn -0.691646 0.000000 -0.722237
vn -0.691646 0.000000 -0.722237
vn -0.621969 0.437415 -0.649479
vn -0.621969 0.437415 -0.649479
vn -0.621969 0.437415 -0.649479
vn -0.621969 0.437415 -0.649479
vn -1.000000 0.000000 0.000000
vn -1.000000 0.000000 0.000000
vn -1.000000 0.000000 0.000000
vn -1.000000 0.000000 0.000000
vn 0.000000 1.000000 0.000000
vn 0.000000 1.000000 0.000000
vn 0.000000 1.000000 0.000000
vn 0.000000 1.000000 0.000000
vn -1.000000 0.000000 0.000000
vn -1.000000 0.000000 0.000000
vn -1.000000 0.000000 0.000000
vn -1.000000 0.000000 0.000000
vn -0.873661 -0.486535 0.000000
vn -0.873661 -0.486535 0.000000
vn -0.873661 -0.486535 0.000000
vn -0.873661 -0.486535 0.000000
vn -1.000000 0.000000 0.000000
vn -1.000000 0.000000 0.000000
vn -1.000000 0.000000 0.000000
vn -1.000000 0.000000 0.000000
vn 0.000000 -1.000000 0.000000
vn 0.000000 -1.000000 0.000000
vn 0.000000 -1.000000 0.000000
vn 0.000000 -1.000000 0.000000
vn 0.000000 1.000000 0.000000
vn 0.000000 1.000000 0.000000
vn 0.000000 1.000000 0.000000
vn 0.000000 1.000000 0.000000
vn -1.000000 0.000000 0.000000
vn -1.000000 0.000000 0.000000
vn -1.000000 0.000000 0.000000
vn -1.000000 0.000000 0.000000
vn -0.817971 0.575259 0.000000
vn -0.817971 0.575259 0.000000
vn -0.817971 0.575259 0.000000
vn -0.817971 0.575259 0.000000
s off
f 15/40/1 14/41/2 16/42/3
f 17/43/4 15/40/5 16/42/6 18/44/7
f 14/41/8 19/45/9 20/46/10 16/42/11
f 21/1/12 17/3/13 18/47/14
f 17/50/15 21/48/16 22/49/17
f 23/54/18 24/51/19 21/52/20 18/53/21
f 25/55/22 26/56/23 24/51/24 23/57/25
f 2/20/26 3/22/27 1/21/28
f 4/23/29 5/24/30 3/22/31 2/20/32
f 1/21/33 3/22/34 10/26/35 9/25/36
f 6/27/37 5/29/38 4/28/39
f 4/30/40 11/32/41 6/31/42
f 7/33/43 5/36/44 6/35/45 12/34/46
f 8/37/47 7/39/48 12/34/49 13/38/50
f 2/5/51 1/6/52 42/77/53 35/68/54
f 4/8/55 2/5/56 35/68/57 36/70/58
f 3/7/59 5/9/60 18/44/61 16/42/62
f 1/6/63 9/14/64 41/76/65 42/77/66
f 9/14/67 10/15/68 41/76/69
f 10/15/70 3/7/71 16/42/72 20/46/73
f 6/4/74 11/16/75 37/71/76 38/73/77
f 11/16/78 4/17/79 36/69/80 37/71/81
f 12/18/82 6/2/83 38/72/84 39/74/85
f 5/10/86 7/11/87 23/54/88 18/53/89
f 8/13/90 13/19/91 40/75/92
f 13/19/93 12/18/94 39/74/95 40/75/96
f 7/12/97 8/13/98 25/55/99 23/57/100
f 28/60/101 27/58/102 15/40/103 17/43/104
f 29/61/105 28/59/106 17/50/107 22/49/108
f 30/63/109 29/61/110 22/49/111 21/48/112
f 31/64/113 30/62/114 21/52/115 24/51/116
f 32/65/117 31/64/118 24/51/119 26/56/120
f 25/55/121 32/65/122 26/56/123
f 33/66/124 20/46/125 19/45/126
f 34/67/127 33/66/128 19/45/129 14/41/130
f 27/58/131 34/67/132 14/41/133 15/40/134
f 36/70/135 35/68/136 27/58/137 28/60/138
f 37/71/139 36/69/140 28/59/141 29/61/142
f 38/73/143 37/71/144 29/61/145 30/63/146
f 39/74/147 38/72/148 30/62/149 31/64/150
f 40/75/151 39/74/152 31/64/153 32/65/154
f 8/13/155 40/75/156 32/65/157 25/55/158
f 41/76/159 10/15/160 20/46/161 33/66/162
f 42/77/163 41/76/164 33/66/165 34/67/166
f 35/68/167 42/77/168 34/67/169 27/58/170
