# This file uses meters as units for non-parametric coordinates.

v 28.655701 300.000031 93.807678
v 28.655701 257.291107 42.037964
v 28.655701 106.264771 42.037964
v 28.655701 16.040783 93.807678
v -28.656616 300.000031 93.807678
v -28.656616 257.291107 42.037964
v -28.656616 106.264771 42.037964
v -28.656616 16.040783 93.807678
v 28.655701 -103.690582 93.807678
v -28.656616 -103.690582 93.807678
v -28.656616 405.397278 93.807678
v 28.655701 405.397278 93.807678
v 28.655701 405.397278 0.000000
v 28.655701 -103.690582 0.000000
v -28.656616 405.397278 0.000000
v -28.656616 -103.690582 0.000000
v 28.655701 16.040783 133.051453
v -28.656616 16.040783 133.051453
v -28.656616 -103.690582 133.051453
v 28.655701 -103.690582 133.051453
v 28.655701 6.259438 150.389709
v -28.656616 6.259438 150.389709
v -28.656616 -103.690582 150.389709
v 28.655701 -103.690582 150.389709
v -18.713989 405.397278 93.807678
v -18.713989 300.000031 93.807678
v -18.713989 257.291107 42.037964
v -18.713989 106.264771 42.037964
v 18.713684 405.397278 93.807678
v 18.713684 300.000031 93.807678
v 18.713684 257.291107 42.037964
v 18.713684 106.264771 42.037964
v 24.381714 242.844208 55.544434
v 18.713684 242.844208 55.544434
v 18.713684 120.711670 55.544434
v 24.381714 120.711670 55.544434
v -18.713989 242.844208 55.544434
v -18.713989 120.711670 55.544434
v -24.382324 242.844208 55.544434
v -24.382324 120.711670 55.544434
v -16.874084 278.586914 39.587097
v -16.874084 106.264771 42.037964
v -16.874084 16.040783 93.807678
v -13.312683 16.040783 130.600586
v 16.874390 278.586914 39.587097
v 16.874390 106.264771 42.037964
v 16.874390 16.040783 93.807678
v 13.312988 16.040783 130.600586
v 8.919067 278.586914 57.501221
v 8.919067 110.722557 56.313171
v -8.918762 278.586914 57.501221
v -8.918762 110.722557 56.313171
v 8.919067 31.724800 99.125671
v -8.918762 31.724800 99.125671
v 7.036743 24.029505 125.314331
v -7.036438 24.029505 125.314331
vt 0.244198 0.304177
vt 0.244198 0.304177
vt 0.244198 0.304177
vt 0.244198 0.304177
vt 0.244198 0.304177
vt 0.244198 0.304177
vt 0.244198 0.304177
vt 0.244198 0.304177
vt 0.244198 0.304177
vt 0.244198 0.304177
vt 0.244198 0.304177
vt 0.244198 0.304177
vt 0.244198 0.304177
vt 0.244198 0.304177
vt 0.244198 0.304177
vt 0.244198 0.304177
vt 0.244198 0.304177
vt 0.244198 0.304177
vt 0.244198 0.304177
vt 0.244198 0.304177
vt 0.244198 0.304177
vt 0.244198 0.304177
vt 0.244198 0.304177
vt 0.244198 0.304177
vt 0.244198 0.304177
vt 0.244198 0.304177
vt 0.244198 0.304177
vt 0.244198 0.304177
vt 0.244198 0.304177
vt 0.244198 0.304177
vt 0.244198 0.304177
vt 0.244198 0.304177
vt 0.244198 0.304177
vt 0.244198 0.304177
vt 0.244198 0.304177
vt 0.244198 0.304177
vt 0.244198 0.304177
vt 0.244198 0.304177
vt 0.244198 0.304177
vt 0.244198 0.304177
vt 0.244198 0.304177
vt 0.244198 0.304177
vt 0.244198 0.304177
vt 0.244198 0.304177
vt 0.244198 0.304177
vt 0.244198 0.304177
vt 0.244198 0.304177
vt 0.244198 0.304177
vt 0.244198 0.304177
vt 0.244198 0.304177
vt 0.244198 0.304177
vt 0.244198 0.304177
vt 0.244198 0.304177
vt 0.244198 0.304177
vt 0.244198 0.304177
vt 0.244198 0.304177
vt 0.244198 0.304177
vt 0.244198 0.304177
vt 0.244198 0.304177
vt 0.244198 0.304177
vt 0.244198 0.278525
vt 0.244198 0.304177
vt 0.244198 0.278525
vt 0.244198 0.304177
vt 0.244198 0.304177
vt 0.244198 0.278525
vt 0.244198 0.304177
vt 0.244198 0.278525
vt 0.244198 0.304177
vt 0.244198 0.304177
vt 0.244198 0.304177
vt 0.244198 0.304177
vt 0.244198 0.304177
vt 0.244198 0.304177
vt 0.244198 0.304177
vt 0.244198 0.304177
vt 0.244198 0.304177
vt 0.244198 0.304177
vt 0.244198 0.278525
vt 0.244198 0.304177
vt 0.244198 0.278525
vt 0.244198 0.278525
vt 0.244198 0.304177
vt 0.244198 0.304177
vt 0.244198 0.278525
vt 0.244198 0.304177
vt 0.243727 0.330322
vt 0.243727 0.330322
vt 0.243727 0.330322
vt 0.243727 0.330322
vt 0.243727 0.330322
vt 0.243727 0.330322
vt 0.243727 0.330322
vt 0.243727 0.330322
vt 0.243727 0.330322
vt 0.243727 0.330322
vt 0.243727 0.330322
vt 0.243727 0.330322
vt 0.243727 0.330322
vt 0.243727 0.330322
vt 0.243727 0.330322
vt 0.243727 0.330322
vt 0.232875 0.253696
vt 0.232875 0.253696
vt 0.232875 0.253696
vt 0.232875 0.253696
vn 0.000000 -0.771381 0.636373
vn 0.000000 -0.771381 0.636373
vn 0.000000 -0.771381 0.636373
vn 0.000000 -0.771381 0.636373
vn 0.000000 0.000000 1.000000
vn 0.000000 0.000000 1.000000
vn 0.000000 0.000000 1.000000
vn 0.000000 0.000000 1.000000
vn 0.000000 0.497683 0.867359
vn 0.000000 0.497683 0.867359
vn 0.000000 0.497683 0.867359
vn 0.000000 0.497683 0.867359
vn 0.000000 0.497683 0.867359
vn 0.000000 0.497683 0.867359
vn 0.000000 0.000000 1.000000
vn 0.000000 0.000000 1.000000
vn 0.000000 0.000000 1.000000
vn 0.000000 0.000000 1.000000
vn 0.000000 0.000000 1.000000
vn 0.000000 0.000000 1.000000
vn 0.000000 0.000000 1.000000
vn 0.000000 0.000000 1.000000
vn 1.000000 0.000000 0.000000
vn 1.000000 0.000000 0.000000
vn 1.000000 0.000000 0.000000
vn 1.000000 0.000000 0.000000
vn 1.000000 0.000000 0.000000
vn 1.000000 0.000000 0.000000
vn 1.000000 0.000000 0.000000
vn 1.000000 0.000000 0.000000
vn 1.000000 0.000000 0.000000
vn 1.000000 0.000000 0.000000
vn -1.000000 -0.000000 0.000000
vn -1.000000 -0.000000 0.000000
vn -1.000000 -0.000000 0.000000
vn -1.000000 0.000000 0.000000
vn -1.000000 0.000000 0.000000
vn -1.000000 0.000000 0.000000
vn -1.000000 0.000000 0.000000
vn -1.000000 0.000000 0.000000
vn -1.000000 0.000000 0.000000
vn -1.000000 0.000000 0.000000
vn 1.000000 0.000000 0.000000
vn 1.000000 0.000000 0.000000
vn 1.000000 0.000000 0.000000
vn -1.000000 0.000000 0.000000
vn -1.000000 0.000000 0.000000
vn -1.000000 0.000000 0.000000
vn 0.000000 -1.000000 0.000000
vn 0.000000 -1.000000 0.000000
vn 0.000000 -1.000000 0.000000
vn 0.000000 -1.000000 0.000000
vn -1.000000 0.000000 0.000000
vn -1.000000 0.000000 0.000000
vn -1.000000 0.000000 0.000000
vn 1.000000 0.000000 0.000000
vn 1.000000 0.000000 0.000000
vn 1.000000 0.000000 0.000000
vn 0.000000 1.000000 0.000000
vn 0.000000 1.000000 0.000000
vn 0.000000 1.000000 0.000000
vn 0.000000 1.000000 0.000000
vn 0.000000 1.000000 0.000000
vn 0.000000 1.000000 0.000000
vn 0.000000 1.000000 0.000000
vn -1.000000 0.000000 0.000000
vn -1.000000 0.000000 0.000000
vn -1.000000 0.000000 0.000000
vn -1.000000 0.000000 0.000000
vn 0.000000 -1.000000 0.000000
vn 0.000000 -1.000000 0.000000
vn 0.000000 -1.000000 0.000000
vn 0.000000 -1.000000 0.000000
vn 1.000000 0.000000 0.000000
vn 1.000000 0.000000 0.000000
vn 1.000000 0.000000 0.000000
vn 1.000000 0.000000 0.000000
vn 0.000000 0.870961 0.491351
vn 0.000000 0.870961 0.491351
vn 0.000000 0.870961 0.491351
vn 0.000000 0.870961 0.491351
vn -1.000000 0.000000 0.000000
vn -1.000000 0.000000 0.000000
vn -1.000000 0.000000 0.000000
vn -1.000000 0.000000 0.000000
vn 0.000000 -1.000000 0.000000
vn 0.000000 -1.000000 0.000000
vn 0.000000 -1.000000 0.000000
vn 0.000000 -1.000000 0.000000
vn 1.000000 0.000000 0.000000
vn 1.000000 0.000000 0.000000
vn 1.000000 0.000000 0.000000
vn 1.000000 0.000000 0.000000
vn 0.000000 1.000000 0.000000
vn 0.000000 1.000000 0.000000
vn 0.000000 1.000000 0.000000
vn 0.000000 0.000000 1.000000
vn 0.000000 0.000000 1.000000
vn 0.000000 0.000000 1.000000
vn 0.000000 0.000000 1.000000
vn 0.000000 -0.771381 0.636373
vn 0.000000 -0.771381 0.636373
vn 0.000000 -0.771381 0.636373
vn 0.000000 -0.771381 0.636373
vn 0.000000 0.000000 1.000000
vn 0.000000 0.000000 1.000000
vn 0.000000 0.000000 1.000000
vn 0.000000 0.000000 1.000000
vn 0.000000 1.000000 0.000000
vn 0.000000 1.000000 0.000000
vn 0.000000 1.000000 0.000000
vn 0.000000 1.000000 0.000000
vn 0.000000 0.000000 1.000000
vn 0.000000 0.000000 1.000000
vn 0.000000 0.000000 1.000000
vn 0.000000 0.000000 1.000000
vn 0.000000 -0.771381 0.636373
vn 0.000000 -0.771381 0.636373
vn 0.000000 -0.771381 0.636373
vn 0.000000 -0.771381 0.636373
vn 0.000000 0.000000 1.000000
vn 0.000000 0.000000 1.000000
vn 0.000000 0.000000 1.000000
vn 0.000000 0.000000 1.000000
vn 0.000000 0.682932 0.730482
vn 0.000000 0.682932 0.730482
vn 0.000000 0.682932 0.730482
vn 0.000000 0.682932 0.730482
vn -1.000000 0.000000 0.000000
vn -1.000000 0.000000 0.000000
vn -1.000000 0.000000 0.000000
vn -1.000000 0.000000 0.000000
vn 0.000000 -0.682931 0.730483
vn 0.000000 -0.682931 0.730483
vn 0.000000 -0.682931 0.730483
vn 0.000000 -0.682931 0.730483
vn 0.953404 0.000000 0.301695
vn 0.953404 0.000000 0.301695
vn 0.953404 0.000000 0.301695
vn 0.953404 0.000000 0.301695
vn 1.000000 0.000000 0.000000
vn 1.000000 0.000000 0.000000
vn 1.000000 0.000000 0.000000
vn 1.000000 0.000000 0.000000
vn 0.000000 0.682932 0.730482
vn 0.000000 0.682932 0.730482
vn 0.000000 0.682932 0.730482
vn 0.000000 0.682932 0.730482
vn -0.953398 0.000000 0.301715
vn -0.953398 0.000000 0.301715
vn -0.953398 0.000000 0.301715
vn -0.953398 0.000000 0.301715
vn 0.000000 -0.682931 0.730483
vn 0.000000 -0.682931 0.730483
vn 0.000000 -0.682931 0.730483
vn 0.000000 -0.682931 0.730483
vn 0.000000 -0.007077 0.999975
vn 0.000000 -0.007077 0.999975
vn 0.000000 -0.007077 0.999975
vn 0.000000 -0.007077 0.999975
vn 0.000000 0.476473 0.879189
vn 0.000000 0.476473 0.879189
vn 0.000000 0.476473 0.879189
vn 0.000000 0.476473 0.879189
vn 0.000000 0.959437 0.281922
vn 0.000000 0.959437 0.281922
vn 0.000000 0.959437 0.281922
vn 0.000000 0.959437 0.281922
vn 0.890627 0.086525 0.446427
vn 0.896557 0.001644 0.442925
vn 0.896557 0.001644 0.442925
vn 0.891223 0.080887 0.446294
vn 0.000000 1.000000 -0.000002
vn 0.000000 1.000000 -0.000002
vn 0.000000 1.000000 -0.000002
vn 0.000000 1.000000 -0.000002
vn -0.896557 0.001644 0.442925
vn -0.890627 0.086525 0.446427
vn -0.891223 0.080887 0.446294
vn -0.896557 0.001644 0.442925
vn 0.872141 0.326277 0.364573
vn 0.890627 0.086525 0.446427
vn 0.891223 0.080887 0.446294
vn 0.869261 0.297695 0.394669
vn -0.890627 0.086525 0.446427
vn -0.872141 0.326277 0.364573
vn -0.869261 0.297695 0.394669
vn -0.891223 0.080887 0.446294
vn 0.849193 0.510336 0.135753
vn 0.872141 0.326277 0.364573
vn 0.869261 0.297695 0.394669
vn 0.849193 0.510336 0.135753
vn -0.872141 0.326277 0.364573
vn -0.849193 0.510336 0.135753
vn -0.849193 0.510336 0.135753
vn -0.869261 0.297695 0.394669
vn 0.000000 0.551838 0.833951
vn 0.000000 0.551838 0.833951
vn 0.000000 0.551838 0.833951
vn 0.000000 0.551838 0.833951
vn 0.000000 0.000000 -1.000000
vn 0.000000 0.000000 -1.000000
vn 0.000000 0.000000 -1.000000
vn 0.000000 0.000000 -1.000000
s off
f 1/1/1 30/80/2 31/69/3 2/2/4
f 33/71/5 34/72/6 35/73/7 36/74/8
f 4/4/9 3/3/10 32/70/11 28/65/12 7/7/13 8/8/14
f 24/60/15 21/57/16 22/58/17 23/59/18
f 30/80/19 1/1/20 12/12/21 29/83/22
f 1/13/23 2/14/24 13/15/25
f 2/16/26 3/17/27 14/18/28 13/19/29
f 3/20/30 4/21/31 14/22/32
f 6/23/33 5/24/34 15/25/35
f 7/26/36 6/27/37 15/28/38 16/29/39
f 8/30/40 7/31/41 16/32/42
f 4/33/43 9/34/44 14/35/45
f 10/36/46 8/37/47 16/38/48
f 16/41/49 14/42/50 9/39/51 10/40/52
f 5/43/53 11/44/54 15/45/55
f 12/46/56 1/47/57 13/48/58
f 29/67/59 12/50/60 13/51/61
f 17/53/62 4/4/63 8/8/64 18/54/65
f 8/8/66 10/10/67 19/55/68 18/54/69
f 9/9/70 20/56/71 19/55/72 10/10/73
f 9/9/74 4/4/75 17/53/76 20/56/77
f 21/57/78 17/53/79 18/54/80 22/58/81
f 18/54/82 19/55/83 23/59/84 22/58/85
f 20/56/86 24/60/87 23/59/88 19/55/89
f 20/56/90 17/53/91 21/57/92 24/60/93
f 11/49/94 25/62/95 15/52/96
f 5/5/97 26/84/98 25/86/99 11/11/100
f 27/64/101 26/84/102 5/5/103 6/6/104
f 38/75/105 37/76/106 39/77/107 40/78/108
f 25/62/109 29/67/110 13/51/111 15/52/112
f 26/85/113 30/79/114 29/66/115 25/61/116
f 31/81/117 30/68/118 26/63/119 27/82/120
f 32/70/121 31/69/122 27/64/123 28/65/124
f 2/2/125 31/69/126 34/72/127 33/71/128
f 31/69/129 32/70/130 35/73/131 34/72/132
f 32/70/133 3/3/134 36/74/135 35/73/136
f 3/3/137 2/2/138 33/71/139 36/74/140
f 28/65/141 27/64/142 37/76/143 38/75/144
f 27/64/145 6/6/146 39/77/147 37/76/148
f 6/6/149 7/7/150 40/78/151 39/77/152
f 7/7/153 28/65/154 38/75/155 40/78/156
f 50/87/157 49/88/158 51/89/159 52/90/160
f 53/91/161 50/87/162 52/90/163 54/92/164
f 55/93/165 53/91/166 54/92/167 56/94/168
f 46/95/169 45/96/170 49/88/171 50/87/172
f 45/96/173 41/97/174 51/89/175 49/88/176
f 41/97/177 42/98/178 52/90/179 51/89/180
f 47/99/181 46/95/182 50/87/183 53/91/184
f 42/98/185 43/100/186 54/92/187 52/90/188
f 48/101/189 47/99/190 53/91/191 55/93/192
f 43/100/193 44/102/194 56/94/195 54/92/196
f 44/102/197 48/101/198 55/93/199 56/94/200
f 13/103/201 14/104/202 16/105/203 15/106/204
