# This file uses meters as units for non-parametric coordinates.

v -7.285036 -5.127747 13.417995
v -8.543093 3.190979 12.865283
v -11.527406 3.190979 4.953937
v -9.829836 -5.127747 6.867618
v -0.000001 7.280579 14.778964
v -0.000001 7.280579 1.585750
v -0.000001 -7.881149 6.765948
v -0.000001 -6.596069 16.032793
v -0.000001 -8.952118 10.050883
v -4.320986 -6.028168 14.835193
v -2.962770 6.708069 13.822124
v -5.763674 5.235794 3.269847
v -6.713076 2.960434 13.240657
v -9.939760 -3.005112 7.728572
v -8.431337 -2.943695 11.944179
v -9.047365 1.129776 11.673533
v -10.770998 1.068375 6.791492
v -10.124452 4.496780 8.651210
v -10.126223 2.152481 8.966662
v -9.017458 -4.089218 9.891955
v -8.529482 -6.167236 10.295588
v -10.373354 -3.403885 9.997828
v -9.947817 -2.572128 11.487933
v -10.395084 0.385590 11.291415
v -11.178469 1.128159 9.325976
v -11.043032 -2.616730 8.427012
v -11.646608 0.341003 7.746600
v -5.830629 -5.619370 13.789532
v -2.568422 -6.293671 16.206675
v -2.333620 2.730148 15.583781
v -0.000001 3.857635 16.139818
v -3.815310 3.890167 14.254237
v -0.000001 5.738983 15.022067
v 7.285034 -5.127747 13.417995
v 8.543091 3.190979 12.865283
v 11.527405 3.190979 4.953937
v 9.829834 -5.127747 6.867618
v 4.320984 -6.028168 14.835193
v 2.962769 6.708069 13.822124
v 5.763672 5.235794 3.269847
v 6.713074 2.960434 13.240657
v 9.939758 -3.005112 7.728572
v 8.431335 -2.943695 11.944179
v 9.047363 1.129776 11.673533
v 10.770996 1.068375 6.791492
v 10.124451 4.496780 8.651210
v 10.126220 2.152481 8.966662
v 9.017456 -4.089218 9.891955
v 8.529480 -6.167236 10.295588
v 10.373352 -3.403885 9.997828
v 9.947815 -2.572128 11.487933
v 10.395081 0.385590 11.291415
v 11.178467 1.128159 9.325976
v 11.043030 -2.616730 8.427012
v 11.646608 0.341003 7.746600
v 5.830627 -5.619370 13.789532
v 2.568420 -6.293671 16.206675
v 2.333618 2.730148 15.583781
v 3.815308 3.890167 14.254237
vt 0.150879 0.161316
vt 0.150879 0.161316
vt 0.150879 0.161316
vt 0.150879 0.161316
vt 0.150879 0.161316
vt 0.150879 0.161316
vt 0.150879 0.161316
vt 0.150879 0.161316
vt 0.150879 0.161316
vt 0.150879 0.161316
vt 0.111267 0.303345
vt 0.111267 0.303345
vt 0.113220 0.280472
vt 0.113220 0.280472
vt 0.113220 0.280472
vt 0.113220 0.280472
vt 0.150879 0.161316
vt 0.150879 0.161316
vt 0.150879 0.161316
vt 0.150879 0.161316
vt 0.150879 0.161316
vt 0.150879 0.161316
vt 0.150879 0.161316
vt 0.150879 0.161316
vt 0.150879 0.161316
vt 0.150879 0.161316
vt 0.150879 0.161316
vt 0.150879 0.161316
vt 0.150879 0.161316
vt 0.113220 0.280472
vt 0.113220 0.280472
vt 0.150879 0.161316
vt 0.150879 0.161316
vt 0.150879 0.161316
vt 0.150879 0.161316
vt 0.150879 0.161316
vt 0.150879 0.161316
vt 0.150879 0.161316
vt 0.150879 0.161316
vt 0.150879 0.161316
vt 0.113220 0.280472
vt 0.113220 0.280472
vt 0.113220 0.280472
vt 0.113220 0.280472
vt 0.150879 0.161316
vt 0.150879 0.161316
vt 0.150879 0.161316
vt 0.150879 0.161316
vt 0.150879 0.161316
vt 0.150879 0.161316
vt 0.150879 0.161316
vt 0.150879 0.161316
vt 0.150879 0.161316
vt 0.150879 0.161316
vt 0.150879 0.161316
vt 0.150879 0.161316
vt 0.150879 0.161316
vt 0.150879 0.161316
vt 0.113220 0.280472
vt 0.113220 0.280472
vt 0.111267 0.303345
vt 0.111267 0.303345
vt 0.113220 0.280472
vt 0.113220 0.280472
vt 0.113220 0.280472
vt 0.113220 0.280472
vt 0.113220 0.280472
vt 0.113220 0.280472
vt 0.113220 0.280472
vt 0.113220 0.280472
vt 0.113220 0.280472
vt 0.113220 0.280472
vt 0.113220 0.280472
vt 0.113220 0.280472
vt 0.111267 0.303345
vt 0.111267 0.303345
vt 0.111267 0.303345
vt 0.111267 0.303345
vt 0.111267 0.303345
vt 0.111267 0.303345
vt 0.111267 0.303345
vt 0.111267 0.303345
vt 0.111267 0.303345
vt 0.111267 0.303345
vt 0.111267 0.303345
vt 0.111267 0.303345
vn -0.427342 0.046443 0.902896
vn -0.427342 0.046443 0.902897
vn -0.427342 0.046443 0.902896
vn -0.427342 0.046443 0.902896
vn -0.374991 0.909591 -0.178960
vn -0.374991 0.909591 -0.178960
vn -0.374991 0.909591 -0.178960
vn -0.137249 -0.276366 -0.951202
vn -0.137249 -0.276366 -0.951202
vn -0.137249 -0.276366 -0.951202
vn -0.208556 -0.926533 0.313116
vn -0.208556 -0.926533 0.313116
vn -0.208556 -0.926533 0.313116
vn -0.208556 -0.926533 0.313116
vn -0.936329 -0.118236 0.330618
vn -0.936329 -0.118236 0.330618
vn -0.936329 -0.118236 0.330618
vn -0.936329 -0.118236 0.330618
vn -0.260231 -0.917992 -0.299284
vn -0.260231 -0.917992 -0.299284
vn -0.260231 -0.917992 -0.299284
vn -0.309314 0.204338 0.928747
vn -0.309314 0.204338 0.928747
vn -0.309314 0.204338 0.928747
vn -0.309314 0.204338 0.928747
vn -0.289121 0.956960 -0.025230
vn -0.289121 0.956960 -0.025230
vn -0.289121 0.956960 -0.025230
vn -0.289121 0.956960 -0.025230
vn -0.133581 -0.309619 -0.941431
vn -0.133581 -0.309619 -0.941431
vn -0.133581 -0.309619 -0.941431
vn -0.213957 0.036533 0.976160
vn -0.213957 0.036533 0.976160
vn -0.213957 0.036533 0.976160
vn -0.213957 0.036533 0.976160
vn -0.903187 -0.173336 0.392694
vn -0.903187 -0.173336 0.392694
vn -0.903187 -0.173336 0.392694
vn -0.903187 -0.173336 0.392694
vn -0.848379 -0.093683 0.521034
vn -0.848379 -0.093683 0.521034
vn -0.848379 -0.093683 0.521033
vn -0.848379 -0.093683 0.521034
vn -0.929078 0.033455 0.368367
vn -0.929078 0.033455 0.368367
vn -0.929078 0.033455 0.368367
vn -0.929078 0.033455 0.368367
vn -0.962439 -0.143355 0.230564
vn -0.962439 -0.143355 0.230564
vn -0.962439 -0.143355 0.230564
vn -0.962439 -0.143355 0.230564
vn -0.944155 -0.000680 0.329500
vn -0.944155 -0.000680 0.329500
vn -0.944155 -0.000680 0.329500
vn -0.944155 -0.000680 0.329500
vn -0.934307 -0.114790 0.337480
vn -0.934307 -0.114790 0.337480
vn -0.934307 -0.114790 0.337480
vn -0.934307 -0.114790 0.337480
vn -0.936357 -0.166890 0.308842
vn -0.936357 -0.166890 0.308842
vn -0.936357 -0.166890 0.308842
vn -0.936357 -0.166890 0.308842
vn -0.348937 -0.772356 0.530763
vn -0.348937 -0.772356 0.530763
vn -0.348937 -0.772356 0.530763
vn -0.348937 -0.772356 0.530763
vn -0.283359 0.020852 0.958787
vn -0.283359 0.020852 0.958787
vn -0.283359 0.020852 0.958787
vn -0.283359 0.020852 0.958787
vn -0.524698 0.705895 0.475820
vn -0.524698 0.705895 0.475820
vn -0.524698 0.705895 0.475820
vn -0.524698 0.705895 0.475820
vn -0.452889 -0.859343 -0.237532
vn -0.452889 -0.859343 -0.237532
vn -0.452890 -0.859343 -0.237532
vn -0.452890 -0.859343 -0.237532
vn -0.714145 0.687628 -0.131013
vn -0.714145 0.687628 -0.131013
vn -0.714145 0.687628 -0.131013
vn -0.714145 0.687628 -0.131013
vn -0.582932 -0.293267 -0.757750
vn -0.582932 -0.293267 -0.757750
vn -0.582932 -0.293267 -0.757750
vn -0.582932 -0.293267 -0.757750
vn -0.384510 -0.900507 0.203074
vn -0.384510 -0.900507 0.203074
vn -0.384510 -0.900507 0.203074
vn -0.310368 -0.935994 -0.166091
vn -0.310368 -0.935994 -0.166091
vn -0.310368 -0.935994 -0.166091
vn -0.710950 0.697274 0.091427
vn -0.710950 0.697274 0.091427
vn -0.710950 0.697274 0.091427
vn 0.113589 0.964492 0.238439
vn 0.113589 0.964492 0.238439
vn 0.113589 0.964492 0.238439
vn 0.113589 0.964492 0.238439
vn -0.385500 -0.818431 0.426100
vn -0.385500 -0.818431 0.426100
vn -0.385500 -0.818431 0.426100
vn -0.082274 0.027378 0.996234
vn -0.082274 0.027378 0.996234
vn -0.082274 0.027378 0.996234
vn -0.082274 0.027378 0.996234
vn -0.391806 0.453341 0.800606
vn -0.391806 0.453341 0.800606
vn -0.391806 0.453341 0.800606
vn -0.391806 0.453342 0.800606
vn -0.619860 0.073883 0.781226
vn -0.619861 0.073883 0.781226
vn -0.619860 0.073883 0.781226
vn -0.619861 0.073883 0.781226
vn -0.390929 0.253941 0.884697
vn -0.390929 0.253941 0.884697
vn -0.390929 0.253941 0.884697
vn -0.280715 -0.891102 0.356563
vn -0.280715 -0.891102 0.356563
vn -0.280715 -0.891102 0.356563
vn 0.427342 0.046443 0.902896
vn 0.427342 0.046443 0.902897
vn 0.427342 0.046443 0.902896
vn 0.427342 0.046443 0.902896
vn 0.374991 0.909591 -0.178958
vn 0.374991 0.909591 -0.178958
vn 0.374991 0.909591 -0.178958
vn 0.137249 -0.276366 -0.951202
vn 0.137249 -0.276366 -0.951202
vn 0.137249 -0.276366 -0.951202
vn 0.936329 -0.118236 0.330618
vn 0.936329 -0.118236 0.330618
vn 0.936329 -0.118236 0.330618
vn 0.936329 -0.118236 0.330618
vn 0.260231 -0.917993 -0.299281
vn 0.260231 -0.917993 -0.299281
vn 0.260231 -0.917993 -0.299281
vn 0.309313 0.204337 0.928747
vn 0.309313 0.204337 0.928747
vn 0.309313 0.204337 0.928747
vn 0.309313 0.204337 0.928747
vn 0.289121 0.956960 -0.025230
vn 0.289121 0.956960 -0.025230
vn 0.289121 0.956960 -0.025230
vn 0.289121 0.956960 -0.025230
vn 0.133581 -0.309619 -0.941431
vn 0.133581 -0.309619 -0.941431
vn 0.133581 -0.309619 -0.941431
vn 0.213957 0.036533 0.976160
vn 0.213957 0.036533 0.976160
vn 0.213957 0.036533 0.976160
vn 0.213957 0.036533 0.976160
vn 0.903187 -0.173336 0.392694
vn 0.903187 -0.173336 0.392694
vn 0.903187 -0.173336 0.392694
vn 0.903187 -0.173336 0.392694
vn 0.848380 -0.093683 0.521033
vn 0.848380 -0.093683 0.521033
vn 0.848380 -0.093683 0.521033
vn 0.848380 -0.093683 0.521033
vn 0.929079 0.033455 0.368366
vn 0.929079 0.033455 0.368366
vn 0.929079 0.033455 0.368366
vn 0.929079 0.033455 0.368366
vn 0.962439 -0.143355 0.230564
vn 0.962439 -0.143355 0.230564
vn 0.962439 -0.143355 0.230564
vn 0.962439 -0.143355 0.230564
vn 0.944155 -0.000680 0.329501
vn 0.944155 -0.000680 0.329501
vn 0.944155 -0.000680 0.329501
vn 0.944155 -0.000680 0.329501
vn 0.934308 -0.114790 0.337480
vn 0.934308 -0.114790 0.337480
vn 0.934308 -0.114790 0.337480
vn 0.934308 -0.114790 0.337480
vn 0.936357 -0.166890 0.308843
vn 0.936357 -0.166890 0.308843
vn 0.936357 -0.166890 0.308843
vn 0.936357 -0.166890 0.308843
vn 0.348937 -0.772356 0.530763
vn 0.348937 -0.772356 0.530763
vn 0.348937 -0.772356 0.530763
vn 0.348937 -0.772356 0.530763
vn 0.283359 0.020852 0.958787
vn 0.283359 0.020852 0.958787
vn 0.283359 0.020852 0.958787
vn 0.283359 0.020852 0.958787
vn 0.524697 0.705894 0.475823
vn 0.524697 0.705894 0.475823
vn 0.524697 0.705894 0.475823
vn 0.524697 0.705894 0.475823
vn 0.452889 -0.859342 -0.237537
vn 0.452889 -0.859342 -0.237537
vn 0.452889 -0.859342 -0.237537
vn 0.452889 -0.859342 -0.237537
vn 0.714145 0.687628 -0.131013
vn 0.714145 0.687628 -0.131013
vn 0.714145 0.687628 -0.131013
vn 0.714145 0.687628 -0.131013
vn 0.582932 -0.293267 -0.757750
vn 0.582932 -0.293267 -0.757750
vn 0.582932 -0.293267 -0.757750
vn 0.582932 -0.293267 -0.757750
vn 0.384510 -0.900507 0.203074
vn 0.384510 -0.900507 0.203074
vn 0.384510 -0.900507 0.203074
vn 0.310368 -0.935994 -0.166091
vn 0.310368 -0.935994 -0.166091
vn 0.310368 -0.935994 -0.166091
vn 0.710950 0.697274 0.091427
vn 0.710950 0.697274 0.091427
vn 0.710950 0.697274 0.091427
vn -0.113589 0.964492 0.238438
vn -0.113589 0.964492 0.238438
vn -0.113589 0.964492 0.238438
vn -0.113589 0.964492 0.238438
vn 0.385500 -0.818430 0.426100
vn 0.385500 -0.818430 0.426100
vn 0.385500 -0.818430 0.426100
vn 0.082273 0.027378 0.996234
vn 0.082273 0.027378 0.996234
vn 0.082273 0.027378 0.996234
vn 0.082273 0.027378 0.996234
vn 0.208556 -0.926533 0.313114
vn 0.208556 -0.926533 0.313114
vn 0.208556 -0.926533 0.313114
vn 0.208556 -0.926533 0.313114
vn 0.391808 0.453344 0.800604
vn 0.391808 0.453344 0.800604
vn 0.391808 0.453344 0.800604
vn 0.391808 0.453344 0.800604
vn 0.619861 0.073883 0.781226
vn 0.619861 0.073883 0.781226
vn 0.619861 0.073883 0.781226
vn 0.619861 0.073883 0.781226
vn 0.390926 0.253940 0.884698
vn 0.390926 0.253940 0.884698
vn 0.390926 0.253940 0.884698
vn 0.280715 -0.891102 0.356563
vn 0.280715 -0.891102 0.356563
vn 0.280715 -0.891102 0.356563
vn -0.137249 -0.276366 -0.951202
vn -0.137249 -0.276366 -0.951202
vn -0.137249 -0.276366 -0.951202
vn 0.137249 -0.276366 -0.951202
vn 0.137249 -0.276366 -0.951202
vn 0.137249 -0.276366 -0.951202
s off
f 32/1/1 13/2/2 28/3/3 10/4/4
f 18/5/5 12/6/6 3/7/7
f 3/7/8 12/6/9 4/9/10
f 10/11/11 9/12/12 8/61/13 29/62/14
f 22/13/15 23/14/16 24/15/17 25/16/18
f 4/9/19 7/8/20 9/10/21
f 11/17/22 32/1/23 33/18/24 5/19/25
f 12/6/26 11/17/27 5/19/28 6/20/29
f 7/8/30 12/6/31 6/20/32
f 1/21/33 28/3/34 13/2/35 2/22/36
f 21/23/37 1/21/38 15/24/39 20/25/40
f 1/21/41 2/22/42 16/26/43 15/24/44
f 2/22/45 18/5/46 19/27/47 16/26/48
f 3/7/49 4/9/50 14/28/51 17/29/52
f 18/5/53 3/7/54 17/29/55 19/27/56
f 26/30/57 22/13/58 25/16/59 27/31/60
f 4/9/61 21/23/62 20/25/63 14/28/64
f 20/41/65 15/42/66 23/14/67 22/13/68
f 15/42/69 16/43/70 24/15/71 23/14/72
f 16/43/73 19/44/74 25/16/75 24/15/76
f 14/59/77 20/41/78 22/13/79 26/30/80
f 19/44/81 17/60/82 27/31/83 25/16/84
f 17/60/85 14/59/86 26/30/87 27/31/88
f 28/3/89 9/10/90 10/4/91
f 4/9/92 9/10/93 21/23/94
f 12/6/95 13/2/96 11/17/97
f 2/22/98 13/2/99 12/6/100 18/5/101
f 21/23/102 28/3/103 1/21/104
f 8/61/105 31/75/106 30/76/107 29/62/108
f 32/77/109 30/76/110 31/75/111 33/78/112
f 30/76/113 32/77/114 10/11/115 29/62/116
f 11/17/117 13/2/118 32/1/119
f 9/10/120 28/3/121 21/23/122
f 59/32/123 38/33/124 56/34/125 41/35/126
f 46/36/127 36/37/128 40/38/129
f 40/38/130 37/39/131 7/40/132
f 50/63/133 53/64/134 52/65/135 51/66/136
f 37/39/137 9/45/138 7/40/139
f 39/46/140 5/47/141 33/48/142 59/32/143
f 40/38/144 6/49/145 5/47/146 39/46/147
f 7/40/148 6/49/149 40/38/150
f 34/50/151 35/51/152 41/35/153 56/34/154
f 49/52/155 48/53/156 43/54/157 34/50/158
f 34/50/159 43/54/160 44/55/161 35/51/162
f 35/51/163 44/55/164 47/56/165 46/36/166
f 36/37/167 45/57/168 42/58/169 37/39/170
f 46/36/171 47/56/172 45/57/173 36/37/174
f 54/67/175 55/68/176 53/64/177 50/63/178
f 37/39/179 42/58/180 48/53/181 49/52/182
f 48/69/183 50/63/184 51/66/185 43/70/186
f 43/70/187 51/66/188 52/65/189 44/71/190
f 44/71/191 52/65/192 53/64/193 47/72/194
f 42/73/195 54/67/196 50/63/197 48/69/198
f 47/72/199 53/64/200 55/68/201 45/74/202
f 45/74/203 55/68/204 54/67/205 42/73/206
f 56/34/207 38/33/208 9/45/209
f 37/39/210 49/52/211 9/45/212
f 40/38/213 39/46/214 41/35/215
f 35/51/216 46/36/217 40/38/218 41/35/219
f 49/52/220 34/50/221 56/34/222
f 58/79/223 31/80/224 8/81/225 57/82/226
f 38/83/227 57/82/228 8/81/229 9/84/230
f 59/85/231 33/86/232 31/80/233 58/79/234
f 58/79/235 57/82/236 38/83/237 59/85/238
f 39/46/239 59/32/240 41/35/241
f 9/45/242 49/52/243 56/34/244
f 4/9/245 12/6/246 7/8/247
f 36/37/248 37/39/249 40/38/250
