# This file uses meters as units for non-parametric coordinates.

v 1.641080 21.852936 10.338875
v -1.641079 21.852936 10.338875
v -3.282159 19.308701 11.606263
v -1.641080 16.764481 12.873638
v 1.641079 16.764481 12.873638
v 3.282159 19.308701 11.606263
v 0.871240 22.213287 14.052777
v -0.871240 22.213287 14.052777
v -1.742480 20.862579 14.725616
v -0.871240 19.511856 15.398465
v 0.871240 19.511856 15.398465
v 1.742480 20.862579 14.725616
v -0.871240 20.862579 14.725616
v -0.435620 20.187210 15.062046
v 0.435620 20.187210 15.062046
v 0.871240 20.862579 14.725616
v 0.435620 21.537933 14.389195
v -0.435620 21.537933 14.389195
v 12.894926 13.471878 15.367238
v 0.000000 14.618851 23.392149
v 13.032646 14.792358 15.450570
v 0.000000 15.680450 23.256517
v 0.000000 8.835449 -13.949321
v 12.271042 10.051025 -10.913194
v 14.149008 11.968033 -3.089769
v 9.758768 16.816010 13.914935
v 0.000000 18.036484 15.735652
v 0.000000 17.581482 -14.650643
v 10.926123 19.038879 -11.653150
v 13.227425 21.149643 -6.173866
v 7.495589 25.142075 10.746730
v 0.000000 25.472763 13.151433
v 0.000000 21.673996 13.501727
v 8.418283 20.348450 11.770532
v 13.148069 16.851456 -4.743488
v 11.300077 14.772095 -11.515315
v 0.000000 13.269638 -14.541095
v 12.540455 23.907883 3.219223
v 12.797213 19.571609 5.571088
v 12.916632 14.046066 6.535174
v 7.612128 15.457596 21.470800
v 7.593784 14.399094 21.615282
v 0.000000 19.983566 -13.116229
v 8.970032 21.392776 -10.368045
v 6.179867 25.589584 8.175342
v 0.000000 25.856857 10.141723
v 11.180773 22.905579 -6.063984
v 10.583172 24.867889 2.408671
v 0.000000 24.896164 -3.978820
v 12.417355 12.821243 5.974071
v 0.000000 15.740921 3.810822
v -12.894926 13.471878 15.367238
v -13.032646 14.792358 15.450570
v -12.271042 10.051025 -10.913194
v -14.149008 11.968033 -3.089769
v -9.758768 16.816010 13.914935
v -10.926123 19.038879 -11.653150
v -13.227425 21.149643 -6.173866
v -7.495589 25.142075 10.746730
v -8.418283 20.348450 11.770532
v -13.148069 16.851456 -4.743488
v -11.300077 14.772095 -11.515315
v -12.540455 23.907883 3.219223
v -12.797213 19.571609 5.571088
v -12.916632 14.046066 6.535174
v -7.612128 15.457596 21.470800
v -7.593784 14.399094 21.615282
v -8.970032 21.392776 -10.368045
v -6.179867 25.589584 8.175342
v -11.180773 22.905579 -6.063984
v -10.583172 24.867889 2.408671
v -12.417355 12.821243 5.974071
vt 0.202709 0.010576
vt 0.202709 0.010576
vt 0.202709 0.010576
vt 0.202709 0.010576
vt 0.202709 0.010576
vt 0.202709 0.010576
vt 0.202709 0.010576
vt 0.202709 0.010576
vt 0.202709 0.010576
vt 0.202709 0.010576
vt 0.202709 0.010576
vt 0.202709 0.010576
vt 0.105173 0.010576
vt 0.105173 0.010576
vt 0.105173 0.010576
vt 0.202709 0.010576
vt 0.202709 0.010576
vt 0.202709 0.010576
vt 0.202709 0.010576
vt 0.202709 0.010576
vt 0.202709 0.010576
vt 0.105173 0.010576
vt 0.105173 0.010576
vt 0.105173 0.010576
vt 0.109214 0.010049
vt 0.109214 0.010049
vt 0.109214 0.010049
vt 0.109214 0.010049
vt 0.109214 0.010049
vt 0.109214 0.010049
vt 0.109214 0.010049
vt 0.109214 0.010049
vt 0.239353 0.185069
vt 0.239353 0.185069
vt 0.239353 0.185069
vt 0.239353 0.185069
vt 0.239353 0.185069
vt 0.239353 0.185069
vt 0.239353 0.185069
vt 0.239353 0.185069
vt 0.239353 0.185069
vt 0.239353 0.185069
vt 0.239353 0.185069
vt 0.239353 0.211018
vt 0.239353 0.211018
vt 0.239353 0.211018
vt 0.239353 0.211018
vt 0.239353 0.211018
vt 0.239353 0.211018
vt 0.239353 0.211018
vt 0.239353 0.211018
vt 0.239353 0.211018
vt 0.239353 0.211018
vt 0.239353 0.185069
vt 0.109214 0.010049
vt 0.109214 0.010049
vt 0.239353 0.211018
vt 0.239353 0.211018
vt 0.239353 0.211018
vt 0.239353 0.211018
vt 0.239353 0.211018
vt 0.239353 0.211018
vt 0.239353 0.211018
vt 0.239353 0.211018
vt 0.239353 0.211018
vt 0.239353 0.211018
vt 0.239353 0.211018
vt 0.239353 0.211018
vt 0.239353 0.185069
vt 0.239353 0.185069
vt 0.239353 0.185069
vt 0.109214 0.010049
vt 0.239353 0.185069
vt 0.239353 0.185069
vt 0.239353 0.185069
vt 0.239353 0.185069
vt 0.239353 0.185069
vt 0.109214 0.010049
vt 0.109214 0.010049
vt 0.109214 0.010049
vt 0.109214 0.010049
vt 0.109214 0.010049
vt 0.239353 0.185069
vt 0.239353 0.185069
vt 0.239353 0.185069
vt 0.239353 0.185069
vt 0.239353 0.185069
vt 0.239353 0.185069
vt 0.239353 0.185069
vt 0.239353 0.211018
vt 0.239353 0.211018
vt 0.239353 0.211018
vt 0.239353 0.211018
vt 0.239353 0.211018
vt 0.239353 0.211018
vt 0.239353 0.211018
vt 0.239353 0.211018
vt 0.239353 0.211018
vt 0.239353 0.211018
vt 0.239353 0.185069
vt 0.109214 0.010049
vt 0.109214 0.010049
vt 0.239353 0.211018
vt 0.239353 0.211018
vt 0.239353 0.211018
vt 0.239353 0.211018
vt 0.239353 0.211018
vt 0.239353 0.211018
vt 0.239353 0.211018
vt 0.239353 0.211018
vt 0.239353 0.211018
vt 0.239353 0.211018
vt 0.239353 0.211018
vt 0.239353 0.211018
vt 0.239353 0.185069
vt 0.239353 0.185069
vt 0.239353 0.185069
vt 0.239353 0.185069
vt 0.239353 0.185069
vt 0.239353 0.185069
vt 0.239353 0.185069
vt 0.239353 0.185069
vt 0.239353 0.211018
vn 0.000000 0.995326 -0.096576
vn 0.000000 0.995326 -0.096576
vn 0.000000 0.995326 -0.096576
vn 0.000000 0.995326 -0.096576
vn -0.808840 0.577333 0.111643
vn -0.808840 0.577333 0.111643
vn -0.808840 0.577333 0.111643
vn -0.808840 0.577333 0.111643
vn -0.808841 -0.258660 0.528082
vn -0.808841 -0.258660 0.528082
vn -0.808841 -0.258660 0.528082
vn -0.808841 -0.258660 0.528082
vn 0.000000 -0.676659 0.736297
vn 0.000000 -0.676659 0.736297
vn 0.000000 -0.676659 0.736297
vn 0.000000 -0.676659 0.736297
vn 0.808839 -0.258660 0.528085
vn 0.808839 -0.258660 0.528086
vn 0.808839 -0.258660 0.528086
vn 0.808839 -0.258660 0.528086
vn 0.808840 0.577333 0.111643
vn 0.808841 0.577333 0.111643
vn 0.808841 0.577333 0.111643
vn 0.808841 0.577333 0.111643
vn -0.000006 0.445877 0.895094
vn -0.000006 0.445877 0.895094
vn -0.000006 0.445877 0.895094
vn -0.000001 0.445880 0.895093
vn -0.000001 0.445871 0.895097
vn -0.000001 0.445871 0.895097
vn -0.000001 0.445880 0.895093
vn -0.000001 0.445871 0.895097
vn 0.000001 0.445874 0.895096
vn 0.000001 0.445874 0.895096
vn -0.000001 0.445871 0.895097
vn 0.000001 0.445874 0.895096
vn 0.000001 0.445880 0.895093
vn 0.000001 0.445880 0.895093
vn 0.000001 0.445874 0.895096
vn 0.000001 0.445880 0.895093
vn 0.000000 0.445878 0.895094
vn 0.000000 0.445878 0.895094
vn 0.000001 0.445880 0.895093
vn 0.000000 0.445878 0.895094
vn 0.000000 0.445881 0.895092
vn 0.000000 0.445881 0.895092
vn 0.000000 0.445878 0.895094
vn 0.000000 0.445881 0.895092
vn -0.000001 0.445880 0.895093
vn -0.000001 0.445880 0.895093
vn 0.000000 0.445881 0.895092
vn 0.000000 0.445881 0.895092
vn 0.000000 0.445881 0.895092
vn 0.000000 0.445881 0.895092
vn 0.000000 0.445881 0.895092
vn 0.000006 0.445877 0.895094
vn 0.000006 0.445877 0.895094
vn 0.000006 0.445877 0.895094
vn 0.236339 0.125324 0.963555
vn 0.236339 0.125324 0.963555
vn 0.236339 0.125324 0.963555
vn 0.236339 0.125324 0.963555
vn 0.578123 0.811464 -0.085440
vn 0.578123 0.811464 -0.085440
vn 0.578123 0.811464 -0.085440
vn 0.102490 0.946524 0.305920
vn 0.102490 0.946525 0.305920
vn 0.102490 0.946525 0.305920
vn 0.218978 -0.104771 -0.970088
vn 0.218978 -0.104771 -0.970088
vn 0.218978 -0.104771 -0.970088
vn 0.218978 -0.104771 -0.970088
vn 0.941125 0.118757 -0.316514
vn 0.941125 0.118757 -0.316514
vn 0.941125 0.118757 -0.316514
vn 0.941125 0.118757 -0.316514
vn 0.753826 0.492357 0.435121
vn 0.753826 0.492357 0.435121
vn 0.753826 0.492357 0.435121
vn 0.322538 0.510923 0.796823
vn 0.322538 0.510923 0.796823
vn 0.322538 0.510923 0.796823
vn 0.131747 0.504081 0.853549
vn 0.798973 0.400332 0.448751
vn 0.798973 0.400332 0.448751
vn 0.798973 0.400332 0.448751
vn 0.798973 0.400332 0.448751
vn 0.906671 0.160820 -0.389981
vn 0.906671 0.160820 -0.389981
vn 0.906671 0.160820 -0.389981
vn 0.906671 0.160820 -0.389981
vn 0.238429 -0.009960 -0.971109
vn 0.238429 -0.009960 -0.971109
vn 0.238429 -0.009960 -0.971109
vn 0.238429 -0.009960 -0.971109
vn 0.970572 0.238535 -0.033033
vn 0.970572 0.238535 -0.033033
vn 0.970572 0.238535 -0.033033
vn 0.970572 0.238535 -0.033033
vn 0.989061 0.143079 0.035879
vn 0.989061 0.143079 0.035879
vn 0.989061 0.143079 0.035879
vn 0.989061 0.143079 0.035879
vn 0.253457 0.939613 0.229973
vn 0.253457 0.939613 0.229973
vn 0.253457 0.939613 0.229973
vn 0.253457 0.939613 0.229973
vn 0.768749 -0.004075 0.639538
vn 0.768748 -0.004075 0.639538
vn 0.768748 -0.004075 0.639538
vn 0.768748 -0.004075 0.639538
vn 0.981400 -0.191908 0.005123
vn 0.981400 -0.191908 0.005123
vn 0.981400 -0.191908 0.005123
vn 0.981400 -0.191908 0.005123
vn 0.178648 0.475238 -0.861530
vn 0.178648 0.475238 -0.861530
vn 0.178648 0.475238 -0.861530
vn 0.178648 0.475238 -0.861530
vn 0.242939 0.965265 0.096151
vn 0.242939 0.965265 0.096151
vn 0.242939 0.965265 0.096151
vn 0.242939 0.965265 0.096151
vn 0.586781 0.625328 -0.514445
vn 0.586781 0.625328 -0.514445
vn 0.586781 0.625328 -0.514445
vn 0.586781 0.625328 -0.514445
vn 0.679572 0.690109 -0.248860
vn 0.679572 0.690109 -0.248860
vn 0.679572 0.690109 -0.248860
vn 0.679572 0.690109 -0.248860
vn 0.538933 0.842349 0.000580
vn 0.538933 0.842349 0.000580
vn 0.538933 0.842349 0.000580
vn 0.538933 0.842349 0.000580
vn -0.030039 0.922650 -0.384466
vn -0.030039 0.922650 -0.384466
vn -0.030039 0.922650 -0.384466
vn -0.010776 0.900234 -0.435272
vn -0.010776 0.900234 -0.435272
vn -0.010776 0.900234 -0.435272
vn 0.010462 0.939013 -0.343722
vn 0.010462 0.939013 -0.343722
vn 0.010462 0.939013 -0.343722
vn -0.013466 0.909445 -0.415607
vn -0.013466 0.909445 -0.415607
vn -0.013466 0.909445 -0.415607
vn -0.001067 0.897870 -0.440259
vn -0.001067 0.897870 -0.440259
vn -0.001067 0.897870 -0.440259
vn 0.917818 -0.347171 0.192569
vn 0.917818 -0.347171 0.192569
vn 0.917818 -0.347170 0.192569
vn -0.161049 -0.986869 0.012339
vn -0.161049 -0.986869 0.012339
vn -0.161049 -0.986869 0.012339
vn -0.002239 -0.930415 0.366502
vn -0.002239 -0.930415 0.366502
vn -0.002239 -0.930415 0.366502
vn -0.128182 -0.954516 0.269199
vn -0.128182 -0.954516 0.269199
vn -0.128182 -0.954516 0.269199
vn -0.039421 -0.998420 -0.040036
vn -0.039421 -0.998420 -0.040036
vn -0.039421 -0.998420 -0.040036
vn -0.229866 -0.971582 0.056480
vn -0.229866 -0.971582 0.056480
vn -0.229866 -0.971582 0.056480
vn -0.235437 -0.966730 0.100018
vn -0.235437 -0.966730 0.100018
vn -0.235437 -0.966730 0.100018
vn -0.236339 0.125323 0.963555
vn -0.236339 0.125323 0.963555
vn -0.236339 0.125324 0.963555
vn -0.236339 0.125323 0.963555
vn -0.578123 0.811464 -0.085438
vn -0.578123 0.811464 -0.085438
vn -0.578123 0.811464 -0.085438
vn -0.102490 0.946524 0.305920
vn -0.102490 0.946525 0.305920
vn -0.102490 0.946525 0.305920
vn -0.218978 -0.104771 -0.970089
vn -0.218978 -0.104771 -0.970089
vn -0.218978 -0.104771 -0.970089
vn -0.218978 -0.104771 -0.970089
vn -0.941125 0.118757 -0.316513
vn -0.941125 0.118757 -0.316513
vn -0.941125 0.118757 -0.316513
vn -0.941125 0.118757 -0.316513
vn -0.753826 0.492357 0.435121
vn -0.753826 0.492357 0.435121
vn -0.753826 0.492357 0.435121
vn -0.115460 0.505113 0.855295
vn -0.115460 0.505113 0.855295
vn -0.321582 0.532388 0.783037
vn -0.321582 0.532388 0.783037
vn -0.798974 0.400332 0.448749
vn -0.798974 0.400332 0.448749
vn -0.798974 0.400332 0.448749
vn -0.798974 0.400332 0.448749
vn -0.906671 0.160820 -0.389981
vn -0.906671 0.160820 -0.389981
vn -0.906671 0.160820 -0.389981
vn -0.906671 0.160820 -0.389981
vn -0.238430 -0.009960 -0.971109
vn -0.238430 -0.009960 -0.971109
vn -0.238430 -0.009960 -0.971109
vn -0.238430 -0.009960 -0.971109
vn -0.970572 0.238535 -0.033033
vn -0.970572 0.238535 -0.033033
vn -0.970572 0.238535 -0.033033
vn -0.970572 0.238535 -0.033033
vn -0.989061 0.143079 0.035879
vn -0.989061 0.143079 0.035879
vn -0.989061 0.143079 0.035879
vn -0.989061 0.143079 0.035879
vn -0.768748 -0.004075 0.639539
vn -0.768748 -0.004075 0.639539
vn -0.768748 -0.004075 0.639539
vn -0.768748 -0.004075 0.639539
vn -0.981400 -0.191908 0.005123
vn -0.981400 -0.191908 0.005123
vn -0.981400 -0.191908 0.005123
vn -0.981400 -0.191908 0.005123
vn -0.178648 0.475238 -0.861530
vn -0.178648 0.475238 -0.861530
vn -0.178648 0.475238 -0.861530
vn -0.178648 0.475238 -0.861530
vn -0.242939 0.965265 0.096150
vn -0.242939 0.965265 0.096150
vn -0.242939 0.965265 0.096150
vn -0.242939 0.965265 0.096150
vn -0.586781 0.625328 -0.514445
vn -0.586781 0.625328 -0.514445
vn -0.586781 0.625328 -0.514445
vn -0.586781 0.625328 -0.514445
vn -0.679572 0.690109 -0.248860
vn -0.679572 0.690109 -0.248860
vn -0.679572 0.690109 -0.248860
vn -0.679572 0.690109 -0.248860
vn -0.538933 0.842349 0.000582
vn -0.538933 0.842349 0.000582
vn -0.538933 0.842349 0.000582
vn -0.538933 0.842349 0.000582
vn 0.030039 0.922650 -0.384466
vn 0.030039 0.922650 -0.384466
vn 0.030039 0.922650 -0.384466
vn 0.010776 0.900234 -0.435272
vn 0.010776 0.900234 -0.435272
vn 0.010776 0.900234 -0.435272
vn -0.010462 0.939014 -0.343721
vn -0.010462 0.939014 -0.343721
vn -0.010462 0.939014 -0.343721
vn 0.013466 0.909445 -0.415606
vn 0.013466 0.909445 -0.415606
vn 0.013466 0.909445 -0.415606
vn 0.001067 0.897870 -0.440260
vn 0.001067 0.897870 -0.440260
vn 0.001067 0.897870 -0.440260
vn -0.917818 -0.347171 0.192570
vn -0.917818 -0.347171 0.192570
vn -0.917818 -0.347171 0.192570
vn 0.161049 -0.986869 0.012339
vn 0.161049 -0.986869 0.012339
vn 0.161049 -0.986869 0.012339
vn 0.002239 -0.930415 0.366502
vn 0.002239 -0.930415 0.366502
vn 0.002239 -0.930415 0.366502
vn 0.128182 -0.954516 0.269201
vn 0.128182 -0.954516 0.269201
vn 0.128182 -0.954516 0.269201
vn 0.039421 -0.998420 -0.040036
vn 0.039421 -0.998420 -0.040036
vn 0.039421 -0.998420 -0.040036
vn 0.229866 -0.971582 0.056479
vn 0.229866 -0.971582 0.056479
vn 0.229866 -0.971582 0.056479
vn 0.235437 -0.966730 0.100018
vn 0.235437 -0.966730 0.100018
vn 0.235437 -0.966730 0.100018
vn -0.909125 0.164169 0.382806
vn -0.909125 0.164169 0.382806
vn -0.909125 0.164169 0.382806
vn 0.909125 0.164169 0.382806
vn 0.909125 0.164169 0.382806
vn 0.909125 0.164169 0.382806
vn 0.379458 0.352767 0.855317
vn 0.469533 0.214791 0.856390
vn 0.469533 0.214791 0.856390
vn 0.290387 0.202000 0.935346
vn -0.385534 0.348301 0.854430
vn -0.288329 0.203104 0.935743
vn -0.468969 0.217221 0.856086
vn -0.378372 0.352980 0.855710
vn -0.269225 0.934569 0.232591
vn -0.177615 0.959951 0.216672
vn -0.275933 0.932336 0.233688
vn -0.275933 0.932336 0.233688
s off
f 1/1/1 2/2/2 8/3/3 7/4/4
f 2/2/5 3/5/6 9/6/7 8/3/8
f 3/5/9 4/7/10 10/8/11 9/6/12
f 4/7/13 5/9/14 11/10/15 10/8/16
f 5/9/17 6/11/18 12/12/19 11/10/20
f 6/11/21 1/1/22 7/4/23 12/12/24
f 14/13/25 18/14/26 13/15/27
f 9/6/28 10/8/29 14/16/30 13/17/31
f 10/8/32 11/10/33 15/18/34 14/16/35
f 11/10/36 12/12/37 16/19/38 15/18/39
f 12/12/40 7/4/41 17/20/42 16/19/43
f 7/4/44 8/3/45 18/21/46 17/20/47
f 8/3/48 9/6/49 13/17/50 18/21/51
f 14/13/52 15/22/53 17/23/54 18/14/55
f 17/23/56 15/22/57 16/24/58
f 41/25/59 22/26/60 20/27/61 42/28/62
f 21/29/63 40/30/64 26/31/65
f 27/32/66 22/26/67 41/25/68
f 37/33/69 36/34/70 24/35/71 23/36/72
f 24/35/73 36/34/74 35/37/75 25/38/76
f 39/39/77 34/40/78 26/41/79
f 27/42/80 26/41/81 34/40/82 33/43/83
f 39/44/84 38/45/85 31/46/86 34/47/87
f 36/48/88 29/49/89 30/50/90 35/51/91
f 37/52/92 28/53/93 29/49/94 36/48/95
f 35/51/96 30/50/97 38/45/98 39/44/99
f 35/37/100 39/39/101 40/54/102 25/38/103
f 21/29/104 26/31/105 27/32/106 41/25/107
f 19/55/108 21/29/109 41/25/110 42/28/111
f 19/55/112 50/56/113 40/30/114 21/29/115
f 28/53/116 43/57/117 44/58/118 29/49/119
f 31/46/120 45/59/121 46/60/122 32/61/123
f 29/49/124 44/58/125 47/62/126 30/50/127
f 30/50/128 47/62/129 48/63/130 38/45/131
f 38/45/132 48/63/133 45/59/134 31/46/135
f 43/57/136 49/64/137 44/58/138
f 45/59/139 49/65/140 46/60/141
f 44/58/142 49/66/143 47/62/144
f 47/62/145 49/67/146 48/63/147
f 48/63/148 49/68/149 45/59/150
f 50/69/151 25/70/152 40/71/153
f 42/28/154 51/72/155 19/55/156
f 24/73/157 51/74/158 23/75/159
f 25/76/160 51/74/161 24/73/162
f 20/27/163 51/72/164 42/28/165
f 50/77/166 51/74/167 25/76/168
f 19/55/169 51/72/170 50/56/171
f 66/78/172 67/79/173 20/27/174 22/26/175
f 53/80/176 56/81/177 65/82/178
f 27/32/179 66/78/180 22/26/181
f 37/33/182 23/36/183 54/83/184 62/84/185
f 54/83/186 55/85/187 61/86/188 62/84/189
f 64/87/190 56/88/191 60/89/192
f 27/42/193 33/43/194 60/89/195 56/88/196
f 64/90/197 60/91/198 59/92/199 63/93/200
f 62/94/201 61/95/202 58/96/203 57/97/204
f 37/98/205 62/94/206 57/97/207 28/99/208
f 61/95/209 64/90/210 63/93/211 58/96/212
f 61/86/213 55/85/214 65/100/215 64/87/216
f 52/101/217 67/79/218 66/78/219 53/80/220
f 52/101/221 53/80/222 65/82/223 72/102/224
f 28/99/225 57/97/226 68/103/227 43/104/228
f 59/92/229 32/105/230 46/106/231 69/107/232
f 57/97/233 58/96/234 70/108/235 68/103/236
f 58/96/237 63/93/238 71/109/239 70/108/240
f 63/93/241 59/92/242 69/107/243 71/109/244
f 43/104/245 68/103/246 49/110/247
f 69/107/248 46/106/249 49/111/250
f 68/103/251 70/108/252 49/112/253
f 70/108/254 71/109/255 49/113/256
f 71/109/257 69/107/258 49/114/259
f 72/115/260 65/116/261 55/117/262
f 67/79/263 52/101/264 51/72/265
f 54/118/266 23/119/267 51/120/268
f 55/121/269 54/118/270 51/120/271
f 20/27/272 67/79/273 51/72/274
f 72/122/275 55/121/276 51/120/277
f 52/101/278 72/102/279 51/72/280
f 64/87/281 65/100/282 56/88/283
f 39/39/284 26/41/285 40/54/286
f 34/47/287 31/46/288 32/61/289 33/123/290
f 60/91/291 33/123/292 32/105/293 59/92/294
f 66/78/295 27/32/296 56/81/297 53/80/298
