# This file uses meters as units for non-parametric coordinates.

v 0.000000 1.765930 -9.303370
v 0.000000 16.405258 12.154881
v 10.847473 3.958664 -8.594859
v 8.865173 14.668808 10.991895
v 10.494324 12.015305 7.004859
v 11.364365 11.784897 -2.838400
v 10.913757 10.593185 1.891060
v 11.426544 9.532700 -4.656823
v 10.870178 2.977524 -2.480675
v 10.724930 6.546555 2.421579
v 10.141754 5.840073 7.971751
v 0.000000 13.504211 -12.734861
v -2.077255 22.793182 -5.378138
v 0.000000 2.666580 -10.805876
v -1.449707 21.424194 6.821180
v 0.000000 17.984039 11.631438
v 11.461655 20.038376 -4.393014
v 11.620178 11.729980 -10.290265
v 10.878403 4.048874 -8.880643
v 11.564331 18.769363 6.348250
v 9.306595 15.902466 10.414257
v 11.415253 11.990585 6.525019
v 11.862823 11.300934 2.271362
v 12.316238 12.653732 -3.128981
v 12.372757 10.185684 -5.346862
v 11.847595 4.013412 -3.493367
v 11.140045 6.866425 6.693772
v 11.678558 7.516876 2.981612
v -10.847473 3.958664 -8.594859
v -8.865173 14.668808 10.991895
v -10.494324 12.015305 7.004859
v -11.364365 11.784897 -2.838400
v -10.913757 10.593185 1.891060
v -11.426544 9.532700 -4.656823
v -10.870178 2.977524 -2.480675
v -10.724930 6.546555 2.421579
v -10.141754 5.840073 7.971751
v -11.461655 19.731491 -4.393014
v -11.620178 11.729980 -10.290265
v -10.878403 4.048874 -8.880643
v -11.564331 18.462479 6.348250
v -9.306595 15.902466 10.414257
v -11.415253 11.990585 6.525019
v -11.862823 11.300934 2.271362
v -12.316238 12.653732 -3.128981
v -12.372757 10.185684 -5.346862
v -11.847595 4.013412 -3.493367
v -11.140045 6.866425 6.693772
v -11.678558 7.516876 2.981612
v -3.746735 16.824692 10.049635
v -3.933289 18.257568 9.503287
v -3.355164 19.974991 6.621303
v -3.311768 21.301682 -4.961790
v -4.991913 12.754349 -11.918154
v -4.726303 4.227249 -11.008978
v -4.584518 3.282959 -9.440113
v 6.189896 16.825775 11.489844
v 0.000000 -0.664429 -7.409579
v 0.000000 -0.143341 -9.286742
v 10.768250 2.517502 -7.058648
v 10.445236 1.689575 -4.351248
v -4.726303 0.886261 -8.918715
v -4.584518 0.376770 -6.962981
v -10.445236 1.689575 -4.351248
v -10.768250 2.517502 -7.058648
v 9.005432 0.863708 -7.783462
v 7.971191 0.187210 -5.991733
v -9.379929 1.438324 -8.021681
v -8.444763 0.785889 -6.484845
v -5.997406 21.760956 -4.677402
v -6.400406 20.618103 6.512082
v -5.041870 18.420898 9.776579
v 2.393082 16.712463 12.387244
v 7.530930 20.678589 6.584714
v 7.479584 21.997589 -4.885576
v 6.017044 13.553726 -12.155135
v 6.064407 14.899170 12.299059
v 5.718613 14.126968 11.584342
v -0.113593 15.426651 1.672441
vt 0.049993 0.199257
vt 0.049993 0.199257
vt 0.049993 0.199257
vt 0.049993 0.199257
vt 0.049993 0.199257
vt 0.049993 0.199257
vt 0.049993 0.199257
vt 0.049993 0.199257
vt 0.049993 0.199257
vt 0.049993 0.199257
vt 0.049993 0.199257
vt 0.049993 0.199257
vt 0.049993 0.199257
vt 0.049993 0.199257
vt 0.049993 0.199257
vt 0.049993 0.199257
vt 0.049993 0.199257
vt 0.049993 0.199257
vt 0.049993 0.199257
vt 0.049993 0.199257
vt 0.049993 0.199257
vt 0.049993 0.199257
vt 0.049993 0.199257
vt 0.049993 0.199257
vt 0.049993 0.199257
vt 0.049993 0.199257
vt 0.049993 0.199257
vt 0.049993 0.199257
vt 0.049993 0.199257
vt 0.049993 0.199257
vt 0.049993 0.199257
vt 0.049993 0.199257
vt 0.049993 0.199257
vt 0.049993 0.199257
vt 0.049993 0.199257
vt 0.049993 0.199257
vt 0.049993 0.199257
vt 0.049993 0.199257
vt 0.049993 0.199257
vt 0.049993 0.199257
vt 0.049993 0.199257
vt 0.049993 0.199257
vt 0.049993 0.199257
vt 0.049993 0.199257
vt 0.049993 0.199257
vt 0.049993 0.199257
vt 0.049993 0.199257
vt 0.049993 0.199257
vt 0.049993 0.199257
vt 0.049993 0.199257
vt 0.049993 0.199257
vt 0.049993 0.199257
vt 0.049993 0.199257
vt 0.049993 0.199257
vt 0.049993 0.199257
vt 0.049993 0.199257
vt 0.049993 0.199257
vt 0.049993 0.199257
vt 0.049993 0.199257
vt 0.049993 0.199257
vt 0.049993 0.199257
vt 0.049993 0.199257
vt 0.049993 0.199257
vt 0.049993 0.199257
vt 0.049993 0.199257
vt 0.049993 0.199257
vt 0.049993 0.199257
vt 0.049993 0.199257
vt 0.049993 0.199257
vt 0.049993 0.199257
vt 0.049993 0.199257
vt 0.049993 0.199257
vt 0.049993 0.199257
vt 0.049993 0.199257
vt 0.049993 0.199257
vt 0.049993 0.199257
vt 0.049993 0.199257
vt 0.049993 0.199257
vt 0.049993 0.199257
vt 0.049993 0.199257
vt 0.049993 0.199257
vt 0.049993 0.199257
vt 0.049993 0.199257
vt 0.049993 0.199257
vt 0.049993 0.199257
vt 0.049993 0.199257
vt 0.049993 0.199257
vt 0.049993 0.199257
vt 0.049993 0.199257
vt 0.049993 0.199257
vt 0.049993 0.199257
vt 0.049993 0.199257
vt 0.049993 0.199257
vt 0.049993 0.199257
vt 0.049993 0.199257
vt 0.049993 0.199257
vt 0.049993 0.199257
vt 0.049993 0.199257
vn 0.083291 0.635803 -0.767344
vn 0.083291 0.635803 -0.767344
vn 0.083291 0.635803 -0.767344
vn 0.083291 0.635803 -0.767344
vn 0.095855 -0.174428 -0.979993
vn 0.095855 -0.174428 -0.979993
vn 0.095855 -0.174428 -0.979993
vn 0.080838 0.990619 0.110180
vn 0.080838 0.990619 0.110180
vn 0.080838 0.990619 0.110180
vn 0.080838 0.990619 0.110180
vn 0.113956 0.795692 0.594886
vn 0.113956 0.795692 0.594886
vn 0.113956 0.795692 0.594886
vn 0.113956 0.795692 0.594886
vn 0.876243 -0.006706 0.481823
vn 0.876243 -0.006706 0.481823
vn 0.876243 -0.006706 0.481823
vn 0.994003 -0.019052 0.107681
vn 0.994003 -0.019052 0.107681
vn 0.994003 -0.019052 0.107681
vn 0.996916 0.071104 0.033210
vn 0.996916 0.071104 0.033210
vn 0.996916 0.071104 0.033210
vn 0.996916 0.071104 0.033210
vn 0.992066 0.099215 -0.077212
vn 0.992066 0.099215 -0.077212
vn 0.992066 0.099215 -0.077212
vn 0.992066 0.099215 -0.077212
vn 0.986415 -0.110501 -0.121549
vn 0.986415 -0.110501 -0.121549
vn 0.986415 -0.110501 -0.121549
vn 0.986415 -0.110501 -0.121549
vn 0.991646 -0.039015 0.122949
vn 0.991646 -0.039015 0.122949
vn 0.991646 -0.039015 0.122949
vn 0.991646 -0.039015 0.122949
vn 0.150334 -0.951554 -0.268224
vn 0.150334 -0.951554 -0.268224
vn 0.150334 -0.951554 -0.268224
vn 0.150334 -0.951554 -0.268224
vn -0.131417 0.311979 0.940956
vn -0.131417 0.311979 0.940956
vn -0.131417 0.311979 0.940956
vn 0.737593 -0.303624 0.603133
vn 0.737593 -0.303624 0.603133
vn 0.737593 -0.303624 0.603133
vn 0.737593 -0.303624 0.603133
vn 0.636365 -0.759656 -0.134024
vn 0.636365 -0.759656 -0.134024
vn 0.636365 -0.759656 -0.134024
vn 0.636365 -0.759656 -0.134024
vn 0.672569 -0.471106 0.570710
vn 0.672569 -0.471106 0.570710
vn 0.672569 -0.471106 0.570710
vn 0.672569 -0.471106 0.570710
vn 0.850103 -0.525525 0.033879
vn 0.850103 -0.525525 0.033879
vn 0.850103 -0.525525 0.033879
vn 0.850103 -0.525525 0.033879
vn 0.535993 0.213088 0.816887
vn 0.535993 0.213088 0.816887
vn 0.535993 0.213088 0.816887
vn 0.535993 0.213088 0.816887
vn 0.711984 -0.701999 -0.016617
vn 0.711984 -0.701999 -0.016617
vn 0.711984 -0.701999 -0.016617
vn 0.711984 -0.701999 -0.016617
vn 0.664026 0.038159 0.746735
vn 0.664026 0.038159 0.746735
vn 0.664026 0.038159 0.746735
vn 0.664026 0.038159 0.746735
vn 0.545064 -0.156478 -0.823663
vn 0.545064 -0.156478 -0.823663
vn 0.545064 -0.156478 -0.823663
vn 0.545064 -0.156478 -0.823663
vn 0.025047 0.628064 -0.777758
vn 0.025047 0.628064 -0.777758
vn 0.025047 0.628064 -0.777758
vn -0.136600 -0.101871 -0.985374
vn -0.136600 -0.101871 -0.985374
vn -0.136600 -0.101871 -0.985374
vn -0.136600 -0.101871 -0.985374
vn 0.190990 0.975462 0.109527
vn 0.190990 0.975462 0.109527
vn 0.190990 0.975462 0.109527
vn 0.190990 0.975462 0.109527
vn 0.183198 0.839561 0.511445
vn 0.183198 0.839561 0.511446
vn 0.183198 0.839561 0.511445
vn 0.183198 0.839561 0.511445
vn -0.876110 -0.007014 0.482059
vn -0.876110 -0.007014 0.482059
vn -0.876110 -0.007014 0.482059
vn -0.993970 -0.019951 0.107822
vn -0.993970 -0.019951 0.107822
vn -0.993970 -0.019951 0.107822
vn -0.996685 0.074057 0.033685
vn -0.996685 0.074057 0.033685
vn -0.996685 0.074057 0.033685
vn -0.996685 0.074057 0.033685
vn -0.991713 0.102407 -0.077573
vn -0.991713 0.102407 -0.077573
vn -0.991713 0.102407 -0.077573
vn -0.991713 0.102407 -0.077573
vn -0.986415 -0.110501 -0.121549
vn -0.986415 -0.110501 -0.121549
vn -0.986415 -0.110501 -0.121549
vn -0.986415 -0.110501 -0.121549
vn -0.991646 -0.039015 0.122949
vn -0.991646 -0.039015 0.122949
vn -0.991646 -0.039015 0.122949
vn -0.991646 -0.039015 0.122949
vn -0.575943 -0.809820 -0.111724
vn -0.575943 -0.809820 -0.111724
vn -0.575943 -0.809820 -0.111724
vn -0.575943 -0.809820 -0.111724
vn 0.273540 0.373576 0.886351
vn 0.273540 0.373576 0.886351
vn 0.273540 0.373576 0.886351
vn -0.737593 -0.303624 0.603133
vn -0.737593 -0.303624 0.603133
vn -0.737593 -0.303624 0.603133
vn -0.737593 -0.303624 0.603133
vn -0.636365 -0.759656 -0.134024
vn -0.636365 -0.759656 -0.134024
vn -0.636365 -0.759656 -0.134024
vn -0.636365 -0.759656 -0.134024
vn -0.672569 -0.471105 0.570711
vn -0.672569 -0.471105 0.570711
vn -0.672569 -0.471105 0.570711
vn -0.672569 -0.471105 0.570711
vn -0.850103 -0.525525 0.033883
vn -0.850103 -0.525525 0.033883
vn -0.850103 -0.525525 0.033883
vn -0.850103 -0.525525 0.033883
vn -0.535992 0.213088 0.816888
vn -0.535992 0.213088 0.816888
vn -0.535992 0.213088 0.816888
vn -0.535992 0.213088 0.816888
vn -0.711984 -0.701999 -0.016617
vn -0.711984 -0.701999 -0.016617
vn -0.711984 -0.701999 -0.016617
vn -0.711984 -0.701999 -0.016617
vn -0.664025 0.038159 0.746736
vn -0.664025 0.038159 0.746736
vn -0.664025 0.038159 0.746736
vn -0.664025 0.038159 0.746736
vn -0.545063 -0.156477 -0.823663
vn -0.545063 -0.156477 -0.823663
vn -0.545063 -0.156477 -0.823663
vn -0.545063 -0.156477 -0.823663
vn -0.444944 0.275166 0.852237
vn -0.444944 0.275166 0.852237
vn -0.444944 0.275166 0.852237
vn -0.444944 0.275166 0.852237
vn -0.369151 0.752031 0.546055
vn -0.369151 0.752031 0.546055
vn -0.369151 0.752031 0.546055
vn -0.369151 0.752031 0.546055
vn -0.676534 0.729682 0.099326
vn -0.676534 0.729682 0.099326
vn -0.676534 0.729682 0.099326
vn -0.676534 0.729682 0.099326
vn -0.354163 0.580494 -0.733209
vn -0.354163 0.580494 -0.733209
vn -0.354163 0.580494 -0.733209
vn -0.354163 0.580494 -0.733209
vn -0.074439 -0.145611 -0.986537
vn -0.074439 -0.145611 -0.986537
vn -0.074439 -0.145611 -0.986537
vn -0.074439 -0.145611 -0.986538
vn -0.230854 -0.941724 -0.244669
vn -0.230854 -0.941724 -0.244669
vn -0.230854 -0.941724 -0.244669
vn -0.230854 -0.941724 -0.244669
vn 0.413738 0.619846 0.666792
vn 0.413738 0.619846 0.666792
vn 0.413738 0.619846 0.666792
vn 0.398110 -0.217154 0.891264
vn 0.398110 -0.217154 0.891264
vn 0.398111 -0.217154 0.891264
vn 0.398110 -0.217154 0.891264
vn 0.171504 -0.532684 -0.828754
vn 0.171504 -0.532684 -0.828754
vn 0.171504 -0.532684 -0.828754
vn 0.171504 -0.532684 -0.828754
vn -0.276827 0.664875 0.693763
vn -0.276827 0.664875 0.693763
vn -0.276827 0.664875 0.693763
vn -0.276827 0.664875 0.693763
vn -0.276827 0.664875 0.693763
vn 0.930223 -0.339603 -0.139126
vn 0.930223 -0.339603 -0.139126
vn 0.930223 -0.339603 -0.139126
vn -0.966111 0.254281 0.044391
vn -0.966111 0.254281 0.044391
vn -0.966111 0.254281 0.044391
vn 0.301990 0.679184 0.668963
vn 0.301990 0.679183 0.668963
vn 0.301990 0.679184 0.668963
vn 0.301990 0.679184 0.668963
vn 0.301990 0.679183 0.668963
vn -0.715701 -0.596392 -0.363440
vn -0.715701 -0.596392 -0.363440
vn -0.715701 -0.596392 -0.363440
vn 0.966111 0.254281 0.044390
vn 0.966111 0.254281 0.044390
vn 0.966111 0.254281 0.044390
vn -0.930223 -0.339603 -0.139126
vn -0.930223 -0.339603 -0.139126
vn -0.930223 -0.339603 -0.139126
vn 0.198881 0.620985 0.758172
vn 0.198881 0.620985 0.758172
vn 0.198881 0.620985 0.758172
vn 0.198881 0.620985 0.758172
vn -0.151949 -0.500226 -0.852458
vn -0.151949 -0.500226 -0.852458
vn -0.151949 -0.500226 -0.852458
vn -0.151949 -0.500226 -0.852458
vn 0.712331 -0.598956 -0.365837
vn 0.712331 -0.598956 -0.365837
vn 0.712331 -0.598956 -0.365837
vn 0.621746 -0.779792 -0.073187
vn 0.621746 -0.779792 -0.073186
vn 0.621746 -0.779792 -0.073186
vn 0.621746 -0.779792 -0.073187
vn -0.184917 -0.557974 -0.808993
vn -0.184917 -0.557975 -0.808993
vn -0.184917 -0.557975 -0.808993
vn -0.184917 -0.557974 -0.808993
vn -0.150947 -0.951002 -0.269833
vn -0.150947 -0.951002 -0.269833
vn -0.150947 -0.951002 -0.269833
vn -0.150947 -0.951002 -0.269833
vn -0.236676 0.602566 -0.762167
vn -0.236676 0.602566 -0.762167
vn -0.236676 0.602566 -0.762167
vn -0.236676 0.602566 -0.762167
vn -0.363867 0.926743 0.093530
vn -0.363867 0.926743 0.093530
vn -0.363867 0.926743 0.093530
vn -0.363868 0.926743 0.093530
vn -0.322429 0.713479 0.622084
vn -0.322429 0.713478 0.622084
vn -0.322429 0.713479 0.622084
vn -0.322429 0.713479 0.622084
vn 0.013627 0.295521 0.955239
vn 0.013627 0.295521 0.955239
vn 0.013627 0.295521 0.955239
vn 0.013627 0.295521 0.955239
vn -0.131388 -0.444205 0.886239
vn -0.131388 -0.444205 0.886239
vn -0.131388 -0.444205 0.886239
vn -0.131388 -0.444206 0.886239
vn 0.258656 0.724042 0.639421
vn 0.258656 0.724042 0.639421
vn 0.258656 0.724042 0.639421
vn 0.258656 0.724042 0.639421
vn 0.429766 0.897211 0.101561
vn 0.429766 0.897211 0.101561
vn 0.429766 0.897211 0.101561
vn 0.429766 0.897211 0.101561
vn 0.361129 0.575287 -0.733915
vn 0.361129 0.575287 -0.733915
vn 0.361129 0.575287 -0.733915
vn 0.361129 0.575287 -0.733915
vn 0.114306 -0.148591 -0.982270
vn 0.114306 -0.148591 -0.982270
vn 0.114306 -0.148591 -0.982270
vn 0.114306 -0.148591 -0.982270
vn 0.394378 0.333910 0.856137
vn 0.394378 0.333910 0.856137
vn 0.394378 0.333910 0.856137
vn 0.203481 0.367852 0.907348
vn 0.203481 0.367852 0.907348
vn 0.203481 0.367852 0.907348
vn -0.445537 -0.818506 0.362691
vn -0.445537 -0.818506 0.362691
vn -0.445537 -0.818506 0.362691
vn 0.128900 -0.970632 -0.203121
vn 0.128900 -0.970632 -0.203121
vn 0.128900 -0.970632 -0.203121
vn -0.360776 -0.928245 0.090568
vn -0.360776 -0.928245 0.090568
vn -0.360776 -0.928245 0.090568
vn -0.162478 -0.982276 0.093462
vn -0.162478 -0.982276 0.093462
vn -0.162478 -0.982276 0.093462
vn 0.417246 -0.849557 0.322737
vn 0.417246 -0.849557 0.322737
vn 0.417246 -0.849557 0.322737
vn 0.452497 -0.816521 0.358524
vn 0.452497 -0.816521 0.358524
vn 0.452497 -0.816521 0.358524
vn 0.407588 0.163928 0.898331
vn 0.407588 0.163928 0.898332
vn 0.407588 0.163928 0.898331
vn 0.626421 -0.762285 -0.162847
vn 0.626421 -0.762285 -0.162847
vn 0.626421 -0.762285 -0.162847
vn 0.037307 -0.128187 -0.991048
vn 0.037307 -0.128187 -0.991048
vn 0.037307 -0.128187 -0.991048
vn 0.390086 -0.883379 -0.259759
vn 0.390086 -0.883379 -0.259759
vn 0.390086 -0.883379 -0.259759
vn -0.109140 -0.622620 0.774876
vn -0.109140 -0.622620 0.774876
vn -0.109140 -0.622620 0.774876
vn -0.560464 0.217696 0.799055
vn -0.560464 0.217696 0.799055
vn -0.560464 0.217696 0.799055
vn 0.769012 -0.631600 -0.098499
vn 0.769012 -0.631600 -0.098499
vn 0.769012 -0.631600 -0.098499
vn 0.025537 -0.679972 0.732793
vn 0.025537 -0.679972 0.732793
vn 0.025537 -0.679972 0.732793
vn -0.224949 -0.611420 0.758659
vn -0.224949 -0.611420 0.758659
vn -0.224949 -0.611420 0.758659
vn 0.075380 -0.624174 0.777641
vn 0.075380 -0.624174 0.777641
vn 0.075380 -0.624174 0.777641
vn -0.762396 -0.639373 -0.099770
vn -0.762396 -0.639373 -0.099770
vn -0.762396 -0.639373 -0.099770
vn 0.553037 0.219845 0.803629
vn 0.553037 0.219845 0.803629
vn 0.553037 0.219845 0.803629
vn 0.106982 -0.622803 0.775030
vn 0.106982 -0.622803 0.775030
vn 0.106982 -0.622803 0.775030
vn -0.383330 -0.886304 -0.259853
vn -0.383330 -0.886304 -0.259853
vn -0.383330 -0.886304 -0.259853
vn -0.036555 -0.128225 -0.991071
vn -0.036555 -0.128225 -0.991071
vn -0.036555 -0.128225 -0.991071
vn -0.618542 -0.768693 -0.162840
vn -0.618542 -0.768693 -0.162840
vn -0.618542 -0.768693 -0.162840
vn -0.400435 0.164019 0.901526
vn -0.400435 0.164019 0.901526
vn -0.400435 0.164019 0.901526
s off
f 75/1/1 76/2/2 12/3/3 13/4/4
f 76/2/5 14/5/6 12/3/7
f 74/6/8 75/1/9 13/4/10 15/7/11
f 73/8/12 74/6/13 15/7/14 16/9/15
f 21/10/16 22/11/17 20/12/18
f 23/13/19 20/12/20 22/11/21
f 20/12/22 23/14/23 24/15/24 17/16/25
f 17/16/26 24/15/27 25/17/28 18/18/29
f 18/18/30 25/17/31 26/19/32 19/20/33
f 28/21/34 23/22/35 22/23/36 27/24/37
f 58/25/38 59/26/39 66/27/40 67/28/41
f 2/29/42 73/8/43 16/9/44
f 5/30/45 22/11/46 21/10/47 4/31/48
f 6/32/49 24/15/50 23/14/51 7/33/52
f 8/34/53 25/17/54 24/15/55 6/32/56
f 61/35/57 60/36/58 26/19/59 9/37/60
f 9/37/61 26/19/62 25/17/63 8/34/64
f 10/38/65 28/21/66 27/24/67 11/39/68
f 11/39/69 27/24/70 22/23/71 5/40/72
f 7/41/73 23/22/74 28/21/75 10/38/76
f 54/42/77 70/43/78 53/44/79
f 39/45/80 54/42/81 55/46/82 40/47/83
f 70/43/84 71/48/85 52/49/86 53/44/87
f 71/48/88 72/50/89 51/51/90 52/49/91
f 42/52/92 41/53/93 43/54/94
f 44/55/95 43/54/96 41/53/97
f 41/53/98 38/56/99 45/57/100 44/58/101
f 38/56/102 39/45/103 46/59/104 45/57/105
f 39/45/106 40/47/107 47/60/108 46/59/109
f 49/61/110 48/62/111 43/63/112 44/64/113
f 68/65/114 69/66/115 64/67/116 65/68/117
f 72/50/118 50/69/119 51/51/120
f 31/70/121 30/71/122 42/52/123 43/54/124
f 32/72/125 33/73/126 44/58/127 45/57/128
f 34/74/129 32/72/130 45/57/131 46/59/132
f 64/67/133 35/75/134 47/60/135 65/68/136
f 35/75/137 34/74/138 46/59/139 47/60/140
f 36/76/141 37/77/142 48/62/143 49/61/144
f 37/77/145 31/78/146 43/63/147 48/62/148
f 33/79/149 36/76/150 49/61/151 44/64/152
f 51/51/153 50/69/154 2/80/155 16/81/156
f 52/49/157 51/51/158 16/81/159 15/82/160
f 53/44/161 52/49/162 15/82/163 13/83/164
f 54/42/165 53/44/166 13/83/167 12/84/168
f 55/46/169 54/42/170 12/84/171 14/85/172
f 58/86/173 63/87/174 62/88/175 59/89/176
f 21/10/177 20/12/178 57/90/179
f 4/31/180 21/10/181 77/91/182 78/92/183
f 14/5/184 19/20/185 66/27/186 59/26/187
f 3/93/188 1/94/189 58/25/190 67/28/191 61/35/192
f 19/20/193 26/19/194 60/36/195
f 9/37/196 3/93/197 61/35/198
f 56/95/199 29/96/200 64/67/201 69/66/202 63/87/203
f 40/47/204 68/65/205 65/68/206
f 29/96/207 35/75/208 64/67/209
f 47/60/210 40/47/211 65/68/212
f 1/97/213 56/95/214 63/87/215 58/86/216
f 55/46/217 14/85/218 59/89/219 62/88/220
f 66/27/221 19/20/222 60/36/223
f 67/28/224 66/27/225 60/36/226 61/35/227
f 40/47/228 55/46/229 62/88/230 68/65/231
f 62/88/232 63/87/233 69/66/234 68/65/235
f 38/56/236 70/43/237 54/42/238 39/45/239
f 41/53/240 71/48/241 70/43/242 38/56/243
f 42/52/244 72/50/245 71/48/246 41/53/247
f 30/71/248 50/69/249 72/50/250 42/52/251
f 78/92/252 77/91/253 73/8/254 2/29/255
f 57/90/256 20/12/257 74/6/258 73/8/259
f 20/12/260 17/16/261 75/1/262 74/6/263
f 17/16/264 18/18/265 76/2/266 75/1/267
f 18/18/268 19/20/269 14/5/270 76/2/271
f 21/10/272 57/90/273 77/91/274
f 57/90/275 73/8/276 77/91/277
f 5/30/278 4/31/279 79/98/280
f 4/31/281 78/92/282 79/98/283
f 78/92/284 2/80/285 79/98/286
f 2/80/287 50/69/288 79/98/289
f 50/69/290 30/71/291 79/98/292
f 30/71/293 31/78/294 79/98/295
f 31/78/296 37/77/297 79/98/298
f 37/77/299 36/76/300 79/98/301
f 36/76/302 33/73/303 79/98/304
f 33/73/305 32/72/306 79/98/307
f 32/72/308 34/74/309 79/98/310
f 34/74/311 35/75/312 79/98/313
f 35/75/314 29/96/315 79/98/316
f 29/96/317 56/95/318 79/98/319
f 56/95/320 1/94/321 79/98/322
f 1/94/323 3/93/324 79/98/325
f 3/93/326 9/37/327 79/98/328
f 9/37/329 8/34/330 79/98/331
f 8/34/332 6/32/333 79/98/334
f 6/32/335 7/41/336 79/98/337
f 7/41/338 10/38/339 79/98/340
f 10/38/341 11/39/342 79/98/343
f 11/39/344 5/30/345 79/98/346
