# This file uses meters as units for non-parametric coordinates.

v -9.784636 8.092590 2.744094
v -10.330907 7.918396 0.731167
v -10.624174 6.321732 -0.589914
v -10.492646 4.237839 -0.445298
v -10.013367 2.887512 1.080328
v -9.467091 3.061722 3.093267
v -9.173819 4.658401 4.414367
v -9.305348 6.742264 4.269737
v -11.965178 7.283661 3.107229
v -12.361523 7.157288 1.646756
v -12.574298 5.998825 0.688262
v -12.478872 4.486954 0.793190
v -12.131134 3.507248 1.900092
v -11.734792 3.633606 3.360547
v -11.522017 4.792068 4.319036
v -11.617445 6.303970 4.214108
v -11.993505 6.639130 2.901187
v -12.254553 6.555862 1.939267
v -12.048160 5.395462 2.503644
v -12.394699 5.792862 1.307955
v -12.331846 4.797073 1.377061
v -12.102808 4.151794 2.106125
v -11.841763 4.235016 3.068031
v -11.701619 4.998032 3.699344
v -11.764472 5.993851 3.630237
v -11.617553 10.858551 2.834852
v -10.649997 11.276672 2.973078
v -11.779944 10.408463 2.014994
v -10.790325 10.311798 1.663782
v -11.382471 4.619263 2.182214
v -10.468895 4.698608 1.661470
v -11.056701 4.549988 3.071120
v -10.035750 4.798569 3.232270
v -12.083120 12.811020 -3.010557
v -11.146896 13.309586 -2.939776
v -12.067169 11.861923 -3.015733
v -11.075747 11.696915 -2.696473
v -11.846088 9.827469 -6.054371
v -10.834927 9.773438 -6.377973
v -12.043870 9.473587 -5.196060
v -11.066734 9.379028 -4.810915
v -11.608202 4.273651 -4.422454
v -10.597041 4.219620 -4.746055
v -11.805985 3.919785 -3.564143
v -10.828850 3.825211 -3.178997
v 5.423515 19.141464 5.753926
v 6.670546 20.023956 -4.498107
v 6.884615 12.126877 -10.678209
v 4.871907 16.984390 8.628333
v 0.000069 3.063171 -9.866205
v 0.000069 16.359604 11.475909
v -5.423378 19.141464 5.753926
v -6.670409 20.023956 -4.498107
v -6.884478 12.126877 -10.678209
v -4.871769 16.984390 8.628333
v 5.914048 21.488266 6.566405
v 5.313813 18.865433 10.128802
v 7.172865 21.950409 -5.298588
v 7.271792 12.645523 -12.816469
v 0.000068 2.621735 -12.255528
v 0.000069 18.230576 12.995522
v -5.313675 18.865433 10.128802
v -5.913911 21.488266 6.566402
v -7.172728 21.950409 -5.298588
v -7.271656 12.645523 -12.816469
v 2.746236 24.003342 5.504096
v 0.000068 26.500580 6.539662
v 2.308136 21.170959 10.163732
v 3.046728 24.114746 -6.202983
v 0.000068 27.420517 -7.739741
v 0.000068 16.455627 -18.729900
v 2.847957 14.216827 -16.099688
v 0.000069 6.475632 -14.784883
v 0.000067 20.381485 11.929499
v -2.308001 21.170959 10.163732
v -2.746101 24.003342 5.504093
v -3.046595 24.114777 -6.202984
v -2.847822 14.216827 -16.099684
v 2.753887 4.031372 -10.135399
v 2.908758 3.973969 -12.424297
v -2.908621 3.973969 -12.424297
v -2.753750 4.031372 -10.135399
v 4.620255 22.559647 8.806575
v 4.887858 23.923080 6.857213
v 3.475547 25.044388 6.383602
v 3.280228 23.442810 8.673726
v -5.599355 24.389923 1.947341
v -6.364792 24.528656 -5.052713
v -3.673135 25.919235 1.301395
v -3.855853 25.844711 -5.602641
v 5.193218 23.584564 0.841234
v 5.803283 23.621445 -4.626788
v 3.803618 24.670349 -5.065088
v 3.657990 24.803452 0.326405
v -7.853706 21.220673 -8.324733
v -7.170647 18.354553 -15.457634
v -4.553373 22.951859 -9.048123
v -5.156570 19.014404 -16.645067
v 7.040887 20.858887 -8.673570
v 6.405937 18.272446 -15.538886
v 4.426869 18.920822 -16.705679
v 3.868680 22.522842 -9.368878
v -8.977623 5.447510 1.594427
vt 0.079611 0.255505
vt 0.079611 0.255505
vt 0.079611 0.255504
vt 0.079611 0.255504
vt 0.079611 0.255505
vt 0.079611 0.255504
vt 0.079611 0.255505
vt 0.079611 0.255504
vt 0.079611 0.255505
vt 0.079611 0.255504
vt 0.079611 0.255505
vt 0.079611 0.255504
vt 0.079611 0.255505
vt 0.079611 0.255504
vt 0.079611 0.255505
vt 0.079611 0.255504
vt 0.079611 0.255505
vt 0.079611 0.255504
vt 0.080015 0.330292
vt 0.080015 0.330292
vt 0.080015 0.330292
vt 0.080015 0.330292
vt 0.080015 0.330292
vt 0.080015 0.330292
vt 0.080015 0.330292
vt 0.080015 0.330292
vt 0.080015 0.330292
vt 0.079611 0.255504
vt 0.079611 0.255504
vt 0.079611 0.255504
vt 0.079611 0.255504
vt 0.079611 0.255504
vt 0.079611 0.255504
vt 0.079611 0.255504
vt 0.079611 0.255504
vt 0.079611 0.255504
vt 0.079611 0.255504
vt 0.079611 0.255504
vt 0.079611 0.255504
vt 0.079611 0.255504
vt 0.079611 0.255504
vt 0.079611 0.255504
vt 0.079611 0.255504
vt 0.079611 0.255505
vt 0.079611 0.255505
vt 0.079611 0.255505
vt 0.079611 0.255505
vt 0.079611 0.255504
vt 0.079611 0.255504
vt 0.079611 0.255504
vt 0.079611 0.255504
vt 0.079611 0.255504
vt 0.079611 0.255504
vt 0.079611 0.255505
vt 0.079611 0.255504
vt 0.079611 0.255504
vt 0.079611 0.255505
vt 0.079611 0.255504
vt 0.079611 0.255504
vt 0.079611 0.255504
vt 0.079611 0.255504
vt 0.079611 0.255504
vt 0.079611 0.255504
vt 0.079611 0.255504
vt 0.079611 0.255504
vt 0.079611 0.255504
vt 0.079611 0.255504
vt 0.079611 0.255504
vt 0.079611 0.255504
vt 0.079611 0.255504
vt 0.079611 0.255504
vt 0.079611 0.255504
vt 0.079611 0.255504
vt 0.079611 0.255504
vt 0.079611 0.255504
vt 0.079611 0.255504
vt 0.079611 0.255504
vt 0.079611 0.255504
vt 0.079611 0.255504
vt 0.079611 0.255504
vt 0.079611 0.255504
vt 0.079611 0.255504
vt 0.079611 0.255504
vt 0.079611 0.255504
vt 0.079611 0.255504
vt 0.079611 0.255504
vt 0.079611 0.255504
vt 0.079611 0.255504
vt 0.079611 0.255504
vt 0.079611 0.255504
vt 0.079611 0.255504
vt 0.079611 0.255504
vt 0.079611 0.255504
vt 0.079611 0.255504
vt 0.079611 0.255504
vt 0.079611 0.255504
vt 0.079611 0.255504
vt 0.079611 0.255504
vt 0.079611 0.255504
vt 0.079611 0.255504
vt 0.079611 0.255504
vt 0.079611 0.255504
vt 0.079611 0.255504
vt 0.079611 0.255504
vt 0.079611 0.255504
vt 0.079611 0.255504
vt 0.079611 0.255504
vt 0.079611 0.255504
vt 0.079611 0.255504
vt 0.252453 0.172310
vt 0.252453 0.172310
vt 0.252453 0.172310
vt 0.252453 0.172310
vt 0.252453 0.172310
vt 0.252453 0.172310
vt 0.252453 0.172310
vt 0.252453 0.172310
vt 0.252453 0.172310
vt 0.252453 0.172310
vt 0.252453 0.172310
vt 0.252453 0.172310
vt 0.252453 0.172310
vt 0.252453 0.172310
vt 0.252453 0.172310
vt 0.252453 0.172310
vt 0.252453 0.172310
vt 0.252453 0.172310
vt 0.252453 0.172310
vt 0.252453 0.172310
vt 0.252453 0.172310
vt 0.252453 0.172310
vt 0.252453 0.172310
vt 0.252453 0.172310
vt 0.252453 0.172310
vt 0.252453 0.172310
vt 0.252453 0.172310
vt 0.252453 0.172310
vt 0.252453 0.172310
vt 0.252453 0.172310
vt 0.252453 0.172310
vt 0.252453 0.172310
vt 0.252453 0.172310
vt 0.252453 0.172310
vt 0.252453 0.172310
vt 0.252453 0.172310
vt 0.252453 0.172310
vt 0.252453 0.172310
vt 0.252453 0.172310
vt 0.252453 0.172310
vt 0.252453 0.172310
vt 0.252453 0.172310
vt 0.252453 0.172310
vt 0.252453 0.172310
vt 0.252453 0.172310
vt 0.252453 0.172310
vt 0.252453 0.172310
vt 0.252453 0.172310
vt 0.252453 0.172310
vt 0.252453 0.172310
vt 0.252453 0.172310
vt 0.252453 0.172310
vt 0.252453 0.172310
vt 0.252453 0.172310
vt 0.252453 0.172310
vt 0.252453 0.172310
vt 0.252453 0.172310
vt 0.235236 0.249283
vt 0.235236 0.249283
vt 0.235236 0.249283
vt 0.235236 0.249283
vt 0.235236 0.249283
vt 0.235236 0.249283
vt 0.235236 0.249283
vt 0.235236 0.249283
vt 0.235236 0.249283
vn -0.345924 0.938177 0.012688
vn -0.345924 0.938177 0.012688
vn -0.345924 0.938177 0.012688
vn -0.345924 0.938177 0.012688
vn -0.504587 0.603507 -0.617391
vn -0.504587 0.603507 -0.617391
vn -0.504587 0.603507 -0.617391
vn -0.504587 0.603507 -0.617391
vn -0.535147 -0.092053 -0.839728
vn -0.535147 -0.092053 -0.839728
vn -0.535147 -0.092053 -0.839728
vn -0.535147 -0.092053 -0.839728
vn -0.419720 -0.741072 -0.524067
vn -0.419720 -0.741072 -0.524067
vn -0.419720 -0.741072 -0.524067
vn -0.419721 -0.741072 -0.524067
vn -0.225901 -0.963347 0.144677
vn -0.225901 -0.963347 0.144677
vn -0.225901 -0.963347 0.144677
vn -0.225901 -0.963347 0.144677
vn -0.067234 -0.628679 0.774753
vn -0.067234 -0.628679 0.774753
vn -0.067234 -0.628679 0.774753
vn -0.067234 -0.628679 0.774753
vn -0.036671 0.066886 0.997087
vn -0.036671 0.066886 0.997087
vn -0.036671 0.066886 0.997086
vn -0.036671 0.066886 0.997087
vn -0.152105 0.715904 0.681429
vn -0.152105 0.715904 0.681430
vn -0.152105 0.715904 0.681430
vn -0.152105 0.715904 0.681430
vn -0.963291 -0.042404 0.265088
vn -0.963291 -0.042404 0.265091
vn -0.963291 -0.042404 0.265090
vn -0.963291 -0.042404 0.265091
vn -0.963290 -0.042405 0.265094
vn -0.963291 -0.042404 0.265090
vn -0.963290 -0.042405 0.265094
vn -0.963291 -0.042406 0.265091
vn -0.963291 -0.042404 0.265090
vn -0.963291 -0.042406 0.265091
vn -0.963291 -0.042404 0.265089
vn -0.963291 -0.042404 0.265090
vn -0.963291 -0.042404 0.265089
vn -0.963291 -0.042403 0.265090
vn -0.963291 -0.042404 0.265090
vn -0.963291 -0.042403 0.265090
vn -0.963291 -0.042404 0.265090
vn -0.963291 -0.042404 0.265090
vn -0.963291 -0.042404 0.265090
vn -0.963291 -0.042404 0.265089
vn -0.963291 -0.042404 0.265090
vn -0.963291 -0.042404 0.265089
vn -0.963291 -0.042404 0.265088
vn -0.963291 -0.042404 0.265090
vn -0.963290 -0.042403 0.265093
vn -0.963290 -0.042403 0.265093
vn -0.963290 -0.042403 0.265093
vn -0.963290 -0.042403 0.265093
vn -0.963291 -0.042401 0.265089
vn -0.963291 -0.042401 0.265089
vn -0.963291 -0.042401 0.265089
vn -0.963291 -0.042401 0.265089
vn -0.963292 -0.042404 0.265086
vn -0.963292 -0.042404 0.265086
vn -0.963292 -0.042404 0.265086
vn -0.963292 -0.042404 0.265086
vn -0.963289 -0.042402 0.265097
vn -0.963289 -0.042402 0.265097
vn -0.963289 -0.042402 0.265097
vn -0.963289 -0.042402 0.265097
vn -0.963290 -0.042407 0.265091
vn -0.963290 -0.042407 0.265091
vn -0.963290 -0.042407 0.265091
vn -0.963290 -0.042407 0.265091
vn -0.963290 -0.042404 0.265092
vn -0.963290 -0.042404 0.265092
vn -0.963290 -0.042404 0.265092
vn -0.963290 -0.042404 0.265092
vn -0.963290 -0.042402 0.265092
vn -0.963290 -0.042402 0.265092
vn -0.963290 -0.042402 0.265092
vn -0.963290 -0.042402 0.265092
vn -0.963292 -0.042405 0.265086
vn -0.963292 -0.042405 0.265086
vn -0.963292 -0.042405 0.265086
vn -0.963292 -0.042405 0.265086
vn -0.416494 -0.039395 -0.908284
vn -0.416494 -0.039395 -0.908284
vn -0.416494 -0.039395 -0.908284
vn -0.416494 -0.039395 -0.908284
vn 0.160296 -0.986370 -0.037151
vn 0.160296 -0.986370 -0.037151
vn 0.160296 -0.986370 -0.037151
vn 0.160296 -0.986370 -0.037151
vn -0.156652 0.023862 0.987366
vn -0.156652 0.023862 0.987366
vn -0.156652 0.023862 0.987366
vn -0.156652 0.023862 0.987366
vn 0.972975 0.070622 -0.219846
vn 0.972975 0.070622 -0.219846
vn 0.972975 0.070622 -0.219846
vn 0.972975 0.070622 -0.219846
vn -0.955444 -0.066091 0.287680
vn -0.955443 -0.066091 0.287680
vn -0.955444 -0.066091 0.287680
vn -0.955444 -0.066091 0.287680
vn -0.439288 0.839260 0.320420
vn -0.439288 0.839260 0.320420
vn -0.439288 0.839260 0.320420
vn -0.439288 0.839260 0.320420
vn -0.130159 -0.951255 -0.279595
vn -0.130159 -0.951255 -0.279595
vn -0.130159 -0.951255 -0.279595
vn -0.130159 -0.951255 -0.279595
vn -0.994881 0.053621 0.085653
vn -0.994881 0.053621 0.085653
vn -0.994881 0.053621 0.085653
vn -0.994881 0.053621 0.085653
vn 0.997207 0.004080 -0.074583
vn 0.997207 0.004080 -0.074583
vn 0.997207 0.004080 -0.074583
vn 0.997206 0.004080 -0.074583
vn -0.244291 0.673270 -0.697875
vn -0.244291 0.673270 -0.697875
vn -0.244291 0.673270 -0.697875
vn -0.244291 0.673270 -0.697875
vn -0.332818 -0.636900 0.695407
vn -0.332818 -0.636900 0.695407
vn -0.332818 -0.636900 0.695407
vn -0.332818 -0.636900 0.695407
vn -0.991396 0.063350 -0.114544
vn -0.991396 0.063350 -0.114544
vn -0.991396 0.063350 -0.114544
vn -0.991396 0.063350 -0.114544
vn 0.997253 -0.014264 0.072687
vn 0.997253 -0.014264 0.072687
vn 0.997253 -0.014264 0.072687
vn 0.997253 -0.014264 0.072687
vn -0.306130 -0.280429 -0.909749
vn -0.306130 -0.280429 -0.909749
vn -0.306130 -0.280429 -0.909749
vn -0.306130 -0.280429 -0.909749
vn -0.333552 0.252594 0.908262
vn -0.333552 0.252594 0.908262
vn -0.333552 0.252594 0.908262
vn -0.333552 0.252594 0.908262
vn -0.955415 -0.120173 -0.269704
vn -0.955415 -0.120173 -0.269704
vn -0.955415 -0.120173 -0.269704
vn -0.955415 -0.120173 -0.269704
vn 0.981499 0.091466 0.168210
vn 0.981499 0.091466 0.168210
vn 0.981499 0.091466 0.168210
vn 0.981499 0.091466 0.168210
vn -0.061633 -0.950616 -0.304189
vn -0.061633 -0.950616 -0.304189
vn -0.061633 -0.950616 -0.304189
vn -0.061633 -0.950616 -0.304189
vn 0.691961 0.586197 0.421384
vn 0.691961 0.586197 0.421384
vn 0.691961 0.586197 0.421384
vn 0.705696 0.707588 0.036242
vn 0.705696 0.707588 0.036242
vn 0.705696 0.707588 0.036242
vn 0.705696 0.707588 0.036242
vn 0.758454 0.457483 -0.464173
vn 0.758454 0.457483 -0.464173
vn 0.758454 0.457483 -0.464173
vn 0.758454 0.457483 -0.464173
vn 0.495141 -0.319388 -0.807977
vn 0.495141 -0.319388 -0.807977
vn 0.495141 -0.319388 -0.807977
vn 0.328672 0.624256 0.708716
vn 0.328672 0.624256 0.708716
vn 0.328672 0.624256 0.708716
vn -0.691961 0.586196 0.421384
vn -0.691961 0.586196 0.421384
vn -0.691961 0.586196 0.421384
vn -0.705693 0.707590 0.036245
vn -0.705693 0.707590 0.036245
vn -0.705694 0.707590 0.036245
vn -0.705694 0.707590 0.036245
vn -0.758453 0.457483 -0.464176
vn -0.758452 0.457483 -0.464176
vn -0.758452 0.457483 -0.464176
vn -0.758452 0.457483 -0.464176
vn -0.495143 -0.319388 -0.807976
vn -0.495143 -0.319388 -0.807976
vn -0.495143 -0.319388 -0.807976
vn -0.328672 0.624255 0.708717
vn -0.328672 0.624255 0.708717
vn -0.328672 0.624255 0.708717
vn 0.975252 -0.220845 0.010520
vn 0.975252 -0.220845 0.010520
vn 0.975252 -0.220845 0.010520
vn 0.975252 -0.220845 0.010520
vn 0.969484 -0.225521 0.096132
vn 0.969484 -0.225521 0.096132
vn 0.969484 -0.225521 0.096132
vn 0.969484 -0.225521 0.096132
vn 0.973812 -0.130520 0.186158
vn 0.973812 -0.130520 0.186158
vn 0.973812 -0.130520 0.186158
vn 0.973812 -0.130520 0.186158
vn 0.891726 -0.448242 0.062480
vn 0.891726 -0.448242 0.062480
vn 0.891726 -0.448242 0.062480
vn 0.891726 -0.448242 0.062480
vn 0.448826 -0.591810 0.669564
vn 0.448826 -0.591810 0.669564
vn 0.448826 -0.591810 0.669565
vn 0.448826 -0.591810 0.669564
vn -0.975252 -0.220845 0.010520
vn -0.975252 -0.220845 0.010520
vn -0.975252 -0.220845 0.010520
vn -0.975252 -0.220845 0.010520
vn -0.969484 -0.225521 0.096132
vn -0.969484 -0.225521 0.096132
vn -0.969484 -0.225521 0.096132
vn -0.969484 -0.225521 0.096132
vn -0.973812 -0.130519 0.186158
vn -0.973812 -0.130519 0.186158
vn -0.973812 -0.130519 0.186158
vn -0.973812 -0.130519 0.186158
vn -0.891726 -0.448242 0.062484
vn -0.891726 -0.448242 0.062484
vn -0.891726 -0.448242 0.062484
vn -0.891726 -0.448242 0.062484
vn -0.448826 -0.591810 0.669564
vn -0.448826 -0.591810 0.669564
vn -0.448826 -0.591810 0.669564
vn -0.448826 -0.591810 0.669564
vn 0.407529 0.726840 0.552833
vn 0.407529 0.726840 0.552833
vn 0.407529 0.726840 0.552833
vn 0.407529 0.726840 0.552833
vn 0.534057 0.844928 0.029676
vn 0.534057 0.844928 0.029676
vn 0.534057 0.844928 0.029676
vn 0.534057 0.844928 0.029676
vn 0.486161 0.800152 -0.351290
vn 0.486161 0.800152 -0.351290
vn 0.486161 0.800152 -0.351290
vn 0.486161 0.800152 -0.351290
vn 0.474618 -0.294779 -0.829363
vn 0.474618 -0.294779 -0.829363
vn 0.474618 -0.294779 -0.829363
vn 0.474618 -0.294779 -0.829363
vn 0.399404 0.453700 0.796638
vn 0.399404 0.453700 0.796638
vn 0.399404 0.453700 0.796638
vn 0.399404 0.453700 0.796638
vn -0.465678 0.709184 0.529340
vn -0.465678 0.709184 0.529340
vn -0.465678 0.709184 0.529340
vn -0.465678 0.709184 0.529341
vn -0.531845 0.845888 0.040176
vn -0.531845 0.845888 0.040176
vn -0.531845 0.845888 0.040176
vn -0.531845 0.845888 0.040176
vn -0.488336 0.791219 -0.368103
vn -0.488336 0.791220 -0.368103
vn -0.488336 0.791219 -0.368103
vn -0.488336 0.791220 -0.368103
vn -0.474617 -0.294779 -0.829364
vn -0.474617 -0.294778 -0.829364
vn -0.474617 -0.294778 -0.829364
vn -0.474617 -0.294778 -0.829364
vn -0.399404 0.453700 0.796638
vn -0.399404 0.453700 0.796638
vn -0.399404 0.453700 0.796638
vn -0.399404 0.453700 0.796638
vn 0.384169 -0.916632 0.110455
vn 0.384169 -0.916632 0.110455
vn 0.384169 -0.916632 0.110455
vn 0.384169 -0.916632 0.110455
vn 0.202303 -0.537344 -0.818740
vn 0.202303 -0.537344 -0.818740
vn 0.202303 -0.537344 -0.818740
vn -0.202304 -0.537346 -0.818738
vn -0.202304 -0.537346 -0.818738
vn -0.202304 -0.537346 -0.818738
vn -0.384169 -0.916632 0.110454
vn -0.384169 -0.916632 0.110454
vn -0.384169 -0.916632 0.110454
vn -0.384169 -0.916632 0.110454
vn 0.880241 0.307769 0.361184
vn 0.880241 0.307769 0.361184
vn 0.880241 0.307769 0.361184
vn 0.880241 0.307769 0.361184
vn 0.515713 0.312629 -0.797687
vn 0.515713 0.312629 -0.797687
vn 0.515713 0.312629 -0.797687
vn 0.515713 0.312629 -0.797687
vn -0.848567 0.477711 0.227437
vn -0.848567 0.477711 0.227437
vn -0.848567 0.477711 0.227437
vn -0.848567 0.477711 0.227437
vn 0.273524 0.399639 0.874913
vn 0.273524 0.399639 0.874913
vn 0.273524 0.399639 0.874913
vn 0.273524 0.399639 0.874913
vn -0.952393 0.283856 0.111234
vn -0.952393 0.283856 0.111234
vn -0.952393 0.283856 0.111234
vn -0.952393 0.283856 0.111234
vn -0.457611 0.766623 0.450424
vn -0.457611 0.766623 0.450424
vn -0.457611 0.766623 0.450424
vn -0.457611 0.766623 0.450424
vn 0.911181 0.411372 -0.022841
vn 0.911181 0.411372 -0.022841
vn 0.911181 0.411372 -0.022841
vn 0.911181 0.411372 -0.022841
vn -0.301431 0.183685 -0.935628
vn -0.301431 0.183685 -0.935628
vn -0.301431 0.183685 -0.935628
vn -0.301431 0.183685 -0.935628
vn 0.804260 0.585184 0.103565
vn 0.804260 0.585184 0.103565
vn 0.804260 0.585184 0.103565
vn 0.804260 0.585184 0.103565
vn 0.466941 0.631545 -0.618964
vn 0.466941 0.631545 -0.618964
vn 0.466941 0.631545 -0.618964
vn 0.466941 0.631545 -0.618964
vn -0.656483 0.754124 -0.018085
vn -0.656483 0.754124 -0.018085
vn -0.656483 0.754124 -0.018085
vn -0.656483 0.754124 -0.018085
vn 0.559561 0.798523 0.221928
vn 0.559561 0.798523 0.221928
vn 0.559561 0.798523 0.221928
vn 0.559561 0.798523 0.221928
vn -0.996134 -0.082872 0.029129
vn -0.996134 -0.082872 0.029129
vn -0.996134 -0.082872 0.029129
vn -0.996134 -0.082872 0.029129
vn -0.479570 0.871526 -0.102251
vn -0.479570 0.871526 -0.102251
vn -0.479570 0.871526 -0.102251
vn -0.479570 0.871526 -0.102251
vn 0.792745 0.469051 -0.389291
vn 0.792745 0.469051 -0.389291
vn 0.792745 0.469051 -0.389291
vn 0.792745 0.469051 -0.389291
vn -0.451980 -0.344524 -0.822811
vn -0.451980 -0.344524 -0.822811
vn -0.451980 -0.344524 -0.822811
vn -0.451980 -0.344524 -0.822811
vn 0.991486 0.079783 -0.102911
vn 0.991486 0.079783 -0.102911
vn 0.991486 0.079783 -0.102911
vn 0.991486 0.079783 -0.102911
vn 0.472244 -0.299671 -0.828965
vn 0.472244 -0.299671 -0.828965
vn 0.472244 -0.299671 -0.828965
vn 0.472244 -0.299671 -0.828965
vn -0.894655 0.342448 -0.286917
vn -0.894655 0.342448 -0.286917
vn -0.894655 0.342448 -0.286917
vn -0.894655 0.342448 -0.286917
vn 0.493500 0.821707 -0.285051
vn 0.493500 0.821707 -0.285051
vn 0.493500 0.821707 -0.285051
vn 0.493500 0.821708 -0.285051
vn 0.880800 0.387190 -0.272535
vn 0.880800 0.387190 -0.272535
vn 0.880800 0.387190 -0.272535
vn 0.817719 0.270302 -0.508204
vn 0.817719 0.270302 -0.508204
vn 0.817719 0.270302 -0.508204
vn 0.800213 0.008895 -0.599651
vn 0.800213 0.008895 -0.599651
vn 0.800213 0.008895 -0.599651
vn 0.842186 -0.244201 -0.480717
vn 0.842186 -0.244201 -0.480717
vn 0.842186 -0.244201 -0.480717
vn 0.918709 -0.327319 -0.220989
vn 0.918709 -0.327319 -0.220989
vn 0.918709 -0.327319 -0.220989
vn 0.981246 -0.192214 0.014480
vn 0.981246 -0.192214 0.014480
vn 0.981246 -0.192214 0.014480
vn 0.993702 0.068856 0.088405
vn 0.993702 0.068856 0.088405
vn 0.993702 0.068856 0.088405
vn 0.952276 0.303726 -0.030341
vn 0.952276 0.303726 -0.030341
vn 0.952276 0.303726 -0.030341
vn 0.000000 -0.799830 -0.600227
vn 0.000000 -0.799830 -0.600227
vn 0.000000 -0.799830 -0.600227
vn 0.000000 -0.799830 -0.600227
vn 0.000000 -0.976766 -0.214310
vn 0.000000 -0.976766 -0.214310
vn 0.000000 -0.976766 -0.214310
vn 0.000000 -0.996316 -0.085763
vn 0.000000 -0.996316 -0.085763
vn 0.000000 -0.996316 -0.085763
vn 0.000000 -0.996316 -0.085763
vn 0.000000 -0.616293 0.787517
vn 0.000000 -0.616293 0.787517
vn 0.000000 -0.616293 0.787517
vn 0.000000 -0.616293 0.787517
vn 0.000000 0.066901 0.997760
vn 0.000000 0.066901 0.997760
vn 0.000000 0.066901 0.997760
vn 0.000000 0.066901 0.997760
vn 0.000000 0.267873 0.963454
vn 0.000000 0.267873 0.963454
vn 0.000000 0.267873 0.963454
s off
f 1/1/1 2/2/2 10/3/3 9/4/4
f 2/2/5 3/5/6 11/6/7 10/3/8
f 3/5/9 4/7/10 12/8/11 11/6/12
f 4/7/13 5/9/14 13/10/15 12/8/16
f 5/9/17 6/11/18 14/12/19 13/10/20
f 6/11/21 7/13/22 15/14/23 14/12/24
f 7/13/25 8/15/26 16/16/27 15/14/28
f 8/15/29 1/17/30 9/18/31 16/16/32
f 17/19/33 18/20/34 19/21/35
f 18/20/36 20/22/37 19/21/38
f 20/22/39 21/23/40 19/21/41
f 21/23/42 22/24/43 19/21/44
f 22/24/45 23/25/46 19/21/47
f 23/25/48 24/26/49 19/21/50
f 24/26/51 25/27/52 19/21/53
f 25/27/54 17/19/55 19/21/56
f 9/28/57 10/29/58 18/30/59 17/31/60
f 10/29/61 11/32/62 20/33/63 18/30/64
f 11/32/65 12/34/66 21/35/67 20/33/68
f 12/34/69 13/36/70 22/37/71 21/35/72
f 13/36/73 14/38/74 23/39/75 22/37/76
f 14/38/77 15/40/78 24/41/79 23/39/80
f 15/40/81 16/42/82 25/43/83 24/41/84
f 16/42/85 9/28/86 17/31/87 25/43/88
f 28/44/89 29/45/90 31/46/91 30/47/92
f 30/47/93 31/46/94 33/48/95 32/49/96
f 32/49/97 33/48/98 27/50/99 26/51/100
f 27/52/101 33/53/102 31/54/103 29/45/104
f 32/55/105 26/56/106 28/44/107 30/57/108
f 26/58/109 27/59/110 35/60/111 34/61/112
f 29/62/113 28/63/114 36/64/115 37/65/116
f 28/66/117 26/67/118 34/68/119 36/69/120
f 27/70/121 29/71/122 37/72/123 35/73/124
f 34/74/125 35/75/126 39/76/127 38/77/128
f 37/78/129 36/79/130 40/80/131 41/81/132
f 36/82/133 34/83/134 38/84/135 40/85/136
f 35/86/137 37/87/138 41/88/139 39/89/140
f 38/90/141 39/91/142 43/92/143 42/93/144
f 41/94/145 40/95/146 44/96/147 45/97/148
f 40/98/149 38/99/150 42/100/151 44/101/152
f 39/102/153 41/103/154 45/104/155 43/105/156
f 45/106/157 44/107/158 42/108/159 43/109/160
f 66/110/161 67/111/162 68/112/163
f 69/113/164 70/114/165 67/111/166 66/110/167
f 72/115/168 71/116/169 70/114/170 69/113/171
f 73/117/172 71/116/173 72/115/174
f 67/111/175 74/118/176 68/112/177
f 76/119/178 75/120/179 67/111/180
f 77/121/181 76/119/182 67/111/183 70/114/184
f 78/122/185 77/121/186 70/114/187 71/116/188
f 73/117/189 78/122/190 71/116/191
f 67/111/192 75/120/193 74/118/194
f 49/123/195 46/124/196 56/125/197 57/126/198
f 46/124/199 47/127/200 58/128/201 56/125/202
f 47/127/203 48/129/204 59/130/205 58/128/206
f 48/129/207 79/131/208 80/132/209 59/130/210
f 51/133/211 49/123/212 57/126/213 61/134/214
f 52/135/215 55/136/216 62/137/217 63/138/218
f 53/139/219 52/135/220 63/138/221 64/140/222
f 54/141/223 53/139/224 64/140/225 65/142/226
f 81/143/227 82/144/228 54/141/229 65/142/230
f 55/136/231 51/133/232 61/134/233 62/137/234
f 83/145/235 84/146/236 85/147/237 86/148/238
f 91/149/239 92/150/240 93/151/241 94/152/242
f 99/153/243 100/154/244 101/155/245 102/156/246
f 59/130/247 80/132/248 73/117/249 72/115/250
f 61/134/251 57/126/252 68/112/253 74/118/254
f 63/138/255 62/137/256 75/120/257 76/119/258
f 88/157/259 87/158/260 89/159/261 90/160/262
f 96/161/263 95/162/264 97/163/265 98/164/266
f 73/117/267 81/143/268 65/142/269 78/122/270
f 62/137/271 61/134/272 74/118/273 75/120/274
f 80/132/275 79/131/276 50/165/277 60/166/278
f 73/117/279 80/132/280 60/166/281
f 60/166/282 81/143/283 73/117/284
f 50/165/285 82/144/286 81/143/287 60/166/288
f 57/126/289 56/125/290 84/146/291 83/145/292
f 56/125/293 66/110/294 85/147/295 84/146/296
f 66/110/297 68/112/298 86/148/299 85/147/300
f 68/112/301 57/126/302 83/145/303 86/148/304
f 64/140/305 63/138/306 87/158/307 88/157/308
f 63/138/309 76/119/310 89/159/311 87/158/312
f 76/119/313 77/121/314 90/160/315 89/159/316
f 77/121/317 64/140/318 88/157/319 90/160/320
f 56/125/321 58/128/322 92/150/323 91/149/324
f 58/128/325 69/113/326 93/151/327 92/150/328
f 69/113/329 66/110/330 94/152/331 93/151/332
f 66/110/333 56/125/334 91/149/335 94/152/336
f 65/142/337 64/140/338 95/162/339 96/161/340
f 64/140/341 77/121/342 97/163/343 95/162/344
f 77/121/345 78/122/346 98/164/347 97/163/348
f 78/122/349 65/142/350 96/161/351 98/164/352
f 58/128/353 59/130/354 100/154/355 99/153/356
f 59/130/357 72/115/358 101/155/359 100/154/360
f 72/115/361 69/113/362 102/156/363 101/155/364
f 69/113/365 58/128/366 99/153/367 102/156/368
f 2/167/369 1/168/370 103/169/371
f 3/170/372 2/167/373 103/169/374
f 4/171/375 3/170/376 103/169/377
f 5/172/378 4/171/379 103/169/380
f 6/173/381 5/172/382 103/169/383
f 7/174/384 6/173/385 103/169/386
f 8/175/387 7/174/388 103/169/389
f 1/168/390 8/175/391 103/169/392
f 46/124/393 49/123/394 55/136/395 52/135/396
f 51/133/397 55/136/398 49/123/399
f 47/127/400 46/124/401 52/135/402 53/139/403
f 53/139/404 54/141/405 48/129/406 47/127/407
f 54/141/408 82/144/409 79/131/410 48/129/411
f 50/165/412 79/131/413 82/144/414
