# This file uses meters as units for non-parametric coordinates.

v -31.409874 -25.108524 31.495209
v 22.323608 -29.021530 42.585754
v -24.232368 85.727692 21.615448
v 21.286697 60.014687 37.905579
v -28.796612 85.727692 15.986481
v 27.433281 60.014687 34.066925
v -34.035717 -35.401001 30.518341
v 28.470192 -29.021530 38.747101
v 15.407753 72.426071 9.119263
v 9.261131 72.426071 12.958069
v 14.943962 -71.822693 14.193573
v 21.090584 -71.822693 10.354767
v 15.407753 -3.835640 9.119263
v 9.261131 -3.835640 12.958069
v -31.506351 3.807564 27.906189
v -36.070595 3.807564 22.277527
v -17.538567 0.036240 4.343872
v -12.441715 93.422241 4.292145
v -11.305767 93.422241 10.647583
v -16.402626 0.036240 10.699463
v -18.816296 -39.862442 24.647369
v -18.712231 -49.193462 22.346191
v 26.875801 -68.197525 35.633392
v 33.022423 -68.197525 31.794586
vt 0.243463 0.256704
vt 0.243463 0.256704
vt 0.243463 0.256704
vt 0.243463 0.256704
vt 0.243463 0.256704
vt 0.243463 0.256704
vt 0.243463 0.256704
vt 0.243463 0.256704
vt 0.243463 0.256704
vt 0.243463 0.256704
vt 0.243463 0.256704
vt 0.243463 0.256704
vt 0.243463 0.256704
vt 0.243463 0.256704
vt 0.243463 0.256704
vt 0.243463 0.256704
vt 0.243463 0.256704
vt 0.243463 0.256704
vt 0.243463 0.256704
vt 0.243463 0.256704
vt 0.243463 0.256704
vt 0.243463 0.256704
vt 0.243463 0.256704
vt 0.243463 0.256704
vt 0.243463 0.256704
vt 0.243463 0.256704
vt 0.243463 0.256704
vt 0.243463 0.256704
vt 0.243463 0.256704
vt 0.243463 0.256704
vt 0.243463 0.256704
vt 0.243463 0.256704
vt 0.243463 0.256704
vt 0.243463 0.256704
vn -0.910197 -0.108259 0.399777
vn -0.910197 -0.108259 0.399777
vn -0.910197 -0.108259 0.399777
vn -0.910197 -0.108259 0.399777
vn 0.217708 0.911638 0.348596
vn 0.217708 0.911638 0.348596
vn 0.217708 0.911638 0.348596
vn 0.217708 0.911638 0.348596
vn 0.910198 0.108260 -0.399775
vn 0.910198 0.108260 -0.399775
vn 0.910198 0.108260 -0.399775
vn 0.910198 0.108260 -0.399775
vn 0.527627 -0.088621 0.844841
vn 0.527627 -0.088621 0.844841
vn 0.527627 -0.088621 0.844841
vn 0.527627 -0.088621 0.844841
vn -0.741953 0.092107 0.664095
vn -0.741953 0.092107 0.664095
vn -0.741953 0.092107 0.664095
vn -0.741953 0.092107 0.664095
vn 0.600778 0.742878 0.295295
vn 0.600778 0.742878 0.295295
vn 0.600778 0.742878 0.295295
vn 0.600778 0.742878 0.295295
vn 0.906941 -0.006237 -0.421211
vn 0.906941 -0.006237 -0.421211
vn 0.906941 -0.006237 -0.421211
vn 0.906941 -0.006237 -0.421211
vn 0.529024 0.050688 0.847092
vn 0.529024 0.050688 0.847092
vn 0.529024 0.050688 0.847092
vn 0.529024 0.050688 0.847092
vn -0.906940 0.006237 0.421214
vn -0.906940 0.006237 0.421214
vn -0.906940 0.006237 0.421214
vn -0.906940 0.006237 0.421214
vn -0.096644 0.003208 0.995314
vn -0.096644 0.003208 0.995314
vn -0.096644 0.003208 0.995314
vn -0.096644 0.003208 0.995314
vn -0.771441 0.116536 0.625539
vn -0.771441 0.116536 0.625539
vn -0.771441 0.116536 0.625539
vn -0.771441 0.116536 0.625539
vn 0.154043 -0.004929 -0.988052
vn 0.154043 -0.004929 -0.988052
vn 0.154043 -0.004929 -0.988052
vn 0.154043 -0.004929 -0.988052
vn -0.648402 0.018219 -0.761080
vn -0.648402 0.018219 -0.761080
vn -0.648402 0.018219 -0.761080
vn -0.648402 0.018219 -0.761080
vn -0.353494 0.920203 0.168133
vn -0.353494 0.920203 0.168133
vn -0.353494 0.920203 0.168133
vn -0.353494 0.920203 0.168133
vn 0.710420 -0.024685 0.703345
vn 0.710420 -0.024685 0.703345
vn 0.710420 -0.024685 0.703345
vn 0.710420 -0.024685 0.703345
vn 0.704328 0.152941 0.693204
vn 0.704328 0.152941 0.693204
vn 0.704328 0.152941 0.693204
vn 0.704328 0.152941 0.693204
vn 0.302796 -0.194757 0.932944
vn 0.302796 -0.194757 0.932944
vn 0.302796 -0.194757 0.932944
vn 0.302796 -0.194757 0.932944
vn -0.664450 -0.218540 -0.714665
vn -0.664450 -0.218540 -0.714665
vn -0.664450 -0.218540 -0.714665
vn -0.664450 -0.218540 -0.714665
vn 0.996730 -0.059656 -0.054506
vn 0.996730 -0.059656 -0.054506
vn 0.996730 -0.059656 -0.054506
vn 0.996730 -0.059656 -0.054506
vn -0.528777 -0.059585 -0.846667
vn -0.528777 -0.059585 -0.846667
vn -0.528777 -0.059585 -0.846667
vn -0.528777 -0.059585 -0.846667
vn -0.123575 -0.990475 -0.060739
vn -0.123575 -0.990475 -0.060739
vn -0.123575 -0.990475 -0.060739
vn -0.123575 -0.990475 -0.060739
vn 0.077520 -0.989234 0.124123
vn 0.077520 -0.989234 0.124123
vn 0.077520 -0.989234 0.124123
vn 0.077520 -0.989234 0.124123
s off
f 2/2/1 14/21/2 11/17/3 23/32/4
f 9/15/5 10/16/6 4/4/7 6/6/8
f 12/19/9 13/20/10 8/8/11 24/34/12
f 23/33/13 24/34/14 8/8/15 2/10/16
f 7/13/17 1/1/18 15/22/19 16/23/20
f 18/26/21 19/27/22 10/16/23 9/15/24
f 8/8/25 13/20/26 9/15/27 6/6/28
f 2/2/29 8/11/30 6/12/31 4/4/32
f 10/16/33 14/21/34 2/2/35 4/4/36
f 19/27/37 20/28/38 14/21/39 10/16/40
f 16/23/41 15/22/42 3/3/43 5/14/44
f 17/25/45 18/26/46 9/15/47 13/20/48
f 5/5/49 18/26/50 17/25/51 16/24/52
f 3/3/53 19/27/54 18/26/55 5/5/56
f 15/22/57 20/28/58 19/27/59 3/3/60
f 1/1/61 21/29/62 20/28/63 15/22/64
f 7/7/65 22/31/66 21/30/67 1/9/68
f 16/24/69 17/25/70 22/31/71 7/7/72
f 17/25/73 20/28/74 21/30/75 22/31/76
f 12/19/77 11/17/78 14/21/79 13/20/80
f 13/20/81 14/21/82 20/28/83 17/25/84
f 11/18/85 12/19/86 24/34/87 23/33/88
