# This file uses meters as units for non-parametric coordinates.

v -174.288635 -254.736786 5.423203
v 136.881256 -170.071777 -12.709885
v -203.399429 201.383209 44.962997
v 145.228882 312.766235 28.237526
v -201.189209 209.640350 25.908134
v 137.711182 318.212280 9.529869
v -168.904572 -254.736786 -14.755249
v 129.885101 -170.071777 -32.387466
v -141.959686 243.375244 42.517784
v -144.169830 235.118103 61.572731
v -122.006157 -285.547607 25.713646
v -116.622009 -285.547607 5.535202
v 35.668945 -186.302551 26.214302
v 42.630463 318.967163 62.085487
v 35.112610 324.413147 43.377754
v 28.672943 -186.302551 6.536644
v 135.035400 -95.464546 -31.278992
v 142.031555 -95.464546 -11.601334
v 35.668945 -95.464546 26.214371
v -99.560394 -78.244698 19.557724
v -170.533142 -78.244698 0.620804
v -165.149078 -78.244698 -19.557571
v -94.176552 -78.244698 -0.620728
v 28.672943 -95.464546 6.536644
v 5.301208 233.893890 27.486343
v -75.456848 -78.244629 21.990509
v -73.349762 -78.244698 1.944122
v 6.864166 239.911346 8.312683
v -165.149078 51.437531 -19.557571
v 163.977661 154.823761 -22.190094
v -99.560394 83.924408 19.557724
v 57.847290 63.930969 16.545570
v 170.990753 156.107941 -2.444916
v 64.860229 65.215149 36.290825
v -170.533142 54.317780 0.620804
v -94.176552 81.044159 -0.620728
v -19.038391 74.131470 21.990128
v -17.800598 71.783600 1.944122
vt 0.244463 0.255210
vt 0.244463 0.255210
vt 0.244463 0.255210
vt 0.244463 0.255210
vt 0.244463 0.255210
vt 0.244463 0.255210
vt 0.244463 0.255210
vt 0.244463 0.255210
vt 0.244463 0.255210
vt 0.244463 0.255210
vt 0.244463 0.255210
vt 0.244463 0.255210
vt 0.244463 0.255210
vt 0.244463 0.255210
vt 0.244463 0.255210
vt 0.244463 0.255210
vt 0.244463 0.255210
vt 0.244463 0.255210
vt 0.244463 0.255210
vt 0.244463 0.255210
vt 0.244463 0.255210
vt 0.244463 0.255210
vt 0.244463 0.255210
vt 0.244463 0.255210
vt 0.244463 0.255210
vt 0.244463 0.255210
vt 0.244463 0.255210
vt 0.244463 0.255210
vt 0.244463 0.255210
vt 0.244463 0.255210
vt 0.244463 0.255210
vt 0.244463 0.255210
vt 0.244463 0.255210
vt 0.244463 0.255210
vt 0.244463 0.255210
vt 0.244463 0.255210
vt 0.244463 0.255210
vt 0.244463 0.255210
vt 0.244463 0.255210
vt 0.244463 0.255210
vt 0.244463 0.255210
vt 0.244463 0.255210
vt 0.244463 0.255210
vt 0.244463 0.255210
vt 0.244463 0.255210
vt 0.244463 0.255210
vt 0.244463 0.255210
vt 0.244463 0.255210
vt 0.244463 0.255210
vt 0.244463 0.255210
vt 0.244463 0.255210
vn -0.037982 -0.000001 0.999278
vn -0.037982 -0.000001 0.999278
vn -0.037982 -0.000001 0.999278
vn -0.935937 0.268163 0.228277
vn -0.935937 0.268163 0.228277
vn -0.935937 0.268163 0.228277
vn -0.935937 0.268163 0.228277
vn 0.044969 0.000000 -0.998988
vn 0.044969 0.000000 -0.998988
vn 0.044969 0.000000 -0.998988
vn -0.711029 -0.697696 0.087509
vn -0.711029 -0.697696 0.087509
vn -0.711029 -0.697697 0.087509
vn -0.711029 -0.697696 0.087509
vn 0.940525 -0.059958 -0.334393
vn 0.940525 -0.059958 -0.334393
vn 0.940525 -0.059958 -0.334393
vn 0.940525 -0.059958 -0.334393
vn -0.966109 0.013543 -0.257780
vn -0.966109 0.013543 -0.257780
vn -0.966109 0.013543 -0.257780
vn -0.966109 0.013543 -0.257780
vn -0.533404 0.796946 0.283474
vn -0.533404 0.796946 0.283474
vn -0.533404 0.796946 0.283474
vn -0.533404 0.796946 0.283474
vn -0.292196 0.047221 0.955192
vn -0.292196 0.047221 0.955192
vn -0.292196 0.047221 0.955192
vn -0.292196 0.047221 0.955192
vn -0.467379 -0.875217 -0.124709
vn -0.467379 -0.875217 -0.124709
vn -0.467379 -0.875217 -0.124709
vn -0.467379 -0.875217 -0.124709
vn 0.292196 -0.047221 -0.955192
vn 0.292196 -0.047221 -0.955192
vn 0.292196 -0.047221 -0.955192
vn 0.292196 -0.047221 -0.955192
vn 0.347885 -0.017111 0.937381
vn 0.347885 -0.017111 0.937381
vn 0.347885 -0.017111 0.937381
vn 0.347885 -0.017111 0.937381
vn 0.133280 0.964669 0.227267
vn 0.133280 0.964669 0.227267
vn 0.133280 0.964669 0.227267
vn 0.133280 0.964669 0.227267
vn -0.347885 0.017110 -0.937381
vn -0.347885 0.017110 -0.937381
vn -0.347885 0.017110 -0.937381
vn -0.347885 0.017110 -0.937381
vn 0.139519 -0.988976 -0.049604
vn 0.139519 -0.988976 -0.049604
vn 0.139519 -0.988976 -0.049604
vn 0.139519 -0.988976 -0.049604
vn 0.938879 -0.096306 -0.330502
vn 0.938879 -0.096306 -0.330502
vn 0.938879 -0.096306 -0.330502
vn 0.938879 -0.096306 -0.330502
vn 0.358199 -0.086047 0.929672
vn 0.358199 -0.086047 0.929672
vn 0.358199 -0.086047 0.929672
vn 0.358199 -0.086047 0.929672
vn -0.497090 -0.130744 0.857792
vn -0.497090 -0.130744 0.857792
vn -0.497090 -0.130744 0.857792
vn -0.257801 0.000000 0.966198
vn -0.257801 0.000000 0.966198
vn -0.257801 0.000000 0.966198
vn -0.257801 0.000000 0.966198
vn -0.966197 0.000000 -0.257804
vn -0.966197 0.000000 -0.257804
vn -0.966197 0.000000 -0.257804
vn -0.966197 0.000000 -0.257804
vn 0.116632 0.292836 -0.949023
vn 0.116632 0.292836 -0.949023
vn 0.116632 0.292836 -0.949023
vn 0.116632 0.292836 -0.949023
vn 0.107775 0.002648 -0.994172
vn 0.107775 0.002648 -0.994172
vn 0.107775 0.002648 -0.994172
vn 0.107775 0.002648 -0.994172
vn -0.373453 0.095988 -0.922669
vn -0.373453 0.095988 -0.922669
vn -0.373453 0.095988 -0.922669
vn -0.373453 0.095988 -0.922669
vn 0.128310 -0.141611 0.981572
vn 0.128310 -0.141611 0.981572
vn 0.128310 -0.141611 0.981572
vn 0.128310 -0.141611 0.981572
vn -0.100339 0.040385 0.994133
vn -0.100339 0.040385 0.994133
vn -0.100339 0.040385 0.994133
vn 0.962159 -0.205284 0.179187
vn 0.962159 -0.205284 0.179187
vn 0.962159 -0.205284 0.179187
vn 0.962159 -0.205284 0.179187
vn 0.122117 -0.042668 -0.991598
vn 0.122117 -0.042668 -0.991598
vn 0.122117 -0.042668 -0.991598
vn -0.130151 0.137988 -0.981845
vn -0.130151 0.137988 -0.981845
vn -0.130151 0.137988 -0.981845
vn -0.130151 0.137988 -0.981845
vn 0.096224 0.929324 0.356507
vn 0.096224 0.929324 0.356507
vn 0.096224 0.929324 0.356507
vn 0.096224 0.929324 0.356507
vn 0.921345 0.213164 -0.325092
vn 0.921345 0.213164 -0.325092
vn 0.921345 0.213164 -0.325092
vn 0.921345 0.213164 -0.325092
vn 0.373360 -0.095713 0.922736
vn 0.373360 -0.095713 0.922736
vn 0.373360 -0.095713 0.922736
vn 0.373360 -0.095713 0.922736
vn -0.095351 -0.005964 0.995426
vn -0.095351 -0.005964 0.995426
vn -0.095351 -0.005964 0.995426
vn -0.095351 -0.005964 0.995426
vn -0.111055 -0.302903 0.946529
vn -0.111055 -0.302903 0.946529
vn -0.111055 -0.302903 0.946529
vn -0.111055 -0.302903 0.946529
vn -0.965433 -0.156629 -0.208342
vn -0.965433 -0.156629 -0.208342
vn -0.965433 -0.156629 -0.208342
vn -0.965433 -0.156629 -0.208342
vn 0.257800 0.000000 -0.966198
vn 0.257800 0.000000 -0.966198
vn 0.257800 0.000000 -0.966198
vn 0.257800 0.000000 -0.966198
vn 0.589503 0.133515 -0.796655
vn 0.589503 0.133515 -0.796655
vn 0.589503 0.133515 -0.796655
vn -0.358496 0.086951 -0.929473
vn -0.358496 0.086951 -0.929473
vn -0.358496 0.086951 -0.929473
vn -0.358496 0.086951 -0.929473
vn -0.045684 0.008195 0.998922
vn -0.045684 0.008195 0.998922
vn -0.045684 0.008195 0.998922
vn -0.045684 0.008195 0.998922
vn 0.051814 -0.009305 -0.998613
vn 0.051814 -0.009305 -0.998613
vn 0.051814 -0.009305 -0.998613
vn 0.051814 -0.009305 -0.998613
vn -0.168868 -0.008180 0.985605
vn -0.168868 -0.008180 0.985605
vn -0.168868 -0.008180 0.985605
vn 0.190438 0.009247 -0.981656
vn 0.190438 0.009247 -0.981656
vn 0.190438 0.009247 -0.981656
s off
f 19/28/1 26/36/2 13/20/3
f 28/39/4 25/35/5 14/22/6 15/23/7
f 27/38/8 24/34/9 16/24/10
f 26/37/11 27/38/12 16/24/13 13/21/14
f 2/2/15 8/11/16 17/26/17 18/27/18
f 7/13/19 1/1/20 21/30/21 22/31/22
f 3/3/23 10/16/24 9/15/25 5/5/26
f 1/1/27 11/17/28 20/29/29 21/30/30
f 7/7/31 12/19/32 11/18/33 1/9/34
f 22/32/35 23/33/36 12/19/37 7/7/38
f 18/27/39 19/28/40 13/20/41 2/2/42
f 15/23/43 14/22/44 4/4/45 6/6/46
f 16/24/47 24/34/48 17/25/49 8/8/50
f 13/21/51 16/24/52 8/8/53 2/10/54
f 18/27/55 17/26/56 30/43/57 33/46/58
f 14/22/59 34/47/60 33/46/61 4/4/62
f 25/35/63 34/47/64 14/22/65
f 21/30/66 20/29/67 31/44/68 35/48/69
f 22/31/70 21/30/71 35/48/72 29/40/73
f 5/5/74 9/15/75 36/49/76 29/41/77
f 24/34/78 27/38/79 38/51/80 32/45/81
f 17/25/82 24/34/83 32/45/84 30/42/85
f 10/16/86 31/44/87 37/50/88 25/35/89
f 26/36/90 20/29/91 11/17/92
f 11/18/93 12/19/94 27/38/95 26/37/96
f 12/19/97 23/33/98 27/38/99
f 28/39/100 38/51/101 36/49/102 9/15/103
f 9/15/104 10/16/105 25/35/106 28/39/107
f 33/46/108 30/43/109 6/12/110 4/4/111
f 33/46/112 34/47/113 19/28/114 18/27/115
f 34/47/116 37/50/117 26/36/118 19/28/119
f 35/48/120 31/44/121 10/16/122 3/3/123
f 29/40/124 35/48/125 3/3/126 5/14/127
f 29/41/128 36/49/129 23/33/130 22/32/131
f 32/45/132 28/39/133 15/23/134
f 30/42/135 32/45/136 15/23/137 6/6/138
f 37/50/139 31/44/140 20/29/141 26/36/142
f 36/49/143 38/51/144 27/38/145 23/33/146
f 25/35/147 37/50/148 34/47/149
f 32/45/150 38/51/151 28/39/152
