# This file uses meters as units for non-parametric coordinates.

v -42.577972 18.476677 30.865250
v 35.412750 -22.690277 29.106827
v -38.870468 -31.499905 34.056931
v 41.250534 -23.227844 23.679955
v -46.699059 -33.480106 28.790428
v -47.261124 16.406174 23.255081
v -18.595810 -50.414158 11.650314
v -10.767059 -48.433956 16.916954
v -17.239456 27.166519 14.551773
v -25.068130 25.186310 9.285118
v -21.786728 -2.643127 5.929268
v -13.958282 -0.662994 11.195824
v 30.987167 -2.490883 27.989342
v 36.825104 -3.028374 22.562790
v 20.413513 -4.218445 5.677567
v 24.816132 -35.697708 11.377640
v 23.063583 -34.390717 17.535629
v 18.661041 -2.911377 11.835709
v -35.726700 32.182693 26.796104
v -40.754089 29.087906 19.807968
vt 0.243463 0.256704
vt 0.243463 0.256704
vt 0.243463 0.256704
vt 0.243463 0.256704
vt 0.243463 0.256704
vt 0.243463 0.256704
vt 0.243463 0.256704
vt 0.243463 0.256704
vt 0.243463 0.256704
vt 0.243463 0.256704
vt 0.243463 0.256704
vt 0.243463 0.256704
vt 0.243463 0.256704
vt 0.243463 0.256704
vt 0.243463 0.256704
vt 0.243463 0.256704
vt 0.243463 0.256704
vt 0.243463 0.256704
vt 0.243463 0.256704
vt 0.243463 0.256704
vt 0.243463 0.256704
vt 0.243463 0.256704
vt 0.243463 0.256704
vt 0.243463 0.256704
vt 0.243463 0.256704
vt 0.243463 0.256704
vn 0.548978 -0.032845 0.835191
vn 0.548978 -0.032845 0.835191
vn 0.548978 -0.032845 0.835191
vn 0.548978 -0.032845 0.835191
vn -0.160745 -0.821105 0.547675
vn -0.160745 -0.821105 0.547675
vn -0.160745 -0.821105 0.547675
vn -0.160745 -0.821105 0.547675
vn -0.791955 0.500520 0.349697
vn -0.791955 0.500520 0.349697
vn -0.791955 0.500520 0.349697
vn -0.791955 0.500520 0.349697
vn 0.347365 -0.933962 0.083981
vn 0.347365 -0.933962 0.083981
vn 0.347365 -0.933962 0.083981
vn 0.347365 -0.933962 0.083981
vn -0.590808 -0.114756 -0.798609
vn -0.590808 -0.114756 -0.798609
vn -0.590808 -0.114756 -0.798609
vn -0.590808 -0.114756 -0.798609
vn -0.721521 0.029605 0.691760
vn -0.721521 0.029605 0.691760
vn -0.721521 0.029605 0.691760
vn -0.721521 0.029605 0.691760
vn 0.591002 0.114520 0.798500
vn 0.591002 0.114520 0.798500
vn 0.591002 0.114520 0.798500
vn 0.591002 0.114520 0.798500
vn -0.043313 0.138439 0.989423
vn -0.043313 0.138439 0.989423
vn -0.043313 0.138439 0.989423
vn -0.043313 0.138439 0.989423
vn 0.677948 0.187844 0.710705
vn 0.677948 0.187844 0.710705
vn 0.677948 0.187844 0.710705
vn 0.677948 0.187844 0.710705
vn 0.015604 -0.141159 -0.989864
vn 0.015604 -0.141159 -0.989864
vn 0.015604 -0.141159 -0.989864
vn 0.015604 -0.141159 -0.989864
vn 0.660943 0.013929 -0.750307
vn 0.660943 0.013929 -0.750307
vn 0.660943 0.013929 -0.750307
vn 0.660943 0.013929 -0.750307
vn 0.384566 -0.838743 0.385511
vn 0.384566 -0.838743 0.385511
vn 0.384566 -0.838743 0.385511
vn 0.384566 -0.838743 0.385511
vn -0.738323 -0.037289 0.673415
vn -0.738323 -0.037289 0.673415
vn -0.738323 -0.037289 0.673415
vn -0.738323 -0.037289 0.673415
vn 0.522134 0.162524 -0.837235
vn 0.522134 0.162524 -0.837235
vn 0.522134 0.162524 -0.837235
vn 0.522134 0.162524 -0.837235
vn 0.071808 0.991247 -0.110781
vn 0.071808 0.991247 -0.110781
vn 0.071808 0.991247 -0.110781
vn 0.071808 0.991247 -0.110781
vn 0.050232 0.952382 -0.300742
vn 0.050232 0.952382 -0.300741
vn 0.050232 0.952382 -0.300742
vn 0.050232 0.952382 -0.300742
vn -0.008152 0.926873 -0.375287
vn -0.008152 0.926873 -0.375287
vn -0.008152 0.926873 -0.375287
vn -0.008152 0.926873 -0.375287
vn -0.543949 0.041423 -0.838095
vn -0.543949 0.041423 -0.838095
vn -0.543949 0.041423 -0.838095
vn -0.543949 0.041423 -0.838095
s off
f 1/1/1 12/17/2 9/14/3 19/25/4
f 7/11/5 8/12/6 3/3/7 5/5/8
f 1/7/9 19/25/10 20/26/11 6/6/12
f 16/22/13 17/23/14 8/12/15 7/11/16
f 6/6/17 11/16/18 7/11/19 5/5/20
f 1/1/21 6/8/22 5/9/23 3/3/24
f 8/12/25 12/17/26 1/1/27 3/3/28
f 17/23/29 18/24/30 12/17/31 8/12/32
f 14/19/33 13/18/34 2/2/35 4/10/36
f 15/21/37 16/22/38 7/11/39 11/16/40
f 4/4/41 16/22/42 15/21/43 14/20/44
f 2/2/45 17/23/46 16/22/47 4/4/48
f 13/18/49 18/24/50 17/23/51 2/2/52
f 10/15/53 9/13/54 12/17/55 11/16/56
f 15/21/57 18/24/58 13/18/59 14/20/60
f 11/16/61 12/17/62 18/24/63 15/21/64
f 9/14/65 10/15/66 20/26/67 19/25/68
f 6/6/69 20/26/70 10/15/71 11/16/72
