# This file uses meters as units for non-parametric coordinates.

v -63.995750 -80.442162 -49.339142
v 57.573738 -63.551937 14.872055
v -77.547234 123.198822 -47.332458
v 53.055916 40.721245 13.809128
v -69.887451 123.198822 -50.956955
v 52.426414 40.586815 2.143478
v -56.792686 -80.442162 -58.538284
v 56.944260 -63.686298 3.206253
v -0.166378 113.593567 2.260971
v -3.273010 113.727997 13.523026
v -20.503809 -138.806564 11.378479
v -17.397175 -138.940918 0.116501
v -88.780876 106.648865 -54.556503
v -81.577820 106.648865 -63.755646
v -34.482708 -1.017609 -26.709061
v -3.124084 132.084274 1.159744
v -8.079033 132.158127 11.490944
v -39.437668 -0.943909 -16.377869
v -45.987175 -153.639252 -11.199341
v -41.032211 -153.712997 -21.530533
v -0.408249 25.064430 15.295723
v 33.046665 -68.548927 16.795052
v 34.085293 -68.399048 5.214005
v 2.776070 22.917671 4.081650
v -18.776396 -1.981010 -8.839798
v -31.058712 -57.530174 -24.170456
v -36.097656 -56.070061 -13.901596
v -26.828976 -1.472740 -2.603302
v 19.897442 1.683083 16.175545
v 24.092979 -0.294418 4.474258
vt 0.243463 0.256704
vt 0.243463 0.256704
vt 0.243463 0.256704
vt 0.243463 0.256704
vt 0.243463 0.256704
vt 0.243463 0.256704
vt 0.243463 0.256704
vt 0.243463 0.256704
vt 0.243463 0.256704
vt 0.243463 0.256704
vt 0.243463 0.256704
vt 0.243463 0.256704
vt 0.243463 0.256704
vt 0.243463 0.256704
vt 0.243463 0.256704
vt 0.243463 0.256704
vt 0.243463 0.256704
vt 0.243463 0.256704
vt 0.243463 0.256704
vt 0.243463 0.256704
vt 0.243463 0.256704
vt 0.243463 0.256704
vt 0.243463 0.256704
vt 0.243463 0.256704
vt 0.243463 0.256704
vt 0.243463 0.256704
vt 0.243463 0.256704
vt 0.243463 0.256704
vt 0.243463 0.256704
vt 0.243463 0.256704
vt 0.243463 0.256704
vt 0.243463 0.256704
vt 0.243463 0.256704
vt 0.243463 0.256704
vt 0.243463 0.256704
vt 0.243463 0.256704
vt 0.243463 0.256704
vt 0.243463 0.256704
vt 0.243463 0.256704
vt 0.243463 0.256704
vn 0.062065 0.015905 0.997945
vn 0.062065 0.015905 0.997945
vn 0.062065 0.015905 0.997945
vn 0.062065 0.015905 0.997945
vn 0.798978 0.596105 0.079332
vn 0.798978 0.596105 0.079332
vn 0.798978 0.596105 0.079332
vn 0.798978 0.596105 0.079332
vn -0.069994 -0.016322 -0.997414
vn -0.069994 -0.016322 -0.997414
vn -0.069994 -0.016322 -0.997414
vn -0.069994 -0.016322 -0.997414
vn 0.200965 -0.979594 0.002883
vn 0.200965 -0.979594 0.002883
vn 0.200965 -0.979594 0.002883
vn 0.200965 -0.979594 0.002883
vn -0.781602 -0.120611 -0.612006
vn -0.781602 -0.120611 -0.612006
vn -0.781602 -0.120611 -0.612006
vn -0.781602 -0.120611 -0.612006
vn 0.914359 0.221061 0.339233
vn 0.914359 0.221061 0.339233
vn 0.914359 0.221061 0.339233
vn 0.914359 0.221061 0.339233
vn -0.763743 0.095095 0.638478
vn -0.763743 0.095095 0.638478
vn -0.763743 0.095095 0.638478
vn -0.763743 0.095095 0.638478
vn 0.401122 -0.902216 0.158451
vn 0.401122 -0.902216 0.158451
vn 0.401122 -0.902216 0.158451
vn 0.401122 -0.902216 0.158451
vn 0.751432 0.015897 -0.659619
vn 0.751432 0.015897 -0.659619
vn 0.751432 0.015897 -0.659619
vn 0.997611 0.042670 -0.054323
vn 0.997611 0.042670 -0.054323
vn 0.997611 0.042670 -0.054323
vn 0.997611 0.042670 -0.054323
vn -0.618321 0.007162 0.785893
vn -0.618321 0.007162 0.785893
vn -0.618321 0.007162 0.785893
vn -0.618321 0.007162 0.785893
vn -0.618321 0.007162 0.785893
vn -0.483048 0.673216 -0.559862
vn -0.483048 0.673216 -0.559862
vn -0.483048 0.673216 -0.559862
vn -0.483048 0.673216 -0.559862
vn 0.633090 -0.017852 -0.773872
vn 0.633090 -0.017852 -0.773872
vn 0.633090 -0.017852 -0.773872
vn 0.633090 -0.017852 -0.773872
vn 0.633090 -0.017852 -0.773872
vn 0.631672 0.028815 -0.774700
vn 0.631672 0.028815 -0.774700
vn 0.631672 0.028815 -0.774700
vn 0.631672 0.028815 -0.774700
vn -0.072591 0.994840 -0.070880
vn -0.072591 0.994840 -0.070880
vn -0.072591 0.994840 -0.070880
vn -0.072591 0.994840 -0.070880
vn -0.633092 -0.001334 0.774076
vn -0.633092 -0.001334 0.774076
vn -0.633092 -0.001334 0.774076
vn -0.633092 -0.001334 0.774076
vn -0.770090 -0.422691 -0.477801
vn -0.770090 -0.422692 -0.477801
vn -0.770090 -0.422692 -0.477801
vn -0.770090 -0.422692 -0.477801
vn 0.735524 0.063698 -0.674497
vn 0.735524 0.063698 -0.674497
vn 0.735524 0.063698 -0.674497
vn 0.735524 0.063698 -0.674497
vn 0.778313 -0.097729 -0.620224
vn 0.778313 -0.097729 -0.620224
vn 0.778313 -0.097729 -0.620224
vn 0.778313 -0.097729 -0.620224
vn -0.737833 -0.014391 0.674830
vn -0.737833 -0.014391 0.674830
vn -0.737833 -0.014391 0.674830
vn -0.738895 -0.663304 -0.118580
vn -0.738895 -0.663304 -0.118580
vn -0.738895 -0.663304 -0.118580
vn -0.738895 -0.663304 -0.118580
vn 0.909323 0.260130 0.324752
vn 0.909323 0.260130 0.324752
vn 0.909323 0.260130 0.324752
vn 0.909323 0.260130 0.324752
vn 0.732060 -0.292030 0.615473
vn 0.732060 -0.292030 0.615473
vn 0.732060 -0.292030 0.615473
vn 0.732060 -0.292030 0.615473
vn 0.509488 -0.739157 0.440533
vn 0.509488 -0.739157 0.440533
vn 0.509488 -0.739157 0.440533
vn 0.509488 -0.739157 0.440533
vn -0.965194 -0.163468 -0.204156
vn -0.965194 -0.163468 -0.204156
vn -0.965194 -0.163468 -0.204156
vn -0.965194 -0.163468 -0.204156
vn 0.019669 0.027728 0.999422
vn 0.019669 0.027728 0.999422
vn 0.019669 0.027728 0.999422
vn 0.019669 0.027728 0.999422
vn -0.029834 -0.025774 -0.999223
vn -0.029834 -0.025774 -0.999223
vn -0.029834 -0.025774 -0.999223
vn -0.029834 -0.025774 -0.999223
vn -0.722818 -0.062069 0.688245
vn -0.722818 -0.062069 0.688245
vn -0.722818 -0.062069 0.688245
vn -0.722818 -0.062069 0.688245
s off
f 22/31/1 2/2/2 4/4/3 29/39/4
f 9/15/5 10/16/6 4/4/7 6/6/8
f 8/8/9 23/33/10 30/40/11 6/6/12
f 22/32/13 23/33/14 8/8/15 2/10/16
f 7/13/17 1/1/18 13/20/19 14/21/20
f 16/24/21 17/25/22 10/16/23 9/15/24
f 19/27/25 11/17/26 27/37/27 1/1/28
f 19/28/29 20/29/30 12/19/31 11/18/32
f 25/35/33 26/36/34 15/23/35
f 2/2/36 8/11/37 6/12/38 4/4/39
f 17/25/40 18/26/41 28/38/42 21/30/43 10/16/44
f 14/21/45 13/20/46 3/3/47 5/14/48
f 15/23/49 16/24/50 9/15/51 24/34/52 25/35/53
f 5/5/54 16/24/55 15/23/56 14/22/57
f 3/3/58 17/25/59 16/24/60 5/5/61
f 13/20/62 18/26/63 17/25/64 3/3/65
f 7/7/66 20/29/67 19/28/68 1/9/69
f 14/22/70 15/23/71 26/36/72 7/7/73
f 26/36/74 12/19/75 20/29/76 7/7/77
f 18/26/78 27/37/79 28/38/80
f 29/39/81 21/30/82 24/34/83 30/40/84
f 12/19/85 26/36/86 27/37/87 11/18/88
f 25/35/89 28/38/90 27/37/91 26/36/92
f 24/34/93 21/30/94 28/38/95 25/35/96
f 30/40/97 23/33/98 22/31/99 29/39/100
f 29/39/101 4/4/102 10/16/103 21/30/104
f 6/6/105 30/40/106 24/34/107 9/15/108
f 1/1/109 27/37/110 18/26/111 13/20/112
