# This file uses meters as units for non-parametric coordinates.

v -70.406189 -77.971115 -54.281464
v 39.596710 -28.618397 75.536804
v -70.406189 119.053314 -54.281464
v 39.596710 77.971069 75.536804
v -62.481613 119.053314 -64.402161
v 50.499268 77.971069 68.728027
v -62.481613 -77.971115 -64.402161
v 50.499268 -28.618397 68.728027
v 12.931671 119.053314 8.573456
v 2.029114 119.053314 15.382233
v 2.029114 -90.850555 15.382233
v 12.931671 -90.850555 8.573456
v 12.931671 -3.782429 8.573456
v 2.029114 -3.782429 15.382233
v -83.122795 3.754616 -64.238739
v -75.198212 3.754616 -74.359436
vt 0.243463 0.256704
vt 0.243463 0.256704
vt 0.243463 0.256704
vt 0.243463 0.256704
vt 0.243463 0.256704
vt 0.243463 0.256704
vt 0.243463 0.256704
vt 0.243463 0.256704
vt 0.243463 0.256704
vt 0.243463 0.256704
vt 0.243463 0.256704
vt 0.243463 0.256704
vt 0.243463 0.256704
vt 0.243463 0.256704
vt 0.243463 0.256704
vt 0.243463 0.256704
vt 0.243463 0.256704
vt 0.243463 0.256704
vt 0.243463 0.256704
vt 0.243463 0.256704
vt 0.243463 0.256704
vt 0.243463 0.256704
vt 0.243463 0.256704
vt 0.243463 0.256704
vn -0.848182 0.000000 0.529705
vn -0.848182 0.000000 0.529705
vn -0.848182 0.000000 0.529705
vn 0.265507 0.865308 0.425144
vn 0.265507 0.865308 0.425144
vn 0.265507 0.865308 0.425144
vn 0.265507 0.865308 0.425144
vn 0.848182 0.000000 -0.529705
vn 0.848182 0.000000 -0.529705
vn 0.848182 0.000000 -0.529705
vn 0.349369 -0.751654 0.559427
vn 0.349369 -0.751654 0.559427
vn 0.349369 -0.751654 0.559427
vn 0.349369 -0.751654 0.559427
vn -0.772413 -0.193876 -0.604805
vn -0.772413 -0.193876 -0.604805
vn -0.772413 -0.193876 -0.604805
vn -0.772413 -0.193876 -0.604805
vn 0.000000 1.000000 -0.000000
vn 0.000000 1.000000 -0.000000
vn 0.000000 1.000000 -0.000000
vn 0.000000 1.000000 -0.000000
vn -0.688315 -0.009067 0.725356
vn -0.688315 -0.009067 0.725356
vn -0.688315 -0.009067 0.725356
vn -0.688315 -0.009067 0.725356
vn -0.083392 -0.992192 -0.092740
vn -0.083392 -0.992192 -0.092740
vn -0.083392 -0.992192 -0.092740
vn -0.083392 -0.992192 -0.092740
vn 0.690592 0.009367 -0.723183
vn 0.690593 0.009367 -0.723183
vn 0.690593 0.009367 -0.723183
vn 0.690593 0.009367 -0.723183
vn 0.848182 0.000000 -0.529705
vn 0.848182 0.000000 -0.529705
vn 0.848182 0.000000 -0.529705
vn 0.848182 0.000000 -0.529705
vn 0.529701 0.000000 0.848184
vn 0.529701 0.000000 0.848184
vn 0.529701 0.000000 0.848184
vn 0.529701 0.000000 0.848184
vn -0.848182 0.000000 0.529705
vn -0.848182 0.000000 0.529705
vn -0.848182 0.000000 0.529705
vn -0.848182 0.000000 0.529705
vn -0.687550 0.006355 0.726109
vn -0.687550 0.006355 0.726109
vn -0.687550 0.006355 0.726109
vn -0.687550 0.006355 0.726109
vn -0.779739 0.138726 -0.610542
vn -0.779739 0.138726 -0.610542
vn -0.779739 0.138726 -0.610542
vn -0.779739 0.138726 -0.610542
vn 0.689837 -0.006568 -0.723935
vn 0.689837 -0.006568 -0.723935
vn 0.689837 -0.006568 -0.723935
vn 0.689837 -0.006568 -0.723935
s off
f 2/2/1 14/21/2 11/17/3
f 9/15/4 10/16/5 4/4/6 6/6/7
f 12/19/8 13/20/9 8/8/10
f 11/18/11 12/19/12 8/8/13 2/10/14
f 7/13/15 1/1/16 15/22/17 16/23/18
f 3/3/19 10/16/20 9/15/21 5/5/22
f 1/1/23 11/17/24 14/21/25 15/22/26
f 7/7/27 12/19/28 11/18/29 1/9/30
f 16/24/31 13/20/32 12/19/33 7/7/34
f 8/8/35 13/20/36 9/15/37 6/6/38
f 2/2/39 8/11/40 6/12/41 4/4/42
f 10/16/43 14/21/44 2/2/45 4/4/46
f 15/22/47 14/21/48 10/16/49 3/3/50
f 16/23/51 15/22/52 3/3/53 5/14/54
f 5/5/55 9/15/56 13/20/57 16/24/58
