# This file uses meters as units for non-parametric coordinates.

v 4.996071 9.825106 22.672272
v 0.426064 5.612555 32.984009
v 2.990036 -3.201642 29.429016
v 10.153522 1.696470 20.500488
v 10.418472 3.379984 49.818726
v 24.852112 7.316084 56.497803
v 28.576206 0.677471 55.169067
v 13.262138 -3.472581 47.998657
v 29.210075 11.815434 51.586914
v 34.843601 18.481083 40.869751
v 37.943497 9.740763 37.494507
v 34.053333 3.555298 49.303589
v 32.858734 21.379318 25.913544
v 7.588615 14.688377 13.577271
v 11.982441 6.085138 11.661835
v 35.815331 12.426891 23.196259
v 40.393867 6.216011 -5.355988
v 28.489269 6.289320 -3.558350
v 29.162008 -3.430777 -4.961243
v 41.556969 -3.456593 -3.781281
v 19.585190 4.644275 13.941803
v 23.148754 4.787965 29.932556
v 23.508244 -2.842736 31.093445
v 19.802551 -2.990451 14.081726
v 30.866510 6.275234 31.189270
v 44.557724 7.979679 30.372314
v 45.388008 -1.816549 29.512024
v 31.907934 -3.434515 32.429199
v 56.275558 7.906256 20.436707
v 50.611916 7.691259 -7.907715
v 51.010971 -2.093062 -6.860657
v 56.442528 -1.884570 19.817505
v -3.237877 6.328478 -31.712646
v 3.077354 7.238398 -21.502686
v 1.622391 -2.474568 -20.838318
v -2.145844 -3.433137 -32.666473
v 22.682695 5.898380 -20.058746
v 35.998322 5.458002 -29.594269
v 37.003181 -2.200413 -29.803009
v 22.804136 -1.733003 -19.737244
v 34.116726 6.349583 -37.276764
v 27.985720 7.061357 -49.642944
v 26.969366 -2.749929 -49.329987
v 34.948853 -3.433423 -37.985382
v 14.256098 6.329165 -56.497803
v -9.602318 7.101498 -40.197449
v -8.695450 -2.704854 -40.235748
v 13.720896 -3.433137 -55.670700
v -53.359833 -2.954626 22.661896
v -43.796234 -3.434286 9.506073
v -45.683746 6.226358 9.606323
v -56.442566 6.637878 24.641724
v -42.465210 -2.657647 -9.920044
v -22.646713 -1.512666 -8.913422
v -21.911163 6.169319 -9.302826
v -42.758713 4.965577 -10.314331
v -19.113007 -2.156081 1.850891
v -21.623459 -2.874761 19.438477
v -21.159286 7.018929 20.501709
v -18.336563 7.656364 1.963959
v -27.659454 -2.084954 37.621765
v -49.239273 -3.330154 36.623230
v -51.425400 6.339750 36.108704
v -28.840714 7.642097 37.112427
vt 0.234311 0.350629
vt 0.234311 0.350629
vt 0.234311 0.350629
vt 0.234311 0.350629
vt 0.234311 0.350629
vt 0.234311 0.350629
vt 0.234311 0.350629
vt 0.234311 0.350629
vt 0.234311 0.350629
vt 0.234311 0.350629
vt 0.234311 0.350629
vt 0.234311 0.350629
vt 0.234311 0.350629
vt 0.234311 0.350629
vt 0.234311 0.350629
vt 0.234311 0.350629
vt 0.234311 0.350629
vt 0.234311 0.350629
vt 0.234311 0.350629
vt 0.234311 0.350629
vt 0.234311 0.350629
vt 0.234311 0.350629
vt 0.234311 0.350629
vt 0.234311 0.350629
vt 0.234311 0.350629
vt 0.234311 0.350629
vt 0.234311 0.350629
vt 0.234311 0.350629
vt 0.234311 0.350629
vt 0.234311 0.350629
vt 0.234311 0.350629
vt 0.234311 0.350629
vt 0.234311 0.350629
vt 0.234311 0.350629
vt 0.234311 0.350629
vt 0.234311 0.350629
vt 0.234311 0.350629
vt 0.234311 0.350629
vt 0.234311 0.350629
vt 0.234311 0.350629
vt 0.234311 0.350629
vt 0.234311 0.350629
vt 0.234311 0.350629
vt 0.234311 0.350629
vt 0.234311 0.350629
vt 0.234311 0.350629
vt 0.234311 0.350629
vt 0.234311 0.350629
vt 0.234311 0.350629
vt 0.234311 0.350629
vt 0.234311 0.350629
vt 0.234311 0.350629
vt 0.234311 0.305782
vt 0.234311 0.305782
vt 0.234311 0.305782
vt 0.234311 0.305782
vt 0.234311 0.305782
vt 0.234311 0.305782
vt 0.234311 0.305782
vt 0.234311 0.305782
vt 0.234311 0.305782
vt 0.234311 0.305782
vt 0.234311 0.305782
vt 0.234311 0.305782
vt 0.234311 0.305782
vt 0.234311 0.305782
vt 0.234311 0.305782
vt 0.234311 0.305782
vt 0.234311 0.305782
vt 0.234311 0.305782
vt 0.234311 0.305782
vt 0.234311 0.305782
vt 0.234311 0.305782
vt 0.234311 0.305782
vt 0.234311 0.305782
vt 0.234311 0.305782
vt 0.234311 0.305782
vt 0.234311 0.305782
vt 0.234311 0.305782
vt 0.234311 0.305782
vt 0.234311 0.305782
vt 0.234311 0.305782
vt 0.234311 0.305782
vt 0.234311 0.305782
vt 0.234311 0.305782
vt 0.234311 0.305782
vt 0.234311 0.305782
vt 0.234311 0.305782
vt 0.234311 0.305782
vt 0.234311 0.305782
vt 0.234311 0.305782
vt 0.234311 0.305782
vt 0.234311 0.305782
vt 0.234311 0.305782
vt 0.234311 0.305782
vt 0.234311 0.305782
vt 0.234311 0.305782
vt 0.234311 0.305782
vt 0.234311 0.305782
vt 0.234311 0.305782
vt 0.234311 0.305782
vt 0.234311 0.305782
vt 0.234311 0.305782
vt 0.234311 0.305782
vt 0.235734 0.278731
vt 0.235734 0.278731
vt 0.235734 0.278731
vt 0.235734 0.278731
vt 0.235734 0.278731
vt 0.235734 0.278731
vt 0.235734 0.278731
vt 0.235734 0.278731
vt 0.235734 0.278731
vt 0.235734 0.278731
vt 0.235734 0.278731
vt 0.235734 0.278731
vt 0.235734 0.278731
vt 0.235734 0.278731
vt 0.235734 0.278731
vt 0.235734 0.278731
vt 0.235734 0.278731
vt 0.235734 0.278731
vt 0.235734 0.278731
vt 0.235734 0.278731
vt 0.235734 0.278731
vt 0.235734 0.278731
vt 0.235734 0.278731
vt 0.235734 0.278731
vt 0.235734 0.278731
vt 0.235734 0.278731
vt 0.235734 0.278731
vt 0.235734 0.278731
vt 0.235734 0.278731
vt 0.235734 0.278731
vt 0.235734 0.278731
vt 0.235734 0.278731
vt 0.235734 0.278731
vt 0.235734 0.278731
vt 0.235734 0.278731
vt 0.235734 0.278731
vt 0.235734 0.278731
vt 0.235734 0.278731
vt 0.235734 0.278731
vt 0.235734 0.278731
vt 0.235734 0.278731
vt 0.235734 0.278731
vt 0.235734 0.278731
vt 0.235734 0.278731
vt 0.235734 0.278731
vt 0.235734 0.278731
vt 0.235734 0.278731
vt 0.235734 0.278731
vt 0.235734 0.278731
vt 0.235734 0.278731
vt 0.235734 0.278731
vt 0.235734 0.278731
vt 0.234311 0.305782
vt 0.234311 0.305782
vt 0.234311 0.305782
vt 0.234311 0.305782
vt 0.234311 0.305782
vt 0.234311 0.305782
vt 0.234311 0.305782
vt 0.234311 0.305782
vt 0.234311 0.305782
vt 0.234311 0.305782
vt 0.234311 0.305782
vt 0.234311 0.305782
vt 0.234311 0.305782
vt 0.234311 0.305782
vt 0.234311 0.305782
vt 0.234311 0.305782
vt 0.234311 0.305782
vt 0.234311 0.305782
vt 0.234311 0.305782
vt 0.234311 0.305782
vt 0.234311 0.305782
vt 0.234311 0.305782
vt 0.234311 0.305782
vt 0.234311 0.305782
vt 0.234311 0.305782
vt 0.234311 0.305782
vt 0.234311 0.305782
vt 0.234311 0.305782
vt 0.234311 0.305782
vt 0.234311 0.305782
vt 0.234311 0.305782
vt 0.234311 0.305782
vt 0.234311 0.305782
vt 0.234311 0.305782
vt 0.234311 0.305782
vt 0.234311 0.305782
vt 0.234311 0.305782
vt 0.234311 0.305782
vt 0.234311 0.305782
vt 0.234311 0.305782
vt 0.234311 0.305782
vt 0.234311 0.305782
vt 0.234311 0.305782
vt 0.234311 0.305782
vt 0.234311 0.305782
vt 0.234311 0.305782
vt 0.234311 0.305782
vt 0.234311 0.305782
vt 0.234311 0.350629
vt 0.234311 0.350629
vt 0.234311 0.350629
vt 0.234311 0.350629
vt 0.234311 0.350629
vt 0.234311 0.350629
vt 0.234311 0.350629
vt 0.234311 0.350629
vt 0.234311 0.350629
vt 0.234311 0.350629
vt 0.234311 0.350629
vt 0.234311 0.350629
vt 0.234311 0.350629
vt 0.234311 0.350629
vt 0.234311 0.350629
vt 0.234311 0.350629
vt 0.234311 0.350629
vt 0.234311 0.350629
vt 0.234311 0.350629
vt 0.234311 0.350629
vt 0.234311 0.350629
vt 0.234311 0.350629
vt 0.234311 0.350629
vt 0.234311 0.350629
vt 0.234311 0.350629
vt 0.234311 0.350629
vt 0.234311 0.350629
vt 0.234311 0.350629
vt 0.234311 0.350629
vt 0.234311 0.350629
vt 0.234311 0.350629
vt 0.234311 0.350629
vt 0.235734 0.278731
vt 0.235734 0.278731
vt 0.235734 0.278731
vt 0.235734 0.278731
vt 0.235734 0.278731
vt 0.235734 0.278731
vt 0.235734 0.278731
vt 0.235734 0.278731
vt 0.235734 0.278731
vt 0.235734 0.278731
vt 0.235734 0.278731
vt 0.235734 0.278731
vt 0.235734 0.278731
vt 0.235734 0.278731
vt 0.235734 0.278731
vt 0.235734 0.278731
vt 0.235734 0.278731
vt 0.235734 0.278731
vt 0.235734 0.278731
vt 0.235734 0.278731
vt 0.235734 0.278731
vt 0.235734 0.278731
vt 0.235734 0.278731
vt 0.235734 0.278731
vt 0.235734 0.278731
vt 0.235734 0.278731
vt 0.235734 0.278731
vt 0.235734 0.278731
vt 0.235734 0.278731
vt 0.235734 0.278731
vt 0.235734 0.278731
vt 0.235734 0.278731
vn -0.897270 -0.086389 -0.432948
vn -0.897270 -0.086389 -0.432948
vn -0.897270 -0.086389 -0.432948
vn -0.683439 -0.250422 -0.685712
vn -0.683439 -0.250422 -0.685712
vn -0.683439 -0.250422 -0.685712
vn -0.312374 -0.351848 0.882398
vn -0.312374 -0.351848 0.882398
vn -0.312374 -0.351848 0.882398
vn -0.312666 -0.362898 0.877807
vn -0.312666 -0.362898 0.877807
vn -0.312666 -0.362898 0.877807
vn 0.852176 0.104221 0.512772
vn 0.852176 0.104221 0.512772
vn 0.852176 0.104221 0.512772
vn 0.817492 0.353679 0.454552
vn 0.817492 0.353679 0.454552
vn 0.817492 0.353679 0.454552
vn 0.329616 0.362434 -0.871777
vn 0.329616 0.362434 -0.871777
vn 0.329616 0.362434 -0.871777
vn 0.322744 0.370895 -0.870789
vn 0.322744 0.370895 -0.870789
vn 0.322744 0.370895 -0.870789
vn 0.342622 -0.912024 -0.225438
vn 0.342622 -0.912024 -0.225438
vn 0.342622 -0.912024 -0.225438
vn 0.431299 -0.849795 -0.303034
vn 0.431299 -0.849795 -0.303034
vn 0.431299 -0.849795 -0.303034
vn 0.440668 -0.837000 -0.324412
vn 0.440668 -0.837000 -0.324412
vn 0.440668 -0.837000 -0.324412
vn 0.350026 -0.909805 -0.223018
vn 0.350026 -0.909805 -0.223018
vn 0.350026 -0.909805 -0.223018
vn -0.395706 0.858572 0.325992
vn -0.395707 0.858572 0.325992
vn -0.395706 0.858572 0.325992
vn -0.382870 0.902144 0.198862
vn -0.382870 0.902144 0.198862
vn -0.382870 0.902144 0.198862
vn -0.395452 0.890491 0.225042
vn -0.395452 0.890491 0.225042
vn -0.395452 0.890491 0.225042
vn -0.393555 0.852622 0.343730
vn -0.393555 0.852622 0.343730
vn -0.393555 0.852622 0.343730
vn -0.407011 0.824134 0.393885
vn -0.407011 0.824134 0.393885
vn -0.407011 0.824134 0.393885
vn -0.410449 0.839938 0.355016
vn -0.410449 0.839938 0.355016
vn -0.410449 0.839938 0.355016
vn 0.650092 0.176903 0.738976
vn 0.650092 0.176903 0.738976
vn 0.650092 0.176903 0.738976
vn 0.655398 0.223244 0.721537
vn 0.655398 0.223244 0.721537
vn 0.655398 0.223244 0.721537
vn 0.343726 -0.916752 -0.203514
vn 0.343726 -0.916752 -0.203514
vn 0.343726 -0.916752 -0.203514
vn 0.311163 -0.935327 -0.168346
vn 0.311163 -0.935327 -0.168346
vn 0.311163 -0.935327 -0.168346
vn -0.796419 -0.440536 0.414300
vn -0.796419 -0.440536 0.414300
vn -0.796419 -0.440536 0.414300
vn -0.800920 -0.409263 0.437071
vn -0.800920 -0.409263 0.437071
vn -0.800920 -0.409263 0.437071
vn 0.942106 0.329694 -0.061140
vn 0.942106 0.329694 -0.061140
vn 0.942106 0.329694 -0.061140
vn 0.931075 0.357780 -0.071368
vn 0.931075 0.357780 -0.071368
vn 0.931075 0.357780 -0.071368
vn -0.861619 -0.360497 -0.357287
vn -0.861619 -0.360497 -0.357287
vn -0.861619 -0.360497 -0.357287
vn -0.806589 -0.394040 -0.440621
vn -0.806589 -0.394040 -0.440620
vn -0.806589 -0.394040 -0.440620
vn -0.147228 0.131303 -0.980349
vn -0.147228 0.131303 -0.980349
vn -0.147228 0.131303 -0.980349
vn 0.093403 -0.149031 -0.984411
vn 0.093403 -0.149031 -0.984411
vn 0.093403 -0.149031 -0.984411
vn -0.975951 -0.012872 0.217608
vn -0.975951 -0.012872 0.217608
vn -0.975951 -0.012872 0.217608
vn -0.976765 -0.023905 0.212978
vn -0.976765 -0.023905 0.212978
vn -0.976765 -0.023905 0.212978
vn 0.069464 -0.081427 0.994256
vn 0.069464 -0.081427 0.994256
vn 0.069464 -0.081427 0.994256
vn 0.192677 0.144604 0.970549
vn 0.192677 0.144604 0.970549
vn 0.192677 0.144604 0.970549
vn 0.980411 0.019007 -0.196045
vn 0.980411 0.019007 -0.196045
vn 0.980411 0.019007 -0.196045
vn 0.979431 0.029328 -0.199637
vn 0.979431 0.029328 -0.199637
vn 0.979431 0.029328 -0.199637
vn -0.002088 -0.999998 0.000053
vn -0.002088 -0.999998 0.000053
vn -0.002088 -0.999998 0.000053
vn 0.126413 -0.991385 0.034290
vn 0.126413 -0.991385 0.034290
vn 0.126413 -0.991385 0.034290
vn 0.152598 -0.987799 0.031100
vn 0.152598 -0.987799 0.031100
vn 0.152598 -0.987799 0.031100
vn 0.000594 -0.999970 0.007694
vn 0.000594 -0.999970 0.007694
vn 0.000594 -0.999970 0.007694
vn -0.123015 0.992366 0.008818
vn -0.123015 0.992366 0.008818
vn -0.123015 0.992366 0.008818
vn -0.001272 0.998790 -0.049155
vn -0.001272 0.998790 -0.049155
vn -0.001272 0.998790 -0.049155
vn -0.032338 0.998440 -0.045518
vn -0.032338 0.998440 -0.045518
vn -0.032338 0.998440 -0.045518
vn -0.137959 0.990235 0.020055
vn -0.137959 0.990235 0.020055
vn -0.137959 0.990235 0.020055
vn -0.194534 0.980287 0.034543
vn -0.194534 0.980287 0.034543
vn -0.194534 0.980287 0.034543
vn -0.160051 0.987044 0.011350
vn -0.160051 0.987044 0.011350
vn -0.160051 0.987043 0.011350
vn -0.179616 0.105632 0.978049
vn -0.179616 0.105632 0.978049
vn -0.179616 0.105632 0.978049
vn -0.145686 0.142087 0.979074
vn -0.145686 0.142087 0.979074
vn -0.145686 0.142087 0.979074
vn -0.020351 -0.999707 0.013114
vn -0.020351 -0.999707 0.013114
vn -0.020351 -0.999707 0.013114
vn -0.071088 -0.997457 0.005121
vn -0.071088 -0.997457 0.005121
vn -0.071088 -0.997457 0.005121
vn -0.889479 -0.033676 -0.455733
vn -0.889479 -0.033676 -0.455733
vn -0.889479 -0.033676 -0.455733
vn -0.897445 0.001554 -0.441123
vn -0.897445 0.001554 -0.441123
vn -0.897445 0.001554 -0.441123
vn 0.646137 -0.037192 0.762315
vn 0.646137 -0.037192 0.762315
vn 0.646137 -0.037192 0.762315
vn 0.659275 -0.010148 0.751833
vn 0.659275 -0.010148 0.751833
vn 0.659275 -0.010148 0.751833
vn -0.292861 -0.113542 -0.949390
vn -0.292861 -0.113542 -0.949390
vn -0.292861 -0.113542 -0.949390
vn -0.213438 -0.181932 -0.959867
vn -0.213438 -0.181932 -0.959867
vn -0.213438 -0.181932 -0.959867
vn -0.845673 0.161473 0.508689
vn -0.845673 0.161473 0.508689
vn -0.845673 0.161473 0.508689
vn -0.940783 -0.135605 0.310706
vn -0.940783 -0.135605 0.310706
vn -0.940783 -0.135605 0.310706
vn 0.582550 0.054332 0.810977
vn 0.582550 0.054332 0.810977
vn 0.582550 0.054332 0.810977
vn 0.578733 0.043518 0.814355
vn 0.578733 0.043518 0.814355
vn 0.578733 0.043518 0.814355
vn 0.888410 -0.106276 -0.446580
vn 0.888410 -0.106276 -0.446580
vn 0.888410 -0.106276 -0.446580
vn 0.816045 0.110505 -0.567326
vn 0.816045 0.110505 -0.567326
vn 0.816045 0.110505 -0.567326
vn -0.564525 -0.048988 -0.823961
vn -0.564525 -0.048988 -0.823961
vn -0.564525 -0.048988 -0.823961
vn -0.567548 -0.038565 -0.822437
vn -0.567548 -0.038565 -0.822437
vn -0.567548 -0.038565 -0.822437
vn 0.011071 -0.996949 0.077267
vn 0.011071 -0.996949 0.077267
vn 0.011071 -0.996949 0.077267
vn -0.007842 -0.998475 -0.054640
vn -0.007842 -0.998475 -0.054640
vn -0.007842 -0.998475 -0.054640
vn -0.021066 -0.996756 -0.077675
vn -0.021066 -0.996756 -0.077675
vn -0.021066 -0.996756 -0.077675
vn 0.017054 -0.997272 0.071823
vn 0.017054 -0.997272 0.071823
vn 0.017054 -0.997272 0.071823
vn 0.046159 0.998336 0.034577
vn 0.046159 0.998335 0.034577
vn 0.046159 0.998335 0.034577
vn -0.054918 0.996981 -0.054883
vn -0.054918 0.996981 -0.054883
vn -0.054918 0.996981 -0.054883
vn -0.039398 0.998837 -0.027780
vn -0.039398 0.998837 -0.027780
vn -0.039398 0.998837 -0.027780
vn 0.062375 0.997080 0.044053
vn 0.062375 0.997080 0.044053
vn 0.062375 0.997080 0.044053
vn 0.097956 0.991020 0.091020
vn 0.097956 0.991020 0.091020
vn 0.097956 0.991020 0.091020
vn 0.063050 0.995694 0.067962
vn 0.063050 0.995694 0.067962
vn 0.063050 0.995694 0.067962
vn 0.969129 0.098794 -0.225894
vn 0.969129 0.098794 -0.225894
vn 0.969130 0.098794 -0.225894
vn 0.956433 0.132584 -0.260109
vn 0.956433 0.132584 -0.260109
vn 0.956434 0.132584 -0.260109
vn 0.030235 -0.995583 0.088881
vn 0.030235 -0.995583 0.088881
vn 0.030235 -0.995583 0.088881
vn 0.042728 -0.989458 0.138375
vn 0.042728 -0.989458 0.138375
vn 0.042728 -0.989458 0.138375
vn -0.070612 0.040865 0.996667
vn -0.070612 0.040865 0.996666
vn -0.070612 0.040865 0.996666
vn -0.054423 0.076252 0.995602
vn -0.054423 0.076252 0.995602
vn -0.054423 0.076252 0.995602
vn 0.448719 -0.099842 -0.888078
vn 0.448719 -0.099842 -0.888078
vn 0.448719 -0.099842 -0.888078
vn 0.433619 -0.073566 -0.898088
vn 0.433619 -0.073566 -0.898088
vn 0.433619 -0.073566 -0.898088
vn -0.757655 -0.072599 0.648605
vn -0.757655 -0.072599 0.648605
vn -0.757655 -0.072599 0.648605
vn -0.797699 -0.146402 0.585015
vn -0.797699 -0.146402 0.585015
vn -0.797699 -0.146402 0.585015
vn -0.802224 -0.150745 -0.577679
vn -0.802224 -0.150745 -0.577679
vn -0.802224 -0.150745 -0.577679
vn -0.806944 -0.140947 -0.573564
vn -0.806944 -0.140947 -0.573564
vn -0.806944 -0.140947 -0.573564
vn 0.053857 -0.055695 -0.996994
vn 0.053857 -0.055695 -0.996994
vn 0.053857 -0.055695 -0.996994
vn 0.051260 -0.049616 -0.997452
vn 0.051260 -0.049616 -0.997452
vn 0.051260 -0.049616 -0.997452
vn 0.988453 -0.061268 0.138588
vn 0.988453 -0.061268 0.138588
vn 0.988453 -0.061268 0.138588
vn 0.985864 -0.079708 0.147376
vn 0.985864 -0.079708 0.147376
vn 0.985864 -0.079708 0.147376
vn -0.048606 0.042110 0.997930
vn -0.048606 0.042110 0.997930
vn -0.048606 0.042110 0.997930
vn -0.047029 0.046537 0.997809
vn -0.047029 0.046537 0.997809
vn -0.047029 0.046537 0.997809
vn -0.074470 0.993969 -0.080493
vn -0.074470 0.993969 -0.080493
vn -0.074470 0.993969 -0.080493
vn -0.006884 0.999421 0.033318
vn -0.006884 0.999421 0.033318
vn -0.006884 0.999421 0.033318
vn -0.081187 0.991147 -0.105058
vn -0.081187 0.991147 -0.105058
vn -0.081187 0.991147 -0.105058
vn -0.054066 0.996012 -0.070977
vn -0.054066 0.996012 -0.070977
vn -0.054066 0.996012 -0.070977
vn -0.007367 0.999546 0.029211
vn -0.007367 0.999546 0.029211
vn -0.007367 0.999546 0.029211
vn -0.054680 0.996535 -0.062672
vn -0.054680 0.996535 -0.062672
vn -0.054680 0.996535 -0.062672
vn 0.040864 -0.998553 -0.034971
vn 0.040864 -0.998553 -0.034971
vn 0.040864 -0.998553 -0.034971
vn 0.006710 -0.999124 0.041306
vn 0.006710 -0.999124 0.041306
vn 0.006710 -0.999124 0.041306
vn 0.040180 -0.998501 -0.037166
vn 0.040180 -0.998501 -0.037166
vn 0.040180 -0.998501 -0.037166
vn 0.061526 -0.994921 -0.079667
vn 0.061526 -0.994921 -0.079667
vn 0.061526 -0.994921 -0.079667
vn 0.007162 -0.998926 0.045767
vn 0.007162 -0.998926 0.045767
vn 0.007162 -0.998927 0.045767
vn 0.059598 -0.997234 -0.044413
vn 0.059598 -0.997234 -0.044413
vn 0.059598 -0.997234 -0.044413
vn 0.946428 -0.071260 -0.314953
vn 0.946428 -0.071260 -0.314953
vn 0.946428 -0.071260 -0.314953
vn 0.951772 -0.105731 -0.288013
vn 0.951772 -0.105731 -0.288013
vn 0.951772 -0.105731 -0.288013
vn -0.996665 -0.041993 -0.069968
vn -0.996665 -0.041993 -0.069968
vn -0.996665 -0.041993 -0.069968
vn -0.973245 -0.188795 -0.130957
vn -0.973245 -0.188795 -0.130957
vn -0.973245 -0.188795 -0.130957
vn 0.942634 0.130562 0.307239
vn 0.942633 0.130562 0.307239
vn 0.942634 0.130562 0.307239
vn 0.902905 -0.087585 0.420823
vn 0.902905 -0.087585 0.420823
vn 0.902905 -0.087585 0.420823
vn -0.902374 -0.183250 0.390053
vn -0.902374 -0.183250 0.390053
vn -0.902374 -0.183250 0.390053
vn -0.903247 -0.343391 0.257349
vn -0.903247 -0.343391 0.257349
vn -0.903247 -0.343391 0.257349
s off
f 1/1/1 3/217/2 2/3/3
f 1/229/4 4/4/5 3/2/6
f 5/5/7 7/218/8 6/7/9
f 5/224/10 8/8/11 7/6/12
f 9/9/13 11/234/14 10/11/15
f 9/226/16 12/12/17 11/10/18
f 13/13/19 15/235/20 14/15/21
f 13/230/22 16/16/23 15/14/24
f 4/17/25 12/221/26 3/19/27
f 4/205/28 11/233/29 12/18/30
f 11/232/31 4/206/32 15/236/33
f 11/20/34 15/21/35 16/22/36
f 10/23/37 2/213/38 9/25/39
f 10/209/40 1/228/41 2/24/42
f 1/227/43 10/210/44 13/231/45
f 1/26/46 13/27/47 14/28/48
f 9/29/49 5/223/50 6/31/51
f 9/225/52 2/32/53 5/30/54
f 6/222/55 12/220/56 9/35/57
f 6/33/58 7/36/59 12/34/60
f 3/37/61 7/38/62 8/39/63
f 3/216/64 12/40/65 7/219/66
f 2/214/67 8/42/68 5/43/69
f 2/41/70 3/44/71 8/215/72
f 10/211/73 16/46/74 13/47/75
f 10/45/76 11/48/77 16/212/78
f 4/207/79 14/50/80 15/51/81
f 4/49/82 1/52/83 14/208/84
f 17/53/85 19/54/86 18/55/87
f 17/53/88 20/56/89 19/54/90
f 21/57/91 23/58/92 22/59/93
f 21/57/94 24/60/95 23/58/96
f 25/61/97 27/62/98 26/63/99
f 25/61/100 28/64/101 27/62/102
f 29/65/103 31/66/104 30/67/105
f 29/65/106 32/68/107 31/66/108
f 20/69/109 28/70/110 19/71/111
f 20/69/112 27/72/113 28/70/114
f 27/72/115 20/69/116 31/73/117
f 27/72/118 31/73/119 32/74/120
f 26/75/121 18/76/122 25/77/123
f 26/75/124 17/78/125 18/76/126
f 17/78/127 26/75/128 29/79/129
f 17/78/130 29/79/131 30/80/132
f 25/81/133 21/82/134 22/83/135
f 25/81/136 18/84/137 21/82/138
f 22/85/139 28/86/140 25/87/141
f 22/85/142 23/88/143 28/86/144
f 19/89/145 23/90/146 24/91/147
f 19/89/148 28/92/149 23/90/150
f 18/93/151 24/94/152 21/95/153
f 18/93/154 19/96/155 24/94/156
f 26/97/157 32/98/158 29/99/159
f 26/97/160 27/100/161 32/98/162
f 20/101/163 30/102/164 31/103/165
f 20/101/166 17/104/167 30/102/168
f 33/105/169 35/249/170 34/107/171
f 33/261/172 36/108/173 35/106/174
f 37/109/175 39/250/176 38/111/177
f 37/256/178 40/112/179 39/110/180
f 41/113/181 43/266/182 42/115/183
f 41/258/184 44/116/185 43/114/186
f 45/117/187 47/267/188 46/119/189
f 45/262/190 48/120/191 47/118/192
f 36/121/193 44/253/194 35/123/195
f 36/237/196 43/265/197 44/122/198
f 43/264/199 36/238/200 47/268/201
f 43/124/202 47/125/203 48/126/204
f 42/127/205 34/245/206 41/129/207
f 42/241/208 33/260/209 34/128/210
f 33/259/211 42/242/212 45/263/213
f 33/130/214 45/131/215 46/132/216
f 41/133/217 37/255/218 38/135/219
f 41/257/220 34/136/221 37/134/222
f 38/254/223 44/252/224 41/139/225
f 38/137/226 39/140/227 44/138/228
f 35/141/229 39/142/230 40/143/231
f 35/248/232 44/144/233 39/251/234
f 34/246/235 40/146/236 37/147/237
f 34/145/238 35/148/239 40/247/240
f 42/243/241 48/150/242 45/151/243
f 42/149/244 43/152/245 48/244/246
f 36/239/247 46/154/248 47/155/249
f 36/153/250 33/156/251 46/240/252
f 49/157/253 51/158/254 50/159/255
f 49/157/256 52/160/257 51/158/258
f 53/161/259 55/162/260 54/163/261
f 53/161/262 56/164/263 55/162/264
f 57/165/265 59/166/266 58/167/267
f 57/165/268 60/168/269 59/166/270
f 61/169/271 63/170/272 62/171/273
f 61/169/274 64/172/275 63/170/276
f 52/173/277 60/174/278 51/175/279
f 52/173/280 59/176/281 60/174/282
f 51/175/283 60/174/284 55/177/285
f 51/175/286 55/177/287 56/178/288
f 59/176/289 52/173/290 63/179/291
f 59/176/292 63/179/293 64/180/294
f 58/181/295 50/182/296 57/183/297
f 58/181/298 49/184/299 50/182/300
f 57/183/301 50/182/302 53/185/303
f 57/183/304 53/185/305 54/186/306
f 49/184/307 58/181/308 61/187/309
f 49/184/310 61/187/311 62/188/312
f 54/189/313 60/190/314 57/191/315
f 54/189/316 55/192/317 60/190/318
f 50/193/319 56/194/320 53/195/321
f 50/193/322 51/196/323 56/194/324
f 58/197/325 64/198/326 61/199/327
f 58/197/328 59/200/329 64/198/330
f 52/201/331 62/202/332 63/203/333
f 52/201/334 49/204/335 62/202/336
