# This file uses meters as units for non-parametric coordinates.

v 0.000000 0.000000 0.000000
v 500.000000 0.000000 0.000000
v 0.000000 500.000000 0.000000
v 500.000000 500.000000 0.000000
v 0.000000 500.000000 500.000000
v 500.000000 500.000000 500.000000
v 0.000000 0.000000 500.000000
v 500.000000 0.000000 500.000000
vt 0.009898 0.009569
vt 0.009898 0.009569
vt 0.009898 0.009569
vt 0.009898 0.009569
vt 0.009898 0.009569
vt 0.009898 0.009569
vt 0.009898 0.009569
vt 0.009898 0.009569
vt 0.009898 0.009569
vt 0.009898 0.009569
vt 0.009898 0.009569
vt 0.009898 0.009569
vt 0.009898 0.009569
vt 0.009898 0.009569
vn 0.000000 -1.000000 0.000000
vn 0.000000 -1.000000 0.000000
vn 0.000000 -1.000000 0.000000
vn 0.000000 -1.000000 0.000000
vn 0.000000 0.000000 -1.000000
vn 0.000000 0.000000 -1.000000
vn 0.000000 0.000000 -1.000000
vn 0.000000 0.000000 -1.000000
vn 0.000000 1.000000 0.000000
vn 0.000000 1.000000 0.000000
vn 0.000000 1.000000 0.000000
vn 0.000000 1.000000 0.000000
vn -1.000000 0.000000 0.000000
vn -1.000000 0.000000 0.000000
vn -1.000000 0.000000 0.000000
vn -1.000000 0.000000 0.000000
vn 1.000000 0.000000 0.000000
vn 1.000000 0.000000 0.000000
vn 1.000000 0.000000 0.000000
vn 1.000000 0.000000 0.000000
s off
f 3/3/1 4/4/2 6/6/3 5/5/4
f 5/5/5 6/6/6 8/8/7 7/7/8
f 7/7/9 8/8/10 2/10/11 1/9/12
f 2/2/13 8/11/14 6/12/15 4/4/16
f 7/13/17 1/1/18 3/3/19 5/14/20
