# This file uses meters as units for non-parametric coordinates.

v 0.000000 0.000000 0.000000
v 500.000000 0.000000 0.000000
v 0.000000 500.000000 0.000000
v 500.000000 500.000000 0.000000
v 0.000000 500.000000 500.000000
v 500.000000 500.000000 500.000000
v 0.000000 0.000000 500.000000
v 500.000000 0.000000 500.000000
v 105.818947 105.818947 0.000000
v 394.181061 105.818947 0.000000
v 105.818947 394.181061 0.000000
v 394.181061 394.181061 0.000000
vt 0.013237 0.012410
vt 0.013237 0.012410
vt 0.013237 0.012410
vt 0.013237 0.012410
vt 0.013237 0.012410
vt 0.013237 0.012410
vt 0.013237 0.012410
vt 0.013237 0.012410
vt 0.013237 0.012410
vt 0.013237 0.012410
vt 0.013237 0.012410
vt 0.013237 0.012410
vt 0.013237 0.012410
vt 0.013237 0.012410
vt 0.013237 0.012410
vt 0.013237 0.012410
vt 0.013237 0.012410
vt 0.013237 0.012410
vt 0.013237 0.012410
vt 0.013237 0.012410
vt 0.013237 0.012410
vt 0.013237 0.012410
vt 0.013237 0.012410
vt 0.013237 0.012410
vt 0.013237 0.012410
vt 0.013237 0.012410
vt 0.013237 0.012410
vt 0.013237 0.012410
vt 0.013237 0.012410
vt 0.013237 0.012410
vn 0.000000 -1.000000 0.000000
vn 0.000000 -1.000000 0.000000
vn 0.000000 -1.000000 0.000000
vn 0.000000 -1.000000 0.000000
vn 0.000000 0.000000 -1.000000
vn 0.000000 0.000000 -1.000000
vn 0.000000 0.000000 -1.000000
vn 0.000000 0.000000 -1.000000
vn 0.000000 1.000000 0.000000
vn 0.000000 1.000000 0.000000
vn 0.000000 1.000000 0.000000
vn 0.000000 1.000000 0.000000
vn -1.000000 0.000000 0.000000
vn -1.000000 0.000000 0.000000
vn -1.000000 0.000000 0.000000
vn -1.000000 0.000000 0.000000
vn 1.000000 0.000000 0.000000
vn 1.000000 0.000000 0.000000
vn 1.000000 0.000000 0.000000
vn 1.000000 0.000000 0.000000
vn 0.000000 0.000000 1.000000
vn 0.000000 0.000000 1.000000
vn 0.000000 0.000000 1.000000
vn 0.000000 0.000000 1.000000
vn 0.000000 0.000000 1.000000
vn 0.000000 0.000000 1.000000
vn 0.000000 0.000000 1.000000
vn 0.000000 0.000000 1.000000
vn 0.000000 0.000000 1.000000
vn 0.000000 0.000000 1.000000
vn 0.000000 0.000000 1.000000
vn 0.000000 0.000000 1.000000
vn 0.000000 0.000000 1.000000
vn 0.000000 0.000000 1.000000
vn 0.000000 0.000000 1.000000
vn 0.000000 0.000000 1.000000
s off
f 3/3/1 4/4/2 6/6/3 5/5/4
f 5/5/5 6/6/6 8/8/7 7/7/8
f 7/7/9 8/8/10 2/10/11 1/9/12
f 2/2/13 8/11/14 6/12/15 4/4/16
f 7/13/17 1/1/18 3/3/19 5/14/20
f 1/15/21 2/16/22 10/17/23 9/18/24
f 4/19/25 3/20/26 11/21/27 12/22/28
f 3/23/29 1/24/30 9/25/31 11/26/32
f 2/27/33 4/28/34 12/29/35 10/30/36
