# This file uses meters as units for non-parametric coordinates.

v -23.323059 13.287182 0.630711
v -21.416931 15.193310 0.630711
v 12.601013 -6.359320 0.630711
v 14.507141 -4.453192 0.630711
v -22.497864 -3.697357 0.630711
v -20.700073 -5.494996 0.630711
v -22.497864 12.531347 0.630711
v -20.700073 14.328986 0.630711
v 11.884155 14.328985 0.630711
v 13.681946 12.531347 0.630711
v 13.681946 -3.697357 0.630711
v 11.884155 -5.494995 0.630711
v 14.507141 0.000114 0.630711
v 13.681946 0.000114 0.630711
v -22.497864 7.071753 0.630711
v -23.323059 8.834038 0.630711
v -4.302979 14.328985 0.630711
v -4.302979 15.193310 0.630711
v -4.302979 -5.494995 0.630711
v -4.302979 -6.359320 0.630711
v 15.599365 14.287539 0.630711
v 15.599365 0.674629 0.630711
v 13.549805 16.337166 0.630711
v -24.415283 -5.453548 0.630711
v -24.415283 7.777958 0.630712
v -22.365723 -7.503194 0.630711
v -2.582703 16.337166 0.630711
v -5.539551 -7.503194 0.630711
v -24.415283 1.690159 0.630711
v -24.415283 5.262098 0.630711
v 15.599365 7.143831 0.630711
v 15.599365 10.715599 0.630711
v 14.815369 7.908030 0.630711
v 14.815369 9.822693 0.630711
v -23.631287 2.590551 0.630711
v -23.631287 4.369040 0.630711
v -23.323059 8.834038 -0.630712
v -23.323059 13.287182 -0.630712
v -22.497864 12.531346 -0.630711
v -22.497864 7.071753 -0.630711
v -21.416931 15.193311 -0.630712
v -20.700073 14.328985 -0.630711
v -4.302979 14.328984 -0.630711
v 11.884155 14.328985 -0.630712
v -4.302979 15.193309 -0.630711
v -2.582703 16.337166 -0.630711
v 13.549805 16.337166 -0.630711
v 13.681946 12.531347 -0.630712
v 15.599365 14.287539 -0.630712
v 15.599365 10.715600 -0.630712
v 14.507141 -4.453192 -0.630711
v 12.601013 -6.359320 -0.630711
v 11.884155 -5.494995 -0.630711
v 13.681946 -3.697357 -0.630711
v -4.302979 -5.494995 -0.630711
v -20.700073 -5.494996 -0.630711
v -4.302979 -6.359320 -0.630711
v -5.539551 -7.503195 -0.630711
v -22.365723 -7.503195 -0.630712
v 14.507141 0.000114 -0.630711
v 13.681946 0.000114 -0.630711
v -24.415283 5.262099 -0.630711
v -24.415283 7.777958 -0.630711
v -24.415283 -5.453548 -0.630711
v -22.497864 -3.697357 -0.630711
v -24.415283 1.690159 -0.630711
v -23.631287 4.369040 -0.630711
v 15.599365 7.143831 -0.630711
v 15.599365 0.674629 -0.630711
v 14.815369 9.822693 -0.630712
v 14.815369 7.908030 -0.630711
v -23.631287 2.590551 -0.630711
vt 0.330180 0.385241
vt 0.330180 0.385241
vt 0.330180 0.385241
vt 0.330180 0.385241
vt 0.330180 0.385241
vt 0.330180 0.385241
vt 0.330180 0.385241
vt 0.330180 0.385241
vt 0.330180 0.385241
vt 0.330180 0.385241
vt 0.330180 0.385241
vt 0.330180 0.385241
vt 0.330180 0.385241
vt 0.330180 0.385241
vt 0.330180 0.385241
vt 0.330180 0.385241
vt 0.330180 0.385241
vt 0.330180 0.385241
vt 0.330180 0.385241
vt 0.330180 0.385241
vt 0.330180 0.385241
vt 0.330180 0.385241
vt 0.330180 0.385241
vt 0.330180 0.385241
vt 0.330180 0.385241
vt 0.330180 0.385241
vt 0.330180 0.385241
vt 0.330180 0.385241
vt 0.330180 0.385241
vt 0.330180 0.385241
vt 0.330180 0.385241
vt 0.330180 0.385241
vt 0.330180 0.385241
vt 0.330180 0.385241
vt 0.330180 0.385241
vt 0.330180 0.385241
vt 0.330180 0.385241
vt 0.330180 0.385241
vt 0.330180 0.385241
vt 0.330180 0.385241
vt 0.330180 0.385241
vt 0.330180 0.385241
vt 0.330180 0.385241
vt 0.330180 0.385241
vt 0.330180 0.385241
vt 0.330180 0.385241
vt 0.330180 0.385241
vt 0.330180 0.385241
vt 0.330180 0.385241
vt 0.330180 0.385241
vt 0.330180 0.385241
vt 0.330180 0.385241
vt 0.330180 0.385241
vt 0.330180 0.385241
vt 0.330180 0.385241
vt 0.330180 0.385241
vt 0.330180 0.385241
vt 0.330180 0.385241
vt 0.330180 0.385241
vt 0.330180 0.385241
vt 0.330180 0.385241
vt 0.330180 0.385241
vt 0.330180 0.385241
vt 0.330180 0.385241
vt 0.330180 0.385241
vt 0.330180 0.385241
vt 0.330180 0.385241
vt 0.330180 0.385241
vt 0.330180 0.385241
vt 0.330180 0.385241
vt 0.330180 0.385241
vt 0.330180 0.385241
vt 0.330180 0.385241
vt 0.330180 0.385241
vt 0.330180 0.385241
vt 0.330180 0.385241
vt 0.330180 0.385241
vt 0.330180 0.385241
vt 0.330180 0.385241
vt 0.330180 0.385241
vt 0.330180 0.385241
vt 0.330180 0.385241
vt 0.330180 0.385241
vt 0.330180 0.385241
vt 0.330180 0.385241
vt 0.330180 0.385241
vt 0.330180 0.385241
vt 0.330180 0.385241
vt 0.330180 0.385241
vt 0.330180 0.385241
vt 0.330180 0.385241
vt 0.330180 0.385241
vt 0.330180 0.385241
vt 0.330180 0.385241
vt 0.330180 0.385241
vt 0.330180 0.385241
vt 0.330180 0.385241
vt 0.330180 0.385241
vt 0.330180 0.385241
vt 0.330180 0.385241
vt 0.330180 0.385241
vt 0.330180 0.385241
vt 0.330180 0.385241
vt 0.330180 0.385241
vt 0.330180 0.385241
vt 0.330180 0.385241
vt 0.330180 0.385241
vt 0.330180 0.385241
vt 0.330180 0.385241
vt 0.330180 0.385241
vt 0.330180 0.385241
vt 0.330180 0.385241
vt 0.330180 0.385241
vt 0.330180 0.385241
vt 0.330180 0.385241
vt 0.330180 0.385241
vt 0.330180 0.385241
vt 0.330180 0.385241
vt 0.330180 0.385241
vt 0.330180 0.385241
vt 0.330180 0.385241
vt 0.330180 0.385241
vt 0.330180 0.385241
vt 0.330180 0.385241
vt 0.330180 0.385241
vt 0.330180 0.385241
vn 0.000001 0.000000 -1.000000
vn 0.000001 0.000000 -1.000000
vn 0.000001 0.000000 -1.000000
vn -0.000000 -0.000000 -1.000000
vn 0.000001 -0.000001 -1.000000
vn 0.000001 -0.000001 -1.000000
vn 0.000001 -0.000001 -1.000000
vn 0.000001 -0.000001 -1.000000
vn -0.000000 0.000000 -1.000000
vn -0.000000 0.000000 -1.000000
vn -0.000000 0.000000 -1.000000
vn -0.000000 0.000000 -1.000000
vn -0.000000 0.000000 -1.000000
vn 0.000000 0.000000 -1.000000
vn 0.000000 0.000000 -1.000000
vn 0.000000 0.000000 -1.000000
vn 0.000000 0.000000 -1.000000
vn 0.000000 0.000000 -1.000000
vn 0.000000 -0.000000 -1.000000
vn 0.000000 0.000000 -1.000000
vn 0.000000 -0.000000 -1.000000
vn 0.000000 -0.000000 -1.000000
vn 0.000000 -0.000000 -1.000000
vn 0.000000 -0.000000 -1.000000
vn 0.000000 0.000000 -1.000000
vn 0.000000 0.000000 -1.000000
vn 0.000000 0.000000 -1.000000
vn 0.000000 0.000000 -1.000000
vn 0.000000 0.000000 -1.000000
vn 0.000000 0.000000 -1.000000
vn -0.000000 0.000000 -1.000000
vn -0.000000 0.000000 -1.000000
vn 0.000000 -0.000000 -1.000000
vn 0.000001 0.000000 -1.000000
vn -0.000000 -0.000000 -1.000000
vn -0.000000 -0.000000 -1.000000
vn -0.000000 -0.000000 -1.000000
vn 0.000000 -0.000001 -1.000000
vn -0.000000 0.000000 -1.000000
vn -0.000000 0.000000 -1.000000
vn 0.000000 -0.000001 -1.000000
vn -0.000000 -0.000000 -1.000000
vn 0.000000 0.000000 -1.000000
vn 0.000000 0.000000 -1.000000
vn -0.000000 -0.000000 -1.000000
vn 0.000000 0.000000 -1.000000
vn 0.000000 0.000000 -1.000000
vn 0.000000 0.000000 -1.000000
vn 0.000000 0.000000 -1.000000
vn -0.000000 -0.000000 -1.000000
vn -0.000000 -0.000000 -1.000000
vn -0.000000 -0.000000 -1.000000
vn -0.000000 -0.000000 -1.000000
vn -0.000000 -0.000000 -1.000000
vn 0.000000 0.000000 -1.000000
vn 0.000000 0.000000 -1.000000
vn 0.000000 -0.000000 -1.000000
vn -0.000000 0.000000 -1.000000
vn 0.000000 0.000000 -1.000000
vn 0.000000 -0.000000 -1.000000
vn 0.000000 -0.000000 -1.000000
vn 0.000000 0.000000 -1.000000
vn -0.000000 0.000000 -1.000000
vn 0.000000 -0.000000 -1.000000
vn 0.000000 -0.000000 -1.000000
vn 0.000000 -0.000000 -1.000000
vn 0.000000 -0.000000 -1.000000
vn 0.000000 -0.000000 -1.000000
vn 0.000000 -0.000000 -1.000000
vn -0.000000 -0.000000 -1.000000
vn -0.000000 -0.000000 -1.000000
vn -0.000000 -0.000000 -1.000000
vn -0.000000 -0.000000 -1.000000
vn -0.000000 -0.000000 -1.000000
vn -0.000000 -0.000000 -1.000000
vn 0.000000 0.000000 -1.000000
vn -0.000000 0.000000 1.000000
vn 0.000000 0.000000 1.000000
vn -0.000000 0.000000 1.000000
vn -0.000000 0.000000 1.000000
vn 0.000000 0.000000 1.000000
vn 0.000000 0.000000 1.000000
vn 0.000000 0.000000 1.000000
vn 0.000000 0.000000 1.000000
vn 0.000000 0.000000 1.000000
vn 0.000000 0.000000 1.000000
vn 0.000000 0.000000 1.000000
vn 0.000000 0.000000 1.000000
vn 0.000000 0.000000 1.000000
vn 0.000000 0.000000 1.000000
vn 0.000000 0.000000 1.000000
vn 0.000000 0.000000 1.000000
vn 0.000000 0.000000 1.000000
vn -0.000000 0.000000 1.000000
vn 0.000000 0.000000 1.000000
vn 0.000000 0.000000 1.000000
vn -0.000000 0.000000 1.000000
vn -0.000000 0.000000 1.000000
vn -0.000000 0.000000 1.000000
vn -0.000000 0.000000 1.000000
vn 0.000000 0.000000 1.000000
vn 0.000000 0.000000 1.000000
vn 0.000000 0.000000 1.000000
vn 0.000000 0.000000 1.000000
vn 0.000000 0.000000 1.000000
vn 0.000000 0.000000 1.000000
vn 0.000000 0.000000 1.000000
vn 0.000000 0.000000 1.000000
vn 0.000000 0.000000 1.000000
vn -0.000000 0.000000 1.000000
vn 0.000000 0.000000 1.000000
vn 0.000000 0.000000 1.000000
vn 0.000000 0.000000 1.000000
vn 0.000000 0.000000 1.000000
vn 0.000000 0.000000 1.000000
vn 0.000000 0.000000 1.000000
vn 0.000000 0.000000 1.000000
vn 0.000000 0.000000 1.000000
vn 0.000000 0.000000 1.000000
vn 0.000000 0.000000 1.000000
vn 0.000000 0.000000 1.000000
vn 0.000000 0.000000 1.000000
vn 0.000000 0.000000 1.000000
vn 0.000000 0.000000 1.000000
vn 0.000000 0.000000 1.000000
vn -0.000000 0.000000 1.000000
vn -0.000000 0.000000 1.000000
vn -0.000000 0.000000 1.000000
vn 0.000000 0.000000 1.000000
vn 0.000000 0.000000 1.000000
vn 0.000000 0.000000 1.000000
vn 0.000000 0.000000 1.000000
vn 0.000000 -0.000000 1.000000
vn 0.000000 0.000000 1.000000
vn 0.000000 0.000000 1.000000
vn 0.000000 0.000000 1.000000
vn -0.000000 0.000000 1.000000
vn 0.000000 0.000000 1.000000
vn 0.000000 0.000000 1.000000
vn 0.000000 0.000000 1.000000
vn 0.000000 0.000000 1.000000
vn 0.000000 0.000000 1.000000
vn 0.000000 0.000000 1.000000
vn 0.000000 0.000000 1.000000
vn 0.000000 0.000000 1.000000
vn -0.000000 0.000000 1.000000
vn 0.000000 0.000000 1.000000
vn -0.000000 0.000000 1.000000
vn 0.000000 0.000000 1.000000
vn 0.000000 0.000000 1.000000
vn 0.000000 0.000000 1.000000
vn -0.000000 0.000000 1.000000
vn -1.000000 0.000000 0.000000
vn -1.000000 0.000000 0.000000
vn -1.000000 0.000000 0.000000
vn -1.000000 0.000000 0.000000
vn 1.000000 0.000000 0.000000
vn 1.000000 0.000000 0.000000
vn 1.000000 0.000000 0.000000
vn 1.000000 0.000000 0.000000
vn -0.707107 0.707107 0.000000
vn -0.707107 0.707107 0.000000
vn -0.707107 0.707107 0.000000
vn -0.707107 0.707107 0.000000
vn 0.707077 -0.707137 0.000000
vn 0.707077 -0.707137 0.000000
vn 0.707077 -0.707137 0.000000
vn 0.707077 -0.707137 0.000000
vn 0.000000 -1.000000 0.000000
vn 0.000000 -1.000000 0.000000
vn 0.000000 -1.000000 0.000000
vn 0.000000 -1.000000 0.000000
vn -0.553697 0.832719 0.000000
vn -0.553696 0.832719 0.000000
vn -0.553696 0.832719 0.000000
vn -0.553696 0.832719 0.000000
vn 0.000000 1.000000 0.000000
vn 0.000000 1.000000 0.000000
vn 0.000000 1.000000 0.000000
vn 0.000000 1.000000 0.000000
vn -0.707077 -0.707137 0.000000
vn -0.707077 -0.707137 0.000000
vn -0.707077 -0.707137 0.000000
vn -0.707077 -0.707137 0.000000
vn 0.707118 0.707096 0.000001
vn 0.707118 0.707096 0.000001
vn 0.707118 0.707096 0.000001
vn 0.707118 0.707096 0.000001
vn 1.000000 0.000000 0.000000
vn 1.000000 0.000000 0.000000
vn 1.000000 0.000000 0.000000
vn 1.000000 0.000000 0.000000
vn 0.707107 -0.707107 0.000000
vn 0.707107 -0.707107 0.000000
vn 0.707107 -0.707107 0.000000
vn 0.707107 -0.707107 0.000000
vn -0.707077 0.707137 0.000000
vn -0.707077 0.707137 0.000000
vn -0.707077 0.707137 0.000000
vn -0.707077 0.707137 0.000000
vn -0.000000 1.000000 0.000000
vn -0.000000 1.000000 0.000000
vn -0.000000 1.000000 0.000000
vn -0.000000 1.000000 0.000000
vn 0.679057 -0.734086 0.000000
vn 0.679057 -0.734086 0.000000
vn 0.679056 -0.734086 0.000000
vn 0.679057 -0.734086 0.000000
vn -0.000000 -1.000000 0.000000
vn -0.000000 -1.000000 0.000000
vn -0.000000 -1.000000 0.000000
vn -0.000000 -1.000000 0.000000
vn 1.000000 0.000000 0.000000
vn 1.000000 0.000000 0.000000
vn 1.000000 0.000000 0.000000
vn 1.000000 0.000000 0.000000
vn -1.000000 0.000000 0.000000
vn -1.000000 0.000000 0.000000
vn -1.000000 0.000000 0.000000
vn -1.000000 0.000000 0.000000
vn -1.000000 0.000000 0.000000
vn -1.000000 0.000000 0.000000
vn -1.000000 0.000000 0.000000
vn -1.000000 0.000000 0.000000
vn -0.695112 0.718902 0.000000
vn -0.695112 0.718902 0.000000
vn -0.695112 0.718902 0.000000
vn -0.695112 0.718902 0.000000
vn 0.000000 1.000000 0.000000
vn 0.000000 1.000000 0.000000
vn 0.000000 1.000000 0.000000
vn 0.000000 1.000000 0.000000
vn -0.000000 -1.000000 0.000000
vn -0.000000 -1.000000 0.000000
vn -0.000000 -1.000000 0.000000
vn -0.000000 -1.000000 0.000000
vn 0.000000 -1.000000 0.000000
vn 0.000000 -1.000000 0.000000
vn 0.000000 -1.000000 0.000000
vn 0.000000 -1.000000 0.000000
vn 0.000000 1.000000 0.000000
vn 0.000000 1.000000 0.000000
vn 0.000000 1.000000 0.000000
vn 0.000000 1.000000 0.000000
vn -0.707121 -0.707092 0.000000
vn -0.707121 -0.707092 0.000000
vn -0.707121 -0.707092 0.000000
vn -0.707121 -0.707092 0.000000
vn 0.707077 0.707137 0.000000
vn 0.707077 0.707137 0.000000
vn 0.707077 0.707137 0.000000
vn 0.707077 0.707137 0.000000
vn -1.000000 0.000000 0.000000
vn -1.000000 0.000000 0.000000
vn -1.000000 0.000000 0.000000
vn -1.000000 0.000000 0.000000
vn -0.751504 -0.659729 0.000000
vn -0.751504 -0.659729 0.000000
vn -0.751504 -0.659729 0.000000
vn -0.751504 -0.659729 0.000000
vn 1.000000 0.000000 0.000000
vn 1.000000 0.000000 0.000000
vn 1.000000 0.000000 0.000000
vn 1.000000 0.000000 0.000000
vn 0.525440 -0.850831 0.000000
vn 0.525440 -0.850831 0.000000
vn 0.525440 -0.850831 0.000000
vn 0.525440 -0.850831 0.000000
vn 0.751448 -0.659792 0.000000
vn 0.751448 -0.659792 0.000000
vn 0.751448 -0.659792 0.000000
vn 0.751448 -0.659792 0.000000
vn 0.698007 0.716091 0.000000
vn 0.698007 0.716091 0.000000
vn 0.698007 0.716091 0.000000
vn 0.698007 0.716091 0.000000
vn -1.000000 0.000000 0.000000
vn -1.000000 0.000000 0.000000
vn -1.000000 0.000000 0.000000
vn -1.000000 0.000000 0.000000
vn 1.000000 0.000000 0.000000
vn 1.000000 0.000000 0.000000
vn 1.000000 0.000000 0.000000
vn 1.000000 0.000000 0.000000
vn -0.754171 0.656678 0.000000
vn -0.754171 0.656678 0.000000
vn -0.754171 0.656678 0.000000
vn -0.754171 0.656678 0.000000
vn 1.000000 0.000000 0.000000
vn 1.000000 0.000000 0.000000
vn 1.000000 0.000000 0.000000
vn 1.000000 0.000000 0.000000
vn -1.000000 0.000000 0.000000
vn -1.000000 0.000000 0.000000
vn -1.000000 0.000000 0.000000
vn -1.000000 0.000000 0.000000
s off
f 37/85/1 38/86/2 39/87/3 40/88/4
f 38/86/5 41/89/6 42/90/7 39/87/8
f 44/91/9 43/92/10 45/93/11 46/94/12 47/95/13
f 48/96/14 44/91/15 47/97/16 49/98/17
f 50/100/18 48/96/19 49/99/20
f 51/101/21 52/102/22 53/103/23 54/104/24
f 56/105/25 55/106/26 57/107/27 58/108/28 59/109/29
f 60/110/30 51/101/31 54/104/32 61/111/33
f 37/85/34 40/88/35 62/112/36 63/113/37
f 41/89/38 45/114/39 43/92/40 42/90/41
f 52/102/42 57/115/43 55/106/44 53/103/45
f 56/105/46 59/116/47 64/117/48 65/118/49
f 65/118/50 64/119/51 66/120/52
f 62/112/53 40/88/54 67/121/55
f 60/110/56 61/111/57 68/122/58 69/123/59
f 70/124/60 48/96/61 50/100/62
f 68/122/63 61/111/64 71/125/65
f 71/125/66 61/111/67 48/96/68 70/124/69
f 65/118/70 66/120/71 72/126/72
f 40/88/73 65/118/74 72/126/75 67/121/76
f 16/43/77 15/46/78 7/45/79 1/44/80
f 1/44/81 7/45/82 8/48/83 2/47/84
f 9/49/85 23/53/86 27/52/87 18/51/88 17/50/89
f 10/54/90 21/56/91 23/55/92 9/49/93
f 32/57/94 21/58/95 10/54/96
f 4/59/97 11/62/98 12/61/99 3/60/100
f 6/63/101 26/67/102 28/66/103 20/65/104 19/64/105
f 13/68/106 14/69/107 11/62/108 4/59/109
f 16/43/110 25/71/111 30/70/112 15/46/113
f 2/47/114 8/48/115 17/50/116 18/72/117
f 3/60/118 12/61/119 19/64/120 20/73/121
f 6/63/122 5/76/123 24/75/124 26/74/125
f 5/76/126 29/78/127 24/77/128
f 30/70/129 36/79/130 15/46/131
f 13/68/132 22/81/133 31/80/134 14/69/135
f 34/82/136 32/57/137 10/54/138
f 31/80/139 33/83/140 14/69/141
f 33/83/142 34/82/143 10/54/144 14/69/145
f 5/76/146 35/84/147 29/78/148
f 15/46/149 36/79/150 35/84/151 5/76/152
f 16/16/153 1/4/154 38/86/155 37/85/156
f 7/7/157 15/15/158 40/88/159 39/87/160
f 1/4/161 2/3/162 41/89/163 38/86/164
f 8/8/165 7/7/166 39/87/167 42/90/168
f 9/9/169 17/17/170 43/92/171 44/91/172
f 18/29/173 27/30/174 46/94/175 45/93/176
f 27/30/177 23/31/178 47/95/179 46/94/180
f 10/10/181 9/9/182 44/91/183 48/96/184
f 23/23/185 21/24/186 49/98/187 47/97/188
f 21/21/189 32/38/190 50/100/191 49/99/192
f 4/1/193 3/2/194 52/102/195 51/101/196
f 12/12/197 11/11/198 54/104/199 53/103/200
f 6/5/201 19/19/202 55/106/203 56/105/204
f 20/32/205 28/33/206 58/108/207 57/107/208
f 28/33/209 26/34/210 59/109/211 58/108/212
f 13/13/213 4/1/214 51/101/215 60/110/216
f 11/11/217 14/14/218 61/111/219 54/104/220
f 30/36/221 25/26/222 63/113/223 62/112/224
f 25/26/225 16/16/226 37/85/227 63/113/228
f 2/3/229 18/18/230 45/114/231 41/89/232
f 17/17/233 8/8/234 42/90/235 43/92/236
f 3/2/237 20/20/238 57/115/239 52/102/240
f 19/19/241 12/12/242 53/103/243 55/106/244
f 26/27/245 24/28/246 64/117/247 59/116/248
f 5/6/249 6/5/250 56/105/251 65/118/252
f 24/25/253 29/35/254 66/120/255 64/119/256
f 36/42/257 30/36/258 62/112/259 67/121/260
f 31/37/261 22/22/262 69/123/263 68/122/264
f 22/22/265 13/13/266 60/110/267 69/123/268
f 32/38/269 34/40/270 70/124/271 50/100/272
f 33/39/273 31/37/274 68/122/275 71/125/276
f 14/14/277 10/10/278 48/96/279 61/111/280
f 34/40/281 33/39/282 71/125/283 70/124/284
f 29/35/285 35/41/286 72/126/287 66/120/288
f 15/15/289 5/6/290 65/118/291 40/88/292
f 35/41/293 36/42/294 67/121/295 72/126/296
