# This file uses meters as units for non-parametric coordinates.

v -15.072479 -16.567574 -0.711281
v -18.705750 -12.573662 -0.711281
v -21.252289 -7.848778 -0.711281
v -22.563782 -2.667961 -0.711281
v -22.563782 2.667732 -0.711281
v -21.252594 7.848244 -0.711281
v -18.706055 12.573433 -0.711281
v -15.072021 16.567497 -0.711281
v 15.072632 16.567574 -0.711281
v 18.705750 12.573395 -0.711281
v 21.252289 7.848282 -0.711281
v 22.563477 2.667732 -0.711281
v 22.563477 -2.668114 -0.711281
v 21.252594 -7.848587 -0.711281
v 18.705750 -12.573853 -0.711281
v 15.072174 -16.567497 -0.711281
v -13.744049 -15.513763 -0.711281
v -17.057343 -11.774025 -0.711281
v -19.379425 -7.349548 -0.711281
v -20.575256 -2.498398 -0.711281
v -20.575256 2.498093 -0.711281
v -19.379578 7.349548 -0.711281
v -17.057495 11.773949 -0.711281
v -13.744202 15.513763 -0.711281
v 13.744202 15.513840 -0.711281
v 17.057495 11.773911 -0.711281
v 19.379578 7.349434 -0.711281
v 20.575256 2.498055 -0.711281
v 20.575256 -2.498436 -0.711281
v 19.379425 -7.349510 -0.711281
v 17.057343 -11.773911 -0.711281
v 13.744049 -15.513840 -0.711281
v -17.625427 -0.000114 -0.711281
v -22.563782 -0.000114 -0.711281
v 17.625732 -0.000229 -0.711281
v 22.563782 -0.000267 -0.711281
v -15.072479 -16.567574 0.711281
v -18.705750 -12.573662 0.711282
v -17.057343 -11.774025 0.711282
v -13.744049 -15.513763 0.711281
v -21.252289 -7.848778 0.711281
v -19.379425 -7.349548 0.711281
v -22.563782 -2.667961 0.711281
v -20.575256 -2.498398 0.711281
v -22.563782 -0.000114 0.711281
v -22.563782 2.667732 0.711281
v -20.575256 2.498093 0.711281
v -17.625427 -0.000114 0.711281
v -21.252594 7.848244 0.711281
v -19.379578 7.349548 0.711281
v -18.706055 12.573433 0.711281
v -17.057495 11.773949 0.711281
v -15.072021 16.567497 0.711281
v -13.744202 15.513763 0.711281
v 15.072632 16.567574 0.711281
v 18.705750 12.573395 0.711281
v 17.057495 11.773911 0.711281
v 13.744202 15.513840 0.711281
v 21.252289 7.848282 0.711281
v 19.379578 7.349434 0.711281
v 22.563477 2.667732 0.711281
v 20.575256 2.498055 0.711281
v 22.563782 -0.000267 0.711281
v 22.563477 -2.668114 0.711281
v 20.575256 -2.498436 0.711281
v 17.625732 -0.000229 0.711281
v 21.252594 -7.848587 0.711282
v 19.379425 -7.349510 0.711282
v 18.705750 -12.573853 0.711282
v 17.057343 -11.773911 0.711282
v 15.072174 -16.567497 0.711281
v 13.744049 -15.513840 0.711281
vt 0.330180 0.385241
vt 0.330180 0.385241
vt 0.330180 0.385241
vt 0.330180 0.385241
vt 0.330180 0.385241
vt 0.330180 0.385241
vt 0.330180 0.385241
vt 0.330180 0.385241
vt 0.330180 0.385241
vt 0.330180 0.385241
vt 0.330180 0.385241
vt 0.330180 0.385241
vt 0.330180 0.385241
vt 0.330180 0.385241
vt 0.330180 0.385241
vt 0.330180 0.385241
vt 0.330180 0.385241
vt 0.330180 0.385241
vt 0.330180 0.385241
vt 0.330180 0.385241
vt 0.330180 0.385241
vt 0.330180 0.385241
vt 0.330180 0.385241
vt 0.330180 0.385241
vt 0.330180 0.385241
vt 0.330180 0.385241
vt 0.330180 0.385241
vt 0.330180 0.385241
vt 0.330180 0.385241
vt 0.330180 0.385241
vt 0.330180 0.385241
vt 0.330180 0.385241
vt 0.330180 0.385241
vt 0.330180 0.385241
vt 0.330180 0.385241
vt 0.330180 0.385241
vt 0.330180 0.385241
vt 0.330180 0.385241
vt 0.330180 0.385241
vt 0.330180 0.385241
vt 0.330180 0.385241
vt 0.330180 0.385241
vt 0.330180 0.385241
vt 0.330180 0.385241
vt 0.330180 0.385241
vt 0.330180 0.385241
vt 0.330180 0.385241
vt 0.330180 0.385241
vt 0.330180 0.385241
vt 0.330180 0.385241
vt 0.330180 0.385241
vt 0.330180 0.385241
vt 0.330180 0.385241
vt 0.330180 0.385241
vt 0.330180 0.385241
vt 0.330180 0.385241
vt 0.330180 0.385241
vt 0.330180 0.385241
vt 0.330180 0.385241
vt 0.330180 0.385241
vt 0.330180 0.385241
vt 0.330180 0.385241
vt 0.330180 0.385241
vt 0.330180 0.385241
vt 0.330180 0.385241
vt 0.330180 0.385241
vt 0.330180 0.385241
vt 0.330180 0.385241
vt 0.330180 0.385241
vt 0.330180 0.385241
vt 0.330180 0.385241
vt 0.330180 0.385241
vt 0.330180 0.385241
vt 0.330180 0.385241
vt 0.330180 0.385241
vt 0.330180 0.385241
vt 0.330180 0.385241
vt 0.330180 0.385241
vt 0.330180 0.385241
vt 0.330180 0.385241
vt 0.330180 0.385241
vt 0.330180 0.385241
vt 0.330180 0.385241
vt 0.330180 0.385241
vt 0.330180 0.385241
vt 0.330180 0.385241
vt 0.330180 0.385241
vt 0.330180 0.385241
vt 0.330180 0.385241
vt 0.330180 0.385241
vt 0.330180 0.385241
vt 0.330180 0.385241
vt 0.330180 0.385241
vt 0.330180 0.385241
vt 0.330180 0.385241
vt 0.330180 0.385241
vt 0.330180 0.385241
vt 0.330180 0.385241
vt 0.330180 0.385241
vt 0.330180 0.385241
vt 0.330180 0.385241
vt 0.330180 0.385241
vt 0.330180 0.385241
vt 0.330180 0.385241
vt 0.330180 0.385241
vt 0.330180 0.385241
vt 0.330180 0.385241
vt 0.330180 0.385241
vt 0.330180 0.385241
vt 0.330180 0.385241
vt 0.330180 0.385241
vt 0.330180 0.385241
vt 0.330180 0.385241
vt 0.330180 0.385241
vt 0.330180 0.385241
vt 0.330180 0.385241
vt 0.330180 0.385241
vt 0.330180 0.385241
vt 0.330180 0.385241
vt 0.330180 0.385241
vt 0.330180 0.385241
vt 0.330180 0.385241
vt 0.330180 0.385241
vt 0.330180 0.385241
vt 0.330180 0.385241
vt 0.330180 0.385241
vt 0.330180 0.385241
vt 0.330180 0.385241
vt 0.330180 0.385241
vt 0.330180 0.385241
vt 0.330180 0.385241
vt 0.330180 0.385241
vt 0.330180 0.385241
vt 0.330180 0.385241
vt 0.330180 0.385241
vt 0.330180 0.385241
vt 0.330180 0.385241
vt 0.330180 0.385241
vt 0.330180 0.385241
vt 0.330180 0.385241
vt 0.330180 0.385241
vt 0.330180 0.385241
vt 0.330180 0.385241
vt 0.330180 0.385241
vt 0.330180 0.385241
vt 0.330180 0.385241
vt 0.330180 0.385241
vt 0.330180 0.385241
vt 0.330180 0.385241
vt 0.330180 0.385241
vt 0.330180 0.385241
vt 0.330180 0.385241
vt 0.330180 0.385241
vt 0.330180 0.385241
vt 0.330180 0.385241
vt 0.330180 0.385241
vt 0.330180 0.385241
vt 0.330180 0.385241
vt 0.330180 0.385241
vt 0.330180 0.385241
vt 0.330180 0.385241
vt 0.330180 0.385241
vt 0.330180 0.385241
vn 0.000000 -0.000000 1.000000
vn 0.000000 -0.000000 1.000000
vn 0.000000 -0.000000 1.000000
vn 0.000000 -0.000000 1.000000
vn -0.000000 0.000000 1.000000
vn -0.000000 0.000000 1.000000
vn -0.000000 0.000000 1.000000
vn -0.000000 0.000000 1.000000
vn 0.000000 0.000000 1.000000
vn 0.000000 0.000000 1.000000
vn 0.000000 0.000000 1.000000
vn 0.000000 0.000000 1.000000
vn 0.000000 0.000000 1.000000
vn 0.000000 0.000000 1.000000
vn 0.000000 0.000000 1.000000
vn 0.000000 0.000000 1.000000
vn 0.000000 0.000000 1.000000
vn 0.000000 0.000000 1.000000
vn 0.000000 0.000000 1.000000
vn 0.000000 0.000000 1.000000
vn 0.000000 0.000000 1.000000
vn 0.000000 0.000000 1.000000
vn 0.000000 0.000000 1.000000
vn 0.000000 0.000000 1.000000
vn 0.000000 0.000000 1.000000
vn 0.000000 0.000000 1.000000
vn 0.000000 0.000000 1.000000
vn 0.000000 0.000000 1.000000
vn 0.000000 0.000000 1.000000
vn 0.000000 0.000000 1.000000
vn 0.000000 0.000000 1.000000
vn 0.000000 0.000000 1.000000
vn 0.000000 0.000000 1.000000
vn 0.000000 0.000000 1.000000
vn 0.000000 0.000000 1.000000
vn 0.000000 0.000000 1.000000
vn -0.000000 0.000000 1.000000
vn -0.000000 0.000000 1.000000
vn -0.000000 0.000000 1.000000
vn -0.000000 0.000000 1.000000
vn -0.000000 0.000000 1.000000
vn -0.000000 0.000000 1.000000
vn -0.000000 0.000000 1.000000
vn -0.000000 0.000000 1.000000
vn 0.000000 0.000000 1.000000
vn 0.000000 0.000000 1.000000
vn 0.000000 0.000000 1.000000
vn 0.000000 0.000000 1.000000
vn 0.000000 0.000000 1.000000
vn 0.000000 0.000000 1.000000
vn 0.000000 0.000000 1.000000
vn 0.000000 0.000000 1.000000
vn -0.000000 -0.000000 1.000000
vn -0.000000 -0.000000 1.000000
vn -0.000000 -0.000000 1.000000
vn -0.000000 -0.000000 1.000000
vn 0.000000 0.000000 1.000000
vn 0.000000 0.000000 1.000000
vn 0.000000 0.000000 1.000000
vn 0.000000 0.000000 1.000000
vn 0.000000 0.000000 1.000000
vn 0.000000 0.000000 1.000000
vn -0.000000 0.000000 1.000000
vn -0.000000 0.000000 1.000000
vn 0.000000 0.000000 -1.000000
vn 0.000000 0.000000 -1.000000
vn 0.000000 0.000000 -1.000000
vn 0.000000 0.000000 -1.000000
vn 0.000000 0.000000 -1.000000
vn 0.000000 0.000000 -1.000000
vn 0.000000 0.000000 -1.000000
vn 0.000000 0.000000 -1.000000
vn -0.000000 0.000000 -1.000000
vn -0.000000 0.000000 -1.000000
vn -0.000000 0.000000 -1.000000
vn -0.000000 0.000000 -1.000000
vn -0.000000 -0.000000 -1.000000
vn -0.000000 0.000000 -1.000000
vn -0.000000 0.000000 -1.000000
vn -0.000000 -0.000000 -1.000000
vn -0.000000 -0.000000 -1.000000
vn -0.000000 -0.000000 -1.000000
vn -0.000000 -0.000000 -1.000000
vn -0.000000 -0.000000 -1.000000
vn -0.000000 0.000000 -1.000000
vn -0.000000 0.000000 -1.000000
vn -0.000000 0.000000 -1.000000
vn -0.000000 0.000000 -1.000000
vn -0.000000 0.000000 -1.000000
vn -0.000000 0.000000 -1.000000
vn -0.000000 0.000000 -1.000000
vn -0.000000 0.000000 -1.000000
vn -0.000000 0.000000 -1.000000
vn -0.000000 0.000000 -1.000000
vn -0.000000 0.000000 -1.000000
vn -0.000000 0.000000 -1.000000
vn -0.000000 0.000000 -1.000000
vn -0.000000 0.000000 -1.000000
vn -0.000000 0.000000 -1.000000
vn -0.000000 0.000000 -1.000000
vn 0.000000 -0.000000 -1.000000
vn 0.000000 -0.000000 -1.000000
vn 0.000000 -0.000000 -1.000000
vn 0.000000 -0.000000 -1.000000
vn 0.000000 -0.000000 -1.000000
vn 0.000000 -0.000000 -1.000000
vn 0.000000 -0.000000 -1.000000
vn 0.000000 0.000000 -1.000000
vn -0.000000 0.000000 -1.000000
vn -0.000000 0.000000 -1.000000
vn -0.000000 0.000000 -1.000000
vn -0.000000 0.000000 -1.000000
vn -0.000000 0.000000 -1.000000
vn -0.000000 0.000000 -1.000000
vn -0.000000 0.000000 -1.000000
vn -0.000000 0.000000 -1.000000
vn -0.000000 0.000000 -1.000000
vn -0.000000 0.000000 -1.000000
vn -0.000000 0.000000 -1.000000
vn -0.000000 0.000000 -1.000000
vn -0.000000 -0.000000 -1.000000
vn -0.000000 -0.000000 -1.000000
vn -0.000000 -0.000000 -1.000000
vn -0.000000 -0.000000 -1.000000
vn 0.000000 0.000000 -1.000000
vn 0.000000 -0.000000 -1.000000
vn 0.000000 0.000000 -1.000000
vn 0.000000 0.000000 -1.000000
vn -0.739715 -0.672920 0.000000
vn -0.739715 -0.672920 0.000000
vn -0.739715 -0.672920 0.000000
vn -0.739715 -0.672920 0.000000
vn 0.748494 0.663142 0.000000
vn 0.748494 0.663142 0.000000
vn 0.748494 0.663142 0.000000
vn 0.748494 0.663142 0.000000
vn 0.621477 -0.783432 0.000000
vn 0.621477 -0.783432 0.000000
vn 0.621477 -0.783432 0.000000
vn 0.621477 -0.783432 0.000000
vn -0.880287 -0.474442 0.000000
vn -0.880287 -0.474442 0.000000
vn -0.880287 -0.474442 0.000000
vn -0.880287 -0.474442 0.000000
vn 0.885461 0.464714 0.000000
vn 0.885461 0.464714 0.000000
vn 0.885461 0.464714 0.000000
vn 0.885461 0.464714 0.000000
vn -0.969421 -0.245403 0.000000
vn -0.969421 -0.245403 0.000000
vn -0.969421 -0.245403 0.000000
vn -0.969421 -0.245403 0.000000
vn 0.970936 0.239340 0.000000
vn 0.970936 0.239340 0.000000
vn 0.970936 0.239340 0.000000
vn 0.970936 0.239340 0.000000
vn -1.000000 -0.000001 0.000000
vn -1.000000 -0.000001 0.000000
vn -1.000000 -0.000001 0.000000
vn -1.000000 -0.000001 0.000000
vn 0.646274 0.763106 0.000000
vn 0.646274 0.763106 0.000000
vn 0.646274 0.763106 0.000000
vn 0.646274 0.763106 0.000000
vn -0.969431 0.245363 0.000000
vn -0.969431 0.245363 0.000000
vn -0.969431 0.245363 0.000000
vn -0.969431 0.245363 0.000000
vn 0.970946 -0.239297 0.000000
vn 0.970946 -0.239297 0.000000
vn 0.970946 -0.239297 0.000000
vn 0.970946 -0.239297 0.000000
vn -0.880299 0.474419 0.000000
vn -0.880299 0.474419 0.000000
vn -0.880299 0.474419 0.000000
vn -0.880299 0.474419 0.000000
vn 0.885458 -0.464720 0.000000
vn 0.885458 -0.464720 0.000000
vn 0.885458 -0.464720 0.000000
vn 0.885458 -0.464720 0.000000
vn -0.739657 0.672984 0.000000
vn -0.739657 0.672984 0.000000
vn -0.739657 0.672984 0.000000
vn -0.739657 0.672984 0.000000
vn 0.621625 0.783315 0.000000
vn 0.621625 0.783315 0.000000
vn 0.621625 0.783315 0.000000
vn 0.621625 0.783315 0.000000
vn 0.748500 -0.663135 0.000000
vn 0.748500 -0.663135 0.000000
vn 0.748500 -0.663135 0.000000
vn 0.748500 -0.663135 0.000000
vn -1.000000 0.000001 0.000000
vn -1.000000 0.000001 0.000000
vn -1.000000 0.000001 0.000000
vn -1.000000 0.000001 0.000000
vn 0.646285 -0.763096 0.000000
vn 0.646285 -0.763096 0.000000
vn 0.646285 -0.763096 0.000000
vn 0.646285 -0.763096 0.000000
vn 0.739751 0.672880 0.000000
vn 0.739751 0.672880 0.000000
vn 0.739751 0.672880 0.000000
vn 0.739751 0.672880 0.000000
vn -0.748510 -0.663123 0.000000
vn -0.748510 -0.663123 0.000000
vn -0.748510 -0.663123 0.000000
vn -0.748510 -0.663123 0.000000
vn -0.621449 0.783454 0.000000
vn -0.621449 0.783454 0.000000
vn -0.621449 0.783454 0.000000
vn -0.621449 0.783454 0.000000
vn 0.880296 0.474424 0.000000
vn 0.880296 0.474424 0.000000
vn 0.880296 0.474424 0.000000
vn 0.880296 0.474424 0.000000
vn -0.885461 -0.464713 0.000000
vn -0.885461 -0.464713 0.000000
vn -0.885461 -0.464713 0.000000
vn -0.885461 -0.464713 0.000000
vn 0.969432 0.245362 0.000000
vn 0.969432 0.245362 0.000000
vn 0.969432 0.245362 0.000000
vn 0.969432 0.245362 0.000000
vn -0.970945 -0.239301 0.000000
vn -0.970945 -0.239301 0.000000
vn -0.970945 -0.239301 0.000000
vn -0.970945 -0.239301 0.000000
vn 1.000000 -0.000114 0.000000
vn 1.000000 -0.000114 0.000000
vn 1.000000 -0.000114 0.000000
vn 1.000000 -0.000114 0.000000
vn -0.646313 -0.763073 0.000000
vn -0.646313 -0.763073 0.000000
vn -0.646313 -0.763073 0.000000
vn -0.646313 -0.763073 0.000000
vn 0.969444 -0.245311 0.000000
vn 0.969444 -0.245311 0.000000
vn 0.969444 -0.245311 0.000000
vn 0.969444 -0.245311 0.000000
vn -0.970935 0.239344 0.000000
vn -0.970935 0.239344 0.000000
vn -0.970935 0.239344 0.000000
vn -0.970935 0.239344 0.000000
vn 0.880279 -0.474457 0.000000
vn 0.880279 -0.474457 0.000000
vn 0.880279 -0.474457 0.000000
vn 0.880279 -0.474457 0.000000
vn -0.885458 0.464720 0.000000
vn -0.885458 0.464720 0.000000
vn -0.885458 0.464720 0.000000
vn -0.885458 0.464720 0.000000
vn 0.739664 -0.672976 0.000000
vn 0.739664 -0.672976 0.000000
vn 0.739664 -0.672976 0.000000
vn 0.739664 -0.672976 0.000000
vn -0.621510 -0.783407 0.000000
vn -0.621510 -0.783407 0.000000
vn -0.621510 -0.783407 0.000000
vn -0.621510 -0.783407 0.000000
vn -0.748510 0.663123 0.000000
vn -0.748510 0.663123 0.000000
vn -0.748510 0.663123 0.000000
vn -0.748510 0.663123 0.000000
vn 1.000000 0.000114 0.000000
vn 1.000000 0.000114 0.000000
vn 1.000000 0.000114 0.000000
vn 1.000000 0.000114 0.000000
vn -0.646324 0.763063 0.000000
vn -0.646324 0.763063 0.000000
vn -0.646324 0.763063 0.000000
vn -0.646324 0.763063 0.000000
s off
f 37/73/1 40/76/2 39/75/3 38/74/4
f 38/74/5 39/75/6 42/78/7 41/77/8
f 41/77/9 42/78/10 44/80/11 43/79/12
f 45/81/13 48/84/14 47/83/15 46/82/16
f 46/82/17 47/83/18 50/86/19 49/85/20
f 49/85/21 50/86/22 52/88/23 51/87/24
f 51/87/25 52/88/26 54/90/27 53/89/28
f 55/91/29 58/94/30 57/93/31 56/92/32
f 56/92/33 57/93/34 60/96/35 59/95/36
f 59/95/37 60/96/38 62/98/39 61/97/40
f 63/99/41 66/102/42 65/101/43 64/100/44
f 64/100/45 65/101/46 68/104/47 67/103/48
f 67/103/49 68/104/50 70/106/51 69/105/52
f 69/105/53 70/106/54 72/108/55 71/107/56
f 43/79/57 44/80/58 48/84/59 45/81/60
f 61/97/61 62/98/62 66/102/63 63/99/64
f 1/37/65 2/38/66 18/39/67 17/40/68
f 2/38/69 3/41/70 19/42/71 18/39/72
f 3/41/73 4/43/74 20/44/75 19/42/76
f 34/45/77 5/46/78 21/47/79 33/48/80
f 5/46/81 6/49/82 22/50/83 21/47/84
f 6/49/85 7/51/86 23/52/87 22/50/88
f 7/51/89 8/53/90 24/54/91 23/52/92
f 9/55/93 10/56/94 26/57/95 25/58/96
f 10/56/97 11/59/98 27/60/99 26/57/100
f 11/59/101 12/61/102 28/62/103 27/60/104
f 36/63/105 13/64/106 29/65/107 35/66/108
f 13/64/109 14/67/110 30/68/111 29/65/112
f 14/67/113 15/69/114 31/70/115 30/68/116
f 15/69/117 16/71/118 32/72/119 31/70/120
f 4/43/121 34/45/122 33/48/123 20/44/124
f 12/61/125 36/63/126 35/66/127 28/62/128
f 1/16/129 37/73/130 38/74/131 2/15/132
f 18/18/133 39/75/134 40/76/135 17/17/136
f 17/17/137 40/76/138 37/73/139 1/16/140
f 2/15/141 38/74/142 41/77/143 3/14/144
f 19/19/145 42/78/146 39/75/147 18/18/148
f 3/14/149 41/77/150 43/79/151 4/13/152
f 20/20/153 44/80/154 42/78/155 19/19/156
f 34/34/157 45/81/158 46/82/159 5/12/160
f 21/21/161 47/83/162 48/84/163 33/33/164
f 5/12/165 46/82/166 49/85/167 6/11/168
f 22/22/169 50/86/170 47/83/171 21/21/172
f 6/11/173 49/85/174 51/87/175 7/10/176
f 23/23/177 52/88/178 50/86/179 22/22/180
f 7/10/181 51/87/182 53/89/183 8/9/184
f 8/9/185 53/89/186 54/90/187 24/24/188
f 24/24/189 54/90/190 52/88/191 23/23/192
f 4/8/193 43/110/194 45/109/195 34/7/196
f 33/26/197 48/112/198 44/111/199 20/25/200
f 9/113/201 55/116/202 56/115/203 10/114/204
f 26/117/205 57/119/206 58/118/207 25/6/208
f 25/27/209 58/122/210 55/121/211 9/120/212
f 10/123/213 56/125/214 59/124/215 11/5/216
f 27/28/217 60/128/218 57/127/219 26/126/220
f 11/36/221 59/130/222 61/129/223 12/4/224
f 28/29/225 62/132/226 60/131/227 27/35/228
f 36/133/229 63/135/230 64/134/231 13/3/232
f 29/30/233 65/138/234 66/137/235 35/136/236
f 13/3/237 64/140/238 67/139/239 14/2/240
f 30/31/241 68/142/242 65/141/243 29/30/244
f 14/2/245 67/144/246 69/143/247 15/1/248
f 31/145/249 70/147/250 68/146/251 30/32/252
f 15/148/253 69/151/254 71/150/255 16/149/256
f 16/152/257 71/155/258 72/154/259 32/153/260
f 32/156/261 72/159/262 70/158/263 31/157/264
f 12/160/265 61/97/266 63/99/267 36/161/268
f 35/162/269 66/102/270 62/98/271 28/163/272
