# This file uses meters as units for non-parametric coordinates.

v 48.061523 0.000000 -0.619476
v -48.061554 0.000000 -0.619476
v 44.351501 0.000000 -0.619476
v -44.351471 0.000000 -0.619476
v 48.061523 0.000000 0.619476
v 44.351501 0.000000 0.619476
v -48.061554 0.000000 0.619476
v -44.351471 0.000000 0.619476
v -27.446564 20.902100 -0.619461
v 27.445679 20.902100 -0.619476
v 26.289978 18.061523 -0.619476
v -26.290283 18.061218 -0.619476
v 27.445984 -20.902100 -0.619461
v -27.445953 -20.902100 -0.619461
v -26.290558 -18.061523 -0.619461
v 26.290588 -18.061523 -0.619461
v 27.445679 20.902100 0.619476
v -27.446564 20.902100 0.619461
v 26.289978 18.061523 0.619476
v -26.290283 18.061218 0.619476
v 27.445984 -20.902100 0.619461
v -27.445953 -20.902100 0.619461
v 26.290588 -18.061523 0.619461
v -26.290558 -18.061523 0.619461
vt 0.330180 0.385241
vt 0.330180 0.385241
vt 0.330180 0.385241
vt 0.330180 0.385241
vt 0.330180 0.385241
vt 0.330180 0.385241
vt 0.330180 0.385241
vt 0.330180 0.385241
vt 0.330180 0.385241
vt 0.330180 0.385241
vt 0.330180 0.385241
vt 0.330180 0.385241
vt 0.330180 0.385241
vt 0.330180 0.385241
vt 0.330180 0.385241
vt 0.330180 0.385241
vt 0.330180 0.385241
vt 0.330180 0.385241
vt 0.330180 0.385241
vt 0.330180 0.385241
vt 0.330180 0.385241
vt 0.330180 0.385241
vt 0.330180 0.385241
vt 0.330180 0.385241
vt 0.330180 0.385241
vt 0.330180 0.385241
vt 0.330180 0.385241
vt 0.330180 0.385241
vt 0.330180 0.385241
vn 0.000000 1.000000 0.000000
vn 0.000000 1.000000 0.000000
vn 0.000000 1.000000 0.000000
vn 0.000000 1.000000 0.000000
vn -0.000000 0.000002 -1.000000
vn -0.000000 0.000002 -1.000000
vn -0.000001 0.000003 -1.000000
vn -0.000001 0.000003 -1.000000
vn 0.000006 -1.000000 0.000000
vn 0.000006 -1.000000 0.000000
vn 0.000006 -1.000000 0.000000
vn 0.000006 -1.000000 0.000000
vn 0.000000 -1.000000 0.000000
vn 0.000000 -1.000000 0.000000
vn 0.000000 -1.000000 0.000000
vn 0.000000 -1.000000 0.000000
vn 0.000000 -0.000000 -1.000000
vn 0.000000 -0.000000 -1.000000
vn -0.000000 -0.000000 -1.000000
vn -0.000000 -0.000000 -1.000000
vn 0.000000 1.000000 0.000000
vn 0.000000 1.000000 0.000000
vn 0.000000 1.000000 0.000000
vn 0.000000 1.000000 0.000000
vn -0.000001 0.000003 1.000000
vn -0.000001 0.000003 1.000000
vn -0.000000 0.000002 1.000000
vn -0.000000 0.000002 1.000000
vn -0.000000 -0.000000 1.000000
vn -0.000000 -0.000000 1.000000
vn 0.000000 -0.000000 1.000000
vn 0.000000 -0.000000 1.000000
vn -0.000000 0.000002 1.000000
vn -0.000000 0.000002 1.000000
vn -0.000000 -0.000000 1.000000
vn -0.000000 -0.000000 1.000000
vn -0.000000 -0.000000 1.000000
vn -0.000000 -0.000000 1.000000
vn -0.000000 -0.000000 1.000000
vn -0.000000 -0.000000 1.000000
vn 0.000000 -0.000000 1.000000
vn 0.000000 -0.000000 1.000000
vn -0.000001 0.000001 1.000000
vn -0.000001 0.000001 1.000000
vn -0.000001 0.000001 1.000000
vn -0.000001 0.000001 1.000000
vn -0.000001 0.000003 1.000000
vn -0.000001 0.000003 1.000000
vn -0.000000 0.000002 -1.000000
vn -0.000000 -0.000000 -1.000000
vn -0.000000 -0.000000 -1.000000
vn -0.000000 0.000002 -1.000000
vn -0.000000 -0.000000 -1.000000
vn -0.000000 -0.000000 -1.000000
vn -0.000000 -0.000000 -1.000000
vn -0.000000 -0.000000 -1.000000
vn 0.000000 -0.000000 -1.000000
vn -0.000001 0.000001 -1.000000
vn -0.000001 0.000001 -1.000000
vn 0.000000 -0.000000 -1.000000
vn -0.000001 0.000001 -1.000000
vn -0.000001 0.000003 -1.000000
vn -0.000001 0.000003 -1.000000
vn -0.000001 0.000001 -1.000000
vn 0.711965 0.702215 0.000000
vn 0.711965 0.702215 0.000000
vn 0.711965 0.702215 0.000000
vn 0.711965 0.702215 0.000000
vn -0.707107 -0.707107 0.000000
vn -0.707107 -0.707107 0.000000
vn -0.707107 -0.707107 0.000000
vn -0.707107 -0.707107 0.000000
vn 0.711970 -0.702210 0.000000
vn 0.711970 -0.702210 0.000000
vn 0.711970 -0.702210 0.000000
vn 0.711970 -0.702210 0.000000
vn -0.707119 0.707095 0.000000
vn -0.707119 0.707095 0.000000
vn -0.707119 0.707095 0.000000
vn -0.707119 0.707095 0.000000
vn -0.711969 -0.702211 0.000000
vn -0.711969 -0.702211 0.000000
vn -0.711969 -0.702211 0.000000
vn -0.711969 -0.702211 0.000000
vn 0.707119 0.707095 0.000000
vn 0.707119 0.707095 0.000000
vn 0.707119 0.707095 0.000000
vn 0.707119 0.707095 0.000000
vn -0.711980 0.702200 0.000000
vn -0.711980 0.702200 0.000000
vn -0.711980 0.702200 0.000000
vn -0.711980 0.702200 0.000000
vn 0.707107 -0.707106 0.000000
vn 0.707107 -0.707106 0.000000
vn 0.707107 -0.707106 0.000000
vn 0.707107 -0.707106 0.000000
s off
f 9/1/1 18/27/2 17/6/3 10/18/4
f 10/18/5 11/12/6 12/28/7 9/2/8
f 11/12/9 19/19/10 20/11/11 12/3/12
f 13/14/13 21/21/14 22/9/15 14/24/16
f 14/4/17 15/15/18 16/22/19 13/14/20
f 15/5/21 24/25/22 23/8/23 16/22/24
f 18/27/25 20/11/26 19/19/27 17/6/28
f 21/21/29 23/8/30 24/25/31 22/9/32
f 17/6/33 19/19/34 6/23/35 5/7/36
f 5/7/37 6/23/38 23/8/39 21/21/40
f 22/9/41 24/25/42 8/29/43 7/10/44
f 7/10/45 8/29/46 20/11/47 18/27/48
f 10/18/49 1/20/50 3/13/51 11/12/52
f 1/20/53 13/14/54 16/22/55 3/13/56
f 14/24/57 2/26/58 4/16/59 15/15/60
f 2/26/61 9/17/62 12/28/63 4/16/64
f 10/18/65 17/6/66 5/7/67 1/20/68
f 3/13/69 6/23/70 19/19/71 11/12/72
f 1/20/73 5/7/74 21/21/75 13/14/76
f 16/22/77 23/8/78 6/23/79 3/13/80
f 14/24/81 22/9/82 7/10/83 2/26/84
f 4/16/85 8/29/86 24/25/87 15/15/88
f 2/26/89 7/10/90 18/27/91 9/1/92
f 12/28/93 20/11/94 8/29/95 4/16/96
