# This file uses meters as units for non-parametric coordinates.

v 13.287354 14.507122 0.630711
v 15.193481 12.600993 0.630711
v -36.804504 -12.600927 0.630711
v -34.898682 -14.507055 0.630711
v -34.142761 13.681946 0.630711
v -35.940247 11.884307 0.630711
v 12.531433 13.682013 0.630711
v 14.329224 11.884221 0.630711
v 14.329224 -11.884089 0.630711
v 12.531433 -13.681879 0.630711
v -34.142761 -13.681793 0.630711
v -35.940247 -11.884003 0.630711
v 0.000305 -14.507027 0.630711
v 0.000305 -13.681831 0.630711
v -23.373718 13.682013 0.630711
v -21.611328 14.507256 0.630711
v 14.329224 0.000067 0.630711
v 15.193481 -0.000019 0.630711
v -35.940247 0.000153 0.630711
v -36.804504 0.000086 0.630711
v 14.287720 -15.599396 0.630712
v 0.674744 -15.599327 0.630711
v 16.337280 -13.549614 0.630711
v -35.899048 15.599461 0.630711
v -22.667542 15.599461 0.630711
v -37.948608 13.549814 0.630711
v 16.337280 -1.720085 0.630711
v -37.948608 1.236582 0.630711
v -28.755188 15.599461 0.630711
v -25.183411 15.599470 0.630711
v 7.144165 -15.599394 0.630711
v 10.715942 -15.599251 0.630711
v 7.908325 -14.815207 0.630711
v 9.822998 -14.815216 0.630711
v -27.854919 14.815434 0.630711
v -26.076355 14.815511 0.630711
v -21.611328 14.507256 -0.630711
v 13.287354 14.507122 -0.630711
v 12.531433 13.682014 -0.630711
v -23.373718 13.682014 -0.630711
v 15.193481 12.600994 -0.630711
v 14.329224 11.884222 -0.630711
v 14.329224 0.000067 -0.630711
v 14.329224 -11.884089 -0.630712
v 15.193481 -0.000019 -0.630711
v 16.337280 -1.720085 -0.630711
v 16.337280 -13.549614 -0.630712
v 12.531433 -13.681879 -0.630712
v 14.287720 -15.599396 -0.630712
v 10.715637 -15.599251 -0.630712
v -34.898682 -14.507056 -0.630712
v -36.804810 -12.600927 -0.630712
v -35.940552 -11.884003 -0.630712
v -34.142761 -13.681793 -0.630712
v -35.940552 0.000153 -0.630711
v -35.940552 11.884308 -0.630711
v -36.804810 0.000086 -0.630711
v -37.948608 1.236582 -0.630711
v -37.948608 13.549815 -0.630711
v 0.000305 -14.507028 -0.630712
v 0.000305 -13.681831 -0.630712
v -25.183411 15.599470 -0.630711
v -22.667542 15.599461 -0.630711
v -35.899048 15.599461 -0.630711
v -34.142761 13.681947 -0.630711
v -28.755188 15.599461 -0.630711
v -26.076355 14.815512 -0.630711
v 7.143860 -15.599394 -0.630712
v 0.674744 -15.599327 -0.630712
v 9.822693 -14.815216 -0.630712
v 7.908020 -14.815207 -0.630712
v -27.854919 14.815435 -0.630711
vt 0.330180 0.385241
vt 0.330180 0.385241
vt 0.330180 0.385241
vt 0.330180 0.385241
vt 0.330180 0.385241
vt 0.330180 0.385241
vt 0.330180 0.385241
vt 0.330180 0.385241
vt 0.330180 0.385241
vt 0.330180 0.385241
vt 0.330180 0.385241
vt 0.330180 0.385241
vt 0.330180 0.385241
vt 0.330180 0.385241
vt 0.330180 0.385241
vt 0.330180 0.385241
vt 0.330180 0.385241
vt 0.330180 0.385241
vt 0.330180 0.385241
vt 0.330180 0.385241
vt 0.330180 0.385241
vt 0.330180 0.385241
vt 0.330180 0.385241
vt 0.330180 0.385241
vt 0.330180 0.385241
vt 0.330180 0.385241
vt 0.330180 0.385241
vt 0.330180 0.385241
vt 0.330180 0.385241
vt 0.330180 0.385241
vt 0.330180 0.385241
vt 0.330180 0.385241
vt 0.330180 0.385241
vt 0.330180 0.385241
vt 0.330180 0.385241
vt 0.330180 0.385241
vt 0.330180 0.385241
vt 0.330180 0.385241
vt 0.330180 0.385241
vt 0.330180 0.385241
vt 0.330180 0.385241
vt 0.330180 0.385241
vt 0.330180 0.385241
vt 0.330180 0.385241
vt 0.330180 0.385241
vt 0.330180 0.385241
vt 0.330180 0.385241
vt 0.330180 0.385241
vt 0.330180 0.385241
vt 0.330180 0.385241
vt 0.330180 0.385241
vt 0.330180 0.385241
vt 0.330180 0.385241
vt 0.330180 0.385241
vt 0.330180 0.385241
vt 0.330180 0.385241
vt 0.330180 0.385241
vt 0.330180 0.385241
vt 0.330180 0.385241
vt 0.330180 0.385241
vt 0.330180 0.385241
vt 0.330180 0.385241
vt 0.330180 0.385241
vt 0.330180 0.385241
vt 0.330180 0.385241
vt 0.330180 0.385241
vt 0.330180 0.385241
vt 0.330180 0.385241
vt 0.330180 0.385241
vt 0.330180 0.385241
vt 0.330180 0.385241
vt 0.330180 0.385241
vt 0.330180 0.385241
vt 0.330180 0.385241
vt 0.330180 0.385241
vt 0.330180 0.385241
vt 0.330180 0.385241
vt 0.330180 0.385241
vt 0.330180 0.385241
vt 0.330180 0.385241
vt 0.330180 0.385241
vt 0.330180 0.385241
vt 0.330180 0.385241
vt 0.330180 0.385241
vt 0.330180 0.385241
vt 0.330180 0.385241
vt 0.330180 0.385241
vt 0.330180 0.385241
vt 0.330180 0.385241
vt 0.330180 0.385241
vt 0.330180 0.385241
vt 0.330180 0.385241
vt 0.330180 0.385241
vt 0.330180 0.385241
vt 0.330180 0.385241
vt 0.330180 0.385241
vt 0.330180 0.385241
vt 0.330180 0.385241
vt 0.330180 0.385241
vt 0.330180 0.385241
vt 0.330180 0.385241
vt 0.330180 0.385241
vt 0.330180 0.385241
vt 0.330180 0.385241
vt 0.330180 0.385241
vt 0.330180 0.385241
vt 0.330180 0.385241
vt 0.330180 0.385241
vt 0.330180 0.385241
vt 0.330180 0.385241
vt 0.330180 0.385241
vt 0.330180 0.385241
vt 0.330180 0.385241
vt 0.330180 0.385241
vt 0.330180 0.385241
vt 0.330180 0.385241
vt 0.330180 0.385241
vt 0.330180 0.385241
vt 0.330180 0.385241
vt 0.330180 0.385241
vt 0.330180 0.385241
vt 0.330180 0.385241
vt 0.330180 0.385241
vt 0.330180 0.385241
vt 0.330180 0.385241
vt 0.330180 0.385241
vn 0.000000 0.000000 -1.000000
vn 0.000000 0.000000 -1.000000
vn 0.000000 0.000000 -1.000000
vn -0.000000 0.000000 -1.000000
vn 0.000000 0.000000 -1.000000
vn 0.000000 0.000000 -1.000000
vn 0.000000 0.000000 -1.000000
vn 0.000000 0.000000 -1.000000
vn 0.000000 0.000000 -1.000000
vn 0.000000 0.000000 -1.000000
vn 0.000000 0.000000 -1.000000
vn 0.000000 0.000000 -1.000000
vn 0.000000 0.000000 -1.000000
vn 0.000000 0.000000 -1.000000
vn 0.000000 0.000000 -1.000000
vn 0.000000 0.000000 -1.000000
vn 0.000000 0.000000 -1.000000
vn 0.000000 0.000000 -1.000000
vn 0.000000 0.000000 -1.000000
vn -0.000000 0.000000 -1.000000
vn -0.000000 0.000000 -1.000000
vn -0.000000 0.000000 -1.000000
vn -0.000000 0.000000 -1.000000
vn -0.000000 0.000000 -1.000000
vn 0.000000 0.000000 -1.000000
vn 0.000000 0.000000 -1.000000
vn 0.000000 0.000000 -1.000000
vn 0.000000 0.000000 -1.000000
vn 0.000000 0.000000 -1.000000
vn 0.000000 0.000000 -1.000000
vn -0.000000 0.000000 -1.000000
vn -0.000000 0.000000 -1.000000
vn -0.000000 0.000000 -1.000000
vn 0.000000 0.000000 -1.000000
vn -0.000000 0.000000 -1.000000
vn -0.000000 0.000000 -1.000000
vn 0.000000 0.000000 -1.000000
vn 0.000000 0.000000 -1.000000
vn 0.000000 0.000000 -1.000000
vn 0.000000 0.000000 -1.000000
vn 0.000000 0.000000 -1.000000
vn -0.000000 0.000000 -1.000000
vn 0.000000 0.000000 -1.000000
vn 0.000000 0.000000 -1.000000
vn -0.000000 0.000000 -1.000000
vn -0.000000 0.000000 -1.000000
vn -0.000000 0.000000 -1.000000
vn -0.000000 0.000000 -1.000000
vn -0.000000 0.000000 -1.000000
vn 0.000000 0.000000 -1.000000
vn 0.000000 0.000000 -1.000000
vn 0.000000 0.000000 -1.000000
vn -0.000000 0.000000 -1.000000
vn -0.000000 0.000000 -1.000000
vn -0.000000 0.000000 -1.000000
vn 0.000000 0.000000 -1.000000
vn -0.000000 0.000000 -1.000000
vn -0.000000 0.000000 -1.000000
vn 0.000000 0.000000 -1.000000
vn 0.000000 0.000000 -1.000000
vn 0.000000 0.000000 -1.000000
vn 0.000000 0.000000 -1.000000
vn -0.000000 0.000000 -1.000000
vn -0.000000 0.000000 -1.000000
vn -0.000000 0.000000 -1.000000
vn -0.000000 0.000000 -1.000000
vn -0.000000 0.000000 -1.000000
vn 0.000000 0.000000 -1.000000
vn 0.000000 0.000000 -1.000000
vn 0.000000 0.000000 -1.000000
vn 0.000000 0.000000 -1.000000
vn 0.000000 0.000000 -1.000000
vn -0.000000 0.000000 -1.000000
vn 0.000000 0.000000 -1.000000
vn 0.000000 0.000000 -1.000000
vn -0.000000 0.000000 -1.000000
vn 0.000000 0.000000 1.000000
vn -0.000000 0.000000 1.000000
vn 0.000000 0.000000 1.000000
vn 0.000000 0.000000 1.000000
vn 0.000000 0.000000 1.000000
vn 0.000000 0.000000 1.000000
vn 0.000000 0.000000 1.000000
vn 0.000000 0.000000 1.000000
vn 0.000000 -0.000000 1.000000
vn 0.000000 -0.000000 1.000000
vn 0.000000 -0.000000 1.000000
vn 0.000000 -0.000000 1.000000
vn 0.000000 -0.000000 1.000000
vn -0.000000 0.000000 1.000000
vn -0.000000 0.000000 1.000000
vn -0.000000 0.000000 1.000000
vn -0.000000 0.000000 1.000000
vn -0.000000 0.000000 1.000000
vn -0.000000 0.000000 1.000000
vn -0.000000 0.000000 1.000000
vn 0.000000 0.000000 1.000000
vn 0.000000 0.000000 1.000000
vn 0.000000 0.000000 1.000000
vn 0.000000 0.000000 1.000000
vn 0.000000 0.000000 1.000000
vn 0.000000 0.000000 1.000000
vn 0.000000 0.000000 1.000000
vn 0.000000 0.000000 1.000000
vn 0.000000 0.000000 1.000000
vn -0.000000 0.000000 1.000000
vn -0.000000 0.000000 1.000000
vn 0.000000 0.000000 1.000000
vn 0.000000 0.000000 1.000000
vn 0.000000 0.000000 1.000000
vn 0.000000 0.000000 1.000000
vn 0.000000 0.000000 1.000000
vn -0.000000 0.000000 1.000000
vn 0.000000 0.000000 1.000000
vn 0.000000 0.000000 1.000000
vn 0.000000 -0.000000 1.000000
vn 0.000000 -0.000000 1.000000
vn 0.000000 -0.000000 1.000000
vn 0.000000 -0.000000 1.000000
vn 0.000000 0.000000 1.000000
vn 0.000000 0.000000 1.000000
vn -0.000000 0.000000 1.000000
vn -0.000000 0.000000 1.000000
vn -0.000000 0.000000 1.000000
vn -0.000000 0.000000 1.000000
vn 0.000000 0.000000 1.000000
vn 0.000000 0.000000 1.000000
vn 0.000000 0.000000 1.000000
vn 0.000000 0.000000 1.000000
vn -0.000000 0.000000 1.000000
vn -0.000000 0.000000 1.000000
vn -0.000000 0.000000 1.000000
vn -0.000000 0.000000 1.000000
vn -0.000000 0.000000 1.000000
vn -0.000000 0.000000 1.000000
vn -0.000000 0.000000 1.000000
vn -0.000000 0.000000 1.000000
vn -0.000000 0.000000 1.000000
vn -0.000000 0.000000 1.000000
vn -0.000000 0.000000 1.000000
vn -0.000000 0.000000 1.000000
vn -0.000000 0.000000 1.000000
vn -0.000000 0.000000 1.000000
vn -0.000000 0.000000 1.000000
vn -0.000000 0.000000 1.000000
vn 0.000000 0.000000 1.000000
vn 0.000000 0.000000 1.000000
vn 0.000000 0.000000 1.000000
vn -0.000000 0.000000 1.000000
vn -0.000000 0.000000 1.000000
vn 0.000000 0.000000 1.000000
vn 0.000000 0.000000 1.000000
vn 0.000004 1.000000 0.000000
vn 0.000004 1.000000 0.000000
vn 0.000004 1.000000 0.000000
vn 0.000004 1.000000 0.000000
vn 0.000000 -1.000000 -0.000001
vn 0.000000 -1.000000 -0.000001
vn 0.000000 -1.000000 -0.000001
vn 0.000000 -1.000000 -0.000001
vn 0.707107 0.707107 0.000000
vn 0.707107 0.707107 0.000000
vn 0.707107 0.707107 0.000000
vn 0.707107 0.707107 0.000000
vn -0.707107 -0.707107 0.000000
vn -0.707107 -0.707107 0.000000
vn -0.707107 -0.707107 0.000000
vn -0.707107 -0.707107 0.000000
vn -1.000000 -0.000000 0.000000
vn -1.000000 -0.000000 0.000000
vn -1.000000 -0.000000 0.000000
vn -1.000000 -0.000000 0.000000
vn 0.832700 0.553724 0.000000
vn 0.832700 0.553724 0.000000
vn 0.832700 0.553724 0.000000
vn 0.832700 0.553724 0.000000
vn 1.000000 0.000000 0.000000
vn 1.000000 0.000000 0.000000
vn 1.000000 0.000000 0.000000
vn 1.000000 0.000000 0.000000
vn -0.707107 0.707107 0.000000
vn -0.707107 0.707107 0.000000
vn -0.707107 0.707107 0.000000
vn -0.707107 0.707107 0.000000
vn 0.707145 -0.707069 0.000000
vn 0.707145 -0.707069 0.000000
vn 0.707145 -0.707069 0.000000
vn 0.707145 -0.707069 0.000000
vn -0.000041 -1.000000 0.000000
vn -0.000041 -1.000000 0.000000
vn -0.000041 -1.000000 0.000000
vn -0.000041 -1.000000 0.000000
vn -0.707135 -0.707078 0.000086
vn -0.707135 -0.707078 0.000086
vn -0.707135 -0.707078 0.000086
vn -0.707135 -0.707078 0.000086
vn 0.707137 0.707077 -0.000085
vn 0.707137 0.707077 -0.000085
vn 0.707137 0.707077 -0.000085
vn 0.707137 0.707077 -0.000085
vn 1.000000 0.000000 -0.000242
vn 1.000000 0.000000 -0.000242
vn 1.000000 0.000000 -0.000242
vn 1.000000 0.000000 -0.000242
vn -0.734043 -0.679103 0.000089
vn -0.734043 -0.679103 0.000089
vn -0.734043 -0.679103 0.000089
vn -0.734043 -0.679104 0.000089
vn -1.000000 0.000000 0.000000
vn -1.000000 0.000000 0.000000
vn -1.000000 0.000000 0.000000
vn -1.000000 0.000000 0.000000
vn 0.000001 -1.000000 0.000001
vn 0.000001 -1.000000 0.000001
vn 0.000001 -1.000000 0.000001
vn 0.000001 -1.000000 0.000001
vn 0.000001 1.000000 0.000000
vn 0.000001 1.000000 0.000000
vn 0.000001 1.000000 0.000000
vn 0.000001 1.000000 0.000000
vn 0.000004 1.000000 0.000000
vn 0.000004 1.000000 0.000000
vn 0.000004 1.000000 0.000000
vn 0.000004 1.000000 0.000000
vn 0.718852 0.695163 0.000000
vn 0.718852 0.695163 0.000000
vn 0.718852 0.695163 0.000000
vn 0.718852 0.695163 0.000000
vn 1.000000 -0.000000 0.000000
vn 1.000000 -0.000000 0.000000
vn 1.000000 -0.000000 0.000000
vn 1.000000 -0.000000 0.000000
vn -1.000000 0.000000 0.000000
vn -1.000000 0.000000 0.000000
vn -1.000000 0.000000 0.000000
vn -1.000000 0.000000 0.000000
vn -1.000000 0.000000 0.000242
vn -1.000000 0.000000 0.000242
vn -1.000000 0.000000 0.000242
vn -1.000000 0.000000 0.000242
vn 1.000000 -0.000000 -0.000242
vn 1.000000 -0.000000 -0.000242
vn 1.000000 -0.000000 -0.000242
vn 1.000000 -0.000000 -0.000242
vn -0.707122 0.707092 0.000001
vn -0.707122 0.707092 0.000001
vn -0.707122 0.707092 0.000001
vn -0.707122 0.707092 0.000001
vn 0.707107 -0.707107 -0.000086
vn 0.707106 -0.707107 -0.000086
vn 0.707106 -0.707107 -0.000086
vn 0.707106 -0.707107 -0.000086
vn 0.000000 1.000000 0.000000
vn 0.000000 1.000000 0.000000
vn 0.000000 1.000000 0.000000
vn 0.000000 1.000000 0.000000
vn -0.659758 0.751478 0.000000
vn -0.659758 0.751478 0.000000
vn -0.659758 0.751478 0.000000
vn -0.659758 0.751478 0.000000
vn -0.000010 -1.000000 -0.000000
vn -0.000010 -1.000000 -0.000000
vn -0.000010 -1.000000 -0.000000
vn -0.000010 -1.000000 -0.000000
vn -0.850874 -0.525370 0.000000
vn -0.850874 -0.525370 0.000000
vn -0.850874 -0.525370 0.000000
vn -0.850874 -0.525370 0.000000
vn -0.659795 -0.751446 0.000160
vn -0.659794 -0.751446 0.000160
vn -0.659795 -0.751446 0.000160
vn -0.659794 -0.751446 0.000160
vn 0.716193 -0.697902 -0.000173
vn 0.716193 -0.697902 -0.000173
vn 0.716193 -0.697902 -0.000173
vn 0.716193 -0.697902 -0.000173
vn 0.000004 1.000000 0.000000
vn 0.000004 1.000000 0.000000
vn 0.000004 1.000000 0.000000
vn 0.000004 1.000000 0.000000
vn -0.000005 -1.000000 0.000000
vn -0.000005 -1.000000 0.000000
vn -0.000005 -1.000000 0.000000
vn -0.000005 -1.000000 0.000000
vn 0.656744 0.754114 0.000001
vn 0.656744 0.754114 0.000001
vn 0.656744 0.754114 0.000001
vn 0.656744 0.754114 0.000001
vn 0.000006 -1.000000 0.000000
vn 0.000006 -1.000000 0.000000
vn 0.000006 -1.000000 0.000000
vn 0.000006 -1.000000 0.000000
vn -0.000043 1.000000 0.000001
vn -0.000043 1.000000 0.000001
vn -0.000043 1.000000 0.000001
vn -0.000043 1.000000 0.000001
s off
f 37/85/1 38/86/2 39/87/3 40/88/4
f 38/86/5 41/89/6 42/90/7 39/87/8
f 44/91/9 43/92/10 45/93/11 46/94/12 47/95/13
f 48/96/14 44/91/15 47/97/16 49/98/17
f 50/100/18 48/96/19 49/99/20
f 51/101/21 52/102/22 53/103/23 54/104/24
f 56/105/25 55/106/26 57/107/27 58/108/28 59/109/29
f 60/110/30 51/101/31 54/104/32 61/111/33
f 37/85/34 40/88/35 62/112/36 63/113/37
f 41/89/38 45/114/39 43/92/40 42/90/41
f 52/102/42 57/115/43 55/106/44 53/103/45
f 56/105/46 59/116/47 64/117/48 65/118/49
f 65/118/50 64/119/51 66/120/52
f 62/112/53 40/88/54 67/121/55
f 60/110/56 61/111/57 68/122/58 69/123/59
f 70/124/60 48/96/61 50/100/62
f 68/122/63 61/111/64 71/125/65
f 71/125/66 61/111/67 48/96/68 70/124/69
f 65/118/70 66/120/71 72/126/72
f 40/88/73 65/118/74 72/126/75 67/121/76
f 16/43/77 15/46/78 7/45/79 1/44/80
f 1/44/81 7/45/82 8/48/83 2/47/84
f 9/49/85 23/53/86 27/52/87 18/51/88 17/50/89
f 10/54/90 21/56/91 23/55/92 9/49/93
f 32/57/94 21/58/95 10/54/96
f 4/59/97 11/62/98 12/61/99 3/60/100
f 6/63/101 26/67/102 28/66/103 20/65/104 19/64/105
f 13/68/106 14/69/107 11/62/108 4/59/109
f 16/43/110 25/71/111 30/70/112 15/46/113
f 2/47/114 8/48/115 17/50/116 18/72/117
f 3/60/118 12/61/119 19/64/120 20/73/121
f 6/63/122 5/76/123 24/75/124 26/74/125
f 5/76/126 29/78/127 24/77/128
f 30/70/129 36/79/130 15/46/131
f 13/68/132 22/81/133 31/80/134 14/69/135
f 34/82/136 32/57/137 10/54/138
f 31/80/139 33/83/140 14/69/141
f 33/83/142 34/82/143 10/54/144 14/69/145
f 5/76/146 35/84/147 29/78/148
f 15/46/149 36/79/150 35/84/151 5/76/152
f 16/16/153 1/4/154 38/86/155 37/85/156
f 7/7/157 15/15/158 40/88/159 39/87/160
f 1/4/161 2/3/162 41/89/163 38/86/164
f 8/8/165 7/7/166 39/87/167 42/90/168
f 9/9/169 17/17/170 43/92/171 44/91/172
f 18/29/173 27/30/174 46/94/175 45/93/176
f 27/30/177 23/31/178 47/95/179 46/94/180
f 10/10/181 9/9/182 44/91/183 48/96/184
f 23/23/185 21/24/186 49/98/187 47/97/188
f 21/21/189 32/38/190 50/100/191 49/99/192
f 4/1/193 3/2/194 52/102/195 51/101/196
f 12/12/197 11/11/198 54/104/199 53/103/200
f 6/5/201 19/19/202 55/106/203 56/105/204
f 20/32/205 28/33/206 58/108/207 57/107/208
f 28/33/209 26/34/210 59/109/211 58/108/212
f 13/13/213 4/1/214 51/101/215 60/110/216
f 11/11/217 14/14/218 61/111/219 54/104/220
f 30/36/221 25/26/222 63/113/223 62/112/224
f 25/26/225 16/16/226 37/85/227 63/113/228
f 2/3/229 18/18/230 45/114/231 41/89/232
f 17/17/233 8/8/234 42/90/235 43/92/236
f 3/2/237 20/20/238 57/115/239 52/102/240
f 19/19/241 12/12/242 53/103/243 55/106/244
f 26/27/245 24/28/246 64/117/247 59/116/248
f 5/6/249 6/5/250 56/105/251 65/118/252
f 24/25/253 29/35/254 66/120/255 64/119/256
f 36/42/257 30/36/258 62/112/259 67/121/260
f 31/37/261 22/22/262 69/123/263 68/122/264
f 22/22/265 13/13/266 60/110/267 69/123/268
f 32/38/269 34/40/270 70/124/271 50/100/272
f 33/39/273 31/37/274 68/122/275 71/125/276
f 14/14/277 10/10/278 48/96/279 61/111/280
f 34/40/281 33/39/282 71/125/283 70/124/284
f 29/35/285 35/41/286 72/126/287 66/120/288
f 15/15/289 5/6/290 65/118/291 40/88/292
f 35/41/293 36/42/294 67/121/295 72/126/296
