# This file uses meters as units for non-parametric coordinates.

v 57.157898 33.363716 -0.556565
v 59.990234 30.531387 -0.556566
v 57.157898 33.363716 0.556292
v 59.990234 30.531387 0.556293
v 57.157898 -33.363731 -0.556565
v 59.990234 -30.531462 -0.556566
v 57.157898 -33.363731 0.556292
v 59.990234 -30.531464 0.556293
v -59.990234 -30.531462 -0.556566
v -57.157898 -33.363716 -0.556563
v -59.990234 -30.531464 0.556293
v -57.157898 -33.363716 0.556295
v -57.157898 33.363655 -0.556563
v -59.990234 30.531464 -0.556566
v -57.157898 33.363655 0.556295
v -59.990234 30.531464 0.556293
vt 0.456268 0.025136
vt 0.456268 0.025136
vt 0.456268 0.025136
vt 0.456268 0.025136
vt 0.456268 0.025136
vt 0.456268 0.025136
vt 0.456268 0.025136
vt 0.456268 0.025136
vt 0.456268 0.025136
vt 0.456268 0.025136
vt 0.456268 0.025136
vt 0.456268 0.025136
vt 0.456268 0.025136
vt 0.456268 0.025136
vt 0.456268 0.025136
vt 0.456268 0.025136
vt 0.456268 0.025136
vt 0.456268 0.025136
vt 0.456268 0.025136
vt 0.456268 0.025136
vt 0.456268 0.025136
vt 0.456268 0.025136
vt 0.456268 0.025136
vt 0.456268 0.025136
vt 0.456268 0.025136
vt 0.456268 0.025136
vt 0.456268 0.025136
vt 0.456268 0.025136
vn 1.000000 0.000000 0.000000
vn 1.000000 0.000000 0.000000
vn 1.000000 0.000000 0.000000
vn 1.000000 0.000000 0.000000
vn -0.000000 -1.000000 0.000000
vn -0.000000 -1.000000 0.000000
vn -0.000000 -1.000000 0.000000
vn -0.000000 -1.000000 0.000000
vn -1.000000 0.000000 0.000000
vn -1.000000 0.000000 0.000000
vn -1.000000 0.000000 0.000000
vn -1.000000 0.000000 0.000000
vn -0.000001 1.000000 0.000000
vn -0.000001 1.000000 0.000000
vn -0.000001 1.000000 0.000000
vn -0.000001 1.000000 0.000000
vn 0.000000 0.000000 1.000000
vn 0.000000 0.000000 1.000000
vn 0.000000 0.000000 1.000000
vn 0.000000 0.000000 1.000000
vn 0.000000 0.000000 1.000000
vn 0.000000 0.000000 1.000000
vn 0.000000 0.000000 1.000000
vn 0.000000 0.000000 1.000000
vn -0.000000 0.000000 -1.000000
vn -0.000000 0.000000 -1.000000
vn -0.000000 0.000000 -1.000000
vn -0.000000 0.000000 -1.000000
vn -0.000000 0.000000 -1.000000
vn -0.000000 0.000000 -1.000000
vn -0.000000 0.000000 -1.000000
vn -0.000000 0.000000 -1.000000
vn 0.707106 0.707108 0.000000
vn 0.707106 0.707108 0.000000
vn 0.707106 0.707108 0.000000
vn 0.707106 0.707108 0.000000
vn 0.707098 -0.707116 0.000000
vn 0.707098 -0.707116 0.000000
vn 0.707098 -0.707115 0.000000
vn 0.707098 -0.707116 0.000000
vn -0.707096 -0.707118 0.000000
vn -0.707096 -0.707118 0.000000
vn -0.707096 -0.707118 0.000000
vn -0.707096 -0.707118 0.000000
vn -0.707088 0.707126 0.000000
vn -0.707088 0.707126 0.000000
vn -0.707088 0.707126 0.000000
vn -0.707088 0.707126 0.000000
s off
f 2/12/1 4/22/2 8/13/3 6/23/4
f 5/14/5 7/24/6 12/15/7 10/25/8
f 9/19/9 11/26/10 16/20/11 14/27/12
f 13/16/13 15/28/14 3/17/15 1/18/16
f 4/22/17 3/6/18 15/7/19 16/8/20 11/9/21 12/10/22 7/11/23 8/13/24
f 14/1/25 13/2/26 1/21/27 2/12/28 6/23/29 5/3/30 10/4/31 9/5/32
f 2/12/33 1/21/34 3/6/35 4/22/36
f 5/14/37 6/23/38 8/13/39 7/24/40
f 9/19/41 10/25/42 12/15/43 11/26/44
f 13/16/45 14/27/46 16/20/47 15/28/48
