# This file uses meters as units for non-parametric coordinates.

v 2.433472 -1.074600 0.838219
v 2.433472 -1.074600 -0.838806
v -2.433167 -1.074600 0.838806
v -2.433167 -1.074600 -0.838806
v 0.000000 2.255402 0.838806
v 0.000000 2.255402 -0.838806
vt 0.330180 0.385241
vt 0.330180 0.385241
vt 0.330180 0.385241
vt 0.330180 0.385241
vt 0.330180 0.385241
vt 0.330180 0.385241
vt 0.330180 0.385241
vt 0.330180 0.385241
vt 0.330180 0.385241
vt 0.330180 0.385241
vt 0.330180 0.385241
vt 0.330180 0.385241
vn 0.807390 0.590018 0.000000
vn 0.807390 0.590018 0.000000
vn -0.000120 1.000000 0.000000
vn -0.000182 1.000000 0.000000
vn 0.000121 -0.000088 1.000000
vn 0.000121 -0.000088 1.000000
vn 0.000121 -0.000088 1.000000
vn 0.000000 -1.000000 0.000000
vn 0.000000 -1.000000 0.000000
vn 0.000000 -1.000000 0.000000
vn 0.000000 -1.000000 0.000000
vn 0.000000 0.000000 -1.000000
vn 0.000000 0.000000 -1.000000
vn 0.000000 0.000000 -1.000000
vn -0.000182 1.000000 0.000000
vn -0.000120 1.000000 0.000000
vn -0.807425 0.589970 0.000000
vn -0.807425 0.589970 0.000000
s off
f 1/1/1 2/2/2 6/11/3 5/10/4
f 3/8/5 1/1/6 5/9/7
f 3/3/8 4/4/9 2/6/10 1/5/11
f 6/12/12 2/2/13 4/7/14
f 5/10/15 6/11/16 4/4/17 3/3/18
