# This file uses meters as units for non-parametric coordinates.

v 8.804932 4.821625 0.526398
v 9.607849 2.249146 0.526398
v 2.249146 9.607697 0.526398
v 4.821472 8.804932 0.526398
v 7.071228 7.071075 0.526398
v 8.804932 4.821625 -0.526398
v 9.607849 2.249146 -0.526398
v 2.249146 9.607697 -0.526398
v 4.821472 8.804932 -0.526398
v 7.071228 7.071075 -0.526398
v 10.340881 5.655670 0.526398
v 11.239014 2.866516 0.526398
v 11.239014 2.866516 -0.526398
v 10.340881 5.655670 -0.526398
v 2.866516 11.238861 0.526398
v 5.655823 10.341034 0.526398
v 5.655823 10.341034 -0.526398
v 2.866516 11.238861 -0.526398
v 8.316956 8.317108 0.526398
v 8.316956 8.317108 -0.526398
v -4.821777 8.804779 0.526398
v -2.249146 9.607697 0.526398
v -9.607544 2.249146 0.526398
v -8.804626 4.821625 0.526398
v -7.070923 7.071075 0.526398
v -4.821777 8.804779 -0.526398
v -2.249146 9.607697 -0.526398
v -9.607544 2.249146 -0.526398
v -8.804626 4.821625 -0.526398
v -7.070923 7.071075 -0.526398
v -5.655518 10.341034 0.526398
v -2.866516 11.238861 0.526398
v -2.866516 11.238861 -0.526398
v -5.655518 10.341034 -0.526398
v -11.238708 2.866516 0.526398
v -10.340881 5.655670 0.526398
v -10.340881 5.655670 -0.526398
v -11.238708 2.866516 -0.526398
v -8.316956 8.317108 0.526398
v -8.316956 8.317108 -0.526398
v -8.804932 -4.821472 0.526398
v -9.607544 -2.249146 0.526398
v -2.249146 -9.607697 0.526398
v -4.821472 -8.804779 0.526398
v -7.070923 -7.071075 0.526398
v -8.804932 -4.821472 -0.526398
v -9.607544 -2.249146 -0.526398
v -2.249146 -9.607697 -0.526398
v -4.821472 -8.804779 -0.526398
v -7.070923 -7.071075 -0.526398
v -10.340881 -5.655670 0.526398
v -11.238708 -2.866516 0.526398
v -11.238708 -2.866516 -0.526398
v -10.340881 -5.655670 -0.526398
v -2.866516 -11.238861 0.526398
v -5.655518 -10.340881 0.526398
v -5.655518 -10.340881 -0.526398
v -2.866516 -11.238861 -0.526398
v -8.316956 -8.317108 0.526398
v -8.316956 -8.317108 -0.526398
v 4.821777 -8.804779 0.526398
v 2.249146 -9.607697 0.526398
v 9.607849 -2.249146 0.526398
v 8.804626 -4.821625 0.526398
v 7.071228 -7.071075 0.526398
v 4.821777 -8.804779 -0.526398
v 2.249146 -9.607697 -0.526398
v 9.607849 -2.249146 -0.526398
v 8.804626 -4.821625 -0.526398
v 7.071228 -7.071075 -0.526398
v 5.655823 -10.340881 0.526398
v 2.866516 -11.238861 0.526398
v 2.866516 -11.238861 -0.526398
v 5.655823 -10.340881 -0.526398
v 11.239014 -2.866516 0.526398
v 10.340881 -5.655670 0.526398
v 10.340881 -5.655670 -0.526398
v 11.239014 -2.866516 -0.526398
v 8.316956 -8.317108 0.526398
v 8.316956 -8.317108 -0.526398
v 9.168091 10.303345 -0.526398
v 15.569763 16.704712 -0.526398
v 10.303345 9.168091 -0.526398
v 16.704712 15.569611 -0.526398
v 9.168091 10.303345 0.526398
v 15.569763 16.704712 0.526398
v 16.704712 15.569611 0.526398
v 10.303345 9.168091 0.526398
v -10.238037 9.233246 -0.526398
v -16.639709 15.634766 -0.526398
v -9.233093 10.238037 -0.526398
v -15.634766 16.639557 -0.526398
v -10.238037 9.233246 0.526398
v -16.639709 15.634766 0.526398
v -15.634766 16.639557 0.526398
v -9.233093 10.238037 0.526398
v -9.168091 -10.303192 -0.526398
v -15.569458 -16.704712 -0.526398
v -10.303040 -9.168091 -0.526398
v -16.704712 -15.569458 -0.526398
v -9.168091 -10.303192 0.526398
v -15.569458 -16.704712 0.526398
v -16.704712 -15.569458 0.526398
v -10.303040 -9.168091 0.526398
v 10.238037 -9.233246 -0.526398
v 16.639709 -15.634697 -0.526390
v 9.233093 -10.238037 -0.526398
v 15.634766 -16.639488 -0.526390
v 10.238037 -9.233246 0.526398
v 16.639709 -15.634697 0.526390
v 15.634766 -16.639488 0.526390
v 9.233093 -10.238037 0.526398
vt 0.330180 0.385241
vt 0.330180 0.385241
vt 0.330180 0.385241
vt 0.330180 0.385241
vt 0.330180 0.385241
vt 0.330180 0.385241
vt 0.330180 0.385241
vt 0.330180 0.385241
vt 0.330180 0.385241
vt 0.330180 0.385241
vt 0.330180 0.385241
vt 0.330180 0.385241
vt 0.330180 0.385241
vt 0.330180 0.385241
vt 0.330180 0.385241
vt 0.330180 0.385241
vt 0.330180 0.385241
vt 0.330180 0.385241
vt 0.330180 0.385241
vt 0.330180 0.385241
vt 0.330180 0.385241
vt 0.330180 0.385241
vt 0.330180 0.385241
vt 0.330180 0.385241
vt 0.330180 0.385241
vt 0.330180 0.385241
vt 0.330180 0.385241
vt 0.330180 0.385241
vt 0.330180 0.385241
vt 0.330180 0.385241
vt 0.330180 0.385241
vt 0.330180 0.385241
vt 0.330180 0.385241
vt 0.330180 0.385241
vt 0.330180 0.385241
vt 0.330180 0.385241
vt 0.330180 0.385241
vt 0.330180 0.385241
vt 0.330180 0.385241
vt 0.330180 0.385241
vt 0.330180 0.385241
vt 0.330180 0.385241
vt 0.330180 0.385241
vt 0.330180 0.385241
vt 0.330180 0.385241
vt 0.330180 0.385241
vt 0.330180 0.385241
vt 0.330180 0.385241
vt 0.330180 0.385241
vt 0.330180 0.385241
vt 0.330180 0.385241
vt 0.330180 0.385241
vt 0.330180 0.385241
vt 0.330180 0.385241
vt 0.330180 0.385241
vt 0.330180 0.385241
vt 0.330180 0.385241
vt 0.330180 0.385241
vt 0.330180 0.385241
vt 0.330180 0.385241
vt 0.330180 0.385241
vt 0.330180 0.385241
vt 0.330180 0.385241
vt 0.330180 0.385241
vt 0.330180 0.385241
vt 0.330180 0.385241
vt 0.330180 0.385241
vt 0.330180 0.385241
vt 0.330180 0.385241
vt 0.330180 0.385241
vt 0.330180 0.385241
vt 0.330180 0.385241
vt 0.330180 0.385241
vt 0.330180 0.385241
vt 0.330180 0.385241
vt 0.330180 0.385241
vt 0.330180 0.385241
vt 0.330180 0.385241
vt 0.330180 0.385241
vt 0.330180 0.385241
vt 0.330180 0.385241
vt 0.330180 0.385241
vt 0.330180 0.385241
vt 0.330180 0.385241
vt 0.330180 0.385241
vt 0.330180 0.385241
vt 0.330180 0.385241
vt 0.330180 0.385241
vt 0.330180 0.385241
vt 0.330180 0.385241
vt 0.330180 0.385241
vt 0.330180 0.385241
vt 0.330180 0.385241
vt 0.330180 0.385241
vt 0.330180 0.385241
vt 0.330180 0.385241
vt 0.330180 0.385241
vt 0.330180 0.385241
vt 0.330180 0.385241
vt 0.330180 0.385241
vt 0.330180 0.385241
vt 0.330180 0.385241
vt 0.330180 0.385241
vt 0.330180 0.385241
vt 0.330180 0.385241
vt 0.330180 0.385241
vt 0.330180 0.385241
vt 0.330180 0.385241
vt 0.330180 0.385241
vt 0.330180 0.385241
vt 0.330180 0.385241
vt 0.330180 0.385241
vt 0.330180 0.385241
vt 0.330180 0.385241
vt 0.330180 0.385241
vt 0.330180 0.385241
vt 0.330180 0.385241
vt 0.330180 0.385241
vt 0.330180 0.385241
vt 0.330180 0.385241
vt 0.330180 0.385241
vt 0.330180 0.385241
vt 0.330180 0.385241
vt 0.330180 0.385241
vt 0.330180 0.385241
vt 0.330180 0.385241
vt 0.330180 0.385241
vt 0.330180 0.385241
vt 0.330180 0.385241
vt 0.330180 0.385241
vt 0.330180 0.385241
vt 0.330180 0.385241
vt 0.330180 0.385241
vt 0.330180 0.385241
vt 0.330180 0.385241
vt 0.330180 0.385241
vt 0.330180 0.385241
vt 0.330180 0.385241
vt 0.330180 0.385241
vt 0.330180 0.385241
vt 0.330180 0.385241
vt 0.330180 0.385241
vt 0.330180 0.385241
vt 0.330180 0.385241
vt 0.330180 0.385241
vt 0.330180 0.385241
vt 0.330180 0.385241
vt 0.330180 0.385241
vt 0.330180 0.385241
vt 0.330180 0.385241
vt 0.330180 0.385241
vt 0.330180 0.385241
vt 0.330180 0.385241
vt 0.330180 0.385241
vt 0.330180 0.385241
vt 0.330180 0.385241
vt 0.330180 0.385241
vt 0.330180 0.385241
vt 0.330180 0.385241
vt 0.330180 0.385241
vt 0.330180 0.385241
vt 0.330180 0.385241
vt 0.330180 0.385241
vt 0.330180 0.385241
vt 0.330180 0.385241
vt 0.330180 0.385241
vt 0.330180 0.385241
vt 0.330180 0.385241
vt 0.330180 0.385241
vt 0.330180 0.385241
vt 0.330180 0.385241
vt 0.330180 0.385241
vt 0.330180 0.385241
vt 0.330180 0.385241
vt 0.330180 0.385241
vt 0.330180 0.385241
vt 0.330180 0.385241
vt 0.330180 0.385241
vt 0.330180 0.385241
vt 0.330180 0.385241
vt 0.330180 0.385241
vt 0.330180 0.385241
vt 0.330180 0.385241
vt 0.330180 0.385241
vt 0.330180 0.385241
vt 0.330180 0.385241
vt 0.330180 0.385241
vt 0.330180 0.385241
vt 0.330180 0.385241
vt 0.330180 0.385241
vt 0.330180 0.385241
vt 0.330180 0.385241
vt 0.330180 0.385241
vt 0.330180 0.385241
vt 0.330180 0.385241
vt 0.330180 0.385241
vt 0.330180 0.385241
vt 0.330180 0.385241
vt 0.330180 0.385241
vt 0.330180 0.385241
vt 0.330180 0.385241
vt 0.330180 0.385241
vt 0.330180 0.385241
vt 0.330180 0.385241
vt 0.330180 0.385241
vt 0.330180 0.385241
vt 0.330180 0.385241
vt 0.330180 0.385241
vt 0.330180 0.385241
vt 0.330180 0.385241
vt 0.330180 0.385241
vt 0.330180 0.385241
vt 0.330180 0.385241
vt 0.330180 0.385241
vt 0.330180 0.385241
vt 0.330180 0.385241
vt 0.330180 0.385241
vt 0.330180 0.385241
vt 0.330180 0.385241
vt 0.330180 0.385241
vt 0.330180 0.385241
vt 0.330180 0.385241
vt 0.330180 0.385241
vt 0.330180 0.385241
vn 0.881339 0.472485 0.000000
vn 0.951867 0.306510 0.000000
vn 0.951867 0.306510 0.000000
vn 0.881339 0.472485 0.000000
vn 0.306400 0.951903 0.000000
vn 0.472457 0.881354 0.000000
vn 0.472457 0.881354 0.000000
vn 0.306400 0.951903 0.000000
vn 0.472457 0.881354 0.000000
vn 0.707130 0.707084 0.000000
vn 0.707130 0.707084 0.000000
vn 0.472457 0.881354 0.000000
vn 0.707130 0.707084 0.000000
vn 0.881339 0.472485 0.000000
vn 0.881339 0.472485 0.000000
vn 0.707130 0.707084 0.000000
vn -0.885012 -0.465569 0.000000
vn -0.885012 -0.465569 0.000000
vn -0.954584 -0.297943 0.000000
vn -0.954584 -0.297943 0.000000
vn -0.297907 -0.954595 0.000000
vn -0.297907 -0.954595 0.000000
vn -0.465557 -0.885018 0.000000
vn -0.465557 -0.885018 0.000000
vn -0.465557 -0.885018 0.000000
vn -0.465557 -0.885018 0.000000
vn -0.707093 -0.707120 0.000000
vn -0.707093 -0.707120 0.000000
vn -0.707093 -0.707120 0.000000
vn -0.707093 -0.707120 0.000000
vn -0.885012 -0.465569 0.000000
vn -0.885012 -0.465569 0.000000
vn 0.000000 0.000000 1.000000
vn 0.000000 0.000000 1.000000
vn 0.000000 0.000000 1.000000
vn 0.000000 0.000000 1.000000
vn 0.353979 -0.935253 0.000000
vn 0.353979 -0.935253 0.000000
vn 0.353979 -0.935253 0.000000
vn 0.353979 -0.935253 0.000000
vn 0.000000 0.000000 -1.000000
vn 0.000000 0.000000 -1.000000
vn 0.000000 0.000000 -1.000000
vn 0.000000 0.000000 -1.000000
vn 0.000000 0.000000 1.000000
vn 0.000000 0.000000 1.000000
vn 0.000000 0.000000 1.000000
vn 0.000000 0.000000 1.000000
vn -0.000000 0.000000 -1.000000
vn -0.000000 0.000000 -1.000000
vn -0.000000 0.000000 -1.000000
vn 0.000000 0.000000 -1.000000
vn -0.935253 0.353979 0.000000
vn -0.935253 0.353979 0.000000
vn -0.935253 0.353979 0.000000
vn -0.935253 0.353979 0.000000
vn 0.000000 0.000000 1.000000
vn -0.000000 0.000000 1.000000
vn -0.000000 0.000000 1.000000
vn 0.000000 0.000000 1.000000
vn 0.000000 0.000000 -1.000000
vn -0.000000 0.000000 -1.000000
vn 0.000000 0.000000 -1.000000
vn 0.000000 0.000000 -1.000000
vn -0.000000 0.000000 1.000000
vn 0.000000 0.000000 1.000000
vn 0.000000 0.000000 1.000000
vn -0.000000 0.000000 1.000000
vn 0.000000 0.000000 -1.000000
vn 0.000000 0.000000 -1.000000
vn 0.000000 0.000000 -1.000000
vn 0.000000 0.000000 -1.000000
vn -0.472457 0.881354 0.000000
vn -0.306431 0.951893 0.000000
vn -0.306431 0.951893 0.000000
vn -0.472457 0.881354 0.000000
vn -0.951898 0.306415 0.000000
vn -0.881359 0.472447 0.000000
vn -0.881359 0.472447 0.000000
vn -0.951898 0.306415 0.000000
vn -0.881359 0.472447 0.000000
vn -0.707107 0.707107 0.000000
vn -0.707107 0.707107 0.000000
vn -0.881359 0.472447 0.000000
vn -0.707107 0.707107 0.000000
vn -0.472457 0.881354 0.000000
vn -0.472457 0.881354 0.000000
vn -0.707107 0.707107 0.000000
vn 0.465580 -0.885006 0.000000
vn 0.465580 -0.885006 0.000000
vn 0.297927 -0.954589 0.000000
vn 0.297927 -0.954589 0.000000
vn 0.954584 -0.297943 0.000000
vn 0.954584 -0.297943 0.000000
vn 0.885012 -0.465569 0.000000
vn 0.885012 -0.465569 0.000000
vn 0.885012 -0.465569 0.000000
vn 0.885012 -0.465569 0.000000
vn 0.707134 -0.707080 0.000000
vn 0.707134 -0.707080 0.000000
vn 0.707134 -0.707080 0.000000
vn 0.707134 -0.707080 0.000000
vn 0.465580 -0.885006 0.000000
vn 0.465580 -0.885006 0.000000
vn 0.000000 0.000000 1.000000
vn 0.000000 0.000000 1.000000
vn 0.000000 0.000000 1.000000
vn -0.000000 0.000000 1.000000
vn 0.935253 0.353979 0.000000
vn 0.935253 0.353979 0.000000
vn 0.935253 0.353979 0.000000
vn 0.935253 0.353979 0.000000
vn 0.000000 0.000000 -1.000000
vn -0.000000 0.000000 -1.000000
vn -0.000000 0.000000 -1.000000
vn 0.000000 0.000000 -1.000000
vn -0.000000 0.000000 1.000000
vn -0.000000 0.000000 1.000000
vn -0.000000 0.000000 1.000000
vn -0.000000 0.000000 1.000000
vn -0.000000 0.000000 -1.000000
vn -0.000000 0.000000 -1.000000
vn -0.000000 0.000000 -1.000000
vn -0.000000 0.000000 -1.000000
vn -0.353979 -0.935253 0.000000
vn -0.353979 -0.935253 0.000000
vn -0.353979 -0.935253 0.000000
vn -0.353979 -0.935253 0.000000
vn -0.000000 0.000000 1.000000
vn -0.000000 0.000000 1.000000
vn -0.000000 0.000000 1.000000
vn -0.000000 0.000000 1.000000
vn 0.000000 0.000000 -1.000000
vn -0.000000 0.000000 -1.000000
vn -0.000000 0.000000 -1.000000
vn 0.000000 0.000000 -1.000000
vn -0.000000 0.000000 1.000000
vn 0.000000 0.000000 1.000000
vn -0.000000 0.000000 1.000000
vn -0.000000 0.000000 1.000000
vn -0.000000 0.000000 -1.000000
vn 0.000000 0.000000 -1.000000
vn 0.000000 0.000000 -1.000000
vn -0.000000 0.000000 -1.000000
vn -0.881359 -0.472447 0.000000
vn -0.951898 -0.306415 0.000000
vn -0.951898 -0.306415 0.000000
vn -0.881359 -0.472447 0.000000
vn -0.306478 -0.951878 0.000000
vn -0.472457 -0.881354 0.000000
vn -0.472457 -0.881354 0.000000
vn -0.306478 -0.951878 0.000000
vn -0.472457 -0.881354 0.000000
vn -0.707095 -0.707118 0.000000
vn -0.707095 -0.707118 0.000000
vn -0.472457 -0.881354 0.000000
vn -0.707095 -0.707118 0.000000
vn -0.881359 -0.472447 0.000000
vn -0.881359 -0.472447 0.000000
vn -0.707095 -0.707118 0.000000
vn 0.885012 0.465569 0.000000
vn 0.885012 0.465569 0.000000
vn 0.954611 0.297856 0.000000
vn 0.954611 0.297856 0.000000
vn 0.297959 0.954579 0.000000
vn 0.297959 0.954579 0.000000
vn 0.465580 0.885006 0.000000
vn 0.465580 0.885006 0.000000
vn 0.465580 0.885006 0.000000
vn 0.465580 0.885006 0.000000
vn 0.707093 0.707120 0.000000
vn 0.707093 0.707120 0.000000
vn 0.707093 0.707120 0.000000
vn 0.707093 0.707120 0.000000
vn 0.885012 0.465569 0.000000
vn 0.885012 0.465569 0.000000
vn -0.000000 0.000000 1.000000
vn -0.000000 0.000000 1.000000
vn -0.000000 0.000000 1.000000
vn -0.000000 0.000000 1.000000
vn -0.353979 0.935253 0.000000
vn -0.353979 0.935253 0.000000
vn -0.353979 0.935253 0.000000
vn -0.353979 0.935253 0.000000
vn -0.000000 0.000000 -1.000000
vn -0.000000 0.000000 -1.000000
vn -0.000000 0.000000 -1.000000
vn -0.000000 0.000000 -1.000000
vn 0.000000 0.000000 1.000000
vn -0.000000 0.000000 1.000000
vn -0.000000 0.000000 1.000000
vn 0.000000 0.000000 1.000000
vn 0.000000 0.000000 -1.000000
vn 0.000000 0.000000 -1.000000
vn 0.000000 0.000000 -1.000000
vn -0.000000 0.000000 -1.000000
vn 0.935253 -0.353979 0.000000
vn 0.935253 -0.353979 0.000000
vn 0.935253 -0.353979 0.000000
vn 0.935253 -0.353979 0.000000
vn -0.000000 0.000000 1.000000
vn -0.000000 0.000000 1.000000
vn 0.000000 0.000000 1.000000
vn -0.000000 0.000000 1.000000
vn -0.000000 0.000000 -1.000000
vn 0.000000 0.000000 -1.000000
vn -0.000000 0.000000 -1.000000
vn -0.000000 0.000000 -1.000000
vn -0.000000 0.000000 1.000000
vn -0.000000 0.000000 1.000000
vn -0.000000 0.000000 1.000000
vn 0.000000 0.000000 1.000000
vn -0.000000 0.000000 -1.000000
vn -0.000000 0.000000 -1.000000
vn -0.000000 0.000000 -1.000000
vn -0.000000 0.000000 -1.000000
vn 0.472457 -0.881354 0.000000
vn 0.306447 -0.951888 0.000000
vn 0.306447 -0.951888 0.000000
vn 0.472457 -0.881354 0.000000
vn 0.951867 -0.306510 0.000000
vn 0.881339 -0.472485 0.000000
vn 0.881339 -0.472485 0.000000
vn 0.951867 -0.306510 0.000000
vn 0.881339 -0.472485 0.000000
vn 0.707118 -0.707095 0.000000
vn 0.707118 -0.707095 0.000000
vn 0.881339 -0.472485 0.000000
vn 0.707118 -0.707095 0.000000
vn 0.472457 -0.881354 0.000000
vn 0.472457 -0.881354 0.000000
vn 0.707118 -0.707095 0.000000
vn -0.465557 0.885018 0.000000
vn -0.465557 0.885018 0.000000
vn -0.297927 0.954589 0.000000
vn -0.297927 0.954589 0.000000
vn -0.954551 0.298046 0.000000
vn -0.954551 0.298046 0.000000
vn -0.885012 0.465569 0.000000
vn -0.885012 0.465569 0.000000
vn -0.885012 0.465569 0.000000
vn -0.885012 0.465569 0.000000
vn -0.707134 0.707080 0.000000
vn -0.707134 0.707080 0.000000
vn -0.707134 0.707080 0.000000
vn -0.707134 0.707080 0.000000
vn -0.465557 0.885018 0.000000
vn -0.465557 0.885018 0.000000
vn -0.000000 0.000000 1.000000
vn -0.000000 0.000000 1.000000
vn -0.000000 0.000000 1.000000
vn 0.000000 0.000000 1.000000
vn -0.935253 -0.353979 0.000000
vn -0.935253 -0.353979 0.000000
vn -0.935253 -0.353979 0.000000
vn -0.935253 -0.353979 0.000000
vn 0.000000 0.000000 -1.000000
vn 0.000000 0.000000 -1.000000
vn 0.000000 0.000000 -1.000000
vn 0.000000 0.000000 -1.000000
vn 0.000000 0.000000 1.000000
vn 0.000000 0.000000 1.000000
vn 0.000000 0.000000 1.000000
vn 0.000000 0.000000 1.000000
vn 0.000000 0.000000 -1.000000
vn 0.000000 0.000000 -1.000000
vn 0.000000 0.000000 -1.000000
vn 0.000000 0.000000 -1.000000
vn 0.353979 0.935253 0.000000
vn 0.353979 0.935253 0.000000
vn 0.353979 0.935253 0.000000
vn 0.353979 0.935253 0.000000
vn 0.000000 0.000000 1.000000
vn 0.000000 0.000000 1.000000
vn 0.000000 0.000000 1.000000
vn 0.000000 0.000000 1.000000
vn -0.000000 0.000000 -1.000000
vn 0.000000 0.000000 -1.000000
vn 0.000000 0.000000 -1.000000
vn 0.000000 0.000000 -1.000000
vn 0.000000 0.000000 1.000000
vn -0.000000 0.000000 1.000000
vn 0.000000 0.000000 1.000000
vn 0.000000 0.000000 1.000000
vn 0.000000 0.000000 -1.000000
vn -0.000000 0.000000 -1.000000
vn 0.000000 0.000000 -1.000000
vn 0.000000 0.000000 -1.000000
vn -0.000000 0.000000 1.000000
vn -0.000000 0.000000 1.000000
vn -0.000000 0.000000 1.000000
vn -0.000000 0.000000 1.000000
vn -0.000000 0.000000 -1.000000
vn -0.000000 0.000000 -1.000000
vn -0.000000 0.000000 -1.000000
vn -0.000000 0.000000 -1.000000
vn -0.707090 0.707124 0.000000
vn -0.707090 0.707124 0.000000
vn -0.707090 0.707124 0.000000
vn -0.707090 0.707124 0.000000
vn 0.707155 0.707059 0.000000
vn 0.707155 0.707059 0.000000
vn 0.707155 0.707059 0.000000
vn 0.707155 0.707059 0.000000
vn 0.707115 -0.707098 0.000000
vn 0.707115 -0.707098 0.000000
vn 0.707115 -0.707098 0.000000
vn 0.707115 -0.707098 0.000000
vn -0.707107 -0.707107 0.000000
vn -0.707107 -0.707107 0.000000
vn -0.707107 -0.707107 0.000000
vn -0.707107 -0.707107 0.000000
vn 0.000000 0.000000 1.000000
vn 0.000000 0.000000 1.000000
vn 0.000000 0.000000 1.000000
vn 0.000000 0.000000 1.000000
vn -0.000000 0.000000 -1.000000
vn -0.000000 0.000000 -1.000000
vn -0.000000 0.000000 -1.000000
vn -0.000000 0.000000 -1.000000
vn -0.707098 -0.707115 0.000000
vn -0.707098 -0.707115 0.000000
vn -0.707098 -0.707115 0.000000
vn -0.707098 -0.707115 0.000000
vn -0.707053 0.707161 0.000000
vn -0.707053 0.707161 0.000000
vn -0.707053 0.707161 0.000000
vn -0.707053 0.707161 0.000000
vn 0.707098 0.707115 0.000000
vn 0.707098 0.707115 0.000000
vn 0.707098 0.707115 0.000000
vn 0.707098 0.707115 0.000000
vn 0.707053 -0.707161 0.000000
vn 0.707053 -0.707161 0.000000
vn 0.707053 -0.707161 0.000000
vn 0.707053 -0.707161 0.000000
vn -0.000000 0.000000 1.000000
vn -0.000000 0.000000 1.000000
vn -0.000000 0.000000 1.000000
vn -0.000000 0.000000 1.000000
vn -0.000000 0.000000 -1.000000
vn -0.000000 0.000000 -1.000000
vn -0.000000 0.000000 -1.000000
vn -0.000000 0.000000 -1.000000
vn 0.707115 -0.707098 0.000000
vn 0.707115 -0.707098 0.000000
vn 0.707115 -0.707098 0.000000
vn 0.707115 -0.707098 0.000000
vn -0.707107 -0.707106 0.000000
vn -0.707107 -0.707106 0.000000
vn -0.707107 -0.707106 0.000000
vn -0.707107 -0.707106 0.000000
vn -0.707090 0.707124 0.000000
vn -0.707090 0.707124 0.000000
vn -0.707090 0.707124 0.000000
vn -0.707090 0.707124 0.000000
vn 0.707155 0.707059 0.000000
vn 0.707155 0.707059 0.000000
vn 0.707155 0.707059 0.000000
vn 0.707155 0.707059 0.000000
vn 0.000001 -0.000001 1.000000
vn 0.000001 -0.000001 1.000000
vn 0.000001 -0.000001 1.000000
vn 0.000001 -0.000001 1.000000
vn 0.000001 -0.000001 -1.000000
vn 0.000001 -0.000001 -1.000000
vn 0.000001 -0.000001 -1.000000
vn 0.000001 -0.000001 -1.000000
vn 0.707095 0.707119 0.000000
vn 0.707095 0.707119 0.000000
vn 0.707095 0.707119 0.000000
vn 0.707095 0.707119 0.000000
vn 0.707053 -0.707161 0.000000
vn 0.707053 -0.707161 0.000000
vn 0.707053 -0.707161 0.000000
vn 0.707053 -0.707161 0.000000
vn -0.707095 -0.707119 0.000000
vn -0.707095 -0.707119 0.000000
vn -0.707095 -0.707119 0.000000
vn -0.707095 -0.707119 0.000000
vn -0.707053 0.707161 0.000000
vn -0.707053 0.707161 0.000000
vn -0.707053 0.707161 0.000000
vn -0.707053 0.707161 0.000000
s off
f 11/25/1 12/26/2 13/27/3 14/28/4
f 15/37/5 16/38/6 17/39/7 18/40/8
f 16/38/9 19/41/10 20/42/11 17/39/12
f 19/41/13 11/43/14 14/44/15 20/42/16
f 1/13/17 6/16/18 7/15/19 2/14/20
f 3/17/21 8/20/22 9/19/23 4/18/24
f 4/18/25 9/19/26 10/22/27 5/21/28
f 5/21/29 10/22/30 6/24/31 1/23/32
f 1/1/33 2/2/34 12/26/35 11/25/36
f 2/2/37 7/8/38 13/27/39 12/26/40
f 7/8/41 6/7/42 14/28/43 13/27/44
f 3/3/45 4/4/46 16/30/47 15/29/48
f 9/10/49 8/9/50 18/32/51 17/31/52
f 8/9/53 3/3/54 15/29/55 18/32/56
f 4/4/57 5/5/58 19/33/59 16/30/60
f 10/11/61 9/10/62 17/31/63 20/34/64
f 5/5/65 1/6/66 11/35/67 19/33/68
f 6/12/69 10/11/70 20/34/71 14/36/72
f 31/45/73 32/46/74 33/47/75 34/48/76
f 35/49/77 36/50/78 37/51/79 38/52/80
f 36/50/81 39/53/82 40/54/83 37/51/84
f 39/53/85 31/55/86 34/56/87 40/54/88
f 21/57/89 26/58/90 27/59/91 22/60/92
f 23/61/93 28/62/94 29/63/95 24/64/96
f 24/64/97 29/63/98 30/65/99 25/66/100
f 25/66/101 30/65/102 26/67/103 21/68/104
f 21/69/105 22/70/106 32/46/107 31/45/108
f 22/70/109 27/71/110 33/47/111 32/46/112
f 27/71/113 26/72/114 34/48/115 33/47/116
f 23/73/117 24/74/118 36/75/119 35/76/120
f 29/77/121 28/78/122 38/79/123 37/80/124
f 28/78/125 23/73/126 35/76/127 38/79/128
f 24/74/129 25/81/130 39/82/131 36/75/132
f 30/83/133 29/77/134 37/80/135 40/84/136
f 25/81/137 21/85/138 31/86/139 39/82/140
f 26/87/141 30/83/142 40/84/143 34/88/144
f 51/89/145 52/90/146 53/91/147 54/92/148
f 55/93/149 56/94/150 57/95/151 58/96/152
f 56/94/153 59/97/154 60/98/155 57/95/156
f 59/97/157 51/99/158 54/100/159 60/98/160
f 41/101/161 46/102/162 47/103/163 42/104/164
f 43/105/165 48/106/166 49/107/167 44/108/168
f 44/108/169 49/107/170 50/109/171 45/110/172
f 45/110/173 50/109/174 46/111/175 41/112/176
f 41/113/177 42/114/178 52/90/179 51/89/180
f 42/114/181 47/115/182 53/91/183 52/90/184
f 47/115/185 46/116/186 54/92/187 53/91/188
f 43/117/189 44/118/190 56/119/191 55/120/192
f 49/121/193 48/122/194 58/123/195 57/124/196
f 48/122/197 43/117/198 55/120/199 58/123/200
f 44/118/201 45/125/202 59/126/203 56/119/204
f 50/127/205 49/121/206 57/124/207 60/128/208
f 45/125/209 41/129/210 51/130/211 59/126/212
f 46/131/213 50/127/214 60/128/215 54/132/216
f 71/133/217 72/134/218 73/135/219 74/136/220
f 75/137/221 76/138/222 77/139/223 78/140/224
f 76/138/225 79/141/226 80/142/227 77/139/228
f 79/141/229 71/143/230 74/144/231 80/142/232
f 61/145/233 66/146/234 67/147/235 62/148/236
f 63/149/237 68/150/238 69/151/239 64/152/240
f 64/152/241 69/151/242 70/153/243 65/154/244
f 65/154/245 70/153/246 66/155/247 61/156/248
f 61/157/249 62/158/250 72/134/251 71/133/252
f 62/158/253 67/159/254 73/135/255 72/134/256
f 67/159/257 66/160/258 74/136/259 73/135/260
f 63/161/261 64/162/262 76/163/263 75/164/264
f 69/165/265 68/166/266 78/167/267 77/168/268
f 68/166/269 63/161/270 75/164/271 78/167/272
f 64/162/273 65/169/274 79/170/275 76/163/276
f 70/171/277 69/165/278 77/168/279 80/172/280
f 65/169/281 61/173/282 71/174/283 79/170/284
f 66/175/285 70/171/286 80/172/287 74/176/288
f 85/177/289 88/178/290 87/179/291 86/180/292
f 81/181/293 82/182/294 84/183/295 83/184/296
f 81/185/297 85/177/298 86/180/299 82/186/300
f 82/186/301 86/180/302 87/179/303 84/187/304
f 84/187/305 87/179/306 88/178/307 83/188/308
f 83/188/309 88/178/310 85/177/311 81/185/312
f 93/189/313 96/190/314 95/191/315 94/192/316
f 89/193/317 90/194/318 92/195/319 91/196/320
f 89/197/321 93/189/322 94/192/323 90/198/324
f 90/198/325 94/192/326 95/191/327 92/199/328
f 92/199/329 95/191/330 96/190/331 91/200/332
f 91/200/333 96/190/334 93/189/335 89/197/336
f 101/201/337 104/202/338 103/203/339 102/204/340
f 97/205/341 98/206/342 100/207/343 99/208/344
f 97/209/345 101/201/346 102/204/347 98/210/348
f 98/210/349 102/204/350 103/203/351 100/211/352
f 100/211/353 103/203/354 104/202/355 99/212/356
f 99/212/357 104/202/358 101/201/359 97/209/360
f 109/213/361 112/214/362 111/215/363 110/216/364
f 105/217/365 106/218/366 108/219/367 107/220/368
f 105/221/369 109/213/370 110/216/371 106/222/372
f 106/222/373 110/216/374 111/215/375 108/223/376
f 108/223/377 111/215/378 112/214/379 107/224/380
f 107/224/381 112/214/382 109/213/383 105/221/384
