# This file uses meters as units for non-parametric coordinates.

v 7.890015 -3.408356 1.086655
v 5.958862 -6.297760 1.086655
v 3.069458 -8.228455 1.086655
v -0.338745 -8.906403 1.086655
v 8.567505 -0.000153 1.086655
v 7.890015 -3.408356 -1.086655
v 5.958862 -6.297760 -1.086655
v 3.069458 -8.228455 -1.086655
v -0.338745 -8.906403 -1.086655
v 8.567505 -0.000153 -1.086655
v 6.671143 -2.903595 1.086655
v 5.026245 -5.365143 1.086655
v 5.026245 -5.365143 -1.086655
v 6.671143 -2.903595 -1.086655
v 2.564697 -7.009888 1.086655
v 2.564697 -7.009888 -1.086655
v -0.338745 -7.587280 1.086655
v -0.338745 -7.587280 -1.086655
v 7.248535 -0.000153 1.086655
v 7.248535 -0.000153 -1.086655
v -3.746948 -8.228455 1.086655
v -6.636353 -6.297760 1.086655
v -8.567505 -3.408356 1.086655
v -3.746948 -8.228455 -1.086655
v -6.636353 -6.297760 -1.086655
v -8.567505 -3.408356 -1.086655
v -3.242188 -7.009888 1.086655
v -3.242188 -7.009888 -1.086655
v -5.703735 -5.365143 1.086655
v -5.703735 -5.365143 -1.086655
v -7.348633 -2.903595 1.086655
v -7.348633 -2.903595 -1.086655
v -8.567505 3.408203 1.086655
v -6.636353 6.297760 1.086655
v -3.746948 8.228302 1.086655
v -0.338745 8.906403 1.086655
v -8.567505 3.408203 -1.086655
v -6.636353 6.297760 -1.086655
v -3.746948 8.228302 -1.086655
v -0.338745 8.906403 -1.086655
v -7.348633 2.903442 1.086655
v -7.348633 2.903442 -1.086655
v -5.703735 5.364838 1.086655
v -5.703735 5.364838 -1.086655
v -3.242188 7.009735 1.086655
v -3.242188 7.009735 -1.086655
v -0.338745 7.587128 1.086655
v -0.338745 7.587128 -1.086655
vt 0.330180 0.385241
vt 0.330180 0.385241
vt 0.330180 0.385241
vt 0.330180 0.385241
vt 0.330180 0.385241
vt 0.330180 0.385241
vt 0.330180 0.385241
vt 0.330180 0.385241
vt 0.330180 0.385241
vt 0.330180 0.385241
vt 0.330180 0.385241
vt 0.330180 0.385241
vt 0.330180 0.385241
vt 0.330180 0.385241
vt 0.330180 0.385241
vt 0.330180 0.385241
vt 0.330180 0.385241
vt 0.330180 0.385241
vt 0.330180 0.385241
vt 0.330180 0.385241
vt 0.330180 0.385241
vt 0.330180 0.385241
vt 0.330180 0.385241
vt 0.330180 0.385241
vt 0.330180 0.385241
vt 0.330180 0.385241
vt 0.330180 0.385241
vt 0.330180 0.385241
vt 0.330180 0.385241
vt 0.330180 0.385241
vt 0.330180 0.385241
vt 0.330180 0.385241
vt 0.330180 0.385241
vt 0.330180 0.385241
vt 0.330180 0.385241
vt 0.330180 0.385241
vt 0.330180 0.385241
vt 0.330180 0.385241
vt 0.330180 0.385241
vt 0.330180 0.385241
vt 0.330180 0.385241
vt 0.330180 0.385241
vt 0.330180 0.385241
vt 0.330180 0.385241
vt 0.330180 0.385241
vt 0.330180 0.385241
vt 0.330180 0.385241
vt 0.330180 0.385241
vt 0.330180 0.385241
vt 0.330180 0.385241
vt 0.330180 0.385241
vt 0.330180 0.385241
vt 0.330180 0.385241
vt 0.330180 0.385241
vt 0.330180 0.385241
vt 0.330180 0.385241
vt 0.330180 0.385241
vt 0.330180 0.385241
vt 0.330180 0.385241
vt 0.330180 0.385241
vt 0.330180 0.385241
vt 0.330180 0.385241
vt 0.330180 0.385241
vt 0.330180 0.385241
vt 0.330180 0.385241
vt 0.330180 0.385241
vt 0.330180 0.385241
vt 0.330180 0.385241
vt 0.330180 0.385241
vt 0.330180 0.385241
vt 0.330180 0.385241
vt 0.330180 0.385241
vt 0.330180 0.385241
vt 0.330180 0.385241
vt 0.330180 0.385241
vt 0.330180 0.385241
vt 0.330180 0.385241
vt 0.330180 0.385241
vn -0.831447 0.555604 0.000000
vn -0.831447 0.555604 0.000000
vn -0.831447 0.555604 0.000000
vn -0.831447 0.555604 0.000000
vn -0.555568 0.831471 0.000000
vn -0.555568 0.831471 0.000000
vn -0.555568 0.831471 0.000000
vn -0.555568 0.831471 0.000000
vn -0.195045 0.980794 0.000000
vn -0.195045 0.980794 0.000000
vn -0.195045 0.980794 0.000000
vn -0.195045 0.980794 0.000000
vn -0.980794 0.195046 0.000000
vn -0.980794 0.195046 0.000000
vn -0.980794 0.195046 0.000000
vn -0.980794 0.195046 0.000000
vn 0.831401 -0.555672 0.000000
vn 0.831401 -0.555672 0.000000
vn 0.831401 -0.555672 0.000000
vn 0.831401 -0.555672 0.000000
vn 0.555582 -0.831462 0.000000
vn 0.555582 -0.831462 0.000000
vn 0.555582 -0.831462 0.000000
vn 0.555582 -0.831462 0.000000
vn 0.195094 -0.980785 0.000000
vn 0.195094 -0.980785 0.000000
vn 0.195094 -0.980785 0.000000
vn 0.195094 -0.980785 0.000000
vn 0.980810 -0.194968 0.000000
vn 0.980810 -0.194968 0.000000
vn 0.980810 -0.194968 0.000000
vn 0.980810 -0.194968 0.000000
vn 0.000000 0.000000 1.000000
vn 0.000000 0.000000 1.000000
vn 0.000000 0.000000 1.000000
vn 0.000000 0.000000 1.000000
vn 0.000000 0.000000 -1.000000
vn 0.000000 0.000000 -1.000000
vn 0.000000 0.000000 -1.000000
vn 0.000000 0.000000 -1.000000
vn -0.000000 0.000000 1.000000
vn -0.000000 0.000000 1.000000
vn -0.000000 0.000000 1.000000
vn -0.000000 0.000000 1.000000
vn -0.000000 0.000000 -1.000000
vn -0.000000 0.000000 -1.000000
vn -0.000000 0.000000 -1.000000
vn -0.000000 0.000000 -1.000000
vn 0.000000 0.000000 1.000000
vn 0.000000 0.000000 1.000000
vn 0.000000 0.000000 1.000000
vn 0.000000 0.000000 1.000000
vn 0.000000 0.000000 -1.000000
vn 0.000000 0.000000 -1.000000
vn 0.000000 0.000000 -1.000000
vn 0.000000 0.000000 -1.000000
vn 0.000000 0.000000 1.000000
vn 0.000000 0.000000 1.000000
vn 0.000000 0.000000 1.000000
vn 0.000000 0.000000 1.000000
vn 0.000000 0.000000 -1.000000
vn 0.000000 0.000000 -1.000000
vn 0.000000 0.000000 -1.000000
vn 0.000000 0.000000 -1.000000
vn -1.000000 0.000000 0.000000
vn -1.000000 0.000000 0.000000
vn -1.000000 0.000000 0.000000
vn -1.000000 0.000000 0.000000
vn 0.000000 1.000000 0.000000
vn 0.000000 1.000000 0.000000
vn 0.000000 1.000000 0.000000
vn 0.000000 1.000000 0.000000
vn 0.555568 0.831471 0.000000
vn 0.555568 0.831471 0.000000
vn 0.555568 0.831471 0.000000
vn 0.555568 0.831471 0.000000
vn 0.831447 0.555604 0.000000
vn 0.831447 0.555604 0.000000
vn 0.831447 0.555604 0.000000
vn 0.831447 0.555604 0.000000
vn -0.555581 -0.831462 0.000000
vn -0.555581 -0.831462 0.000000
vn -0.555581 -0.831462 0.000000
vn -0.555581 -0.831462 0.000000
vn -0.831401 -0.555673 0.000000
vn -0.831401 -0.555673 0.000000
vn -0.831401 -0.555673 0.000000
vn -0.831401 -0.555673 0.000000
vn 0.000000 0.000000 1.000000
vn 0.000000 0.000000 1.000000
vn 0.000000 0.000000 1.000000
vn 0.000000 0.000000 1.000000
vn 0.000000 0.000000 -1.000000
vn 0.000000 0.000000 -1.000000
vn 0.000000 0.000000 -1.000000
vn 0.000000 0.000000 -1.000000
vn -0.000000 0.000000 1.000000
vn -0.000000 0.000000 1.000000
vn -0.000000 0.000000 1.000000
vn -0.000000 0.000000 1.000000
vn -0.000000 0.000000 -1.000000
vn -0.000000 0.000000 -1.000000
vn -0.000000 0.000000 -1.000000
vn -0.000000 0.000000 -1.000000
vn 0.923876 -0.382692 0.000000
vn 0.923876 -0.382692 0.000000
vn 0.923876 -0.382692 0.000000
vn 0.923876 -0.382692 0.000000
vn -0.382610 0.923910 0.000000
vn -0.382610 0.923910 0.000000
vn -0.382610 0.923910 0.000000
vn -0.382610 0.923910 0.000000
vn 0.831431 -0.555628 0.000000
vn 0.831431 -0.555628 0.000000
vn 0.831431 -0.555628 0.000000
vn 0.831431 -0.555628 0.000000
vn 0.555604 -0.831447 0.000000
vn 0.555604 -0.831447 0.000000
vn 0.555604 -0.831447 0.000000
vn 0.555604 -0.831447 0.000000
vn 0.195045 -0.980794 0.000000
vn 0.195045 -0.980794 0.000000
vn 0.195045 -0.980794 0.000000
vn 0.195045 -0.980794 0.000000
vn -0.831415 0.555652 0.000000
vn -0.831415 0.555652 0.000000
vn -0.831415 0.555652 0.000000
vn -0.831415 0.555652 0.000000
vn -0.555551 0.831482 0.000000
vn -0.555551 0.831482 0.000000
vn -0.555551 0.831482 0.000000
vn -0.555551 0.831482 0.000000
vn -0.195137 0.980776 0.000000
vn -0.195137 0.980776 0.000000
vn -0.195137 0.980776 0.000000
vn -0.195137 0.980776 0.000000
vn 0.000000 0.000000 1.000000
vn 0.000000 0.000000 1.000000
vn 0.000000 0.000000 1.000000
vn 0.000000 0.000000 1.000000
vn 0.000000 0.000000 -1.000000
vn 0.000000 0.000000 -1.000000
vn 0.000000 0.000000 -1.000000
vn 0.000000 0.000000 -1.000000
vn -0.000000 0.000000 1.000000
vn -0.000000 0.000000 1.000000
vn -0.000000 0.000000 1.000000
vn -0.000000 0.000000 1.000000
vn -0.000000 0.000000 -1.000000
vn -0.000000 0.000000 -1.000000
vn -0.000000 0.000000 -1.000000
vn -0.000000 0.000000 -1.000000
vn 0.000000 0.000000 1.000000
vn 0.000000 0.000000 1.000000
vn 0.000000 0.000000 1.000000
vn 0.000000 0.000000 1.000000
vn 0.000000 0.000000 -1.000000
vn 0.000000 0.000000 -1.000000
vn 0.000000 0.000000 -1.000000
vn 0.000000 0.000000 -1.000000
vn -0.382610 -0.923910 0.000000
vn -0.382610 -0.923910 0.000000
vn -0.382610 -0.923910 0.000000
vn -0.382610 -0.923910 0.000000
vn 1.000000 0.000000 0.000000
vn 1.000000 0.000000 0.000000
vn 1.000000 0.000000 0.000000
vn 1.000000 0.000000 0.000000
s off
f 11/1/1 14/2/2 13/3/3 12/4/4
f 12/4/5 13/3/6 16/5/7 15/6/8
f 15/6/9 16/5/10 18/7/11 17/8/12
f 19/9/13 20/10/14 14/11/15 11/12/16
f 1/13/17 2/14/18 7/15/19 6/16/20
f 2/14/21 3/17/22 8/18/23 7/15/24
f 3/17/25 4/19/26 9/20/27 8/18/28
f 5/21/29 1/22/30 6/23/31 10/24/32
f 1/25/33 11/1/34 12/4/35 2/26/36
f 7/27/37 13/3/38 14/2/39 6/28/40
f 2/26/41 12/4/42 15/6/43 3/29/44
f 8/30/45 16/5/46 13/3/47 7/27/48
f 3/29/49 15/6/50 17/8/51 4/31/52
f 9/32/53 18/7/54 16/5/55 8/30/56
f 5/33/57 19/9/58 11/12/59 1/34/60
f 6/35/61 14/11/62 20/10/63 10/36/64
f 9/20/65 4/31/66 17/8/67 18/7/68
f 10/36/69 20/10/70 19/9/71 5/21/72
f 27/37/73 28/38/74 30/39/75 29/40/76
f 29/40/77 30/39/78 32/41/79 31/42/80
f 21/43/81 22/44/82 25/45/83 24/46/84
f 22/44/85 23/47/86 26/48/87 25/45/88
f 21/49/89 27/37/90 29/40/91 22/50/92
f 25/51/93 30/39/94 28/38/95 24/52/96
f 22/50/97 29/40/98 31/42/99 23/53/100
f 26/54/101 32/41/102 30/39/103 25/51/104
f 24/52/105 28/38/106 27/37/107 21/43/108
f 26/48/109 23/53/110 31/42/111 32/41/112
f 41/55/113 42/56/114 44/57/115 43/58/116
f 43/58/117 44/57/118 46/59/119 45/60/120
f 45/60/121 46/59/122 48/61/123 47/62/124
f 33/63/125 34/64/126 38/65/127 37/66/128
f 34/64/129 35/67/130 39/68/131 38/65/132
f 35/67/133 36/69/134 40/70/135 39/68/136
f 33/71/137 41/55/138 43/58/139 34/72/140
f 38/73/141 44/57/142 42/56/143 37/74/144
f 34/72/145 43/58/146 45/60/147 35/75/148
f 39/76/149 46/59/150 44/57/151 38/73/152
f 35/75/153 45/60/154 47/62/155 36/77/156
f 40/78/157 48/61/158 46/59/159 39/76/160
f 37/74/161 42/56/162 41/55/163 33/63/164
f 40/70/165 36/77/166 47/62/167 48/61/168
