# This file uses meters as units for non-parametric coordinates.

v 9.168091 10.303192 -0.526398
v 15.569763 16.704712 -0.526398
v 10.303345 9.168091 -0.526398
v 16.704712 15.569611 -0.526398
v 9.168091 10.303192 0.526398
v 15.569763 16.704712 0.526398
v 16.704712 15.569611 0.526398
v 10.303345 9.168091 0.526398
v -10.238037 9.233246 -0.526398
v -16.639404 15.634766 -0.526398
v -9.233398 10.238037 -0.526398
v -15.634766 16.639404 -0.526398
v -10.238037 9.233246 0.526398
v -16.639404 15.634766 0.526398
v -15.634766 16.639404 0.526398
v -9.233398 10.238037 0.526398
v -9.168091 -10.303192 -0.526398
v -15.569458 -16.704712 -0.526398
v -10.303040 -9.168091 -0.526398
v -16.704712 -15.569611 -0.526398
v -9.168091 -10.303192 0.526398
v -15.569458 -16.704712 0.526398
v -16.704712 -15.569611 0.526398
v -10.303040 -9.168091 0.526398
v 10.238037 -9.233398 -0.526398
v 16.639404 -15.634697 -0.526390
v 9.233398 -10.238037 -0.526398
v 15.634766 -16.639488 -0.526390
v 10.238037 -9.233398 0.526398
v 16.639404 -15.634697 0.526390
v 15.634766 -16.639488 0.526390
v 9.233398 -10.238037 0.526398
vt 0.330180 0.385241
vt 0.330180 0.385241
vt 0.330180 0.385241
vt 0.330180 0.385241
vt 0.330180 0.385241
vt 0.330180 0.385241
vt 0.330180 0.385241
vt 0.330180 0.385241
vt 0.330180 0.385241
vt 0.330180 0.385241
vt 0.330180 0.385241
vt 0.330180 0.385241
vt 0.330180 0.385241
vt 0.330180 0.385241
vt 0.330180 0.385241
vt 0.330180 0.385241
vt 0.330180 0.385241
vt 0.330180 0.385241
vt 0.330180 0.385241
vt 0.330180 0.385241
vt 0.330180 0.385241
vt 0.330180 0.385241
vt 0.330180 0.385241
vt 0.330180 0.385241
vt 0.330180 0.385241
vt 0.330180 0.385241
vt 0.330180 0.385241
vt 0.330180 0.385241
vt 0.330180 0.385241
vt 0.330180 0.385241
vt 0.330180 0.385241
vt 0.330180 0.385241
vt 0.330180 0.385241
vt 0.330180 0.385241
vt 0.330180 0.385241
vt 0.330180 0.385241
vt 0.330180 0.385241
vt 0.330180 0.385241
vt 0.330180 0.385241
vt 0.330180 0.385241
vt 0.330180 0.385241
vt 0.330180 0.385241
vt 0.330180 0.385241
vt 0.330180 0.385241
vt 0.330180 0.385241
vt 0.330180 0.385241
vt 0.330180 0.385241
vt 0.330180 0.385241
vn 0.000000 0.000000 1.000000
vn 0.000000 0.000000 1.000000
vn 0.000000 0.000000 1.000000
vn 0.000000 0.000000 1.000000
vn 0.000000 0.000000 -1.000000
vn 0.000000 0.000000 -1.000000
vn 0.000000 0.000000 -1.000000
vn 0.000000 0.000000 -1.000000
vn -0.707098 0.707115 0.000000
vn -0.707098 0.707115 0.000000
vn -0.707098 0.707115 0.000000
vn -0.707098 0.707115 0.000000
vn 0.707155 0.707059 0.000000
vn 0.707155 0.707059 0.000000
vn 0.707155 0.707059 0.000000
vn 0.707155 0.707059 0.000000
vn 0.707115 -0.707098 0.000000
vn 0.707115 -0.707098 0.000000
vn 0.707115 -0.707098 0.000000
vn 0.707115 -0.707098 0.000000
vn -0.707059 -0.707154 0.000000
vn -0.707059 -0.707154 0.000000
vn -0.707059 -0.707154 0.000000
vn -0.707059 -0.707154 0.000000
vn 0.000000 0.000000 1.000000
vn 0.000000 0.000000 1.000000
vn 0.000000 0.000000 1.000000
vn 0.000000 0.000000 1.000000
vn 0.000000 0.000000 -1.000000
vn 0.000000 0.000000 -1.000000
vn 0.000000 0.000000 -1.000000
vn 0.000000 0.000000 -1.000000
vn -0.707115 -0.707098 0.000000
vn -0.707115 -0.707098 0.000000
vn -0.707115 -0.707098 0.000000
vn -0.707115 -0.707098 0.000000
vn -0.707106 0.707107 0.000000
vn -0.707106 0.707107 0.000000
vn -0.707106 0.707107 0.000000
vn -0.707106 0.707107 0.000000
vn 0.707107 0.707107 0.000000
vn 0.707107 0.707107 0.000000
vn 0.707107 0.707107 0.000000
vn 0.707107 0.707107 0.000000
vn 0.707160 -0.707053 0.000000
vn 0.707160 -0.707053 0.000000
vn 0.707160 -0.707053 0.000000
vn 0.707160 -0.707053 0.000000
vn 0.000000 0.000000 1.000000
vn 0.000000 0.000000 1.000000
vn 0.000000 0.000000 1.000000
vn 0.000000 0.000000 1.000000
vn -0.000000 0.000000 -1.000000
vn -0.000000 0.000000 -1.000000
vn -0.000000 0.000000 -1.000000
vn -0.000000 0.000000 -1.000000
vn 0.707115 -0.707098 0.000000
vn 0.707115 -0.707098 0.000000
vn 0.707115 -0.707098 0.000000
vn 0.707115 -0.707098 0.000000
vn -0.707060 -0.707154 0.000000
vn -0.707060 -0.707154 0.000000
vn -0.707060 -0.707154 0.000000
vn -0.707060 -0.707154 0.000000
vn -0.707098 0.707115 0.000000
vn -0.707098 0.707115 0.000000
vn -0.707098 0.707115 0.000000
vn -0.707098 0.707115 0.000000
vn 0.707155 0.707059 0.000000
vn 0.707155 0.707059 0.000000
vn 0.707155 0.707059 0.000000
vn 0.707155 0.707059 0.000000
vn 0.000001 -0.000001 1.000000
vn 0.000001 -0.000001 1.000000
vn 0.000001 -0.000001 1.000000
vn 0.000001 -0.000001 1.000000
vn 0.000001 -0.000001 -1.000000
vn 0.000001 -0.000001 -1.000000
vn 0.000001 -0.000001 -1.000000
vn 0.000001 -0.000001 -1.000000
vn 0.707103 0.707111 0.000000
vn 0.707103 0.707111 0.000000
vn 0.707103 0.707111 0.000000
vn 0.707103 0.707111 0.000000
vn 0.707160 -0.707053 0.000000
vn 0.707160 -0.707053 0.000000
vn 0.707160 -0.707053 0.000000
vn 0.707160 -0.707053 0.000000
vn -0.707111 -0.707102 0.000000
vn -0.707111 -0.707102 0.000000
vn -0.707111 -0.707102 0.000000
vn -0.707111 -0.707102 0.000000
vn -0.707107 0.707107 0.000000
vn -0.707107 0.707107 0.000000
vn -0.707107 0.707107 0.000000
vn -0.707107 0.707107 0.000000
s off
f 5/1/1 8/2/2 7/3/3 6/4/4
f 1/5/5 2/6/6 4/7/7 3/8/8
f 1/9/9 5/1/10 6/4/11 2/10/12
f 2/10/13 6/4/14 7/3/15 4/11/16
f 4/11/17 7/3/18 8/2/19 3/12/20
f 3/12/21 8/2/22 5/1/23 1/9/24
f 13/13/25 16/14/26 15/15/27 14/16/28
f 9/17/29 10/18/30 12/19/31 11/20/32
f 9/21/33 13/13/34 14/16/35 10/22/36
f 10/22/37 14/16/38 15/15/39 12/23/40
f 12/23/41 15/15/42 16/14/43 11/24/44
f 11/24/45 16/14/46 13/13/47 9/21/48
f 21/25/49 24/26/50 23/27/51 22/28/52
f 17/29/53 18/30/54 20/31/55 19/32/56
f 17/33/57 21/25/58 22/28/59 18/34/60
f 18/34/61 22/28/62 23/27/63 20/35/64
f 20/35/65 23/27/66 24/26/67 19/36/68
f 19/36/69 24/26/70 21/25/71 17/33/72
f 29/37/73 32/38/74 31/39/75 30/40/76
f 25/41/77 26/42/78 28/43/79 27/44/80
f 25/45/81 29/37/82 30/40/83 26/46/84
f 26/46/85 30/40/86 31/39/87 28/47/88
f 28/47/89 31/39/90 32/38/91 27/48/92
f 27/48/93 32/38/94 29/37/95 25/45/96
