# This file uses meters as units for non-parametric coordinates.

v 10.303345 -9.168091 -0.526398
v 16.704712 -15.569611 -0.526398
v 9.168091 -10.303192 -0.526398
v 15.569458 -16.704712 -0.526398
v 10.303345 -9.168091 0.526398
v 16.704712 -15.569611 0.526398
v 15.569458 -16.704712 0.526398
v 9.168091 -10.303192 0.526398
v 18.023682 -16.888733 -0.526398
v 18.023682 -16.888733 0.526398
v 16.888733 -18.023834 0.526398
v 16.888733 -18.023834 -0.526398
v 18.290100 -15.200653 -0.526398
v 18.290100 -15.200653 0.526398
v 19.001160 -15.911560 0.526398
v 19.001160 -15.911560 -0.526398
v 15.200806 -18.290253 -0.526398
v 15.200806 -18.290253 0.526398
v 15.911560 -19.001007 -0.526398
v 15.911560 -19.001007 0.526398
v 9.168091 10.303192 -0.526398
v 15.569458 16.704712 -0.526398
v 10.303345 9.168091 -0.526398
v 16.704712 15.569611 -0.526398
v 9.168091 10.303192 0.526398
v 15.569458 16.704712 0.526398
v 16.704712 15.569611 0.526398
v 10.303345 9.168091 0.526398
v 16.888733 18.023834 -0.526398
v 16.888733 18.023834 0.526398
v 18.023682 16.888733 0.526398
v 18.023682 16.888733 -0.526398
v 15.200806 18.290100 -0.526398
v 15.200806 18.290100 0.526398
v 15.911560 19.000854 0.526398
v 15.911560 19.000854 -0.526398
v 18.290100 15.200806 -0.526398
v 18.290100 15.200806 0.526398
v 19.000854 15.911560 -0.526398
v 19.000854 15.911560 0.526398
v -10.303345 9.168091 -0.526398
v -16.704712 15.569611 -0.526398
v -9.168091 10.303192 -0.526398
v -15.569458 16.704712 -0.526398
v -10.303345 9.168091 0.526398
v -16.704712 15.569611 0.526398
v -15.569458 16.704712 0.526398
v -9.168091 10.303192 0.526398
v -18.023682 16.888733 -0.526398
v -18.023682 16.888733 0.526398
v -16.888733 18.023834 0.526398
v -16.888733 18.023834 -0.526398
v -18.290100 15.200653 -0.526398
v -18.290100 15.200653 0.526398
v -19.001160 15.911560 0.526398
v -19.001160 15.911560 -0.526398
v -15.200806 18.290253 -0.526398
v -15.200806 18.290253 0.526398
v -15.911560 19.001007 -0.526398
v -15.911560 19.001007 0.526398
v -9.168091 -10.303192 -0.526398
v -15.569458 -16.704712 -0.526398
v -10.303345 -9.168091 -0.526398
v -16.704712 -15.569611 -0.526398
v -9.168091 -10.303192 0.526398
v -15.569458 -16.704712 0.526398
v -16.704712 -15.569611 0.526398
v -10.303345 -9.168091 0.526398
v -16.888733 -18.023834 -0.526398
v -16.888733 -18.023834 0.526398
v -18.023682 -16.888733 0.526398
v -18.023682 -16.888733 -0.526398
v -15.200806 -18.290100 -0.526398
v -15.200806 -18.290100 0.526398
v -15.911560 -19.000854 0.526398
v -15.911560 -19.000854 -0.526398
v -18.290100 -15.200806 -0.526398
v -18.290100 -15.200806 0.526398
v -19.000854 -15.911560 -0.526398
v -19.000854 -15.911560 0.526398
vt 0.330180 0.385241
vt 0.330180 0.385241
vt 0.330180 0.385241
vt 0.330180 0.385241
vt 0.330180 0.385241
vt 0.330180 0.385241
vt 0.330180 0.385241
vt 0.330180 0.385241
vt 0.330180 0.385241
vt 0.330180 0.385241
vt 0.330180 0.385241
vt 0.330180 0.385241
vt 0.330180 0.385241
vt 0.330180 0.385241
vt 0.330180 0.385241
vt 0.330180 0.385241
vt 0.330180 0.385241
vt 0.330180 0.385241
vt 0.330180 0.385241
vt 0.330180 0.385241
vt 0.330180 0.385241
vt 0.330180 0.385241
vt 0.330180 0.385241
vt 0.330180 0.385241
vt 0.330180 0.385241
vt 0.330180 0.385241
vt 0.330180 0.385241
vt 0.330180 0.385241
vt 0.330180 0.385241
vt 0.330180 0.385241
vt 0.330180 0.385241
vt 0.330180 0.385241
vt 0.330180 0.385241
vt 0.330180 0.385241
vt 0.330180 0.385241
vt 0.330180 0.385241
vt 0.330180 0.385241
vt 0.330180 0.385241
vt 0.330180 0.385241
vt 0.330180 0.385241
vt 0.330180 0.385241
vt 0.330180 0.385241
vt 0.330180 0.385241
vt 0.330180 0.385241
vt 0.330180 0.385241
vt 0.330180 0.385241
vt 0.330180 0.385241
vt 0.330180 0.385241
vt 0.330180 0.385241
vt 0.330180 0.385241
vt 0.330180 0.385241
vt 0.330180 0.385241
vt 0.330180 0.385241
vt 0.330180 0.385241
vt 0.330180 0.385241
vt 0.330180 0.385241
vt 0.330180 0.385241
vt 0.330180 0.385241
vt 0.330180 0.385241
vt 0.330180 0.385241
vt 0.330180 0.385241
vt 0.330180 0.385241
vt 0.330180 0.385241
vt 0.330180 0.385241
vt 0.330180 0.385241
vt 0.330180 0.385241
vt 0.330180 0.385241
vt 0.330180 0.385241
vt 0.330180 0.385241
vt 0.330180 0.385241
vt 0.330180 0.385241
vt 0.330180 0.385241
vt 0.330180 0.385241
vt 0.330180 0.385241
vt 0.330180 0.385241
vt 0.330180 0.385241
vt 0.330180 0.385241
vt 0.330180 0.385241
vt 0.330180 0.385241
vt 0.330180 0.385241
vt 0.330180 0.385241
vt 0.330180 0.385241
vt 0.330180 0.385241
vt 0.330180 0.385241
vt 0.330180 0.385241
vt 0.330180 0.385241
vt 0.330180 0.385241
vt 0.330180 0.385241
vt 0.330180 0.385241
vt 0.330180 0.385241
vt 0.330180 0.385241
vt 0.330180 0.385241
vt 0.330180 0.385241
vt 0.330180 0.385241
vt 0.330180 0.385241
vt 0.330180 0.385241
vn 0.000000 0.000000 1.000000
vn 0.000000 0.000000 1.000000
vn 0.000000 0.000000 1.000000
vn 0.000000 0.000000 1.000000
vn 0.000000 0.000000 -1.000000
vn 0.000000 0.000000 -1.000000
vn 0.000000 0.000000 -1.000000
vn 0.000000 0.000000 -1.000000
vn 0.707115 0.707098 0.000000
vn 0.707115 0.707098 0.000000
vn 0.707115 0.707098 0.000000
vn 0.707115 0.707098 0.000000
vn 0.707154 -0.707060 0.000000
vn 0.707154 -0.707060 0.000000
vn 0.707154 -0.707060 0.000000
vn 0.707154 -0.707060 0.000000
vn -0.707115 -0.707098 0.000000
vn -0.707115 -0.707098 0.000000
vn -0.707115 -0.707098 0.000000
vn -0.707115 -0.707098 0.000000
vn -0.707059 0.707154 0.000000
vn -0.707059 0.707154 0.000000
vn -0.707059 0.707154 0.000000
vn -0.707059 0.707154 0.000000
vn 0.707031 0.707183 0.000000
vn 0.707031 0.707183 0.000000
vn 0.707031 0.707183 0.000000
vn 0.707031 0.707183 0.000000
vn 0.000000 0.000000 1.000000
vn 0.000000 0.000000 1.000000
vn 0.000000 0.000000 1.000000
vn 0.000000 0.000000 1.000000
vn -0.707106 -0.707107 0.000000
vn -0.707106 -0.707107 0.000000
vn -0.707106 -0.707107 0.000000
vn -0.707106 -0.707107 0.000000
vn 0.000000 0.000000 -1.000000
vn 0.000000 0.000000 -1.000000
vn 0.000000 0.000000 -1.000000
vn 0.000000 0.000000 -1.000000
vn -0.226666 0.973972 0.000000
vn -0.226666 0.973972 0.000000
vn -0.226666 0.973972 0.000000
vn -0.226666 0.973972 0.000000
vn 0.000000 0.000000 1.000000
vn 0.000000 0.000000 1.000000
vn 0.000000 0.000000 1.000000
vn 0.000000 0.000000 1.000000
vn 0.706997 -0.707217 0.000000
vn 0.706997 -0.707217 0.000000
vn 0.706997 -0.707217 0.000000
vn 0.706997 -0.707217 0.000000
vn 0.000000 0.000000 -1.000000
vn 0.000000 0.000000 -1.000000
vn 0.000000 0.000000 -1.000000
vn 0.000000 0.000000 -1.000000
vn -0.974019 0.226469 0.000000
vn -0.974019 0.226469 0.000000
vn -0.974019 0.226469 0.000000
vn -0.974019 0.226469 0.000000
vn -0.000000 0.000000 -1.000000
vn -0.000000 0.000000 -1.000000
vn -0.000000 0.000000 -1.000000
vn -0.000000 0.000000 -1.000000
vn 0.707107 -0.707107 0.000000
vn 0.707107 -0.707107 0.000000
vn 0.707107 -0.707107 0.000000
vn 0.707107 -0.707107 0.000000
vn 0.000000 0.000000 1.000000
vn 0.000000 0.000000 1.000000
vn 0.000000 0.000000 1.000000
vn 0.000000 0.000000 1.000000
vn 0.000000 0.000000 1.000000
vn 0.000000 0.000000 1.000000
vn 0.000000 0.000000 1.000000
vn 0.000000 0.000000 1.000000
vn 0.000000 0.000000 -1.000000
vn 0.000000 0.000000 -1.000000
vn 0.000000 0.000000 -1.000000
vn 0.000000 0.000000 -1.000000
vn -0.707115 0.707098 0.000000
vn -0.707115 0.707098 0.000000
vn -0.707115 0.707098 0.000000
vn -0.707115 0.707098 0.000000
vn 0.707154 0.707060 0.000000
vn 0.707154 0.707060 0.000000
vn 0.707154 0.707060 0.000000
vn 0.707154 0.707060 0.000000
vn 0.707115 -0.707098 0.000000
vn 0.707115 -0.707098 0.000000
vn 0.707115 -0.707098 0.000000
vn 0.707115 -0.707098 0.000000
vn -0.707059 -0.707154 0.000000
vn -0.707059 -0.707154 0.000000
vn -0.707059 -0.707154 0.000000
vn -0.707059 -0.707154 0.000000
vn -0.707106 0.707107 0.000000
vn -0.707106 0.707107 0.000000
vn -0.707106 0.707107 0.000000
vn -0.707106 0.707107 0.000000
vn 0.000000 0.000000 1.000000
vn 0.000000 0.000000 1.000000
vn 0.000000 0.000000 1.000000
vn 0.000000 0.000000 1.000000
vn 0.707106 -0.707107 0.000000
vn 0.707106 -0.707107 0.000000
vn 0.707106 -0.707107 0.000000
vn 0.707106 -0.707107 0.000000
vn 0.000000 0.000000 -1.000000
vn 0.000000 0.000000 -1.000000
vn 0.000000 0.000000 -1.000000
vn 0.000000 0.000000 -1.000000
vn -0.974014 -0.226489 0.000000
vn -0.974014 -0.226489 0.000000
vn -0.974014 -0.226489 0.000000
vn -0.974014 -0.226489 0.000000
vn 0.000000 0.000000 1.000000
vn 0.000000 0.000000 1.000000
vn 0.000000 0.000000 1.000000
vn 0.000000 0.000000 1.000000
vn 0.707052 0.707162 0.000000
vn 0.707052 0.707162 0.000000
vn 0.707052 0.707162 0.000000
vn 0.707052 0.707162 0.000000
vn 0.000000 0.000000 -1.000000
vn 0.000000 0.000000 -1.000000
vn 0.000000 0.000000 -1.000000
vn 0.000000 0.000000 -1.000000
vn -0.226577 -0.973993 0.000000
vn -0.226577 -0.973993 0.000000
vn -0.226577 -0.973993 0.000000
vn -0.226577 -0.973993 0.000000
vn 0.000000 0.000000 -1.000000
vn 0.000000 0.000000 -1.000000
vn 0.000000 0.000000 -1.000000
vn 0.000000 0.000000 -1.000000
vn 0.707107 0.707107 0.000000
vn 0.707107 0.707107 0.000000
vn 0.707107 0.707107 0.000000
vn 0.707107 0.707107 0.000000
vn 0.000000 0.000000 1.000000
vn 0.000000 0.000000 1.000000
vn 0.000000 0.000000 1.000000
vn 0.000000 0.000000 1.000000
vn 0.000000 0.000000 1.000000
vn 0.000000 0.000000 1.000000
vn 0.000000 0.000000 1.000000
vn 0.000000 0.000000 1.000000
vn -0.000000 0.000000 -1.000000
vn -0.000000 0.000000 -1.000000
vn -0.000000 0.000000 -1.000000
vn -0.000000 0.000000 -1.000000
vn -0.707115 -0.707098 0.000000
vn -0.707115 -0.707098 0.000000
vn -0.707115 -0.707098 0.000000
vn -0.707115 -0.707098 0.000000
vn -0.707154 0.707060 0.000000
vn -0.707154 0.707060 0.000000
vn -0.707154 0.707060 0.000000
vn -0.707154 0.707060 0.000000
vn 0.707115 0.707098 0.000000
vn 0.707115 0.707098 0.000000
vn 0.707115 0.707098 0.000000
vn 0.707115 0.707098 0.000000
vn 0.707059 -0.707154 0.000000
vn 0.707059 -0.707154 0.000000
vn 0.707059 -0.707154 0.000000
vn 0.707059 -0.707154 0.000000
vn -0.707031 -0.707183 0.000000
vn -0.707031 -0.707183 0.000000
vn -0.707031 -0.707183 0.000000
vn -0.707031 -0.707183 0.000000
vn -0.000000 0.000000 1.000000
vn -0.000000 0.000000 1.000000
vn -0.000000 0.000000 1.000000
vn -0.000000 0.000000 1.000000
vn 0.707106 0.707107 0.000000
vn 0.707106 0.707107 0.000000
vn 0.707106 0.707107 0.000000
vn 0.707106 0.707107 0.000000
vn 0.000000 0.000000 -1.000000
vn 0.000000 0.000000 -1.000000
vn 0.000000 0.000000 -1.000000
vn 0.000000 0.000000 -1.000000
vn 0.226666 -0.973972 0.000000
vn 0.226666 -0.973972 0.000000
vn 0.226666 -0.973972 0.000000
vn 0.226666 -0.973972 0.000000
vn -0.000000 0.000000 1.000000
vn -0.000000 0.000000 1.000000
vn -0.000000 0.000000 1.000000
vn -0.000000 0.000000 1.000000
vn -0.706997 0.707217 0.000000
vn -0.706997 0.707217 0.000000
vn -0.706997 0.707217 0.000000
vn -0.706997 0.707217 0.000000
vn 0.000000 0.000000 -1.000000
vn 0.000000 0.000000 -1.000000
vn 0.000000 0.000000 -1.000000
vn 0.000000 0.000000 -1.000000
vn 0.974019 -0.226469 0.000000
vn 0.974019 -0.226469 0.000000
vn 0.974019 -0.226469 0.000000
vn 0.974019 -0.226469 0.000000
vn 0.000000 0.000000 -1.000000
vn 0.000000 0.000000 -1.000000
vn 0.000000 0.000000 -1.000000
vn 0.000000 0.000000 -1.000000
vn -0.707107 0.707107 0.000000
vn -0.707107 0.707107 0.000000
vn -0.707107 0.707107 0.000000
vn -0.707107 0.707107 0.000000
vn 0.000000 0.000000 1.000000
vn 0.000000 0.000000 1.000000
vn 0.000000 0.000000 1.000000
vn 0.000000 0.000000 1.000000
vn 0.000000 0.000000 1.000000
vn 0.000000 0.000000 1.000000
vn 0.000000 0.000000 1.000000
vn 0.000000 0.000000 1.000000
vn -0.000000 0.000000 -1.000000
vn -0.000000 0.000000 -1.000000
vn -0.000000 0.000000 -1.000000
vn -0.000000 0.000000 -1.000000
vn 0.707115 -0.707098 0.000000
vn 0.707115 -0.707098 0.000000
vn 0.707115 -0.707098 0.000000
vn 0.707115 -0.707098 0.000000
vn -0.707154 -0.707060 0.000000
vn -0.707154 -0.707060 0.000000
vn -0.707154 -0.707060 0.000000
vn -0.707154 -0.707060 0.000000
vn -0.707115 0.707098 0.000000
vn -0.707115 0.707098 0.000000
vn -0.707115 0.707098 0.000000
vn -0.707115 0.707098 0.000000
vn 0.707059 0.707154 0.000000
vn 0.707059 0.707154 0.000000
vn 0.707059 0.707154 0.000000
vn 0.707059 0.707154 0.000000
vn 0.707106 -0.707107 0.000000
vn 0.707106 -0.707107 0.000000
vn 0.707106 -0.707107 0.000000
vn 0.707106 -0.707107 0.000000
vn 0.000000 0.000000 1.000000
vn 0.000000 0.000000 1.000000
vn 0.000000 0.000000 1.000000
vn 0.000000 0.000000 1.000000
vn -0.707106 0.707107 0.000000
vn -0.707106 0.707107 0.000000
vn -0.707106 0.707107 0.000000
vn -0.707106 0.707107 0.000000
vn -0.000000 0.000000 -1.000000
vn -0.000000 0.000000 -1.000000
vn -0.000000 0.000000 -1.000000
vn -0.000000 0.000000 -1.000000
vn 0.974014 0.226489 0.000000
vn 0.974014 0.226489 0.000000
vn 0.974014 0.226489 0.000000
vn 0.974014 0.226489 0.000000
vn 0.000000 0.000000 1.000000
vn 0.000000 0.000000 1.000000
vn 0.000000 0.000000 1.000000
vn 0.000000 0.000000 1.000000
vn -0.707052 -0.707162 0.000000
vn -0.707052 -0.707162 0.000000
vn -0.707052 -0.707162 0.000000
vn -0.707052 -0.707162 0.000000
vn 0.000000 0.000000 -1.000000
vn 0.000000 0.000000 -1.000000
vn 0.000000 0.000000 -1.000000
vn 0.000000 0.000000 -1.000000
vn 0.226577 0.973993 0.000000
vn 0.226577 0.973993 0.000000
vn 0.226577 0.973993 0.000000
vn 0.226577 0.973993 0.000000
vn -0.000000 0.000000 -1.000000
vn -0.000000 0.000000 -1.000000
vn -0.000000 0.000000 -1.000000
vn -0.000000 0.000000 -1.000000
vn -0.707107 -0.707107 0.000000
vn -0.707107 -0.707107 0.000000
vn -0.707107 -0.707107 0.000000
vn -0.707107 -0.707107 0.000000
vn 0.000000 0.000000 1.000000
vn 0.000000 0.000000 1.000000
vn 0.000000 0.000000 1.000000
vn 0.000000 0.000000 1.000000
s off
f 5/1/1 8/2/2 7/3/3 6/4/4
f 1/5/5 2/6/6 4/7/7 3/8/8
f 1/9/9 5/1/10 6/4/11 2/10/12
f 9/13/13 10/14/14 11/15/15 12/16/16
f 4/11/17 7/3/18 8/2/19 3/12/20
f 3/12/21 8/2/22 5/1/23 1/9/24
f 13/17/25 14/18/26 15/19/27 16/20/28
f 6/4/29 7/3/30 11/15/31 10/14/32
f 18/21/33 17/22/34 19/23/35 20/24/36
f 4/11/37 2/10/38 9/13/39 12/16/40
f 2/10/41 6/4/42 14/18/43 13/17/44
f 6/4/45 10/14/46 15/19/47 14/18/48
f 10/14/49 9/13/50 16/20/51 15/19/52
f 9/13/53 2/10/54 13/17/55 16/20/56
f 7/3/57 4/11/58 17/22/59 18/21/60
f 4/11/61 12/16/62 19/23/63 17/22/64
f 12/16/65 11/15/66 20/24/67 19/23/68
f 11/15/69 7/3/70 18/21/71 20/24/72
f 25/25/73 28/26/74 27/27/75 26/28/76
f 21/29/77 22/30/78 24/31/79 23/32/80
f 21/33/81 25/25/82 26/28/83 22/34/84
f 29/35/85 30/36/86 31/37/87 32/38/88
f 24/39/89 27/27/90 28/26/91 23/40/92
f 23/40/93 28/26/94 25/25/95 21/33/96
f 33/41/97 34/42/98 35/43/99 36/44/100
f 26/28/101 27/27/102 31/37/103 30/36/104
f 38/45/105 37/46/106 39/47/107 40/48/108
f 24/39/109 22/34/110 29/35/111 32/38/112
f 22/34/113 26/28/114 34/42/115 33/41/116
f 26/28/117 30/36/118 35/43/119 34/42/120
f 30/36/121 29/35/122 36/44/123 35/43/124
f 29/35/125 22/34/126 33/41/127 36/44/128
f 27/27/129 24/39/130 37/46/131 38/45/132
f 24/39/133 32/38/134 39/47/135 37/46/136
f 32/38/137 31/37/138 40/48/139 39/47/140
f 31/37/141 27/27/142 38/45/143 40/48/144
f 45/49/145 48/50/146 47/51/147 46/52/148
f 41/53/149 42/54/150 44/55/151 43/56/152
f 41/57/153 45/49/154 46/52/155 42/58/156
f 49/59/157 50/60/158 51/61/159 52/62/160
f 44/63/161 47/51/162 48/50/163 43/64/164
f 43/64/165 48/50/166 45/49/167 41/57/168
f 53/65/169 54/66/170 55/67/171 56/68/172
f 46/52/173 47/51/174 51/61/175 50/60/176
f 58/69/177 57/70/178 59/71/179 60/72/180
f 44/63/181 42/58/182 49/59/183 52/62/184
f 42/58/185 46/52/186 54/66/187 53/65/188
f 46/52/189 50/60/190 55/67/191 54/66/192
f 50/60/193 49/59/194 56/68/195 55/67/196
f 49/59/197 42/58/198 53/65/199 56/68/200
f 47/51/201 44/63/202 57/70/203 58/69/204
f 44/63/205 52/62/206 59/71/207 57/70/208
f 52/62/209 51/61/210 60/72/211 59/71/212
f 51/61/213 47/51/214 58/69/215 60/72/216
f 65/73/217 68/74/218 67/75/219 66/76/220
f 61/77/221 62/78/222 64/79/223 63/80/224
f 61/81/225 65/73/226 66/76/227 62/82/228
f 69/83/229 70/84/230 71/85/231 72/86/232
f 64/87/233 67/75/234 68/74/235 63/88/236
f 63/88/237 68/74/238 65/73/239 61/81/240
f 73/89/241 74/90/242 75/91/243 76/92/244
f 66/76/245 67/75/246 71/85/247 70/84/248
f 78/93/249 77/94/250 79/95/251 80/96/252
f 64/87/253 62/82/254 69/83/255 72/86/256
f 62/82/257 66/76/258 74/90/259 73/89/260
f 66/76/261 70/84/262 75/91/263 74/90/264
f 70/84/265 69/83/266 76/92/267 75/91/268
f 69/83/269 62/82/270 73/89/271 76/92/272
f 67/75/273 64/87/274 77/94/275 78/93/276
f 64/87/277 72/86/278 79/95/279 77/94/280
f 72/86/281 71/85/282 80/96/283 79/95/284
f 71/85/285 67/75/286 78/93/287 80/96/288
