# This file uses meters as units for non-parametric coordinates.

v 10.862427 -4.095001 1.086563
v 8.313599 -7.909470 1.086571
v 4.499512 -10.458221 1.086571
v 0.000000 -11.353073 1.086571
v -4.499512 -10.458221 1.086571
v -8.313599 -7.909470 1.086571
v -10.862427 -4.095001 1.086563
v -11.757507 0.404282 1.086563
v -10.862427 4.903641 1.086563
v -8.313599 8.718033 1.086571
v -4.499512 11.266785 1.086571
v 0.000000 12.161636 1.086571
v 4.499512 11.266785 1.086571
v 8.313599 8.718033 1.086571
v 10.862427 4.903641 1.086563
v 11.757507 0.404282 1.086563
v 10.862427 -4.095001 -1.086563
v 8.313599 -7.909470 -1.086571
v 4.499512 -10.458221 -1.086571
v 0.000000 -11.353073 -1.086571
v -4.499512 -10.458221 -1.086571
v -8.313599 -7.909470 -1.086571
v -10.862427 -4.095001 -1.086563
v -11.757507 0.404282 -1.086563
v -10.862427 4.903641 -1.086563
v -8.313599 8.718033 -1.086571
v -4.499512 11.266785 -1.086571
v 0.000000 12.161636 -1.086571
v 4.499512 11.266785 -1.086571
v 8.313599 8.718033 -1.086571
v 10.862427 4.903641 -1.086563
v 11.757202 0.404282 -1.086563
v 9.617004 -3.579178 1.086571
v 7.360229 -6.956177 1.086571
v 7.360229 -6.956177 -1.086571
v 9.617004 -3.579178 -1.086571
v 3.983459 -9.212646 1.086571
v 3.983459 -9.212646 -1.086571
v 0.000000 -10.005035 1.086571
v 0.000000 -10.005035 -1.086571
v -3.983459 -9.212646 1.086571
v -3.983459 -9.212646 -1.086571
v -7.360229 -6.956177 1.086571
v -7.360229 -6.956177 -1.086571
v -9.617004 -3.579178 1.086571
v -9.617004 -3.579178 -1.086571
v -10.409241 0.404282 1.086563
v -10.409241 0.404282 -1.086563
v -9.617004 4.387742 1.086571
v -9.617004 4.387742 -1.086571
v -7.360229 7.764740 1.086571
v -7.360229 7.764740 -1.086571
v -3.983459 10.021210 1.086571
v -3.983459 10.021210 -1.086571
v 0.000000 10.813599 1.086571
v 0.000000 10.813599 -1.086571
v 3.983459 10.021210 1.086571
v 3.983459 10.021210 -1.086571
v 7.360229 7.764740 1.086571
v 7.360229 7.764740 -1.086571
v 9.617004 4.387741 1.086571
v 9.617004 4.387741 -1.086571
v 10.409241 0.404282 1.086563
v 10.409241 0.404282 -1.086563
v 11.548157 -4.553146 1.086563
v 8.999023 -8.367538 1.086571
v 8.999023 -8.367538 -1.086571
v 11.548157 -4.553146 -1.086563
v -0.160828 -12.161789 1.086571
v -4.808960 -11.205368 1.086571
v -4.808960 -11.205368 -1.086571
v -0.160828 -12.161789 -1.086571
v -8.771667 -8.595047 1.086571
v -8.771667 -8.595047 -1.086571
v -12.566223 0.565186 1.086563
v -11.609802 5.213165 1.086563
v -11.609802 5.213165 -1.086563
v -12.566223 0.565186 -1.086563
v -8.999329 9.176102 1.086571
v -8.999329 9.176102 -1.086571
v 4.957581 11.952438 1.086571
v 8.885498 9.289932 1.086571
v 8.885498 9.289932 -1.086571
v 4.957581 11.952437 -1.086571
v 11.609802 5.213165 1.086563
v 11.609802 5.213165 -1.086563
v 12.566223 0.565186 1.086563
v 12.566223 0.565186 -1.086563
vt 0.330180 0.385241
vt 0.330180 0.385241
vt 0.330180 0.385241
vt 0.330180 0.385241
vt 0.330180 0.385241
vt 0.330180 0.385241
vt 0.330180 0.385241
vt 0.330180 0.385241
vt 0.330180 0.385241
vt 0.330180 0.385241
vt 0.330180 0.385241
vt 0.330180 0.385241
vt 0.330180 0.385241
vt 0.330180 0.385241
vt 0.330180 0.385241
vt 0.330180 0.385241
vt 0.330180 0.385241
vt 0.330180 0.385241
vt 0.330180 0.385241
vt 0.330180 0.385241
vt 0.330180 0.385241
vt 0.330180 0.385241
vt 0.330180 0.385241
vt 0.330180 0.385241
vt 0.330180 0.385241
vt 0.330180 0.385241
vt 0.330180 0.385241
vt 0.330180 0.385241
vt 0.330180 0.385241
vt 0.330180 0.385241
vt 0.330180 0.385241
vt 0.330180 0.385241
vt 0.330180 0.385241
vt 0.330180 0.385241
vt 0.330180 0.385241
vt 0.330180 0.385241
vt 0.330180 0.385241
vt 0.330180 0.385241
vt 0.330180 0.385241
vt 0.330180 0.385241
vt 0.330180 0.385241
vt 0.330180 0.385241
vt 0.330180 0.385241
vt 0.330180 0.385241
vt 0.330180 0.385241
vt 0.330180 0.385241
vt 0.330180 0.385241
vt 0.330180 0.385241
vt 0.330180 0.385241
vt 0.330180 0.385241
vt 0.330180 0.385241
vt 0.330180 0.385241
vt 0.330180 0.385241
vt 0.330180 0.385241
vt 0.330180 0.385241
vt 0.330180 0.385241
vt 0.330180 0.385241
vt 0.330180 0.385241
vt 0.330180 0.385241
vt 0.330180 0.385241
vt 0.330180 0.385241
vt 0.330180 0.385241
vt 0.330180 0.385241
vt 0.330180 0.385241
vt 0.330180 0.385241
vt 0.330180 0.385241
vt 0.330180 0.385241
vt 0.330180 0.385241
vt 0.330180 0.385241
vt 0.330180 0.385241
vt 0.330180 0.385241
vt 0.330180 0.385241
vt 0.330180 0.385241
vt 0.330180 0.385241
vt 0.330180 0.385241
vt 0.330180 0.385241
vt 0.330180 0.385241
vt 0.330180 0.385241
vt 0.330180 0.385241
vt 0.330180 0.385241
vt 0.330180 0.385241
vt 0.330180 0.385241
vt 0.330180 0.385241
vt 0.330180 0.385241
vt 0.330180 0.385241
vt 0.330180 0.385241
vt 0.330180 0.385241
vt 0.330180 0.385241
vt 0.330180 0.385241
vt 0.330180 0.385241
vt 0.330180 0.385241
vt 0.330180 0.385241
vt 0.330180 0.385241
vt 0.330180 0.385241
vt 0.330180 0.385241
vt 0.330180 0.385241
vt 0.330180 0.385241
vt 0.330180 0.385241
vt 0.330180 0.385241
vt 0.330180 0.385241
vt 0.330180 0.385241
vt 0.330180 0.385241
vt 0.330180 0.385241
vt 0.330180 0.385241
vt 0.330180 0.385241
vt 0.330180 0.385241
vt 0.330180 0.385241
vt 0.330180 0.385241
vt 0.330180 0.385241
vt 0.330180 0.385241
vt 0.330180 0.385241
vt 0.330180 0.385241
vt 0.330180 0.385241
vt 0.330180 0.385241
vt 0.330180 0.385241
vt 0.330180 0.385241
vt 0.330180 0.385241
vt 0.330180 0.385241
vt 0.330180 0.385241
vt 0.330180 0.385241
vt 0.330180 0.385241
vt 0.330180 0.385241
vt 0.330180 0.385241
vt 0.330180 0.385241
vt 0.330180 0.385241
vt 0.330180 0.385241
vn -0.831431 0.555628 0.000000
vn -0.831431 0.555628 0.000000
vn -0.831431 0.555628 0.000000
vn -0.831431 0.555628 0.000000
vn -0.555602 0.831449 0.000000
vn -0.555602 0.831449 0.000000
vn -0.555602 0.831449 0.000000
vn -0.555602 0.831449 0.000000
vn -0.195097 0.980784 0.000000
vn -0.195097 0.980784 0.000000
vn -0.195097 0.980784 0.000000
vn -0.195097 0.980784 0.000000
vn 0.195097 0.980784 0.000000
vn 0.195097 0.980784 0.000000
vn 0.195097 0.980784 0.000000
vn 0.195097 0.980784 0.000000
vn 0.555602 0.831449 0.000000
vn 0.555602 0.831449 0.000000
vn 0.555602 0.831449 0.000000
vn 0.555602 0.831449 0.000000
vn 0.831431 0.555628 0.000000
vn 0.831431 0.555628 0.000000
vn 0.831431 0.555628 0.000000
vn 0.831431 0.555628 0.000000
vn 0.980791 0.195061 0.000000
vn 0.980791 0.195061 0.000000
vn 0.980791 0.195061 0.000000
vn 0.980791 0.195061 0.000000
vn 0.980791 -0.195061 0.000000
vn 0.980791 -0.195061 0.000000
vn 0.980791 -0.195061 0.000000
vn 0.980791 -0.195061 0.000000
vn 0.831431 -0.555628 0.000000
vn 0.831431 -0.555628 0.000000
vn 0.831431 -0.555628 0.000000
vn 0.831431 -0.555628 0.000000
vn 0.555602 -0.831449 0.000000
vn 0.555602 -0.831449 0.000000
vn 0.555602 -0.831449 0.000000
vn 0.555602 -0.831449 0.000000
vn 0.195097 -0.980784 0.000000
vn 0.195097 -0.980784 0.000000
vn 0.195097 -0.980784 0.000000
vn 0.195097 -0.980784 0.000000
vn -0.195097 -0.980784 0.000000
vn -0.195097 -0.980784 0.000000
vn -0.195097 -0.980784 0.000000
vn -0.195097 -0.980784 0.000000
vn -0.555602 -0.831449 0.000000
vn -0.555602 -0.831449 0.000000
vn -0.555602 -0.831449 0.000000
vn -0.555602 -0.831449 0.000000
vn -0.831431 -0.555628 0.000000
vn -0.831431 -0.555628 0.000000
vn -0.831431 -0.555628 0.000000
vn -0.831431 -0.555628 0.000000
vn -0.980791 -0.195061 0.000000
vn -0.980791 -0.195061 0.000000
vn -0.980791 -0.195061 0.000000
vn -0.980791 -0.195061 0.000000
vn -0.980791 0.195061 0.000000
vn -0.980791 0.195061 0.000000
vn -0.980791 0.195061 0.000000
vn -0.980791 0.195061 0.000000
vn 0.831425 -0.555636 0.000000
vn 0.831425 -0.555636 0.000000
vn 0.831425 -0.555636 0.000000
vn 0.831425 -0.555636 0.000000
vn 0.555609 -0.831443 0.000000
vn 0.555609 -0.831443 0.000000
vn 0.555609 -0.831443 0.000000
vn 0.555609 -0.831443 0.000000
vn 0.195057 -0.980792 0.000000
vn 0.195057 -0.980792 0.000000
vn 0.195057 -0.980792 0.000000
vn 0.195057 -0.980792 0.000000
vn -0.201542 -0.979480 0.000000
vn -0.201542 -0.979480 0.000000
vn -0.201542 -0.979480 0.000000
vn -0.201542 -0.979480 0.000000
vn -0.550098 -0.835100 0.000000
vn -0.550098 -0.835100 0.000000
vn -0.550098 -0.835100 0.000000
vn -0.550098 -0.835100 0.000000
vn -0.831461 -0.555582 0.000000
vn -0.831461 -0.555583 0.000000
vn -0.831461 -0.555583 0.000000
vn -0.831461 -0.555582 0.000000
vn -0.980780 -0.195115 0.000000
vn -0.980780 -0.195115 0.000000
vn -0.980780 -0.195115 0.000000
vn -0.980780 -0.195115 0.000000
vn -0.979479 0.201549 0.000000
vn -0.979479 0.201549 0.000000
vn -0.979479 0.201549 0.000000
vn -0.979479 0.201549 0.000000
vn -0.835100 0.550099 0.000000
vn -0.835100 0.550099 0.000000
vn -0.835100 0.550099 0.000000
vn -0.835100 0.550099 0.000000
vn -0.555609 0.831443 0.000000
vn -0.555609 0.831443 0.000000
vn -0.555609 0.831443 0.000000
vn -0.555609 0.831443 0.000000
vn -0.195057 0.980792 0.000000
vn -0.195057 0.980792 0.000000
vn -0.195057 0.980792 0.000000
vn -0.195057 0.980792 0.000000
vn 0.195057 0.980792 0.000000
vn 0.195057 0.980792 0.000000
vn 0.195057 0.980792 0.000000
vn 0.195057 0.980792 0.000000
vn 0.561088 0.827756 0.000000
vn 0.561088 0.827756 0.000000
vn 0.561088 0.827756 0.000000
vn 0.561088 0.827756 0.000000
vn 0.831442 0.555612 0.000000
vn 0.831442 0.555612 0.000000
vn 0.831442 0.555612 0.000000
vn 0.831442 0.555612 0.000000
vn 0.979479 0.201549 0.000000
vn 0.979479 0.201549 0.000000
vn 0.979479 0.201549 0.000000
vn 0.979479 0.201549 0.000000
vn 0.980787 -0.195083 -0.000069
vn 0.980787 -0.195083 -0.000069
vn 0.980787 -0.195083 -0.000069
vn 0.980787 -0.195083 -0.000069
vn 0.000002 0.000000 1.000000
vn 0.000003 -0.000001 1.000000
vn 0.000003 -0.000001 1.000000
vn 0.000002 0.000000 1.000000
vn 0.000002 0.000000 -1.000000
vn 0.000003 -0.000001 -1.000000
vn 0.000003 -0.000001 -1.000000
vn 0.000002 0.000000 -1.000000
vn 0.000000 0.000000 1.000000
vn 0.000000 0.000000 1.000000
vn 0.000000 0.000000 1.000000
vn 0.000000 0.000000 1.000000
vn 0.000000 0.000000 -1.000000
vn 0.000000 0.000000 -1.000000
vn 0.000000 0.000000 -1.000000
vn 0.000000 0.000000 -1.000000
vn 0.000000 0.000000 1.000000
vn 0.000000 0.000000 1.000000
vn 0.000000 0.000000 1.000000
vn 0.000000 0.000000 1.000000
vn 0.000000 0.000000 -1.000000
vn 0.000000 0.000000 -1.000000
vn 0.000000 0.000000 -1.000000
vn 0.000000 0.000000 -1.000000
vn -0.000000 0.000000 1.000000
vn -0.000000 0.000000 1.000000
vn -0.000000 0.000000 1.000000
vn -0.000000 0.000000 1.000000
vn 0.000000 0.000000 -1.000000
vn -0.000000 0.000000 -1.000000
vn -0.000000 0.000000 -1.000000
vn 0.000000 0.000000 -1.000000
vn -0.000000 0.000000 1.000000
vn 0.000000 0.000000 1.000000
vn 0.000000 0.000000 1.000000
vn 0.000000 0.000000 1.000000
vn -0.000000 0.000000 -1.000000
vn 0.000000 0.000000 -1.000000
vn 0.000000 0.000000 -1.000000
vn 0.000000 0.000000 -1.000000
vn -0.000003 -0.000001 1.000000
vn -0.000003 -0.000001 1.000000
vn -0.000003 -0.000001 1.000000
vn -0.000003 -0.000001 1.000000
vn -0.000003 -0.000001 -1.000000
vn -0.000003 -0.000001 -1.000000
vn -0.000003 -0.000001 -1.000000
vn -0.000003 -0.000001 -1.000000
vn -0.000003 0.000000 1.000000
vn -0.000003 0.000000 1.000000
vn -0.000003 0.000000 1.000000
vn -0.000003 0.000000 1.000000
vn -0.000003 0.000000 -1.000000
vn -0.000003 0.000000 -1.000000
vn -0.000003 0.000000 -1.000000
vn -0.000003 0.000000 -1.000000
vn -0.000002 -0.000000 1.000000
vn -0.000003 -0.000000 1.000000
vn -0.000003 -0.000000 1.000000
vn -0.000002 -0.000000 1.000000
vn -0.000002 -0.000000 -1.000000
vn -0.000003 -0.000000 -1.000000
vn -0.000003 -0.000000 -1.000000
vn -0.000002 -0.000000 -1.000000
vn -0.000002 -0.000000 1.000000
vn -0.000003 0.000001 1.000000
vn -0.000003 0.000001 1.000000
vn -0.000002 -0.000000 1.000000
vn -0.000002 -0.000000 -1.000000
vn -0.000003 0.000001 -1.000000
vn -0.000003 0.000001 -1.000000
vn -0.000002 -0.000000 -1.000000
vn 0.000000 0.000000 1.000000
vn 0.000000 0.000000 1.000000
vn 0.000000 0.000000 1.000000
vn 0.000000 0.000000 1.000000
vn 0.000000 0.000000 -1.000000
vn 0.000000 0.000000 -1.000000
vn 0.000000 0.000000 -1.000000
vn 0.000000 0.000000 -1.000000
vn -0.000000 0.000000 1.000000
vn -0.000000 0.000000 1.000000
vn -0.000000 0.000000 1.000000
vn -0.000000 0.000000 1.000000
vn -0.000000 0.000000 -1.000000
vn -0.000000 0.000000 -1.000000
vn -0.000000 0.000000 -1.000000
vn -0.000000 0.000000 -1.000000
vn 0.000000 0.000000 1.000000
vn 0.000000 0.000000 1.000000
vn 0.000000 0.000000 1.000000
vn 0.000000 0.000000 1.000000
vn 0.000000 0.000000 -1.000000
vn 0.000000 0.000000 -1.000000
vn 0.000000 0.000000 -1.000000
vn 0.000000 0.000000 -1.000000
vn -0.000000 0.000000 1.000000
vn 0.000000 0.000000 1.000000
vn 0.000000 0.000000 1.000000
vn 0.000001 -0.000000 1.000000
vn 0.000001 -0.000000 -1.000000
vn 0.000000 0.000000 -1.000000
vn 0.000000 0.000000 -1.000000
vn 0.000000 0.000000 -1.000000
vn 0.000001 -0.000000 1.000000
vn 0.000003 0.000001 1.000000
vn 0.000003 0.000001 1.000000
vn 0.000002 -0.000000 1.000000
vn 0.000002 -0.000000 -1.000000
vn 0.000003 0.000001 -1.000000
vn 0.000003 0.000001 -1.000000
vn 0.000001 -0.000000 -1.000000
vn 0.000002 -0.000000 1.000000
vn 0.000003 -0.000000 1.000000
vn 0.000003 -0.000000 1.000000
vn 0.000002 -0.000000 1.000000
vn 0.000002 -0.000000 -1.000000
vn 0.000003 -0.000000 -1.000000
vn 0.000003 -0.000000 -1.000000
vn 0.000002 -0.000000 -1.000000
vn 0.000003 0.000000 1.000000
vn 0.000003 0.000000 1.000000
vn 0.000003 0.000000 1.000000
vn 0.000003 0.000000 1.000000
vn 0.000003 0.000000 -1.000000
vn 0.000003 0.000000 -1.000000
vn 0.000003 0.000000 -1.000000
vn 0.000003 0.000000 -1.000000
vn 0.000002 0.000000 1.000000
vn 0.000002 0.000000 1.000000
vn 0.000001 0.000001 1.000000
vn 0.000001 0.000001 1.000000
vn -0.555640 -0.831423 0.000000
vn -0.555640 -0.831423 0.000000
vn -0.555640 -0.831423 0.000000
vn -0.555640 -0.831423 0.000000
vn 0.000002 0.000000 -1.000000
vn 0.000002 0.000000 -1.000000
vn 0.000001 0.000001 -1.000000
vn 0.000001 0.000001 -1.000000
vn 0.555533 0.831495 0.000000
vn 0.555533 0.831495 0.000000
vn 0.555533 0.831495 0.000000
vn 0.555533 0.831495 0.000000
vn -0.000000 0.000000 1.000000
vn -0.000000 0.000000 1.000000
vn 0.000000 0.000000 1.000000
vn 0.000000 0.000000 1.000000
vn 0.000000 0.000000 -1.000000
vn 0.000000 0.000000 -1.000000
vn 0.000000 0.000000 -1.000000
vn 0.000000 0.000000 -1.000000
vn 0.980794 -0.195048 0.000000
vn 0.980794 -0.195048 0.000000
vn 0.980794 -0.195048 0.000000
vn 0.980794 -0.195048 0.000000
vn -0.000000 0.000000 1.000000
vn 0.000000 0.000000 1.000000
vn 0.000000 0.000000 1.000000
vn 0.000000 0.000000 1.000000
vn -0.831480 0.555555 0.000000
vn -0.831480 0.555555 0.000000
vn -0.831480 0.555555 0.000000
vn -0.831480 0.555555 0.000000
vn -0.000000 0.000000 -1.000000
vn 0.000000 0.000000 -1.000000
vn 0.000000 0.000000 -1.000000
vn -0.000000 0.000000 -1.000000
vn -0.000002 -0.000000 1.000000
vn -0.000002 -0.000000 1.000000
vn -0.000000 -0.000001 1.000000
vn -0.000000 0.000000 1.000000
vn -0.000002 -0.000000 -1.000000
vn -0.000002 -0.000000 -1.000000
vn 0.000000 0.000000 -1.000000
vn -0.000000 -0.000001 -1.000000
vn -0.195137 -0.980776 0.000000
vn -0.195137 -0.980776 0.000000
vn -0.195137 -0.980776 0.000000
vn -0.195137 -0.980776 0.000000
vn -0.000002 -0.000000 1.000000
vn -0.000002 -0.000000 1.000000
vn -0.000001 -0.000001 1.000000
vn -0.000000 -0.000001 1.000000
vn 0.555468 0.831538 0.000000
vn 0.555468 0.831538 0.000000
vn 0.555468 0.831538 0.000000
vn 0.555468 0.831538 0.000000
vn -0.000002 -0.000000 -1.000000
vn -0.000002 -0.000000 -1.000000
vn -0.000000 -0.000001 -1.000000
vn -0.000001 -0.000001 -1.000000
vn -0.000000 0.000000 1.000000
vn 0.000001 -0.000000 1.000000
vn 0.000000 -0.000001 1.000000
vn -0.000000 0.000000 1.000000
vn 0.000001 -0.000000 -1.000000
vn 0.000000 0.000000 -1.000000
vn 0.000000 0.000000 -1.000000
vn 0.000000 -0.000001 -1.000000
vn -0.831509 0.555512 0.000000
vn -0.831509 0.555512 0.000000
vn -0.831509 0.555512 0.000000
vn -0.831509 0.555512 0.000000
vn 0.000001 -0.000000 1.000000
vn 0.000002 -0.000000 1.000000
vn 0.000000 -0.000001 1.000000
vn 0.000000 -0.000001 1.000000
vn 0.000002 -0.000000 -1.000000
vn 0.000001 -0.000000 -1.000000
vn 0.000000 -0.000001 -1.000000
vn 0.000000 -0.000001 -1.000000
vn 0.000002 -0.000000 1.000000
vn 0.000002 -0.000000 1.000000
vn -0.000000 0.000000 1.000000
vn 0.000000 -0.000001 1.000000
vn 0.195102 -0.980783 -0.000014
vn 0.195102 -0.980783 -0.000014
vn 0.195102 -0.980783 -0.000014
vn 0.195102 -0.980783 -0.000014
vn 0.000002 -0.000000 -1.000000
vn 0.000002 -0.000000 -1.000000
vn 0.000000 -0.000001 -1.000000
vn 0.000000 0.000000 -1.000000
s off
f 33/1/1 36/2/2 35/3/3 34/4/4
f 34/4/5 35/3/6 38/5/7 37/6/8
f 37/6/9 38/5/10 40/7/11 39/8/12
f 39/8/13 40/7/14 42/9/15 41/10/16
f 41/10/17 42/9/18 44/11/19 43/12/20
f 43/12/21 44/11/22 46/13/23 45/14/24
f 45/14/25 46/13/26 48/15/27 47/16/28
f 47/16/29 48/15/30 50/17/31 49/18/32
f 49/18/33 50/17/34 52/19/35 51/20/36
f 51/20/37 52/19/38 54/21/39 53/22/40
f 53/22/41 54/21/42 56/23/43 55/24/44
f 55/24/45 56/23/46 58/25/47 57/26/48
f 57/26/49 58/25/50 60/27/51 59/28/52
f 59/28/53 60/27/54 62/29/55 61/30/56
f 61/30/57 62/29/58 64/31/59 63/32/60
f 63/32/61 64/31/62 36/33/63 33/34/64
f 65/35/65 66/36/66 67/37/67 68/38/68
f 2/39/69 3/40/70 19/41/71 18/42/72
f 3/40/73 4/43/74 20/44/75 19/41/76
f 69/45/77 70/46/78 71/47/79 72/48/80
f 70/46/81 73/49/82 74/50/83 71/47/84
f 6/51/85 7/52/86 23/53/87 22/54/88
f 7/52/89 8/55/90 24/56/91 23/53/92
f 75/57/93 76/58/94 77/59/95 78/60/96
f 76/58/97 79/61/98 80/62/99 77/59/100
f 10/63/101 11/64/102 27/65/103 26/66/104
f 11/64/105 12/67/106 28/68/107 27/65/108
f 12/67/109 13/69/110 29/70/111 28/68/112
f 81/71/113 82/72/114 83/73/115 84/74/116
f 82/72/117 85/75/118 86/76/119 83/73/120
f 85/75/121 87/77/122 88/78/123 86/76/124
f 16/79/125 1/80/126 17/81/127 32/82/128
f 1/83/129 33/1/130 34/4/131 2/84/132
f 18/85/133 35/3/134 36/2/135 17/86/136
f 2/84/137 34/4/138 37/6/139 3/87/140
f 19/88/141 38/5/142 35/3/143 18/85/144
f 3/87/145 37/6/146 39/8/147 4/89/148
f 20/90/149 40/7/150 38/5/151 19/88/152
f 4/89/153 39/8/154 41/10/155 5/91/156
f 21/92/157 42/9/158 40/7/159 20/90/160
f 5/91/161 41/10/162 43/12/163 6/93/164
f 22/94/165 44/11/166 42/9/167 21/92/168
f 6/93/169 43/12/170 45/14/171 7/95/172
f 23/96/173 46/13/174 44/11/175 22/94/176
f 7/95/177 45/14/178 47/16/179 8/97/180
f 24/98/181 48/15/182 46/13/183 23/96/184
f 8/97/185 47/16/186 49/18/187 9/99/188
f 25/100/189 50/17/190 48/15/191 24/98/192
f 9/99/193 49/18/194 51/20/195 10/101/196
f 26/102/197 52/19/198 50/17/199 25/100/200
f 10/101/201 51/20/202 53/22/203 11/103/204
f 27/104/205 54/21/206 52/19/207 26/102/208
f 11/103/209 53/22/210 55/24/211 12/105/212
f 28/106/213 56/23/214 54/21/215 27/104/216
f 12/105/217 55/24/218 57/26/219 13/107/220
f 29/108/221 58/25/222 56/23/223 28/106/224
f 13/107/225 57/26/226 59/28/227 14/109/228
f 30/110/229 60/27/230 58/25/231 29/108/232
f 14/109/233 59/28/234 61/30/235 15/111/236
f 31/112/237 62/29/238 60/27/239 30/110/240
f 15/111/241 61/30/242 63/32/243 16/113/244
f 32/114/245 64/31/246 62/29/247 31/112/248
f 16/113/249 63/32/250 33/34/251 1/115/252
f 17/116/253 36/33/254 64/31/255 32/114/256
f 1/117/257 2/39/258 66/36/259 65/35/260
f 2/39/261 18/42/262 67/37/263 66/36/264
f 18/42/265 17/118/266 68/38/267 67/37/268
f 17/118/269 1/117/270 65/35/271 68/38/272
f 4/43/273 5/119/274 70/46/275 69/45/276
f 21/120/277 20/44/278 72/48/279 71/47/280
f 20/44/281 4/43/282 69/45/283 72/48/284
f 5/119/285 6/51/286 73/49/287 70/46/288
f 6/51/289 22/54/290 74/50/291 73/49/292
f 22/54/293 21/120/294 71/47/295 74/50/296
f 8/55/297 9/121/298 76/58/299 75/57/300
f 25/122/301 24/56/302 78/60/303 77/59/304
f 24/56/305 8/55/306 75/57/307 78/60/308
f 9/121/309 10/63/310 79/61/311 76/58/312
f 10/63/313 26/66/314 80/62/315 79/61/316
f 26/66/317 25/122/318 77/59/319 80/62/320
f 13/69/321 14/123/322 82/72/323 81/71/324
f 30/124/325 29/70/326 84/74/327 83/73/328
f 29/70/329 13/69/330 81/71/331 84/74/332
f 14/123/333 15/125/334 85/75/335 82/72/336
f 31/126/337 30/124/338 83/73/339 86/76/340
f 15/125/341 16/79/342 87/77/343 85/75/344
f 16/79/345 32/82/346 88/78/347 87/77/348
f 32/82/349 31/126/350 86/76/351 88/78/352
