# This file uses meters as units for non-parametric coordinates.

v -38.121948 5.071144 27.871094
v 58.664551 5.071144 27.871094
v -38.121948 46.888969 27.871094
v 58.664551 46.888969 27.871094
v -38.121948 46.888969 -20.532227
v 58.664551 46.888969 -20.532227
v -38.121948 5.071144 -20.532227
v 58.664551 5.071144 -20.532227
v -31.189575 10.457733 27.871094
v 51.732178 10.457733 27.871094
v 51.732178 41.502396 27.871094
v -31.189575 41.502396 27.871094
v -26.347656 6.693048 27.871094
v 46.890259 6.693048 27.871094
v 46.890259 45.267105 27.871094
v -26.347656 45.267105 27.871094
v -32.203369 51.960129 27.871094
v 50.846558 50.117752 27.871094
v 52.745972 51.960129 -20.532227
v -32.203369 51.960129 -20.532227
v -32.203369 0.000000 -20.532227
v 52.745972 0.000000 -20.532227
v 52.745972 0.000000 27.871094
v -32.203369 0.000000 27.871094
v -25.679932 7.181869 23.407593
v 46.222534 7.181869 23.407593
v 46.222534 44.778252 23.407593
v -25.679932 44.778252 23.407593
v 50.941772 10.851154 23.407593
v 50.941772 41.108978 23.407593
v -30.399170 10.851154 23.407593
v -30.399170 41.108978 23.407593
v -30.399170 25.980085 23.407593
v 50.941772 25.980085 23.407593
v -30.399170 33.544510 23.407593
v 50.941772 33.544510 23.407593
v -30.399170 18.415625 23.407593
v 50.941772 18.415625 23.407593
v 47.966309 38.366997 20.307922
v -27.423706 38.366997 20.307922
v -27.423706 8.109174 20.307922
v 47.966309 8.109174 20.307922
v -27.423706 23.238104 20.307922
v 47.966309 23.238104 20.307922
v -23.165894 44.778244 20.307922
v 43.708496 44.778244 20.307922
v -27.423706 30.802528 20.307922
v 47.966309 30.802528 20.307922
v -27.423706 15.673641 20.307922
v 47.966309 15.673641 20.307922
v 48.402710 51.960129 27.871094
v 52.745972 51.960136 26.518860
v 56.408691 48.821259 27.871094
v -21.188965 45.267105 27.871094
v -8.620605 45.267105 27.871094
v -14.060669 44.778259 23.407593
v -14.397583 46.453869 27.871094
v -38.121948 11.699486 27.871094
v -38.120728 23.936253 27.871094
v -38.121948 15.801582 26.135559
v -36.824951 18.365442 27.871094
v 33.933716 15.673641 20.307922
v 37.232666 20.169809 23.407593
v 33.654175 23.238104 20.307922
vt 0.244980 0.350641
vt 0.244981 0.350641
vt 0.244981 0.350641
vt 0.244981 0.350641
vt 0.244980 0.350641
vt 0.244980 0.350641
vt 0.244981 0.350641
vt 0.244981 0.350641
vt 0.244980 0.350641
vt 0.244980 0.350641
vt 0.244981 0.350641
vt 0.244981 0.350641
vt 0.244980 0.350641
vt 0.244981 0.350641
vt 0.244981 0.350641
vt 0.244981 0.350641
vt 0.244981 0.350641
vt 0.244980 0.350641
vt 0.244980 0.350641
vt 0.244980 0.350641
vt 0.244980 0.350641
vt 0.244980 0.350641
vt 0.244981 0.350641
vt 0.244981 0.350641
vt 0.244980 0.350641
vt 0.244981 0.350641
vt 0.244981 0.350641
vt 0.244980 0.350641
vt 0.244980 0.350641
vt 0.244980 0.350641
vt 0.244980 0.350641
vt 0.244980 0.350641
vt 0.245618 0.279451
vt 0.245618 0.279451
vt 0.245618 0.279451
vt 0.245618 0.279451
vt 0.244981 0.350641
vt 0.244981 0.350641
vt 0.244980 0.350641
vt 0.244980 0.350641
vt 0.244980 0.350641
vt 0.244981 0.350641
vt 0.244981 0.350641
vt 0.244981 0.350641
vt 0.244980 0.350641
vt 0.244980 0.350641
vt 0.244980 0.350641
vt 0.244981 0.350641
vt 0.244981 0.350641
vt 0.244981 0.350641
vt 0.244981 0.350641
vt 0.244980 0.350641
vt 0.244980 0.350641
vt 0.244980 0.350641
vt 0.244980 0.350641
vt 0.245618 0.279451
vt 0.245618 0.279451
vt 0.245618 0.279451
vt 0.245618 0.279451
vt 0.245618 0.279451
vt 0.245618 0.279451
vt 0.245618 0.279451
vt 0.245618 0.279451
vt 0.245618 0.279451
vt 0.245618 0.279451
vt 0.245618 0.279451
vt 0.245618 0.279451
vt 0.245618 0.279451
vt 0.245618 0.279451
vt 0.245618 0.279451
vt 0.245618 0.279451
vt 0.245618 0.279451
vt 0.245618 0.279451
vt 0.245618 0.279451
vt 0.245618 0.279451
vt 0.244980 0.350641
vt 0.244980 0.350641
vt 0.244981 0.350641
vt 0.244981 0.350641
vt 0.244980 0.350641
vt 0.244981 0.350641
vt 0.244980 0.350641
vt 0.244980 0.350641
vt 0.244981 0.350641
vt 0.244981 0.350641
vt 0.244980 0.350641
vt 0.244981 0.350641
vt 0.244980 0.350641
vt 0.244981 0.350641
vt 0.244980 0.350641
vt 0.244981 0.350641
vt 0.244980 0.350641
vt 0.244980 0.350641
vt 0.245618 0.279451
vt 0.245618 0.279451
vt 0.245618 0.279451
vn -0.000000 1.000000 0.000000
vn -0.000000 1.000000 0.000000
vn -0.000000 1.000000 0.000000
vn -0.000000 1.000000 0.000000
vn -0.000000 1.000000 0.000000
vn 0.000000 0.000000 -1.000000
vn 0.000000 0.000000 -1.000000
vn 0.000000 0.000000 -1.000000
vn 0.000000 0.000000 -1.000000
vn 0.000000 -1.000000 0.000000
vn 0.000000 -1.000000 0.000000
vn 0.000000 -1.000000 0.000000
vn 0.000000 -1.000000 0.000000
vn 1.000000 0.000000 0.000000
vn 1.000000 0.000000 0.000000
vn 1.000000 0.000000 0.000000
vn 1.000000 0.000000 0.000000
vn -1.000000 -0.000001 0.000025
vn -1.000000 -0.000001 0.000025
vn -1.000000 -0.000001 0.000025
vn -1.000000 -0.000001 0.000025
vn 0.000000 0.000000 1.000000
vn 0.000000 0.000000 1.000000
vn 0.000000 0.000000 1.000000
vn 0.000000 0.000000 1.000000
vn 0.000000 0.000000 1.000000
vn 0.000000 0.000000 1.000000
vn 0.000000 0.000000 1.000000
vn 0.000000 0.000000 1.000000
vn 0.000000 0.000000 1.000000
vn 0.000000 0.000000 1.000000
vn 0.000000 0.000000 1.000000
vn 0.000000 0.000000 1.000000
vn 0.000000 0.000000 1.000000
vn 0.000000 0.000000 1.000000
vn 0.000000 0.000000 1.000000
vn 0.000000 0.540696 0.841218
vn 0.000000 0.540696 0.841218
vn 0.000000 0.540696 0.841218
vn 0.000000 0.540696 0.841218
vn 0.650650 0.759378 0.000005
vn 0.650650 0.759378 0.000005
vn 0.650650 0.759378 0.000005
vn 0.650650 0.759378 0.000005
vn 0.650650 0.759378 0.000005
vn 0.000000 0.000000 -1.000000
vn 0.000000 0.000000 -1.000000
vn 0.000000 0.000000 -1.000000
vn 0.000000 0.000000 -1.000000
vn -0.650650 0.759378 0.000000
vn -0.650650 0.759378 0.000000
vn -0.650650 0.759378 0.000000
vn -0.650650 0.759378 0.000000
vn 0.000000 0.000000 -1.000000
vn 0.000000 0.000000 -1.000000
vn 0.000000 0.000000 -1.000000
vn 0.000000 0.000000 -1.000000
vn 0.650649 -0.759379 0.000000
vn 0.650649 -0.759379 0.000000
vn 0.650649 -0.759379 0.000000
vn 0.650649 -0.759379 0.000000
vn -0.650649 -0.759379 0.000000
vn -0.650649 -0.759379 0.000000
vn -0.650649 -0.759379 0.000000
vn -0.650649 -0.759379 0.000000
vn 0.000000 0.000000 1.000000
vn 0.000000 0.000000 1.000000
vn 0.000000 0.000000 1.000000
vn 0.000000 0.000000 1.000000
vn -0.000000 0.000000 1.000000
vn -0.000000 0.000000 1.000000
vn -0.000000 0.000000 1.000000
vn -0.000000 0.000000 1.000000
vn 0.000000 0.000000 1.000000
vn 0.000000 0.000000 1.000000
vn 0.000000 0.000000 1.000000
vn 0.000000 0.000000 1.000000
vn 0.000000 0.000000 1.000000
vn 0.000000 0.000000 1.000000
vn 0.000000 0.000000 1.000000
vn 0.000000 0.000000 1.000000
vn 0.000000 0.000000 1.000000
vn 0.000000 0.994057 0.108864
vn 0.000000 0.994057 0.108864
vn 0.000000 0.994057 0.108864
vn 0.000000 0.994057 0.108864
vn 0.160762 -0.919974 0.357495
vn 0.160761 -0.919974 0.357495
vn 0.160762 -0.919974 0.357495
vn -0.984680 0.000000 0.174369
vn -0.984680 0.000000 0.174369
vn -0.984680 0.000000 0.174369
vn -0.604285 -0.777196 0.175515
vn -0.604285 -0.777196 0.175515
vn -0.604285 -0.777196 0.175515
vn -0.604285 -0.777196 0.175515
vn -0.604285 0.777197 0.175513
vn -0.604285 0.777197 0.175513
vn -0.604285 0.777197 0.175513
vn -0.604285 0.777197 0.175513
vn 0.984680 0.000000 0.174369
vn 0.984680 0.000000 0.174369
vn 0.984680 0.000000 0.174369
vn 0.604285 0.777197 0.175513
vn 0.604285 0.777197 0.175513
vn 0.604285 0.777197 0.175513
vn 0.604285 0.777197 0.175513
vn 0.604285 -0.777196 0.175515
vn 0.604285 -0.777196 0.175515
vn 0.604285 -0.777196 0.175515
vn 0.604285 -0.777196 0.175515
vn 0.000000 0.645324 0.763909
vn 0.000000 0.645324 0.763909
vn 0.000000 0.645324 0.763909
vn 0.000000 0.645324 0.763909
vn 0.000000 0.958047 0.286612
vn 0.000000 0.958047 0.286612
vn 0.000000 0.958047 0.286612
vn 0.000000 0.958047 0.286612
vn 0.008691 0.624739 0.780785
vn -0.004731 0.618975 0.785396
vn -0.008414 0.617368 0.786629
vn -0.008414 0.617368 0.786629
vn 0.000000 0.540699 0.841216
vn 0.000000 0.540699 0.841216
vn 0.000000 0.540699 0.841216
vn 0.000000 0.540699 0.841216
vn 0.000000 0.540696 0.841218
vn 0.000000 0.540696 0.841218
vn 0.000000 0.540696 0.841218
vn 0.000000 0.540696 0.841218
vn 0.000000 -0.749001 0.662569
vn 0.000000 -0.749001 0.662569
vn 0.000000 -0.749001 0.662569
vn 0.000000 -0.749001 0.662569
vn 0.721413 0.000000 0.692505
vn 0.721413 0.000000 0.692505
vn 0.721413 0.000000 0.692505
vn -0.721413 0.000000 0.692505
vn -0.721413 0.000000 0.692505
vn -0.721413 0.000000 0.692505
vn 0.000000 -0.749001 0.662569
vn 0.000000 -0.749001 0.662569
vn 0.000000 -0.749001 0.662569
vn 0.000000 -0.749001 0.662569
vn 0.610189 0.784793 -0.108492
vn 0.610189 0.784793 -0.108492
vn 0.610189 0.784793 -0.108492
vn -0.610189 0.784792 -0.108492
vn -0.610189 0.784792 -0.108492
vn -0.610189 0.784792 -0.108492
vn 0.000000 -0.749001 0.662569
vn 0.000000 -0.749001 0.662569
vn 0.000000 -0.749001 0.662569
vn 0.000000 -0.749001 0.662569
vn 0.721413 0.000000 0.692505
vn 0.721413 0.000000 0.692505
vn 0.721413 0.000000 0.692505
vn -0.721413 0.000000 0.692505
vn -0.721413 0.000000 0.692505
vn -0.721413 0.000000 0.692505
vn 0.549483 -0.706717 0.445667
vn 0.549483 -0.706717 0.445667
vn 0.549483 -0.706717 0.445667
vn -0.549483 -0.706718 0.445666
vn -0.549483 -0.706718 0.445666
vn -0.549483 -0.706718 0.445666
vn 0.000001 -1.000000 0.000002
vn 0.000001 -1.000000 0.000002
vn 0.000001 -1.000000 0.000002
vn 0.000000 -0.749001 0.662569
vn 0.000000 -0.749001 0.662569
vn 0.000000 -0.749001 0.662569
vn 0.000000 -0.749001 0.662569
vn 0.721413 0.000000 0.692505
vn 0.721413 0.000000 0.692505
vn 0.721413 0.000000 0.692505
vn -0.721413 0.000000 0.692505
vn -0.721413 0.000000 0.692505
vn -0.721413 0.000000 0.692505
vn 0.004106 -0.648759 0.760983
vn -0.006107 -0.644507 0.764574
vn 0.008849 -0.650704 0.759280
vn 0.008849 -0.650704 0.759280
vn 0.721413 0.000000 0.692505
vn 0.721413 0.000000 0.692505
vn 0.721413 0.000000 0.692505
vn -0.721413 0.000000 0.692505
vn -0.721413 0.000000 0.692505
vn -0.721413 0.000000 0.692505
vn 0.984680 0.000000 0.174369
vn 0.984680 0.000000 0.174369
vn 0.984680 0.000000 0.174369
vn 0.984680 0.000000 0.174369
vn 0.984680 0.000000 0.174369
vn 0.984680 0.000000 0.174369
vn 0.984680 0.000000 0.174369
vn 0.984680 0.000000 0.174369
vn -0.984680 0.000000 0.174369
vn -0.984680 0.000000 0.174369
vn -0.984680 0.000000 0.174369
vn -0.984680 0.000000 0.174369
vn -0.984680 0.000000 0.174369
vn -0.984680 0.000000 0.174369
vn -0.984680 0.000000 0.174369
vn -0.984680 0.000000 0.174369
vn 0.276543 0.366826 0.888236
vn 0.276543 0.366826 0.888236
vn 0.276543 0.366826 0.888236
vn 0.117879 0.505717 0.854608
vn 0.117879 0.505717 0.854608
vn 0.117879 0.505717 0.854608
vn 0.000000 -0.994056 0.108872
vn 0.000000 -0.994056 0.108872
vn 0.000000 -0.994056 0.108872
vn 0.000000 -0.994056 0.108872
vn -0.000000 -0.994056 0.108871
vn -0.000000 -0.994056 0.108871
vn -0.000000 -0.994056 0.108871
vn -0.000000 -0.994056 0.108871
vn -0.189780 -0.923818 0.332480
vn -0.189780 -0.923818 0.332480
vn -0.189780 -0.923818 0.332480
vn -0.894659 0.174075 0.411441
vn -0.894659 0.174075 0.411441
vn -0.894659 0.174075 0.411441
vn -0.667520 -0.155267 0.728223
vn -0.667520 -0.155267 0.728223
vn -0.667520 -0.155267 0.728223
vn -1.000000 0.000000 0.000000
vn -1.000000 0.000000 0.000000
vn -1.000000 0.000000 0.000000
vn -1.000000 0.000000 0.000000
vn -1.000000 0.000000 0.000000
vn -1.000000 0.000000 0.000000
vn -1.000000 0.000000 0.000000
vn 0.000001 0.000000 1.000000
vn 0.000001 0.000000 1.000000
vn 0.000001 0.000000 1.000000
vn 0.000001 0.000000 1.000000
vn -0.000001 0.000000 1.000000
vn -0.000001 0.000000 1.000000
vn -0.000001 0.000000 1.000000
vn -0.000000 0.000000 1.000000
vn -0.000000 0.000000 1.000000
vn -0.000000 0.000000 1.000000
vn -0.000000 0.000000 1.000000
vn 0.000000 0.000000 1.000000
vn 0.000000 0.000000 1.000000
vn 0.000000 0.000000 1.000000
vn 0.000000 0.000000 1.000000
vn 0.000000 0.000000 1.000000
vn -0.000000 -1.000000 0.000003
vn -0.000000 -1.000000 0.000003
vn -0.000000 -1.000000 0.000003
vn 0.000000 -1.000000 0.000005
vn 0.000000 -1.000000 0.000005
vn 0.000000 -1.000000 0.000005
vn 0.000000 0.540696 0.841218
vn 0.000000 0.540696 0.841218
vn 0.000000 0.540696 0.841218
vn -0.039827 -0.629846 0.775698
vn -0.006107 -0.644507 0.764574
vn 0.004106 -0.648759 0.760983
vn -0.039827 -0.629846 0.775698
vn 0.039914 0.637584 0.769346
vn -0.004731 0.618975 0.785396
vn 0.008691 0.624739 0.780785
vn 0.039914 0.637584 0.769346
vn 0.000000 -0.749001 0.662569
vn 0.000000 -0.749001 0.662569
vn 0.000000 -0.749001 0.662569
s off
f 17/1/1 51/2/2 52/3/3 19/4/4 20/5/5
f 5/6/6 6/7/7 8/8/8 7/9/9
f 21/10/10 22/11/11 23/12/12 24/13/13
f 2/14/14 8/15/15 6/16/16 4/17/17
f 5/18/18 60/19/19 59/20/20 3/21/21
f 24/22/22 23/23/23 14/24/24 13/25/25
f 2/14/26 4/17/27 11/26/28 10/27/29
f 57/28/30 51/2/31 17/1/32
f 9/29/33 61/30/34 58/31/35 1/32/36
f 39/33/37 40/34/38 35/35/39 36/36/40
f 4/17/41 6/7/42 19/4/43 52/3/44 53/37/45
f 6/7/46 5/6/47 20/5/48 19/4/49
f 5/6/50 3/21/51 17/1/52 20/5/53
f 7/9/54 8/8/55 22/11/56 21/10/57
f 8/8/58 2/38/59 23/12/60 22/11/61
f 1/39/62 7/9/63 21/10/64 24/13/65
f 2/14/66 10/27/67 14/24/68 23/23/69
f 9/29/70 1/32/71 24/22/72 13/25/73
f 3/21/74 12/40/75 16/41/76 17/1/77
f 11/26/78 4/17/79 53/37/80 18/42/81 15/43/82
f 13/25/83 14/24/84 26/44/85 25/45/86
f 56/46/87 57/28/88 54/47/89
f 10/27/90 11/26/91 34/48/92
f 11/26/93 15/43/94 27/49/95 30/50/96
f 14/24/97 10/27/98 29/51/99 26/44/100
f 12/40/101 9/29/102 33/52/103
f 9/29/104 13/25/105 25/45/106 31/53/107
f 16/41/108 12/40/109 32/54/110 28/55/111
f 45/56/112 32/57/113 30/58/114 46/59/115
f 42/60/116 41/61/117 25/62/118 26/63/119
f 63/64/120 64/65/121 43/66/122 37/67/123
f 48/68/124 47/69/125 33/70/126 34/71/127
f 29/72/128 62/73/129 49/74/130 31/75/131
f 30/58/132 32/57/133 40/34/134 39/33/135
f 32/54/136 35/76/137 40/77/138
f 36/78/139 30/50/140 39/79/141
f 29/72/142 31/75/143 41/61/144 42/60/145
f 31/53/146 25/45/147 41/80/148
f 26/44/149 29/51/150 42/81/151
f 34/71/152 33/70/153 43/66/154 64/65/155
f 33/52/156 37/82/157 43/83/158
f 38/84/159 34/48/160 44/85/161
f 28/55/162 32/54/163 45/86/164
f 30/50/165 27/49/166 46/87/167
f 45/86/168 56/46/169 28/55/170
f 36/36/171 35/35/172 47/69/173 48/68/174
f 35/76/175 33/52/176 47/88/177
f 34/48/178 36/78/179 48/89/180
f 62/73/181 63/64/182 37/67/183 49/74/184
f 37/82/185 31/53/186 49/90/187
f 29/51/188 38/84/189 50/91/190
f 33/52/191 9/29/192 31/53/193 37/82/194
f 12/40/195 33/52/196 35/76/197 32/54/198
f 34/48/199 11/26/200 30/50/201 36/78/202
f 10/27/203 34/48/204 38/84/205 29/51/206
f 52/3/207 51/2/208 18/42/209
f 53/37/210 52/3/211 18/42/212
f 56/46/213 54/47/214 16/41/215 28/55/216
f 15/43/217 55/92/218 56/46/219 27/49/220
f 56/46/221 55/92/222 57/28/223
f 61/30/224 60/19/225 58/31/226
f 59/20/227 60/19/228 61/30/229
f 7/93/230 1/32/231 58/31/232 60/19/233
f 7/93/234 60/19/235 5/18/236
f 3/21/237 59/20/238 61/30/239 12/40/240
f 12/40/241 61/30/242 9/29/243
f 57/28/244 17/1/245 16/41/246 54/47/247
f 18/42/248 51/2/249 57/28/250 55/92/251 15/43/252
f 27/49/253 56/46/254 46/87/255
f 46/87/256 56/46/257 45/86/258
f 50/94/259 62/73/260 29/72/261
f 38/95/262 63/64/263 62/73/264 50/94/265
f 44/96/266 64/65/267 63/64/268 38/95/269
f 34/71/270 64/65/271 44/96/272
