# This file uses meters as units for non-parametric coordinates.

v 16.575928 1.208654 8.241653
v 16.575928 1.208654 -8.241577
v -16.572876 1.208654 8.241653
v -16.572876 1.208654 -8.241577
v -3.805542 1.208654 -8.241577
v -3.805542 1.208654 8.241653
v -2.421875 1.208654 5.552902
v 15.380249 1.208654 5.552902
v 15.380249 1.208654 -5.552902
v -2.421875 1.208654 -5.552902
v -15.375366 1.208654 6.366043
v -5.841064 1.208654 6.366043
v -5.841064 1.208654 -6.366196
v -15.375366 1.208654 -6.366196
v -2.127686 1.765969 5.314407
v 15.086060 1.765969 5.314407
v 15.086060 1.765969 -5.314407
v -2.127686 1.765969 -5.314407
v -15.103760 1.765969 6.100388
v -6.170654 1.765969 6.100388
v -6.170654 1.765969 -6.100388
v -15.103760 1.765969 -6.100388
v -1.407471 1.765969 4.737854
v 14.366455 1.765969 4.737854
v 14.366455 1.765969 -4.738007
v -1.407471 1.765969 -4.738007
v -14.447021 1.765969 5.458450
v -6.958618 1.765969 5.458450
v -6.958618 1.765969 -5.458450
v -14.447021 1.765969 -5.458450
v -1.110840 0.541685 4.561157
v 14.074707 0.541685 4.561157
v 14.074707 0.541685 -4.561157
v -1.110840 0.541685 -4.561157
v -13.999023 0.541685 5.014343
v -7.406616 0.541685 5.014343
v -7.406616 0.541685 -5.014496
v -13.999023 0.541685 -5.014496
v 17.227173 1.208654 -9.114914
v 17.227173 1.208654 9.114761
v -17.232056 1.208654 9.114761
v -3.935547 1.208654 9.114761
v -17.232056 1.208654 -9.114914
v -3.935547 1.208654 -9.114914
v 18.932495 1.208654 -10.985336
v 18.932495 1.208654 10.985336
v -18.930664 1.208654 10.985336
v -4.288940 1.208654 10.985336
v -18.930664 1.208654 -10.985336
v -4.288940 1.208654 -10.985336
v 12.569580 1.208654 7.432785
v 12.569580 1.765969 7.124023
v 12.569580 1.765969 6.377945
v 12.344971 0.541685 6.140060
v 12.344971 0.541685 -6.140060
v 12.569580 1.765969 -6.377945
v 12.569580 1.765969 -7.124176
v 12.569580 1.208654 -7.432938
v 0.265503 1.208654 7.432785
v 0.265503 1.765969 7.124023
v 0.265503 1.765969 6.377945
v 0.499268 0.541685 6.140060
v 0.499268 0.541685 -6.140060
v 0.265503 1.765969 -6.377945
v 0.265503 1.765969 -7.124176
v 0.265503 1.208654 -7.432938
v 19.844360 0.000000 -11.529465
v 19.844360 0.000000 11.529388
v -19.844360 0.000000 11.529388
v -4.472656 0.000000 11.529388
v -19.844360 0.000000 -11.529465
v -4.472656 0.000000 -11.529465
vt 0.235181 0.282401
vt 0.235181 0.282401
vt 0.235181 0.282401
vt 0.235181 0.282401
vt 0.235181 0.282401
vt 0.235181 0.282401
vt 0.235181 0.282401
vt 0.235181 0.282401
vt 0.235181 0.282401
vt 0.235181 0.282401
vt 0.235181 0.282401
vt 0.235181 0.282401
vt 0.235181 0.282401
vt 0.235181 0.282401
vt 0.234131 0.254953
vt 0.234131 0.254953
vt 0.234131 0.254953
vt 0.234131 0.254953
vt 0.234131 0.254953
vt 0.234131 0.254953
vt 0.234131 0.254953
vt 0.234131 0.254953
vt 0.234131 0.254953
vt 0.234131 0.254953
vt 0.234131 0.254953
vt 0.234131 0.254953
vt 0.234131 0.254953
vt 0.234131 0.254953
vt 0.234131 0.254953
vt 0.234131 0.254953
vt 0.234131 0.254953
vt 0.234131 0.254953
vt 0.234131 0.254953
vt 0.234131 0.254953
vt 0.234131 0.254953
vt 0.234131 0.254953
vt 0.234131 0.254953
vt 0.234131 0.254953
vt 0.234131 0.254953
vt 0.234131 0.254953
vt 0.234131 0.254953
vt 0.234131 0.254953
vt 0.234131 0.254953
vt 0.234131 0.254953
vt 0.234131 0.254953
vt 0.234131 0.254953
vt 0.090953 0.860713
vt 0.099207 0.851816
vt 0.099207 0.921005
vt 0.090953 0.912110
vt 0.419998 0.928911
vt 0.455151 0.928911
vt 0.455151 0.967281
vt 0.419998 0.967281
vt 0.235168 0.252057
vt 0.235168 0.252057
vt 0.237183 0.277343
vt 0.237183 0.277343
vt 0.235168 0.252057
vt 0.235168 0.252057
vt 0.237183 0.277343
vt 0.237183 0.277343
vt 0.235168 0.252057
vt 0.235168 0.252057
vt 0.237183 0.277343
vt 0.237183 0.277343
vt 0.237183 0.277343
vt 0.237183 0.277343
vt 0.237183 0.277343
vt 0.237183 0.277343
vt 0.237183 0.277343
vt 0.237183 0.277343
vt 0.235168 0.252057
vt 0.235168 0.252057
vt 0.235168 0.252057
vt 0.235168 0.252057
vt 0.235168 0.252057
vt 0.235168 0.252057
vt 0.234131 0.254953
vt 0.235181 0.282401
vt 0.234131 0.254953
vt 0.234131 0.254953
vt 0.159905 0.921005
vt 0.234131 0.254953
vt 0.234131 0.254953
vt 0.159905 0.851816
vt 0.234131 0.254953
vt 0.234131 0.254953
vt 0.235181 0.282401
vt 0.234131 0.254953
vt 0.234131 0.254953
vt 0.235181 0.282401
vt 0.234131 0.254953
vt 0.234131 0.254953
vt 0.168769 0.860713
vt 0.234131 0.254953
vt 0.234131 0.254953
vt 0.168769 0.912110
vt 0.234131 0.254953
vt 0.234131 0.254953
vt 0.235181 0.282401
vt 0.234131 0.254953
vt 0.237183 0.278355
vt 0.237183 0.278355
vt 0.237183 0.278355
vt 0.237183 0.278355
vt 0.237183 0.278355
vt 0.237183 0.278355
vt 0.237183 0.278355
vt 0.237183 0.278355
vt 0.237183 0.278355
vt 0.237183 0.278355
vt 0.237183 0.278355
vt 0.237183 0.278355
vt 0.099207 0.851816
vt 0.099207 0.921005
vt 0.159905 0.921005
vt 0.159905 0.851816
vn 0.000000 1.000000 0.000000
vn 0.000000 1.000000 0.000000
vn 0.000000 1.000000 0.000000
vn 0.000000 1.000000 0.000000
vn 0.000000 1.000000 0.000000
vn 0.000000 1.000000 0.000000
vn 0.000000 1.000000 0.000000
vn 0.000000 1.000000 0.000000
vn 0.000000 1.000000 -0.000000
vn 0.000000 1.000000 -0.000000
vn 0.000000 1.000000 -0.000000
vn 0.000000 1.000000 -0.000000
vn 0.000000 1.000000 -0.000000
vn 0.000000 1.000000 -0.000000
vn 0.000000 1.000000 -0.000000
vn 0.000000 1.000000 0.000000
vn 0.000000 1.000000 -0.000000
vn 0.000000 1.000000 0.000000
vn 0.000000 1.000000 0.000000
vn 0.000000 1.000000 -0.000000
vn 0.000000 1.000000 0.000000
vn 0.000000 1.000000 0.000000
vn 0.000000 1.000000 0.000000
vn 0.000000 1.000000 0.000000
vn 0.000000 1.000000 0.000000
vn 0.000000 1.000000 0.000000
vn 0.000000 1.000000 0.000000
vn 0.000000 1.000000 0.000000
vn 0.000000 1.000000 -0.000000
vn 0.000000 1.000000 0.000000
vn 0.000000 1.000000 0.000000
vn 0.000000 1.000000 -0.000000
vn 0.000000 1.000000 -0.000000
vn 0.000000 1.000000 -0.000000
vn 0.000000 1.000000 0.000000
vn 0.000000 1.000000 -0.000000
vn 0.000000 1.000000 0.000000
vn 0.000000 1.000000 0.000000
vn 0.000000 1.000000 0.000000
vn 0.000000 1.000000 0.000000
vn 0.000000 1.000000 0.000000
vn 0.000000 1.000000 0.000000
vn 0.000000 1.000000 0.000000
vn 0.000000 1.000000 0.000000
vn 0.000000 1.000000 0.000000
vn 0.000000 1.000000 0.000000
vn 0.000000 1.000000 0.000000
vn 0.000000 1.000000 0.000000
vn 0.000000 1.000000 0.000000
vn 0.000000 1.000000 0.000000
vn 0.000000 1.000000 0.000000
vn 0.000000 1.000000 0.000000
vn 0.000000 1.000000 0.000000
vn 0.000000 1.000000 0.000000
vn 0.000000 1.000000 0.000000
vn 0.000000 1.000000 0.000000
vn -0.514353 0.483505 0.708282
vn -0.090939 0.494882 0.864188
vn -0.122894 0.497507 0.858710
vn -0.514353 0.483505 0.708282
vn 0.884351 0.466822 0.000000
vn 0.884351 0.466822 0.000000
vn 0.884351 0.466822 0.000000
vn 0.884351 0.466822 0.000000
vn -0.090945 0.494883 -0.864187
vn -0.514382 0.483503 -0.708263
vn -0.514382 0.483503 -0.708263
vn -0.122905 0.497509 -0.858708
vn -0.884351 0.466822 0.000000
vn -0.884351 0.466822 0.000000
vn -0.884351 0.466822 0.000000
vn -0.884351 0.466822 0.000000
vn 0.000000 0.430287 0.902692
vn 0.000000 0.430287 0.902692
vn 0.000000 0.430287 0.902692
vn 0.000000 0.430287 0.902692
vn 0.860746 0.509035 0.000000
vn 0.860746 0.509035 0.000000
vn 0.860746 0.509035 0.000000
vn 0.860746 0.509035 0.000000
vn 0.000000 0.430488 -0.902596
vn 0.000000 0.430488 -0.902596
vn 0.000000 0.430488 -0.902596
vn 0.000000 0.430488 -0.902596
vn -0.898930 0.438092 0.000000
vn -0.898930 0.438092 0.000000
vn -0.898930 0.438092 0.000000
vn -0.898930 0.438092 0.000000
vn 0.000000 1.000000 0.000000
vn 0.000000 1.000000 0.000000
vn 0.000000 1.000000 0.000000
vn 0.000000 1.000000 0.000000
vn 0.000000 1.000000 0.000000
vn 0.000000 1.000000 -0.000000
vn 0.000000 1.000000 -0.000000
vn 0.000000 1.000000 0.000000
vn 0.000000 1.000000 0.000000
vn 0.000000 1.000000 0.000000
vn 0.000000 1.000000 0.000000
vn 0.000000 1.000000 0.000000
vn 0.000000 1.000000 0.000000
vn 0.000000 1.000000 0.000000
vn 0.000000 1.000000 0.000000
vn 0.000000 1.000000 0.000000
vn 0.000000 1.000000 0.000000
vn 0.000000 1.000000 0.000000
vn 0.000000 1.000000 0.000000
vn 0.000000 1.000000 0.000000
vn 0.000000 1.000000 0.000000
vn 0.000000 1.000000 -0.000000
vn 0.000000 1.000000 -0.000000
vn 0.000000 1.000000 0.000000
vn 0.000000 1.000000 -0.000000
vn 0.000000 1.000000 -0.000000
vn 0.000000 1.000000 -0.000000
vn 0.000000 1.000000 -0.000000
vn 0.000000 1.000000 -0.000000
vn 0.000000 1.000000 0.000000
vn 0.000000 1.000000 0.000000
vn 0.000000 1.000000 -0.000000
vn 0.675464 0.262959 -0.688912
vn 0.126885 0.212511 -0.968886
vn 0.103363 0.208717 -0.972499
vn 0.675465 0.262959 -0.688912
vn -0.972761 0.231809 0.000000
vn -0.972761 0.231809 0.000000
vn -0.972761 0.231809 0.000000
vn -0.972761 0.231809 0.000000
vn 0.126880 0.212517 0.968885
vn 0.675441 0.262998 0.688921
vn 0.675441 0.262998 0.688921
vn 0.103358 0.208722 0.972498
vn 0.971880 0.235476 0.000000
vn 0.971880 0.235476 0.000000
vn 0.971880 0.235476 0.000000
vn 0.971880 0.235476 0.000000
vn 0.000000 0.341006 -0.940061
vn 0.000000 0.341006 -0.940061
vn 0.000000 0.341006 -0.940061
vn 0.000000 0.341006 -0.940061
vn -0.939101 0.343642 0.000000
vn -0.939101 0.343642 0.000000
vn -0.939101 0.343642 0.000000
vn -0.939101 0.343642 0.000000
vn 0.000000 0.340902 0.940099
vn 0.000000 0.340902 0.940099
vn 0.000000 0.340902 0.940099
vn 0.000000 0.340902 0.940099
vn 0.939101 0.343643 0.000000
vn 0.939101 0.343643 0.000000
vn 0.939101 0.343643 0.000000
vn 0.939101 0.343643 0.000000
vn 0.000000 1.000000 0.000000
vn 0.000000 1.000000 0.000000
vn 0.000000 1.000000 0.000000
vn 0.000000 1.000000 0.000000
vn 0.000000 1.000000 0.000000
vn 0.000000 1.000000 0.000000
vn 0.000000 1.000000 0.000000
vn 0.000000 1.000000 0.000000
vn 0.000000 1.000000 -0.000000
vn 0.000000 1.000000 -0.000000
vn 0.000000 1.000000 -0.000000
vn 0.000000 1.000000 -0.000000
vn 0.000000 1.000000 0.000000
vn 0.000000 1.000000 0.000000
vn 0.000000 1.000000 0.000000
vn 0.000000 1.000000 0.000000
vn 0.000000 1.000000 -0.000000
vn 0.000000 1.000000 -0.000000
vn 0.000000 1.000000 -0.000000
vn 0.000000 1.000000 -0.000000
vn 0.000000 1.000000 0.000000
vn 0.000000 1.000000 0.000000
vn 0.000000 1.000000 0.000000
vn 0.000000 1.000000 0.000000
vn 0.000000 1.000000 0.000000
vn 0.000000 1.000000 0.000000
vn 0.000000 1.000000 0.000000
vn 0.000000 1.000000 0.000000
vn 0.000000 1.000000 -0.000000
vn 0.000000 1.000000 -0.000000
vn 0.000000 1.000000 -0.000000
vn 0.000000 1.000000 -0.000000
vn 0.000000 1.000000 0.000000
vn 0.000000 1.000000 0.000000
vn 0.000000 1.000000 0.000000
vn 0.000000 1.000000 0.000000
vn 0.000000 1.000000 0.000000
vn 0.000000 1.000000 0.000000
vn 0.000000 1.000000 0.000000
vn 0.000000 1.000000 0.000000
vn 0.000000 1.000000 0.000000
vn 0.000000 1.000000 0.000000
vn 0.000000 1.000000 0.000000
vn 0.000000 1.000000 0.000000
vn 0.000000 1.000000 -0.000000
vn 0.000000 1.000000 -0.000000
vn 0.000000 1.000000 -0.000000
vn 0.000000 1.000000 -0.000000
vn 0.121296 0.497001 0.859230
vn 0.090839 0.494583 0.864371
vn 0.498063 0.484536 0.719137
vn 0.498063 0.484536 0.719137
vn 0.000000 1.000000 0.000000
vn 0.000000 1.000000 0.000000
vn 0.000000 1.000000 0.000000
vn 0.000000 1.000000 0.000000
vn -0.102697 0.207856 -0.972753
vn -0.125424 0.211361 -0.969327
vn -0.651307 0.258164 -0.713548
vn -0.651307 0.258164 -0.713548
vn 0.000000 1.000000 0.000000
vn 0.000000 1.000000 0.000000
vn 0.000000 1.000000 0.000000
vn 0.000000 1.000000 0.000000
vn -0.651283 0.258204 0.713555
vn -0.125419 0.211368 0.969326
vn -0.102692 0.207862 0.972753
vn -0.651283 0.258204 0.713555
vn 0.000000 1.000000 -0.000000
vn 0.000000 1.000000 -0.000000
vn 0.000000 1.000000 -0.000000
vn 0.000000 1.000000 -0.000000
vn 0.498092 0.484533 -0.719119
vn 0.090846 0.494584 -0.864369
vn 0.121307 0.497003 -0.859228
vn 0.498092 0.484533 -0.719119
vn -0.122894 0.497507 0.858710
vn -0.090939 0.494882 0.864188
vn 0.090839 0.494583 0.864371
vn 0.121296 0.497001 0.859230
vn 0.000000 1.000000 0.000000
vn 0.000000 1.000000 0.000000
vn 0.000000 1.000000 0.000000
vn 0.000000 1.000000 0.000000
vn 0.103363 0.208717 -0.972499
vn 0.126885 0.212511 -0.968886
vn -0.125424 0.211361 -0.969327
vn -0.102697 0.207856 -0.972753
vn 0.000000 1.000000 0.000000
vn 0.000000 1.000000 0.000000
vn 0.000000 1.000000 0.000000
vn 0.000000 1.000000 0.000000
vn -0.125419 0.211368 0.969326
vn 0.126880 0.212517 0.968885
vn 0.103358 0.208722 0.972498
vn -0.102692 0.207862 0.972753
vn 0.000000 1.000000 -0.000000
vn 0.000000 1.000000 0.000000
vn 0.000000 1.000000 0.000000
vn 0.000000 1.000000 -0.000000
vn 0.090846 0.494584 -0.864369
vn -0.090945 0.494883 -0.864187
vn -0.122905 0.497509 -0.858708
vn 0.121307 0.497003 -0.859228
vn 0.798293 0.602270 0.000000
vn 0.798293 0.602270 0.000000
vn 0.798293 0.602270 0.000000
vn 0.798293 0.602270 0.000000
vn 0.000000 0.410464 0.911877
vn 0.000000 0.410464 0.911877
vn 0.000000 0.410464 0.911877
vn 0.000000 0.410464 0.911877
vn 0.000000 0.410512 -0.911855
vn 0.000000 0.410512 -0.911855
vn 0.000000 0.410512 -0.911855
vn 0.000000 0.410512 -0.911855
vn -0.797711 0.603040 0.000000
vn -0.797711 0.603040 0.000000
vn -0.797711 0.603040 0.000000
vn -0.797711 0.603040 0.000000
vn 0.000000 0.410512 -0.911855
vn 0.000000 0.410512 -0.911855
vn 0.000000 0.410512 -0.911855
vn 0.000000 0.410512 -0.911855
vn 0.000000 0.410464 0.911877
vn 0.000000 0.410464 0.911877
vn 0.000000 0.410464 0.911877
vn 0.000000 0.410464 0.911877
s off
f 31/47/1 62/115/2 63/116/3 34/50/4
f 35/51/5 36/52/6 37/53/7 38/54/8
f 8/8/9 51/80/10 1/1/11
f 1/1/12 51/80/13 6/6/14
f 51/80/15 59/92/16 6/6/17
f 59/92/18 7/7/19 6/6/20
f 1/1/21 2/2/22 9/9/23 8/8/24
f 9/9/25 2/2/26 58/89/27
f 2/2/28 5/5/29 58/89/30
f 58/89/31 5/5/32 66/101/33
f 5/5/34 10/10/35 66/101/36
f 5/5/37 6/6/38 7/7/39 10/10/40
f 3/3/41 6/6/42 12/12/43 11/11/44
f 6/6/45 5/5/46 13/13/47 12/12/48
f 5/5/49 4/4/50 14/14/51 13/13/52
f 4/4/53 3/3/54 11/11/55 14/14/56
f 7/15/57 59/16/58 60/17/59 15/18/60
f 8/19/61 9/20/62 17/21/63 16/22/64
f 66/23/65 10/24/66 18/25/67 65/26/68
f 10/24/69 7/15/70 15/18/71 18/25/72
f 11/27/73 12/28/74 20/29/75 19/30/76
f 12/28/77 13/31/78 21/32/79 20/29/80
f 13/31/81 14/33/82 22/34/83 21/32/84
f 14/33/85 11/27/86 19/30/87 22/34/88
f 15/18/89 60/17/90 61/35/91 23/36/92
f 16/22/93 17/21/94 25/37/95 24/38/96
f 65/26/97 18/25/98 26/39/99 64/40/100
f 18/25/101 15/18/102 23/36/103 26/39/104
f 19/30/105 20/29/106 28/41/107 27/42/108
f 20/29/109 21/32/110 29/43/111 28/41/112
f 21/32/113 22/34/114 30/44/115 29/43/116
f 22/34/117 19/30/118 27/42/119 30/44/120
f 23/36/121 61/35/122 62/45/123 31/46/124
f 24/38/125 25/37/126 33/79/127 32/81/128
f 64/40/129 26/39/130 34/82/131 63/84/132
f 26/39/133 23/36/134 31/46/135 34/82/136
f 27/42/137 28/41/138 36/85/139 35/87/140
f 28/41/141 29/43/142 37/88/143 36/85/144
f 29/43/145 30/44/146 38/90/147 37/88/148
f 30/44/149 27/42/150 35/87/151 38/90/152
f 2/55/153 1/56/154 40/59/155 39/60/156
f 6/63/157 3/64/158 41/73/159 42/74/160
f 4/75/161 5/76/162 44/77/163 43/78/164
f 3/64/165 4/75/166 43/78/167 41/73/168
f 44/77/169 5/76/170 2/55/171 39/60/172
f 6/63/173 42/74/174 40/59/175 1/56/176
f 39/58/177 40/57/178 46/67/179 45/68/180
f 42/62/181 41/61/182 47/69/183 48/70/184
f 43/66/185 44/65/186 50/71/187 49/72/188
f 41/61/189 43/66/190 49/72/191 47/69/192
f 50/71/193 44/65/194 39/58/195 45/68/196
f 42/62/197 48/70/198 46/67/199 40/57/200
f 52/91/201 51/93/202 8/19/203 16/22/204
f 53/94/205 52/91/206 16/22/207 24/38/208
f 54/96/209 53/94/210 24/38/211 32/81/212
f 55/83/213 54/118/214 32/95/215 33/98/216
f 25/37/217 56/97/218 55/99/219 33/79/220
f 17/21/221 57/100/222 56/97/223 25/37/224
f 9/20/225 58/102/226 57/100/227 17/21/228
f 60/17/229 59/16/230 51/93/231 52/91/232
f 61/35/233 60/17/234 52/91/235 53/94/236
f 62/45/237 61/35/238 53/94/239 54/96/240
f 63/49/241 62/48/242 54/86/243 55/117/244
f 56/97/245 64/40/246 63/84/247 55/99/248
f 57/100/249 65/26/250 64/40/251 56/97/252
f 58/102/253 66/23/254 65/26/255 57/100/256
f 45/103/257 46/104/258 68/105/259 67/106/260
f 48/107/261 47/108/262 69/109/263 70/110/264
f 49/111/265 50/112/266 72/113/267 71/114/268
f 47/108/269 49/111/270 71/114/271 69/109/272
f 67/106/273 72/113/274 50/112/275 45/103/276
f 70/110/277 68/105/278 46/104/279 48/107/280
