# This file uses meters as units for non-parametric coordinates.

v -68.658218 0.000000 44.803204
v 68.658218 0.000000 44.803204
v -68.658218 4.488177 44.803204
v 68.658218 4.488177 44.803204
v -68.658218 4.488177 -44.803204
v 68.658218 4.488177 -44.803204
v -68.658218 0.000000 -44.803204
v 68.658218 0.000000 -44.803204
vt 0.003184 0.531746
vt 0.257744 0.531746
vt 0.257744 0.531746
vt 0.003184 0.531746
vt 0.257744 0.682938
vt 0.003184 0.682938
vt 0.257744 0.682938
vt 0.003184 0.682938
vt 0.257744 0.682938
vt 0.003184 0.682938
vt 0.003184 0.531746
vt 0.257744 0.531746
vn 0.000000 0.000000 1.000000
vn 0.000000 0.000000 1.000000
vn 0.000000 0.000000 1.000000
vn 0.000000 0.000000 1.000000
vn 0.000000 1.000000 0.000000
vn 0.000000 1.000000 0.000000
vn 0.000000 1.000000 0.000000
vn 0.000000 1.000000 0.000000
vn 0.000000 0.000000 -1.000000
vn 0.000000 0.000000 -1.000000
vn 0.000000 0.000000 -1.000000
vn 0.000000 0.000000 -1.000000
vn 0.000000 -1.000000 0.000000
vn 0.000000 -1.000000 0.000000
vn 0.000000 -1.000000 0.000000
vn 0.000000 -1.000000 0.000000
vn 1.000000 0.000000 0.000000
vn 1.000000 0.000000 0.000000
vn 1.000000 0.000000 0.000000
vn 1.000000 0.000000 0.000000
vn -1.000000 0.000000 0.000000
vn -1.000000 0.000000 0.000000
vn -1.000000 0.000000 0.000000
vn -1.000000 0.000000 0.000000
s off
f 1/1/1 2/2/2 4/3/3 3/4/4
f 3/4/5 4/3/6 6/5/7 5/6/8
f 5/6/9 6/5/10 8/7/11 7/8/12
f 7/9/13 8/10/14 2/11/15 1/12/16
f 2/2/17 8/7/18 6/5/19 4/3/20
f 7/8/21 1/1/22 3/4/23 5/6/24
