# This file uses meters as units for non-parametric coordinates.

v -19.830322 2.836591 4.849548
v 5.220754 2.836591 4.901527
v -19.830322 2.836591 -18.958359
v 6.205597 2.836591 -18.958359
v -16.956482 2.836591 2.968597
v 4.166718 2.836591 2.968597
v 4.166718 2.836591 -14.908667
v -16.956482 2.836591 -14.908667
v -16.575012 1.645730 2.644825
v 3.783569 1.645730 2.644825
v 3.783569 1.645730 -14.585052
v -16.575012 1.645730 -14.585052
v -16.014557 0.925790 2.170181
v 3.223114 0.925790 2.170181
v 3.223114 0.925790 -14.110409
v -16.014557 0.925790 -14.110409
v -13.917694 1.664606 0.396023
v 1.127014 1.664606 0.396023
v 1.127014 1.664606 -12.336245
v -13.917694 1.664606 -12.336245
v -19.830322 2.836591 18.958530
v 6.205597 2.836591 18.958530
v 19.830170 2.836591 -18.958359
v 19.830170 2.836591 18.958530
v 6.757355 2.836591 -16.371803
v 16.248779 2.836591 -16.371803
v 6.757355 2.836591 15.650612
v 16.248779 2.836591 15.650612
v -17.792511 2.836591 5.746551
v 4.167633 2.836591 5.746551
v -17.792511 2.836591 15.650612
v 4.167633 2.836591 15.650612
v -17.792511 1.954737 5.746551
v 4.167633 1.954736 5.746551
v -17.792511 1.954737 15.650612
v 4.167633 1.954736 15.650612
v 6.757355 1.954736 -16.371803
v 16.248779 1.954736 -16.371803
v 6.757355 1.954736 15.650612
v 16.248779 1.954736 15.650612
v -20.710602 0.000000 -19.817333
v 6.576080 0.000000 -19.817333
v -20.710602 0.000000 5.099998
v -20.710602 0.000000 19.817509
v 6.576080 0.000000 19.817509
v 20.710449 0.000000 -19.817333
v 20.710449 0.000000 19.817509
vt 0.080139 0.253324
vt 0.080139 0.253324
vt 0.080139 0.253324
vt 0.080139 0.253324
vt 0.080139 0.253324
vt 0.080139 0.253324
vt 0.080139 0.253324
vt 0.080139 0.253324
vt 0.424385 0.936783
vt 0.450995 0.936783
vt 0.450995 0.959302
vt 0.424385 0.959302
vt 0.244224 0.353474
vt 0.244224 0.353474
vt 0.244224 0.353474
vt 0.244224 0.353474
vt 0.244224 0.353474
vt 0.244224 0.353474
vt 0.244224 0.353474
vt 0.244224 0.353474
vt 0.420677 0.933645
vt 0.454702 0.933645
vt 0.454702 0.962441
vt 0.420677 0.962441
vt 0.080139 0.253324
vt 0.080139 0.253324
vt 0.080139 0.253324
vt 0.080139 0.253324
vt 0.244224 0.353474
vt 0.244224 0.353474
vt 0.244224 0.353474
vt 0.244224 0.353474
vt 0.244224 0.353474
vt 0.244224 0.353474
vt 0.244224 0.353474
vt 0.244224 0.353474
vt 0.052735 0.846043
vt 0.052735 0.918611
vt 0.019111 0.918611
vt 0.019111 0.846043
vt 0.007518 0.920225
vt 0.042018 0.920225
vt 0.007518 0.821541
vt 0.042018 0.821541
vt 0.243225 0.305853
vt 0.243225 0.305853
vt 0.243225 0.305853
vt 0.243225 0.305853
vt 0.243225 0.305853
vt 0.243225 0.305853
vt 0.243225 0.305853
vt 0.243225 0.305853
vt 0.243225 0.305853
vt 0.243225 0.305853
vt 0.243225 0.305853
vt 0.243225 0.305853
vt 0.243225 0.305853
vt 0.243225 0.305853
vt 0.028679 0.998948
vt 0.028679 0.951008
vt 0.032341 0.954763
vt 0.032341 0.993656
vt 0.026933 0.995197
vt 0.026933 0.954760
vt 0.075033 0.951008
vt 0.067148 0.954763
vt 0.075033 0.998948
vt 0.067148 0.993656
vt 0.001209 0.998948
vt 0.007649 0.995197
vt 0.001209 0.951008
vt 0.007649 0.954760
vt 0.069997 0.949992
vt 0.007649 0.949992
vt 0.075033 0.925921
vt 0.069997 0.932516
vt 0.001209 0.925921
vt 0.007649 0.932516
vn 0.000000 1.000000 0.000000
vn 0.000000 1.000000 0.000000
vn 0.000000 1.000000 0.000000
vn 0.000000 1.000000 0.000000
vn 0.000000 1.000000 -0.000000
vn 0.000000 1.000000 -0.000000
vn 0.000000 1.000000 -0.000000
vn 0.000000 1.000000 -0.000000
vn 0.000000 1.000000 -0.000000
vn 0.000000 1.000000 -0.000000
vn 0.000000 1.000000 -0.000000
vn 0.000000 1.000000 -0.000000
vn 0.000000 1.000000 0.000000
vn 0.000000 1.000000 0.000000
vn 0.000000 1.000000 0.000000
vn 0.000000 1.000000 0.000000
vn 0.000000 1.000000 0.000000
vn 0.000000 1.000000 0.000000
vn 0.000000 1.000000 0.000000
vn 0.000000 1.000000 0.000000
vn 0.000000 0.262357 -0.964971
vn 0.000000 0.262357 -0.964971
vn 0.000000 0.262357 -0.964971
vn 0.000000 0.262357 -0.964971
vn -0.951942 0.306278 0.000000
vn -0.951942 0.306278 0.000000
vn -0.951942 0.306278 0.000000
vn -0.951942 0.306278 0.000000
vn 0.000000 0.262238 0.965003
vn 0.000000 0.262238 0.965003
vn 0.000000 0.262238 0.965003
vn 0.000000 0.262238 0.965003
vn 0.952333 0.305062 0.000000
vn 0.952333 0.305062 0.000000
vn 0.952332 0.305062 0.000000
vn 0.952332 0.305062 0.000000
vn 0.000000 0.550425 -0.834885
vn 0.000000 0.550425 -0.834885
vn 0.000000 0.550425 -0.834885
vn 0.000000 0.550425 -0.834885
vn -0.789085 0.614284 0.000000
vn -0.789085 0.614284 0.000000
vn -0.789085 0.614284 0.000000
vn -0.789085 0.614284 0.000000
vn 0.000000 0.550425 0.834885
vn 0.000000 0.550425 0.834885
vn 0.000000 0.550425 0.834885
vn 0.000000 0.550425 0.834885
vn 0.789086 0.614282 0.000000
vn 0.789086 0.614282 0.000000
vn 0.789086 0.614282 0.000000
vn 0.789086 0.614282 0.000000
vn 0.000000 0.923154 0.384431
vn 0.000000 0.923154 0.384431
vn 0.000000 0.923154 0.384431
vn 0.000000 0.923154 0.384431
vn 0.332426 0.943129 0.000000
vn 0.332426 0.943129 0.000000
vn 0.332426 0.943129 0.000000
vn 0.332426 0.943129 0.000000
vn 0.000000 0.923154 -0.384430
vn 0.000000 0.923154 -0.384430
vn 0.000000 0.923154 -0.384430
vn 0.000000 0.923154 -0.384430
vn -0.332319 0.943167 0.000000
vn -0.332319 0.943167 0.000000
vn -0.332319 0.943167 0.000000
vn -0.332319 0.943167 0.000000
vn 0.000000 1.000000 0.000000
vn 0.000000 1.000000 0.000000
vn 0.000000 1.000000 0.000000
vn 0.000000 1.000000 0.000000
vn 0.000000 1.000000 0.000000
vn 0.000000 1.000000 0.000000
vn 0.000000 1.000000 0.000000
vn 0.000000 1.000000 0.000000
vn 0.000000 1.000000 0.000000
vn 0.000000 1.000000 0.000000
vn 0.000000 1.000000 0.000000
vn 0.000000 1.000000 0.000000
vn 0.000000 1.000000 0.000000
vn 0.000000 1.000000 0.000000
vn 0.000000 1.000000 0.000000
vn 0.000000 1.000000 0.000000
vn 0.000000 1.000000 0.000000
vn 0.000000 1.000000 -0.000000
vn 0.000000 1.000000 -0.000000
vn 0.000000 1.000000 -0.000000
vn 0.000000 1.000000 -0.000000
vn 0.000000 1.000000 0.000000
vn 0.000000 1.000000 0.000000
vn 0.000000 1.000000 0.000000
vn 0.000000 1.000000 0.000000
vn 0.000000 1.000000 0.000000
vn 0.000000 1.000000 0.000000
vn 0.000000 1.000000 0.000000
vn 0.000000 1.000000 0.000000
vn 0.000000 1.000000 0.000000
vn 0.000000 1.000000 0.000000
vn 0.000000 1.000000 0.000000
vn 0.000000 1.000000 0.000000
vn 0.000000 1.000000 0.000000
vn 0.000000 1.000000 0.000000
vn 0.000000 1.000000 0.000000
vn 0.000000 1.000000 0.000000
vn 0.000000 1.000000 -0.000000
vn 0.000000 1.000000 -0.000000
vn 0.000000 1.000000 -0.000000
vn 0.000000 1.000000 -0.000000
vn 0.000000 1.000000 0.000000
vn 0.000000 1.000000 0.000000
vn 0.000000 1.000000 0.000000
vn 0.000000 1.000000 0.000000
vn 0.000000 0.000000 1.000000
vn 0.000000 0.000000 1.000000
vn 0.000000 0.000000 1.000000
vn 0.000000 0.000000 1.000000
vn 1.000000 0.000000 0.000000
vn 1.000000 0.000000 0.000000
vn 1.000000 0.000000 0.000000
vn 1.000000 0.000000 0.000000
vn 0.000000 0.000000 -1.000000
vn 0.000000 0.000000 -1.000000
vn 0.000000 0.000000 -1.000000
vn 0.000000 0.000000 -1.000000
vn -1.000000 0.000000 0.000000
vn -1.000000 0.000000 0.000000
vn -1.000000 0.000000 0.000000
vn -1.000000 0.000000 0.000000
vn 1.000000 0.000000 0.000000
vn 1.000000 0.000000 0.000000
vn 1.000000 0.000000 0.000000
vn 1.000000 0.000000 0.000000
vn 0.000000 0.000000 1.000000
vn 0.000000 0.000000 1.000000
vn 0.000000 0.000000 1.000000
vn 0.000000 0.000000 1.000000
vn 0.000000 0.000000 -1.000000
vn 0.000000 0.000000 -1.000000
vn 0.000000 0.000000 -1.000000
vn 0.000000 0.000000 -1.000000
vn -1.000000 0.000000 0.000000
vn -1.000000 0.000000 0.000000
vn -1.000000 0.000000 0.000000
vn -1.000000 0.000000 0.000000
vn 0.000000 0.289822 -0.957080
vn 0.000000 0.289822 -0.957080
vn 0.000000 0.289822 -0.957080
vn 0.000000 0.289822 -0.957080
vn -0.955068 0.296387 0.000000
vn -0.955068 0.296386 0.000000
vn -0.955068 0.296387 0.000000
vn -0.955068 0.296386 0.000000
vn -0.955068 0.296386 0.000000
vn -0.955068 0.296386 0.000000
vn -0.955068 0.296386 0.000000
vn -0.955068 0.296386 0.000000
vn 0.000000 0.289824 0.957080
vn 0.000000 0.289824 0.957080
vn 0.000000 0.289824 0.957080
vn 0.000000 0.289824 0.957080
vn 0.000000 0.289822 -0.957080
vn 0.000000 0.289822 -0.957080
vn 0.000000 0.289822 -0.957080
vn 0.000000 0.289822 -0.957080
vn 0.955068 0.296386 0.000000
vn 0.955068 0.296386 0.000000
vn 0.955068 0.296386 0.000000
vn 0.955068 0.296386 0.000000
vn 0.000000 0.289824 0.957080
vn 0.000000 0.289824 0.957080
vn 0.000000 0.289824 0.957080
vn 0.000000 0.289824 0.957080
s off
f 17/9/1 18/10/2 19/11/3 20/12/4
f 1/59/5 2/60/6 6/61/7 5/62/8
f 2/60/9 4/65/10 7/66/11 6/61/12
f 4/65/13 3/67/14 8/68/15 7/66/16
f 3/67/17 1/59/18 5/62/19 8/68/20
f 5/1/21 6/2/22 10/3/23 9/4/24
f 6/2/25 7/5/26 11/6/27 10/3/28
f 7/5/29 8/7/30 12/8/31 11/6/32
f 8/7/33 5/1/34 9/4/35 12/8/36
f 9/4/37 10/3/38 14/25/39 13/26/40
f 10/3/41 11/6/42 15/27/43 14/25/44
f 11/6/45 12/8/46 16/28/47 15/27/48
f 12/8/49 9/4/50 13/26/51 16/28/52
f 13/21/53 14/22/54 18/10/55 17/9/56
f 14/22/57 15/23/58 19/11/59 18/10/60
f 15/23/61 16/24/62 20/12/63 19/11/64
f 16/24/65 13/21/66 17/9/67 20/12/68
f 34/37/69 33/38/70 35/39/71 36/40/72
f 38/42/73 37/41/74 39/43/75 40/44/76
f 22/71/77 27/74/78 2/60/79
f 4/65/80 2/60/81 25/73/82
f 25/73/83 2/60/84 27/74/85
f 23/75/86 4/65/87 25/73/88 26/76/89
f 22/71/90 24/77/91 28/78/92 27/74/93
f 28/78/94 24/77/95 23/75/96 26/76/97
f 2/60/98 1/59/99 29/63/100 30/64/101
f 1/59/102 21/69/103 31/70/104 29/63/105
f 21/69/106 22/71/107 32/72/108 31/70/109
f 22/71/110 2/60/111 30/64/112 32/72/113
f 30/17/114 29/18/115 33/30/116 34/29/117
f 29/18/118 31/19/119 35/31/120 33/30/121
f 31/19/122 32/20/123 36/32/124 35/31/125
f 32/20/126 30/17/127 34/29/128 36/32/129
f 37/33/130 25/13/131 27/15/132 39/35/133
f 26/14/134 25/13/135 37/33/136 38/34/137
f 27/15/138 28/16/139 40/36/140 39/35/141
f 38/34/142 40/36/143 28/16/144 26/14/145
f 3/45/146 4/46/147 42/47/148 41/48/149
f 1/49/150 3/45/151 41/48/152 43/50/153
f 21/51/154 1/49/155 43/50/156 44/52/157
f 22/53/158 21/51/159 44/52/160 45/54/161
f 4/46/162 23/55/163 46/56/164 42/47/165
f 47/58/166 46/56/167 23/55/168 24/57/169
f 24/57/170 22/53/171 45/54/172 47/58/173
