# This file uses meters as units for non-parametric coordinates.

v -25.984741 0.000008 19.031647
v 25.984741 0.000008 19.031647
v -25.984741 2.297806 19.031647
v 25.984741 2.297806 19.031647
v -25.984741 2.297806 -19.031891
v 25.984741 2.297806 -19.031891
v -25.984741 0.000008 -19.031891
v 25.984741 0.000008 -19.031891
v 28.610565 0.000008 -16.072571
v 28.610565 0.000008 16.072479
v 28.610565 2.297806 -16.072571
v 28.610565 2.297806 16.072479
v -28.610596 0.000008 -16.072571
v -28.610596 0.000008 16.072479
v -28.610596 2.297806 16.072479
v -28.610596 2.297806 -16.072571
v 7.183685 2.297806 -19.031891
v 7.183685 2.297806 19.031647
v 7.183685 0.000008 19.031647
v 7.183685 0.000008 -19.031891
v -24.126770 2.297806 16.716156
v -26.433105 2.297806 14.117004
v -24.126770 2.297806 -16.716370
v -26.433105 2.297806 -14.117218
v 4.463196 2.297806 16.716156
v 4.463196 2.297806 -16.716370
v 7.048492 2.297806 14.117004
v 7.048492 2.297806 -14.117218
v 24.100586 2.297806 -16.716370
v 26.114655 2.297806 -14.125214
v 11.045868 2.297806 -16.716370
v 11.045868 2.297806 16.716156
v 24.100586 2.297806 16.716156
v 26.114655 2.297806 14.125214
v 8.867218 2.297806 -14.117218
v 8.867218 2.297806 14.117004
v 8.867218 2.297806 4.121033
v 11.045868 2.297806 1.586884
v 24.100586 2.297806 1.586884
v 26.114655 2.297806 4.117188
v 26.114655 2.297806 -2.787811
v 24.100586 2.297806 -0.278107
v 11.045868 2.297806 -0.278107
v 8.867218 2.297806 -2.783997
v -22.721222 0.652802 -15.008911
v -24.791962 0.652802 -12.675323
v -24.791962 0.652802 12.675110
v -22.721222 0.652802 15.008820
v 3.081360 0.652802 15.008820
v 5.402618 0.652802 12.675110
v 5.402618 0.652802 -12.675323
v 3.081360 0.652802 -15.008911
v 23.427429 0.652802 2.359100
v 25.235809 0.652802 4.630920
v 11.706146 0.652802 2.359100
v 9.750031 0.652802 4.634460
v 9.750031 0.652802 13.609436
v 11.706146 0.652802 15.943085
v 23.427429 0.652802 15.943085
v 25.235809 0.652802 13.616730
v 11.705963 0.652802 -15.858154
v 23.427307 0.652802 -15.858154
v 9.749847 0.652802 -13.524506
v 9.749847 0.652802 -3.385132
v 11.705963 0.652802 -1.135162
v 23.427307 0.652802 -1.135162
v 25.235626 0.652802 -3.388580
v 25.235626 0.652802 -13.531708
v 21.165802 2.155365 -14.427979
v 13.705688 2.618217 -13.314240
v 11.467133 1.989891 -10.700775
v 12.425568 2.618217 -5.151520
v 13.822906 1.623993 -2.798126
v 21.376495 2.618217 -3.679077
v 23.219513 2.124916 -5.262024
v 22.559906 2.618217 -11.791748
v 18.914185 3.208771 -6.763702
v 16.588623 2.618217 -4.937012
v 13.998932 2.618217 -5.843018
v 13.719086 3.236839 -9.994385
v 17.636200 2.694725 -12.541687
v 20.743835 3.044113 -10.326721
v 20.748749 0.652802 3.886169
v 11.759857 0.652802 6.925537
v 14.279022 0.652802 14.379089
v 23.269104 0.652802 11.343292
v 20.693207 2.174515 3.976257
v 11.858673 2.174515 6.963440
v 14.334595 2.174515 14.289001
v 23.170288 2.174515 11.305328
vt 0.110686 0.350433
vt 0.110686 0.350433
vt 0.110686 0.350433
vt 0.110686 0.350433
vt 0.110686 0.350433
vt 0.110686 0.350433
vt 0.110686 0.350433
vt 0.110686 0.350433
vt 0.110686 0.350433
vt 0.110686 0.350433
vt 0.110686 0.350433
vt 0.110686 0.350433
vt 0.110686 0.350433
vt 0.110686 0.350433
vt 0.110686 0.350433
vt 0.110686 0.350433
vt 0.110686 0.350433
vt 0.110686 0.350433
vt 0.110686 0.350433
vt 0.110686 0.350433
vt 0.110686 0.350433
vt 0.110686 0.350433
vt 0.110686 0.350433
vt 0.110686 0.350433
vt 0.110686 0.350433
vt 0.110686 0.350433
vt 0.110686 0.350433
vt 0.110686 0.350433
vt 0.110686 0.350433
vt 0.110686 0.350433
vt 0.110686 0.350433
vt 0.110686 0.350433
vt 0.110686 0.350433
vt 0.110686 0.350433
vt 0.110686 0.350433
vt 0.110686 0.350433
vt 0.110686 0.350433
vt 0.110686 0.350433
vt 0.110686 0.350433
vt 0.110686 0.350433
vt 0.110686 0.350433
vt 0.110686 0.350433
vt 0.110686 0.350433
vt 0.110686 0.350433
vt 0.110686 0.350433
vt 0.110686 0.350433
vt 0.110686 0.350433
vt 0.110686 0.350433
vt 0.110686 0.350433
vt 0.110686 0.350433
vt 0.110686 0.350433
vt 0.110686 0.350433
vt 0.110686 0.350433
vt 0.110686 0.350433
vt 0.110686 0.350433
vt 0.110686 0.350433
vt 0.110686 0.350433
vt 0.110686 0.350433
vt 0.110686 0.350433
vt 0.110686 0.350433
vt 0.110686 0.350433
vt 0.110686 0.350433
vt 0.110686 0.350433
vt 0.110686 0.350433
vt 0.110686 0.350433
vt 0.110686 0.350433
vt 0.110686 0.350433
vt 0.110686 0.350433
vt 0.110686 0.350433
vt 0.110686 0.350433
vt 0.110686 0.350433
vt 0.110686 0.350433
vt 0.110686 0.350433
vt 0.110686 0.350433
vt 0.110686 0.350433
vt 0.110686 0.350433
vt 0.110686 0.350433
vt 0.110686 0.350433
vt 0.110686 0.350433
vt 0.110686 0.350433
vt 0.176336 0.280041
vt 0.176336 0.280041
vt 0.176336 0.280041
vt 0.176336 0.280041
vt 0.176336 0.280041
vt 0.176336 0.280041
vt 0.176336 0.280041
vt 0.176336 0.280041
vt 0.176336 0.280041
vt 0.176336 0.280041
vt 0.176336 0.280041
vt 0.176336 0.280041
vt 0.176336 0.280041
vt 0.176336 0.280041
vt 0.176336 0.280041
vt 0.176336 0.280041
vt 0.176336 0.280041
vt 0.176336 0.280041
vt 0.176336 0.280041
vt 0.176336 0.280041
vt 0.176336 0.280041
vt 0.176336 0.280041
vt 0.110686 0.350433
vt 0.110686 0.350433
vt 0.110686 0.350433
vt 0.110686 0.350433
vt 0.218863 0.473882
vt 0.218863 0.473882
vt 0.218863 0.473882
vt 0.218863 0.473882
vt 0.218863 0.473882
vt 0.218863 0.473882
vt 0.218863 0.473882
vt 0.218863 0.473882
vn 0.000000 0.000000 1.000000
vn 0.000000 0.000000 1.000000
vn 0.000000 0.000000 1.000000
vn 0.000000 0.000000 1.000000
vn 0.000000 1.000000 0.000000
vn 0.000000 1.000000 0.000000
vn 0.000000 1.000000 0.000000
vn 0.000000 1.000000 0.000000
vn 0.000000 0.000000 -1.000000
vn 0.000000 0.000000 -1.000000
vn 0.000000 0.000000 -1.000000
vn 0.000000 0.000000 -1.000000
vn 0.000000 -1.000000 0.000000
vn 0.000000 -1.000000 0.000000
vn 0.000000 -1.000000 0.000000
vn 0.000000 -1.000000 0.000000
vn -1.000000 0.000000 0.000000
vn -1.000000 0.000000 0.000000
vn -1.000000 0.000000 0.000000
vn -1.000000 0.000000 0.000000
vn 0.000000 -1.000000 0.000000
vn 0.000000 -1.000000 0.000000
vn 0.000000 -1.000000 0.000000
vn 0.000000 -1.000000 0.000000
vn 0.747997 0.000000 -0.663702
vn 0.747997 0.000000 -0.663702
vn 0.747997 0.000000 -0.663702
vn 0.747997 0.000000 -0.663702
vn 0.747980 0.000000 0.663721
vn 0.747980 0.000000 0.663721
vn 0.747980 0.000000 0.663721
vn 0.747980 0.000000 0.663721
vn 0.000000 -1.000000 0.000000
vn 0.000000 -1.000000 0.000000
vn 0.000000 -1.000000 0.000000
vn 0.000000 -1.000000 0.000000
vn -0.747976 0.000000 0.663726
vn -0.747976 0.000000 0.663726
vn -0.747976 0.000000 0.663726
vn -0.747976 0.000000 0.663726
vn 0.000000 1.000000 0.000000
vn 0.000000 1.000000 0.000000
vn 0.000000 1.000000 0.000000
vn 0.000000 1.000000 0.000000
vn 0.000000 1.000000 0.000000
vn 0.000000 1.000000 0.000000
vn 0.000000 1.000000 0.000000
vn 0.000000 1.000000 0.000000
vn -0.747993 0.000000 -0.663707
vn -0.747993 0.000000 -0.663707
vn -0.747993 0.000000 -0.663707
vn -0.747993 0.000000 -0.663707
vn 0.000000 0.000000 1.000000
vn 0.000000 0.000000 1.000000
vn 0.000000 0.000000 1.000000
vn 0.000000 0.000000 1.000000
vn 0.000000 -1.000000 0.000000
vn 0.000000 -1.000000 0.000000
vn 0.000000 -1.000000 0.000000
vn 0.000000 -1.000000 0.000000
vn 0.000000 0.000000 -1.000000
vn 0.000000 0.000000 -1.000000
vn 0.000000 0.000000 -1.000000
vn 0.000000 0.000000 -1.000000
vn 0.000000 1.000000 -0.000000
vn 0.000000 1.000000 -0.000000
vn 0.000000 1.000000 -0.000000
vn 0.000000 1.000000 -0.000000
vn 0.000000 1.000000 0.000000
vn 0.000000 1.000000 0.000000
vn 0.000000 1.000000 0.000000
vn 0.000000 1.000000 0.000000
vn 0.000000 1.000000 0.000000
vn 0.000000 1.000000 0.000000
vn 0.000000 1.000000 0.000000
vn 0.000000 1.000000 0.000000
vn 0.000000 1.000000 0.000000
vn 0.000000 1.000000 0.000000
vn 0.000000 1.000000 0.000000
vn 0.000000 1.000000 0.000000
vn 0.000000 1.000000 0.000000
vn 0.000000 1.000000 0.000000
vn 0.000000 1.000000 0.000000
vn 0.000000 1.000000 0.000000
vn 0.000000 1.000000 0.000000
vn 0.000000 1.000000 -0.000000
vn 0.000000 1.000000 -0.000000
vn 0.000000 1.000000 -0.000000
vn 0.000000 1.000000 -0.000000
vn 0.000000 1.000000 0.000000
vn 0.000000 1.000000 0.000000
vn 0.000000 1.000000 0.000000
vn 0.000000 1.000000 0.000000
vn 0.000000 1.000000 -0.000000
vn 0.000000 1.000000 -0.000000
vn 0.000000 1.000000 -0.000000
vn 0.000000 1.000000 -0.000000
vn 0.000000 1.000000 -0.000000
vn 0.000000 1.000000 0.000000
vn 0.000000 1.000000 0.000000
vn 0.000000 1.000000 0.000000
vn 0.000000 1.000000 0.000000
vn 0.000000 1.000000 -0.000000
vn 0.000000 1.000000 -0.000000
vn 0.000000 1.000000 -0.000000
vn 0.000000 1.000000 -0.000000
vn 0.000000 1.000000 -0.000000
vn 0.000000 1.000000 -0.000000
vn 0.000000 1.000000 -0.000000
vn 0.000000 1.000000 -0.000000
vn 0.000000 1.000000 0.000000
vn 0.000000 1.000000 0.000000
vn 0.000000 1.000000 0.000000
vn 1.000000 0.000000 0.000000
vn 1.000000 0.000000 0.000000
vn 1.000000 0.000000 0.000000
vn 1.000000 0.000000 0.000000
vn 0.000000 1.000000 -0.000000
vn 0.000000 1.000000 -0.000000
vn 0.000000 1.000000 -0.000000
vn 0.000000 1.000000 -0.000000
vn -0.085804 0.941266 0.326582
vn -0.085804 0.941266 0.326582
vn -0.085804 0.941266 0.326582
vn 0.449937 0.798845 0.399253
vn 0.449937 0.798845 0.399253
vn 0.449937 0.798845 0.399253
vn 0.449937 0.798845 0.399253
vn 0.707937 0.706275 0.000000
vn 0.707937 0.706275 0.000000
vn 0.707937 0.706275 0.000000
vn 0.707937 0.706275 0.000000
vn 0.449948 0.798840 -0.399252
vn 0.449948 0.798840 -0.399252
vn 0.449948 0.798840 -0.399252
vn 0.449948 0.798840 -0.399252
vn 0.000000 0.720130 -0.693839
vn 0.000000 0.720130 -0.693839
vn 0.000000 0.720130 -0.693839
vn 0.000000 0.720130 -0.693839
vn -0.426589 0.798736 -0.424314
vn -0.426589 0.798736 -0.424314
vn -0.426589 0.798736 -0.424314
vn -0.426589 0.798736 -0.424314
vn -0.706920 0.707294 0.000000
vn -0.706920 0.707294 0.000000
vn -0.706920 0.707294 0.000000
vn -0.706920 0.707294 0.000000
vn -0.426578 0.798742 0.424314
vn -0.426578 0.798742 0.424314
vn -0.426578 0.798742 0.424314
vn -0.426578 0.798742 0.424314
vn 0.000000 0.720155 0.693814
vn 0.000000 0.720155 0.693814
vn 0.000000 0.720155 0.693814
vn 0.000000 0.720155 0.693814
vn -0.667191 0.522315 0.531078
vn -0.667191 0.522315 0.531078
vn -0.667191 0.522315 0.531078
vn -0.667191 0.522315 0.531078
vn 0.000000 0.424940 0.905222
vn 0.000000 0.424940 0.905222
vn 0.000000 0.424940 0.905222
vn 0.000000 0.424940 0.905222
vn 0.647242 0.521012 0.556438
vn 0.647242 0.521012 0.556438
vn 0.647242 0.521012 0.556438
vn 0.647242 0.521012 0.556438
vn 0.881132 0.472871 0.000000
vn 0.881132 0.472871 0.000000
vn 0.881132 0.472871 0.000000
vn 0.881132 0.472871 0.000000
vn 0.654404 0.520448 -0.548534
vn 0.654404 0.520448 -0.548534
vn 0.654404 0.520448 -0.548534
vn 0.654404 0.520448 -0.548534
vn 0.000000 0.425325 -0.905041
vn 0.000000 0.425325 -0.905041
vn 0.000000 0.425325 -0.905041
vn 0.000000 0.425325 -0.905041
vn -0.673562 0.521695 -0.523592
vn -0.673562 0.521695 -0.523592
vn -0.673562 0.521695 -0.523592
vn -0.673562 0.521695 -0.523592
vn -0.882017 0.471218 0.000000
vn -0.882017 0.471218 0.000000
vn -0.882017 0.471218 0.000000
vn -0.882017 0.471218 0.000000
vn 0.000000 0.462546 0.886595
vn 0.000000 0.462546 0.886595
vn 0.000000 0.462546 0.886595
vn 0.000000 0.462546 0.886595
vn 0.644716 0.540643 0.540413
vn 0.644716 0.540643 0.540413
vn 0.644716 0.540643 0.540413
vn 0.644716 0.540643 0.540413
vn 0.881173 0.472794 0.000000
vn 0.881173 0.472794 0.000000
vn 0.881173 0.472794 0.000000
vn 0.881173 0.472794 0.000000
vn 0.634285 0.541836 -0.551450
vn 0.634285 0.541836 -0.551450
vn 0.634285 0.541836 -0.551450
vn 0.634285 0.541836 -0.551450
vn 0.000000 0.462054 -0.886852
vn 0.000000 0.462054 -0.886852
vn 0.000000 0.462054 -0.886852
vn 0.000000 0.462054 -0.886852
vn -0.655316 0.542219 -0.525889
vn -0.655316 0.542219 -0.525889
vn -0.655316 0.542219 -0.525889
vn -0.655316 0.542219 -0.525889
vn -0.881975 0.471295 0.000000
vn -0.881976 0.471295 0.000000
vn -0.881976 0.471295 0.000000
vn -0.881975 0.471295 0.000000
vn -0.664004 0.541033 0.516122
vn -0.664004 0.541033 0.516122
vn -0.664004 0.541033 0.516122
vn -0.664004 0.541033 0.516122
vn 0.000000 1.000000 0.000000
vn 0.000000 1.000000 0.000000
vn 0.000000 1.000000 0.000000
vn 0.000000 1.000000 0.000000
vn 0.000000 1.000000 0.000000
vn 0.000000 1.000000 0.000000
vn 0.000000 1.000000 0.000000
vn 0.000000 1.000000 0.000000
vn 0.000000 1.000000 0.000000
vn 0.000000 1.000000 0.000000
vn 0.000000 1.000000 0.000000
vn 0.000000 1.000000 0.000000
vn 0.000000 1.000000 0.000000
vn 0.000000 1.000000 0.000000
vn 0.000000 1.000000 0.000000
vn 0.000000 1.000000 0.000000
vn 0.000000 1.000000 0.000000
vn 0.000000 1.000000 0.000000
vn 0.000000 1.000000 0.000000
vn 0.000000 1.000000 0.000000
vn 0.000000 1.000000 0.000000
vn 0.000000 1.000000 0.000000
vn 0.000000 1.000000 0.000000
vn 0.000000 1.000000 0.000000
vn 0.000000 1.000000 0.000000
vn -0.020051 0.752649 -0.658117
vn -0.020051 0.752648 -0.658117
vn -0.020051 0.752648 -0.658117
vn -0.020051 0.752648 -0.658117
vn -0.420776 0.873210 -0.245872
vn -0.420776 0.873210 -0.245872
vn -0.420776 0.873210 -0.245872
vn -0.420776 0.873210 -0.245872
vn -0.601628 0.798762 0.004764
vn -0.601628 0.798762 0.004764
vn -0.601628 0.798762 0.004764
vn -0.601628 0.798762 0.004764
vn -0.266188 0.883787 0.384791
vn -0.266188 0.883787 0.384791
vn -0.266188 0.883787 0.384791
vn -0.266188 0.883787 0.384791
vn -0.016147 0.819995 0.572143
vn -0.016147 0.819995 0.572143
vn -0.016147 0.819995 0.572143
vn -0.016147 0.819995 0.572143
vn 0.417576 0.862273 0.286560
vn 0.417576 0.862272 0.286560
vn 0.417576 0.862272 0.286560
vn 0.417576 0.862272 0.286560
vn 0.591003 0.806670 0.000486
vn 0.591003 0.806670 0.000486
vn 0.591003 0.806670 0.000486
vn 0.591003 0.806670 0.000486
vn 0.390171 0.858849 -0.331880
vn 0.390171 0.858849 -0.331880
vn 0.390171 0.858849 -0.331880
vn 0.390171 0.858849 -0.331880
vn 0.230680 0.972194 0.040332
vn 0.230680 0.972194 0.040332
vn 0.230680 0.972194 0.040332
vn 0.230680 0.972194 0.040332
vn -0.106772 0.977820 0.180190
vn -0.106772 0.977820 0.180190
vn -0.106772 0.977820 0.180190
vn -0.061742 0.970033 0.234999
vn -0.061742 0.970033 0.234999
vn -0.061742 0.970033 0.234999
vn -0.309827 0.950009 0.038599
vn -0.309827 0.950009 0.038599
vn -0.309827 0.950009 0.038599
vn -0.309827 0.950009 0.038599
vn -0.015949 0.950759 0.309522
vn -0.015949 0.950759 0.309522
vn -0.015949 0.950759 0.309522
vn -0.015949 0.950759 0.309522
vn 0.026133 0.973001 -0.229317
vn 0.026133 0.973001 -0.229317
vn 0.026133 0.973001 -0.229317
vn -0.164531 0.969800 -0.180049
vn -0.164531 0.969800 -0.180049
vn -0.164531 0.969800 -0.180049
vn -0.164531 0.969800 -0.180049
vn 0.263257 0.963619 0.046205
vn 0.263257 0.963619 0.046205
vn 0.263257 0.963619 0.046205
vn 0.046708 0.977233 -0.206962
vn 0.046708 0.977233 -0.206962
vn 0.046708 0.977233 -0.206962
vn 0.046708 0.977233 -0.206962
vn 0.018417 0.983320 -0.180948
vn 0.018417 0.983320 -0.180948
vn 0.018417 0.983320 -0.180948
vn -0.052708 0.987180 0.150659
vn -0.052708 0.987180 0.150659
vn -0.052708 0.987180 0.150659
vn 0.025855 0.999124 -0.032896
vn 0.025855 0.999124 -0.032896
vn 0.025855 0.999124 -0.032896
vn 0.000000 1.000000 0.000000
vn 0.000000 1.000000 0.000000
vn 0.000000 1.000000 0.000000
vn 0.000000 1.000000 0.000000
vn 0.000000 1.000000 0.000000
vn 0.000000 1.000000 0.000000
vn 0.000000 1.000000 0.000000
vn 0.000000 1.000000 -0.000000
vn 0.000000 1.000000 -0.000000
vn 0.000000 1.000000 -0.000000
vn 0.000000 1.000000 0.000000
vn 0.000000 1.000000 0.000000
vn 0.000000 1.000000 0.000000
vn 0.000000 1.000000 0.000000
vn 0.000000 1.000000 0.000000
vn 0.000000 1.000000 0.000000
vn 0.000000 1.000000 0.000000
vn 0.000000 1.000000 0.000000
vn 0.000000 1.000000 0.000000
vn 0.000000 1.000000 0.000000
vn 0.000000 1.000000 0.000000
vn 0.000000 1.000000 0.000000
vn 0.000000 1.000000 0.000000
vn 0.000000 1.000000 0.000000
vn 0.000000 1.000000 0.000000
vn 0.000000 1.000000 0.000000
vn 0.000000 1.000000 0.000000
vn 0.000000 1.000000 0.000000
vn -0.319995 0.044350 -0.946381
vn -0.319995 0.044350 -0.946381
vn -0.319995 0.044350 -0.946381
vn -0.319995 0.044350 -0.946381
vn -0.945998 0.053472 0.319731
vn -0.945998 0.053472 0.319731
vn -0.945998 0.053472 0.319731
vn -0.945998 0.053472 0.319731
vn 0.319620 0.044365 0.946507
vn 0.319620 0.044365 0.946507
vn 0.319620 0.044365 0.946507
vn 0.319620 0.044365 0.946507
vn 0.946000 0.053455 -0.319729
vn 0.946000 0.053455 -0.319729
vn 0.946000 0.053455 -0.319729
vn 0.946000 0.053455 -0.319729
s off
f 18/24/1 19/25/2 2/2/3 4/4/4
f 43/55/5 38/47/6 39/48/7 42/53/8
f 20/27/9 17/23/10 6/6/11 8/8/12
f 2/10/13 19/26/14 20/27/15 8/8/16
f 14/20/17 15/21/18 16/22/19 13/19/20
f 9/16/21 10/15/22 2/2/23 8/11/24
f 8/11/25 6/12/26 11/17/27 9/16/28
f 4/4/29 2/2/30 10/15/31 12/18/32
f 1/1/33 14/20/34 13/19/35 7/13/36
f 1/1/37 3/3/38 15/21/39 14/20/40
f 45/57/41 46/58/42 47/59/43 48/60/44 49/61/45 50/62/46 51/63/47 52/64/48
f 5/14/49 7/13/50 13/19/51 16/22/52
f 1/1/53 19/25/54 18/24/55 3/3/56
f 19/26/57 1/9/58 7/7/59 20/27/60
f 5/5/61 17/23/62 20/27/63 7/7/64
f 15/21/65 3/3/66 21/29/67 22/28/68
f 5/14/69 16/22/70 24/31/71 23/30/72
f 16/22/73 15/21/74 22/28/75 24/31/76
f 3/3/77 18/24/78 25/32/79 21/29/80
f 36/45/81 27/35/82 25/32/83 18/24/84 32/41/85
f 17/23/86 5/5/87 23/34/88 26/33/89
f 11/17/90 6/12/91 29/38/92 30/37/93
f 35/44/94 31/39/95 17/23/96 26/33/97 28/36/98
f 6/6/99 17/23/100 31/39/101 29/40/102
f 18/24/103 4/4/104 33/42/105 32/41/106
f 4/4/107 12/18/108 34/43/109 33/42/110
f 12/18/111 40/50/112 34/43/113
f 12/18/114 10/15/115 9/16/116 11/17/117
f 87/107/118 88/108/119 89/109/120 90/110/121
f 78/81/122 73/82/123 74/83/124
f 23/30/125 24/31/126 46/58/127 45/57/128
f 24/31/129 22/28/130 47/59/131 46/58/132
f 22/28/133 21/29/134 48/60/135 47/59/136
f 21/29/137 25/32/138 49/61/139 48/60/140
f 25/32/141 27/35/142 50/62/143 49/61/144
f 50/62/145 27/35/146 28/36/147 51/63/148
f 28/36/149 26/33/150 52/64/151 51/63/152
f 26/33/153 23/30/154 45/57/155 52/64/156
f 40/49/157 39/48/158 53/66/159 54/65/160
f 39/48/161 38/47/162 55/67/163 53/66/164
f 38/47/165 37/46/166 56/68/167 55/67/168
f 37/46/169 36/45/170 57/69/171 56/68/172
f 36/45/173 32/41/174 58/70/175 57/69/176
f 32/41/177 33/42/178 59/71/179 58/70/180
f 33/42/181 34/43/182 60/72/183 59/71/184
f 34/43/185 40/49/186 54/65/187 60/72/188
f 29/40/189 31/39/190 61/74/191 62/73/192
f 31/39/193 35/44/194 63/75/195 61/74/196
f 35/44/197 44/56/198 64/76/199 63/75/200
f 44/56/201 43/55/202 65/77/203 64/76/204
f 43/55/205 42/54/206 66/78/207 65/77/208
f 42/54/209 41/52/210 67/79/211 66/78/212
f 41/52/213 30/37/214 68/80/215 67/79/216
f 30/37/217 29/40/218 62/73/219 68/80/220
f 37/46/221 44/56/222 28/36/223 27/35/224
f 37/46/225 38/47/226 43/55/227 44/56/228
f 41/51/229 42/53/230 39/48/231 40/49/232
f 41/52/233 11/17/234 30/37/235
f 41/52/236 40/50/237 12/18/238 11/17/239
f 28/36/240 44/56/241 35/44/242
f 27/35/243 36/45/244 37/46/245
f 62/84/246 61/85/247 70/86/248 69/87/249
f 61/85/250 63/88/251 71/89/252 70/86/253
f 63/88/254 64/90/255 72/91/256 71/89/257
f 64/90/258 65/92/259 73/82/260 72/91/261
f 65/92/262 66/93/263 74/83/264 73/82/265
f 66/93/266 67/94/267 75/95/268 74/83/269
f 67/94/270 68/96/271 76/97/272 75/95/273
f 68/96/274 62/84/275 69/87/276 76/97/277
f 75/95/278 82/98/279 77/99/280 74/83/281
f 77/99/282 80/100/283 78/81/284
f 78/81/285 74/83/286 77/99/287
f 80/100/288 71/89/289 72/91/290 79/101/291
f 79/101/292 72/91/293 73/82/294 78/81/295
f 69/87/296 70/86/297 81/102/298
f 81/102/299 70/86/300 71/89/301 80/100/302
f 76/97/303 82/98/304 75/95/305
f 69/87/306 81/102/307 82/98/308 76/97/309
f 80/100/310 82/98/311 81/102/312
f 78/81/313 80/100/314 79/101/315
f 77/99/316 82/98/317 80/100/318
f 54/65/319 53/66/320 83/103/321
f 53/66/322 55/67/323 84/104/324 83/103/325
f 55/67/326 56/68/327 84/104/328
f 56/68/329 57/69/330 85/105/331 84/104/332
f 57/69/333 58/70/334 85/105/335
f 58/70/336 59/71/337 86/106/338 85/105/339
f 59/71/340 60/72/341 86/106/342
f 60/72/343 54/65/344 83/103/345 86/106/346
f 83/111/347 84/112/348 88/108/349 87/107/350
f 84/112/351 85/113/352 89/109/353 88/108/354
f 85/113/355 86/114/356 90/110/357 89/109/358
f 86/114/359 83/111/360 87/107/361 90/110/362
