# This file uses meters as units for non-parametric coordinates.

v -0.000000 -0.455935 1.641943
v 24.450399 -0.455935 1.641943
v -0.000000 36.829252 1.641943
v 24.450399 23.540750 1.641943
v -0.000000 36.829252 -1.641903
v 24.450399 23.540750 -1.641903
v -0.000000 -0.455935 -1.641903
v 24.450399 -0.455935 -1.641903
v 12.225204 36.829252 -1.641903
v 12.225204 36.829252 1.641943
v 17.797414 21.833697 1.641943
v 6.652986 21.833697 1.641943
v 3.402663 -0.455935 1.641943
v 21.047765 -0.455935 1.641943
v 6.652986 21.833697 -1.641903
v 17.797414 21.833697 -1.641903
v 3.402663 -0.455935 -1.641903
v 21.047765 -0.455935 -1.641903
v 3.402663 12.864346 1.641943
v -0.000000 23.540750 1.641943
v -0.000000 23.540750 -1.641903
v 3.402663 12.864346 -1.641903
v 21.047765 12.864346 -1.641903
v 21.047765 12.864346 1.641943
v 6.652986 15.706948 1.641943
v 6.652986 15.706948 -1.641903
v 17.797414 15.706948 -1.641903
v 17.797414 15.706948 1.641943
v 5.173112 11.334444 -1.641903
v 19.314922 11.334444 -1.641903
v 19.314922 -0.455935 -1.641903
v 5.173112 -0.455935 -1.641903
v 19.314922 11.334444 1.641943
v 19.314922 -0.455935 1.641943
v 5.173112 11.334444 1.641943
v 5.173112 -0.455935 1.641943
v 15.553288 11.334444 -1.641903
v 15.553288 -0.455935 -1.641903
v 15.553288 -0.455935 1.641943
v 15.553288 11.334444 1.641943
v 14.124806 11.334444 -1.641903
v 14.124806 -0.455935 -1.641903
v 14.124806 -0.455935 1.641943
v 14.124806 11.334444 1.641943
v 10.363191 11.334444 -1.641903
v 10.363191 -0.455935 -1.641903
v 10.363191 -0.455935 1.641943
v 10.363191 11.334444 1.641943
v 8.934709 11.334444 -1.641903
v 8.934709 -0.455935 -1.641903
v 8.934709 -0.455935 1.641943
v 8.934709 11.334444 1.641943
v 5.554049 10.802167 -2.806520
v 8.553754 10.802167 -2.806520
v 8.553754 -1.764611 -2.806520
v 5.554049 -1.764611 -2.806520
v 8.553754 -1.764611 2.806520
v 8.553754 10.802167 2.806520
v 5.554049 10.802167 2.806520
v 5.554049 -1.764611 2.806520
v 15.934253 10.802167 -2.806520
v 18.933966 10.802167 -2.806520
v 18.933966 -1.764611 -2.806520
v 15.934234 -1.764611 -2.806520
v 15.934234 -1.764611 2.806520
v 18.933966 -1.764611 2.806520
v 18.933966 10.802167 2.806520
v 15.934253 10.802167 2.806520
v 10.744128 10.802167 -2.806520
v 13.743851 10.802167 -2.806520
v 13.743869 -1.764611 -2.806520
v 10.744156 -1.764611 -2.806520
v 10.744156 -1.764611 2.806520
v 13.743869 -1.764611 2.806520
v 13.743869 10.802167 2.806520
v 10.744156 10.802167 2.806520
v -0.000000 27.171669 1.641943
v -0.000000 31.978264 1.641943
v -0.000000 31.978264 -1.641903
v -0.000000 27.171669 -1.641903
v 10.869316 31.978264 1.641943
v 10.869316 27.171669 1.641943
v 10.869316 27.171669 -1.641903
v 10.869316 31.978264 -1.641903
vt 0.220271 0.491440
vt 0.220271 0.491440
vt 0.220271 0.491440
vt 0.220271 0.491440
vt 0.220271 0.491440
vt 0.220271 0.491440
vt 0.220271 0.491440
vt 0.220271 0.491440
vt 0.220271 0.491440
vt 0.220271 0.491440
vt 0.220271 0.491440
vt 0.220271 0.491440
vt 0.220271 0.491440
vt 0.220271 0.491440
vt 0.220271 0.491440
vt 0.220271 0.491440
vt 0.220271 0.491440
vt 0.220271 0.491440
vt 0.220271 0.491440
vt 0.220271 0.491440
vt 0.220271 0.491440
vt 0.220271 0.491440
vt 0.220271 0.491440
vt 0.220271 0.491440
vt 0.220271 0.491440
vt 0.220271 0.491440
vt 0.220271 0.491440
vt 0.220271 0.491440
vt 0.220271 0.491440
vt 0.220271 0.491440
vt 0.220271 0.491440
vt 0.220271 0.491440
vt 0.220271 0.491440
vt 0.220271 0.491440
vt 0.220271 0.491440
vt 0.220271 0.491440
vt 0.220271 0.491440
vt 0.246246 0.326860
vt 0.246239 0.326860
vt 0.246239 0.326862
vt 0.246246 0.326862
vt 0.246239 0.326862
vt 0.246239 0.326860
vt 0.246246 0.326860
vt 0.246246 0.326862
vt 0.246246 0.326860
vt 0.246239 0.326860
vt 0.246239 0.326860
vt 0.246246 0.326860
vt 0.246239 0.326860
vt 0.246246 0.326860
vt 0.246239 0.326860
vt 0.246246 0.326860
vt 0.246246 0.326860
vt 0.246239 0.326860
vt 0.246239 0.326862
vt 0.246246 0.326862
vt 0.246239 0.326862
vt 0.246239 0.326860
vt 0.246246 0.326860
vt 0.246246 0.326862
vt 0.246240 0.326860
vt 0.246240 0.326862
vt 0.246240 0.326862
vt 0.246240 0.326860
vt 0.246242 0.326860
vt 0.246242 0.326862
vt 0.246242 0.326862
vt 0.246242 0.326860
vt 0.246243 0.326860
vt 0.246243 0.326862
vt 0.246243 0.326862
vt 0.246243 0.326860
vt 0.246245 0.326860
vt 0.246245 0.326862
vt 0.246245 0.326862
vt 0.246245 0.326860
vt 0.245972 0.226322
vt 0.245972 0.226322
vt 0.245972 0.226324
vt 0.245972 0.226324
vt 0.245972 0.226324
vt 0.245972 0.226322
vt 0.245972 0.226322
vt 0.245972 0.226324
vt 0.245964 0.226322
vt 0.245964 0.226322
vt 0.245964 0.226324
vt 0.245964 0.226324
vt 0.245964 0.226324
vt 0.245964 0.226324
vt 0.245964 0.226322
vt 0.245964 0.226322
vt 0.245972 0.226322
vt 0.245972 0.226322
vt 0.245972 0.226324
vt 0.245972 0.226324
vt 0.245972 0.226324
vt 0.245972 0.226324
vt 0.245972 0.226322
vt 0.245972 0.226322
vt 0.245972 0.226322
vt 0.245972 0.226322
vt 0.245972 0.226324
vt 0.245972 0.226324
vt 0.245972 0.226324
vt 0.245972 0.226322
vt 0.245972 0.226322
vt 0.245972 0.226324
vt 0.245964 0.226322
vt 0.245964 0.226322
vt 0.245964 0.226324
vt 0.245964 0.226324
vt 0.245964 0.226324
vt 0.245964 0.226324
vt 0.245964 0.226322
vt 0.245964 0.226322
vt 0.245972 0.226322
vt 0.245964 0.226322
vt 0.245964 0.226324
vt 0.245972 0.226324
vt 0.245972 0.226324
vt 0.245964 0.226324
vt 0.245964 0.226322
vt 0.245972 0.226322
vt 0.220271 0.491440
vt 0.220271 0.491440
vt 0.220271 0.491440
vt 0.220271 0.491440
vt 0.220271 0.491440
vt 0.220271 0.491440
vt 0.220271 0.491440
vt 0.220271 0.491440
vt 0.220271 0.491440
vt 0.220271 0.491440
vt 0.245972 0.377129
vt 0.245972 0.377129
vt 0.245972 0.377129
vt 0.245972 0.377129
vt 0.245972 0.377129
vt 0.245972 0.377129
vt 0.245972 0.377129
vt 0.245972 0.377129
vn -0.000000 0.000000 1.000000
vn 0.000000 0.000000 1.000000
vn 0.000000 0.000000 1.000000
vn 0.000000 0.000000 1.000000
vn 0.735937 0.677050 0.000000
vn 0.735937 0.677050 0.000000
vn 0.735937 0.677050 0.000000
vn 0.735937 0.677050 0.000000
vn 0.000000 0.000000 -1.000000
vn 0.000000 0.000000 -1.000000
vn 0.000000 0.000000 -1.000000
vn 0.000000 0.000000 -1.000000
vn -1.000000 0.000000 0.000000
vn -1.000000 0.000000 0.000000
vn -1.000000 0.000000 0.000000
vn -1.000000 0.000000 0.000000
vn 0.000000 1.000000 0.000000
vn 0.000000 1.000000 0.000000
vn 0.000000 1.000000 0.000000
vn 0.000000 1.000000 0.000000
vn 0.000000 -1.000000 0.000000
vn 0.000000 -1.000000 0.000000
vn 0.000000 -1.000000 0.000000
vn 0.000000 -1.000000 0.000000
vn 1.000000 0.000000 0.000000
vn 1.000000 0.000000 0.000000
vn 1.000000 0.000000 0.000000
vn 1.000000 0.000000 0.000000
vn -0.000000 0.000000 1.000000
vn -0.000000 0.000000 1.000000
vn -0.000000 0.000000 1.000000
vn 0.000000 0.000000 1.000000
vn -0.000000 0.000000 1.000000
vn 0.000000 0.000000 1.000000
vn 0.000000 0.000000 1.000000
vn 0.000000 0.000000 1.000000
vn 0.000000 0.000000 1.000000
vn 0.000000 0.000000 1.000000
vn 0.000000 0.000000 1.000000
vn 0.000000 0.000000 -1.000000
vn -0.000000 0.000000 -1.000000
vn 0.000000 0.000000 -1.000000
vn 0.000000 0.000000 -1.000000
vn 0.000000 0.000000 -1.000000
vn 0.000000 0.000000 -1.000000
vn 0.000000 0.000000 -1.000000
vn 0.000000 0.000000 -1.000000
vn 0.000000 0.000000 1.000000
vn -0.000000 0.000000 1.000000
vn -0.000000 0.000000 1.000000
vn 0.000000 0.000000 1.000000
vn 0.000000 0.000000 -1.000000
vn 0.000000 0.000000 -1.000000
vn 0.000000 0.000000 -1.000000
vn 0.000000 0.000000 -1.000000
vn 0.000000 0.000000 -1.000000
vn 0.000000 0.000000 -1.000000
vn 0.000000 0.000000 -1.000000
vn -0.000000 0.000000 -1.000000
vn -0.000000 0.000000 -1.000000
vn 0.000000 0.000000 -1.000000
vn -0.000000 0.000000 -1.000000
vn -0.000000 0.000000 -1.000000
vn 0.000000 0.000000 1.000000
vn 0.000000 0.000000 1.000000
vn -0.000000 0.000000 1.000000
vn -0.000000 0.000000 1.000000
vn -0.000000 0.000000 1.000000
vn 0.000000 0.000000 1.000000
vn 0.000000 0.000000 1.000000
vn -0.000000 0.000000 1.000000
vn -1.000000 0.000000 0.000000
vn -1.000000 0.000000 0.000000
vn -1.000000 0.000000 0.000000
vn -1.000000 0.000000 0.000000
vn 0.000000 0.000000 -1.000000
vn 0.000000 0.000000 -1.000000
vn -0.000000 0.000000 -1.000000
vn -0.000000 0.000000 -1.000000
vn -0.000000 0.000000 -1.000000
vn 0.000000 0.000000 -1.000000
vn 0.000000 0.000000 -1.000000
vn -0.000000 0.000000 1.000000
vn 0.000000 0.000000 1.000000
vn -0.000000 0.000000 1.000000
vn 0.000000 0.000000 1.000000
vn 0.000000 -1.000000 0.000000
vn 0.000000 -1.000000 0.000000
vn 0.000000 -1.000000 0.000000
vn 0.000000 -1.000000 0.000000
vn 0.000000 -1.000000 0.000000
vn 0.000000 -1.000000 0.000000
vn 0.000000 -1.000000 0.000000
vn 0.000000 -1.000000 0.000000
vn -0.000000 0.000000 -1.000000
vn -0.000000 0.000000 -1.000000
vn 0.000000 0.000000 -1.000000
vn 0.000000 0.000000 1.000000
vn 0.000000 0.000000 1.000000
vn 0.000000 0.000000 1.000000
vn 0.000000 0.000000 1.000000
vn 0.000000 0.000000 -1.000000
vn 0.000000 0.000000 -1.000000
vn 0.000000 0.000000 -1.000000
vn 0.000000 0.000000 -1.000000
vn 0.000000 0.000000 -1.000000
vn 0.000000 0.000000 -1.000000
vn 0.000000 0.000000 -1.000000
vn 0.000000 0.000000 -1.000000
vn 0.000000 0.000000 -1.000000
vn 0.000000 0.000000 -1.000000
vn 0.000000 0.000000 -1.000000
vn 0.000000 0.000000 -1.000000
vn 0.000000 0.000000 1.000000
vn 0.000000 0.000000 1.000000
vn 0.000000 0.000000 1.000000
vn 0.000000 0.000000 1.000000
vn 0.000000 0.000000 1.000000
vn 0.000000 0.000000 1.000000
vn 0.000000 0.000000 1.000000
vn 0.000000 0.000000 1.000000
vn -0.000000 0.000000 1.000000
vn -0.000000 0.000000 1.000000
vn -0.000000 0.000000 1.000000
vn -0.000000 0.000000 1.000000
vn 0.000000 -1.000000 0.000000
vn 0.000000 -1.000000 0.000000
vn 0.000000 -1.000000 0.000000
vn 0.000000 -1.000000 0.000000
vn 0.000000 -1.000000 0.000000
vn 0.000000 -1.000000 0.000000
vn 0.000000 -1.000000 0.000000
vn 0.000000 -1.000000 0.000000
vn 0.000000 0.000000 -1.000000
vn 0.000000 0.000000 -1.000000
vn 0.000000 0.000000 -1.000000
vn 0.000000 0.000000 -1.000000
vn 0.000000 -1.000000 0.000000
vn 0.000000 -1.000000 0.000000
vn 0.000000 -1.000000 0.000000
vn 0.000000 -1.000000 0.000000
vn 0.000000 0.000000 1.000000
vn 0.000000 0.000000 1.000000
vn 0.000000 0.000000 1.000000
vn 0.000000 0.000000 1.000000
vn 0.000000 0.000000 -1.000000
vn 0.000000 0.000000 -1.000000
vn 0.000000 0.000000 -1.000000
vn 0.000000 0.000000 -1.000000
vn 0.000000 -1.000000 0.000000
vn 0.000000 -1.000000 0.000000
vn 0.000000 -1.000000 0.000000
vn 0.000000 -1.000000 0.000000
vn 0.000000 0.000000 1.000000
vn 0.000000 0.000000 1.000000
vn 0.000000 0.000000 1.000000
vn 0.000000 0.000000 1.000000
vn 0.000000 0.000000 -1.000000
vn 0.000000 0.000000 -1.000000
vn 0.000000 0.000000 -1.000000
vn 0.000000 0.000000 -1.000000
vn 0.000000 -1.000000 0.000000
vn 0.000000 -1.000000 0.000000
vn 0.000000 -1.000000 0.000000
vn 0.000000 -1.000000 0.000000
vn 0.000000 0.000000 1.000000
vn 0.000000 0.000000 1.000000
vn 0.000000 0.000000 1.000000
vn 0.000000 0.000000 1.000000
vn 0.000000 0.000000 -1.000000
vn 0.000000 0.000000 -1.000000
vn 0.000000 0.000000 -1.000000
vn 0.000000 0.000000 -1.000000
vn 0.000000 -1.000000 0.000000
vn 0.000000 -1.000000 0.000000
vn 0.000000 -1.000000 0.000000
vn 0.000000 -1.000000 0.000000
vn 0.000000 0.000000 1.000000
vn 0.000000 0.000000 1.000000
vn 0.000000 0.000000 1.000000
vn 0.000000 0.000000 1.000000
vn 0.000000 0.909510 -0.415683
vn 0.000000 0.909510 -0.415683
vn 0.000000 0.909510 -0.415683
vn 0.000000 0.909510 -0.415683
vn 0.950443 0.000000 -0.310898
vn 0.975714 -0.122317 -0.181717
vn 0.952719 -0.007003 -0.303773
vn 0.950443 0.000000 -0.310898
vn -0.975716 -0.122311 -0.181708
vn -0.950448 0.000000 -0.310884
vn -0.950448 0.000000 -0.310884
vn -0.952723 -0.007003 -0.303759
vn 0.975713 -0.122319 0.181720
vn 0.950440 0.000000 0.310908
vn 0.950440 0.000000 0.310908
vn 0.952716 -0.007004 0.303782
vn 0.000000 0.909504 0.415695
vn 0.000000 0.909504 0.415695
vn 0.000000 0.909504 0.415695
vn 0.000000 0.909504 0.415695
vn -0.950445 0.000000 0.310894
vn -0.975715 -0.122314 0.181712
vn -0.952720 -0.007003 0.303768
vn -0.950445 0.000000 0.310894
vn -0.975715 -0.122314 0.181712
vn -0.975716 -0.122311 -0.181708
vn -0.952723 -0.007003 -0.303759
vn -0.952720 -0.007003 0.303768
vn 0.975714 -0.122317 -0.181717
vn 0.975713 -0.122319 0.181720
vn 0.952716 -0.007004 0.303782
vn 0.952719 -0.007003 -0.303773
vn 0.000000 0.909510 -0.415683
vn 0.000000 0.909510 -0.415683
vn 0.000000 0.909510 -0.415683
vn 0.000000 0.909510 -0.415683
vn 0.950443 0.000000 -0.310898
vn 0.975714 -0.122317 -0.181717
vn 0.952719 -0.007003 -0.303773
vn 0.950443 0.000000 -0.310898
vn -0.975714 -0.122314 -0.181717
vn -0.950443 0.000001 -0.310898
vn -0.950443 0.000001 -0.310898
vn -0.952719 -0.007002 -0.303773
vn -0.975713 -0.122316 0.181721
vn -0.975714 -0.122314 -0.181717
vn -0.952719 -0.007002 -0.303773
vn -0.952716 -0.007003 0.303782
vn 0.975714 -0.122317 -0.181717
vn 0.975713 -0.122319 0.181720
vn 0.952716 -0.007004 0.303782
vn 0.952719 -0.007003 -0.303773
vn 0.975713 -0.122319 0.181720
vn 0.950440 0.000000 0.310908
vn 0.950440 0.000000 0.310908
vn 0.952716 -0.007004 0.303782
vn 0.000000 0.909504 0.415694
vn 0.000000 0.909504 0.415694
vn 0.000000 0.909504 0.415694
vn 0.000000 0.909504 0.415694
vn -0.950440 0.000001 0.310908
vn -0.975713 -0.122316 0.181721
vn -0.952716 -0.007003 0.303782
vn -0.950440 0.000001 0.310908
vn 0.000000 0.909510 -0.415683
vn 0.000000 0.909510 -0.415683
vn 0.000000 0.909510 -0.415683
vn 0.000000 0.909510 -0.415683
vn 0.950445 0.000001 -0.310891
vn 0.975715 -0.122311 -0.181713
vn 0.952721 -0.007002 -0.303767
vn 0.950445 0.000001 -0.310891
vn -0.975714 -0.122321 -0.181714
vn -0.950445 -0.000001 -0.310894
vn -0.950445 -0.000001 -0.310894
vn -0.952720 -0.007004 -0.303768
vn -0.975712 -0.122322 0.181725
vn -0.975714 -0.122321 -0.181714
vn -0.952720 -0.007004 -0.303768
vn -0.952714 -0.007004 0.303789
vn 0.975715 -0.122311 -0.181713
vn 0.975715 -0.122313 0.181712
vn 0.952720 -0.007003 0.303768
vn 0.952721 -0.007002 -0.303767
vn 0.975715 -0.122313 0.181712
vn 0.950445 0.000000 0.310894
vn 0.950445 0.000000 0.310894
vn 0.952720 -0.007003 0.303768
vn 0.000000 0.909504 0.415694
vn 0.000000 0.909504 0.415694
vn 0.000000 0.909504 0.415694
vn 0.000000 0.909504 0.415694
vn -0.950438 0.000000 0.310914
vn -0.975712 -0.122322 0.181725
vn -0.952714 -0.007004 0.303789
vn -0.950438 0.000000 0.310914
vn 0.000000 0.000000 1.000000
vn 0.000000 0.000000 1.000000
vn 0.000000 0.000000 1.000000
vn 0.000000 0.000000 1.000000
vn 0.000000 0.000000 1.000000
vn 0.000000 0.000000 1.000000
vn 0.000000 0.000000 1.000000
vn 0.000000 0.000000 1.000000
vn 0.000000 0.000000 -1.000000
vn 0.000000 0.000000 -1.000000
vn 0.000000 0.000000 -1.000000
vn 0.000000 0.000000 -1.000000
vn 0.000000 0.000000 -1.000000
vn 0.000000 0.000000 -1.000000
vn 0.000000 0.000000 -1.000000
vn 0.000000 0.000000 -1.000000
vn 0.000000 0.000000 1.000000
vn 0.000000 0.000000 1.000000
vn 0.000000 0.000000 1.000000
vn 0.000000 0.000000 1.000000
vn -1.000000 0.000000 0.000000
vn -1.000000 0.000000 0.000000
vn -1.000000 0.000000 0.000000
vn -1.000000 0.000000 0.000000
vn 0.000000 0.000000 -1.000000
vn 0.000000 0.000000 -1.000000
vn 0.000000 0.000000 -1.000000
vn 0.000000 0.000000 -1.000000
vn -1.000000 0.000000 0.000000
vn -1.000000 0.000000 0.000000
vn -1.000000 0.000000 0.000000
vn -1.000000 0.000000 0.000000
vn 0.000000 0.000000 1.000000
vn 0.000000 0.000000 1.000000
vn 0.000000 0.000000 1.000000
vn -0.000000 0.000000 1.000000
vn -0.000000 0.000000 1.000000
vn 0.000000 0.000000 1.000000
vn 0.000000 0.000000 1.000000
vn -0.000000 0.000000 1.000000
vn 0.000000 0.000000 -1.000000
vn 0.000000 0.000000 -1.000000
vn 0.000000 0.000000 -1.000000
vn 0.000000 0.000000 -1.000000
vn 0.000000 0.000000 -1.000000
vn 0.000000 0.000000 -1.000000
vn 0.000000 0.000000 -1.000000
vn 0.000000 0.000000 -1.000000
vn -0.000000 0.000000 -1.000000
vn 0.000000 0.000000 -1.000000
vn 0.000000 0.000000 -1.000000
vn 0.000000 0.000000 -1.000000
vn -0.000000 0.000000 1.000000
vn 0.000000 0.000000 1.000000
vn 0.000000 0.000000 1.000000
s off
f 4/4/1 24/33/2 14/21/3 2/2/4
f 9/15/5 10/16/6 4/4/7 6/6/8
f 53/78/9 54/79/10 55/80/11 56/81/12
f 7/13/13 1/1/14 20/28/15 21/29/16
f 3/3/17 10/16/18 9/15/19 5/5/20
f 14/22/21 18/26/22 8/8/23 2/10/24
f 2/2/25 8/11/26 6/12/27 4/4/28
f 4/4/29 10/16/30 11/17/31
f 13/19/32 19/27/33 20/28/34 1/1/35
f 57/82/36 58/83/37 59/84/38 60/85/39
f 23/32/40 6/6/41 8/8/42 18/26/43
f 21/30/44 22/31/45 17/25/46 7/7/47
f 20/28/48 19/27/49 25/34/50 12/18/51
f 26/35/52 22/31/53 21/30/54 15/23/55
f 23/39/56 22/38/57 26/46/58 27/47/59
f 6/6/60 23/32/61 27/36/62 16/24/63
f 28/37/64 24/33/65 4/4/66 11/17/67
f 19/44/68 24/43/69 28/48/70 25/49/71
f 21/29/72 20/28/73 77/126/74 80/130/75
f 15/23/76 83/134/77 16/24/78
f 16/50/79 27/47/80 26/46/81 15/51/82
f 25/49/83 28/48/84 11/52/85 12/53/86
f 60/85/87 56/81/88 55/80/89 57/82/90
f 7/7/91 17/25/92 13/20/93 1/9/94
f 6/6/95 16/24/96 9/15/97
f 12/18/98 82/133/99 77/126/100 20/28/101
f 22/38/102 23/39/103 41/66/104 45/70/105
f 23/39/106 18/40/107 31/56/108 30/55/109
f 17/41/110 22/38/111 29/54/112 32/57/113
f 14/42/114 24/43/115 33/59/116 34/58/117
f 24/43/118 19/44/119 48/73/120 44/69/121
f 19/44/122 13/45/123 36/61/124 35/60/125
f 13/45/126 17/41/127 32/57/128 36/61/129
f 18/40/130 14/42/131 34/58/132 31/56/133
f 61/86/134 62/87/135 63/88/136 64/89/137
f 65/90/138 64/89/139 63/88/140 66/91/141
f 66/91/142 67/92/143 68/93/144 65/90/145
f 41/66/146 37/62/147 38/63/148 42/67/149
f 43/68/150 42/67/151 38/63/152 39/64/153
f 39/64/154 40/65/155 44/69/156 43/68/157
f 69/94/158 70/95/159 71/96/160 72/97/161
f 73/98/162 72/97/163 71/96/164 74/99/165
f 74/99/166 75/100/167 76/101/168 73/98/169
f 49/74/170 45/70/171 46/71/172 50/75/173
f 51/76/174 50/75/175 46/71/176 47/72/177
f 47/72/178 48/73/179 52/77/180 51/76/181
f 29/102/182 49/103/183 54/79/184 53/78/185
f 49/103/186 50/104/187 55/80/188 54/79/189
f 32/105/190 29/102/191 53/78/192 56/81/193
f 51/106/194 52/107/195 58/83/196 57/82/197
f 52/107/198 35/108/199 59/84/200 58/83/201
f 35/108/202 36/109/203 60/85/204 59/84/205
f 36/109/206 32/105/207 56/81/208 60/85/209
f 50/104/210 51/106/211 57/82/212 55/80/213
f 37/110/214 30/111/215 62/87/216 61/86/217
f 30/111/218 31/112/219 63/88/220 62/87/221
f 38/113/222 37/110/223 61/86/224 64/89/225
f 39/114/226 38/113/227 64/89/228 65/90/229
f 31/112/230 34/115/231 66/91/232 63/88/233
f 34/115/234 33/116/235 67/92/236 66/91/237
f 33/116/238 40/117/239 68/93/240 67/92/241
f 40/117/242 39/114/243 65/90/244 68/93/245
f 45/118/246 41/119/247 70/95/248 69/94/249
f 41/119/250 42/120/251 71/96/252 70/95/253
f 46/121/254 45/118/255 69/94/256 72/97/257
f 47/122/258 46/121/259 72/97/260 73/98/261
f 42/120/262 43/123/263 74/99/264 71/96/265
f 43/123/266 44/124/267 75/100/268 74/99/269
f 44/124/270 48/125/271 76/101/272 75/100/273
f 48/125/274 47/122/275 73/98/276 76/101/277
f 48/73/278 19/44/279 35/60/280 52/77/281
f 24/43/282 44/69/283 40/65/284 33/59/285
f 41/66/286 23/39/287 30/55/288 37/62/289
f 22/38/290 45/70/291 49/74/292 29/54/293
f 77/136/294 82/137/295 81/138/296 78/139/297
f 79/128/298 78/127/299 3/3/300 5/14/301
f 79/140/302 84/141/303 83/142/304 80/143/305
f 80/143/306 77/136/307 78/139/308 79/140/309
f 3/3/310 78/127/311 81/132/312 10/16/313
f 10/16/314 81/132/315 82/133/316 11/17/317
f 9/15/318 84/135/319 79/129/320 5/5/321
f 15/23/322 21/30/323 80/131/324 83/134/325
f 16/24/326 83/134/327 84/135/328 9/15/329
f 11/17/330 82/133/331 12/18/332
