# This file uses meters as units for non-parametric coordinates.

v 0.000000 -0.455936 312.500000
v 0.000000 105.755379 307.472839
v 8.977692 105.755379 0.000000
v 312.500061 105.755379 0.000000
v 0.000000 -0.455934 0.000000
v 312.500061 -0.455934 0.000000
v 17.182770 105.755379 312.499786
v 17.182739 105.755379 17.182693
v 312.500061 105.755386 11.646973
v 312.500061 36.718025 0.000015
v 312.500061 56.557549 31.250015
v 31.249969 56.557549 31.250015
v 31.250000 56.557549 312.500000
v -0.000031 36.718025 312.500061
v -0.000092 36.718025 0.000015
v 312.500061 52.115246 73.288025
v 72.174103 56.557549 72.174164
v 77.148651 -0.455934 77.148682
v 312.500061 -0.455934 77.148682
v 66.792786 56.557549 312.500000
v 77.148651 -0.455934 312.500000
v 312.500061 36.718025 77.148682
v 77.148651 36.718025 77.148682
v 77.148651 36.718025 312.500000
v -0.000092 29.697760 0.000000
v -0.000031 29.697760 312.500061
v 77.148621 29.697760 312.500000
v 77.148621 29.697760 77.148682
v 312.500061 29.697760 77.148682
v 312.500061 29.697760 0.000015
v -0.000092 25.611238 0.000000
v -0.000031 25.611238 312.500000
v 77.148621 25.611238 312.500000
v 77.148621 25.611238 77.148682
v 312.500061 25.611238 77.148682
v 312.500061 25.611238 0.000015
v 14.948456 18.647305 312.500000
v 62.200134 18.647305 312.500000
v 14.948486 6.507997 312.500000
v 62.200165 6.507998 312.500000
v 312.500061 18.647305 14.948517
v 312.500061 6.507997 14.948502
v 312.500061 18.647305 62.200180
v 312.500061 6.507997 62.200180
v 17.622955 16.387720 303.444611
v 59.525635 16.387720 303.444611
v 17.622986 8.767583 303.444611
v 59.525665 8.767584 303.444611
v 303.444672 16.387730 17.623001
v 303.444672 8.767594 17.622986
v 303.444672 16.387730 59.525696
v 303.444672 8.767594 59.525696
v 89.612946 18.861948 77.148682
v 300.035675 18.861948 77.148682
v 89.613007 6.293356 77.148682
v 300.035675 6.293356 77.148682
v 77.148621 18.861948 300.035706
v 77.148621 18.861948 89.613022
v 77.148651 6.293356 300.035706
v 77.148651 6.293356 89.613022
v 66.649139 16.019039 296.945251
v 66.649139 16.019039 92.703461
v 66.649170 9.136170 296.945251
v 66.649170 9.136170 92.703461
v 92.703400 16.019087 66.649185
v 296.945282 16.019087 66.649185
v 92.703430 9.136219 66.649185
v 296.945282 9.136219 66.649185
v 7.499664 105.755379 312.499908
v 0.000000 99.650146 312.500000
v 72.174194 56.557549 296.221558
v 74.254486 48.260761 312.500000
v -0.000031 96.251129 0.000000
v -0.000031 105.755379 10.850082
v 312.500061 56.557549 66.309677
v 306.982300 56.557549 72.174164
v 306.350159 105.755379 17.182892
v 312.500061 101.970032 18.265228
v 183.732513 105.755379 0.000000
v 248.305664 105.755379 0.000000
v 203.736633 105.755379 6.100845
v 212.196838 96.631088 0.000000
v 76.575989 105.755371 17.182709
v 142.979187 105.755386 17.182785
v 111.651978 105.755379 11.188751
v 111.264862 92.987679 20.833481
v 17.182739 105.755371 67.183701
v 17.182770 105.755379 114.322983
v 11.436920 105.755379 92.541260
v 18.732819 100.334236 87.486099
v 0.000000 105.755379 230.925201
v -0.000031 98.166359 194.862885
v 0.000000 105.755379 167.238785
v 6.255096 105.755379 189.183746
v 72.174133 56.557552 128.074432
v 72.174133 56.557549 202.011200
v 63.573425 56.557549 169.070526
v 73.377716 51.757416 163.876862
v 278.221130 56.557541 72.174164
v 193.169373 56.557541 72.174164
v 219.548981 56.557549 64.406906
v 255.455826 56.557549 63.963135
v 233.737213 51.204945 74.004349
vt 0.245783 0.327692
vt 0.210571 0.375610
vt 0.210571 0.375610
vt 0.210571 0.375610
vt 0.245783 0.327692
vt 0.245783 0.327692
vt 0.210571 0.375610
vt 0.245783 0.327692
vt 0.210571 0.375610
vt 0.210571 0.375610
vt 0.210571 0.375610
vt 0.210571 0.375610
vt 0.210571 0.375610
vt 0.210571 0.375610
vt 0.245783 0.327692
vt 0.245783 0.327692
vt 0.210571 0.375610
vt 0.210571 0.375610
vt 0.210571 0.375610
vt 0.210571 0.375610
vt 0.245783 0.327692
vt 0.245783 0.327692
vt 0.210571 0.375610
vt 0.245783 0.327692
vt 0.245783 0.327692
vt 0.245783 0.327692
vt 0.245783 0.327692
vt 0.245783 0.327692
vt 0.245783 0.327692
vt 0.245783 0.327692
vt 0.245783 0.327692
vt 0.245783 0.327692
vt 0.210571 0.375610
vt 0.210571 0.375610
vt 0.210571 0.375610
vt 0.210571 0.375610
vt 0.210571 0.375610
vt 0.210571 0.375610
vt 0.210571 0.375610
vt 0.210571 0.375610
vt 0.245783 0.327692
vt 0.245783 0.327692
vt 0.245783 0.327692
vt 0.245783 0.327692
vt 0.245783 0.327692
vt 0.245783 0.327692
vt 0.245783 0.327692
vt 0.245783 0.327692
vt 0.245783 0.327692
vt 0.245783 0.327692
vt 0.245783 0.327692
vt 0.245783 0.327692
vt 0.245783 0.327692
vt 0.245783 0.327692
vt 0.245783 0.327692
vt 0.245783 0.327692
vt 0.456116 0.027725
vt 0.456116 0.027725
vt 0.456116 0.027725
vt 0.456116 0.027725
vt 0.456116 0.027725
vt 0.456116 0.027725
vt 0.456116 0.027725
vt 0.456116 0.027725
vt 0.456131 0.027725
vt 0.456131 0.027725
vt 0.456131 0.027725
vt 0.456131 0.027725
vt 0.245783 0.327692
vt 0.245783 0.327692
vt 0.245783 0.327692
vt 0.245783 0.327692
vt 0.245783 0.327692
vt 0.245783 0.327692
vt 0.245783 0.327692
vt 0.245783 0.327692
vt 0.245783 0.327692
vt 0.245783 0.327692
vt 0.245783 0.327692
vt 0.245783 0.327692
vt 0.245783 0.327692
vt 0.245783 0.327692
vt 0.245783 0.327692
vt 0.245783 0.327692
vt 0.245783 0.327692
vt 0.245783 0.327692
vt 0.245783 0.327692
vt 0.245783 0.327692
vt 0.245783 0.327692
vt 0.245783 0.327692
vt 0.245783 0.327692
vt 0.245783 0.327692
vt 0.245783 0.327692
vt 0.245783 0.327692
vt 0.245783 0.327692
vt 0.245783 0.327692
vt 0.245783 0.327692
vt 0.245783 0.327692
vt 0.245783 0.327692
vt 0.245783 0.327692
vt 0.242645 0.280676
vt 0.242645 0.280676
vt 0.242645 0.280675
vt 0.242645 0.280675
vt 0.242645 0.280676
vt 0.242645 0.280676
vt 0.242645 0.280675
vt 0.242645 0.280675
vt 0.242645 0.280676
vt 0.242645 0.280676
vt 0.242645 0.280675
vt 0.242645 0.280675
vt 0.242645 0.280675
vt 0.242645 0.280676
vt 0.242645 0.280676
vt 0.242645 0.280675
vt 0.210571 0.375610
vt 0.210571 0.375610
vt 0.210571 0.375610
vt 0.210571 0.375610
vt 0.210571 0.375610
vt 0.210571 0.375610
vt 0.210571 0.375610
vt 0.210571 0.375610
vt 0.210571 0.375610
vt 0.210571 0.375610
vt 0.210571 0.375610
vt 0.210571 0.375610
vt 0.210571 0.375610
vt 0.210571 0.375610
vt 0.210571 0.375610
vt 0.210571 0.375610
vt 0.210571 0.375610
vt 0.210571 0.375610
vt 0.210571 0.375610
vt 0.210571 0.375610
vt 0.210571 0.375610
vt 0.210571 0.375610
vt 0.210571 0.375610
vt 0.210571 0.375610
vt 0.210571 0.375610
vt 0.210571 0.375610
vt 0.210571 0.375610
vt 0.210571 0.375610
vt 0.210571 0.375610
vt 0.210571 0.375610
vt 0.210571 0.375610
vt 0.210571 0.375610
vt 0.210571 0.375610
vt 0.210571 0.375610
vt 0.210571 0.375610
vn 0.000000 0.000001 -1.000000
vn 0.000000 0.000001 -1.000000
vn 0.000000 0.000001 -1.000000
vn 0.000000 0.000001 -1.000000
vn -1.000000 0.000000 0.000000
vn -1.000000 0.000000 0.000000
vn -1.000000 0.000000 0.000000
vn -1.000000 0.000000 0.000000
vn 0.000000 0.000000 1.000000
vn 0.000000 0.000000 1.000000
vn 0.000000 0.000000 1.000000
vn 0.000000 0.000000 1.000000
vn 1.000000 0.000000 0.000000
vn 1.000000 0.000000 0.000000
vn 1.000000 0.000000 0.000000
vn 1.000000 0.000000 0.000000
vn 0.408020 0.792502 0.453278
vn 0.408020 0.792502 0.453278
vn 0.408020 0.792502 0.453278
vn 0.961469 0.274913 -0.000000
vn 0.961469 0.274913 -0.000000
vn 0.961469 0.274913 -0.000000
vn 0.000004 0.000003 1.000000
vn 0.000004 0.000003 1.000000
vn 0.000004 0.000003 1.000000
vn 0.000004 0.000003 1.000000
vn 0.000004 0.000003 1.000000
vn -0.622945 0.588434 -0.515447
vn -0.622945 0.588434 -0.515447
vn -0.622945 0.588434 -0.515447
vn 0.000000 -0.000000 -1.000000
vn 0.000000 -0.000000 -1.000000
vn 0.000000 -0.000000 -1.000000
vn -0.000000 1.000000 0.000000
vn -0.000000 1.000000 0.000000
vn -0.000000 1.000000 0.000000
vn -0.000000 1.000000 0.000000
vn -0.000000 1.000000 0.000000
vn 0.000000 -1.000000 0.000000
vn 0.000000 -1.000000 0.000000
vn 0.000000 -1.000000 0.000000
vn 0.000000 -1.000000 0.000000
vn 1.000000 0.000000 0.000000
vn 1.000000 0.000000 0.000000
vn 1.000000 0.000000 0.000000
vn 1.000000 0.000000 0.000000
vn 0.000000 1.000000 0.000000
vn 0.000000 1.000000 0.000000
vn 0.000000 1.000000 0.000000
vn 0.000000 -0.000000 1.000000
vn 0.000000 -0.000000 1.000000
vn 0.000000 -0.000000 1.000000
vn 0.000000 -0.000000 1.000000
vn 0.000000 -1.000000 -0.000000
vn 0.000000 -1.000000 -0.000000
vn 0.000000 -1.000000 -0.000000
vn 0.000000 -1.000000 -0.000000
vn 1.000000 -0.000001 0.000000
vn 1.000000 -0.000001 0.000000
vn 1.000000 -0.000001 0.000000
vn 1.000000 -0.000001 0.000000
vn 1.000000 -0.000001 0.000000
vn 0.969974 0.243210 0.000000
vn 0.969974 0.243210 0.000000
vn 0.969974 0.243210 0.000000
vn 0.000000 0.000001 1.000000
vn 0.000000 0.000001 1.000000
vn 0.000000 0.000001 1.000000
vn 0.000000 0.000001 1.000000
vn 0.000000 0.000001 1.000000
vn -1.000000 -0.000002 0.000000
vn -1.000000 -0.000002 0.000000
vn -1.000000 -0.000002 0.000000
vn -1.000000 -0.000002 0.000000
vn 0.000000 -0.000005 1.000000
vn 0.000000 -0.000005 1.000000
vn 0.000000 -0.000005 1.000000
vn 0.000000 -0.000005 1.000000
vn 1.000000 0.000000 0.000000
vn 1.000000 0.000000 0.000000
vn 1.000000 0.000000 0.000000
vn 1.000000 0.000000 0.000000
vn 0.000000 0.000000 1.000000
vn 0.000000 0.000000 1.000000
vn 0.000000 0.000000 1.000000
vn 0.000000 0.000000 1.000000
vn 1.000000 0.000000 0.000000
vn 1.000000 0.000000 0.000000
vn 1.000000 0.000000 0.000000
vn 1.000000 0.000000 0.000000
vn 0.000000 0.000000 -1.000000
vn 0.000000 0.000000 -1.000000
vn 0.000000 0.000000 -1.000000
vn 0.000000 0.000000 -1.000000
vn -1.000000 -0.000001 0.000000
vn -1.000000 -0.000001 0.000000
vn -1.000000 -0.000001 0.000000
vn -1.000000 -0.000001 0.000000
vn 0.000000 0.000000 1.000000
vn 0.000000 0.000000 1.000000
vn 0.000000 0.000000 1.000000
vn 0.000000 0.000000 1.000000
vn 1.000000 0.000004 0.000000
vn 1.000000 0.000004 0.000000
vn 1.000000 0.000004 0.000000
vn 1.000000 0.000004 0.000000
vn 0.000000 0.000000 1.000000
vn 0.000000 0.000000 1.000000
vn 0.000000 0.000000 1.000000
vn 0.000000 0.000000 1.000000
vn 1.000000 0.000000 0.000000
vn 1.000000 0.000000 0.000000
vn 1.000000 0.000000 0.000000
vn 1.000000 0.000000 0.000000
vn 0.000000 0.000000 -1.000000
vn 0.000000 0.000000 -1.000000
vn 0.000000 0.000000 -1.000000
vn 0.000000 0.000000 -1.000000
vn 0.000000 0.000000 1.000000
vn 0.000000 0.000000 1.000000
vn 0.000000 0.000000 1.000000
vn 0.000000 0.000000 1.000000
vn 0.000000 0.000000 1.000000
vn 0.000000 0.000000 1.000000
vn 0.000000 0.000000 1.000000
vn 0.000000 0.000000 1.000000
vn 0.000000 0.000000 1.000000
vn 0.000000 0.000000 1.000000
vn 0.000000 0.000000 1.000000
vn 0.000000 0.000000 1.000000
vn 0.000000 0.000000 1.000000
vn 0.000000 0.000000 1.000000
vn 0.000000 0.000000 1.000000
vn 0.000000 0.000000 1.000000
vn 1.000000 0.000000 0.000000
vn 1.000000 0.000000 0.000000
vn 1.000000 0.000000 0.000000
vn 1.000000 0.000000 0.000000
vn 1.000000 0.000000 0.000000
vn 1.000000 0.000000 0.000000
vn 1.000000 0.000000 0.000000
vn 1.000000 0.000000 0.000000
vn 1.000000 0.000000 0.000000
vn 1.000000 0.000000 0.000000
vn 1.000000 0.000000 0.000000
vn 1.000000 0.000000 0.000000
vn 1.000000 -0.000002 0.000000
vn 1.000000 -0.000002 0.000000
vn 1.000000 -0.000002 0.000000
vn 1.000000 -0.000002 0.000000
vn 0.000000 -0.970250 0.242105
vn 0.000000 -0.970250 0.242105
vn 0.000000 -0.970250 0.242105
vn 0.000000 -0.970250 0.242105
vn 0.959046 0.000004 0.283250
vn 0.959046 0.000004 0.283250
vn 0.959046 0.000004 0.283250
vn 0.959046 0.000004 0.283250
vn 0.000000 0.970250 0.242105
vn 0.000000 0.970250 0.242105
vn 0.000000 0.970250 0.242105
vn 0.000000 0.970250 0.242105
vn -0.959046 -0.000004 0.283250
vn -0.959046 -0.000004 0.283250
vn -0.959046 -0.000004 0.283250
vn -0.959046 -0.000004 0.283250
vn 0.283251 -0.000002 0.959046
vn 0.283251 -0.000002 0.959046
vn 0.283251 -0.000002 0.959046
vn 0.283251 -0.000002 0.959046
vn 0.242105 -0.970250 0.000000
vn 0.242105 -0.970250 0.000000
vn 0.242105 -0.970250 0.000000
vn 0.242105 -0.970250 0.000000
vn 0.283250 0.000000 -0.959046
vn 0.283250 0.000000 -0.959046
vn 0.283250 0.000000 -0.959046
vn 0.283250 0.000000 -0.959046
vn 0.242108 0.970249 0.000000
vn 0.242108 0.970249 0.000000
vn 0.242108 0.970249 0.000000
vn 0.242108 0.970249 0.000000
vn 0.000000 0.000000 1.000000
vn 0.000000 0.000000 1.000000
vn 0.000000 0.000000 1.000000
vn 0.000000 0.000000 1.000000
vn -0.000002 0.000000 1.000000
vn -0.000002 0.000000 1.000000
vn -0.000002 0.000000 1.000000
vn -0.000002 0.000000 1.000000
vn 0.000000 0.000000 1.000000
vn 0.000000 0.000000 1.000000
vn 0.000000 0.000000 1.000000
vn 0.000000 0.000000 1.000000
vn 0.000002 0.000000 1.000000
vn 0.000002 0.000000 1.000000
vn 0.000002 0.000000 1.000000
vn 0.000002 0.000000 1.000000
vn 1.000000 -0.000001 0.000000
vn 1.000000 -0.000001 0.000000
vn 1.000000 -0.000001 0.000000
vn 1.000000 -0.000001 0.000000
vn 1.000000 0.000003 0.000000
vn 1.000000 0.000003 0.000000
vn 1.000000 0.000003 0.000000
vn 1.000000 0.000003 0.000000
vn 1.000000 -0.000007 0.000000
vn 1.000000 -0.000007 0.000000
vn 1.000000 -0.000007 0.000000
vn 1.000000 -0.000007 0.000000
vn 1.000000 0.000003 0.000000
vn 1.000000 0.000003 0.000000
vn 1.000000 0.000003 0.000000
vn 1.000000 0.000003 0.000000
vn 0.261355 -0.965243 0.000000
vn 0.261355 -0.965243 0.000000
vn 0.261355 -0.965243 0.000000
vn 0.261355 -0.965243 0.000000
vn 0.282363 0.000001 -0.959308
vn 0.282363 0.000001 -0.959308
vn 0.282363 0.000001 -0.959308
vn 0.282363 0.000001 -0.959308
vn 0.261346 0.965245 0.000000
vn 0.261346 0.965245 0.000000
vn 0.261346 0.965245 0.000000
vn 0.261346 0.965245 0.000000
vn 0.282362 0.000001 0.959308
vn 0.282362 0.000001 0.959308
vn 0.282362 0.000001 0.959308
vn 0.282362 0.000001 0.959308
vn 0.000000 -0.965244 0.261351
vn 0.000000 -0.965244 0.261351
vn 0.000000 -0.965244 0.261351
vn 0.000000 -0.965244 0.261351
vn 0.959307 0.000004 0.282364
vn 0.959307 0.000004 0.282364
vn 0.959307 0.000004 0.282364
vn 0.959307 0.000004 0.282364
vn 0.000000 0.965244 0.261351
vn 0.000000 0.965244 0.261351
vn 0.000000 0.965244 0.261351
vn 0.000000 0.965244 0.261351
vn -0.959307 0.000000 0.282364
vn -0.959307 0.000000 0.282364
vn -0.959307 0.000000 0.282364
vn -0.959307 0.000000 0.282364
vn 0.000000 1.000000 -0.000000
vn 0.000000 1.000000 -0.000000
vn 0.000000 1.000000 -0.000000
vn 0.000000 1.000000 -0.000000
vn 0.000000 1.000000 -0.000000
vn -0.459577 0.564549 0.685619
vn -0.459577 0.564549 0.685619
vn -0.459577 0.564549 0.685619
vn 0.722045 0.649365 0.238695
vn 0.722045 0.649365 0.238695
vn 0.722045 0.649365 0.238695
vn 0.000000 1.000000 0.000000
vn 0.000000 1.000000 0.000000
vn 0.000000 1.000000 0.000000
vn 0.000000 1.000000 0.000000
vn -1.000000 -0.000001 0.000000
vn -1.000000 -0.000001 0.000000
vn -1.000000 -0.000001 0.000000
vn -1.000000 -0.000001 0.000000
vn 0.495701 0.732642 0.466387
vn 0.495701 0.732642 0.466387
vn 0.495701 0.732642 0.466387
vn 0.000000 0.212108 0.977246
vn 0.000000 0.212108 0.977246
vn 0.000000 0.212108 0.977246
vn 1.000000 0.000000 0.000000
vn 1.000000 0.000000 0.000000
vn 1.000000 0.000000 0.000000
vn 1.000000 0.000000 0.000000
vn 1.000000 0.000000 0.000000
vn 0.000000 0.274915 0.961469
vn 0.000000 0.274915 0.961469
vn 0.000000 0.274915 0.961469
vn -0.119497 0.472905 -0.872973
vn -0.119497 0.472905 -0.872973
vn -0.119497 0.472905 -0.872973
vn 0.215749 0.673056 -0.707424
vn 0.215749 0.673056 -0.707424
vn 0.215749 0.673056 -0.707424
vn 0.135434 0.594584 0.792545
vn 0.135434 0.594584 0.792545
vn 0.135434 0.594584 0.792545
vn -0.150512 0.598788 0.786638
vn -0.150512 0.598788 0.786638
vn -0.150512 0.598788 0.786638
vn 0.526795 0.838556 -0.138964
vn 0.526795 0.838556 -0.138964
vn 0.526795 0.838556 -0.138964
vn 0.653922 0.741910 0.148173
vn 0.653922 0.741910 0.148173
vn 0.653922 0.741910 0.148173
vn -0.680770 0.706328 0.194044
vn -0.680770 0.706328 0.194044
vn -0.680770 0.706328 0.194044
vn -0.808572 0.575785 -0.121168
vn -0.808572 0.575785 -0.121168
vn -0.808572 0.575786 -0.121168
vn -1.000000 0.000002 0.000000
vn -1.000000 0.000002 0.000000
vn -1.000000 0.000002 0.000000
vn -1.000000 0.000002 0.000000
vn -1.000000 0.000001 0.000000
vn -1.000000 0.000001 0.000000
vn -1.000000 0.000001 0.000000
vn -1.000000 0.000001 0.000000
vn -1.000000 0.000001 0.000000
vn 0.000000 -0.000000 -1.000000
vn 0.000000 -0.000000 -1.000000
vn 0.000000 -0.000000 -1.000000
vn 0.000000 -0.000000 -1.000000
vn 0.000000 -0.000000 -1.000000
vn 0.000000 -0.000000 -1.000000
vn 0.000000 -0.000000 -1.000000
vn 0.000000 -0.000000 -1.000000
vn 0.000000 -0.000000 -1.000000
vn -0.000000 0.274913 0.961469
vn -0.000000 0.274913 0.961469
vn -0.000000 0.274913 0.961469
vn -0.000000 0.274913 0.961469
vn -0.000000 0.274913 0.961469
vn -0.000001 0.274916 0.961468
vn -0.000001 0.274916 0.961468
vn -0.000001 0.274916 0.961468
vn -0.000001 0.274916 0.961468
vn 0.961468 0.274915 -0.000000
vn 0.961468 0.274915 -0.000000
vn 0.961468 0.274915 -0.000000
vn 0.961468 0.274915 -0.000000
vn 0.961469 0.274913 -0.000000
vn 0.961469 0.274913 -0.000000
vn 0.961469 0.274913 -0.000000
vn 0.961469 0.274913 -0.000000
vn 0.000000 1.000000 -0.000000
vn 0.000000 1.000000 -0.000000
vn 0.000000 1.000000 -0.000000
vn 0.000000 1.000000 -0.000000
vn 0.000000 1.000000 0.000000
vn 0.000000 1.000000 0.000000
vn 0.000000 1.000000 0.000000
vn 0.000000 1.000000 0.000000
vn 0.000000 1.000000 0.000000
vn 0.000000 1.000000 0.000000
vn 0.000000 1.000000 0.000000
vn 0.000000 1.000000 0.000000
vn 0.000000 1.000000 0.000000
vn 0.000000 1.000000 0.000001
vn 0.000000 1.000000 0.000001
vn 0.000000 1.000000 0.000001
vn 0.000000 1.000000 0.000001
vn -0.000000 1.000000 -0.000001
vn -0.000000 1.000000 -0.000001
vn -0.000000 1.000000 -0.000001
vn -0.000000 1.000000 -0.000001
vn -0.000000 1.000000 -0.000000
vn -0.000000 1.000000 -0.000000
vn -0.000000 1.000000 -0.000000
vn -0.000000 1.000000 -0.000000
vn -0.000000 1.000000 -0.000000
vn 0.393026 0.913783 -0.102618
vn 0.393026 0.913783 -0.102618
vn 0.393026 0.913783 -0.102618
vn 0.480012 0.871463 0.100704
vn 0.480012 0.871463 0.100704
vn 0.480012 0.871463 0.100704
vn 0.005937 0.877049 0.480364
vn 0.005937 0.877049 0.480364
vn 0.005937 0.877049 0.480364
vn 0.106041 0.926849 0.360148
vn 0.106041 0.926849 0.360148
vn 0.106041 0.926849 0.360148
vn -0.102917 0.952885 0.285340
vn -0.102917 0.952885 0.285340
vn -0.102917 0.952885 0.285340
vn 0.000000 1.000000 0.000000
vn 0.000000 1.000000 0.000000
vn 0.000000 1.000000 0.000000
vn 0.000000 1.000000 0.000000
vn 0.000000 1.000000 -0.000000
vn 0.000000 1.000000 -0.000000
vn 0.000000 1.000000 -0.000000
vn 0.000000 1.000000 -0.000000
vn 0.005442 0.252044 0.967701
vn 0.005442 0.252044 0.967701
vn 0.005442 0.252044 0.967701
vn 0.005442 0.252044 0.967701
vn 0.005442 0.252044 0.967701
vn -0.002446 0.256643 0.966503
vn -0.002446 0.256643 0.966503
vn -0.002446 0.256643 0.966503
vn -0.002446 0.256643 0.966503
vn 0.969974 0.243210 -0.000000
vn 0.969974 0.243210 -0.000000
vn 0.969974 0.243210 -0.000000
vn 0.969974 0.243210 -0.000000
vn 0.969975 0.243205 -0.000000
vn 0.969975 0.243205 -0.000000
vn 0.969975 0.243205 -0.000000
vn 0.969975 0.243205 -0.000000
vn 0.969975 0.243205 -0.000000
vn 0.000000 1.000000 -0.000000
vn 0.000000 1.000000 -0.000000
vn 0.000000 1.000000 -0.000000
vn 0.000000 1.000000 -0.000000
vn 0.000000 1.000000 -0.000000
vn -0.000000 1.000000 -0.000000
vn -0.000000 1.000000 -0.000000
vn -0.000000 1.000000 -0.000000
vn -0.000000 1.000000 -0.000000
s off
f 30/47/1 25/41/2 15/31/3 10/32/4
f 14/29/5 15/30/6 25/42/7 26/43/8
f 22/26/9 23/27/10 28/45/11 29/46/12
f 23/27/13 24/28/14 27/44/15 28/45/16
f 9/9/17 77/125/18 78/126/19
f 12/13/20 90/138/21 13/14/22
f 14/17/23 13/14/24 7/3/25 69/117/26 70/118/27
f 3/7/28 73/121/29 74/122/30
f 10/12/31 15/18/32 82/130/33
f 11/19/34 102/150/35 99/147/36 76/124/37 75/123/38
f 5/16/39 6/15/40 19/22/41 18/21/42
f 29/46/43 30/48/44 10/25/45 22/26/46
f 12/20/47 13/34/48 97/145/49
f 24/28/50 14/29/51 26/43/52 27/44/53
f 1/1/54 5/16/55 18/21/56 21/24/57
f 22/36/58 10/37/59 11/19/60 75/123/61 16/33/62
f 23/38/63 98/146/64 24/39/65
f 13/34/66 14/40/67 24/39/68 72/120/69 20/35/70
f 26/57/71 25/58/72 31/59/73 32/60/74
f 27/61/75 26/57/76 32/60/77 33/62/78
f 28/63/79 27/61/80 33/62/81 34/64/82
f 29/65/83 28/63/84 34/64/85 35/66/86
f 35/66/87 36/67/88 30/68/89 29/65/90
f 36/67/91 31/59/92 25/58/93 30/68/94
f 32/51/95 31/50/96 5/8/97 1/1/98
f 46/101/99 45/102/100 47/103/101 48/104/102
f 62/105/103 61/106/104 63/107/105 64/108/106
f 66/109/107 65/110/108 67/111/109 68/112/110
f 50/113/111 49/114/112 51/115/113 52/116/114
f 5/5/115 31/49/116 36/55/117 6/6/118
f 33/52/119 32/51/120 37/70/121 38/69/122
f 32/51/123 1/1/124 39/71/125 37/70/126
f 1/1/127 21/24/128 40/72/129 39/71/130
f 21/24/131 33/52/132 38/69/133 40/72/134
f 6/15/135 36/56/136 41/74/137 42/73/138
f 36/56/139 35/54/140 43/75/141 41/74/142
f 35/54/143 19/22/144 44/76/145 43/75/146
f 19/22/147 6/15/148 42/73/149 44/76/150
f 38/69/151 37/70/152 45/78/153 46/77/154
f 37/70/155 39/71/156 47/79/157 45/78/158
f 39/71/159 40/72/160 48/80/161 47/79/162
f 40/72/163 38/69/164 46/77/165 48/80/166
f 42/73/167 41/74/168 49/82/169 50/81/170
f 41/74/171 43/75/172 51/83/173 49/82/174
f 43/75/175 44/76/176 52/84/177 51/83/178
f 44/76/179 42/73/180 50/81/181 52/84/182
f 35/54/183 34/53/184 53/86/185 54/85/186
f 34/53/187 18/21/188 55/87/189 53/86/190
f 18/21/191 19/22/192 56/88/193 55/87/194
f 19/22/195 35/54/196 54/85/197 56/88/198
f 34/53/199 33/52/200 57/90/201 58/89/202
f 33/52/203 21/24/204 59/91/205 57/90/206
f 21/24/207 18/21/208 60/92/209 59/91/210
f 18/21/211 34/53/212 58/89/213 60/92/214
f 58/89/215 57/90/216 61/94/217 62/93/218
f 57/90/219 59/91/220 63/95/221 61/94/222
f 59/91/223 60/92/224 64/96/225 63/95/226
f 60/92/227 58/89/228 62/93/229 64/96/230
f 54/85/231 53/86/232 65/98/233 66/97/234
f 53/86/235 55/87/236 67/99/237 65/98/238
f 55/87/239 56/88/240 68/100/241 67/99/242
f 56/88/243 54/85/244 66/97/245 68/100/246
f 2/2/247 69/117/248 7/3/249 94/142/250 91/139/251
f 70/118/252 69/117/253 2/2/254
f 72/120/255 71/119/256 20/35/257
f 3/7/258 85/133/259 81/129/260 79/127/261
f 92/140/262 15/18/263 14/17/264 70/118/265
f 75/123/266 76/124/267 16/33/268
f 22/36/269 103/151/270 23/38/271
f 9/9/272 78/126/273 11/11/274 10/12/275 4/10/276
f 11/11/277 86/134/278 12/13/279
f 82/130/280 81/129/281 80/128/282
f 79/127/283 81/129/284 82/130/285
f 83/131/286 86/134/287 85/133/288
f 85/133/289 86/134/290 84/132/291
f 90/138/292 89/137/293 88/136/294
f 87/135/295 89/137/296 90/138/297
f 92/140/298 94/142/299 93/141/300
f 91/139/301 94/142/302 92/140/303
f 92/140/304 70/118/305 2/2/306 91/139/307
f 74/122/308 73/121/309 15/18/310 92/140/311 93/141/312
f 82/130/313 15/18/314 73/121/315 3/7/316 79/127/317
f 10/12/318 82/130/319 80/128/320 4/10/321
f 78/126/322 77/125/323 84/132/324 86/134/325 11/11/326
f 12/13/327 86/134/328 83/131/329 8/4/330
f 8/4/331 87/135/332 90/138/333 12/13/334
f 13/14/335 90/138/336 88/136/337 7/3/338
f 94/142/339 89/137/340 74/122/341 93/141/342
f 94/142/343 7/3/344 88/136/345 89/137/346
f 74/122/347 89/137/348 87/135/349 8/4/350 3/7/351
f 85/133/352 3/7/353 8/4/354 83/131/355
f 81/129/356 9/9/357 4/10/358 80/128/359
f 81/129/360 85/133/361 84/132/362 77/125/363 9/9/364
f 96/144/365 98/146/366 97/145/367
f 97/145/368 98/146/369 95/143/370
f 103/151/371 102/150/372 101/149/373
f 103/151/374 101/149/375 100/148/376
f 99/147/377 102/150/378 103/151/379
f 101/149/380 12/20/381 17/23/382 100/148/383
f 11/19/384 12/20/385 101/149/386 102/150/387
f 16/33/388 76/124/389 99/147/390 103/151/391 22/36/392
f 23/38/393 103/151/394 100/148/395 17/23/396
f 17/23/397 95/143/398 98/146/399 23/38/400
f 24/39/401 98/146/402 96/144/403 71/119/404 72/120/405
f 97/145/406 13/34/407 20/35/408 71/119/409 96/144/410
f 12/20/411 97/145/412 95/143/413 17/23/414
