# This file uses meters as units for non-parametric coordinates.

v -7.151642 -2.233887 24.559784
v -5.514069 -0.015354 22.261658
v -7.151642 -2.233887 -24.559784
v -5.514069 -0.015354 -22.261658
v 7.151642 -2.233887 -24.559784
v 5.514069 -0.015354 -22.261658
v 7.151642 -2.233887 24.559784
v 5.514069 -0.015354 22.261658
v 7.151642 -4.399624 24.559784
v -7.151642 -4.399624 24.559784
v -7.151642 -4.399624 -24.559784
v 7.151642 -4.399624 -24.559784
v 2.861023 2.380714 14.362946
v 3.542938 -0.015354 14.362946
v -3.542938 -0.015354 14.362946
v -2.860718 2.380714 14.362946
v -0.000153 3.529320 14.362946
v 2.861023 2.380714 -15.115662
v 3.542938 -0.015354 -15.115509
v -3.542938 -0.015354 -15.115509
v -2.860718 2.380714 -15.115509
v -0.000153 3.529320 -15.115509
v 3.742981 2.815952 14.362946
v 4.635468 -0.015354 14.362946
v -4.635162 -0.015354 14.362946
v -3.742981 2.815952 14.362946
v 0.000153 4.399624 14.362946
v 3.742981 2.815952 -15.115662
v 4.635468 -0.015354 -15.115662
v -4.635162 -0.015354 -15.115509
v -3.742981 2.815952 -15.115509
v 0.000153 4.399624 -15.115662
v 3.742981 2.815952 17.985229
v 4.635468 -0.015354 17.985229
v -4.635162 -0.015354 17.985077
v -3.742981 2.815952 17.985077
v 0.000153 4.399624 17.985229
v 3.742981 2.815952 -18.737793
v 4.635468 -0.015354 -18.737793
v -4.635162 -0.015354 -18.737793
v -3.742981 2.815952 -18.737793
v 0.000153 4.399624 -18.737793
v 2.932129 2.415829 20.428925
v 3.631134 -0.015354 20.428925
v 0.000153 -0.015354 20.428925
v -3.630829 -0.015354 20.428925
v -2.931824 2.415829 20.428925
v 0.000000 3.599472 20.428925
v 2.932129 2.415829 -21.181641
v 3.631134 -0.015354 -21.181641
v 0.000153 -0.015354 -21.181641
v -3.630829 -0.015354 -21.181641
v -2.931824 2.415829 -21.181641
v 0.000000 3.599472 -21.181641
vt 0.235411 0.330367
vt 0.235411 0.330367
vt 0.235411 0.330367
vt 0.235411 0.330367
vt 0.235411 0.330367
vt 0.235411 0.330367
vt 0.235411 0.330367
vt 0.235411 0.330367
vt 0.235411 0.330367
vt 0.235411 0.330367
vt 0.235411 0.330367
vt 0.235411 0.330367
vt 0.235411 0.330367
vt 0.235411 0.330367
vt 0.235411 0.330367
vt 0.235411 0.330367
vt 0.235411 0.330367
vt 0.235411 0.330367
vt 0.234390 0.280899
vt 0.234390 0.280899
vt 0.234390 0.280899
vt 0.234390 0.280899
vt 0.234390 0.280899
vt 0.234390 0.280899
vt 0.234390 0.280899
vt 0.234390 0.280899
vt 0.234390 0.280899
vt 0.234390 0.280899
vt 0.234390 0.280899
vt 0.234390 0.280899
vt 0.234390 0.280899
vt 0.234390 0.280899
vt 0.234390 0.280899
vt 0.234390 0.280899
vt 0.234390 0.280899
vt 0.234390 0.280899
vt 0.234390 0.280899
vt 0.234390 0.280899
vt 0.234390 0.280899
vt 0.234390 0.280899
vt 0.234390 0.280899
vt 0.234390 0.280899
vt 0.234390 0.280899
vt 0.234390 0.280899
vt 0.234390 0.280899
vt 0.234390 0.280899
vt 0.234390 0.280899
vt 0.234390 0.280899
vt 0.234390 0.280899
vt 0.234390 0.280899
vt 0.234390 0.280899
vt 0.234390 0.280899
vt 0.234390 0.280899
vt 0.234390 0.280899
vt 0.234390 0.280899
vt 0.234390 0.280899
vt 0.234390 0.280899
vt 0.234390 0.280899
vt 0.234390 0.280899
vt 0.234390 0.280899
vt 0.454025 0.027994
vt 0.454025 0.027994
vt 0.454025 0.027994
vt 0.454025 0.027994
vt 0.454025 0.027994
vt 0.454025 0.027994
vt 0.454025 0.027994
vt 0.454025 0.027994
vt 0.454025 0.027994
vt 0.454025 0.027994
vn -0.804559 0.593872 0.000000
vn -0.804559 0.593872 0.000000
vn -0.804559 0.593872 0.000000
vn -0.804559 0.593872 0.000000
vn 0.000000 0.719456 -0.694538
vn 0.000000 0.719456 -0.694538
vn 0.000000 0.719456 -0.694538
vn 0.000000 0.719456 -0.694538
vn 0.804559 0.593872 0.000000
vn 0.804559 0.593872 0.000000
vn 0.804559 0.593872 0.000000
vn 0.804559 0.593872 0.000000
vn 0.000000 0.719456 0.694538
vn 0.000000 0.719456 0.694538
vn 0.000000 0.719456 0.694538
vn 0.000000 0.719456 0.694538
vn 0.000000 1.000000 0.000000
vn 0.000000 1.000000 0.000000
vn 0.000000 1.000000 0.000000
vn 0.000000 1.000000 0.000000
vn 0.000000 -1.000000 0.000000
vn 0.000000 -1.000000 0.000000
vn 0.000000 -1.000000 0.000000
vn 0.000000 -1.000000 0.000000
vn 0.000000 0.000000 1.000000
vn 0.000000 0.000000 1.000000
vn 0.000000 0.000000 1.000000
vn 0.000000 0.000000 1.000000
vn -1.000000 0.000000 0.000000
vn -1.000000 0.000000 0.000000
vn -1.000000 0.000000 0.000000
vn -1.000000 0.000000 0.000000
vn 0.000000 0.000000 -1.000000
vn 0.000000 0.000000 -1.000000
vn 0.000000 0.000000 -1.000000
vn 0.000000 0.000000 -1.000000
vn 1.000000 0.000000 0.000000
vn 1.000000 0.000000 0.000000
vn 1.000000 0.000000 0.000000
vn 1.000000 0.000000 0.000000
vn 0.961807 0.273728 0.000000
vn 0.961807 0.273728 0.000000
vn 0.961807 0.273728 0.000000
vn 0.961807 0.273728 0.000000
vn -0.961775 0.273841 0.000000
vn -0.961775 0.273841 0.000000
vn -0.961775 0.273841 0.000000
vn -0.961775 0.273841 0.000000
vn -0.372615 0.927986 0.000000
vn -0.372615 0.927986 0.000000
vn -0.372615 0.927986 0.000000
vn -0.372615 0.927986 0.000000
vn 0.372547 0.928014 0.000000
vn 0.372547 0.928014 0.000000
vn 0.372547 0.928014 0.000000
vn 0.372547 0.928013 0.000000
vn 0.000000 0.000000 1.000000
vn 0.000000 0.000000 1.000000
vn 0.000000 0.000000 1.000000
vn 0.000000 0.000000 1.000000
vn 0.000000 0.000000 1.000000
vn 0.000000 0.000000 1.000000
vn 0.000000 0.000000 1.000000
vn 0.000000 0.000000 1.000000
vn 0.000000 0.000000 1.000000
vn 0.000000 0.000000 1.000000
vn 0.000000 0.000000 1.000000
vn 0.000000 0.000000 1.000000
vn 0.000000 0.000000 -1.000000
vn 0.000000 0.000000 -1.000000
vn 0.000000 0.000000 -1.000000
vn 0.000000 0.000000 -1.000000
vn 0.000000 0.000000 -1.000000
vn 0.000000 0.000000 -1.000000
vn 0.000000 0.000000 -1.000000
vn 0.000000 0.000000 -1.000000
vn 0.000000 0.000000 -1.000000
vn 0.000000 0.000000 -1.000000
vn 0.000000 0.000000 -1.000000
vn 0.000000 0.000000 -1.000000
vn 0.000000 0.000000 -1.000000
vn 0.000000 0.000000 -1.000000
vn 0.000000 0.000000 -1.000000
vn 0.000000 0.000000 -1.000000
vn 0.000000 0.000000 -1.000000
vn 0.000000 0.000000 -1.000000
vn 0.000000 0.000000 -1.000000
vn 0.000000 0.000000 -1.000000
vn 0.000000 0.000000 -1.000000
vn 0.000000 0.000000 -1.000000
vn 0.000000 0.000000 -1.000000
vn 0.000000 0.000000 -1.000000
vn 0.000000 0.000000 -1.000000
vn 0.000000 0.000000 -1.000000
vn 0.000000 0.000000 -1.000000
vn 0.000000 0.000000 -1.000000
vn 0.000061 0.000066 1.000000
vn 0.000066 0.000049 1.000000
vn 0.000066 0.000049 1.000000
vn 0.000062 0.000061 1.000000
vn 0.000000 0.000000 1.000000
vn -0.000011 0.000059 1.000000
vn -0.000007 0.000039 1.000000
vn 0.000000 0.000000 1.000000
vn -0.000011 0.000059 1.000000
vn 0.000018 0.000091 1.000000
vn 0.000019 0.000091 1.000000
vn -0.000007 0.000039 1.000000
vn 0.000018 0.000091 1.000000
vn 0.000061 0.000066 1.000000
vn 0.000062 0.000061 1.000000
vn 0.000019 0.000091 1.000000
vn 0.953738 0.300638 0.000000
vn 0.953738 0.300638 0.000000
vn 0.945468 0.293466 0.141309
vn 0.945914 0.293721 0.137747
vn -0.953768 0.300545 0.000000
vn -0.953768 0.300545 0.000000
vn -0.945935 0.293643 0.137773
vn -0.945488 0.293388 0.141334
vn -0.389648 0.920964 0.000000
vn -0.389648 0.920964 0.000000
vn -0.385530 0.917486 0.097908
vn -0.385219 0.917070 0.102899
vn 0.389675 0.920952 0.000000
vn 0.389675 0.920952 0.000000
vn 0.385234 0.917063 0.102905
vn 0.385545 0.917479 0.097919
vn 0.953738 0.300638 0.000000
vn 0.953738 0.300638 0.000000
vn 0.945914 0.293721 -0.137748
vn 0.945468 0.293465 -0.141310
vn -0.953768 0.300545 0.000000
vn -0.953768 0.300545 0.000000
vn -0.945489 0.293388 -0.141330
vn -0.945935 0.293643 -0.137770
vn -0.389648 0.920964 0.000000
vn -0.389648 0.920964 0.000000
vn -0.385217 0.917072 -0.102895
vn -0.385528 0.917487 -0.097910
vn 0.389675 0.920952 0.000000
vn 0.389675 0.920952 0.000000
vn 0.385545 0.917479 -0.097921
vn 0.385234 0.917063 -0.102906
vn 0.945914 0.293721 0.137747
vn 0.945468 0.293466 0.141309
vn 0.894999 0.270667 0.354564
vn 0.894999 0.270667 0.354564
vn -0.945488 0.293388 0.141334
vn -0.945935 0.293643 0.137773
vn -0.895003 0.270616 0.354594
vn -0.895003 0.270616 0.354594
vn -0.385219 0.917070 0.102899
vn -0.385530 0.917486 0.097908
vn -0.367785 0.887107 0.278882
vn -0.367785 0.887107 0.278882
vn 0.385545 0.917479 0.097919
vn 0.385234 0.917063 0.102905
vn 0.367779 0.887107 0.278890
vn 0.367779 0.887107 0.278890
vn 0.945468 0.293465 -0.141310
vn 0.945914 0.293721 -0.137748
vn 0.895006 0.270669 -0.354544
vn 0.895006 0.270669 -0.354544
vn -0.945935 0.293643 -0.137770
vn -0.945489 0.293388 -0.141330
vn -0.895003 0.270616 -0.354594
vn -0.895003 0.270616 -0.354594
vn -0.385528 0.917487 -0.097910
vn -0.385217 0.917072 -0.102895
vn -0.367780 0.887112 -0.278874
vn -0.367780 0.887112 -0.278874
vn 0.385234 0.917063 -0.102906
vn 0.385545 0.917479 -0.097921
vn 0.367780 0.887112 -0.278874
vn 0.367780 0.887112 -0.278874
s off
f 1/1/1 2/2/2 4/4/3 3/3/4
f 3/3/5 4/4/6 6/6/7 5/5/8
f 5/5/9 6/6/10 8/8/11 7/7/12
f 7/7/13 8/8/14 2/10/15 1/9/16
f 2/2/17 8/11/18 6/12/19 4/4/20
f 9/15/21 10/16/22 11/17/23 12/18/24
f 7/13/25 1/1/26 10/16/27 9/15/28
f 1/1/29 3/3/30 11/17/31 10/16/32
f 3/3/33 5/14/34 12/18/35 11/17/36
f 5/14/37 7/13/38 9/15/39 12/18/40
f 13/61/41 14/62/42 19/63/43 18/64/44
f 15/65/45 16/66/46 21/67/47 20/68/48
f 16/66/49 17/69/50 22/70/51 21/67/52
f 17/69/53 13/61/54 18/64/55 22/70/56
f 44/29/57 43/30/58 45/31/59
f 47/32/60 46/33/61 45/31/62
f 48/34/63 47/32/64 45/31/65
f 43/30/66 48/34/67 45/31/68
f 49/35/69 50/36/70 51/37/71
f 52/38/72 53/39/73 51/37/74
f 53/39/75 54/40/76 51/37/77
f 54/40/78 49/35/79 51/37/80
f 14/20/81 13/19/82 23/41/83 24/42/84
f 16/24/85 15/23/86 25/43/87 26/44/88
f 17/27/89 16/24/90 26/44/91 27/45/92
f 13/19/93 17/27/94 27/45/95 23/41/96
f 18/22/97 19/21/98 29/46/99 28/47/100
f 20/26/101 21/25/102 31/48/103 30/49/104
f 21/25/105 22/28/106 32/50/107 31/48/108
f 22/28/109 18/22/110 28/47/111 32/50/112
f 24/42/113 23/41/114 33/51/115 34/52/116
f 26/44/117 25/43/118 35/53/119 36/54/120
f 27/45/121 26/44/122 36/54/123 37/55/124
f 23/41/125 27/45/126 37/55/127 33/51/128
f 28/47/129 29/46/130 39/56/131 38/57/132
f 30/49/133 31/48/134 41/58/135 40/59/136
f 31/48/137 32/50/138 42/60/139 41/58/140
f 32/50/141 28/47/142 38/57/143 42/60/144
f 34/52/145 33/51/146 43/30/147 44/29/148
f 36/54/149 35/53/150 46/33/151 47/32/152
f 37/55/153 36/54/154 47/32/155 48/34/156
f 33/51/157 37/55/158 48/34/159 43/30/160
f 38/57/161 39/56/162 50/36/163 49/35/164
f 40/59/165 41/58/166 53/39/167 52/38/168
f 41/58/169 42/60/170 54/40/171 53/39/172
f 42/60/173 38/57/174 49/35/175 54/40/176
