# This file uses meters as units for non-parametric coordinates.

v -97.808868 79.504898 84.023010
v 97.808868 79.504868 84.022827
v -97.808868 87.350273 84.023010
v 97.808868 87.350220 84.022827
v -97.808868 87.350273 -84.022522
v 97.808868 87.350220 -84.022705
v -97.808868 79.504898 -84.022522
v 97.808868 79.504868 -84.022705
v -81.996796 87.350273 -97.808838
v -81.996796 87.350273 97.809082
v -81.996796 79.504898 97.809082
v -81.996796 79.504898 -97.808838
v 81.996643 79.504868 97.808838
v 81.996643 87.350220 97.808838
v 79.613495 87.350235 -94.966370
v 81.996643 79.504868 -97.809082
v 75.176514 87.350273 89.673523
v 75.176514 87.350273 -89.673767
v -75.176880 87.350273 -89.673523
v -75.176880 87.350273 89.673767
v -89.673737 87.350273 77.034363
v -89.673737 87.350273 -77.033936
v 89.673523 87.350220 77.033997
v 89.673523 87.350220 -77.034119
v 71.150848 84.238449 84.871582
v 71.150848 84.238449 -84.871704
v -71.150970 84.238449 -84.871460
v -71.150970 84.238449 84.871826
v -84.871582 84.238449 72.909241
v -84.871582 84.238449 -72.908752
v 84.871460 84.238403 72.908813
v 84.871460 84.238403 -72.908936
v 73.767517 81.583107 97.808838
v 73.767517 85.272072 97.808838
v -73.767700 85.272072 97.809082
v -73.767700 81.583107 97.809082
v 73.767517 85.272072 -97.809082
v 73.767517 81.583107 -97.809082
v -73.767700 81.583107 -97.808838
v -73.767700 85.272072 -97.808838
v 97.808868 81.583069 -75.590149
v 97.808868 81.583069 75.590149
v 97.808868 85.272049 -75.590149
v 97.808868 85.272049 75.590149
v -97.808868 81.583107 -75.590027
v -97.808868 81.583107 75.590576
v -97.808868 85.272072 75.590576
v -97.808868 85.272072 -75.590027
v 6.469452 79.504883 -6.463074
v 6.469452 79.504883 6.463257
v -6.469757 79.504898 6.463257
v -6.469757 79.504898 -6.463074
v 6.469452 14.004467 -6.463013
v 6.469452 14.004467 6.463318
v -6.469757 14.004476 6.463318
v -6.469757 14.004476 -6.463013
v 15.726166 9.204172 -15.710388
v 15.726166 9.204172 15.710632
v -15.726440 9.204181 15.710693
v -15.726440 9.204181 -15.710388
v 15.726166 -0.455935 -15.710388
v 15.726166 -0.455935 15.710632
v -15.726440 -0.455935 15.710693
v -15.726440 -0.455935 -15.710388
v -89.673737 87.350273 -51.925720
v -89.673737 87.350273 -66.483276
v -92.679016 87.350273 -59.790100
v -87.647949 86.037544 -61.688477
v -97.808868 87.350273 56.779602
v -97.808868 87.350273 33.978516
v -97.808868 85.272072 44.948669
v -94.382935 87.350273 46.482605
v 15.665131 87.350273 89.673584
v 40.535248 87.350273 89.673584
v 21.245880 84.238449 84.871643
v 27.334320 87.350273 92.493958
v 87.432449 87.350220 -93.069641
v 81.996643 84.483795 -97.809082
v 77.122406 87.350227 -97.809082
v -46.794647 87.350273 -89.673523
v -22.579193 87.350273 -89.673584
v -37.155090 87.350266 -92.059875
v -34.964722 85.593628 -86.962830
vt 0.244785 0.379211
vt 0.244785 0.379211
vt 0.244785 0.379211
vt 0.244785 0.379211
vt 0.244785 0.379211
vt 0.244785 0.379211
vt 0.244785 0.379211
vt 0.244785 0.379211
vt 0.244785 0.379211
vt 0.244785 0.379211
vt 0.244785 0.379211
vt 0.244785 0.379211
vt 0.244785 0.379211
vt 0.244785 0.379211
vt 0.244785 0.379211
vt 0.244785 0.379211
vt 0.244785 0.379211
vt 0.244785 0.379211
vt 0.244785 0.379211
vt 0.244785 0.379211
vt 0.244785 0.379211
vt 0.244785 0.379211
vt 0.244785 0.379211
vt 0.244785 0.379211
vt 0.244785 0.379211
vt 0.244785 0.379211
vt 0.244785 0.379211
vt 0.244785 0.379211
vt 0.244785 0.379211
vt 0.244785 0.379211
vt 0.244785 0.379211
vt 0.244785 0.379211
vt 0.244785 0.379211
vt 0.244785 0.379211
vt 0.244785 0.379211
vt 0.244785 0.379211
vt 0.244785 0.379211
vt 0.244785 0.379211
vt 0.244785 0.379211
vt 0.244785 0.379211
vt 0.244785 0.379211
vt 0.244785 0.379211
vt 0.244785 0.379211
vt 0.244785 0.379211
vt 0.244785 0.379211
vt 0.244785 0.379211
vt 0.244785 0.379211
vt 0.244785 0.379211
vt 0.244785 0.379211
vt 0.244785 0.379211
vt 0.244785 0.379211
vt 0.244785 0.379211
vt 0.244785 0.379211
vt 0.244785 0.379211
vt 0.244785 0.379211
vt 0.244785 0.379211
vt 0.244827 0.350861
vt 0.244827 0.350861
vt 0.244843 0.350861
vt 0.244843 0.350861
vt 0.244843 0.350861
vt 0.244843 0.350861
vt 0.244827 0.350861
vt 0.244827 0.350861
vt 0.457703 0.027222
vt 0.457703 0.027222
vt 0.457703 0.027222
vt 0.457703 0.027222
vt 0.457703 0.027222
vt 0.457703 0.027222
vt 0.457703 0.027222
vt 0.457703 0.027222
vt 0.457703 0.027222
vt 0.457703 0.027222
vt 0.457703 0.027222
vt 0.457703 0.027222
vt 0.457703 0.027222
vt 0.457703 0.027222
vt 0.457703 0.027222
vt 0.457703 0.027222
vt 0.244785 0.379211
vt 0.244785 0.379211
vt 0.244785 0.379211
vt 0.244785 0.379211
vt 0.244415 0.303848
vt 0.244415 0.303848
vt 0.244415 0.303848
vt 0.244415 0.303848
vt 0.244415 0.303848
vt 0.244415 0.303848
vt 0.244415 0.303849
vt 0.244415 0.303849
vt 0.244415 0.303848
vt 0.244415 0.303849
vt 0.244415 0.303848
vt 0.244415 0.303849
vt 0.244415 0.303849
vt 0.244415 0.303849
vt 0.244415 0.303849
vt 0.244415 0.303849
vt 0.244785 0.379211
vt 0.244785 0.379211
vt 0.244785 0.379211
vt 0.244785 0.379211
vt 0.244785 0.379211
vt 0.244785 0.379211
vt 0.244785 0.379211
vt 0.244785 0.379211
vt 0.457703 0.027222
vt 0.244785 0.379211
vt 0.244785 0.379211
vt 0.244785 0.379211
vt 0.244785 0.379211
vt 0.244785 0.379211
vt 0.244833 0.350861
vt 0.244785 0.379211
vt 0.244785 0.379211
vt 0.244785 0.379211
vt 0.244785 0.379211
vt 0.244785 0.379211
vt 0.244785 0.379211
vt 0.244785 0.379211
vt 0.244785 0.379211
vt 0.244785 0.379211
vn 0.000001 0.000000 1.000000
vn 0.000001 0.000000 1.000000
vn 0.000001 0.000000 1.000000
vn 0.000001 0.000000 1.000000
vn 0.000000 1.000000 0.000000
vn 0.000000 1.000000 0.000000
vn 0.000000 1.000000 0.000000
vn -0.000002 0.000000 -1.000000
vn -0.000002 0.000000 -1.000000
vn -0.000002 0.000000 -1.000000
vn -0.000002 0.000000 -1.000000
vn 0.000000 -1.000000 0.000000
vn 0.000000 -1.000000 0.000000
vn 0.000000 -1.000000 0.000000
vn 0.000000 -1.000000 0.000000
vn 1.000000 0.000000 0.000000
vn 1.000000 0.000000 0.000000
vn 1.000000 0.000000 0.000000
vn 1.000000 0.000000 0.000000
vn -1.000000 0.000000 0.000000
vn -1.000000 0.000000 0.000000
vn -1.000000 0.000000 0.000000
vn -1.000000 0.000000 0.000000
vn -1.000000 0.000000 0.000000
vn 0.000000 1.000000 0.000000
vn 0.000000 1.000000 0.000000
vn 0.000000 1.000000 0.000000
vn 0.000000 1.000000 0.000000
vn -0.657167 0.000000 0.753745
vn -0.657167 0.000000 0.753745
vn -0.657167 0.000000 0.753745
vn -0.657167 0.000000 0.753745
vn 0.000000 -1.000000 0.000000
vn 0.000000 -1.000000 0.000000
vn 0.000000 -1.000000 0.000000
vn 0.000000 -1.000000 0.000000
vn -0.657175 0.000000 -0.753738
vn -0.657175 0.000000 -0.753738
vn -0.657175 0.000000 -0.753738
vn -0.657175 0.000000 -0.753738
vn 0.657163 0.000000 0.753749
vn 0.657163 0.000000 0.753749
vn 0.657163 0.000000 0.753749
vn 0.657163 0.000000 0.753749
vn 0.000003 1.000000 0.000000
vn 0.000003 1.000000 0.000000
vn 0.000003 1.000000 0.000000
vn 0.000003 1.000000 0.000000
vn 0.153940 0.757350 -0.634605
vn 0.153940 0.757350 -0.634605
vn 0.153940 0.757350 -0.634605
vn 0.000000 -1.000000 0.000000
vn 0.000000 -1.000000 0.000000
vn 0.000000 -1.000000 0.000000
vn 0.000000 -1.000000 0.000000
vn 0.000000 1.000000 0.000000
vn 0.000000 1.000000 0.000000
vn 0.000000 1.000000 0.000000
vn 0.000000 1.000000 0.000000
vn 0.000000 1.000000 0.000000
vn 0.000000 1.000000 0.000000
vn 0.000000 1.000000 0.000000
vn 0.000000 1.000000 0.000000
vn 0.000000 1.000000 0.000000
vn 0.000000 1.000000 0.000000
vn 0.000000 1.000000 0.000000
vn 0.000000 1.000000 0.000000
vn 0.000000 1.000000 0.000000
vn 0.000000 1.000000 0.000000
vn 0.000000 1.000000 0.000000
vn 0.000000 1.000000 0.000000
vn 0.000003 1.000000 0.000001
vn 0.000003 1.000000 0.000001
vn 0.000003 1.000000 0.000001
vn 0.000003 1.000000 0.000001
vn 0.000000 1.000000 0.000000
vn 0.000000 1.000000 0.000000
vn 0.000000 1.000000 0.000000
vn 0.000000 1.000000 0.000000
vn 0.000001 0.839199 0.543824
vn 0.000001 0.839199 0.543824
vn 0.000001 0.839199 0.543824
vn 0.000001 0.839199 0.543824
vn -0.070181 0.941901 -0.328478
vn -0.070181 0.941901 -0.328478
vn -0.070181 0.941901 -0.328478
vn 0.292334 0.895610 -0.335296
vn 0.292334 0.895610 -0.335296
vn 0.292334 0.895610 -0.335296
vn 0.292334 0.895610 -0.335296
vn 0.292334 0.895612 0.335291
vn 0.292334 0.895612 0.335291
vn 0.292334 0.895612 0.335291
vn 0.292334 0.895612 0.335291
vn 0.543818 0.839203 0.000000
vn 0.543818 0.839203 0.000000
vn 0.543818 0.839203 0.000000
vn -0.292339 0.895607 -0.335300
vn -0.292339 0.895607 -0.335300
vn -0.292339 0.895607 -0.335300
vn -0.292339 0.895607 -0.335300
vn -0.543816 0.839204 0.000000
vn -0.543816 0.839204 0.000000
vn -0.543816 0.839204 0.000000
vn -0.543816 0.839204 0.000000
vn -0.292335 0.895609 0.335297
vn -0.292335 0.895609 0.335297
vn -0.292335 0.895609 0.335297
vn -0.292335 0.895609 0.335297
vn 0.000007 0.000000 1.000000
vn 0.000007 0.000000 1.000000
vn 0.000007 0.000000 1.000000
vn 0.000007 0.000000 1.000000
vn 0.000001 -0.000000 1.000000
vn 0.000001 -0.000000 1.000000
vn 0.000001 -0.000000 1.000000
vn 0.000001 -0.000000 1.000000
vn -0.000003 0.000000 1.000000
vn -0.000003 0.000000 1.000000
vn -0.000003 0.000000 1.000000
vn -0.000003 0.000000 1.000000
vn 0.000002 0.000000 1.000000
vn 0.000002 0.000000 1.000000
vn 0.000002 0.000000 1.000000
vn 0.000002 0.000000 1.000000
vn 0.463265 0.787772 -0.405957
vn 0.463265 0.787772 -0.405957
vn 0.463265 0.787772 -0.405957
vn -0.000001 -0.000000 -1.000000
vn -0.000001 -0.000000 -1.000000
vn -0.000001 -0.000000 -1.000000
vn -0.000001 -0.000000 -1.000000
vn -0.000003 0.000000 -1.000000
vn -0.000003 0.000000 -1.000000
vn -0.000003 0.000000 -1.000000
vn -0.000003 0.000000 -1.000000
vn 1.000000 -0.000006 0.000000
vn 1.000000 -0.000006 0.000000
vn 1.000000 -0.000006 0.000000
vn 1.000000 -0.000006 0.000000
vn 1.000000 0.000000 0.000000
vn 1.000000 0.000000 0.000000
vn 1.000000 0.000000 0.000000
vn 1.000000 0.000000 0.000000
vn 1.000000 0.000006 0.000000
vn 1.000000 0.000006 0.000000
vn 1.000000 0.000006 0.000000
vn 1.000000 0.000006 0.000000
vn 1.000000 0.000000 0.000000
vn 1.000000 0.000000 0.000000
vn 1.000000 0.000000 0.000000
vn 1.000000 0.000000 0.000000
vn -1.000000 -0.000003 0.000000
vn -1.000000 -0.000003 0.000000
vn -1.000000 -0.000003 0.000000
vn -1.000000 -0.000003 0.000000
vn -1.000000 0.000000 0.000000
vn -1.000000 0.000000 0.000000
vn -1.000000 0.000000 0.000000
vn -1.000000 0.000000 0.000000
vn -1.000000 0.000000 0.000000
vn -1.000000 0.000000 0.000000
vn -1.000000 0.000000 0.000000
vn -1.000000 0.000000 0.000000
vn -1.000000 0.000000 0.000000
vn -1.000000 0.000000 0.000000
vn -1.000000 0.000000 0.000000
vn -1.000000 0.000000 0.000000
vn -0.000000 -1.000000 0.000000
vn -0.000000 -1.000000 0.000000
vn -0.000000 -1.000000 0.000000
vn -0.000000 -1.000000 0.000000
vn -0.000000 -1.000000 -0.000000
vn -0.000000 -1.000000 -0.000000
vn -0.000000 -1.000000 -0.000000
vn -0.000000 -1.000000 -0.000000
vn 0.000000 -1.000000 0.000000
vn 0.000000 -1.000000 0.000000
vn 0.000000 -1.000000 0.000000
vn 0.000000 -1.000000 0.000000
vn -0.000000 -1.000000 0.000000
vn -0.000000 -1.000000 0.000000
vn -0.000000 -1.000000 0.000000
vn -0.000000 -1.000000 0.000000
vn 1.000000 -0.000000 0.000000
vn 1.000000 -0.000000 0.000000
vn 1.000000 -0.000000 0.000000
vn 1.000000 -0.000000 0.000000
vn 0.000000 0.000001 1.000000
vn 0.000000 0.000001 1.000000
vn 0.000000 0.000001 1.000000
vn 0.000000 0.000001 1.000000
vn -1.000000 -0.000000 0.000000
vn -1.000000 -0.000000 0.000000
vn -1.000000 -0.000000 0.000000
vn -1.000000 -0.000000 0.000000
vn 0.000000 -0.000001 -1.000000
vn 0.000000 -0.000001 -1.000000
vn 0.000000 -0.000001 -1.000000
vn 0.000000 -0.000001 -1.000000
vn 0.460357 0.887734 0.000000
vn 0.460357 0.887734 0.000000
vn 0.460357 0.887734 0.000000
vn 0.460357 0.887734 0.000000
vn 0.000001 0.887543 0.460725
vn 0.000001 0.887543 0.460725
vn 0.000001 0.887543 0.460725
vn 0.000001 0.887543 0.460725
vn -0.460358 0.887733 0.000000
vn -0.460358 0.887733 0.000000
vn -0.460358 0.887733 0.000000
vn -0.460358 0.887733 0.000000
vn 0.000000 0.887544 -0.460723
vn 0.000000 0.887544 -0.460723
vn 0.000000 0.887544 -0.460723
vn 0.000000 0.887544 -0.460723
vn 1.000000 0.000000 0.000000
vn 1.000000 0.000000 0.000000
vn 1.000000 0.000000 0.000000
vn 1.000000 0.000000 0.000000
vn 0.000004 0.000000 1.000000
vn 0.000004 0.000000 1.000000
vn 0.000004 0.000000 1.000000
vn 0.000004 0.000000 1.000000
vn -1.000000 0.000000 0.000000
vn -1.000000 0.000000 0.000000
vn -1.000000 0.000000 0.000000
vn -1.000000 0.000000 0.000000
vn 0.000000 0.000000 -1.000000
vn 0.000000 0.000000 -1.000000
vn 0.000000 0.000000 -1.000000
vn 0.000000 0.000000 -1.000000
vn 0.221532 0.971471 -0.084658
vn 0.221532 0.971471 -0.084658
vn 0.221532 0.971471 -0.084658
vn 0.297031 0.945508 0.133367
vn 0.297031 0.945508 0.133367
vn 0.297031 0.945508 0.133367
vn -1.000000 0.000000 0.000000
vn -1.000000 0.000000 0.000000
vn -1.000000 0.000000 0.000000
vn -1.000000 0.000000 0.000000
vn -0.561938 0.812724 0.153962
vn -0.561938 0.812724 0.153962
vn -0.561938 0.812724 0.153962
vn -0.461346 0.873841 -0.153497
vn -0.461346 0.873841 -0.153497
vn -0.461346 0.873841 -0.153497
vn 0.000000 0.839198 -0.543825
vn 0.000000 0.839198 -0.543825
vn 0.000000 0.839198 -0.543825
vn 0.000000 0.839198 -0.543825
vn -0.000001 0.839198 -0.543827
vn -0.000001 0.839198 -0.543827
vn -0.000001 0.839198 -0.543827
vn -0.000001 0.839198 -0.543827
vn 0.108467 0.887040 -0.448772
vn 0.108467 0.887040 -0.448772
vn 0.108467 0.887040 -0.448772
vn 0.000003 1.000000 -0.000000
vn 0.000003 1.000000 -0.000000
vn 0.000003 1.000000 -0.000000
vn 0.000003 1.000000 -0.000000
vn 0.000003 1.000000 -0.000000
vn 0.657173 0.000002 -0.753740
vn 0.657173 0.000002 -0.753740
vn 0.657173 0.000002 -0.753740
vn 0.657173 0.000002 -0.753740
vn 0.657173 0.000002 -0.753740
vn -0.000004 0.000000 -1.000000
vn -0.000004 0.000000 -1.000000
vn -0.000004 0.000000 -1.000000
vn -0.000004 0.000000 -1.000000
vn -0.000004 0.000000 -1.000000
vn -0.000002 -0.000002 -1.000000
vn -0.000002 -0.000002 -1.000000
vn -0.000002 -0.000002 -1.000000
vn -0.000002 -0.000002 -1.000000
vn 0.000000 1.000000 -0.000008
vn 0.000000 1.000000 -0.000008
vn 0.000000 1.000000 -0.000008
vn 0.000000 1.000000 -0.000008
vn 0.543813 0.839207 0.000001
vn 0.543813 0.839207 0.000001
vn 0.543813 0.839207 0.000001
vn 0.543813 0.839207 0.000001
vn 0.543810 0.839209 -0.000000
vn 0.543810 0.839209 -0.000000
vn 0.543810 0.839209 -0.000000
vn 0.543810 0.839209 -0.000000
vn 0.000000 1.000000 0.000000
vn 0.000000 1.000000 0.000000
vn 0.000000 1.000000 0.000000
vn 0.000000 1.000000 0.000000
vn 0.000000 1.000000 0.000000
vn 0.000000 1.000000 0.000000
vn 0.000000 1.000000 0.000000
vn 0.000000 1.000000 0.000000
vn 0.000000 1.000000 0.000000
vn 0.000000 1.000000 0.000000
vn 0.000000 1.000000 0.000000
vn 0.000000 1.000000 0.000000
vn 0.000000 1.000000 0.000005
vn 0.000000 1.000000 0.000005
vn 0.000000 1.000000 0.000005
vn 0.000000 1.000000 0.000005
vn 0.000000 1.000000 0.000007
vn 0.000000 1.000000 0.000007
vn 0.000000 1.000000 0.000007
vn 0.000000 1.000000 0.000000
vn 0.000000 1.000000 0.000000
vn 0.000000 1.000000 0.000000
vn 0.000000 1.000000 0.000000
vn 0.000000 1.000000 0.000000
vn 0.000000 1.000000 0.000000
vn -0.056816 0.936128 0.347040
vn -0.056816 0.936128 0.347040
vn -0.056816 0.936128 0.347040
vn 0.000001 0.839200 0.543823
vn 0.000001 0.839200 0.543823
vn 0.000001 0.839200 0.543823
vn 0.000001 0.839200 0.543823
vn 0.000000 0.839207 0.543813
vn 0.000000 0.839207 0.543813
vn 0.000000 0.839207 0.543813
vn 0.000000 1.000000 -0.000001
vn 0.000000 1.000000 -0.000001
vn 0.000000 1.000000 -0.000001
vn 0.000000 1.000000 -0.000001
vn 0.000000 1.000000 -0.000001
vn 0.000000 1.000000 -0.000001
vn 0.000000 1.000000 -0.000001
vn 0.000000 1.000000 -0.000001
vn 0.073424 0.952175 0.296600
vn 0.073424 0.952175 0.296600
vn 0.073424 0.952175 0.296600
s off
f 33/65/1 34/66/2 35/67/3 36/68/4
f 75/115/5 26/58/6 27/59/7
f 37/69/8 38/70/9 39/71/10 40/72/11
f 61/85/12 62/86/13 63/87/14 64/88/15
f 42/73/16 41/74/17 43/75/18 44/76/19
f 45/77/20 46/78/21 47/79/22 71/109/23 48/80/24
f 29/61/25 28/60/26 27/59/27 30/62/28
f 1/1/29 11/17/30 10/16/31 3/3/32
f 7/7/33 12/19/34 11/18/35 1/9/36
f 5/5/37 9/15/38 12/19/39 7/7/40
f 14/22/41 13/20/42 2/2/43 4/4/44
f 26/58/45 25/57/46 31/63/47 32/64/48
f 77/118/49 78/119/50 15/23/51
f 13/21/52 16/24/53 8/8/54 2/10/55
f 20/27/56 10/16/57 76/117/58 73/113/59
f 3/3/60 10/16/61 20/27/62 21/29/63
f 9/15/64 5/5/65 22/30/66 19/28/67
f 5/5/68 67/103/69 66/102/70 22/30/71
f 14/22/72 4/4/73 23/31/74 17/25/75
f 4/4/76 6/6/77 24/32/78 23/31/79
f 27/36/80 83/124/81 80/121/82 19/28/83
f 74/114/84 75/116/85 76/117/86
f 21/29/87 20/27/88 28/35/89 29/37/90
f 19/28/91 22/30/92 30/38/93 27/36/94
f 30/38/95 68/104/96 29/37/97
f 17/25/98 23/31/99 31/39/100 25/33/101
f 23/31/102 24/32/103 32/40/104 31/39/105
f 24/32/106 18/26/107 26/34/108 32/40/109
f 13/20/110 14/22/111 34/42/112 33/41/113
f 14/22/114 10/16/115 35/43/116 34/42/117
f 10/16/118 11/17/119 36/44/120 35/43/121
f 11/17/122 13/20/123 33/41/124 36/44/125
f 15/23/126 78/119/127 79/120/128
f 16/24/129 12/19/130 39/47/131 38/46/132
f 12/19/133 9/15/134 40/48/135 39/47/136
f 2/2/137 8/11/138 41/50/139 42/49/140
f 8/11/141 6/12/142 43/51/143 41/50/144
f 6/12/145 4/4/146 44/52/147 43/51/148
f 4/4/149 2/2/150 42/49/151 44/52/152
f 7/13/153 1/1/154 46/54/155 45/53/156
f 1/1/157 3/3/158 47/55/159 46/54/160
f 3/3/161 69/105/162 71/110/163 47/55/164
f 5/14/165 7/13/166 45/53/167 48/56/168
f 16/24/169 13/21/170 50/82/171 49/81/172
f 13/21/173 11/18/174 51/83/175 50/82/176
f 11/18/177 12/19/178 52/84/179 51/83/180
f 12/19/181 16/24/182 49/81/183 52/84/184
f 49/89/185 50/90/186 54/91/187 53/92/188
f 50/90/189 51/93/190 55/94/191 54/91/192
f 51/93/193 52/95/194 56/96/195 55/94/196
f 52/95/197 49/89/198 53/92/199 56/96/200
f 53/92/201 54/91/202 58/97/203 57/98/204
f 54/91/205 55/94/206 59/99/207 58/97/208
f 55/94/209 56/96/210 60/100/211 59/99/212
f 56/96/213 53/92/214 57/98/215 60/100/216
f 57/98/217 58/97/218 62/86/219 61/85/220
f 58/97/221 59/99/222 63/87/223 62/86/224
f 59/99/225 60/100/226 64/88/227 63/87/228
f 60/100/229 57/98/230 61/85/231 64/88/232
f 68/104/233 67/103/234 65/101/235
f 66/102/236 67/103/237 68/104/238
f 71/110/239 70/107/240 5/14/241 48/56/242
f 71/110/243 72/112/244 70/107/245
f 71/110/246 69/105/247 72/112/248
f 25/33/249 75/116/250 74/114/251 17/25/252
f 73/113/253 75/116/254 28/35/255 20/27/256
f 76/117/257 75/116/258 73/113/259
f 6/6/260 77/118/261 15/23/262 18/26/263 24/32/264
f 16/24/265 78/119/266 77/118/267 6/6/268 8/8/269
f 79/120/270 78/119/271 16/24/272 38/46/273 37/45/274
f 9/15/275 79/120/276 37/45/277 40/48/278
f 18/26/279 15/23/280 82/123/281 81/122/282
f 22/30/283 66/102/284 68/104/285 30/38/286
f 29/37/287 68/104/288 65/101/289 21/29/290
f 67/103/291 72/111/292 21/29/293 65/101/294
f 5/5/295 70/108/296 72/111/297 67/103/298
f 21/29/299 72/111/300 69/106/301 3/3/302
f 76/117/303 14/22/304 17/25/305 74/114/306
f 76/117/307 10/16/308 14/22/309
f 75/115/310 27/59/311 28/60/312
f 25/57/313 26/58/314 75/115/315
f 82/123/316 83/124/317 81/122/318
f 26/34/319 18/26/320 81/122/321 83/124/322
f 26/34/323 83/124/324 27/36/325
f 82/123/326 9/15/327 19/28/328 80/121/329
f 82/123/330 15/23/331 79/120/332 9/15/333
f 80/121/334 83/124/335 82/123/336
