# This file uses meters as units for non-parametric coordinates.

v -9.061279 0.000000 7.556648
v 9.061279 0.000000 7.556648
v -7.994385 3.950589 6.333771
v 7.994995 3.950589 6.333771
v -7.994385 3.950589 -6.333817
v 7.994995 3.950589 -6.333817
v -9.061279 0.000000 -7.556695
v 9.061279 0.000000 -7.556695
v 2.515869 3.905911 4.033585
v 6.315308 3.905911 4.033585
v 2.725830 4.514214 3.823490
v 6.105347 4.514214 3.823490
v 2.725830 4.514214 0.444145
v 6.105347 4.514214 0.444145
v 2.515869 3.905911 0.234051
v 6.315308 3.905911 0.234051
v -1.707764 3.905911 4.033585
v 2.091675 3.905911 4.033585
v -1.550293 4.514214 3.876266
v 1.934204 4.514214 3.876266
v -1.550293 4.514214 0.391521
v 1.934204 4.514214 0.391521
v -1.707764 3.905911 0.234051
v 2.091675 3.905911 0.234051
v -6.004639 3.905911 4.033585
v -2.205200 3.905911 4.033585
v -5.769043 4.514214 3.797855
v -2.441406 4.514214 3.797855
v -5.769043 4.514214 0.469780
v -2.441406 4.514214 0.469780
v -6.004639 3.905911 0.234051
v -2.205200 3.905911 0.234051
v -6.004639 3.905911 -0.371056
v -2.205200 3.905911 -0.371056
v -5.767822 4.514214 -0.608196
v -2.442627 4.514214 -0.608196
v -5.767822 4.514214 -3.933305
v -2.442627 4.514214 -3.933305
v -6.004639 3.905911 -4.170447
v -2.205200 3.905911 -4.170447
v -1.707764 3.905911 -0.371056
v 2.091675 3.905911 -0.371056
v -1.549072 4.514214 -0.529366
v 1.932983 4.514214 -0.529366
v -1.549072 4.514214 -4.012137
v 1.932983 4.514214 -4.012137
v -1.707764 3.905911 -4.170447
v 2.091675 3.905911 -4.170447
v 2.515869 3.905911 -0.371056
v 6.315308 3.905911 -0.371056
v 2.700806 4.514214 -0.556011
v 6.130371 4.514214 -0.556011
v 2.700806 4.514214 -3.985500
v 6.130371 4.514214 -3.985500
v 2.515869 3.905911 -4.170447
v 6.315308 3.905911 -4.170447
vt 0.242883 0.378224
vt 0.242883 0.378224
vt 0.242883 0.378224
vt 0.242883 0.378224
vt 0.242883 0.378224
vt 0.242883 0.378224
vt 0.242883 0.378224
vt 0.242883 0.378224
vt 0.242883 0.378224
vt 0.242883 0.378224
vt 0.242883 0.378224
vt 0.242883 0.378224
vt 0.242883 0.378224
vt 0.242883 0.378224
vt 0.000948 0.998707
vt 0.000948 0.925356
vt 0.074299 0.925356
vt 0.074299 0.998707
vt 0.264913 0.039938
vt 0.264913 0.039938
vt 0.264913 0.039938
vt 0.264913 0.039938
vt 0.264913 0.039938
vt 0.264913 0.039938
vt 0.264913 0.039938
vt 0.264913 0.039938
vt 0.264913 0.039938
vt 0.264913 0.039938
vt 0.264913 0.039938
vt 0.264913 0.039938
vt 0.421523 0.039212
vt 0.421523 0.039212
vt 0.421523 0.039212
vt 0.421523 0.039212
vt 0.421523 0.039212
vt 0.421523 0.039212
vt 0.421523 0.039212
vt 0.421523 0.039212
vt 0.421523 0.039212
vt 0.421523 0.039212
vt 0.421523 0.039212
vt 0.421523 0.039212
vt 0.295987 0.039212
vt 0.295987 0.039212
vt 0.295987 0.039212
vt 0.295987 0.039212
vt 0.295987 0.039212
vt 0.295987 0.039212
vt 0.295987 0.039212
vt 0.295987 0.039212
vt 0.295987 0.039212
vt 0.295987 0.039212
vt 0.295987 0.039212
vt 0.295987 0.039212
vt 0.421523 0.039212
vt 0.421523 0.039212
vt 0.421523 0.039212
vt 0.421523 0.039212
vt 0.421523 0.039212
vt 0.421523 0.039212
vt 0.421523 0.039212
vt 0.421523 0.039212
vt 0.421523 0.039212
vt 0.421523 0.039212
vt 0.421523 0.039212
vt 0.421523 0.039212
vt 0.360619 0.039340
vt 0.360619 0.039340
vt 0.360619 0.039340
vt 0.360619 0.039340
vt 0.360619 0.039340
vt 0.360619 0.039340
vt 0.360619 0.039340
vt 0.360619 0.039340
vt 0.360619 0.039340
vt 0.360619 0.039340
vt 0.360619 0.039340
vt 0.360619 0.039340
vt 0.295987 0.039212
vt 0.295987 0.039212
vt 0.295987 0.039212
vt 0.295987 0.039212
vt 0.295987 0.039212
vt 0.295987 0.039212
vt 0.295987 0.039212
vt 0.295987 0.039212
vt 0.295987 0.039212
vt 0.295987 0.039212
vt 0.295987 0.039212
vt 0.295987 0.039212
vn 0.000000 0.295701 0.955281
vn 0.000000 0.295701 0.955281
vn 0.000000 0.295701 0.955281
vn 0.000000 0.295701 0.955281
vn 0.000000 1.000000 0.000000
vn 0.000000 1.000000 0.000000
vn 0.000000 1.000000 0.000000
vn 0.000000 1.000000 0.000000
vn 0.000000 0.295701 -0.955281
vn 0.000000 0.295701 -0.955281
vn 0.000000 0.295701 -0.955281
vn 0.000000 0.295701 -0.955281
vn 0.000000 -1.000000 0.000000
vn 0.000000 -1.000000 0.000000
vn 0.000000 -1.000000 0.000000
vn 0.000000 -1.000000 0.000000
vn 0.965452 0.260581 0.000000
vn 0.965452 0.260581 0.000000
vn 0.965452 0.260581 0.000000
vn 0.965452 0.260581 0.000000
vn -0.965415 0.260719 0.000000
vn -0.965415 0.260719 0.000000
vn -0.965415 0.260719 0.000000
vn -0.965415 0.260719 0.000000
vn 0.000000 0.326456 0.945213
vn 0.000000 0.326456 0.945213
vn 0.000000 0.326456 0.945212
vn 0.000000 0.326456 0.945212
vn 0.000000 1.000000 0.000000
vn 0.000000 1.000000 0.000000
vn 0.000000 1.000000 0.000000
vn 0.000000 1.000000 0.000000
vn 0.000000 0.326456 -0.945213
vn 0.000000 0.326456 -0.945213
vn 0.000000 0.326456 -0.945213
vn 0.000000 0.326456 -0.945213
vn 0.945277 0.326270 0.000000
vn 0.945277 0.326270 0.000000
vn 0.945277 0.326270 0.000000
vn 0.945277 0.326270 0.000000
vn -0.945276 0.326270 0.000000
vn -0.945276 0.326270 0.000000
vn -0.945276 0.326270 0.000000
vn -0.945276 0.326270 0.000000
vn 0.000000 0.250380 0.968148
vn 0.000000 0.250380 0.968148
vn 0.000000 0.250380 0.968148
vn 0.000000 0.250380 0.968148
vn 0.000000 1.000000 0.000000
vn 0.000000 1.000000 0.000000
vn 0.000000 1.000000 0.000000
vn 0.000000 1.000000 0.000000
vn 0.000000 0.250608 -0.968089
vn 0.000000 0.250608 -0.968089
vn 0.000000 0.250608 -0.968089
vn 0.000000 0.250608 -0.968089
vn 0.968089 0.250608 0.000000
vn 0.968089 0.250608 0.000000
vn 0.968089 0.250608 0.000000
vn 0.968089 0.250608 0.000000
vn -0.968089 0.250608 0.000000
vn -0.968089 0.250608 0.000000
vn -0.968089 0.250608 0.000000
vn -0.968089 0.250608 0.000000
vn 0.000000 0.361337 0.932435
vn 0.000000 0.361337 0.932435
vn 0.000000 0.361337 0.932435
vn 0.000000 0.361337 0.932435
vn 0.000000 1.000000 0.000000
vn 0.000000 1.000000 0.000000
vn 0.000000 1.000000 0.000000
vn 0.000000 1.000000 0.000000
vn 0.000000 0.361337 -0.932435
vn 0.000000 0.361337 -0.932435
vn 0.000000 0.361337 -0.932435
vn 0.000000 0.361337 -0.932435
vn 0.932189 0.361972 0.000000
vn 0.932189 0.361972 0.000000
vn 0.932189 0.361972 0.000000
vn 0.932189 0.361972 0.000000
vn -0.932504 0.361158 0.000000
vn -0.932504 0.361158 0.000000
vn -0.932505 0.361158 0.000000
vn -0.932505 0.361158 0.000000
vn 0.000000 0.363216 0.931705
vn 0.000000 0.363216 0.931705
vn 0.000000 0.363216 0.931705
vn 0.000000 0.363216 0.931705
vn 0.000000 1.000000 0.000000
vn 0.000000 1.000000 0.000000
vn 0.000000 1.000000 0.000000
vn 0.000000 1.000000 0.000000
vn 0.000000 0.363218 -0.931704
vn 0.000000 0.363218 -0.931704
vn 0.000000 0.363218 -0.931704
vn 0.000000 0.363218 -0.931704
vn 0.931557 0.363596 0.000000
vn 0.931557 0.363596 0.000000
vn 0.931557 0.363596 0.000000
vn 0.931557 0.363596 0.000000
vn -0.931873 0.362785 0.000000
vn -0.931873 0.362785 0.000000
vn -0.931873 0.362785 0.000000
vn -0.931873 0.362785 0.000000
vn 0.000000 0.251859 0.967764
vn 0.000000 0.251859 0.967764
vn 0.000000 0.251859 0.967764
vn 0.000000 0.251859 0.967764
vn 0.000000 1.000000 0.000000
vn 0.000000 1.000000 0.000000
vn 0.000000 1.000000 0.000000
vn 0.000000 1.000000 0.000000
vn 0.000000 0.251859 -0.967764
vn 0.000000 0.251859 -0.967764
vn 0.000000 0.251859 -0.967764
vn 0.000000 0.251859 -0.967764
vn 0.967616 0.252428 0.000000
vn 0.967616 0.252428 0.000000
vn 0.967616 0.252428 0.000000
vn 0.967616 0.252428 0.000000
vn -0.967616 0.252427 0.000000
vn -0.967616 0.252427 0.000000
vn -0.967616 0.252427 0.000000
vn -0.967616 0.252427 0.000000
vn 0.000000 0.290902 0.956753
vn 0.000000 0.290902 0.956753
vn 0.000000 0.290902 0.956753
vn 0.000000 0.290902 0.956753
vn 0.000000 1.000000 0.000000
vn 0.000000 1.000000 0.000000
vn 0.000000 1.000000 0.000000
vn 0.000000 1.000000 0.000000
vn 0.000000 0.290890 -0.956757
vn 0.000000 0.290890 -0.956757
vn 0.000000 0.290890 -0.956757
vn 0.000000 0.290890 -0.956757
vn 0.956761 0.290875 0.000000
vn 0.956761 0.290875 0.000000
vn 0.956761 0.290875 0.000000
vn 0.956761 0.290875 0.000000
vn -0.956761 0.290875 0.000000
vn -0.956761 0.290875 0.000000
vn -0.956761 0.290875 0.000000
vn -0.956761 0.290875 0.000000
s off
f 1/1/1 2/2/2 4/4/3 3/3/4
f 3/15/5 4/16/6 6/17/7 5/18/8
f 5/5/9 6/6/10 8/8/11 7/7/12
f 7/7/13 8/8/14 2/10/15 1/9/16
f 2/2/17 8/11/18 6/12/19 4/4/20
f 7/13/21 1/1/22 3/3/23 5/14/24
f 9/19/25 10/20/26 12/21/27 11/22/28
f 11/22/29 12/21/30 14/23/31 13/24/32
f 13/24/33 14/23/34 16/25/35 15/26/36
f 10/20/37 16/27/38 14/28/39 12/21/40
f 15/29/41 9/19/42 11/22/43 13/30/44
f 17/31/45 18/32/46 20/33/47 19/34/48
f 19/34/49 20/33/50 22/35/51 21/36/52
f 21/36/53 22/35/54 24/37/55 23/38/56
f 18/32/57 24/39/58 22/40/59 20/33/60
f 23/41/61 17/31/62 19/34/63 21/42/64
f 25/43/65 26/44/66 28/45/67 27/46/68
f 27/46/69 28/45/70 30/47/71 29/48/72
f 29/48/73 30/47/74 32/49/75 31/50/76
f 26/44/77 32/51/78 30/52/79 28/45/80
f 31/53/81 25/43/82 27/46/83 29/54/84
f 33/55/85 34/56/86 36/57/87 35/58/88
f 35/58/89 36/57/90 38/59/91 37/60/92
f 37/60/93 38/59/94 40/61/95 39/62/96
f 34/56/97 40/63/98 38/64/99 36/57/100
f 39/65/101 33/55/102 35/58/103 37/66/104
f 41/67/105 42/68/106 44/69/107 43/70/108
f 43/70/109 44/69/110 46/71/111 45/72/112
f 45/72/113 46/71/114 48/73/115 47/74/116
f 42/68/117 48/75/118 46/76/119 44/69/120
f 47/77/121 41/67/122 43/70/123 45/78/124
f 49/79/125 50/80/126 52/81/127 51/82/128
f 51/82/129 52/81/130 54/83/131 53/84/132
f 53/84/133 54/83/134 56/85/135 55/86/136
f 50/80/137 56/87/138 54/88/139 52/81/140
f 55/89/141 49/79/142 51/82/143 53/90/144
