# This file uses meters as units for non-parametric coordinates.

v 10.526733 -80.110306 7.674103
v 11.481323 -80.110306 4.478302
v 7.330627 -80.110306 6.719818
v 8.285522 -80.110306 3.523712
v -3.236084 -95.771446 -2.477570
v -0.363770 -95.771446 -4.173584
v -4.931946 -95.771446 -5.349579
v -2.059631 -95.771446 -7.045746
v 2.774963 -85.563339 -0.289154
v 5.403748 -87.148468 -2.439117
v 1.079102 -85.563339 -3.161163
v 3.707886 -87.148468 -5.311279
v 4.292908 95.696472 1.598358
v 5.247498 95.577927 -1.597748
v 1.096802 95.707756 0.643768
v 2.051392 95.589218 -2.552032
v -3.236084 95.662598 -2.477570
v -0.363770 95.567970 -4.173584
v -4.931641 95.590332 -5.349579
v -2.059937 95.495689 -7.045746
v -2.209778 95.771454 1.227875
v 0.662537 95.676804 -0.468140
v -3.905640 95.699158 -1.644135
v -1.033325 95.604530 -3.340149
v 6.670837 -32.056305 3.915863
v 7.671204 -32.457794 0.764771
v -3.236084 -32.374493 -2.477570
v -0.364075 -32.639999 -4.173584
v -0.255432 -32.270874 0.586090
v 2.616577 -32.536373 -1.110077
v 3.479919 -32.099079 2.966309
v 4.480286 -32.500565 -0.184937
v -4.931641 -32.678715 -5.349579
v -2.059631 -32.944199 -7.045746
v -1.951599 -32.575089 -2.286072
v 0.921021 -32.840584 -3.982086
v 1.522522 7.333918 1.222382
v 2.626953 7.168269 -2.475128
v -5.452576 7.862797 -5.711670
v -2.130127 7.520933 -7.674103
v -4.265442 7.825827 -1.424561
v -0.942078 7.483910 -3.386841
v 5.220032 7.009609 2.326813
v 6.324463 6.843967 -1.370850
v -3.490601 7.737460 -2.388763
v -0.167847 7.395578 -4.351196
v -2.303162 7.700491 1.898346
v 1.019897 7.358572 -0.063934
v -8.285828 -50.151520 -3.266449
v -7.331238 -50.151520 -6.462250
v -11.481934 -50.151520 -4.220886
v -10.527344 -50.151520 -7.416840
v -5.628967 95.696472 -2.672272
v -4.674377 95.577927 -5.868073
v -8.825073 95.707756 -3.626862
v -7.870483 95.589218 -6.822662
v -6.752930 -15.295410 -1.966095
v -5.752563 -15.696903 -5.117340
v -9.944153 -15.338188 -2.915802
v -8.943481 -15.739670 -6.066895
v -8.399353 17.539301 -3.048096
v -7.294922 17.373653 -6.745758
v -4.701843 17.214994 -1.943665
v -3.597412 17.049351 -5.641327
vt 0.233068 0.232269
vt 0.233068 0.232269
vt 0.233068 0.232269
vt 0.233068 0.232269
vt 0.233068 0.232269
vt 0.233068 0.232269
vt 0.233068 0.232269
vt 0.233068 0.232269
vt 0.233068 0.232269
vt 0.233068 0.232269
vt 0.233068 0.232269
vt 0.233068 0.232269
vt 0.233068 0.232269
vt 0.233068 0.232269
vt 0.233068 0.232269
vt 0.233068 0.232269
vt 0.233068 0.232269
vt 0.233068 0.232269
vt 0.233068 0.232269
vt 0.233068 0.232269
vt 0.233068 0.232269
vt 0.233068 0.232269
vt 0.233068 0.232269
vt 0.233068 0.232269
vt 0.233068 0.232269
vt 0.233068 0.232269
vt 0.233068 0.232269
vt 0.233068 0.232269
vt 0.233068 0.232269
vt 0.233068 0.232269
vt 0.233068 0.232269
vt 0.233068 0.232269
vt 0.233068 0.232269
vt 0.233068 0.232269
vt 0.233068 0.232269
vt 0.233068 0.232269
vt 0.233068 0.232269
vt 0.233068 0.232269
vt 0.233068 0.232269
vt 0.233068 0.232269
vt 0.233068 0.232269
vt 0.233068 0.232269
vt 0.233068 0.232269
vt 0.233068 0.232269
vt 0.233068 0.232269
vt 0.233068 0.232269
vt 0.233068 0.232269
vt 0.233068 0.232269
vt 0.233068 0.232269
vt 0.233068 0.232269
vt 0.233068 0.232269
vt 0.233068 0.232269
vt 0.233068 0.232269
vt 0.233068 0.232269
vt 0.233068 0.232269
vt 0.233068 0.232269
vt 0.233068 0.232269
vt 0.233068 0.232269
vt 0.233068 0.232269
vt 0.233068 0.232269
vt 0.233068 0.232269
vt 0.233068 0.232269
vt 0.233068 0.232269
vt 0.233068 0.232269
vt 0.233068 0.232269
vt 0.233068 0.232269
vt 0.233068 0.232269
vt 0.233068 0.232269
vt 0.233068 0.232269
vt 0.233068 0.232269
vt 0.233068 0.232269
vt 0.233068 0.232269
vt 0.233068 0.232269
vt 0.233068 0.232269
vt 0.233068 0.232269
vt 0.233068 0.232269
vt 0.233068 0.232269
vt 0.233068 0.232269
vt 0.233068 0.232269
vt 0.233068 0.232269
vt 0.233068 0.232269
vt 0.233068 0.232269
vt 0.233068 0.232269
vt 0.233068 0.232269
vt 0.233068 0.232269
vt 0.233068 0.232269
vt 0.233068 0.232269
vt 0.233068 0.232269
vt 0.233068 0.232269
vt 0.233068 0.232269
vt 0.233068 0.232269
vt 0.233068 0.232269
vt 0.233068 0.232269
vt 0.233068 0.232269
vn 0.952762 0.098739 0.287222
vn 0.952761 0.098739 0.287222
vn 0.954457 0.076175 0.288461
vn 0.954616 0.073655 0.288590
vn 0.000000 -1.000000 0.000000
vn 0.000000 -1.000000 0.000000
vn 0.000000 -1.000000 0.000000
vn 0.000000 -1.000000 0.000000
vn 0.285670 -0.051721 -0.956931
vn 0.285670 -0.051721 -0.956931
vn 0.284805 -0.047020 -0.957431
vn 0.284877 -0.047406 -0.957391
vn -0.285593 0.051916 0.956944
vn -0.285593 0.051916 0.956944
vn -0.285153 0.041333 0.957591
vn -0.285112 0.040387 0.957643
vn 0.508469 0.000001 0.861080
vn 0.508469 0.000001 0.861080
vn 0.508523 0.000507 0.861048
vn 0.508530 0.000572 0.861044
vn 0.000000 -1.000000 -0.000001
vn 0.000000 -1.000000 -0.000001
vn 0.000000 -1.000000 -0.000001
vn 0.000000 -1.000000 -0.000001
vn 0.861120 0.000002 -0.508401
vn 0.861120 0.000002 -0.508401
vn 0.861142 -0.002461 -0.508359
vn 0.861145 -0.002805 -0.508353
vn -0.861109 0.000002 0.508421
vn -0.861109 0.000002 0.508421
vn -0.861072 -0.002854 0.508475
vn -0.861077 -0.002504 0.508469
vn 0.576204 0.014372 0.817180
vn 0.576204 0.014372 0.817180
vn 0.549219 0.007666 0.835643
vn 0.543479 0.006258 0.839399
vn -0.367687 -0.904252 0.217106
vn -0.367687 -0.904252 0.217105
vn -0.367687 -0.904252 0.217105
vn -0.367687 -0.904252 0.217106
vn 0.858435 0.056373 -0.509815
vn 0.858435 0.056373 -0.509815
vn 0.858905 0.052669 -0.509419
vn 0.858966 0.052189 -0.509367
vn -0.858325 -0.057347 0.509892
vn -0.858325 -0.057347 0.509892
vn -0.858519 -0.058782 0.509402
vn -0.858498 -0.058628 0.509454
vn -0.958222 -0.006487 -0.285952
vn -0.958222 -0.006487 -0.285952
vn -0.957674 -0.023611 -0.286886
vn -0.957703 -0.022889 -0.286848
vn -0.508212 0.006565 -0.861207
vn -0.508212 0.006565 -0.861207
vn -0.508685 -0.000508 -0.860952
vn -0.508619 0.000506 -0.860991
vn -0.508446 -0.000070 -0.861094
vn -0.508446 -0.000070 -0.861094
vn -0.508705 -0.003774 -0.860932
vn -0.508659 -0.003099 -0.860963
vn 0.954616 0.073655 0.288590
vn 0.954457 0.076175 0.288461
vn 0.957637 0.023468 0.287019
vn 0.957665 0.023000 0.286964
vn 0.284877 -0.047406 -0.957391
vn 0.284805 -0.047020 -0.957431
vn 0.285605 -0.010919 -0.958285
vn 0.285468 -0.013644 -0.958291
vn -0.285112 0.040387 0.957643
vn -0.285153 0.041333 0.957591
vn -0.285514 0.012812 0.958289
vn -0.285600 0.011344 0.958282
vn 0.508530 0.000572 0.861044
vn 0.508523 0.000507 0.861048
vn 0.508513 0.000046 0.861054
vn 0.508506 -0.000047 0.861059
vn 0.861145 -0.002805 -0.508353
vn 0.861142 -0.002461 -0.508359
vn 0.861109 0.000093 -0.508421
vn 0.861111 -0.000085 -0.508418
vn -0.861077 -0.002504 0.508469
vn -0.861072 -0.002854 0.508475
vn -0.861081 -0.000087 0.508468
vn -0.861082 0.000095 0.508466
vn 0.543479 0.006258 0.839399
vn 0.549219 0.007666 0.835643
vn 0.508621 0.003190 0.860985
vn 0.508648 0.003706 0.860967
vn 0.858966 0.052189 -0.509367
vn 0.858905 0.052669 -0.509419
vn 0.860824 0.015176 -0.508676
vn 0.860800 0.016094 -0.508688
vn -0.858498 -0.058628 0.509454
vn -0.858519 -0.058782 0.509402
vn -0.860700 -0.016296 0.508851
vn -0.860733 -0.015002 0.508836
vn -0.954299 -0.079869 -0.287983
vn -0.954160 -0.081756 -0.287914
vn -0.952758 -0.098700 -0.287248
vn -0.952758 -0.098700 -0.287248
vn -0.508963 -0.006197 -0.860766
vn -0.508912 -0.005501 -0.860801
vn -0.508503 0.000001 -0.861060
vn -0.508503 0.000001 -0.861060
vn -0.543577 -0.012669 -0.839264
vn -0.549249 -0.012978 -0.835558
vn -0.576178 -0.014452 -0.817196
vn -0.576178 -0.014452 -0.817196
vn -0.957703 -0.022889 -0.286848
vn -0.957674 -0.023611 -0.286886
vn -0.954160 -0.081756 -0.287914
vn -0.954299 -0.079869 -0.287983
vn -0.508619 0.000506 -0.860991
vn -0.508685 -0.000508 -0.860952
vn -0.508912 -0.005501 -0.860801
vn -0.508963 -0.006197 -0.860766
vn -0.508659 -0.003099 -0.860963
vn -0.508705 -0.003774 -0.860932
vn -0.549249 -0.012978 -0.835558
vn -0.543577 -0.012669 -0.839264
vn 0.957665 0.023000 0.286964
vn 0.957637 0.023468 0.287019
vn 0.958241 0.012362 0.285696
vn 0.958241 0.012362 0.285696
vn 0.285468 -0.013644 -0.958291
vn 0.285605 -0.010919 -0.958285
vn 0.286179 0.001026 -0.958176
vn 0.286179 0.001026 -0.958176
vn -0.285600 0.011344 0.958282
vn -0.285514 0.012812 0.958289
vn -0.285970 0.004889 0.958226
vn -0.285970 0.004889 0.958226
vn 0.508506 -0.000047 0.861059
vn 0.508513 0.000046 0.861054
vn 0.508463 -0.000603 0.861084
vn 0.508463 -0.000603 0.861084
vn 0.861111 -0.000085 -0.508418
vn 0.861109 0.000093 -0.508421
vn 0.861072 0.002941 -0.508474
vn 0.861072 0.002941 -0.508474
vn -0.861082 0.000095 0.508466
vn -0.861081 -0.000087 0.508468
vn -0.861100 0.003010 0.508427
vn -0.861100 0.003010 0.508427
vn 0.508648 0.003706 0.860967
vn 0.508621 0.003190 0.860985
vn 0.508765 0.006006 0.860884
vn 0.508765 0.006006 0.860884
vn 0.860800 0.016094 -0.508688
vn 0.860824 0.015176 -0.508676
vn 0.861100 0.001159 -0.508434
vn 0.861100 0.001159 -0.508434
vn -0.860733 -0.015002 0.508836
vn -0.860700 -0.016296 0.508851
vn -0.861050 0.004790 0.508497
vn -0.861050 0.004790 0.508497
vn 0.953324 -0.054135 0.297058
vn 0.953324 -0.054135 0.297058
vn 0.953091 -0.056477 0.297368
vn 0.953053 -0.056853 0.297417
vn 0.000000 -1.000000 0.000000
vn 0.000000 -1.000000 0.000000
vn 0.000000 -1.000000 0.000000
vn 0.000000 -1.000000 0.000000
vn 0.285466 0.024382 -0.958079
vn 0.285466 0.024382 -0.958079
vn 0.285021 -0.004125 -0.958512
vn 0.284973 -0.006548 -0.958513
vn -0.285468 -0.023248 0.958106
vn -0.285468 -0.023248 0.958106
vn -0.285313 -0.001941 0.958432
vn -0.285330 -0.003624 0.958422
vn -0.958228 -0.007334 -0.285912
vn -0.958228 -0.007334 -0.285912
vn -0.957211 0.007807 -0.289285
vn -0.957269 0.007037 -0.289115
vn 0.953053 -0.056853 0.297417
vn 0.953091 -0.056477 0.297368
vn 0.957163 -0.008009 0.289439
vn 0.957229 -0.006890 0.289249
vn 0.284973 -0.006548 -0.958513
vn 0.285021 -0.004125 -0.958512
vn 0.285739 -0.008634 -0.958269
vn 0.285675 -0.009832 -0.958276
vn -0.285330 -0.003624 0.958422
vn -0.285313 -0.001941 0.958432
vn -0.285671 0.009192 0.958284
vn -0.285700 0.008798 0.958279
vn -0.953701 0.047890 -0.296920
vn -0.953647 0.048787 -0.296947
vn -0.953293 0.054383 -0.297110
vn -0.953293 0.054383 -0.297110
vn -0.957269 0.007037 -0.289115
vn -0.957211 0.007807 -0.289285
vn -0.953647 0.048787 -0.296947
vn -0.953701 0.047890 -0.296920
vn 0.957229 -0.006890 0.289249
vn 0.957163 -0.008009 0.289439
vn 0.958235 0.013969 0.285641
vn 0.958235 0.013969 0.285641
vn 0.285675 -0.009832 -0.958276
vn 0.285739 -0.008634 -0.958269
vn 0.286244 0.001162 -0.958156
vn 0.286244 0.001162 -0.958156
vn -0.285700 0.008798 0.958279
vn -0.285671 0.009192 0.958284
vn -0.285940 0.005528 0.958231
vn -0.285940 0.005528 0.958232
s off
f 1/1/1 2/2/2 26/3/3 25/4/4
f 3/5/5 4/6/6 2/7/7 1/8/8
f 2/2/9 4/9/10 32/10/11 26/3/12
f 3/11/13 1/1/14 25/4/15 31/12/16
f 5/13/17 6/14/18 28/15/19 27/16/20
f 7/17/21 8/18/22 6/19/23 5/20/24
f 6/14/25 8/21/26 34/22/27 28/15/28
f 7/23/29 5/13/30 27/16/31 33/24/32
f 9/25/33 10/26/34 30/27/35 29/28/36
f 11/29/37 12/30/38 10/26/39 9/25/40
f 10/26/41 12/30/42 36/31/43 30/27/44
f 11/29/45 9/25/46 29/28/47 35/32/48
f 15/35/49 16/36/50 38/37/51 37/38/52
f 19/43/53 20/44/54 40/45/55 39/46/56
f 23/51/57 24/52/58 42/53/59 41/54/60
f 25/4/61 26/3/62 44/55/63 43/56/64
f 26/3/65 32/10/66 38/57/67 44/55/68
f 31/12/69 25/4/70 43/56/71 37/58/72
f 27/16/73 28/15/74 46/59/75 45/60/76
f 28/15/77 34/22/78 40/61/79 46/59/80
f 33/24/81 27/16/82 45/60/83 39/62/84
f 29/28/85 30/27/86 48/63/87 47/64/88
f 30/27/89 36/31/90 42/53/91 48/63/92
f 35/32/93 29/28/94 47/64/95 41/54/96
f 31/65/97 32/66/98 4/6/99 3/5/100
f 33/67/101 34/68/102 8/18/103 7/17/104
f 35/32/105 36/31/106 12/30/107 11/29/108
f 37/38/109 38/37/110 32/66/111 31/65/112
f 39/46/113 40/45/114 34/68/115 33/67/116
f 41/54/117 42/53/118 36/31/119 35/32/120
f 43/56/121 44/55/122 14/34/123 13/33/124
f 44/55/125 38/57/126 16/39/127 14/34/128
f 37/58/129 43/56/130 13/33/131 15/40/132
f 45/60/133 46/59/134 18/42/135 17/41/136
f 46/59/137 40/61/138 20/47/139 18/42/140
f 39/62/141 45/60/142 17/41/143 19/48/144
f 47/64/145 48/63/146 22/50/147 21/49/148
f 48/63/149 42/53/150 24/52/151 22/50/152
f 41/54/153 47/64/154 21/49/155 23/51/156
f 49/69/157 50/70/158 58/71/159 57/72/160
f 51/73/161 52/74/162 50/75/163 49/76/164
f 50/70/165 52/77/166 60/78/167 58/71/168
f 51/79/169 49/69/170 57/72/171 59/80/172
f 55/81/173 56/82/174 62/83/175 61/84/176
f 57/72/177 58/71/178 64/85/179 63/86/180
f 58/71/181 60/78/182 62/87/183 64/85/184
f 59/80/185 57/72/186 63/86/187 61/88/188
f 59/89/189 60/90/190 52/74/191 51/73/192
f 61/84/193 62/83/194 60/90/195 59/89/196
f 63/86/197 64/85/198 54/91/199 53/92/200
f 64/85/201 62/87/202 56/93/203 54/91/204
f 61/88/205 63/86/206 53/92/207 55/94/208
