# This file uses meters as units for non-parametric coordinates.

v -7.938843 0.000000 63.032974
v 7.938843 0.000000 63.032974
v -5.165405 6.881508 60.400696
v 5.165405 6.881508 60.400696
v -5.165405 6.881508 -60.400696
v 5.165405 6.881508 -60.400696
v -7.938843 0.000000 -63.032990
v 7.938843 0.000000 -63.032990
v 7.036133 2.239551 -49.121552
v -7.036133 2.239550 -49.121552
v -7.938843 0.000000 -50.729828
v 7.938843 0.000000 -50.729828
v 7.036133 2.239551 49.121552
v -7.036133 2.239550 49.121552
v -7.938843 0.000000 50.729828
v 7.938843 0.000000 50.729828
v 5.165405 6.881508 -52.338104
v -5.165405 6.881508 -52.338104
v -5.165405 6.881508 52.338104
v 5.165405 6.881508 52.338104
v 7.036133 2.239551 -52.338104
v 7.036133 2.239551 52.338104
v 7.036133 2.239551 63.032974
v -7.036133 2.239551 63.032974
v -7.036133 2.239551 52.338104
v -7.036133 2.239551 -52.338104
v -7.036133 2.239551 -63.032990
v 7.036133 2.239551 -63.032990
v 5.936890 2.239551 -49.121399
v -5.936890 2.239550 -49.121399
v 5.936890 2.239551 49.121552
v -5.936890 2.239550 49.121552
v 3.728638 6.144461 52.070313
v -3.728027 6.144461 52.070313
v 3.728638 6.144461 -52.070160
v -3.728027 6.144461 -52.070160
vt 0.234749 0.277285
vt 0.234749 0.277285
vt 0.234749 0.277285
vt 0.234749 0.277285
vt 0.234749 0.277285
vt 0.234749 0.277285
vt 0.234749 0.277285
vt 0.234749 0.277285
vt 0.234749 0.277285
vt 0.234749 0.277285
vt 0.234750 0.277285
vt 0.234750 0.277285
vt 0.234749 0.277285
vt 0.234749 0.277285
vt 0.234749 0.277285
vt 0.234749 0.277285
vt 0.234749 0.277285
vt 0.234749 0.277285
vt 0.234749 0.277285
vt 0.234749 0.277285
vt 0.234749 0.277285
vt 0.234750 0.277285
vt 0.234749 0.277285
vt 0.234749 0.277285
vt 0.234749 0.277285
vt 0.234749 0.277285
vt 0.234749 0.277285
vt 0.234749 0.277285
vt 0.234749 0.277285
vt 0.234749 0.277285
vt 0.234749 0.277285
vt 0.234750 0.277285
vt 0.234749 0.277285
vt 0.234749 0.277285
vt 0.234749 0.277285
vt 0.234749 0.277285
vt 0.234749 0.277285
vt 0.234750 0.277285
vt 0.234750 0.277285
vt 0.234749 0.277285
vt 0.234749 0.277285
vt 0.234749 0.277285
vt 0.234749 0.277285
vt 0.234749 0.277285
vt 0.234749 0.277285
vt 0.234749 0.277285
vt 0.234749 0.277285
vt 0.234750 0.277285
vt 0.264038 0.039991
vt 0.264038 0.039991
vt 0.264038 0.039991
vt 0.264038 0.039991
vt 0.264038 0.039991
vt 0.264038 0.039991
vt 0.264038 0.039991
vt 0.264038 0.039991
vn 0.000000 0.000000 1.000000
vn 0.000000 0.000000 1.000000
vn 0.000000 0.000000 1.000000
vn 0.000000 0.000000 1.000000
vn 0.000000 0.569556 -0.821953
vn 0.000000 0.569556 -0.821953
vn 0.000000 0.569556 -0.821953
vn 0.000000 0.569556 -0.821953
vn 0.000000 0.000000 -1.000000
vn 0.000000 0.000000 -1.000000
vn 0.000000 0.000000 -1.000000
vn 0.000000 0.000000 -1.000000
vn 0.927489 0.373849 0.000000
vn 0.927490 0.373849 0.000000
vn 0.927490 0.373849 0.000000
vn -0.927489 0.373849 -0.000000
vn -0.927490 0.373849 -0.000000
vn -0.927489 0.373849 -0.000000
vn 0.000000 0.569556 0.821953
vn 0.000000 0.569556 0.821953
vn 0.000000 0.569556 0.821953
vn 0.000000 0.569556 0.821953
vn -0.927489 0.373849 0.000000
vn -0.927489 0.373849 0.000000
vn -0.927490 0.373849 0.000000
vn 0.927490 0.373849 0.000000
vn 0.927489 0.373849 0.000000
vn 0.927490 0.373849 0.000000
vn -0.000000 1.000000 0.000000
vn -0.000000 1.000000 0.000000
vn -0.000000 1.000000 0.000000
vn -0.000000 1.000000 0.000000
vn -0.927490 0.373849 0.000000
vn -0.927490 0.373849 0.000000
vn -0.927490 0.373849 0.000000
vn -0.927490 0.373849 0.000000
vn 0.000000 -1.000000 0.000000
vn 0.000000 -1.000000 0.000000
vn 0.000000 -1.000000 0.000000
vn 0.000000 -1.000000 0.000000
vn 0.927490 0.373849 0.000000
vn 0.927490 0.373849 0.000000
vn 0.927490 0.373849 0.000000
vn 0.927490 0.373849 0.000000
vn 0.000000 1.000000 0.000000
vn 0.000000 1.000000 0.000000
vn 0.000000 1.000000 0.000000
vn 0.000000 1.000000 0.000000
vn -0.927489 0.373849 0.000000
vn -0.927489 0.373849 0.000000
vn -0.927490 0.373849 0.000000
vn -0.927489 0.373849 0.000000
vn 0.000000 -1.000000 0.000000
vn 0.000000 -1.000000 0.000000
vn 0.000000 -1.000000 0.000000
vn 0.000000 -1.000000 0.000000
vn 0.927489 0.373849 0.000000
vn 0.927490 0.373849 0.000000
vn 0.927489 0.373849 0.000000
vn 0.927489 0.373849 0.000000
vn -0.927489 0.373849 0.000000
vn -0.927490 0.373849 0.000000
vn -0.927490 0.373849 0.000000
vn -0.927489 0.373849 0.000000
vn 0.000000 1.000000 0.000000
vn 0.000000 1.000000 0.000000
vn 0.000000 1.000000 0.000000
vn 0.000000 1.000000 0.000000
vn 0.927489 0.373849 0.000000
vn 0.927489 0.373849 0.000000
vn 0.927489 0.373849 0.000000
vn 0.927489 0.373849 0.000000
vn 0.000000 -1.000000 0.000000
vn 0.000000 -1.000000 0.000000
vn 0.000000 -1.000000 0.000000
vn 0.000000 -1.000000 0.000000
vn 0.927513 0.373792 0.000000
vn 0.927513 0.373791 0.000000
vn 0.927513 0.373792 0.000000
vn 0.927513 0.373791 0.000000
vn 0.927513 0.373792 0.000000
vn 0.927513 0.373792 0.000000
vn 0.927513 0.373791 0.000000
vn 0.927513 0.373791 0.000000
vn 0.927513 0.373791 0.000000
vn 0.927513 0.373791 0.000000
vn 0.000000 0.493273 0.869875
vn 0.000000 0.493273 0.869875
vn 0.000000 0.493273 0.869875
vn 0.000000 0.493273 0.869875
vn -0.927513 0.373791 0.000000
vn -0.927513 0.373791 0.000000
vn -0.927513 0.373791 0.000000
vn -0.927513 0.373791 0.000000
vn -0.927513 0.373792 -0.000000
vn -0.927513 0.373792 -0.000000
vn -0.927513 0.373792 -0.000000
vn -0.927513 0.373792 0.000000
vn -0.927513 0.373792 0.000000
vn -0.927513 0.373792 0.000000
vn -0.927513 0.373791 0.000000
vn -0.927513 0.373791 0.000000
vn -0.927513 0.373791 0.000000
vn -0.927513 0.373791 0.000000
vn 0.000000 0.493275 -0.869873
vn 0.000000 0.493275 -0.869873
vn 0.000000 0.493275 -0.869873
vn 0.000000 0.493275 -0.869873
vn 0.927513 0.373791 0.000000
vn 0.927513 0.373791 0.000000
vn 0.927513 0.373791 0.000000
vn 0.927513 0.373791 0.000000
vn -0.000000 1.000000 0.000000
vn -0.000000 1.000000 0.000000
vn -0.000000 1.000000 0.000000
vn -0.000000 1.000000 0.000000
vn 0.870455 0.492248 0.000000
vn 0.870455 0.492248 0.000000
vn 0.870455 0.492248 0.000000
vn 0.870455 0.492248 0.000000
vn -0.870397 0.492351 0.000000
vn -0.870397 0.492351 0.000000
vn -0.870397 0.492351 0.000000
vn -0.870397 0.492351 0.000000
s off
f 1/1/1 2/2/2 23/41/3 24/42/4
f 19/36/5 20/37/6 13/23/7 14/26/8
f 27/46/9 28/47/10 8/8/11 7/7/12
f 16/30/13 13/24/14 22/40/15
f 15/27/16 25/43/17 14/25/18
f 10/18/19 9/15/20 17/31/21 18/34/22
f 11/19/23 10/17/24 26/44/25
f 9/16/26 12/22/27 21/39/28
f 14/26/29 13/23/30 9/15/31 10/18/32
f 11/19/33 15/27/34 14/25/35 10/17/36
f 11/20/37 12/21/38 16/29/39 15/28/40
f 13/24/41 16/30/42 12/22/43 9/16/44
f 18/34/45 17/31/46 6/6/47 5/5/48
f 7/13/49 11/19/50 26/44/51 27/45/52
f 7/7/53 8/8/54 12/21/55 11/20/56
f 28/48/57 21/39/58 12/22/59 8/11/60
f 15/27/61 1/1/62 24/42/63 25/43/64
f 3/3/65 4/4/66 20/37/67 19/36/68
f 2/2/69 16/30/70 22/40/71 23/41/72
f 15/28/73 16/29/74 2/10/75 1/9/76
f 9/16/77 21/39/78 17/32/79
f 22/40/80 13/24/81 20/38/82
f 23/41/83 22/40/84 20/38/85 4/4/86
f 24/42/87 23/41/88 4/4/89 3/3/90
f 25/43/91 24/42/92 3/3/93 19/35/94
f 14/25/95 25/43/96 19/35/97
f 26/44/98 10/17/99 18/33/100
f 27/45/101 26/44/102 18/33/103 5/14/104
f 5/5/105 6/6/106 28/47/107 27/46/108
f 17/32/109 21/39/110 28/48/111 6/12/112
f 34/49/113 33/50/114 35/51/115 36/52/116
f 31/53/117 29/54/118 35/51/119 33/50/120
f 30/55/121 32/56/122 34/49/123 36/52/124
