# This file uses meters as units for non-parametric coordinates.

v -16.106647 -0.455935 11.719763
v 16.106647 -0.455935 11.719763
v -16.106647 0.573676 11.719763
v 16.106647 0.573676 11.719763
v -16.106647 0.573676 -11.719763
v 16.106647 0.573676 -11.719763
v -16.106647 -0.455935 -11.719763
v 16.106647 -0.455935 -11.719763
v -10.545245 0.995716 10.016897
v 10.545271 0.995716 10.016897
v 10.545271 0.995716 -10.016897
v -10.545245 0.995716 -10.016897
v -13.223621 0.995716 7.768616
v -13.223621 0.995716 -7.363269
v 13.223646 0.995716 5.985795
v 13.223646 0.995716 -7.015993
v -2.498427 4.589233 -6.891226
v -6.509856 4.589233 -3.364167
v 3.578298 4.589233 7.402157
v 7.284034 4.589233 3.705475
v 10.059480 3.553550 9.555447
v 12.614470 3.553550 5.710046
v -10.059454 3.553550 -9.555447
v 12.614470 3.553550 -6.692786
v 10.059480 3.553550 -9.555447
v -12.614445 3.553550 -7.024063
v -12.614445 3.553550 7.410737
v -10.059454 3.553550 9.555447
vt 0.133306 0.378534
vt 0.133306 0.378534
vt 0.133306 0.378534
vt 0.133306 0.378534
vt 0.133306 0.378534
vt 0.133306 0.378534
vt 0.133306 0.378534
vt 0.133306 0.378534
vt 0.133306 0.378534
vt 0.133306 0.378534
vt 0.133306 0.378534
vt 0.133306 0.378534
vt 0.133306 0.378534
vt 0.133306 0.378534
vt 0.133306 0.378534
vt 0.133306 0.378534
vt 0.133306 0.378534
vt 0.133306 0.378534
vt 0.133306 0.378534
vt 0.133306 0.378534
vt 0.133306 0.378534
vt 0.133306 0.378534
vt 0.133306 0.378534
vt 0.133306 0.378534
vt 0.133306 0.378534
vt 0.133306 0.378534
vt 0.218262 0.472481
vt 0.218262 0.472481
vt 0.218262 0.472481
vt 0.218262 0.472481
vt 0.218262 0.472481
vt 0.218262 0.472481
vt 0.218262 0.472481
vt 0.218262 0.472481
vt 0.218262 0.472481
vt 0.218262 0.472481
vt 0.218262 0.472481
vt 0.218262 0.472481
vt 0.218262 0.472481
vt 0.218262 0.472481
vt 0.218262 0.472481
vt 0.218262 0.472481
vt 0.218262 0.472481
vt 0.218262 0.472481
vt 0.218262 0.472481
vt 0.218262 0.472481
vt 0.218262 0.472481
vt 0.218262 0.472481
vt 0.218262 0.472481
vt 0.218262 0.472481
vn 0.000000 0.000000 1.000000
vn 0.000000 0.000000 1.000000
vn 0.000000 0.000000 1.000000
vn 0.000000 0.000000 1.000000
vn 0.000000 1.000000 0.000000
vn 0.000000 1.000000 0.000000
vn 0.000000 1.000000 0.000000
vn 0.000000 1.000000 0.000000
vn 0.000000 0.000000 -1.000000
vn 0.000000 0.000000 -1.000000
vn 0.000000 0.000000 -1.000000
vn 0.000000 0.000000 -1.000000
vn 0.000000 -1.000000 0.000000
vn 0.000000 -1.000000 0.000000
vn 0.000000 -1.000000 0.000000
vn 0.000000 -1.000000 0.000000
vn 1.000000 0.000000 0.000000
vn 1.000000 0.000000 0.000000
vn 1.000000 0.000000 0.000000
vn 1.000000 0.000000 0.000000
vn -1.000000 0.000000 0.000000
vn -1.000000 0.000000 0.000000
vn -1.000000 0.000000 0.000000
vn -1.000000 0.000000 0.000000
vn 0.000000 0.970634 0.240563
vn 0.000000 0.970634 0.240563
vn 0.000000 0.970634 0.240563
vn 0.000000 0.970634 0.240563
vn 0.144845 0.989454 0.000000
vn 0.144845 0.989454 0.000000
vn 0.144845 0.989454 0.000000
vn 0.144845 0.989454 0.000000
vn 0.000000 0.970634 -0.240563
vn 0.000000 0.970634 -0.240563
vn 0.000000 0.970634 -0.240563
vn 0.000000 0.970634 -0.240563
vn -0.144844 0.989455 0.000000
vn -0.144844 0.989455 0.000000
vn -0.144844 0.989455 0.000000
vn -0.144844 0.989455 0.000000
vn -0.055398 0.996281 0.065995
vn -0.055398 0.996281 0.065995
vn -0.055398 0.996281 0.065995
vn -0.057776 0.996625 -0.058314
vn -0.057776 0.996625 -0.058314
vn -0.057776 0.996625 -0.058314
vn 0.059411 0.996824 -0.053025
vn 0.059411 0.996824 -0.053025
vn 0.059411 0.996824 -0.053025
vn 0.062879 0.997146 0.041778
vn 0.062879 0.997146 0.041778
vn 0.062879 0.997146 0.041778
vn 0.129315 0.987874 0.085921
vn 0.129315 0.987874 0.085921
vn 0.129315 0.987874 0.085921
vn 0.029881 0.971130 -0.236672
vn 0.029881 0.971130 -0.236672
vn 0.029881 0.971130 -0.236672
vn 0.029881 0.971130 -0.236672
vn 0.069064 0.995573 -0.063757
vn 0.069064 0.995573 -0.063757
vn 0.069064 0.995573 -0.063757
vn -0.099717 0.988531 -0.113411
vn -0.099717 0.988531 -0.113411
vn -0.099717 0.988531 -0.113411
vn -0.063684 0.996185 0.059673
vn -0.063684 0.996185 0.059673
vn -0.063684 0.996185 0.059673
vn 0.190729 0.981643 0.000000
vn 0.190729 0.981643 0.000000
vn 0.190729 0.981643 0.000000
vn 0.138368 0.980620 0.138707
vn 0.138368 0.980620 0.138707
vn 0.138368 0.980619 0.138707
vn -0.100016 0.989852 -0.100949
vn -0.100016 0.989852 -0.100949
vn -0.100016 0.989852 -0.100949
vn -0.167266 0.985912 0.000000
vn -0.167266 0.985912 0.000000
vn -0.167266 0.985912 0.000000
vn -0.027235 0.957264 0.287930
vn -0.027235 0.957264 0.287930
vn -0.027235 0.957264 0.287930
vn -0.027235 0.957264 0.287930
vn 0.806495 0.249844 0.535858
vn 0.806495 0.249844 0.535858
vn 0.806495 0.249844 0.535858
vn 0.806495 0.249844 0.535858
vn 0.721734 0.253285 -0.644164
vn 0.721734 0.253285 -0.644164
vn 0.721734 0.253285 -0.644164
vn 0.721734 0.253285 -0.644164
vn 0.000000 0.177541 -0.984113
vn 0.000000 0.177541 -0.984113
vn 0.000000 0.177541 -0.984113
vn 0.000000 0.177541 -0.984113
vn 0.972792 0.231681 0.000000
vn 0.972792 0.231681 0.000000
vn 0.972792 0.231681 0.000000
vn 0.972792 0.231681 0.000000
vn -0.680866 0.253291 -0.687216
vn -0.680866 0.253291 -0.687216
vn -0.680866 0.253291 -0.687216
vn -0.680866 0.253291 -0.687216
vn -0.972792 0.231682 0.000000
vn -0.972792 0.231682 0.000000
vn -0.972792 0.231682 0.000000
vn -0.972792 0.231682 0.000000
vn 0.000000 0.177541 0.984113
vn 0.000000 0.177541 0.984113
vn 0.000000 0.177541 0.984113
vn 0.000000 0.177541 0.984113
vn -0.622200 0.251892 0.741227
vn -0.622200 0.251892 0.741227
vn -0.622200 0.251892 0.741227
vn -0.622200 0.251892 0.741227
s off
f 1/1/1 2/2/2 4/4/3 3/3/4
f 17/24/5 18/26/6 19/23/7 20/25/8
f 5/5/9 6/6/10 8/8/11 7/7/12
f 7/7/13 8/8/14 2/10/15 1/9/16
f 2/2/17 8/11/18 6/12/19 4/4/20
f 7/13/21 1/1/22 3/3/23 5/14/24
f 3/3/25 4/4/26 10/16/27 9/15/28
f 4/4/29 6/6/30 16/22/31 15/21/32
f 6/6/33 5/5/34 12/18/35 11/17/36
f 5/5/37 3/3/38 13/19/39 14/20/40
f 13/19/41 3/3/42 9/15/43
f 5/5/44 14/20/45 12/18/46
f 16/22/47 6/6/48 11/17/49
f 4/4/50 15/21/51 10/16/52
f 19/27/53 21/39/54 22/40/55
f 23/43/56 17/31/57 24/41/58 25/42/59
f 17/31/60 20/34/61 24/41/62
f 26/35/63 18/36/64 17/31/65
f 27/37/66 19/27/67 18/36/68
f 24/41/69 20/34/70 22/40/71
f 22/40/72 20/34/73 19/27/74
f 26/44/75 17/31/76 23/43/77
f 27/45/78 18/36/79 26/44/80
f 28/46/81 21/39/82 19/27/83 27/45/84
f 10/28/85 15/29/86 22/40/87 21/39/88
f 16/32/89 11/33/90 25/42/91 24/41/92
f 11/33/93 12/30/94 23/43/95 25/42/96
f 15/29/97 16/32/98 24/41/99 22/40/100
f 12/30/101 14/47/102 26/44/103 23/43/104
f 14/48/105 13/49/106 27/45/107 26/44/108
f 9/38/109 10/28/110 21/39/111 28/46/112
f 13/50/113 9/38/114 28/46/115 27/45/116
