# This file uses meters as units for non-parametric coordinates.

v 10.507538 17.478975 -18.199574
v -10.507599 17.478975 -18.199581
v -21.015106 17.478975 0.000015
v -10.507599 17.478975 18.199581
v 10.507538 17.478975 18.199581
v 21.015106 17.478975 0.000015
v -10.507599 22.532043 -18.199581
v -21.015106 22.532043 0.000015
v -10.507599 22.532043 18.199581
v 10.507538 22.532043 18.199581
v 21.015106 22.532043 0.000015
v 10.507538 22.532043 -18.199574
v 7.293854 17.478975 -12.633167
v -7.293823 17.478975 -12.633167
v 14.587585 17.478975 0.000015
v 7.293854 17.478975 12.633186
v -7.293823 17.478975 12.633186
v -14.587555 17.478975 0.000015
v -14.587555 22.532043 0.000015
v -7.293732 22.532043 12.633186
v 7.293854 22.532043 12.633186
v 14.587677 22.532043 0.000015
v 7.293854 22.532043 -12.633167
v -7.293732 22.532043 -12.633167
v -16.041153 98.466766 24.118771
v 16.041382 98.466766 24.118771
v -16.041153 121.918907 28.604351
v 16.041382 121.918907 28.604370
v -16.041153 123.005127 22.925335
v 16.041382 123.005127 22.925354
v -16.041153 99.552986 18.439747
v 16.041382 99.552986 18.439747
v 20.639221 102.832550 19.067017
v 20.639221 101.746361 24.746021
v 20.639221 119.725578 22.298046
v 20.639221 118.639366 27.977100
v -20.639175 102.832550 19.066998
v -20.639175 101.746361 24.746021
v -20.639175 118.639366 27.977089
v -20.639175 119.725578 22.298027
v 2.767639 54.508305 21.591183
v 2.767639 63.118217 42.377342
v 2.767639 83.904404 49.104076
v 2.767639 104.690582 42.377342
v -2.767670 54.508305 21.591183
v -2.767670 63.118217 42.377342
v -2.767670 83.904404 49.104076
v -2.767670 104.690582 42.377342
v 2.767639 59.389492 21.591183
v 2.767639 66.569740 38.925842
v 2.767639 83.904404 44.222912
v 2.767639 101.239120 38.925842
v -2.767731 59.389492 21.591183
v -2.767731 66.569740 38.925842
v -2.767731 83.904404 44.222912
v -2.767731 101.239120 38.925842
v 7.830322 -0.455935 -13.562443
v -7.830292 -0.455935 -13.562447
v -15.660553 -0.455935 0.000000
v -7.830292 -0.455935 13.562431
v 7.830322 -0.455935 13.562431
v 15.660583 -0.455935 0.000000
v 0.000000 -0.455935 0.000000
v 2.388092 48.278767 -4.136196
v -2.388031 48.278767 -4.136200
v -4.776093 48.278767 0.000000
v -2.388031 48.278767 4.136200
v 2.388092 48.278767 4.136200
v 4.776154 48.278767 0.000000
v 12.444489 53.184258 -21.554428
v -12.444427 53.184258 -21.554432
v -12.444427 60.735382 -21.554432
v 12.444489 60.735382 -21.554428
v -24.888885 53.184258 0.000000
v -24.888885 60.735382 0.000000
v -12.444427 53.184258 21.554417
v -12.444427 60.735382 21.554417
v 12.444489 53.184258 21.554417
v 12.444489 60.735382 21.554417
v 24.888916 53.184258 0.000000
v 24.888916 60.735382 0.000000
v 0.000031 60.735382 0.000000
v -7.830292 3.357342 -13.562447
v -15.660553 3.357342 0.000000
v -7.830292 3.357342 13.562431
v 7.830322 3.357342 13.562431
v 15.660583 3.357342 0.000000
v 7.830322 3.357342 -13.562443
v 4.776154 5.637759 0.000000
v 2.388092 5.637759 4.136200
v -2.388031 5.637759 4.136200
v -4.776093 5.637759 0.000000
v -2.388031 5.637759 -4.136200
v 2.388092 5.637759 -4.136196
v -2.767670 56.214901 25.711246
v 2.767639 56.214901 25.711246
v 2.767639 50.358353 23.180424
v 2.767639 52.064957 27.300514
v -2.767670 52.064957 27.300514
v -2.767670 50.358353 23.180424
v -2.767731 107.302162 25.025219
v -2.767670 111.626312 26.369919
v 2.767639 111.626312 26.369919
v 2.767639 107.302162 25.025219
v -2.767731 105.981430 28.213802
v -2.767670 110.042572 30.193382
v 2.767639 110.042572 30.193382
v 2.767639 105.981430 28.213802
v -2.767670 113.692329 31.785339
v 2.767639 113.692329 31.785339
v 2.767639 115.276039 27.961887
v -2.767670 115.276039 27.961887
vt 0.116059 0.304292
vt 0.116059 0.304292
vt 0.116059 0.304292
vt 0.116059 0.304292
vt 0.116059 0.304292
vt 0.116059 0.304292
vt 0.116059 0.304292
vt 0.116059 0.304292
vt 0.116059 0.304292
vt 0.116059 0.304292
vt 0.116059 0.304292
vt 0.116059 0.304292
vt 0.116059 0.304292
vt 0.116059 0.304292
vt 0.116059 0.304292
vt 0.116059 0.304292
vt 0.116059 0.304292
vt 0.116059 0.304292
vt 0.116059 0.304292
vt 0.116059 0.304292
vt 0.116059 0.304292
vt 0.116059 0.304292
vt 0.116059 0.304292
vt 0.116059 0.304292
vt 0.116059 0.304292
vt 0.116059 0.304292
vt 0.116059 0.304292
vt 0.116059 0.304292
vt 0.116059 0.304292
vt 0.116059 0.304292
vt 0.116059 0.304292
vt 0.116059 0.304292
vt 0.038757 0.377251
vt 0.038757 0.377251
vt 0.038757 0.377258
vt 0.038757 0.377258
vt 0.038757 0.377258
vt 0.038757 0.377258
vt 0.038757 0.377258
vt 0.038757 0.377258
vt 0.038757 0.377258
vt 0.038757 0.377251
vt 0.038757 0.377251
vt 0.038757 0.377251
vt 0.038757 0.377251
vt 0.038757 0.377258
vt 0.038757 0.377251
vt 0.038757 0.377251
vt 0.116059 0.304292
vt 0.116059 0.304292
vt 0.116059 0.304292
vt 0.116059 0.304292
vt 0.116059 0.304292
vt 0.116059 0.304292
vt 0.116059 0.304292
vt 0.116059 0.304292
vt 0.116059 0.304292
vt 0.116059 0.304292
vt 0.116059 0.304292
vt 0.116059 0.304292
vt 0.116059 0.304292
vt 0.116059 0.304292
vt 0.116059 0.304292
vt 0.116059 0.304292
vt 0.116059 0.304292
vt 0.116059 0.304292
vt 0.116059 0.304292
vt 0.116059 0.304292
vt 0.116059 0.304292
vt 0.116059 0.304292
vt 0.116059 0.304292
vt 0.116059 0.304292
vt 0.116059 0.304292
vt 0.116059 0.304292
vt 0.116059 0.304292
vt 0.116059 0.304292
vt 0.038757 0.377254
vt 0.038757 0.377254
vt 0.038757 0.377254
vt 0.038757 0.377254
vt 0.038757 0.377254
vt 0.038757 0.377254
vt 0.038757 0.377254
vt 0.038757 0.377254
vt 0.038757 0.377254
vt 0.038757 0.377254
vt 0.038757 0.377254
vt 0.038757 0.377254
vt 0.116059 0.304292
vt 0.116059 0.304292
vt 0.116059 0.304292
vt 0.116059 0.304292
vt 0.116059 0.304292
vt 0.116059 0.304292
vt 0.116059 0.304292
vt 0.038757 0.377254
vt 0.116059 0.304292
vt 0.116059 0.304292
vt 0.116059 0.304292
vt 0.116059 0.304292
vt 0.116059 0.304292
vt 0.116059 0.304292
vt 0.116059 0.304292
vt 0.116059 0.304292
vt 0.116059 0.304292
vt 0.116059 0.304292
vt 0.116059 0.304292
vt 0.116059 0.304292
vt 0.116059 0.304292
vt 0.116059 0.304292
vt 0.038757 0.377254
vt 0.038757 0.377254
vt 0.038757 0.377254
vt 0.038757 0.377254
vt 0.038757 0.377254
vt 0.038757 0.377254
vt 0.116059 0.304292
vt 0.116059 0.304292
vt 0.116059 0.304292
vt 0.116059 0.304292
vt 0.116059 0.304292
vt 0.116059 0.304292
vt 0.116059 0.304292
vt 0.116059 0.304292
vt 0.116059 0.304292
vt 0.116059 0.304292
vt 0.116059 0.304292
vt 0.116059 0.304292
vt 0.116059 0.304292
vt 0.116059 0.304292
vt 0.116059 0.304292
vt 0.116059 0.304292
vt 0.116059 0.304292
vt 0.116059 0.304292
vt 0.116059 0.304292
vt 0.116059 0.304292
vt 0.116059 0.304292
vt 0.116059 0.304292
vt 0.116059 0.304292
vt 0.116059 0.304292
vt 0.116059 0.304292
vt 0.116059 0.304292
vt 0.116059 0.304292
vt 0.116059 0.304292
vt 0.116059 0.304292
vt 0.116059 0.304292
vt 0.116059 0.304292
vt 0.116059 0.304292
vt 0.116059 0.304292
vt 0.116059 0.304292
vt 0.116059 0.304292
vt 0.116059 0.304292
vt 0.116059 0.304292
vt 0.116059 0.304292
vt 0.116059 0.304292
vt 0.116059 0.304292
vn -0.866026 0.000000 -0.499999
vn -0.866026 0.000000 -0.499999
vn -0.866026 0.000000 -0.499999
vn -0.866026 0.000000 -0.499999
vn -0.866026 0.000000 0.499999
vn -0.866026 0.000000 0.499999
vn -0.866026 0.000000 0.499999
vn -0.866026 0.000000 0.499999
vn 0.000000 0.000000 1.000000
vn 0.000000 0.000000 1.000000
vn 0.000000 0.000000 1.000000
vn 0.000000 0.000000 1.000000
vn 0.866025 0.000000 0.500001
vn 0.866025 0.000000 0.500001
vn 0.866025 0.000000 0.500001
vn 0.866025 0.000000 0.500001
vn 0.866025 0.000000 -0.500000
vn 0.866025 0.000000 -0.500000
vn 0.866025 0.000000 -0.500000
vn 0.866025 0.000000 -0.500000
vn 0.000000 0.000000 -1.000000
vn 0.000000 0.000000 -1.000000
vn 0.000000 0.000000 -1.000000
vn 0.000000 0.000000 -1.000000
vn 0.000000 -1.000000 -0.000000
vn 0.000000 -1.000000 -0.000000
vn 0.000000 -1.000000 -0.000000
vn 0.000000 -1.000000 -0.000000
vn 0.000000 -1.000000 0.000000
vn 0.000000 -1.000000 0.000000
vn 0.000000 -1.000000 0.000000
vn 0.000000 -1.000000 0.000000
vn 0.000000 -1.000000 0.000000
vn 0.000000 -1.000000 0.000000
vn 0.000000 -1.000000 0.000000
vn 0.000000 -1.000000 0.000000
vn 0.000000 -1.000000 0.000000
vn 0.000000 -1.000000 0.000000
vn 0.000000 -1.000000 0.000000
vn 0.000000 -1.000000 0.000000
vn 0.000000 -1.000000 0.000000
vn 0.000000 -1.000000 0.000000
vn 0.000000 -1.000000 0.000000
vn 0.000000 -1.000000 0.000000
vn 0.000000 -1.000000 0.000000
vn 0.000000 -1.000000 0.000000
vn 0.000000 -1.000000 0.000000
vn 0.000000 -1.000000 0.000000
vn 0.000000 1.000000 -0.000000
vn 0.000000 1.000000 -0.000000
vn 0.000000 1.000000 -0.000000
vn 0.000000 1.000000 -0.000000
vn 0.000000 1.000000 -0.000000
vn 0.000000 1.000000 -0.000000
vn 0.000000 1.000000 -0.000000
vn 0.000000 1.000000 -0.000000
vn 0.000000 1.000000 -0.000000
vn 0.000000 1.000000 -0.000000
vn 0.000000 1.000000 -0.000000
vn 0.000000 1.000000 -0.000000
vn 0.000000 1.000000 0.000000
vn 0.000000 1.000000 0.000000
vn 0.000000 1.000000 0.000000
vn 0.000000 1.000000 0.000000
vn 0.000000 1.000000 0.000000
vn 0.000000 1.000000 0.000000
vn 0.000000 1.000000 0.000000
vn 0.000000 1.000000 0.000000
vn 0.000000 1.000000 0.000000
vn 0.000000 1.000000 0.000000
vn 0.000000 1.000000 0.000000
vn 0.000000 1.000000 0.000000
vn 0.000000 0.000000 1.000000
vn 0.000000 0.000000 1.000000
vn 0.000000 0.000000 1.000000
vn 0.000000 0.000000 1.000000
vn -0.866025 0.000000 0.500001
vn -0.866025 0.000000 0.500000
vn -0.866025 0.000000 0.500001
vn -0.866025 0.000000 0.500001
vn -0.866025 0.000000 -0.500001
vn -0.866025 0.000000 -0.500001
vn -0.866025 0.000000 -0.500001
vn -0.866025 0.000000 -0.500001
vn 0.000000 0.000000 -1.000000
vn 0.000000 0.000000 -1.000000
vn 0.000000 0.000000 -1.000000
vn 0.000000 0.000000 -1.000000
vn 0.866025 0.000000 -0.500001
vn 0.866025 0.000000 -0.500001
vn 0.866025 0.000000 -0.500001
vn 0.866025 0.000000 -0.500001
vn 0.866025 0.000000 0.500001
vn 0.866025 0.000000 0.500000
vn 0.866025 0.000000 0.500001
vn 0.866025 0.000000 0.500001
vn 0.000000 -0.187860 0.982196
vn 0.000000 -0.187860 0.982196
vn 0.000000 -0.187860 0.982196
vn 0.000000 -0.187860 0.982196
vn -0.000000 0.982195 0.187862
vn -0.000000 0.982195 0.187862
vn -0.000000 0.982195 0.187862
vn -0.000000 0.982195 0.187862
vn 0.000000 0.187861 -0.982196
vn 0.000000 0.187861 -0.982196
vn 0.000000 0.187861 -0.982196
vn 0.000000 0.187861 -0.982196
vn 0.000000 -0.982195 -0.187863
vn 0.000000 -0.982195 -0.187863
vn 0.000000 -0.982195 -0.187863
vn 0.000000 -0.982195 -0.187863
vn 1.000000 0.000001 0.000000
vn 1.000000 0.000001 0.000000
vn 1.000000 0.000001 0.000000
vn 1.000000 0.000001 0.000000
vn -1.000000 0.000000 0.000000
vn -1.000000 0.000000 0.000000
vn -1.000000 0.000000 0.000000
vn -1.000000 0.000000 0.000000
vn 0.587611 -0.794738 -0.152005
vn 0.587611 -0.794738 -0.152005
vn 0.587611 -0.794738 -0.152005
vn 0.587611 -0.794738 -0.152005
vn -0.000004 0.187860 -0.982196
vn -0.000004 0.187860 -0.982196
vn -0.000004 0.187860 -0.982196
vn -0.000004 0.187860 -0.982196
vn 0.587607 0.794740 0.152007
vn 0.587607 0.794740 0.152007
vn 0.587607 0.794740 0.152007
vn 0.587607 0.794740 0.152007
vn 0.000001 -0.187861 0.982196
vn 0.000001 -0.187861 0.982196
vn 0.000001 -0.187861 0.982196
vn 0.000001 -0.187861 0.982196
vn -0.587599 -0.794747 -0.152006
vn -0.587599 -0.794747 -0.152006
vn -0.587599 -0.794747 -0.152006
vn -0.587599 -0.794747 -0.152006
vn -0.000003 -0.187861 0.982196
vn -0.000003 -0.187861 0.982196
vn -0.000003 -0.187861 0.982196
vn -0.000003 -0.187861 0.982196
vn -0.587594 0.794750 0.152008
vn -0.587594 0.794750 0.152008
vn -0.587594 0.794750 0.152008
vn -0.587594 0.794749 0.152008
vn 0.000007 0.187859 -0.982196
vn 0.000007 0.187860 -0.982196
vn 0.000007 0.187859 -0.982196
vn 0.000007 0.187859 -0.982196
vn 0.000000 -0.923879 0.382684
vn 0.000000 -0.923879 0.382684
vn 0.000000 -0.923879 0.382684
vn 0.000000 -0.923879 0.382684
vn 0.000000 -0.307895 0.951420
vn 0.000000 -0.307895 0.951420
vn 0.000000 -0.307895 0.951420
vn 0.000000 -0.307895 0.951420
vn 0.000000 0.307895 0.951420
vn 0.000000 0.307895 0.951420
vn 0.000000 0.307895 0.951420
vn 0.000000 0.307895 0.951420
vn 1.000000 0.000001 0.000000
vn 1.000000 0.000001 0.000000
vn 1.000000 0.000001 0.000000
vn 1.000000 0.000001 0.000000
vn 1.000000 0.000000 0.000000
vn 1.000000 0.000000 0.000000
vn 1.000000 0.000000 0.000000
vn 1.000000 0.000000 0.000000
vn 1.000000 -0.000001 0.000000
vn 1.000000 -0.000001 0.000000
vn 1.000000 -0.000001 0.000000
vn 1.000000 -0.000001 0.000000
vn -1.000000 -0.000004 0.000003
vn -1.000000 -0.000004 0.000003
vn -1.000000 -0.000005 0.000003
vn -1.000000 -0.000005 0.000003
vn -1.000000 -0.000001 0.000008
vn -1.000000 -0.000001 0.000008
vn -1.000000 -0.000001 0.000008
vn -1.000000 -0.000001 0.000008
vn -1.000000 0.000002 0.000008
vn -1.000000 0.000002 0.000008
vn -1.000000 0.000002 0.000008
vn -1.000000 0.000002 0.000008
vn 0.000000 0.923879 -0.382684
vn 0.000000 0.923879 -0.382684
vn 0.000000 0.923879 -0.382684
vn 0.000000 0.923879 -0.382684
vn 0.000000 0.292236 -0.956346
vn 0.000000 0.292236 -0.956346
vn 0.000000 0.292236 -0.956346
vn 0.000000 0.292236 -0.956346
vn 0.000000 -0.292236 -0.956346
vn 0.000000 -0.292236 -0.956346
vn 0.000000 -0.292236 -0.956346
vn 0.000000 -0.292236 -0.956346
vn 0.000000 0.000000 -1.000000
vn 0.000000 0.000000 -1.000000
vn 0.000000 0.000000 -1.000000
vn 0.000000 0.000000 -1.000000
vn -0.866025 0.000000 -0.500000
vn -0.866025 0.000000 -0.500000
vn -0.866025 0.000000 -0.500000
vn -0.866025 0.000000 -0.500000
vn -0.866025 0.000000 0.500000
vn -0.866025 0.000000 0.500000
vn -0.866025 0.000000 0.500000
vn -0.866025 0.000000 0.500000
vn 0.000000 0.000000 1.000000
vn 0.000000 0.000000 1.000000
vn 0.000000 0.000000 1.000000
vn 0.000000 0.000000 1.000000
vn 0.866026 0.000000 0.499999
vn 0.866026 0.000000 0.499999
vn 0.866026 0.000000 0.499999
vn 0.866026 0.000000 0.499999
vn 0.866026 0.000000 -0.499999
vn 0.866026 0.000000 -0.499999
vn 0.866026 0.000000 -0.499999
vn 0.866026 0.000000 -0.499999
vn 0.000000 -1.000000 0.000000
vn 0.000000 -1.000000 0.000000
vn 0.000000 -1.000000 0.000000
vn 0.000000 -1.000000 0.000000
vn 0.000000 -1.000000 0.000000
vn 0.000000 -1.000000 0.000000
vn 0.000000 -1.000000 0.000000
vn 0.000000 -1.000000 0.000000
vn 0.000000 -1.000000 0.000000
vn 0.000000 -1.000000 0.000000
vn 0.000000 -1.000000 0.000000
vn 0.000000 -1.000000 0.000000
vn 0.000000 -1.000000 0.000000
vn 0.000000 -1.000000 0.000000
vn 0.000000 -1.000000 0.000000
vn 0.000000 -1.000000 0.000000
vn 0.000000 -1.000000 0.000000
vn 0.000000 -1.000000 0.000000
vn 0.000000 1.000000 0.000000
vn 0.000000 1.000000 0.000000
vn 0.000000 1.000000 0.000000
vn 0.000000 1.000000 0.000000
vn 0.000000 1.000000 0.000000
vn 0.000000 1.000000 0.000000
vn 0.000000 1.000000 0.000000
vn 0.000000 1.000000 0.000000
vn 0.000000 1.000000 0.000000
vn 0.000000 1.000000 0.000000
vn 0.000000 1.000000 0.000000
vn 0.000000 1.000000 0.000000
vn 0.000000 1.000000 0.000000
vn 0.000000 1.000000 0.000000
vn 0.000000 1.000000 0.000000
vn 0.000000 1.000000 0.000000
vn 0.000000 1.000000 0.000000
vn 0.000000 1.000000 0.000000
vn 0.000000 0.971962 -0.235139
vn 0.000000 0.971962 -0.235139
vn 0.000000 0.971962 -0.235139
vn 0.000000 0.971962 -0.235139
vn -0.203636 0.971962 -0.117569
vn -0.203636 0.971962 -0.117569
vn -0.203635 0.971962 -0.117569
vn -0.203635 0.971962 -0.117569
vn -0.203636 0.971962 0.117569
vn -0.203636 0.971962 0.117569
vn -0.203636 0.971962 0.117569
vn -0.203636 0.971962 0.117569
vn 0.000000 0.971962 0.235140
vn 0.000000 0.971962 0.235140
vn 0.000000 0.971962 0.235140
vn 0.000000 0.971962 0.235140
vn 0.203637 0.971962 0.117570
vn 0.203637 0.971962 0.117570
vn 0.203637 0.971962 0.117570
vn 0.203637 0.971962 0.117570
vn 0.203637 0.971962 -0.117570
vn 0.203637 0.971962 -0.117570
vn 0.203637 0.971962 -0.117570
vn 0.203637 0.971962 -0.117570
vn 0.000000 -0.962556 -0.271085
vn 0.000000 -0.962556 -0.271085
vn 0.000000 -0.962556 -0.271085
vn 0.000000 -0.962556 -0.271085
vn -0.234766 -0.962555 -0.135543
vn -0.234766 -0.962555 -0.135543
vn -0.234766 -0.962556 -0.135543
vn -0.234766 -0.962555 -0.135543
vn -0.234766 -0.962555 0.135542
vn -0.234766 -0.962555 0.135542
vn -0.234766 -0.962556 0.135542
vn -0.234766 -0.962556 0.135542
vn 0.000000 -0.962556 0.271085
vn 0.000000 -0.962556 0.271085
vn 0.000000 -0.962556 0.271085
vn 0.000000 -0.962556 0.271085
vn 0.234766 -0.962556 0.135542
vn 0.234766 -0.962556 0.135542
vn 0.234766 -0.962556 0.135542
vn 0.234766 -0.962556 0.135542
vn 0.234765 -0.962556 -0.135542
vn 0.234765 -0.962556 -0.135542
vn 0.234765 -0.962556 -0.135542
vn 0.234765 -0.962556 -0.135542
vn -0.866026 0.000000 -0.500000
vn -0.866026 0.000000 -0.500000
vn -0.866026 0.000000 -0.500000
vn -0.866026 0.000000 -0.500000
vn -0.866025 0.000000 0.500000
vn -0.866025 0.000000 0.500000
vn -0.866025 0.000000 0.500000
vn -0.866025 0.000000 0.500000
vn 0.000000 0.000000 1.000000
vn 0.000000 0.000000 1.000000
vn 0.000000 0.000000 1.000000
vn 0.000000 0.000000 1.000000
vn 0.866025 0.000000 0.500000
vn 0.866025 0.000000 0.500000
vn 0.866025 0.000000 0.500000
vn 0.866025 0.000000 0.500000
vn 0.866026 0.000000 -0.500000
vn 0.866026 0.000000 -0.500000
vn 0.866026 0.000000 -0.500000
vn 0.866026 0.000000 -0.500000
vn 0.000000 0.000000 -1.000000
vn 0.000000 0.000000 -1.000000
vn 0.000000 0.000000 -1.000000
vn 0.000000 0.000000 -1.000000
vn 0.866022 0.000000 0.500006
vn 0.866022 0.000000 0.500006
vn 0.866022 0.000000 0.500006
vn 0.866022 0.000000 0.500006
vn 0.000000 0.000000 1.000000
vn 0.000000 0.000000 1.000000
vn 0.000000 0.000000 1.000000
vn 0.000000 0.000000 1.000000
vn -0.866025 0.000000 0.500000
vn -0.866025 0.000000 0.500000
vn -0.866025 0.000000 0.500000
vn -0.866025 0.000000 0.500000
vn -0.866025 0.000000 -0.500000
vn -0.866025 0.000000 -0.500000
vn -0.866025 0.000000 -0.500000
vn -0.866025 0.000000 -0.500000
vn 0.000001 0.000000 -1.000000
vn 0.000001 0.000000 -1.000000
vn 0.000001 0.000000 -1.000000
vn 0.000001 0.000000 -1.000000
vn 0.866022 0.000000 -0.500007
vn 0.866022 0.000000 -0.500007
vn 0.866022 0.000000 -0.500007
vn 0.866022 0.000000 -0.500007
vn -1.000000 -0.000002 0.000001
vn -1.000000 -0.000004 0.000003
vn -1.000000 -0.000004 0.000003
vn 0.000000 -0.923879 0.382685
vn 0.000000 -0.923879 0.382685
vn 0.000000 -0.923879 0.382685
vn 0.000000 -0.923879 0.382685
vn 1.000000 0.000001 0.000000
vn 1.000000 0.000001 0.000000
vn 1.000000 0.000002 0.000000
vn 1.000000 0.000002 0.000000
vn 1.000000 0.000001 0.000000
vn 1.000000 0.000002 0.000000
vn 1.000000 0.000002 0.000000
vn 0.000000 0.357634 0.933862
vn 0.000000 0.357634 0.933862
vn 0.000000 0.357634 0.933862
vn 0.000000 0.357634 0.933862
vn -1.000000 -0.000004 0.000003
vn -1.000000 -0.000002 0.000001
vn -1.000000 -0.000002 0.000000
vn -1.000000 -0.000002 0.000000
vn 0.000000 -0.357628 -0.933864
vn 0.000000 -0.357628 -0.933864
vn 0.000000 -0.357628 -0.933864
vn 0.000000 -0.357628 -0.933864
vn -1.000000 0.000004 0.000003
vn -1.000000 0.000004 0.000003
vn -1.000000 0.000007 0.000002
vn -1.000000 0.000011 0.000003
vn 0.000000 0.923881 0.382679
vn 0.000000 0.923881 0.382679
vn 0.000000 0.923881 0.382679
vn 0.000000 0.923881 0.382679
vn 1.000000 0.000006 0.000000
vn 1.000000 -0.000000 0.000000
vn 1.000000 0.000004 0.000000
vn 1.000000 0.000006 0.000000
vn 0.000000 -0.923882 -0.382678
vn 0.000000 -0.923882 -0.382678
vn 0.000000 -0.916604 -0.399796
vn 0.000000 -0.916604 -0.399796
vn -1.000000 0.000002 0.000003
vn -1.000000 0.000004 0.000003
vn -1.000000 0.000004 0.000003
vn -1.000000 0.000002 0.000003
vn 0.000000 0.915563 0.402175
vn 0.000000 0.915563 0.402175
vn 0.000000 0.915563 0.402175
vn 0.000000 0.915563 0.402175
vn 1.000000 0.000006 0.000000
vn 1.000000 0.000004 0.000000
vn 1.000000 0.000007 0.000000
vn 1.000000 0.000007 0.000000
vn 0.000000 -0.916604 -0.399796
vn 0.000000 -0.916604 -0.399796
vn 0.000000 -0.914400 -0.404813
vn 0.000000 -0.914400 -0.404813
vn 0.000000 -0.399804 0.916601
vn 0.000000 -0.399804 0.916601
vn 0.000000 -0.399804 0.916601
vn 0.000000 -0.399804 0.916601
vn 1.000000 0.000004 0.000000
vn 1.000000 -0.000000 0.000000
vn 1.000000 -0.000006 0.000000
vn 1.000000 -0.000006 0.000000
vn 0.000000 0.399809 -0.916598
vn 0.000000 0.399809 -0.916598
vn 0.000000 0.399809 -0.916598
vn 0.000000 0.399809 -0.916598
vn -1.000000 0.000007 0.000002
vn -1.000000 0.000004 0.000003
vn -1.000000 0.000003 0.000000
vn -1.000000 0.000003 0.000000
s off
f 2/5/1 3/4/2 8/10/3 7/9/4
f 3/4/5 4/3/6 9/11/7 8/10/8
f 4/3/9 5/2/10 10/12/11 9/11/12
f 5/2/13 6/1/14 11/13/15 10/12/16
f 6/1/17 1/7/18 12/14/19 11/13/20
f 1/6/21 2/5/22 7/9/23 12/8/24
f 2/5/25 1/7/26 13/16/27 14/15/28
f 1/7/29 6/1/30 15/17/31 13/16/32
f 6/1/33 5/2/34 16/18/35 15/17/36
f 5/2/37 4/3/38 17/19/39 16/18/40
f 4/3/41 3/4/42 18/20/43 17/19/44
f 3/4/45 2/5/46 14/15/47 18/20/48
f 8/10/49 9/11/50 20/22/51 19/21/52
f 9/11/53 10/12/54 21/23/55 20/22/56
f 10/12/57 11/13/58 22/24/59 21/23/60
f 11/13/61 12/8/62 23/25/63 22/24/64
f 12/8/65 7/9/66 24/26/67 23/25/68
f 7/9/69 8/10/70 19/21/71 24/26/72
f 14/15/73 13/16/74 23/28/75 24/27/76
f 13/16/77 15/17/78 22/29/79 23/28/80
f 15/17/81 16/18/82 21/30/83 22/29/84
f 16/18/85 17/19/86 20/31/87 21/30/88
f 17/19/89 18/20/90 19/32/91 20/31/92
f 18/20/93 14/15/94 24/27/95 19/32/96
f 25/33/97 26/34/98 28/35/99 27/36/100
f 27/36/101 28/35/102 30/37/103 29/38/104
f 29/38/105 30/37/106 32/39/107 31/40/108
f 31/40/109 32/39/110 26/34/111 25/33/112
f 34/41/113 33/42/114 35/43/115 36/44/116
f 37/45/117 38/46/118 39/47/119 40/48/120
f 26/34/121 32/39/122 33/42/123 34/41/124
f 32/39/125 30/37/126 35/43/127 33/42/128
f 30/37/129 28/35/130 36/44/131 35/43/132
f 28/35/133 26/34/134 34/41/135 36/44/136
f 31/40/137 25/33/138 38/46/139 37/45/140
f 25/33/141 27/36/142 39/47/143 38/46/144
f 27/36/145 29/38/146 40/48/147 39/47/148
f 29/38/149 31/40/150 37/45/151 40/48/152
f 95/49/153 96/50/154 42/51/155 46/52/156
f 42/51/157 43/53/158 47/54/159 46/52/160
f 43/53/161 44/55/162 48/56/163 47/54/164
f 42/57/165 96/58/166 49/59/167 50/60/168
f 43/61/169 42/57/170 50/60/171 51/62/172
f 44/63/173 43/61/174 51/62/175 52/64/176
f 53/65/177 95/66/178 46/67/179 54/68/180
f 46/67/181 47/69/182 55/70/183 54/68/184
f 47/69/185 48/71/186 56/72/187 55/70/188
f 50/60/189 49/59/190 53/73/191 54/74/192
f 51/62/193 50/60/194 54/74/195 55/75/196
f 52/64/197 51/62/198 55/75/199 56/76/200
f 70/77/201 71/78/202 72/79/203 73/80/204
f 71/78/205 74/81/206 75/82/207 72/79/208
f 74/81/209 76/83/210 77/84/211 75/82/212
f 76/83/213 78/85/214 79/86/215 77/84/216
f 78/85/217 80/87/218 81/88/219 79/86/220
f 80/87/221 70/77/222 73/80/223 81/88/224
f 58/89/225 57/90/226 63/91/227
f 59/92/228 58/89/229 63/91/230
f 60/93/231 59/92/232 63/91/233
f 61/94/234 60/93/235 63/91/236
f 62/95/237 61/94/238 63/91/239
f 57/90/240 62/95/241 63/91/242
f 73/80/243 72/79/244 82/96/245
f 72/79/246 75/82/247 82/96/248
f 75/82/249 77/84/250 82/96/251
f 77/84/252 79/86/253 82/96/254
f 79/86/255 81/88/256 82/96/257
f 81/88/258 73/80/259 82/96/260
f 88/97/261 83/98/262 93/99/263 94/100/264
f 83/98/265 84/101/266 92/102/267 93/99/268
f 84/101/269 85/103/270 91/104/271 92/102/272
f 85/103/273 86/105/274 90/106/275 91/104/276
f 86/105/277 87/107/278 89/108/279 90/106/280
f 87/107/281 88/109/282 94/110/283 89/108/284
f 64/111/285 65/112/286 71/78/287 70/77/288
f 65/112/289 66/113/290 74/81/291 71/78/292
f 66/113/293 67/114/294 76/83/295 74/81/296
f 67/114/297 68/115/298 78/85/299 76/83/300
f 68/115/301 69/116/302 80/87/303 78/85/304
f 69/116/305 64/111/306 70/77/307 80/87/308
f 58/117/309 59/118/310 84/101/311 83/98/312
f 59/118/313 60/119/314 85/103/315 84/101/316
f 60/119/317 61/120/318 86/105/319 85/103/320
f 61/120/321 62/121/322 87/107/323 86/105/324
f 62/121/325 57/122/326 88/109/327 87/107/328
f 57/123/329 58/117/330 83/98/331 88/97/332
f 90/106/333 89/108/334 69/124/335 68/125/336
f 91/104/337 90/106/338 68/125/339 67/126/340
f 92/102/341 91/104/342 67/126/343 66/127/344
f 93/99/345 92/102/346 66/127/347 65/128/348
f 94/100/349 93/99/350 65/128/351 64/129/352
f 89/108/353 94/110/354 64/130/355 69/124/356
f 45/131/357 95/66/358 53/65/359
f 97/132/360 98/133/361 99/134/362 100/135/363
f 49/59/364 96/58/365 41/136/366
f 41/137/367 96/50/368 98/133/369 97/132/370
f 96/50/371 95/49/372 99/134/373 98/133/374
f 95/49/375 45/138/376 100/135/377 99/134/378
f 45/138/379 41/137/380 97/132/381 100/135/382
f 105/139/383 106/140/384 102/141/385 101/142/386
f 109/143/387 110/144/388 111/145/389 112/146/390
f 104/147/391 103/148/392 107/149/393 108/150/394
f 101/151/395 104/147/396 108/150/397 105/152/398
f 48/71/399 106/140/400 105/139/401 56/72/402
f 44/55/403 107/153/404 106/154/405 48/56/406
f 108/150/407 107/149/408 44/63/409 52/64/410
f 105/152/411 108/150/412 52/64/413 56/76/414
f 106/154/415 107/153/416 110/144/417 109/143/418
f 107/153/419 103/155/420 111/145/421 110/144/422
f 103/155/423 102/156/424 112/146/425 111/145/426
f 102/156/427 106/154/428 109/143/429 112/146/430
