# This file uses meters as units for non-parametric coordinates.

v -11.571579 11.571503 6.308136
v 0.000000 16.364555 6.308136
v 11.571579 11.571503 6.308136
v 16.364441 0.000000 6.308136
v 11.571579 -11.571465 6.308136
v 0.000000 -16.364555 6.308136
v -11.571579 -11.571465 6.308136
v -16.364441 0.000000 6.308136
v -11.571579 11.571503 -4.861145
v 0.000000 16.364555 -4.861145
v 11.571579 11.571503 -4.861145
v 16.364441 0.000000 -4.861145
v 11.571579 -11.571465 -4.861145
v 0.000000 -16.364555 -4.861145
v -11.571579 -11.571465 -4.861145
v -16.364441 0.000000 -4.861145
v 0.000000 0.000000 6.308136
v 0.000000 0.000000 -4.861145
v -9.400101 9.400940 6.308136
v 0.000229 13.294640 6.308136
v 9.400482 9.400940 6.308136
v 13.294067 0.000687 6.308136
v 9.400482 -9.399605 6.308136
v 0.000229 -13.293304 6.308136
v -9.400101 -9.399529 6.308136
v -13.293686 0.000687 6.308136
v -9.400101 -5.179710 86.443939
v 0.000229 -9.035606 86.984711
v 9.400482 -5.179749 86.443939
v 13.294067 4.129372 85.138474
v 9.400482 13.438644 83.833008
v 0.000229 17.294540 83.292236
v -9.400101 13.438644 83.833008
v -13.293686 4.129372 85.138474
v -0.956802 -14.039955 130.831070
v 8.355637 -16.886177 127.880630
v 18.897095 -14.082985 130.544968
v 22.768555 -5.569420 134.551697
v 17.702713 3.667488 137.554092
v 8.390045 6.513634 140.504837
v -0.932312 2.506142 139.757843
v -6.187668 -4.982872 131.850662
v -4.916306 -5.787392 102.299194
v 4.395981 -8.633423 99.348831
v 13.718567 -4.626045 100.095520
v 17.589951 3.887482 104.102631
v 13.742981 11.920090 109.022217
v 4.430695 14.766235 111.972656
v -4.892044 10.758781 111.225967
v -8.763504 2.245102 107.218933
v 1.318359 -11.880989 131.651001
v 8.359833 -14.033089 129.419785
v 16.627884 -12.207260 131.901932
v 19.555283 -5.769730 134.931641
v 15.427322 1.508446 136.734543
v 8.385849 3.660469 138.965378
v 1.336670 0.630264 138.400497
v -2.974472 -4.782639 131.470718
v 2.380219 -7.865906 127.924271
v 8.361740 -9.694099 126.029205
v 14.350052 -7.119904 126.508865
v 16.836624 -1.651115 129.082565
v 14.365692 3.508301 132.242508
v 8.383942 5.336533 134.137878
v 2.395706 2.762222 133.657913
v -0.090942 -2.706261 131.084137
v 8.372879 -2.178688 130.083771
v 5.324097 -16.949615 52.280426
v 14.724426 -13.093605 51.739731
v 18.618011 -3.784409 50.434265
v 14.724426 5.524864 49.128723
v 5.324097 9.380875 48.587952
v -4.076233 5.524864 49.128723
v -7.969818 -3.784409 50.434265
v -4.076233 -13.093529 51.739655
vt 0.234795 0.229957
vt 0.234795 0.229957
vt 0.234795 0.229957
vt 0.234795 0.229957
vt 0.234795 0.229957
vt 0.234795 0.229957
vt 0.234795 0.229957
vt 0.234795 0.229957
vt 0.234795 0.229957
vt 0.234795 0.229957
vt 0.234795 0.229957
vt 0.234795 0.229957
vt 0.234795 0.229957
vt 0.234795 0.229957
vt 0.234795 0.229957
vt 0.234795 0.229957
vt 0.234795 0.229957
vt 0.234795 0.229957
vt 0.234795 0.229957
vt 0.234795 0.229957
vt 0.234795 0.229957
vt 0.234795 0.229957
vt 0.234795 0.229957
vt 0.234795 0.229957
vt 0.234795 0.229957
vt 0.234795 0.229957
vt 0.234795 0.229957
vt 0.234795 0.229957
vt 0.234795 0.229957
vt 0.234795 0.229957
vt 0.234795 0.229957
vt 0.234795 0.229957
vt 0.234795 0.229957
vt 0.234795 0.229957
vt 0.234795 0.229957
vt 0.234795 0.229957
vt 0.243675 0.327225
vt 0.243675 0.327225
vt 0.243675 0.327225
vt 0.243675 0.327225
vt 0.243675 0.327225
vt 0.243675 0.327225
vt 0.243675 0.327225
vt 0.243675 0.327225
vt 0.243675 0.327225
vt 0.243675 0.327225
vt 0.243675 0.327225
vt 0.243675 0.327225
vt 0.243675 0.327225
vt 0.243675 0.327225
vt 0.243675 0.327225
vt 0.243675 0.327225
vt 0.243675 0.327225
vt 0.243675 0.327225
vt 0.243675 0.327225
vt 0.243675 0.327225
vt 0.243675 0.327225
vt 0.243675 0.327225
vt 0.243675 0.327225
vt 0.243675 0.327225
vt 0.243675 0.327225
vt 0.243675 0.327225
vt 0.243675 0.327225
vt 0.243675 0.327225
vt 0.243675 0.327225
vt 0.243675 0.327225
vt 0.243675 0.327225
vt 0.243675 0.327225
vt 0.243675 0.327225
vt 0.243675 0.327225
vt 0.243675 0.327225
vt 0.243675 0.327225
vt 0.243675 0.327225
vt 0.243675 0.327225
vt 0.243675 0.327225
vt 0.243675 0.327225
vt 0.243675 0.327225
vt 0.243675 0.327225
vt 0.243675 0.327225
vt 0.243675 0.327225
vt 0.243675 0.327225
vt 0.243675 0.327225
vt 0.243675 0.327225
vt 0.243675 0.327225
vt 0.080765 0.230877
vt 0.080765 0.230877
vt 0.080765 0.230877
vt 0.080765 0.230877
vt 0.080765 0.230877
vt 0.080765 0.230877
vt 0.080765 0.230877
vt 0.080765 0.230877
vt 0.080765 0.230877
vt 0.243675 0.327225
vt 0.243675 0.327225
vt 0.243675 0.327225
vt 0.243675 0.327225
vt 0.243675 0.327225
vt 0.243675 0.327225
vt 0.243675 0.327225
vt 0.243675 0.327225
vn -0.382680 0.923881 0.000000
vn -0.382680 0.923881 0.000000
vn -0.382680 0.923881 0.000000
vn -0.382680 0.923881 0.000000
vn 0.382680 0.923881 0.000000
vn 0.382680 0.923881 0.000000
vn 0.382680 0.923881 0.000000
vn 0.382680 0.923881 0.000000
vn 0.923885 0.382669 0.000000
vn 0.923885 0.382669 0.000000
vn 0.923885 0.382669 0.000000
vn 0.923885 0.382669 0.000000
vn 0.923885 -0.382670 0.000000
vn 0.923885 -0.382670 0.000000
vn 0.923885 -0.382670 0.000000
vn 0.923885 -0.382670 0.000000
vn 0.382682 -0.923880 0.000000
vn 0.382682 -0.923880 0.000000
vn 0.382682 -0.923880 0.000000
vn 0.382682 -0.923880 0.000000
vn -0.382682 -0.923880 0.000000
vn -0.382682 -0.923880 0.000000
vn -0.382682 -0.923880 0.000000
vn -0.382682 -0.923880 0.000000
vn -0.923885 -0.382670 0.000000
vn -0.923885 -0.382670 0.000000
vn -0.923885 -0.382670 0.000000
vn -0.923885 -0.382670 0.000000
vn -0.923885 0.382669 0.000000
vn -0.923885 0.382669 0.000000
vn -0.923885 0.382669 0.000000
vn -0.923885 0.382669 0.000000
vn 0.000000 0.000000 1.000000
vn 0.000000 0.000000 1.000000
vn 0.000000 0.000000 1.000000
vn 0.000000 0.000000 1.000000
vn 0.000000 0.000000 1.000000
vn 0.000000 0.000000 1.000000
vn 0.000000 0.000000 1.000000
vn 0.000000 0.000000 1.000000
vn 0.000000 0.000000 1.000000
vn 0.000000 0.000000 1.000000
vn 0.000000 0.000000 1.000000
vn 0.000000 0.000000 1.000000
vn 0.000000 0.000000 1.000000
vn 0.000000 0.000000 1.000000
vn 0.000000 0.000000 1.000000
vn -0.000000 0.000000 1.000000
vn -0.000000 0.000000 1.000000
vn -0.000000 0.000000 1.000000
vn 0.000000 0.000000 1.000000
vn 0.000000 0.000000 1.000000
vn 0.000000 0.000000 1.000000
vn 0.000000 0.000000 1.000000
vn 0.000000 0.000000 1.000000
vn 0.000000 0.000000 1.000000
vn 0.000000 0.000000 -1.000000
vn 0.000000 0.000000 -1.000000
vn 0.000000 0.000000 -1.000000
vn 0.000000 0.000000 -1.000000
vn 0.000000 0.000000 -1.000000
vn 0.000000 0.000000 -1.000000
vn 0.000000 0.000000 -1.000000
vn 0.000000 0.000000 -1.000000
vn 0.000000 0.000000 -1.000000
vn 0.000000 0.000000 -1.000000
vn 0.000000 0.000000 -1.000000
vn 0.000000 0.000000 -1.000000
vn -0.000000 0.000000 -1.000000
vn -0.000000 0.000000 -1.000000
vn -0.000000 0.000000 -1.000000
vn 0.000000 0.000000 -1.000000
vn 0.000000 0.000000 -1.000000
vn 0.000000 0.000000 -1.000000
vn 0.000000 0.000000 -1.000000
vn 0.000000 0.000000 -1.000000
vn 0.000000 0.000000 -1.000000
vn 0.000000 0.000000 -1.000000
vn 0.000000 0.000000 -1.000000
vn 0.000000 0.000000 -1.000000
vn -0.364985 -0.921513 0.132665
vn -0.367521 -0.920159 0.135042
vn -0.382760 -0.922594 0.048111
vn -0.382782 -0.922522 0.049303
vn 0.386242 -0.908037 0.162131
vn 0.385485 -0.905753 0.176106
vn 0.384098 -0.921752 0.053310
vn 0.383912 -0.922344 0.043511
vn 0.928946 -0.360399 0.084687
vn 0.928868 -0.360344 0.085768
vn 0.925823 -0.376911 0.028114
vn 0.925522 -0.378495 0.012245
vn 0.913069 0.407182 -0.022519
vn 0.912322 0.408444 -0.029016
vn 0.922586 0.385400 -0.017375
vn 0.922695 0.384876 -0.022472
vn 0.365547 0.927329 -0.080222
vn 0.364718 0.927925 -0.077045
vn 0.382819 0.922518 -0.049091
vn 0.382784 0.922635 -0.047129
vn -0.389617 0.917498 -0.079977
vn -0.389480 0.917005 -0.086058
vn -0.383997 0.922338 -0.042874
vn -0.384181 0.921756 -0.052644
vn -0.930084 0.364506 -0.045600
vn -0.929513 0.363675 -0.061206
vn -0.925551 0.378436 -0.011848
vn -0.925861 0.376801 -0.028312
vn -0.912061 -0.408787 0.032221
vn -0.913160 -0.406970 0.022677
vn -0.922706 -0.384851 0.022444
vn -0.922603 -0.385346 0.017653
vn -0.347279 -0.912601 -0.215770
vn -0.347279 -0.912601 -0.215770
vn -0.343900 -0.931278 -0.120230
vn -0.343550 -0.932231 -0.113665
vn 0.355934 -0.878416 -0.318899
vn 0.355934 -0.878416 -0.318899
vn 0.368783 -0.897418 -0.242157
vn 0.364491 -0.891330 -0.269587
vn 0.920327 -0.300861 -0.249963
vn 0.920327 -0.300860 -0.249963
vn 0.913510 -0.325749 -0.243696
vn 0.916682 -0.314486 -0.246561
vn 0.888635 0.458616 0.000021
vn 0.888635 0.458616 0.000021
vn 0.891784 0.446084 -0.075703
vn 0.891270 0.450826 -0.048923
vn 0.347280 0.912601 0.215767
vn 0.347280 0.912601 0.215767
vn 0.344833 0.931538 0.115440
vn 0.345333 0.929711 0.127991
vn -0.396601 0.865690 0.305431
vn -0.396601 0.865690 0.305431
vn -0.392550 0.889064 0.235518
vn -0.391541 0.892949 0.222120
vn -0.908621 0.357540 0.215811
vn -0.908620 0.357540 0.215811
vn -0.908799 0.360578 0.209922
vn -0.908873 0.362074 0.207009
vn -0.886497 -0.462028 -0.025560
vn -0.886497 -0.462028 -0.025560
vn -0.889729 -0.454701 0.040360
vn -0.889861 -0.450103 0.074533
vn -0.343550 -0.932231 -0.113665
vn -0.343900 -0.931278 -0.120230
vn -0.367521 -0.920159 0.135042
vn -0.364985 -0.921513 0.132665
vn 0.364491 -0.891330 -0.269587
vn 0.368783 -0.897418 -0.242157
vn 0.385485 -0.905753 0.176106
vn 0.386242 -0.908037 0.162131
vn 0.916682 -0.314486 -0.246561
vn 0.913510 -0.325749 -0.243696
vn 0.928868 -0.360344 0.085768
vn 0.928946 -0.360399 0.084687
vn 0.891270 0.450826 -0.048923
vn 0.891784 0.446084 -0.075703
vn 0.912322 0.408444 -0.029016
vn 0.913069 0.407182 -0.022519
vn 0.345333 0.929711 0.127991
vn 0.344833 0.931538 0.115440
vn 0.364718 0.927925 -0.077045
vn 0.365547 0.927329 -0.080222
vn -0.391541 0.892949 0.222120
vn -0.392550 0.889064 0.235518
vn -0.389480 0.917005 -0.086058
vn -0.389617 0.917498 -0.079977
vn -0.908873 0.362074 0.207009
vn -0.908799 0.360578 0.209922
vn -0.929513 0.363675 -0.061206
vn -0.930084 0.364506 -0.045600
vn -0.889861 -0.450103 0.074533
vn -0.889729 -0.454701 0.040360
vn -0.913160 -0.406970 0.022677
vn -0.912061 -0.408787 0.032221
vn 0.132473 -0.470794 0.872241
vn 0.132473 -0.470794 0.872241
vn 0.132473 -0.470794 0.872241
vn 0.132473 -0.470794 0.872241
vn -0.091154 -0.551489 0.829187
vn -0.091154 -0.551489 0.829187
vn -0.091154 -0.551489 0.829187
vn -0.091154 -0.551489 0.829187
vn 0.132480 -0.470756 0.872260
vn 0.132480 -0.470756 0.872260
vn 0.132480 -0.470756 0.872260
vn 0.132480 -0.470756 0.872260
vn 0.035017 -0.261189 0.964652
vn 0.035017 -0.261189 0.964652
vn 0.035017 -0.261189 0.964653
vn 0.035017 -0.261189 0.964653
vn 0.132481 -0.470778 0.872248
vn 0.132481 -0.470778 0.872248
vn 0.132481 -0.470778 0.872248
vn 0.132481 -0.470778 0.872248
vn 0.132503 -0.470826 0.872219
vn 0.132503 -0.470826 0.872219
vn 0.132503 -0.470826 0.872219
vn 0.132503 -0.470826 0.872219
vn -0.018693 -0.748468 0.662908
vn -0.018693 -0.748468 0.662908
vn -0.018693 -0.748468 0.662908
vn -0.018693 -0.748468 0.662908
vn -0.045948 -0.078823 0.995829
vn -0.045948 -0.078823 0.995829
vn -0.045948 -0.078823 0.995829
vn -0.045948 -0.078823 0.995829
vn 0.401084 0.563937 0.721878
vn 0.401084 0.563937 0.721878
vn 0.401084 0.563937 0.721878
vn 0.401084 0.563937 0.721878
vn -0.335701 0.597507 0.728210
vn -0.335701 0.597507 0.728210
vn -0.335701 0.597507 0.728210
vn -0.335701 0.597507 0.728210
vn -0.851558 0.150932 0.502064
vn -0.851558 0.150932 0.502064
vn -0.851558 0.150932 0.502064
vn -0.851558 0.150932 0.502064
vn -0.876651 -0.479730 0.036628
vn -0.876651 -0.479730 0.036628
vn -0.876651 -0.479730 0.036628
vn -0.876651 -0.479730 0.036628
vn -0.365451 -0.879390 -0.305154
vn -0.365451 -0.879390 -0.305154
vn -0.365451 -0.879390 -0.305154
vn -0.365451 -0.879390 -0.305154
vn 0.396869 -0.867059 -0.301172
vn 0.396869 -0.867059 -0.301172
vn 0.396869 -0.867059 -0.301172
vn 0.396869 -0.867059 -0.301172
vn 0.792477 -0.598333 0.118228
vn 0.792477 -0.598334 0.118228
vn 0.792477 -0.598333 0.118228
vn 0.792477 -0.598333 0.118228
vn 0.601823 0.141013 0.786082
vn 0.601823 0.141013 0.786082
vn 0.601823 0.141013 0.786082
vn 0.601823 0.141013 0.786082
vn 0.132460 -0.470776 0.872252
vn 0.132460 -0.470777 0.872252
vn 0.132460 -0.470776 0.872252
vn 0.132503 -0.470774 0.872247
vn 0.132503 -0.470774 0.872247
vn 0.132503 -0.470774 0.872247
vn 0.132527 -0.470754 0.872254
vn 0.132527 -0.470754 0.872254
vn 0.132527 -0.470754 0.872254
vn 0.132527 -0.470753 0.872254
vn 0.132527 -0.470753 0.872254
vn 0.132527 -0.470753 0.872254
vn 0.132510 -0.470740 0.872264
vn 0.132510 -0.470740 0.872264
vn 0.132510 -0.470740 0.872264
vn 0.132459 -0.470744 0.872270
vn 0.132459 -0.470744 0.872270
vn 0.132459 -0.470744 0.872270
vn 0.132438 -0.470760 0.872264
vn 0.132438 -0.470760 0.872264
vn 0.132438 -0.470760 0.872264
vn 0.132437 -0.470761 0.872264
vn 0.132437 -0.470761 0.872264
vn 0.132437 -0.470761 0.872264
vn 0.383912 -0.922344 0.043511
vn 0.384098 -0.921752 0.053310
vn 0.375556 -0.919299 -0.117675
vn 0.375556 -0.919299 -0.117675
vn 0.925522 -0.378495 0.012245
vn 0.925823 -0.376911 0.028114
vn 0.910516 -0.388790 -0.140723
vn 0.910516 -0.388790 -0.140723
vn 0.922695 0.384876 -0.022472
vn 0.922586 0.385400 -0.017375
vn 0.922253 0.378300 -0.079610
vn 0.922253 0.378300 -0.079610
vn 0.382784 0.922635 -0.047129
vn 0.382819 0.922518 -0.049091
vn 0.379925 0.924274 0.037069
vn 0.379925 0.924274 0.037069
vn -0.384181 0.921756 -0.052644
vn -0.383997 0.922338 -0.042874
vn -0.374598 0.917902 0.130892
vn -0.374598 0.917902 0.130892
vn -0.925861 0.376801 -0.028312
vn -0.925551 0.378436 -0.011848
vn -0.909731 0.388807 0.145667
vn -0.909731 0.388807 0.145667
vn -0.922603 -0.385346 0.017653
vn -0.922706 -0.384851 0.022444
vn -0.922327 -0.378444 0.078053
vn -0.922327 -0.378444 0.078053
vn -0.382782 -0.922522 0.049303
vn -0.382760 -0.922594 0.048111
vn -0.380193 -0.924419 -0.030049
vn -0.380193 -0.924419 -0.030049
s off
f 1/1/1 2/2/2 10/3/3 9/4/4
f 2/2/5 3/5/6 11/6/7 10/3/8
f 3/5/9 4/7/10 12/8/11 11/6/12
f 4/7/13 5/9/14 13/10/15 12/8/16
f 5/9/17 6/11/18 14/12/19 13/10/20
f 6/11/21 7/13/22 15/14/23 14/12/24
f 7/13/25 8/15/26 16/16/27 15/14/28
f 8/15/29 1/17/30 9/18/31 16/16/32
f 2/19/33 1/20/34 17/21/35
f 3/22/36 2/19/37 17/21/38
f 4/23/39 3/22/40 17/21/41
f 5/24/42 4/23/43 17/21/44
f 6/25/45 5/24/46 17/21/47
f 7/26/48 6/25/49 17/21/50
f 8/27/51 7/26/52 17/21/53
f 1/20/54 8/27/55 17/21/56
f 9/28/57 10/29/58 18/30/59
f 10/29/60 11/31/61 18/30/62
f 11/31/63 12/32/64 18/30/65
f 12/32/66 13/33/67 18/30/68
f 13/33/69 14/34/70 18/30/71
f 14/34/72 15/35/73 18/30/74
f 15/35/75 16/36/76 18/30/77
f 16/36/78 9/28/79 18/30/80
f 28/37/81 27/38/82 75/39/83 68/40/84
f 29/41/85 28/37/86 68/40/87 69/42/88
f 30/43/89 29/41/90 69/42/91 70/44/92
f 31/45/93 30/43/94 70/44/95 71/46/96
f 32/47/97 31/45/98 71/46/99 72/48/100
f 33/49/101 32/47/102 72/48/103 73/50/104
f 34/51/105 33/49/106 73/50/107 74/52/108
f 27/38/109 34/51/110 74/52/111 75/39/112
f 36/53/113 35/54/114 43/55/115 44/56/116
f 37/57/117 36/53/118 44/56/119 45/58/120
f 38/59/121 37/57/122 45/58/123 46/60/124
f 39/61/125 38/59/126 46/60/127 47/62/128
f 40/63/129 39/61/130 47/62/131 48/64/132
f 41/65/133 40/63/134 48/64/135 49/66/136
f 42/67/137 41/65/138 49/66/139 50/68/140
f 35/54/141 42/67/142 50/68/143 43/55/144
f 44/56/145 43/55/146 27/38/147 28/37/148
f 45/58/149 44/56/150 28/37/151 29/41/152
f 46/60/153 45/58/154 29/41/155 30/43/156
f 47/62/157 46/60/158 30/43/159 31/45/160
f 48/64/161 47/62/162 31/45/163 32/47/164
f 49/66/165 48/64/166 32/47/167 33/49/168
f 50/68/169 49/66/170 33/49/171 34/51/172
f 43/55/173 50/68/174 34/51/175 27/38/176
f 35/54/177 36/53/178 52/69/179 51/70/180
f 36/53/181 37/57/182 53/71/183 52/69/184
f 37/57/185 38/59/186 54/72/187 53/71/188
f 38/59/189 39/61/190 55/73/191 54/72/192
f 39/61/193 40/63/194 56/74/195 55/73/196
f 40/63/197 41/65/198 57/75/199 56/74/200
f 41/65/201 42/67/202 58/76/203 57/75/204
f 42/67/205 35/54/206 51/70/207 58/76/208
f 51/70/209 52/69/210 60/77/211 59/78/212
f 52/69/213 53/71/214 61/79/215 60/77/216
f 53/71/217 54/72/218 62/80/219 61/79/220
f 54/72/221 55/73/222 63/81/223 62/80/224
f 55/73/225 56/74/226 64/82/227 63/81/228
f 56/74/229 57/75/230 65/83/231 64/82/232
f 57/75/233 58/76/234 66/84/235 65/83/236
f 58/76/237 51/70/238 59/78/239 66/84/240
f 59/85/241 60/86/242 67/87/243
f 60/86/244 61/88/245 67/87/246
f 61/88/247 62/89/248 67/87/249
f 62/89/250 63/90/251 67/87/252
f 63/90/253 64/91/254 67/87/255
f 64/91/256 65/92/257 67/87/258
f 65/92/259 66/93/260 67/87/261
f 66/93/262 59/85/263 67/87/264
f 69/42/265 68/40/266 24/94/267 23/95/268
f 70/44/269 69/42/270 23/95/271 22/96/272
f 71/46/273 70/44/274 22/96/275 21/97/276
f 72/48/277 71/46/278 21/97/279 20/98/280
f 73/50/281 72/48/282 20/98/283 19/99/284
f 74/52/285 73/50/286 19/99/287 26/100/288
f 75/39/289 74/52/290 26/100/291 25/101/292
f 68/40/293 75/39/294 25/101/295 24/94/296
