# This file uses meters as units for non-parametric coordinates.

v -18.223602 1.086394 54.128571
v -7.299805 1.086394 61.873474
v -15.168182 11.286128 49.469452
v -6.075714 11.286128 56.547699
v 18.223267 1.086394 54.128571
v 7.298889 1.086394 61.873474
v 15.167847 11.286128 49.469452
v 6.075134 11.286128 56.547699
v -15.168182 11.286128 -49.469452
v -6.075714 11.286128 -56.547699
v -18.223602 1.086394 -54.128571
v -7.299805 1.086394 -61.873474
v 6.075134 11.286128 -56.547699
v 15.167847 11.286128 -49.469452
v 18.223267 1.086394 -54.128571
v 7.298889 1.086394 -61.873474
v -3.114014 11.286128 52.496033
v -10.547821 11.286128 45.924530
v 3.114014 11.286128 52.496033
v 10.547485 11.286128 45.924530
v 10.547485 11.286128 -45.925293
v 3.114014 11.286128 -52.496185
v -3.114014 11.286128 -52.496185
v -10.547821 11.286128 -45.925293
v -1.342163 7.784524 50.111542
v -7.783478 7.784524 43.838654
v 1.342163 7.784524 50.111542
v 7.783203 7.784524 43.838654
v 7.783203 7.784524 -43.839111
v 1.342163 7.784524 -50.111694
v -1.342163 7.784524 -50.111694
v -7.783478 7.784524 -43.839111
v 5.510254 8.561419 -45.052948
v 4.248047 9.820118 -43.282318
v 5.510254 8.561419 45.851746
v 4.248047 9.820118 44.081116
v -5.510254 8.561419 45.851746
v -4.248657 9.820118 44.081116
v -5.510254 8.561419 -45.052948
v -4.248657 9.820118 -43.282318
v -5.510254 7.784525 -45.052948
v 5.510254 7.784525 -45.052948
v 5.510254 7.784525 45.851746
v -5.510254 7.784525 45.851746
v -2.204590 11.666203 -37.196655
v -2.730103 9.820118 -37.196655
v 2.729492 9.820118 -37.196655
v 2.203979 11.666203 -37.196655
v 0.000000 12.551212 -37.196655
v -2.204590 11.666203 38.575439
v -2.730103 9.820118 38.575439
v 2.729492 9.820118 38.575439
v 2.203979 11.666203 38.575439
v 0.000000 12.551212 38.575439
v -2.883911 12.001514 -37.196655
v -3.571777 9.820118 -37.196655
v 3.571167 9.820118 -37.196655
v 2.883911 12.001514 -37.196655
v 0.000000 13.221684 -37.196655
v -2.883911 12.001514 38.575439
v -3.571777 9.820118 38.575439
v 3.571167 9.820118 38.575439
v 2.883911 12.001514 38.575439
v 0.000000 13.221684 38.575439
v -2.883911 12.001514 -39.987488
v -3.571777 9.820118 -39.987488
v 3.571167 9.820118 -39.987488
v 2.883911 12.001514 -39.987488
v 0.000000 13.221684 -39.987488
v -2.883911 12.001514 41.366119
v -3.571777 9.820118 41.366119
v 3.571167 9.820118 41.366119
v 2.883911 12.001514 41.366119
v 0.000000 13.221684 41.366119
v -2.258911 11.693287 -41.870422
v -2.797852 9.820118 -41.870422
v 0.000000 9.820118 -41.870422
v 2.797241 9.820118 -41.870422
v 2.258911 11.693287 -41.870422
v 0.000000 12.605228 -41.870422
v -2.258911 11.693287 43.249054
v -2.797852 9.820118 43.249054
v 0.000000 9.820118 43.249054
v 2.797241 9.820118 43.249054
v 2.258911 11.693287 43.249054
v 0.000000 12.605228 43.249054
v -13.223267 0.000000 -35.750275
v -20.354279 0.000000 -31.156769
v -13.223267 6.086393 -35.750275
v -20.354279 6.086393 -31.156769
v -13.223267 6.086393 35.750275
v -20.354279 6.086393 31.156769
v -13.223267 0.000000 35.750275
v -20.354279 0.000000 31.156769
v 13.223267 0.000000 35.750275
v 20.354004 0.000000 31.156769
v 13.223267 6.086393 35.750275
v 20.354004 6.086393 31.156769
v 13.223267 6.086393 -35.750275
v 20.354004 6.086393 -31.156769
v 13.223267 0.000000 -35.750275
v 20.354004 0.000000 -31.156769
vt 0.233535 0.323917
vt 0.233535 0.323917
vt 0.233535 0.323917
vt 0.233535 0.323917
vt 0.233535 0.323917
vt 0.233535 0.323917
vt 0.233535 0.323917
vt 0.233535 0.323917
vt 0.233535 0.323917
vt 0.233535 0.323917
vt 0.233535 0.323917
vt 0.233535 0.323917
vt 0.233535 0.323917
vt 0.233535 0.323917
vt 0.233535 0.323917
vt 0.233535 0.323917
vt 0.233535 0.323917
vt 0.233535 0.323917
vt 0.233535 0.323917
vt 0.233535 0.323917
vt 0.233535 0.323917
vt 0.233535 0.323917
vt 0.233535 0.323917
vt 0.233535 0.323917
vt 0.233535 0.323917
vt 0.233535 0.323917
vt 0.233535 0.323917
vt 0.233535 0.323917
vt 0.233535 0.323917
vt 0.233535 0.323917
vt 0.233535 0.323917
vt 0.233535 0.323917
vt 0.233535 0.323917
vt 0.233535 0.323917
vt 0.233535 0.323917
vt 0.233535 0.323917
vt 0.233535 0.323917
vt 0.233535 0.323917
vt 0.233535 0.323917
vt 0.233535 0.323917
vt 0.233535 0.323917
vt 0.233535 0.323917
vt 0.233551 0.229865
vt 0.233551 0.229865
vt 0.233551 0.229865
vt 0.233551 0.229865
vt 0.233551 0.229865
vt 0.233551 0.229865
vt 0.233551 0.229865
vt 0.233551 0.229865
vt 0.235411 0.330367
vt 0.235411 0.330367
vt 0.235411 0.330367
vt 0.235411 0.330367
vt 0.235411 0.330367
vt 0.235411 0.330367
vt 0.235411 0.330367
vt 0.235411 0.330367
vt 0.235411 0.330367
vt 0.235411 0.330367
vt 0.235411 0.330367
vt 0.235411 0.330367
vt 0.235411 0.330367
vt 0.235411 0.330367
vt 0.235411 0.330367
vt 0.235411 0.330367
vt 0.235411 0.330367
vt 0.235411 0.330367
vt 0.265296 0.039318
vt 0.265296 0.039318
vt 0.265296 0.039318
vt 0.265296 0.039318
vt 0.265296 0.039318
vt 0.265296 0.039318
vt 0.265296 0.039318
vt 0.265296 0.039318
vt 0.265296 0.039318
vt 0.265296 0.039318
vt 0.234390 0.280899
vt 0.234390 0.280899
vt 0.234390 0.280899
vt 0.234390 0.280899
vt 0.234390 0.280899
vt 0.234390 0.280899
vt 0.234390 0.280899
vt 0.234390 0.280899
vt 0.234390 0.280899
vt 0.234390 0.280899
vt 0.234390 0.280899
vt 0.234390 0.280899
vt 0.234390 0.280899
vt 0.234390 0.280899
vt 0.234390 0.280899
vt 0.234390 0.280899
vt 0.234390 0.280899
vt 0.234390 0.280899
vt 0.234390 0.280899
vt 0.234390 0.280899
vt 0.234390 0.280899
vt 0.234390 0.280899
vt 0.234390 0.280899
vt 0.234390 0.280899
vt 0.234390 0.280899
vt 0.234390 0.280899
vt 0.234390 0.280899
vt 0.234390 0.280899
vt 0.234390 0.280899
vt 0.234390 0.280899
vt 0.234390 0.280899
vt 0.234390 0.280899
vt 0.234390 0.280899
vt 0.234390 0.280899
vt 0.234390 0.280899
vt 0.234390 0.280899
vt 0.234390 0.280899
vt 0.234390 0.280899
vt 0.234390 0.280899
vt 0.234390 0.280899
vt 0.234390 0.280899
vt 0.234390 0.280899
vt 0.235504 0.276530
vt 0.235504 0.276530
vt 0.235504 0.276530
vt 0.235504 0.276530
vt 0.235504 0.276530
vt 0.235504 0.276530
vt 0.235504 0.276530
vt 0.235504 0.276530
vt 0.235504 0.276530
vt 0.235504 0.276530
vt 0.235504 0.276530
vt 0.235504 0.276530
vt 0.235504 0.276530
vt 0.235504 0.276530
vt 0.235504 0.276530
vt 0.235504 0.276530
vt 0.235504 0.276530
vt 0.235504 0.276530
vt 0.235504 0.276530
vt 0.235504 0.276530
vt 0.235504 0.276530
vt 0.235504 0.276530
vt 0.235504 0.276530
vt 0.235504 0.276530
vn 0.000000 0.462851 0.886436
vn 0.000000 0.462851 0.886436
vn 0.000000 0.462851 0.886436
vn 0.000000 0.462851 0.886436
vn 0.000000 0.462851 -0.886436
vn 0.000000 0.462851 -0.886436
vn 0.000000 0.462851 -0.886436
vn 0.000000 0.462851 -0.886436
vn 0.957943 0.286960 0.000000
vn 0.957943 0.286960 0.000000
vn 0.957943 0.286960 0.000000
vn 0.957943 0.286960 0.000000
vn -0.957943 0.286960 0.000000
vn -0.957943 0.286960 0.000000
vn -0.957943 0.286960 0.000000
vn -0.957943 0.286960 0.000000
vn 0.000000 1.000000 0.000000
vn 0.000000 1.000000 0.000000
vn 0.000000 1.000000 0.000000
vn 0.000000 1.000000 0.000000
vn 0.000000 1.000000 0.000000
vn 0.000000 1.000000 0.000000
vn 0.000000 1.000000 0.000000
vn 0.000000 1.000000 0.000000
vn 0.000000 -1.000000 -0.000000
vn 0.000000 -1.000000 -0.000000
vn 0.000000 -1.000000 -0.000000
vn 0.000000 -1.000000 -0.000000
vn 0.000000 -1.000000 -0.000000
vn 0.000000 -1.000000 -0.000000
vn 0.000000 -1.000000 -0.000000
vn 0.000000 -1.000000 -0.000000
vn -0.528399 0.460095 0.713518
vn -0.528399 0.460095 0.713518
vn -0.528399 0.460095 0.713518
vn -0.528399 0.460095 0.713518
vn 0.528387 0.460090 0.713530
vn 0.528387 0.460090 0.713530
vn 0.528387 0.460090 0.713530
vn 0.528387 0.460090 0.713530
vn -0.528399 0.460095 -0.713518
vn -0.528399 0.460095 -0.713518
vn -0.528399 0.460095 -0.713518
vn -0.528399 0.460095 -0.713518
vn 0.528387 0.460090 -0.713530
vn 0.528387 0.460090 -0.713530
vn 0.528387 0.460090 -0.713530
vn 0.528387 0.460090 -0.713530
vn 0.000000 1.000000 0.000000
vn 0.000000 1.000000 0.000000
vn 0.000000 1.000000 0.000000
vn 0.000000 1.000000 0.000000
vn 0.000000 1.000000 0.000000
vn 0.000000 1.000000 0.000000
vn 0.000000 1.000000 0.000000
vn 0.000000 1.000000 0.000000
vn 0.000000 1.000000 0.000000
vn 0.000000 1.000000 0.000000
vn 0.000000 1.000000 0.000000
vn 0.000000 1.000000 0.000000
vn 0.000000 1.000000 0.000000
vn 0.000000 1.000000 0.000000
vn 0.000000 1.000000 0.000000
vn 0.000000 1.000000 0.000000
vn 0.000000 1.000000 0.000000
vn 0.000000 1.000000 0.000000
vn 0.000000 1.000000 0.000000
vn 0.000000 1.000000 0.000000
vn 0.000000 1.000000 0.000000
vn 0.000000 1.000000 0.000000
vn 0.000000 1.000000 0.000000
vn 0.000000 1.000000 0.000000
vn 0.000000 1.000000 0.000000
vn 0.000000 1.000000 0.000000
vn 0.000000 1.000000 0.000000
vn 0.000000 1.000000 0.000000
vn 0.000000 1.000000 0.000000
vn 0.000000 1.000000 0.000000
vn 0.000000 1.000000 0.000000
vn 0.000000 1.000000 0.000000
vn 0.502819 0.672414 -0.543169
vn 0.502819 0.672414 -0.543169
vn 0.502819 0.672414 -0.543169
vn 0.502819 0.672414 -0.543169
vn 0.000000 0.562859 -0.826553
vn 0.000000 0.562859 -0.826553
vn 0.000000 0.562859 -0.826553
vn 0.000000 0.562859 -0.826553
vn -0.502833 0.672411 -0.543160
vn -0.502833 0.672411 -0.543160
vn -0.502833 0.672411 -0.543160
vn -0.502833 0.672411 -0.543160
vn -0.784898 0.619625 0.000000
vn -0.784898 0.619625 0.000000
vn -0.784898 0.619625 0.000000
vn -0.784898 0.619625 0.000000
vn -0.502806 0.672424 0.543169
vn -0.502806 0.672424 0.543169
vn -0.502806 0.672424 0.543169
vn -0.502806 0.672424 0.543169
vn 0.000000 0.562859 0.826553
vn 0.000000 0.562859 0.826553
vn 0.000000 0.562859 0.826553
vn 0.000000 0.562859 0.826553
vn 0.502792 0.672426 0.543179
vn 0.502792 0.672426 0.543179
vn 0.502792 0.672426 0.543179
vn 0.502792 0.672426 0.543179
vn 0.784892 0.619633 0.000000
vn 0.784892 0.619633 0.000000
vn 0.784892 0.619633 0.000000
vn 0.784892 0.619633 0.000000
vn 0.706122 0.708090 0.000000
vn 0.706122 0.708090 0.000000
vn 0.706122 0.708090 0.000000
vn 0.706122 0.708090 0.000000
vn 0.000000 0.815046 0.579397
vn 0.000000 0.815046 0.579397
vn 0.000000 0.815046 0.579397
vn 0.000000 0.815046 0.579397
vn -0.706293 0.707919 0.000000
vn -0.706293 0.707919 0.000000
vn -0.706293 0.707919 0.000000
vn -0.706293 0.707919 0.000000
vn 0.000000 0.815046 -0.579397
vn 0.000000 0.815046 -0.579397
vn 0.000000 0.815046 -0.579397
vn 0.000000 0.815046 -0.579397
vn 0.000000 1.000000 0.000000
vn 0.000000 1.000000 0.000000
vn 0.000000 1.000000 0.000000
vn 0.000000 1.000000 0.000000
vn 0.000000 0.000000 -1.000000
vn 0.000000 0.000000 -1.000000
vn 0.000000 0.000000 -1.000000
vn 0.000000 0.000000 -1.000000
vn 1.000000 0.000000 0.000000
vn 1.000000 0.000000 0.000000
vn 1.000000 0.000000 0.000000
vn 1.000000 0.000000 0.000000
vn 0.000000 0.000000 1.000000
vn 0.000000 0.000000 1.000000
vn 0.000000 0.000000 1.000000
vn 0.000000 0.000000 1.000000
vn -1.000000 0.000000 0.000000
vn -1.000000 0.000000 0.000000
vn -1.000000 0.000000 0.000000
vn -1.000000 0.000000 0.000000
vn -0.961791 0.273787 0.000000
vn -0.961791 0.273787 0.000000
vn -0.961791 0.273787 0.000000
vn -0.961791 0.273787 0.000000
vn 0.961791 0.273787 0.000000
vn 0.961791 0.273787 0.000000
vn 0.961791 0.273787 0.000000
vn 0.961791 0.273787 0.000000
vn 0.372631 0.927980 0.000000
vn 0.372631 0.927980 0.000000
vn 0.372631 0.927980 0.000000
vn 0.372631 0.927980 0.000000
vn -0.372542 0.928015 0.000000
vn -0.372542 0.928015 0.000000
vn -0.372542 0.928015 0.000000
vn -0.372542 0.928015 0.000000
vn 0.000000 0.000000 -1.000000
vn 0.000000 0.000000 -1.000000
vn 0.000000 0.000000 -1.000000
vn 0.000000 0.000000 -1.000000
vn 0.000000 0.000000 -1.000000
vn 0.000000 0.000000 -1.000000
vn 0.000000 0.000000 -1.000000
vn 0.000000 0.000000 -1.000000
vn 0.000000 0.000000 -1.000000
vn 0.000000 0.000000 -1.000000
vn 0.000000 0.000000 -1.000000
vn 0.000000 0.000000 -1.000000
vn 0.000001 0.000000 1.000000
vn 0.000000 0.000000 1.000000
vn 0.000001 0.000000 1.000000
vn 0.000000 0.000000 1.000000
vn 0.000000 0.000000 1.000000
vn 0.000001 0.000000 1.000000
vn 0.000000 0.000000 1.000000
vn 0.000001 0.000000 1.000000
vn 0.000001 0.000000 1.000000
vn 0.000001 0.000000 1.000000
vn 0.000001 0.000000 1.000000
vn 0.000001 0.000000 1.000000
vn 0.000000 0.000000 1.000000
vn 0.000000 0.000000 1.000000
vn 0.000000 0.000000 1.000000
vn 0.000000 0.000000 1.000000
vn 0.000000 0.000000 1.000000
vn 0.000000 0.000000 1.000000
vn 0.000000 0.000000 1.000000
vn 0.000000 0.000000 1.000000
vn 0.000000 0.000000 1.000000
vn 0.000000 0.000000 1.000000
vn 0.000000 0.000000 1.000000
vn 0.000000 0.000000 1.000000
vn 0.000000 0.000000 1.000000
vn 0.000000 0.000000 1.000000
vn 0.000000 0.000000 1.000000
vn 0.000000 0.000000 1.000000
vn -0.000001 0.000000 -1.000000
vn -0.000002 0.000000 -1.000000
vn -0.000002 0.000000 -1.000000
vn -0.000001 0.000000 -1.000000
vn 0.000000 0.000000 -1.000000
vn 0.000000 0.000000 -1.000000
vn 0.000000 0.000000 -1.000000
vn 0.000000 0.000000 -1.000000
vn 0.000000 0.000000 -1.000000
vn 0.000000 0.000000 -1.000000
vn 0.000000 0.000000 -1.000000
vn 0.000000 0.000000 -1.000000
vn 0.000000 0.000000 -1.000000
vn -0.000001 0.000000 -1.000000
vn -0.000001 0.000000 -1.000000
vn 0.000000 0.000000 -1.000000
vn -0.953708 0.300735 0.000000
vn -0.953708 0.300735 0.000000
vn -0.945429 0.293574 -0.141347
vn -0.945876 0.293830 -0.137775
vn 0.953784 0.300493 0.000000
vn 0.953784 0.300493 0.000000
vn 0.945952 0.293581 -0.137783
vn 0.945506 0.293326 -0.141344
vn 0.389654 0.920961 0.000000
vn 0.389654 0.920961 0.000000
vn 0.385532 0.917486 -0.097906
vn 0.385221 0.917070 -0.102895
vn -0.389654 0.920961 0.000000
vn -0.389654 0.920961 0.000000
vn -0.385221 0.917070 -0.102895
vn -0.385532 0.917486 -0.097906
vn -0.953708 0.300736 0.000000
vn -0.953708 0.300736 0.000000
vn -0.945876 0.293829 0.137780
vn -0.945428 0.293573 0.141351
vn 0.953784 0.300493 0.000000
vn 0.953784 0.300493 0.000000
vn 0.945506 0.293325 0.141349
vn 0.945952 0.293581 0.137788
vn 0.389654 0.920961 0.000000
vn 0.389654 0.920961 0.000000
vn 0.385221 0.917070 0.102898
vn 0.385531 0.917485 0.097909
vn -0.389654 0.920961 0.000000
vn -0.389654 0.920961 0.000000
vn -0.385531 0.917485 0.097909
vn -0.385221 0.917070 0.102898
vn -0.945876 0.293830 -0.137775
vn -0.945429 0.293574 -0.141347
vn -0.894944 0.270787 -0.354613
vn -0.894944 0.270787 -0.354613
vn 0.945506 0.293326 -0.141344
vn 0.945952 0.293581 -0.137783
vn 0.895016 0.270540 -0.354619
vn 0.895016 0.270540 -0.354619
vn 0.385221 0.917070 -0.102895
vn 0.385532 0.917486 -0.097906
vn 0.367779 0.887115 -0.278863
vn 0.367780 0.887115 -0.278863
vn -0.385532 0.917486 -0.097906
vn -0.385221 0.917070 -0.102895
vn -0.367780 0.887115 -0.278863
vn -0.367780 0.887115 -0.278863
vn -0.945428 0.293573 0.141351
vn -0.945876 0.293829 0.137780
vn -0.894944 0.270787 0.354612
vn -0.894944 0.270787 0.354612
vn 0.945952 0.293581 0.137788
vn 0.945506 0.293325 0.141349
vn 0.895016 0.270539 0.354619
vn 0.895016 0.270539 0.354619
vn 0.385531 0.917485 0.097909
vn 0.385221 0.917070 0.102898
vn 0.367780 0.887115 0.278863
vn 0.367780 0.887115 0.278863
vn -0.385221 0.917070 0.102898
vn -0.385531 0.917485 0.097909
vn -0.367780 0.887115 0.278863
vn -0.367780 0.887115 0.278863
vn -0.541532 0.000000 -0.840680
vn -0.541532 0.000000 -0.840680
vn -0.541532 0.000000 -0.840680
vn -0.541532 0.000000 -0.840680
vn 0.000000 1.000000 0.000000
vn 0.000000 1.000000 0.000000
vn 0.000000 1.000000 0.000000
vn 0.000000 1.000000 0.000000
vn -0.541532 0.000000 0.840680
vn -0.541532 0.000000 0.840680
vn -0.541532 0.000000 0.840680
vn -0.541532 0.000000 0.840680
vn 0.000000 -1.000000 0.000000
vn 0.000000 -1.000000 0.000000
vn 0.000000 -1.000000 0.000000
vn 0.000000 -1.000000 0.000000
vn -1.000000 0.000000 0.000000
vn -1.000000 0.000000 0.000000
vn -1.000000 0.000000 0.000000
vn -1.000000 0.000000 0.000000
vn 0.541547 0.000000 0.840671
vn 0.541547 0.000000 0.840671
vn 0.541547 0.000000 0.840671
vn 0.541547 0.000000 0.840671
vn 0.000000 1.000000 0.000000
vn 0.000000 1.000000 0.000000
vn 0.000000 1.000000 0.000000
vn 0.000000 1.000000 0.000000
vn 0.541547 0.000000 -0.840671
vn 0.541547 0.000000 -0.840671
vn 0.541547 0.000000 -0.840671
vn 0.541547 0.000000 -0.840671
vn 0.000000 -1.000000 0.000000
vn 0.000000 -1.000000 0.000000
vn 0.000000 -1.000000 0.000000
vn 0.000000 -1.000000 0.000000
vn 1.000000 0.000000 0.000000
vn 1.000000 0.000000 0.000000
vn 1.000000 0.000000 0.000000
vn 1.000000 0.000000 0.000000
s off
f 4/9/1 2/19/2 6/10/3 8/22/4
f 12/14/5 10/23/6 13/15/7 16/26/8
f 7/16/9 5/21/10 15/17/11 14/18/12
f 9/11/13 11/12/14 1/13/15 3/20/16
f 26/43/17 25/44/18 27/45/19 28/46/20 29/47/21 30/48/22 31/49/23 32/50/24
f 11/24/25 12/14/26 16/26/27 15/4/28 5/5/29 6/6/30 2/7/31 1/8/32
f 1/13/33 2/19/34 4/9/35 3/20/36
f 6/10/37 5/21/38 7/16/39 8/22/40
f 9/3/41 10/23/42 12/14/43 11/24/44
f 13/15/45 14/25/46 15/4/47 16/26/48
f 3/1/49 4/9/50 17/28/51 18/27/52
f 4/9/53 8/22/54 19/29/55 17/28/56
f 8/22/57 7/2/58 20/30/59 19/29/60
f 7/2/61 14/25/62 21/31/63 20/30/64
f 14/25/65 13/15/66 22/32/67 21/31/68
f 13/15/69 10/23/70 23/33/71 22/32/72
f 10/23/73 9/3/74 24/34/75 23/33/76
f 9/3/77 3/1/78 18/27/79 24/34/80
f 18/27/81 17/28/82 25/36/83 26/35/84
f 17/28/85 19/29/86 27/37/87 25/36/88
f 19/29/89 20/30/90 28/38/91 27/37/92
f 20/30/93 21/31/94 29/39/95 28/38/96
f 21/31/97 22/32/98 30/40/99 29/39/100
f 22/32/101 23/33/102 31/41/103 30/40/104
f 23/33/105 24/34/106 32/42/107 31/41/108
f 24/34/109 18/27/110 26/35/111 32/42/112
f 33/51/113 34/52/114 36/53/115 35/54/116
f 35/54/117 36/53/118 38/55/119 37/56/120
f 37/56/121 38/55/122 40/57/123 39/58/124
f 39/58/125 40/57/126 34/59/127 33/60/128
f 34/52/129 40/61/130 38/62/131 36/53/132
f 39/67/133 33/51/134 42/64/135 41/63/136
f 33/51/137 35/54/138 43/65/139 42/64/140
f 35/54/141 37/68/142 44/66/143 43/65/144
f 37/68/145 39/67/146 41/63/147 44/66/148
f 45/69/149 46/70/150 51/71/151 50/72/152
f 47/73/153 48/74/154 53/75/155 52/76/156
f 48/74/157 49/77/158 54/78/159 53/75/160
f 49/77/161 45/69/162 50/72/163 54/78/164
f 76/79/165 75/80/166 77/81/167
f 79/82/168 78/83/169 77/81/170
f 80/84/171 79/82/172 77/81/173
f 75/80/174 80/84/175 77/81/176
f 81/85/177 82/86/178 83/87/179
f 84/88/180 85/89/181 83/87/182
f 85/89/183 86/90/184 83/87/185
f 86/90/186 81/85/187 83/87/188
f 46/91/189 45/92/190 55/93/191 56/94/192
f 48/95/193 47/96/194 57/97/195 58/98/196
f 49/99/197 48/95/198 58/98/199 59/100/200
f 45/92/201 49/99/202 59/100/203 55/93/204
f 50/101/205 51/102/206 61/103/207 60/104/208
f 52/105/209 53/106/210 63/107/211 62/108/212
f 53/106/213 54/109/214 64/110/215 63/107/216
f 54/109/217 50/101/218 60/104/219 64/110/220
f 56/94/221 55/93/222 65/111/223 66/112/224
f 58/98/225 57/97/226 67/113/227 68/114/228
f 59/100/229 58/98/230 68/114/231 69/115/232
f 55/93/233 59/100/234 69/115/235 65/111/236
f 60/104/237 61/103/238 71/116/239 70/117/240
f 62/108/241 63/107/242 73/118/243 72/119/244
f 63/107/245 64/110/246 74/120/247 73/118/248
f 64/110/249 60/104/250 70/117/251 74/120/252
f 66/112/253 65/111/254 75/80/255 76/79/256
f 68/114/257 67/113/258 78/83/259 79/82/260
f 69/115/261 68/114/262 79/82/263 80/84/264
f 65/111/265 69/115/266 80/84/267 75/80/268
f 70/117/269 71/116/270 82/86/271 81/85/272
f 72/119/273 73/118/274 85/89/275 84/88/276
f 73/118/277 74/120/278 86/90/279 85/89/280
f 74/120/281 70/117/282 81/85/283 86/90/284
f 87/121/285 88/122/286 90/123/287 89/124/288
f 89/124/289 90/123/290 92/125/291 91/126/292
f 91/126/293 92/125/294 94/127/295 93/128/296
f 93/128/297 94/127/298 88/129/299 87/130/300
f 88/122/301 94/131/302 92/132/303 90/123/304
f 95/133/305 96/134/306 98/135/307 97/136/308
f 97/136/309 98/135/310 100/137/311 99/138/312
f 99/138/313 100/137/314 102/139/315 101/140/316
f 101/140/317 102/139/318 96/141/319 95/142/320
f 96/134/321 102/143/322 100/144/323 98/135/324
