# This file uses meters as units for non-parametric coordinates.

v -19.020996 0.000000 7.312069
v 19.021606 0.000000 7.312069
v -17.954102 3.950589 6.089191
v 17.955322 3.950589 6.089191
v -17.954102 3.950589 -6.089295
v 17.955322 3.950589 -6.089295
v -19.020996 0.000000 -7.312173
v 19.021606 0.000000 -7.312173
v 11.203003 3.950589 3.909950
v 15.001831 3.950589 3.909950
v 11.412964 4.558891 3.699856
v 14.791870 4.558891 3.699856
v 11.412964 4.558891 0.320511
v 14.791870 4.558891 0.320511
v 11.203003 3.950589 0.110416
v 15.001831 3.950589 0.110416
v 6.979370 3.950589 3.909950
v 10.778809 3.950589 3.909950
v 7.136841 4.558891 3.752480
v 10.621338 4.558891 3.752480
v 7.136841 4.558891 0.267735
v 10.621338 4.558891 0.267735
v 6.979370 3.950589 0.110416
v 10.778809 3.950589 0.110416
v 2.682495 3.950589 3.909950
v 6.481934 3.950589 3.909950
v 2.918091 4.558891 3.674068
v 6.245728 4.558891 3.674068
v 2.918091 4.558891 0.346146
v 6.245728 4.558891 0.346146
v 2.682495 3.950589 0.110416
v 6.481934 3.950589 0.110416
v 2.682495 3.950589 -0.494690
v 6.481934 3.950589 -0.494690
v 2.919312 4.558891 -0.731983
v 6.244507 4.558891 -0.731983
v 2.919312 4.558891 -4.057083
v 6.244507 4.558891 -4.057083
v 2.682495 3.950589 -4.294224
v 6.481934 3.950589 -4.294224
v 6.979370 3.950589 -0.494690
v 10.778809 3.950589 -0.494690
v 7.138062 4.558891 -0.653000
v 10.620117 4.558891 -0.653000
v 7.138062 4.558891 -4.135914
v 10.620117 4.558891 -4.135914
v 6.979370 3.950589 -4.294224
v 10.778809 3.950589 -4.294224
v 11.203003 3.950589 -0.494690
v 15.001831 3.950589 -0.494690
v 11.387939 4.558891 -0.679636
v 14.817505 4.558891 -0.679636
v 11.387939 4.558891 -4.109278
v 14.817505 4.558891 -4.109278
v 11.203003 3.950589 -4.294224
v 15.001831 3.950589 -4.294224
v -6.707764 3.950589 3.909950
v -2.908936 3.950589 3.909950
v -6.525269 4.558891 3.727398
v -3.091431 4.558891 3.727398
v -6.525269 4.558891 0.292816
v -3.091431 4.558891 0.292816
v -6.707764 3.950589 0.110416
v -2.908936 3.950589 0.110416
v -10.931396 3.950589 3.909950
v -7.131958 3.950589 3.909950
v -10.723267 4.558891 3.701477
v -7.340088 4.558891 3.701477
v -10.723267 4.558891 0.318737
v -7.340088 4.558891 0.318737
v -10.931396 3.950589 0.110416
v -7.131958 3.950589 0.110416
v -15.228271 3.950589 3.909950
v -11.428833 3.950589 3.909950
v -14.994507 4.558891 3.675842
v -11.663208 4.558891 3.675842
v -14.994507 4.558891 0.344372
v -11.663208 4.558891 0.344372
v -15.228271 3.950589 0.110416
v -11.428833 3.950589 0.110416
v -15.228271 3.950589 -0.494690
v -11.428833 3.950589 -0.494690
v -15.018921 4.558891 -0.704098
v -11.638184 4.558891 -0.704098
v -15.018921 4.558891 -4.084816
v -11.638184 4.558891 -4.084816
v -15.228271 3.950589 -4.294224
v -11.428833 3.950589 -4.294224
v -10.931396 3.950589 -0.494690
v -7.131958 3.950589 -0.494690
v -10.800171 4.558891 -0.625744
v -7.263184 4.558891 -0.625744
v -10.800171 4.558891 -4.163170
v -7.263184 4.558891 -4.163170
v -10.931396 3.950589 -4.294224
v -7.131958 3.950589 -4.294224
v -6.707764 3.950589 -0.494690
v -2.908936 3.950589 -0.494690
v -6.477661 4.558891 -0.724697
v -3.138428 4.558891 -0.724697
v -6.477661 4.558891 -4.064369
v -3.138428 4.558891 -4.064369
v -6.707764 3.950589 -4.294224
v -2.908936 3.950589 -4.294224
vt 0.242883 0.378224
vt 0.242883 0.378224
vt 0.242883 0.378224
vt 0.242883 0.378224
vt 0.242883 0.378224
vt 0.242883 0.378224
vt 0.242883 0.378224
vt 0.242883 0.378224
vt 0.242883 0.378224
vt 0.242883 0.378224
vt 0.242883 0.378224
vt 0.242883 0.378224
vt 0.242883 0.378224
vt 0.242883 0.378224
vt 0.000948 0.998707
vt 0.000948 0.925356
vt 0.074299 0.925356
vt 0.074299 0.998707
vt 0.264913 0.039938
vt 0.264913 0.039938
vt 0.264913 0.039938
vt 0.264913 0.039938
vt 0.264913 0.039938
vt 0.264913 0.039938
vt 0.264913 0.039938
vt 0.264913 0.039938
vt 0.264913 0.039938
vt 0.264913 0.039938
vt 0.264913 0.039938
vt 0.264913 0.039938
vt 0.421523 0.039212
vt 0.421523 0.039212
vt 0.421523 0.039212
vt 0.421523 0.039212
vt 0.421523 0.039212
vt 0.421523 0.039212
vt 0.421523 0.039212
vt 0.421523 0.039212
vt 0.421523 0.039212
vt 0.421523 0.039212
vt 0.421523 0.039212
vt 0.421523 0.039212
vt 0.295987 0.039212
vt 0.295987 0.039212
vt 0.295987 0.039212
vt 0.295987 0.039212
vt 0.295987 0.039212
vt 0.295987 0.039212
vt 0.295987 0.039212
vt 0.295987 0.039212
vt 0.295987 0.039212
vt 0.295987 0.039212
vt 0.295987 0.039212
vt 0.295987 0.039212
vt 0.421523 0.039212
vt 0.421523 0.039212
vt 0.421523 0.039212
vt 0.421523 0.039212
vt 0.421523 0.039212
vt 0.421523 0.039212
vt 0.421523 0.039212
vt 0.421523 0.039212
vt 0.421523 0.039212
vt 0.421523 0.039212
vt 0.421523 0.039212
vt 0.421523 0.039212
vt 0.360619 0.039340
vt 0.360619 0.039340
vt 0.360619 0.039340
vt 0.360619 0.039340
vt 0.360619 0.039340
vt 0.360619 0.039340
vt 0.360619 0.039340
vt 0.360619 0.039340
vt 0.360619 0.039340
vt 0.360619 0.039340
vt 0.360619 0.039340
vt 0.360619 0.039340
vt 0.295987 0.039212
vt 0.295987 0.039212
vt 0.295987 0.039212
vt 0.295987 0.039212
vt 0.295987 0.039212
vt 0.295987 0.039212
vt 0.295987 0.039212
vt 0.295987 0.039212
vt 0.295987 0.039212
vt 0.295987 0.039212
vt 0.295987 0.039212
vt 0.295987 0.039212
vt 0.264913 0.039938
vt 0.264913 0.039938
vt 0.264913 0.039938
vt 0.264913 0.039938
vt 0.264913 0.039938
vt 0.264913 0.039938
vt 0.264913 0.039938
vt 0.264913 0.039938
vt 0.264913 0.039938
vt 0.264913 0.039938
vt 0.264913 0.039938
vt 0.264913 0.039938
vt 0.421523 0.039212
vt 0.421523 0.039212
vt 0.421523 0.039212
vt 0.421523 0.039212
vt 0.421523 0.039212
vt 0.421523 0.039212
vt 0.421523 0.039212
vt 0.421523 0.039212
vt 0.421523 0.039212
vt 0.421523 0.039212
vt 0.421523 0.039212
vt 0.421523 0.039212
vt 0.295987 0.039212
vt 0.295987 0.039212
vt 0.295987 0.039212
vt 0.295987 0.039212
vt 0.295987 0.039212
vt 0.295987 0.039212
vt 0.295987 0.039212
vt 0.295987 0.039212
vt 0.295987 0.039212
vt 0.295987 0.039212
vt 0.295987 0.039212
vt 0.295987 0.039212
vt 0.421523 0.039212
vt 0.421523 0.039212
vt 0.421523 0.039212
vt 0.421523 0.039212
vt 0.421523 0.039212
vt 0.421523 0.039212
vt 0.421523 0.039212
vt 0.421523 0.039212
vt 0.421523 0.039212
vt 0.421523 0.039212
vt 0.421523 0.039212
vt 0.421523 0.039212
vt 0.360619 0.039340
vt 0.360619 0.039340
vt 0.360619 0.039340
vt 0.360619 0.039340
vt 0.360619 0.039340
vt 0.360619 0.039340
vt 0.360619 0.039340
vt 0.360619 0.039340
vt 0.360619 0.039340
vt 0.360619 0.039340
vt 0.360619 0.039340
vt 0.360619 0.039340
vt 0.295987 0.039212
vt 0.295987 0.039212
vt 0.295987 0.039212
vt 0.295987 0.039212
vt 0.295987 0.039212
vt 0.295987 0.039212
vt 0.295987 0.039212
vt 0.295987 0.039212
vt 0.295987 0.039212
vt 0.295987 0.039212
vt 0.295987 0.039212
vt 0.295987 0.039212
vn 0.000000 0.295701 0.955281
vn 0.000000 0.295700 0.955281
vn 0.000000 0.295701 0.955281
vn 0.000000 0.295700 0.955281
vn 0.000000 1.000000 0.000000
vn 0.000000 1.000000 0.000000
vn 0.000000 1.000000 0.000000
vn 0.000000 1.000000 0.000000
vn 0.000000 0.295700 -0.955281
vn 0.000000 0.295701 -0.955281
vn 0.000000 0.295701 -0.955281
vn 0.000000 0.295701 -0.955281
vn 0.000000 -1.000000 0.000000
vn 0.000000 -1.000000 0.000000
vn 0.000000 -1.000000 0.000000
vn 0.000000 -1.000000 0.000000
vn 0.965452 0.260580 0.000000
vn 0.965452 0.260580 0.000000
vn 0.965452 0.260580 0.000000
vn 0.965452 0.260580 0.000000
vn -0.965415 0.260719 0.000000
vn -0.965415 0.260719 0.000000
vn -0.965415 0.260719 0.000000
vn -0.965415 0.260719 0.000000
vn 0.000000 0.326456 0.945212
vn 0.000000 0.326456 0.945212
vn 0.000000 0.326456 0.945212
vn 0.000000 0.326456 0.945212
vn 0.000000 1.000000 0.000000
vn 0.000000 1.000000 0.000000
vn 0.000000 1.000000 0.000000
vn 0.000000 1.000000 0.000000
vn 0.000000 0.326456 -0.945212
vn 0.000000 0.326456 -0.945212
vn 0.000000 0.326456 -0.945212
vn 0.000000 0.326456 -0.945212
vn 0.945276 0.326271 0.000000
vn 0.945276 0.326271 0.000000
vn 0.945276 0.326271 0.000000
vn 0.945276 0.326271 0.000000
vn -0.945277 0.326270 0.000000
vn -0.945277 0.326270 0.000000
vn -0.945277 0.326270 0.000000
vn -0.945277 0.326270 0.000000
vn 0.000000 0.250608 0.968089
vn 0.000000 0.250608 0.968089
vn 0.000000 0.250608 0.968089
vn 0.000000 0.250608 0.968089
vn 0.000000 1.000000 0.000000
vn 0.000000 1.000000 0.000000
vn 0.000000 1.000000 0.000000
vn 0.000000 1.000000 0.000000
vn 0.000000 0.250380 -0.968148
vn 0.000000 0.250380 -0.968148
vn 0.000000 0.250380 -0.968148
vn 0.000000 0.250380 -0.968148
vn 0.968089 0.250609 0.000000
vn 0.968088 0.250609 0.000000
vn 0.968089 0.250609 0.000000
vn 0.968089 0.250609 0.000000
vn -0.968089 0.250609 0.000000
vn -0.968089 0.250609 0.000000
vn -0.968089 0.250609 0.000000
vn -0.968089 0.250609 0.000000
vn 0.000000 0.361540 0.932356
vn 0.000000 0.361540 0.932356
vn 0.000000 0.361540 0.932357
vn 0.000000 0.361540 0.932356
vn 0.000000 1.000000 0.000000
vn 0.000000 1.000000 0.000000
vn 0.000000 1.000000 0.000000
vn 0.000000 1.000000 0.000000
vn 0.000000 0.361337 -0.932435
vn 0.000000 0.361337 -0.932435
vn 0.000000 0.361337 -0.932435
vn 0.000000 0.361337 -0.932435
vn 0.932189 0.361972 0.000000
vn 0.932189 0.361972 0.000000
vn 0.932189 0.361972 0.000000
vn 0.932189 0.361972 0.000000
vn -0.932504 0.361159 0.000000
vn -0.932504 0.361159 0.000000
vn -0.932504 0.361159 0.000000
vn -0.932504 0.361159 0.000000
vn 0.000000 0.363419 0.931626
vn 0.000000 0.363419 0.931626
vn 0.000000 0.363419 0.931626
vn 0.000000 0.363419 0.931626
vn 0.000000 1.000000 0.000000
vn 0.000000 1.000000 0.000000
vn 0.000000 1.000000 0.000000
vn 0.000000 1.000000 0.000000
vn 0.000000 0.363216 -0.931705
vn 0.000000 0.363216 -0.931705
vn 0.000000 0.363216 -0.931705
vn 0.000000 0.363216 -0.931705
vn 0.931557 0.363597 0.000000
vn 0.931557 0.363597 0.000000
vn 0.931557 0.363597 0.000000
vn 0.931557 0.363597 0.000000
vn -0.931873 0.362785 0.000000
vn -0.931873 0.362785 0.000000
vn -0.931873 0.362785 0.000000
vn -0.931873 0.362785 0.000000
vn 0.000000 0.251859 0.967764
vn 0.000000 0.251859 0.967764
vn 0.000000 0.251859 0.967764
vn 0.000000 0.251859 0.967764
vn 0.000000 1.000000 0.000000
vn 0.000000 1.000000 0.000000
vn 0.000000 1.000000 0.000000
vn 0.000000 1.000000 0.000000
vn 0.000000 0.251859 -0.967764
vn 0.000000 0.251859 -0.967764
vn 0.000000 0.251859 -0.967764
vn 0.000000 0.251859 -0.967764
vn 0.967616 0.252428 0.000000
vn 0.967616 0.252428 0.000000
vn 0.967616 0.252428 0.000000
vn 0.967616 0.252428 0.000000
vn -0.967616 0.252427 0.000000
vn -0.967616 0.252427 0.000000
vn -0.967616 0.252427 0.000000
vn -0.967616 0.252427 0.000000
vn 0.000000 0.290889 0.956757
vn 0.000000 0.290889 0.956757
vn 0.000000 0.290889 0.956757
vn 0.000000 0.290889 0.956757
vn 0.000000 1.000000 0.000000
vn 0.000000 1.000000 0.000000
vn 0.000000 1.000000 0.000000
vn 0.000000 1.000000 0.000000
vn 0.000000 0.290889 -0.956757
vn 0.000000 0.290889 -0.956757
vn 0.000000 0.290889 -0.956757
vn 0.000000 0.290889 -0.956757
vn 0.957028 0.289996 0.000000
vn 0.957028 0.289996 0.000000
vn 0.957028 0.289996 0.000000
vn 0.957028 0.289996 0.000000
vn -0.956761 0.290876 0.000000
vn -0.956761 0.290876 0.000000
vn -0.956761 0.290876 0.000000
vn -0.956761 0.290876 0.000000
vn 0.000000 0.287437 0.957800
vn 0.000000 0.287437 0.957800
vn 0.000000 0.287437 0.957800
vn 0.000000 0.287437 0.957800
vn 0.000000 1.000000 0.000000
vn 0.000000 1.000000 0.000000
vn 0.000000 1.000000 0.000000
vn 0.000000 1.000000 0.000000
vn 0.000000 0.287217 -0.957866
vn 0.000000 0.287217 -0.957866
vn 0.000000 0.287217 -0.957866
vn 0.000000 0.287217 -0.957866
vn 0.957824 0.287354 0.000000
vn 0.957824 0.287354 0.000000
vn 0.957824 0.287354 0.000000
vn 0.957824 0.287354 0.000000
vn -0.957824 0.287355 0.000000
vn -0.957824 0.287354 0.000000
vn -0.957824 0.287355 0.000000
vn -0.957824 0.287355 0.000000
vn 0.000000 0.324202 0.945988
vn 0.000000 0.324202 0.945988
vn 0.000000 0.324202 0.945988
vn 0.000000 0.324202 0.945988
vn 0.000000 1.000000 0.000000
vn 0.000000 1.000000 0.000000
vn 0.000000 1.000000 0.000000
vn 0.000000 1.000000 0.000000
vn 0.000000 0.323990 -0.946061
vn 0.000000 0.323990 -0.946061
vn 0.000000 0.323990 -0.946061
vn 0.000000 0.323990 -0.946061
vn 0.946152 0.323724 0.000000
vn 0.946152 0.323724 0.000000
vn 0.946152 0.323724 0.000000
vn 0.946152 0.323724 0.000000
vn -0.946152 0.323723 0.000000
vn -0.946152 0.323723 0.000000
vn -0.946152 0.323723 0.000000
vn -0.946152 0.323723 0.000000
vn 0.000000 0.359173 0.933271
vn 0.000000 0.359174 0.933271
vn 0.000000 0.359173 0.933271
vn 0.000000 0.359173 0.933271
vn 0.000000 1.000000 0.000000
vn 0.000000 1.000000 0.000000
vn 0.000000 1.000000 0.000000
vn 0.000000 1.000000 0.000000
vn 0.000000 0.358970 -0.933349
vn 0.000000 0.358970 -0.933349
vn 0.000000 0.358970 -0.933349
vn 0.000000 0.358970 -0.933349
vn 0.933134 0.359530 0.000000
vn 0.933134 0.359530 0.000000
vn 0.933134 0.359530 0.000000
vn 0.933134 0.359530 0.000000
vn -0.933448 0.358714 0.000000
vn -0.933448 0.358714 0.000000
vn -0.933448 0.358714 0.000000
vn -0.933448 0.358714 0.000000
vn 0.000000 0.325502 0.945541
vn 0.000000 0.325502 0.945541
vn 0.000000 0.325502 0.945541
vn 0.000000 0.325502 0.945541
vn 0.000000 1.000000 0.000000
vn 0.000000 1.000000 0.000000
vn 0.000000 1.000000 0.000000
vn 0.000000 1.000000 0.000000
vn 0.000000 0.325502 -0.945541
vn 0.000000 0.325502 -0.945541
vn 0.000000 0.325502 -0.945541
vn 0.000000 0.325502 -0.945541
vn 0.945568 0.325424 0.000000
vn 0.945568 0.325424 0.000000
vn 0.945568 0.325424 0.000000
vn 0.945568 0.325424 0.000000
vn -0.945569 0.325423 0.000000
vn -0.945569 0.325423 0.000000
vn -0.945569 0.325423 0.000000
vn -0.945569 0.325423 0.000000
vn 0.000000 0.210610 0.977570
vn 0.000000 0.210610 0.977570
vn 0.000000 0.210610 0.977570
vn 0.000000 0.210610 0.977570
vn 0.000000 1.000000 0.000000
vn 0.000000 1.000000 0.000000
vn 0.000000 1.000000 0.000000
vn 0.000000 1.000000 0.000000
vn 0.000000 0.210610 -0.977570
vn 0.000000 0.210610 -0.977570
vn 0.000000 0.210610 -0.977570
vn 0.000000 0.210610 -0.977570
vn 0.977514 0.210873 0.000000
vn 0.977514 0.210873 0.000000
vn 0.977513 0.210873 0.000000
vn 0.977513 0.210873 0.000000
vn -0.977513 0.210874 0.000000
vn -0.977513 0.210874 0.000000
vn -0.977513 0.210874 0.000000
vn -0.977513 0.210874 0.000000
vn 0.000000 0.353675 0.935368
vn 0.000000 0.353675 0.935368
vn 0.000000 0.353675 0.935368
vn 0.000000 0.353675 0.935368
vn 0.000000 1.000000 0.000000
vn 0.000000 1.000000 0.000000
vn 0.000000 1.000000 0.000000
vn 0.000000 1.000000 0.000000
vn 0.000000 0.353470 -0.935446
vn 0.000000 0.353470 -0.935446
vn 0.000000 0.353470 -0.935446
vn 0.000000 0.353470 -0.935446
vn 0.935630 0.352982 0.000000
vn 0.935630 0.352982 0.000000
vn 0.935630 0.352982 0.000000
vn 0.935630 0.352982 0.000000
vn -0.935320 0.353804 0.000000
vn -0.935320 0.353804 0.000000
vn -0.935320 0.353804 0.000000
vn -0.935320 0.353804 0.000000
s off
f 1/1/1 2/2/2 4/4/3 3/3/4
f 3/15/5 4/16/6 6/17/7 5/18/8
f 5/5/9 6/6/10 8/8/11 7/7/12
f 7/7/13 8/8/14 2/10/15 1/9/16
f 2/2/17 8/11/18 6/12/19 4/4/20
f 7/13/21 1/1/22 3/3/23 5/14/24
f 9/19/25 10/20/26 12/21/27 11/22/28
f 11/22/29 12/21/30 14/23/31 13/24/32
f 13/24/33 14/23/34 16/25/35 15/26/36
f 10/20/37 16/27/38 14/28/39 12/21/40
f 15/29/41 9/19/42 11/22/43 13/30/44
f 17/31/45 18/32/46 20/33/47 19/34/48
f 19/34/49 20/33/50 22/35/51 21/36/52
f 21/36/53 22/35/54 24/37/55 23/38/56
f 18/32/57 24/39/58 22/40/59 20/33/60
f 23/41/61 17/31/62 19/34/63 21/42/64
f 25/43/65 26/44/66 28/45/67 27/46/68
f 27/46/69 28/45/70 30/47/71 29/48/72
f 29/48/73 30/47/74 32/49/75 31/50/76
f 26/44/77 32/51/78 30/52/79 28/45/80
f 31/53/81 25/43/82 27/46/83 29/54/84
f 33/55/85 34/56/86 36/57/87 35/58/88
f 35/58/89 36/57/90 38/59/91 37/60/92
f 37/60/93 38/59/94 40/61/95 39/62/96
f 34/56/97 40/63/98 38/64/99 36/57/100
f 39/65/101 33/55/102 35/58/103 37/66/104
f 41/67/105 42/68/106 44/69/107 43/70/108
f 43/70/109 44/69/110 46/71/111 45/72/112
f 45/72/113 46/71/114 48/73/115 47/74/116
f 42/68/117 48/75/118 46/76/119 44/69/120
f 47/77/121 41/67/122 43/70/123 45/78/124
f 49/79/125 50/80/126 52/81/127 51/82/128
f 51/82/129 52/81/130 54/83/131 53/84/132
f 53/84/133 54/83/134 56/85/135 55/86/136
f 50/80/137 56/87/138 54/88/139 52/81/140
f 55/89/141 49/79/142 51/82/143 53/90/144
f 57/91/145 58/92/146 60/93/147 59/94/148
f 59/94/149 60/93/150 62/95/151 61/96/152
f 61/96/153 62/95/154 64/97/155 63/98/156
f 58/92/157 64/99/158 62/100/159 60/93/160
f 63/101/161 57/91/162 59/94/163 61/102/164
f 65/103/165 66/104/166 68/105/167 67/106/168
f 67/106/169 68/105/170 70/107/171 69/108/172
f 69/108/173 70/107/174 72/109/175 71/110/176
f 66/104/177 72/111/178 70/112/179 68/105/180
f 71/113/181 65/103/182 67/106/183 69/114/184
f 73/115/185 74/116/186 76/117/187 75/118/188
f 75/118/189 76/117/190 78/119/191 77/120/192
f 77/120/193 78/119/194 80/121/195 79/122/196
f 74/116/197 80/123/198 78/124/199 76/117/200
f 79/125/201 73/115/202 75/118/203 77/126/204
f 81/127/205 82/128/206 84/129/207 83/130/208
f 83/130/209 84/129/210 86/131/211 85/132/212
f 85/132/213 86/131/214 88/133/215 87/134/216
f 82/128/217 88/135/218 86/136/219 84/129/220
f 87/137/221 81/127/222 83/130/223 85/138/224
f 89/139/225 90/140/226 92/141/227 91/142/228
f 91/142/229 92/141/230 94/143/231 93/144/232
f 93/144/233 94/143/234 96/145/235 95/146/236
f 90/140/237 96/147/238 94/148/239 92/141/240
f 95/149/241 89/139/242 91/142/243 93/150/244
f 97/151/245 98/152/246 100/153/247 99/154/248
f 99/154/249 100/153/250 102/155/251 101/156/252
f 101/156/253 102/155/254 104/157/255 103/158/256
f 98/152/257 104/159/258 102/160/259 100/153/260
f 103/161/261 97/151/262 99/154/263 101/162/264
