# This file uses meters as units for non-parametric coordinates.

v 10.137939 1.208654 8.241653
v 10.137939 1.208654 -8.241577
v -10.136719 1.208654 8.241653
v -10.136719 1.208654 -8.241577
v -8.859863 1.208654 5.552902
v 8.942871 1.208654 5.552902
v 8.942871 1.208654 -5.552902
v -8.859863 1.208654 -5.552902
v -8.565063 1.765969 5.314407
v 8.648071 1.765969 5.314407
v 8.648071 1.765969 -5.314407
v -8.565063 1.765969 -5.314407
v -7.845459 1.765969 4.737854
v 7.928467 1.765969 4.737854
v 7.928467 1.765969 -4.738007
v -7.845459 1.765969 -4.738007
v -7.550049 0.541685 4.561157
v 7.635498 0.541685 4.561157
v 7.635498 0.541685 -4.561157
v -7.550049 0.541685 -4.561157
v 10.789795 1.208654 -9.114914
v 10.789795 1.208654 9.114761
v -10.794678 1.208654 9.114761
v -10.794678 1.208654 -9.114914
v 12.493286 1.208654 -10.985336
v 12.493286 1.208654 10.985336
v -12.493286 1.208654 10.985336
v -12.493286 1.208654 -10.985336
v 6.132202 1.208654 7.432785
v 6.132202 1.765969 7.124023
v 5.758667 1.765969 6.377945
v 5.545654 0.541685 6.140060
v 5.545654 0.541685 -6.140060
v 5.758667 1.765969 -6.377945
v 6.132202 1.765969 -7.124176
v 6.132202 1.208654 -7.432938
v -6.172485 1.208654 7.432785
v -6.172485 1.765969 7.124023
v -5.799561 1.765969 6.377945
v -5.579834 0.541685 6.140060
v -5.579834 0.541685 -6.140060
v -5.799561 1.765969 -6.377945
v -6.172485 1.765969 -7.124176
v -6.172485 1.208654 -7.432938
v 13.406372 0.000000 -11.529465
v 13.406372 0.000000 11.529236
v -13.406372 0.000000 11.529236
v -13.406372 0.000000 -11.529465
vt 0.235181 0.282401
vt 0.235181 0.282401
vt 0.235181 0.282401
vt 0.235181 0.282401
vt 0.235181 0.282401
vt 0.235181 0.282401
vt 0.235181 0.282401
vt 0.235181 0.282401
vt 0.234131 0.254953
vt 0.234131 0.254953
vt 0.234131 0.254953
vt 0.234131 0.254953
vt 0.234131 0.254953
vt 0.234131 0.254953
vt 0.234131 0.254953
vt 0.234131 0.254953
vt 0.234131 0.254953
vt 0.234131 0.254953
vt 0.234131 0.254953
vt 0.234131 0.254953
vt 0.234131 0.254953
vt 0.234131 0.254953
vt 0.234131 0.254953
vt 0.234131 0.254953
vt 0.234131 0.254953
vt 0.234131 0.254953
vt 0.234131 0.254953
vt 0.234131 0.254953
vt 0.419361 0.937078
vt 0.424208 0.933193
vt 0.424208 0.963407
vt 0.419361 0.959522
vt 0.235168 0.252057
vt 0.235168 0.252057
vt 0.237183 0.277343
vt 0.237183 0.277343
vt 0.235168 0.252057
vt 0.235168 0.252057
vt 0.237183 0.277343
vt 0.235168 0.252057
vt 0.237183 0.277343
vt 0.237183 0.277343
vt 0.237183 0.277343
vt 0.237183 0.277343
vt 0.237183 0.277343
vt 0.235168 0.252057
vt 0.235168 0.252057
vt 0.235168 0.252057
vt 0.234131 0.254953
vt 0.235181 0.282401
vt 0.234131 0.254953
vt 0.234131 0.254953
vt 0.451582 0.963407
vt 0.234131 0.254953
vt 0.451582 0.933193
vt 0.235181 0.282401
vt 0.234131 0.254953
vt 0.235181 0.282401
vt 0.234131 0.254953
vt 0.234131 0.254953
vt 0.456724 0.937078
vt 0.234131 0.254953
vt 0.234131 0.254953
vt 0.456724 0.959522
vt 0.234131 0.254953
vt 0.234131 0.254953
vt 0.235181 0.282401
vt 0.234131 0.254953
vt 0.237183 0.278355
vt 0.237183 0.278355
vt 0.237183 0.278355
vt 0.237183 0.278355
vt 0.237183 0.278355
vt 0.237183 0.278355
vt 0.237183 0.278355
vt 0.237183 0.278355
vn 0.000000 1.000000 0.000000
vn 0.000000 1.000000 0.000000
vn 0.000000 1.000000 0.000000
vn 0.000000 1.000000 0.000000
vn 0.000000 1.000000 0.000000
vn 0.000000 1.000000 0.000000
vn 0.000000 1.000000 0.000000
vn 0.000000 1.000000 0.000000
vn 0.000000 1.000000 -0.000000
vn 0.000000 1.000000 -0.000000
vn 0.000000 1.000000 0.000000
vn 0.000000 1.000000 -0.000000
vn 0.000000 1.000000 0.000000
vn 0.000000 1.000000 0.000000
vn 0.000000 1.000000 0.000000
vn 0.000000 1.000000 0.000000
vn 0.000000 1.000000 0.000000
vn 0.000000 1.000000 -0.000000
vn 0.000000 1.000000 -0.000000
vn 0.000000 1.000000 -0.000000
vn 0.000000 1.000000 -0.000000
vn 0.000000 1.000000 0.000000
vn 0.000000 1.000000 -0.000000
vn 0.000000 1.000000 -0.000000
vn 0.000000 1.000000 0.000000
vn 0.000000 1.000000 0.000000
vn 0.000000 1.000000 0.000000
vn 0.000000 1.000000 0.000000
vn 0.000000 1.000000 -0.000000
vn 0.000000 1.000000 0.000000
vn 0.000000 1.000000 -0.000000
vn 0.000000 1.000000 -0.000000
vn 0.000000 1.000000 -0.000000
vn 0.000000 1.000000 -0.000000
vn 0.000000 1.000000 -0.000000
vn 0.000000 1.000000 -0.000000
vn 0.000000 1.000000 0.000000
vn 0.000000 1.000000 -0.000000
vn -0.514325 0.483718 0.708158
vn -0.090934 0.494920 0.864167
vn -0.122891 0.497559 0.858681
vn -0.514325 0.483718 0.708158
vn 0.883951 0.467579 0.000000
vn 0.883951 0.467579 0.000000
vn 0.883951 0.467579 0.000000
vn 0.883951 0.467579 0.000000
vn -0.090941 0.494921 -0.864166
vn -0.514353 0.483716 -0.708138
vn -0.514353 0.483716 -0.708138
vn -0.122901 0.497560 -0.858679
vn -0.883952 0.467578 0.000000
vn -0.883952 0.467578 0.000000
vn -0.883952 0.467578 0.000000
vn -0.883952 0.467578 0.000000
vn 0.000000 1.000000 0.000000
vn 0.000000 1.000000 0.000000
vn 0.000000 1.000000 0.000000
vn 0.000000 1.000000 0.000000
vn 0.000000 1.000000 0.000000
vn 0.000000 1.000000 -0.000000
vn 0.000000 1.000000 -0.000000
vn 0.000000 1.000000 0.000000
vn 0.000000 1.000000 -0.000000
vn 0.000000 1.000000 -0.000000
vn 0.000000 1.000000 -0.000000
vn 0.000000 1.000000 -0.000000
vn 0.000000 1.000000 -0.000000
vn 0.000000 1.000000 0.000000
vn 0.000000 1.000000 0.000000
vn 0.000000 1.000000 -0.000000
vn 0.604746 0.254977 -0.754499
vn 0.130168 0.211543 -0.968662
vn 0.106071 0.207945 -0.972372
vn 0.604746 0.254977 -0.754499
vn -0.972542 0.232728 0.000000
vn -0.972542 0.232728 0.000000
vn -0.972542 0.232728 0.000000
vn -0.972542 0.232728 0.000000
vn 0.130163 0.211552 0.968661
vn 0.604722 0.255020 0.754504
vn 0.604722 0.255020 0.754504
vn 0.106066 0.207952 0.972371
vn 0.972101 0.234561 0.000000
vn 0.972101 0.234561 0.000000
vn 0.972102 0.234561 0.000000
vn 0.972102 0.234561 0.000000
vn 0.000000 1.000000 0.000000
vn 0.000000 1.000000 0.000000
vn 0.000000 1.000000 0.000000
vn 0.000000 1.000000 0.000000
vn 0.000000 1.000000 -0.000000
vn 0.000000 1.000000 -0.000000
vn 0.000000 1.000000 -0.000000
vn 0.000000 1.000000 -0.000000
vn 0.000000 1.000000 0.000000
vn 0.000000 1.000000 0.000000
vn 0.000000 1.000000 0.000000
vn 0.000000 1.000000 0.000000
vn 0.000000 1.000000 0.000000
vn 0.000000 1.000000 0.000000
vn 0.000000 1.000000 0.000000
vn 0.000000 1.000000 0.000000
vn 0.000000 1.000000 0.000000
vn 0.000000 1.000000 0.000000
vn 0.000000 1.000000 0.000000
vn 0.000000 1.000000 0.000000
vn 0.000000 1.000000 0.000000
vn 0.000000 1.000000 0.000000
vn 0.000000 1.000000 0.000000
vn 0.000000 1.000000 0.000000
vn 0.000000 1.000000 0.000000
vn 0.000000 1.000000 0.000000
vn 0.000000 1.000000 0.000000
vn 0.000000 1.000000 0.000000
vn 0.000000 1.000000 0.000000
vn 0.000000 1.000000 0.000000
vn 0.000000 1.000000 0.000000
vn 0.000000 1.000000 0.000000
vn 0.121293 0.497052 0.859201
vn 0.090835 0.494621 0.864349
vn 0.498037 0.484742 0.719017
vn 0.498037 0.484742 0.719017
vn 0.000000 1.000000 0.000000
vn 0.000000 1.000000 0.000000
vn 0.000000 1.000000 0.000000
vn 0.000000 1.000000 0.000000
vn -0.105320 0.207262 -0.972600
vn -0.128718 0.210634 -0.969054
vn -0.583551 0.251334 -0.772204
vn -0.583551 0.251334 -0.772204
vn 0.000000 1.000000 0.000000
vn 0.000000 1.000000 0.000000
vn 0.000000 1.000000 0.000000
vn 0.000000 1.000000 0.000000
vn -0.583527 0.251378 0.772208
vn -0.128712 0.210644 0.969052
vn -0.105315 0.207269 0.972599
vn -0.583527 0.251378 0.772208
vn 0.000000 1.000000 -0.000000
vn 0.000000 1.000000 -0.000000
vn 0.000000 1.000000 -0.000000
vn 0.000000 1.000000 -0.000000
vn 0.498065 0.484740 -0.718998
vn 0.090841 0.494622 -0.864348
vn 0.121303 0.497054 -0.859199
vn 0.498065 0.484740 -0.718998
vn -0.122891 0.497559 0.858681
vn -0.090934 0.494920 0.864167
vn 0.090835 0.494621 0.864349
vn 0.121293 0.497052 0.859201
vn 0.000000 1.000000 0.000000
vn 0.000000 1.000000 0.000000
vn 0.000000 1.000000 0.000000
vn 0.000000 1.000000 0.000000
vn 0.106071 0.207945 -0.972372
vn 0.130168 0.211543 -0.968662
vn -0.128718 0.210634 -0.969054
vn -0.105320 0.207262 -0.972600
vn 0.000000 1.000000 0.000000
vn 0.000000 1.000000 0.000000
vn 0.000000 1.000000 0.000000
vn 0.000000 1.000000 0.000000
vn -0.128712 0.210644 0.969052
vn 0.130163 0.211552 0.968661
vn 0.106066 0.207952 0.972371
vn -0.105315 0.207269 0.972599
vn 0.000000 1.000000 -0.000000
vn 0.000000 1.000000 -0.000000
vn 0.000000 1.000000 -0.000000
vn 0.000000 1.000000 -0.000000
vn 0.090841 0.494622 -0.864348
vn -0.090941 0.494921 -0.864166
vn -0.122901 0.497560 -0.858679
vn 0.121303 0.497054 -0.859199
vn 0.797905 0.602783 0.000000
vn 0.797905 0.602783 0.000000
vn 0.797905 0.602783 0.000000
vn 0.797905 0.602783 0.000000
vn 0.000000 0.410512 -0.911855
vn 0.000000 0.410512 -0.911855
vn 0.000000 0.410512 -0.911855
vn 0.000000 0.410512 -0.911855
vn -0.797905 0.602783 0.000000
vn -0.797905 0.602783 0.000000
vn -0.797905 0.602783 0.000000
vn -0.797905 0.602783 0.000000
vn 0.000000 0.410368 0.911920
vn 0.000000 0.410368 0.911920
vn 0.000000 0.410368 0.911920
vn 0.000000 0.410368 0.911920
s off
f 17/29/1 40/30/2 41/31/3 20/32/4
f 1/1/5 2/2/6 7/7/7 6/6/8
f 4/4/9 44/67/10 2/2/11
f 44/67/12 36/56/13 2/2/14
f 36/56/15 7/7/16 2/2/17
f 44/67/18 4/4/19 8/8/20
f 4/4/21 3/3/22 8/8/23
f 8/8/24 3/3/25 5/5/26
f 5/5/27 3/3/28 37/58/29
f 3/3/30 1/1/31 37/58/32
f 37/58/33 1/1/34 29/50/35
f 1/1/36 6/6/37 29/50/38
f 5/9/39 37/10/40 38/11/41 9/12/42
f 6/13/43 7/14/44 11/15/45 10/16/46
f 44/17/47 8/18/48 12/19/49 43/20/50
f 8/18/51 5/9/52 9/12/53 12/19/54
f 9/12/55 38/11/56 39/21/57 13/22/58
f 10/16/59 11/15/60 15/23/61 14/24/62
f 43/20/63 12/19/64 16/25/65 42/26/66
f 12/19/67 9/12/68 13/22/69 16/25/70
f 13/22/71 39/21/72 40/27/73 17/28/74
f 14/24/75 15/23/76 19/49/77 18/51/78
f 42/26/79 16/25/80 20/52/81 41/54/82
f 16/25/83 13/22/84 17/28/85 20/52/86
f 2/33/87 1/34/88 22/37/89 21/38/90
f 24/48/91 4/47/92 2/33/93 21/38/94
f 3/40/95 4/47/96 24/48/97 23/46/98
f 3/40/99 23/46/100 22/37/101 1/34/102
f 21/36/103 22/35/104 26/42/105 25/43/106
f 28/45/107 24/41/108 21/36/109 25/43/110
f 23/39/111 24/41/112 28/45/113 27/44/114
f 23/39/115 27/44/116 26/42/117 22/35/118
f 30/57/119 29/59/120 6/13/121 10/16/122
f 31/60/123 30/57/124 10/16/125 14/24/126
f 32/62/127 31/60/128 14/24/129 18/51/130
f 33/53/131 32/55/132 18/61/133 19/64/134
f 15/23/135 34/63/136 33/65/137 19/49/138
f 11/15/139 35/66/140 34/63/141 15/23/142
f 7/14/143 36/68/144 35/66/145 11/15/146
f 38/11/147 37/10/148 29/59/149 30/57/150
f 39/21/151 38/11/152 30/57/153 31/60/154
f 40/27/155 39/21/156 31/60/157 32/62/158
f 41/31/159 40/30/160 32/55/161 33/53/162
f 34/63/163 42/26/164 41/54/165 33/65/166
f 35/66/167 43/20/168 42/26/169 34/63/170
f 36/68/171 44/17/172 43/20/173 35/66/174
f 25/69/175 26/70/176 46/71/177 45/72/178
f 45/72/179 48/76/180 28/75/181 25/69/182
f 27/73/183 28/75/184 48/76/185 47/74/186
f 47/74/187 46/71/188 26/70/189 27/73/190
