# This file uses meters as units for non-parametric coordinates.

v -78.333893 0.000000 20.840302
v 78.333923 2.874317 20.840302
v -78.333893 53.707153 20.840302
v 78.333923 53.707153 20.840302
v -78.333893 53.707153 -24.466629
v 78.333923 53.707153 -24.466629
v -78.333893 0.000000 -24.466629
v 78.333923 0.000000 -24.466629
v -75.367752 3.096018 24.466553
v 75.367798 3.096018 24.466553
v 75.367798 50.611115 24.466553
v -75.367752 50.611115 24.466553
v -70.140213 10.401974 24.466553
v 70.140244 10.401974 24.466553
v 70.140244 43.305168 24.466553
v -70.140213 43.305168 24.466553
v -63.126053 43.305168 24.466553
v -63.126053 10.401974 24.466553
v 63.126083 43.305168 24.466553
v 63.126083 10.401974 24.466553
v 56.813431 43.305168 24.466553
v 56.813431 10.401974 24.466553
v 49.900681 43.305168 24.466553
v 49.900681 10.401974 24.466553
v -56.813389 43.305168 24.466553
v -56.813389 10.401974 24.466553
v -49.900658 43.305168 24.466553
v -49.900658 10.401974 24.466553
v -44.910553 43.305168 24.466553
v -44.910553 10.401974 24.466553
v -37.357651 43.305168 24.466553
v -37.357651 10.401974 24.466553
v 44.910583 43.305168 24.466553
v 44.910583 10.401974 24.466553
v 37.357697 43.305168 24.466553
v 37.357697 10.401974 24.466553
v 64.653107 41.396927 19.440079
v 64.653107 12.310218 19.440079
v 68.613243 12.310218 19.440079
v 68.613243 41.396927 19.440079
v -68.613205 12.310218 19.440079
v -64.653076 12.310218 19.440079
v -64.653076 41.396927 19.440079
v -68.613205 41.396927 19.440079
v 51.405602 41.396927 19.440079
v 51.405602 12.310218 19.440079
v 55.308517 12.310218 19.440079
v 55.308517 41.396927 19.440079
v -55.308777 41.396927 19.440079
v -55.308777 12.310218 19.440079
v -51.405571 12.310218 19.440079
v -51.405571 41.396927 19.440079
v -43.717125 41.396927 19.440079
v -43.717125 12.310218 19.440079
v -38.488602 12.310218 19.440079
v -38.488602 41.396927 19.440079
v 38.488632 41.396927 19.440079
v 38.488632 12.310218 19.440079
v 43.717178 12.310218 19.440079
v 43.717178 41.396927 19.440079
v 0.000019 10.401974 24.466553
v 0.000019 43.305168 24.466553
v 0.000019 3.096018 24.466553
v 0.000019 0.000000 20.840302
v 0.000019 0.000000 -24.466629
v 0.000019 53.707153 -24.466629
v 0.000019 53.707153 20.840302
v 0.000019 50.611115 24.466553
v -42.881027 53.707153 20.840302
v -18.027733 53.707153 20.840302
v -31.182823 53.707153 18.003693
v -30.545158 52.445557 22.317928
v -51.708107 50.611115 24.466553
v -41.148232 50.611115 24.466553
v -46.986931 51.724480 23.162537
v -46.640739 48.399620 24.466553
v 78.333923 0.000000 17.363510
v 76.537949 1.874418 23.035736
v 76.500183 0.000000 20.840302
v 23.920174 3.096018 24.466553
v 39.967690 3.096018 24.466553
v 33.423290 4.836216 24.466553
v 33.860836 1.463041 22.553905
vt 0.245277 0.350761
vt 0.245277 0.350761
vt 0.245277 0.350761
vt 0.245277 0.350761
vt 0.245277 0.350761
vt 0.245277 0.350761
vt 0.245277 0.350761
vt 0.245277 0.350761
vt 0.245277 0.350761
vt 0.245277 0.350761
vt 0.245277 0.350761
vt 0.245277 0.350761
vt 0.245277 0.350761
vt 0.245277 0.350761
vt 0.245277 0.350761
vt 0.245277 0.350761
vt 0.245277 0.350761
vt 0.245277 0.350761
vt 0.245277 0.277706
vt 0.245277 0.277706
vt 0.245277 0.277706
vt 0.245277 0.277706
vt 0.245277 0.277706
vt 0.245277 0.277706
vt 0.245277 0.277706
vt 0.245277 0.277706
vt 0.245277 0.350761
vt 0.245277 0.350761
vt 0.245277 0.277706
vt 0.245277 0.277706
vt 0.245277 0.350761
vt 0.245277 0.350761
vt 0.245277 0.350761
vt 0.245277 0.277706
vt 0.245277 0.350761
vt 0.245277 0.350761
vt 0.245277 0.277706
vt 0.245277 0.277706
vt 0.245277 0.350761
vt 0.245277 0.350761
vt 0.245277 0.350761
vt 0.245277 0.350761
vt 0.245277 0.277706
vt 0.245277 0.277706
vt 0.245277 0.277706
vt 0.245277 0.277706
vt 0.245277 0.277706
vt 0.245277 0.277706
vt 0.245277 0.277706
vt 0.245277 0.277706
vt 0.245277 0.277706
vt 0.245277 0.277706
vt 0.245277 0.277706
vt 0.245277 0.277706
vt 0.245277 0.277706
vt 0.245277 0.277706
vt 0.245277 0.277706
vt 0.245277 0.277706
vt 0.245277 0.277706
vt 0.245277 0.277706
vt 0.245277 0.277706
vt 0.245277 0.277706
vt 0.245277 0.277706
vt 0.245277 0.277706
vt 0.245277 0.277706
vt 0.245277 0.277706
vt 0.245277 0.350761
vt 0.245277 0.350761
vt 0.245277 0.350761
vt 0.245277 0.350761
vt 0.245277 0.350761
vt 0.245277 0.350761
vt 0.245277 0.350761
vt 0.245277 0.350761
vt 0.245277 0.350761
vt 0.245277 0.350761
vt 0.245277 0.350761
vt 0.245277 0.350761
vt 0.245277 0.350761
vt 0.245277 0.350761
vt 0.245277 0.350761
vt 0.245277 0.350761
vt 0.245277 0.350761
vt 0.245277 0.350761
vt 0.245277 0.350761
vt 0.245277 0.350761
vt 0.245277 0.350761
vt 0.245277 0.350761
vt 0.245277 0.350761
vt 0.245277 0.350761
vt 0.245277 0.350761
vt 0.245277 0.350761
vt 0.245277 0.277706
vt 0.245277 0.277706
vt 0.245277 0.277706
vt 0.245277 0.277706
vt 0.245277 0.277706
vt 0.245277 0.277706
vt 0.245277 0.277706
vt 0.245277 0.277706
vt 0.245277 0.277706
vt 0.245277 0.277706
vt 0.245277 0.277706
vt 0.245277 0.277706
vt 0.245277 0.277706
vt 0.245277 0.277706
vt 0.245277 0.277706
vt 0.245277 0.277706
vt 0.245277 0.277706
vt 0.245277 0.277706
vt 0.245277 0.277706
vt 0.245277 0.277706
vt 0.245277 0.277706
vt 0.245277 0.277706
vt 0.245277 0.350761
vt 0.245277 0.277706
vt 0.245277 0.277706
vt 0.245277 0.277706
vt 0.245277 0.350761
vt 0.245277 0.277706
vt 0.245277 0.277706
vt 0.245277 0.277706
vt 0.245277 0.277706
vt 0.245277 0.277706
vt 0.245277 0.277706
vt 0.245277 0.277706
vt 0.245277 0.277706
vt 0.245277 0.277706
vt 0.245277 0.277706
vt 0.245277 0.277706
vt 0.245277 0.277706
vt 0.245277 0.277706
vt 0.245277 0.277706
vt 0.245277 0.277706
vt 0.245277 0.350761
vt 0.245277 0.277706
vt 0.245277 0.277706
vt 0.245277 0.277706
vt 0.245277 0.277706
vt 0.245277 0.277706
vt 0.245277 0.277706
vt 0.245277 0.277706
vt 0.245277 0.277706
vt 0.245277 0.277706
vt 0.245277 0.277706
vt 0.245277 0.277706
vt 0.245277 0.277706
vt 0.245277 0.277706
vt 0.245277 0.277706
vt 0.245277 0.277706
vt 0.245277 0.277706
vt 0.245277 0.277706
vt 0.245277 0.350761
vt 0.245277 0.277706
vt 0.245277 0.350761
vt 0.245277 0.277706
vt 0.245277 0.277706
vt 0.245277 0.277706
vt 0.245277 0.277706
vt 0.245277 0.277706
vt 0.245277 0.277706
vt 0.245277 0.277706
vt 0.245277 0.350761
vt 0.245277 0.277706
vt 0.245277 0.277706
vt 0.245277 0.277706
vt 0.245277 0.350761
vt 0.245277 0.277706
vt 0.245277 0.350761
vt 0.245277 0.277706
vt 0.245277 0.350761
vt 0.245277 0.277706
vt 0.245277 0.277706
vt 0.245277 0.277706
vt 0.245277 0.277706
vt 0.245277 0.277706
vt 0.245277 0.277706
vt 0.245277 0.277706
vt 0.245277 0.350761
vt 0.245277 0.277706
vt 0.245277 0.277706
vt 0.245277 0.277706
vt 0.245277 0.350761
vt 0.245277 0.277706
vt 0.245277 0.350761
vt 0.245277 0.277706
vt 0.245277 0.350761
vt 0.245277 0.277706
vn 0.000000 0.000000 1.000000
vn 0.000000 0.000000 1.000000
vn 0.000000 0.000000 1.000000
vn 0.000000 0.000000 1.000000
vn 0.000000 1.000000 0.000000
vn 0.000000 1.000000 0.000000
vn 0.000000 1.000000 0.000000
vn 0.000000 1.000000 0.000000
vn 0.000000 0.000000 -1.000000
vn 0.000000 0.000000 -1.000000
vn 0.000000 0.000000 -1.000000
vn 0.000000 0.000000 -1.000000
vn 0.000000 -1.000000 0.000000
vn 0.000000 -1.000000 0.000000
vn 0.000000 -1.000000 0.000000
vn 0.000000 -1.000000 0.000000
vn 0.000000 -1.000000 0.000000
vn -1.000000 0.000000 0.000000
vn -1.000000 0.000000 0.000000
vn -1.000000 0.000000 0.000000
vn -1.000000 0.000000 0.000000
vn 0.000000 -0.760519 0.649315
vn 0.000000 -0.760519 0.649315
vn 0.000000 -0.760519 0.649315
vn 0.000000 -0.760519 0.649315
vn 0.000000 0.760517 0.649318
vn 0.000000 0.760517 0.649318
vn 0.000000 0.760517 0.649318
vn 0.000000 0.760517 0.649318
vn -0.774040 0.000000 0.633137
vn -0.774040 0.000000 0.633137
vn -0.774040 0.000000 0.633137
vn -0.774040 0.000000 0.633137
vn 0.000000 0.000000 1.000000
vn 0.000000 0.000000 1.000000
vn 0.000000 0.000000 1.000000
vn 0.000000 0.000000 1.000000
vn 0.000000 0.000000 1.000000
vn 0.000000 0.000000 1.000000
vn 0.000000 0.000000 1.000000
vn 0.000000 0.000000 1.000000
vn 0.000000 0.000000 1.000000
vn 0.000000 0.000000 1.000000
vn 0.000000 0.000000 1.000000
vn 0.000000 0.000000 1.000000
vn -0.000000 0.000000 1.000000
vn -0.000000 0.000000 1.000000
vn -0.000000 0.000000 1.000000
vn -0.000000 0.000000 1.000000
vn 0.000000 0.000000 1.000000
vn 0.000000 0.000000 1.000000
vn 0.000000 0.000000 1.000000
vn 0.000000 0.000000 1.000000
vn 0.000000 0.000000 1.000000
vn 0.000000 0.000000 1.000000
vn 0.000000 0.000000 1.000000
vn 0.000000 0.000000 1.000000
vn 0.000000 0.000000 1.000000
vn 0.000000 0.000000 1.000000
vn 0.000000 0.000000 1.000000
vn 0.000000 0.000000 1.000000
vn 0.000000 0.000000 1.000000
vn 0.000000 0.000000 1.000000
vn 0.000000 0.000000 1.000000
vn 0.000000 0.000000 1.000000
vn 0.000000 0.000000 1.000000
vn 0.000000 0.000000 1.000000
vn 0.000000 0.000000 1.000000
vn 0.000000 0.000000 1.000000
vn 0.000000 0.000000 1.000000
vn 0.000000 0.000000 1.000000
vn 0.000000 0.000000 1.000000
vn 0.000000 0.000000 1.000000
vn 0.000000 0.000000 1.000000
vn 0.000000 0.000000 1.000000
vn 0.000000 0.000000 1.000000
vn 0.000000 0.000000 1.000000
vn 0.000000 0.000000 1.000000
vn 0.000000 0.000000 1.000000
vn 0.000000 0.000000 1.000000
vn 0.000000 0.000000 1.000000
vn 0.000000 0.000000 1.000000
vn 0.000000 0.000000 1.000000
vn 0.000000 0.000000 1.000000
vn 0.000000 0.000000 1.000000
vn 0.000000 0.000000 1.000000
vn 0.000000 0.000000 1.000000
vn 0.000000 0.000000 1.000000
vn 0.000000 0.000000 1.000000
vn 0.956821 0.000000 0.290678
vn 0.956821 0.000000 0.290678
vn 0.956821 0.000000 0.290678
vn 0.956821 0.000000 0.290678
vn 0.000000 0.934896 0.354923
vn 0.000000 0.934896 0.354923
vn 0.000000 0.934896 0.354923
vn 0.000000 0.934896 0.354923
vn -0.956822 0.000000 0.290674
vn -0.956822 0.000000 0.290674
vn -0.956822 0.000000 0.290674
vn -0.956822 0.000000 0.290674
vn 0.000000 -0.934896 0.354922
vn 0.000000 -0.934896 0.354922
vn 0.000000 -0.934896 0.354922
vn 0.000000 -0.934896 0.354922
vn 0.000000 0.934896 0.354923
vn 0.000000 0.934896 0.354923
vn 0.000000 0.934896 0.354923
vn 0.000000 0.934896 0.354923
vn -0.956821 0.000000 0.290678
vn -0.956821 0.000000 0.290678
vn -0.956821 0.000000 0.290678
vn -0.956821 0.000000 0.290678
vn 0.000000 -0.934896 0.354923
vn 0.000000 -0.934896 0.354923
vn 0.000000 -0.934896 0.354923
vn 0.000000 -0.934896 0.354923
vn 0.956822 0.000000 0.290676
vn 0.956822 0.000000 0.290676
vn 0.956822 0.000000 0.290676
vn 0.956822 0.000000 0.290676
vn 0.957985 0.000000 0.286819
vn 0.957985 0.000000 0.286819
vn 0.957985 0.000000 0.286819
vn 0.957985 0.000000 0.286819
vn 0.000000 0.934896 0.354923
vn 0.000000 0.934896 0.354923
vn 0.000000 0.934896 0.354923
vn 0.000000 0.934896 0.354923
vn -0.957985 0.000000 0.286818
vn -0.957985 0.000000 0.286818
vn -0.957985 0.000000 0.286818
vn -0.957985 0.000000 0.286818
vn 0.000000 -0.934896 0.354922
vn 0.000000 -0.934896 0.354922
vn 0.000000 -0.934896 0.354922
vn 0.000000 -0.934896 0.354922
vn 0.958001 0.000000 0.286765
vn 0.958001 0.000000 0.286765
vn 0.958001 0.000000 0.286765
vn 0.958001 0.000000 0.286765
vn 0.000000 0.934896 0.354923
vn 0.000000 0.934896 0.354923
vn 0.000000 0.934896 0.354923
vn 0.000000 0.934896 0.354923
vn -0.957985 0.000000 0.286818
vn -0.957985 0.000000 0.286818
vn -0.957985 0.000000 0.286818
vn -0.957985 0.000000 0.286818
vn 0.000000 -0.934896 0.354922
vn 0.000000 -0.934896 0.354923
vn 0.000000 -0.934896 0.354922
vn 0.000000 -0.934896 0.354923
vn 0.972952 0.000000 0.231006
vn 0.972952 0.000000 0.231006
vn 0.972952 0.000000 0.231006
vn 0.972952 0.000000 0.231006
vn 0.000000 0.934896 0.354923
vn 0.000000 0.934896 0.354923
vn 0.000000 0.934896 0.354923
vn 0.000000 0.934896 0.354923
vn -0.975610 0.000000 0.219511
vn -0.975610 0.000000 0.219511
vn -0.975610 0.000000 0.219511
vn -0.975610 0.000000 0.219511
vn 0.000000 -0.934896 0.354922
vn 0.000000 -0.934896 0.354922
vn 0.000000 -0.934896 0.354922
vn 0.000000 -0.934896 0.354922
vn 0.975611 0.000000 0.219508
vn 0.975611 0.000000 0.219508
vn 0.975611 0.000000 0.219508
vn 0.975611 0.000000 0.219508
vn 0.000000 0.934896 0.354922
vn 0.000000 0.934896 0.354922
vn 0.000000 0.934896 0.354923
vn 0.000000 0.934896 0.354922
vn -0.972953 0.000000 0.231002
vn -0.972953 0.000000 0.231002
vn -0.972953 0.000000 0.231002
vn -0.972953 0.000000 0.231002
vn 0.000000 -0.934896 0.354922
vn 0.000000 -0.934896 0.354922
vn 0.000000 -0.934896 0.354922
vn 0.000000 -0.934896 0.354922
vn 0.000000 0.000000 1.000000
vn 0.000000 0.000000 1.000000
vn 0.000000 0.000000 1.000000
vn 0.000000 0.000000 1.000000
vn 0.000000 -0.760519 0.649315
vn 0.000000 -0.760519 0.649315
vn 0.000000 -0.760519 0.649315
vn 0.000000 -0.760519 0.649315
vn 0.000000 -1.000000 0.000000
vn 0.000000 -1.000000 0.000000
vn 0.000000 -1.000000 0.000000
vn 0.000000 -1.000000 0.000000
vn 0.000000 0.000000 -1.000000
vn 0.000000 0.000000 -1.000000
vn 0.000000 0.000000 -1.000000
vn 0.000000 0.000000 -1.000000
vn 0.000000 1.000000 0.000000
vn 0.000000 1.000000 0.000000
vn 0.000000 1.000000 0.000000
vn 0.000000 1.000000 0.000000
vn 0.000000 0.760521 0.649313
vn 0.000000 0.760521 0.649313
vn 0.000000 0.760521 0.649313
vn 0.000000 0.760521 0.649313
vn 0.000000 0.000000 1.000000
vn 0.000000 0.000000 1.000000
vn 0.000000 0.000000 1.000000
vn 0.000000 0.000000 1.000000
vn 0.000000 0.000000 1.000000
vn 0.000000 0.000000 1.000000
vn 0.000000 0.000000 1.000000
vn 0.000000 0.000000 1.000000
vn 0.000000 0.000000 1.000000
vn 0.000000 0.000000 1.000000
vn 0.000000 0.000000 1.000000
vn 0.000000 0.000000 1.000000
vn 0.000000 0.000000 1.000000
vn 0.000000 0.000000 1.000000
vn 0.000000 0.000000 1.000000
vn 0.000000 0.000000 1.000000
vn 0.000000 0.000000 1.000000
vn 0.000000 0.000000 1.000000
vn 0.000000 0.000000 1.000000
vn 0.000000 0.000000 1.000000
vn 0.000000 0.000000 1.000000
vn 0.000000 0.000000 1.000000
vn 0.000000 0.000000 1.000000
vn 0.000000 0.000000 1.000000
vn 0.000000 0.000000 1.000000
vn 0.000000 0.000000 1.000000
vn 0.000000 0.000000 1.000000
vn 0.000000 0.000000 1.000000
vn 0.000000 0.000000 1.000000
vn 0.000000 0.000000 1.000000
vn 0.000000 0.000000 1.000000
vn 0.000000 0.000000 1.000000
vn 0.000000 0.000000 1.000000
vn 0.000000 0.000000 1.000000
vn 0.000000 0.000000 1.000000
vn 0.000000 0.000000 1.000000
vn 0.000000 0.000000 1.000000
vn 0.000000 0.000000 1.000000
vn 0.000000 0.000000 1.000000
vn 0.000000 0.000000 1.000000
vn 0.000000 0.000000 1.000000
vn 0.000000 0.000000 1.000000
vn 0.000000 0.000000 1.000000
vn 0.000000 0.000000 1.000000
vn 0.000000 0.000000 1.000000
vn -0.062228 0.955428 0.288590
vn -0.062228 0.955428 0.288590
vn -0.062228 0.955428 0.288590
vn -0.140440 0.348798 0.926616
vn -0.140440 0.348798 0.926616
vn -0.140440 0.348798 0.926616
vn 0.065738 0.960304 0.271100
vn 0.065738 0.960304 0.271100
vn 0.065738 0.960304 0.271100
vn -0.000000 0.760516 0.649319
vn -0.000000 0.760516 0.649319
vn -0.000000 0.760516 0.649319
vn -0.000000 0.760516 0.649319
vn 0.163623 0.374922 0.912503
vn 0.163623 0.374922 0.912503
vn 0.163623 0.374922 0.912503
vn 0.000000 0.000000 1.000000
vn 0.000000 0.000000 1.000000
vn 0.000000 0.000000 1.000000
vn 0.000000 0.000000 1.000000
vn 0.000000 0.000000 1.000000
vn -0.000000 0.760516 0.649320
vn -0.000000 0.760516 0.649320
vn -0.000000 0.760516 0.649320
vn -0.000000 0.760516 0.649320
vn 0.000000 0.760518 0.649316
vn 0.000000 0.760518 0.649316
vn 0.000000 0.760518 0.649316
vn 0.000000 0.760518 0.649316
vn 0.000000 1.000000 0.000000
vn 0.000000 1.000000 0.000000
vn 0.000000 1.000000 0.000000
vn 0.000000 1.000000 0.000000
vn 0.000000 1.000000 0.000000
vn 0.000000 1.000000 0.000000
vn 0.000000 1.000000 0.000000
vn 0.770328 -0.491451 0.406289
vn 0.770328 -0.491451 0.406289
vn 0.770328 -0.491451 0.406289
vn 1.000000 0.000000 0.000000
vn 1.000000 0.000000 0.000000
vn 1.000000 0.000000 0.000000
vn 1.000000 0.000000 0.000000
vn 1.000000 0.000000 0.000000
vn 0.770313 -0.491439 0.406331
vn 0.770313 -0.491439 0.406331
vn 0.770313 -0.491439 0.406331
vn 0.774042 -0.000002 0.633135
vn 0.774042 -0.000002 0.633135
vn 0.774042 -0.000002 0.633135
vn 0.774042 -0.000002 0.633135
vn 0.774042 -0.000002 0.633135
vn 0.088376 -0.482614 0.871363
vn 0.088376 -0.482614 0.871363
vn 0.088376 -0.482614 0.871363
vn -0.133452 -0.501874 0.854584
vn -0.133452 -0.501874 0.854584
vn -0.133452 -0.501874 0.854584
vn 0.000000 -0.760519 0.649315
vn 0.000000 -0.760519 0.649315
vn 0.000000 -0.760519 0.649315
vn 0.000000 -0.760519 0.649315
vn 0.000000 -0.760519 0.649315
vn 0.000000 -0.760519 0.649316
vn 0.000000 -0.760519 0.649316
vn 0.000000 -0.760519 0.649316
vn 0.000000 0.000000 1.000000
vn 0.000000 0.000000 1.000000
vn 0.000000 0.000000 1.000000
vn 0.000000 0.000000 1.000000
vn 0.000000 0.000000 1.000000
vn 0.000000 0.000000 1.000000
s off
f 37/43/1 38/182/2 39/178/3 40/176/4
f 66/73/5 67/74/6 4/4/7 6/6/8
f 65/72/9 66/73/10 6/6/11 8/8/12
f 64/71/13 65/72/14 8/8/15 77/84/16 79/88/17
f 7/13/18 1/1/19 3/3/20 5/14/21
f 63/69/22 64/70/23 83/92/24 80/89/25
f 4/4/26 67/74/27 68/75/28 11/17/29
f 3/3/30 1/1/31 9/15/32 12/18/33
f 30/36/34 63/69/35 61/67/36 32/119/37
f 10/16/38 11/17/39 15/179/40 14/183/41
f 62/68/42 68/75/43 29/35/44 31/115/45
f 12/18/46 9/15/47 13/171/48 16/163/49
f 41/47/50 42/166/51 43/162/52 44/160/53
f 21/27/54 22/28/55 20/185/56 19/187/57
f 45/51/58 46/150/59 47/146/60 48/144/61
f 33/39/62 34/40/63 24/153/64 23/155/65
f 17/167/66 18/169/67 26/32/68 25/31/69
f 49/55/70 50/134/71 51/130/72 52/128/73
f 27/33/74 28/135/75 30/36/76 29/35/77
f 53/59/78 54/118/79 55/114/80 56/112/81
f 57/63/82 58/102/83 59/98/84 60/96/85
f 61/67/86 62/68/87 31/115/88 32/119/89
f 19/25/90 20/186/91 38/181/92 37/173/93
f 20/26/94 14/184/95 39/177/96 38/44/97
f 14/20/98 15/180/99 40/175/100 39/45/101
f 15/21/102 19/188/103 37/174/104 40/46/105
f 13/19/106 18/170/107 42/165/108 41/157/109
f 18/24/110 17/168/111 43/161/112 42/48/113
f 17/23/114 16/164/115 44/159/116 43/49/117
f 16/22/118 13/172/119 41/158/120 44/50/121
f 23/29/122 24/154/123 46/149/124 45/141/125
f 24/30/126 22/151/127 47/145/128 46/52/129
f 22/152/130 21/147/131 48/143/132 47/53/133
f 21/148/134 23/156/135 45/142/136 48/54/137
f 25/140/138 26/137/139 50/133/140 49/125/141
f 26/138/142 28/136/143 51/129/144 50/56/145
f 28/34/146 27/131/147 52/127/148 51/57/149
f 27/132/150 25/139/151 49/126/152 52/58/153
f 29/124/154 30/121/155 54/117/156 53/109/157
f 30/122/158 32/120/159 55/113/160 54/60/161
f 32/38/162 31/116/163 56/111/164 55/61/165
f 31/37/166 29/123/167 53/110/168 56/62/169
f 35/108/170 36/105/171 58/101/172 57/93/173
f 36/106/174 34/103/175 59/97/176 58/64/177
f 34/104/178 33/99/179 60/95/180 59/65/181
f 33/100/182 35/107/183 57/94/184 60/66/185
f 36/42/186 35/41/187 62/68/188 61/67/189
f 1/1/190 64/70/191 63/69/192 9/15/193
f 7/7/194 65/72/195 64/71/196 1/9/197
f 5/5/198 66/73/199 65/72/200 7/7/201
f 66/73/202 71/78/203 70/77/204 67/74/205
f 68/75/206 72/79/207 75/82/208 74/81/209
f 61/67/210 63/69/211 34/40/212 36/42/213
f 33/39/214 68/75/215 62/68/216 35/41/217
f 25/31/218 12/18/219 16/163/220 17/167/221
f 9/15/222 63/69/223 30/36/224 28/135/225 26/32/226
f 22/28/227 10/16/228 14/183/229 20/185/230
f 11/17/231 68/75/232 33/39/233 23/155/234 21/27/235
f 29/35/236 68/75/237 74/81/238 76/83/239 27/33/240
f 9/15/241 26/32/242 18/169/243 13/171/244
f 34/40/245 82/91/246 81/90/247 10/16/248 22/28/249 24/153/250
f 11/17/251 21/27/252 19/187/253 15/179/254
f 71/78/255 72/79/256 70/77/257
f 75/82/258 76/83/259 74/81/260
f 69/76/261 72/79/262 71/78/263
f 75/82/264 3/3/265 12/18/266 73/80/267
f 73/80/268 76/83/269 75/82/270
f 27/33/271 76/83/272 73/80/273 12/18/274 25/31/275
f 68/75/276 67/74/277 70/77/278 72/79/279
f 75/82/280 72/79/281 69/76/282 3/3/283
f 3/3/284 69/76/285 71/78/286 5/5/287
f 5/5/288 71/78/289 66/73/290
f 79/88/291 77/84/292 2/10/293
f 2/2/294 77/85/295 8/11/296 6/12/297 4/4/298
f 78/86/299 79/87/300 2/2/301
f 78/86/302 2/2/303 4/4/304 11/17/305 10/16/306
f 80/89/307 83/92/308 82/91/309
f 82/91/310 83/92/311 81/90/312
f 83/92/313 79/87/314 78/86/315 10/16/316 81/90/317
f 83/92/318 64/70/319 79/87/320
f 82/91/321 63/69/322 80/89/323
f 34/40/324 63/69/325 82/91/326
