# This file uses meters as units for non-parametric coordinates.

v -7.136230 0.000000 -7.692947
v -7.136230 0.000000 7.692947
v -6.226196 1.585206 -6.898613
v -6.226196 1.585206 6.898689
v 6.226807 1.585206 -6.898613
v 6.226807 1.585206 6.898689
v 7.136841 0.000000 -7.692909
v 7.136841 0.000000 7.692986
v -5.250244 1.585206 -5.817701
v -5.250244 1.585206 5.817738
v 5.250854 1.585206 5.817833
v 5.250854 1.585206 -5.817757
v 2.261353 1.585206 4.250679
v 4.721680 1.585206 -0.011063
v 2.261353 1.585206 -4.272881
v -2.659912 1.585206 -4.272804
v -5.120239 1.585206 -0.011063
v -2.659912 1.585206 4.250755
v 1.900635 2.146045 3.625832
v 4.000244 2.146045 -0.010986
v 1.900635 2.146045 -3.648567
v -2.299194 2.146045 -3.648567
v -4.398804 2.146045 -0.010986
v -2.299194 2.146045 3.625832
v 1.523438 2.146045 2.972298
v 3.245850 2.146045 -0.011024
v 1.523438 2.146045 -2.994919
v -1.921997 2.146045 -2.994881
v -3.644409 2.146045 -0.011101
v -1.921997 2.146045 2.972336
v 1.439819 3.020806 2.827148
v 3.078003 3.020806 -0.011024
v -0.198975 3.020806 -0.010986
v 1.439209 3.020806 -2.849159
v -1.838379 3.020806 -2.849236
v -3.476563 3.020806 -0.011101
v -1.837769 3.020806 2.827034
vt 0.235291 0.305932
vt 0.235291 0.305932
vt 0.235291 0.305932
vt 0.235291 0.305932
vt 0.235291 0.305932
vt 0.235291 0.305932
vt 0.235291 0.305932
vt 0.235291 0.305932
vt 0.235291 0.305932
vt 0.235291 0.305932
vt 0.235291 0.305932
vt 0.235291 0.305932
vt 0.437986 0.363683
vt 0.495675 0.363683
vt 0.437986 0.305994
vt 0.495675 0.305994
vt 0.080261 0.229279
vt 0.080261 0.229279
vt 0.080261 0.229278
vt 0.080261 0.229278
vt 0.080261 0.229279
vt 0.080261 0.229278
vt 0.080261 0.229279
vt 0.080261 0.229278
vt 0.080261 0.229279
vt 0.080261 0.229278
vt 0.080261 0.229279
vt 0.080261 0.229278
vt 0.421334 0.027500
vt 0.421334 0.027500
vt 0.421334 0.027500
vt 0.421334 0.027500
vt 0.421334 0.027500
vt 0.421334 0.027500
vt 0.421334 0.027500
vt 0.080261 0.229278
vt 0.080261 0.229278
vt 0.080261 0.229278
vt 0.080261 0.229278
vt 0.080261 0.229278
vt 0.080261 0.229278
vt 0.421334 0.027500
vt 0.421334 0.027500
vt 0.421334 0.027500
vt 0.421334 0.027500
vt 0.421334 0.027500
vt 0.421334 0.027500
vn -0.867251 0.497871 0.000000
vn -0.867251 0.497871 0.000000
vn -0.867251 0.497871 0.000000
vn -0.867251 0.497871 0.000000
vn 0.867251 0.497871 0.000000
vn 0.867251 0.497871 0.000000
vn 0.867251 0.497871 0.000000
vn 0.867251 0.497871 0.000000
vn 0.000000 -1.000000 0.000000
vn 0.000000 -1.000000 0.000000
vn 0.000000 -1.000000 0.000000
vn 0.000000 -1.000000 0.000000
vn -0.000001 0.447969 0.894049
vn -0.000001 0.447969 0.894049
vn -0.000001 0.447969 0.894049
vn -0.000001 0.447969 0.894049
vn 0.000001 0.447986 -0.894041
vn 0.000001 0.447986 -0.894041
vn 0.000001 0.447986 -0.894041
vn 0.000001 0.447986 -0.894041
vn 0.000000 1.000000 0.000000
vn 0.000000 1.000000 0.000000
vn 0.000000 1.000000 0.000000
vn 0.000000 1.000000 0.000000
vn 0.000000 1.000000 0.000000
vn 0.000000 1.000000 0.000000
vn 0.000000 1.000000 0.000000
vn 0.000000 1.000000 0.000000
vn 0.000000 1.000000 0.000000
vn 0.000000 1.000000 0.000000
vn 0.000000 1.000000 0.000000
vn 0.000000 1.000000 0.000000
vn 0.000000 1.000000 0.000000
vn 0.000000 1.000000 0.000000
vn 0.000000 1.000000 0.000000
vn 0.000000 1.000000 0.000000
vn 0.000000 1.000000 0.000000
vn 0.000000 1.000000 0.000000
vn 0.000000 1.000000 0.000000
vn 0.000000 1.000000 0.000000
vn 0.578516 0.744159 0.333985
vn 0.578516 0.744159 0.333985
vn 0.578516 0.744159 0.333985
vn 0.578516 0.744159 0.333985
vn 0.578581 0.744109 -0.333986
vn 0.578581 0.744109 -0.333986
vn 0.578581 0.744109 -0.333986
vn 0.578581 0.744109 -0.333986
vn -0.000006 0.743891 -0.668301
vn -0.000006 0.743891 -0.668301
vn -0.000006 0.743891 -0.668301
vn -0.000006 0.743891 -0.668301
vn -0.578589 0.744098 -0.333994
vn -0.578589 0.744098 -0.333994
vn -0.578589 0.744098 -0.333995
vn -0.578589 0.744098 -0.333994
vn -0.578508 0.744169 0.333977
vn -0.578508 0.744169 0.333977
vn -0.578508 0.744169 0.333977
vn -0.578508 0.744169 0.333977
vn 0.000006 0.744216 0.667939
vn 0.000006 0.744216 0.667939
vn 0.000006 0.744216 0.667939
vn 0.000006 0.744216 0.667939
vn 0.000000 1.000000 0.000000
vn 0.000000 1.000000 0.000000
vn 0.000000 1.000000 -0.000000
vn 0.000000 1.000000 0.000000
vn 0.000000 1.000000 -0.000000
vn 0.000000 1.000000 -0.000000
vn 0.000000 1.000000 -0.000000
vn 0.000000 1.000000 0.000000
vn 0.000000 1.000000 -0.000000
vn 0.000000 1.000000 0.000000
vn 0.000000 1.000000 0.000000
vn 0.000000 1.000000 -0.000000
vn 0.000000 1.000000 0.000000
vn 0.000000 1.000000 0.000000
vn 0.000000 1.000000 -0.000000
vn 0.000000 1.000000 0.000000
vn 0.000000 1.000000 0.000000
vn 0.000000 1.000000 -0.000000
vn 0.000000 1.000000 0.000000
vn 0.000000 1.000000 0.000000
vn 0.000000 1.000000 0.000000
vn 0.000000 1.000000 0.000000
vn 0.000000 1.000000 -0.000000
vn 0.000000 1.000000 -0.000000
vn 0.000000 1.000000 -0.000000
vn 0.000000 1.000000 -0.000000
vn 0.000000 1.000000 -0.000000
vn 0.000000 1.000000 -0.000000
vn 0.000000 1.000000 -0.000000
vn 0.000000 1.000000 -0.000000
vn 0.000000 1.000000 -0.000000
vn 0.000000 1.000000 -0.000000
vn 0.000000 1.000000 -0.000000
vn 0.000000 1.000000 -0.000000
vn 0.000000 1.000000 0.000000
vn 0.000000 1.000000 0.000000
vn 0.000000 1.000000 0.000000
vn 0.000000 1.000000 0.000000
vn 0.000000 1.000000 0.000000
vn 0.000000 1.000000 0.000000
vn 0.000000 1.000000 0.000000
vn 0.000000 1.000000 0.000000
vn 0.854368 0.163720 0.493204
vn 0.854368 0.163720 0.493204
vn 0.854368 0.163720 0.493204
vn 0.854368 0.163720 0.493204
vn 0.854283 0.164177 -0.493200
vn 0.854283 0.164177 -0.493200
vn 0.854283 0.164177 -0.493200
vn 0.854283 0.164177 -0.493200
vn 0.000006 0.164299 -0.986411
vn 0.000006 0.164299 -0.986411
vn 0.000006 0.164299 -0.986411
vn 0.000006 0.164299 -0.986411
vn -0.854364 0.163856 -0.493166
vn -0.854364 0.163856 -0.493166
vn -0.854364 0.163856 -0.493166
vn -0.854364 0.163856 -0.493166
vn -0.854285 0.164052 0.493239
vn -0.854285 0.164052 0.493239
vn -0.854285 0.164052 0.493239
vn -0.854285 0.164052 0.493239
vn -0.000011 0.163776 0.986498
vn -0.000011 0.163776 0.986498
vn -0.000011 0.163776 0.986498
vn -0.000011 0.163776 0.986498
s off
f 3/4/1 1/1/2 2/2/3 4/3/4
f 7/8/5 5/5/6 6/6/7 8/7/8
f 1/1/9 7/8/10 8/7/11 2/2/12
f 2/2/13 8/7/14 6/6/15 4/3/16
f 7/8/17 1/1/18 3/4/19 5/5/20
f 9/10/21 3/4/22 4/3/23 10/9/24
f 4/3/25 6/6/26 11/11/27 10/9/28
f 5/5/29 12/12/30 11/11/31 6/6/32
f 5/5/33 3/4/34 9/10/35 12/12/36
f 12/14/37 9/13/38 10/15/39 11/16/40
f 13/17/41 14/18/42 20/19/43 19/20/44
f 14/18/45 15/21/46 21/22/47 20/19/48
f 15/21/49 16/23/50 22/24/51 21/22/52
f 16/23/53 17/25/54 23/26/55 22/24/56
f 17/25/57 18/27/58 24/28/59 23/26/60
f 18/27/61 13/17/62 19/20/63 24/28/64
f 31/29/65 32/30/66 33/31/67
f 32/30/68 34/32/69 33/31/70
f 34/32/71 35/33/72 33/31/73
f 35/33/74 36/34/75 33/31/76
f 36/34/77 37/35/78 33/31/79
f 37/35/80 31/29/81 33/31/82
f 19/20/83 20/19/84 26/36/85 25/37/86
f 20/19/87 21/22/88 27/38/89 26/36/90
f 21/22/91 22/24/92 28/39/93 27/38/94
f 22/24/95 23/26/96 29/40/97 28/39/98
f 23/26/99 24/28/100 30/41/101 29/40/102
f 24/28/103 19/20/104 25/37/105 30/41/106
f 25/42/107 26/43/108 32/30/109 31/29/110
f 26/43/111 27/44/112 34/32/113 32/30/114
f 27/44/115 28/45/116 35/33/117 34/32/118
f 28/45/119 29/46/120 36/34/121 35/33/122
f 29/46/123 30/47/124 37/35/125 36/34/126
f 30/47/127 25/42/128 31/29/129 37/35/130
