# This file uses meters as units for non-parametric coordinates.

v -56.356201 63.521423 32.484169
v 56.356354 63.521423 32.484169
v -56.356201 63.521423 -32.484173
v 56.356354 63.521423 -32.484173
v 28.178101 63.521423 48.395081
v 28.178101 63.521423 -48.395081
v -28.178101 63.521423 -48.395081
v -28.178101 63.521423 48.395081
v 36.014709 -31.948757 68.993301
v 35.202179 63.521423 63.454971
v -35.202026 63.521423 63.454971
v -36.014557 -31.948757 68.993301
v 35.202179 63.521423 -63.454971
v 36.014709 -31.948757 -68.993301
v -36.014557 -31.948757 -68.993301
v -35.202026 63.521423 -63.454971
v 84.276886 -31.948757 -43.967361
v 84.276886 -31.948757 43.967361
v 70.404053 63.521423 -42.592770
v 70.404053 63.521423 42.592735
v -84.276886 -31.948757 -43.967361
v -84.276886 -31.948757 43.967361
v -70.404053 63.521423 42.592735
v -70.404053 63.521423 -42.592770
v 84.276886 55.387383 -43.967361
v 84.276886 55.387383 43.967361
v 36.014709 55.387383 68.993301
v -36.014557 55.387383 68.993301
v -84.276886 55.387383 43.967361
v -84.276886 55.387383 -43.967361
v -36.014557 55.387383 -68.993301
v 36.014709 55.387383 -68.993301
v 70.404053 58.054367 -42.592770
v 70.404053 58.054367 42.592735
v 35.202179 58.054367 63.454971
v -35.202026 58.054367 63.454971
v -70.404053 58.054367 42.592735
v -70.404053 58.054367 -42.592770
v -35.202026 58.054367 -63.454971
v 35.202179 58.054367 -63.454971
v 27.895660 54.078682 47.909622
v 27.895660 54.078682 -47.909622
v -27.895660 54.078682 -47.909622
v -27.895660 54.078682 47.909622
v 55.791016 54.078682 32.158356
v 55.791016 54.078682 -32.158352
v -55.790863 54.078682 32.158356
v -55.790863 54.078682 -32.158352
v -70.404053 58.054367 18.092918
v -70.404053 63.521423 18.092918
v -56.356201 63.521423 18.092880
v -55.790863 54.078682 17.911377
v 55.791016 54.078682 17.911377
v 56.356354 63.521423 18.092880
v 70.404053 63.521423 18.092918
v 70.404053 58.054367 18.092918
v 70.404053 58.054367 -18.092876
v 70.404053 63.521423 -18.092876
v 56.356354 63.521423 -18.092876
v 55.791016 54.078682 -17.911373
v -55.790863 54.078682 -17.911373
v -56.356201 63.521423 -18.092876
v -70.404053 63.521423 -18.092876
v -70.404053 58.054367 -18.092876
v 77.929688 58.054367 -11.768379
v 77.929688 63.521423 -11.768379
v 62.380524 63.521423 -11.768379
v 61.754761 54.078682 -11.650276
v -61.754303 54.078682 -11.650276
v -62.380066 63.521423 -11.768379
v -77.929688 63.521423 -11.768379
v -77.929688 58.054367 -11.768379
v -77.929688 58.054367 11.768379
v -77.929688 63.521423 11.768379
v -62.380066 63.521423 11.768379
v -61.754303 54.078682 11.650276
v 61.754761 54.078682 11.650276
v 62.380524 63.521423 11.768379
v 77.929688 63.521423 11.768379
v 77.929688 58.054367 11.768379
v 74.333649 63.521423 -6.325150
v 65.976563 63.521423 -6.325150
v 65.976563 63.521423 6.325150
v 74.333649 63.521423 6.325150
v -65.976105 63.521423 -6.325150
v -74.333649 63.521423 -6.325150
v -74.333649 63.521423 6.325150
v -65.976105 63.521423 6.325150
v 73.450012 60.351494 -5.348816
v 66.860199 60.351494 -5.348816
v 66.860199 60.351494 5.348816
v 73.450012 60.351494 5.348816
v -66.859894 60.351494 -5.348816
v -73.450012 60.351494 -5.348816
v -73.450012 60.351494 5.348816
v -66.859894 60.351494 5.348816
vt 0.244720 0.352226
vt 0.244720 0.352226
vt 0.244720 0.352226
vt 0.244720 0.352226
vt 0.244720 0.352226
vt 0.244720 0.352226
vt 0.244720 0.352226
vt 0.244720 0.352226
vt 0.244720 0.352226
vt 0.244720 0.352226
vt 0.244720 0.352226
vt 0.244720 0.352226
vt 0.243685 0.252336
vt 0.243685 0.252336
vt 0.243685 0.252336
vt 0.243685 0.252336
vt 0.244720 0.352226
vt 0.244720 0.352226
vt 0.243685 0.252336
vt 0.243685 0.252336
vt 0.244720 0.352226
vt 0.244720 0.352226
vt 0.243685 0.252336
vt 0.243685 0.252336
vt 0.244720 0.352226
vt 0.244720 0.352226
vt 0.244720 0.352226
vt 0.243685 0.252336
vt 0.244720 0.352226
vt 0.243685 0.252336
vt 0.243685 0.252336
vt 0.243685 0.252336
vt 0.243685 0.252336
vt 0.243685 0.252336
vt 0.243685 0.252336
vt 0.243685 0.252336
vt 0.243685 0.252336
vt 0.243685 0.252336
vt 0.243685 0.252336
vt 0.243685 0.252336
vt 0.243685 0.252336
vt 0.243685 0.252336
vt 0.243685 0.252336
vt 0.243685 0.252336
vt 0.243685 0.252336
vt 0.243685 0.252336
vt 0.243685 0.252336
vt 0.243685 0.252336
vt 0.243685 0.252336
vt 0.243685 0.252336
vt 0.244720 0.352226
vt 0.244720 0.352226
vt 0.244720 0.352226
vt 0.244720 0.352226
vt 0.244720 0.352226
vt 0.244720 0.352226
vt 0.244720 0.352226
vt 0.244720 0.352226
vt 0.234731 0.229679
vt 0.234731 0.229679
vt 0.234731 0.229679
vt 0.234731 0.229679
vt 0.234729 0.229679
vt 0.234729 0.229679
vt 0.234730 0.229679
vt 0.234730 0.229679
vt 0.244720 0.352226
vt 0.244720 0.352226
vt 0.244720 0.352226
vt 0.244720 0.352226
vt 0.243685 0.252336
vt 0.244720 0.352226
vt 0.244720 0.352226
vt 0.244720 0.352226
vt 0.244720 0.352226
vt 0.234731 0.229679
vt 0.234730 0.229679
vt 0.244720 0.352226
vt 0.244720 0.352226
vt 0.244720 0.352226
vt 0.243685 0.252336
vt 0.244720 0.352226
vt 0.243685 0.252336
vt 0.244720 0.352226
vt 0.244720 0.352226
vt 0.244720 0.352226
vt 0.234730 0.229679
vt 0.244720 0.352226
vt 0.234731 0.229679
vt 0.244720 0.352226
vt 0.244720 0.352226
vt 0.244720 0.352226
vt 0.243685 0.252336
vt 0.244720 0.352226
vt 0.243685 0.252336
vt 0.244720 0.352226
vt 0.244720 0.352226
vt 0.244720 0.352226
vt 0.234729 0.229679
vt 0.244720 0.352226
vt 0.244720 0.352226
vt 0.234730 0.229679
vt 0.244720 0.352226
vt 0.244720 0.352226
vt 0.243685 0.252336
vt 0.244720 0.352226
vt 0.243685 0.252336
vt 0.244720 0.352226
vt 0.244720 0.352226
vt 0.244720 0.352226
vt 0.244720 0.352226
vt 0.234730 0.229679
vt 0.234729 0.229679
vt 0.244720 0.352226
vt 0.244720 0.352226
vt 0.244720 0.352226
vt 0.243685 0.252336
vt 0.244720 0.352226
vt 0.244720 0.352226
vt 0.244720 0.352226
vt 0.244720 0.352226
vt 0.244720 0.352226
vt 0.244720 0.352226
vt 0.244720 0.352226
vt 0.244720 0.352226
vt 0.244720 0.352226
vt 0.244720 0.352226
vt 0.244720 0.352226
vt 0.244720 0.352226
vt 0.244720 0.352226
vt 0.244720 0.352226
vt 0.244720 0.352226
vt 0.244720 0.352226
vt 0.244720 0.352226
vt 0.454880 0.026316
vt 0.454880 0.026316
vt 0.454880 0.026316
vt 0.454880 0.026316
vt 0.454880 0.026316
vt 0.454880 0.026316
vt 0.454880 0.026316
vt 0.454880 0.026316
vn 0.000000 0.000000 1.000000
vn 0.000000 0.000000 1.000000
vn 0.000000 0.000000 1.000000
vn 0.000000 0.000000 1.000000
vn 0.000000 1.000000 0.000000
vn 0.000000 1.000000 0.000000
vn 0.000000 1.000000 0.000000
vn 0.000000 1.000000 0.000000
vn 0.000000 0.000000 -1.000000
vn 0.000000 0.000000 -1.000000
vn 0.000000 0.000000 -1.000000
vn 0.000000 0.000000 -1.000000
vn 1.000000 0.000000 0.000000
vn 1.000000 0.000000 0.000000
vn 1.000000 0.000000 0.000000
vn 1.000000 0.000000 0.000000
vn -1.000000 0.000000 0.000000
vn -1.000000 0.000000 0.000000
vn -1.000000 0.000000 0.000000
vn -1.000000 0.000000 0.000000
vn 0.460333 0.000000 0.887746
vn 0.460333 0.000000 0.887746
vn 0.460333 0.000000 0.887746
vn 0.460333 0.000000 0.887746
vn 0.000000 1.000000 0.000000
vn 0.000000 1.000000 0.000000
vn -0.862418 0.440225 -0.249876
vn -0.696232 0.703603 -0.142137
vn 0.460333 0.000000 -0.887746
vn 0.460333 0.000000 -0.887746
vn 0.460333 0.000000 -0.887746
vn 0.460333 0.000000 -0.887746
vn 0.000000 1.000000 0.000000
vn 0.862433 0.440200 0.249868
vn 0.696246 0.703591 0.142132
vn 0.000000 1.000000 0.000000
vn -0.460332 0.000000 0.887747
vn -0.460332 0.000000 0.887747
vn -0.460332 0.000000 0.887747
vn -0.460332 0.000000 0.887747
vn -0.460332 0.000000 -0.887747
vn -0.460332 0.000000 -0.887747
vn -0.460332 0.000000 -0.887747
vn -0.460332 0.000000 -0.887747
vn 0.000000 1.000000 0.000000
vn 0.000000 1.000000 0.000000
vn 0.000000 1.000000 0.000000
vn 0.000000 1.000000 0.000000
vn 0.000000 1.000000 -0.000000
vn 0.000000 1.000000 -0.000000
vn 0.000000 1.000000 -0.000000
vn 0.000000 1.000000 -0.000000
vn 0.000000 1.000000 0.000000
vn 0.000000 1.000000 0.000000
vn 0.000000 1.000000 0.000000
vn 0.000000 1.000000 0.000000
vn 0.000000 1.000000 0.000000
vn 0.000000 1.000000 0.000000
vn 0.000000 1.000000 0.000000
vn 0.000000 1.000000 0.000000
vn 0.000000 1.000000 -0.000000
vn 0.000000 1.000000 -0.000000
vn 0.000000 1.000000 -0.000000
vn 0.000000 1.000000 -0.000000
vn 0.000000 1.000000 0.000000
vn 0.000000 1.000000 0.000000
vn 0.000000 1.000000 0.000000
vn 0.000000 1.000000 0.000000
vn 0.000000 1.000000 0.000000
vn 0.000000 1.000000 0.000000
vn 0.000000 1.000000 0.000000
vn 0.000000 1.000000 0.000000
vn 0.000000 1.000000 -0.000000
vn 0.000000 1.000000 -0.000000
vn 0.000000 1.000000 -0.000000
vn 0.000000 1.000000 -0.000000
vn 0.226728 0.973904 0.010281
vn 0.226728 0.973904 -0.010281
vn 0.350612 0.936483 -0.008453
vn 0.350612 0.936483 0.008453
vn 0.181294 0.926498 0.329749
vn 0.181294 0.926498 0.329749
vn 0.181294 0.926498 0.329749
vn 0.181294 0.926498 0.329749
vn 0.000000 0.900977 0.433866
vn 0.000000 0.900977 0.433866
vn 0.000000 0.900977 0.433866
vn 0.000000 0.900977 0.433866
vn -0.181294 0.926498 0.329749
vn -0.181294 0.926498 0.329749
vn -0.181294 0.926498 0.329749
vn -0.181294 0.926498 0.329749
vn -0.350612 0.936483 -0.008453
vn -0.226728 0.973904 -0.010281
vn -0.226728 0.973904 0.010281
vn -0.350612 0.936483 0.008453
vn -0.181294 0.926497 -0.329750
vn -0.181294 0.926497 -0.329750
vn -0.181294 0.926497 -0.329750
vn -0.181294 0.926497 -0.329750
vn 0.000000 0.900977 -0.433866
vn 0.000000 0.900977 -0.433866
vn 0.000000 0.900977 -0.433866
vn 0.000000 0.900977 -0.433866
vn 0.181295 0.926498 -0.329749
vn 0.181295 0.926498 -0.329749
vn 0.181295 0.926498 -0.329749
vn 0.181295 0.926498 -0.329749
vn 0.969680 0.000000 0.244378
vn 0.969680 0.000000 -0.244379
vn 0.969680 0.000000 -0.244379
vn 0.969680 0.000000 0.244378
vn 0.509836 0.000000 0.860272
vn 0.509836 0.000000 0.860272
vn 0.509836 0.000000 0.860272
vn 0.509836 0.000000 0.860272
vn 0.000000 0.000000 1.000000
vn 0.000000 0.000000 1.000000
vn 0.000000 0.000000 1.000000
vn 0.000000 0.000000 1.000000
vn -0.509835 0.000000 0.860272
vn -0.509835 0.000000 0.860272
vn -0.509835 0.000000 0.860272
vn -0.509835 0.000000 0.860272
vn -0.969680 0.000000 -0.244379
vn -0.969680 0.000000 -0.244379
vn -0.969680 0.000000 0.244378
vn -0.969680 0.000000 0.244378
vn -0.509834 0.000000 -0.860273
vn -0.509834 0.000000 -0.860273
vn -0.509834 0.000000 -0.860273
vn -0.509834 0.000000 -0.860273
vn 0.000000 0.000000 -1.000000
vn 0.000000 0.000000 -1.000000
vn 0.000000 0.000000 -1.000000
vn 0.000000 0.000000 -1.000000
vn 0.509835 0.000000 -0.860272
vn 0.509835 0.000000 -0.860272
vn 0.509835 0.000000 -0.860272
vn 0.509835 0.000000 -0.860272
vn 0.000000 0.051343 0.998681
vn 0.000000 0.051343 0.998681
vn 0.000000 0.051343 0.998681
vn 0.000000 0.051343 0.998681
vn 0.000000 0.051343 -0.998681
vn 0.000000 0.051343 -0.998681
vn 0.000000 0.051343 -0.998681
vn 0.000000 0.051343 -0.998681
vn -0.490818 0.059373 -0.869237
vn -0.490818 0.059373 -0.869237
vn -0.490818 0.059373 -0.869237
vn -0.490818 0.059373 -0.869237
vn -0.978495 0.067283 0.194987
vn -0.977571 0.067279 0.199572
vn -0.696232 0.703603 -0.142137
vn -0.978495 0.067283 -0.194987
vn -0.490818 0.059374 0.869237
vn -0.490818 0.059374 0.869237
vn -0.490818 0.059374 0.869237
vn -0.490818 0.059374 0.869237
vn 0.490820 0.059373 -0.869236
vn 0.490820 0.059373 -0.869236
vn 0.490820 0.059373 -0.869236
vn 0.490820 0.059373 -0.869236
vn 0.490820 0.059374 0.869236
vn 0.490820 0.059374 0.869236
vn 0.490820 0.059374 0.869236
vn 0.490820 0.059374 0.869236
vn 0.696246 0.703591 0.142132
vn 0.978497 0.067282 0.194978
vn 0.978497 0.067282 -0.194977
vn 0.977573 0.067278 -0.199562
vn -0.092697 0.994294 0.052785
vn -0.226728 0.973904 0.010281
vn -0.188788 0.982018 0.000000
vn -0.971466 0.000000 0.237179
vn -0.971466 0.000000 0.237179
vn -1.000000 0.000000 0.000000
vn -1.000000 0.000000 0.000000
vn 0.000000 1.000000 0.000000
vn 0.000000 1.000000 -0.000000
vn 0.000000 1.000000 -0.000000
vn 0.000000 1.000000 0.000000
vn 0.958608 0.062731 -0.277732
vn 0.958070 0.062734 -0.279582
vn 0.998213 0.059763 0.000000
vn 0.998213 0.059763 0.000000
vn 0.000000 1.000000 0.000000
vn 0.000000 1.000000 0.000000
vn 0.000000 1.000000 0.000000
vn 0.000000 1.000000 0.000000
vn 0.000000 1.000000 0.000000
vn 0.000000 1.000000 0.000000
vn 0.000000 1.000000 0.000000
vn 0.000000 1.000000 0.000000
vn 0.000000 1.000000 0.000000
vn 0.000000 1.000000 0.000000
vn -0.998213 0.059763 0.000000
vn -0.958066 0.062735 -0.279595
vn -0.862418 0.440225 -0.249876
vn -0.998213 0.059763 0.000000
vn 0.000000 1.000000 0.000000
vn 0.000000 1.000000 0.000000
vn 0.000000 1.000000 0.000000
vn 0.000000 1.000000 0.000000
vn 1.000000 0.000000 0.000000
vn 0.971466 0.000000 0.237179
vn 0.971466 0.000000 0.237179
vn 1.000000 0.000000 0.000000
vn 0.226728 0.973904 0.010281
vn 0.092697 0.994294 0.052785
vn 0.188788 0.982018 0.000000
vn 0.971466 0.000000 -0.237179
vn 0.971466 0.000000 -0.237179
vn 1.000000 0.000000 0.000000
vn 1.000000 0.000000 0.000000
vn 0.000000 1.000000 0.000000
vn 0.000000 1.000000 0.000000
vn 0.000000 1.000000 0.000000
vn 0.000000 1.000000 0.000000
vn -0.958605 0.062731 0.277745
vn -0.958066 0.062735 0.279595
vn -0.998213 0.059764 0.000000
vn -0.998213 0.059764 0.000000
vn 0.000000 1.000000 0.000000
vn 0.000000 1.000000 0.000000
vn 0.000000 1.000000 0.000000
vn 0.000000 1.000000 0.000000
vn 0.000000 1.000000 0.000000
vn 0.000000 1.000000 0.000000
vn 0.000000 1.000000 0.000000
vn 0.000000 1.000000 0.000000
vn 0.000000 1.000000 0.000000
vn 0.000000 1.000000 0.000000
vn 0.998213 0.059763 0.000000
vn 0.958070 0.062735 0.279582
vn 0.862433 0.440200 0.249868
vn 0.998213 0.059763 0.000000
vn 0.000000 1.000000 0.000000
vn 0.000000 1.000000 0.000000
vn 0.000000 1.000000 0.000000
vn 0.000000 1.000000 0.000000
vn -1.000000 0.000000 0.000000
vn -0.971466 0.000000 -0.237179
vn -0.971466 0.000000 -0.237179
vn -1.000000 0.000000 0.000000
vn -0.226728 0.973904 -0.010281
vn -0.092697 0.994294 -0.052785
vn -0.188788 0.982018 0.000000
vn 0.092697 0.994294 -0.052785
vn 0.226728 0.973904 -0.010281
vn 0.188788 0.982018 0.000000
vn 0.969680 0.000000 -0.244379
vn 0.969680 0.000000 -0.244379
vn 0.971466 0.000000 -0.237179
vn 0.971466 0.000000 -0.237179
vn 0.000000 1.000000 0.000000
vn 0.000000 1.000000 0.000000
vn 0.000000 1.000000 0.000000
vn 0.000000 1.000000 0.000000
vn -0.958066 0.062735 0.279595
vn -0.958605 0.062731 0.277745
vn -0.977571 0.067279 0.199572
vn -0.978495 0.067283 0.194987
vn 0.862433 0.440200 0.249868
vn 0.958070 0.062735 0.279582
vn 0.978497 0.067282 0.194978
vn 0.696246 0.703591 0.142132
vn 0.000000 1.000000 0.000000
vn 0.000000 1.000000 0.000000
vn 0.000000 1.000000 0.000000
vn 0.000000 1.000000 0.000000
vn -0.971466 0.000000 -0.237179
vn -0.971466 0.000000 -0.237179
vn -0.969680 0.000000 -0.244379
vn -0.969680 0.000000 -0.244379
vn -0.092697 0.994294 -0.052785
vn -0.226728 0.973904 -0.010281
vn -0.350612 0.936483 -0.008453
vn 0.350612 0.936483 -0.008453
vn 0.226728 0.973904 -0.010281
vn 0.092697 0.994294 -0.052785
vn -0.350612 0.936483 0.008453
vn -0.226728 0.973904 0.010281
vn -0.092697 0.994294 0.052785
vn -0.969680 0.000000 0.244378
vn -0.969680 0.000000 0.244378
vn -0.971466 0.000000 0.237179
vn -0.971466 0.000000 0.237179
vn 0.000000 1.000000 -0.000000
vn 0.000000 1.000000 -0.000000
vn 0.000000 1.000000 -0.000000
vn 0.000000 1.000000 -0.000000
vn 0.977573 0.067278 -0.199562
vn 0.978497 0.067282 -0.194977
vn 0.958070 0.062734 -0.279582
vn 0.958608 0.062731 -0.277732
vn -0.978495 0.067283 -0.194987
vn -0.696232 0.703603 -0.142137
vn -0.862418 0.440225 -0.249876
vn -0.958066 0.062735 -0.279595
vn 0.000000 1.000000 -0.000000
vn 0.000000 1.000000 0.000000
vn 0.000000 1.000000 0.000000
vn 0.000000 1.000000 0.000000
vn 0.971466 0.000000 0.237179
vn 0.969680 0.000000 0.244378
vn 0.969680 0.000000 0.244378
vn 0.971466 0.000000 0.237179
vn 0.226728 0.973904 0.010281
vn 0.350612 0.936483 0.008453
vn 0.092697 0.994294 0.052785
vn 0.000000 1.000000 0.000000
vn 0.000000 1.000000 0.000000
vn 0.000000 1.000000 0.000000
vn 0.000000 1.000000 0.000000
vn 0.000000 1.000000 0.000000
vn 0.000000 1.000000 0.000000
vn 0.000000 1.000000 -0.000000
vn 0.000000 1.000000 0.000000
vn 0.000000 1.000000 0.000000
vn 0.000000 1.000000 -0.000000
vn 0.000000 1.000000 -0.000000
vn 0.000000 1.000000 -0.000000
vn 0.000000 1.000000 -0.000000
vn 0.000000 1.000000 0.000000
vn 0.000000 1.000000 0.000000
vn 0.000000 1.000000 -0.000000
vn 0.000000 1.000000 0.000000
vn 0.000000 1.000000 0.000000
vn 0.000000 1.000000 0.000000
vn 0.000000 1.000000 0.000000
vn 0.000000 1.000000 0.000000
vn 0.000000 1.000000 -0.000000
vn 0.000000 1.000000 -0.000000
vn 0.000000 1.000000 0.000000
vn 0.000000 1.000000 -0.000000
vn 0.000000 1.000000 -0.000000
vn 0.000000 1.000000 -0.000000
vn 0.000000 1.000000 -0.000000
vn 0.000000 1.000000 -0.000000
vn 0.000000 1.000000 0.000000
vn 0.000000 1.000000 0.000000
vn 0.000000 1.000000 -0.000000
vn 0.000000 0.294353 0.955697
vn 0.000000 0.294353 0.955697
vn 0.000000 0.294353 0.955697
vn 0.000000 0.294353 0.955697
vn 0.963274 0.268519 0.000000
vn 0.963274 0.268519 0.000000
vn 0.963274 0.268519 0.000000
vn 0.963274 0.268519 0.000000
vn 0.000000 0.294353 -0.955697
vn 0.000000 0.294353 -0.955697
vn 0.000000 0.294353 -0.955697
vn 0.000000 0.294353 -0.955697
vn -0.963275 0.268518 0.000000
vn -0.963275 0.268518 0.000000
vn -0.963275 0.268518 0.000000
vn -0.963275 0.268518 0.000000
vn 0.000000 0.294354 0.955697
vn 0.000000 0.294354 0.955697
vn 0.000000 0.294354 0.955697
vn 0.000000 0.294354 0.955697
vn 0.963275 0.268518 0.000000
vn 0.963275 0.268518 0.000000
vn 0.963275 0.268518 0.000000
vn 0.963275 0.268518 0.000000
vn 0.000000 0.294354 -0.955697
vn 0.000000 0.294354 -0.955697
vn 0.000000 0.294354 -0.955697
vn 0.000000 0.294354 -0.955697
vn -0.963262 0.268563 0.000000
vn -0.963262 0.268563 0.000000
vn -0.963262 0.268563 0.000000
vn -0.963262 0.268563 0.000000
s off
f 9/14/1 27/34/2 28/35/3 12/13/4
f 60/87/5 61/89/6 52/76/7 53/77/8
f 31/39/9 32/40/10 14/15/11 15/16/12
f 18/19/13 17/20/14 25/32/15 26/33/16
f 30/37/17 21/23/18 22/24/19 29/36/20
f 26/33/21 27/34/22 9/14/23 18/19/24
f 68/99/25 60/87/26 53/77/27 77/113/28
f 14/15/29 32/40/30 25/31/31 17/28/32
f 52/76/33 61/89/34 69/102/35 76/112/36
f 22/24/37 12/13/38 28/35/39 29/36/40
f 30/38/41 31/39/42 15/16/43 21/30/44
f 5/1/45 8/2/46 11/3/47 10/4/48
f 7/5/49 6/6/50 13/7/51 16/8/52
f 89/135/53 90/136/54 91/137/55 92/138/56
f 93/139/57 94/140/58 95/141/59 96/142/60
f 2/10/61 5/1/62 10/4/63 20/11/64
f 6/6/65 4/9/66 19/12/67 13/7/68
f 8/2/69 1/17/70 23/22/71 11/3/72
f 3/18/73 7/5/74 16/8/75 24/21/76
f 26/33/77 25/32/78 65/95/79 80/117/80
f 34/43/81 35/44/82 27/34/83 26/33/84
f 28/35/85 27/34/86 35/44/87 36/45/88
f 29/36/89 28/35/90 36/45/91 37/46/92
f 72/105/93 30/37/94 29/36/95 73/107/96
f 38/48/97 39/49/98 31/39/99 30/38/100
f 39/49/101 40/50/102 32/40/103 31/39/104
f 25/31/105 32/40/106 40/50/107 33/41/108
f 80/118/109 65/96/110 66/97/111 79/116/112
f 10/4/113 35/27/114 34/25/115 20/11/116
f 36/29/117 35/27/118 10/4/119 11/3/120
f 37/51/121 36/29/122 11/3/123 23/22/124
f 71/104/125 72/106/126 73/108/127 74/109/128
f 24/21/129 16/8/130 39/53/131 38/52/132
f 13/7/133 40/54/134 39/53/135 16/8/136
f 33/26/137 40/54/138 13/7/139 19/12/140
f 6/6/141 7/5/142 43/55/143 42/56/144
f 8/2/145 5/1/146 41/57/147 44/58/148
f 5/1/149 2/10/150 45/67/151 41/57/152
f 67/98/153 68/100/154 77/114/155 78/115/156
f 4/9/157 6/6/158 42/56/159 46/68/160
f 1/17/161 8/2/162 44/58/163 47/69/164
f 7/5/165 3/18/166 48/70/167 43/55/168
f 69/101/169 70/103/170 75/110/171 76/111/172
f 49/71/173 29/36/174 37/46/175
f 50/73/176 49/72/177 37/51/178 23/22/179
f 1/17/180 51/74/181 50/73/182 23/22/183
f 52/75/184 51/74/185 1/17/186 47/69/187
f 47/65/188 44/62/189 52/76/190
f 41/59/191 53/77/192 52/76/193 44/62/194
f 53/77/195 41/59/196 45/63/197
f 2/10/198 54/79/199 53/78/200 45/67/201
f 55/80/202 54/79/203 2/10/204 20/11/205
f 34/25/206 56/82/207 55/80/208 20/11/209
f 26/33/210 56/81/211 34/43/212
f 58/85/213 57/84/214 33/26/215 19/12/216
f 4/9/217 59/86/218 58/85/219 19/12/220
f 60/88/221 59/86/222 4/9/223 46/68/224
f 42/60/225 60/87/226 46/64/227
f 61/89/228 60/87/229 42/60/230 43/61/231
f 61/89/232 43/61/233 48/66/234
f 3/18/235 62/91/236 61/90/237 48/70/238
f 63/92/239 62/91/240 3/18/241 24/21/242
f 38/52/243 64/94/244 63/92/245 24/21/246
f 30/37/247 64/93/248 38/47/249
f 57/83/250 25/32/251 33/42/252
f 66/97/253 65/96/254 57/84/255 58/85/256
f 58/85/257 59/86/258 67/98/259 66/97/260
f 59/86/261 60/88/262 68/100/263 67/98/264
f 61/90/265 62/91/266 70/103/267 69/101/268
f 62/91/269 63/92/270 71/104/271 70/103/272
f 63/92/273 64/94/274 72/106/275 71/104/276
f 64/93/277 30/37/278 72/105/279
f 65/95/280 25/32/281 57/83/282
f 73/107/283 29/36/284 49/71/285
f 74/109/286 73/108/287 49/72/288 50/73/289
f 75/110/290 74/109/291 50/73/292 51/74/293
f 76/111/294 75/110/295 51/74/296 52/75/297
f 78/115/298 77/114/299 53/78/300 54/79/301
f 79/116/302 78/115/303 54/79/304 55/80/305
f 56/82/306 80/118/307 79/116/308 55/80/309
f 26/33/310 80/117/311 56/81/312
f 66/97/313 67/98/314 82/120/315 81/119/316
f 67/98/317 78/115/318 83/121/319 82/120/320
f 78/115/321 79/116/322 84/122/323 83/121/324
f 79/116/325 66/97/326 81/119/327 84/122/328
f 70/103/329 71/104/330 86/124/331 85/123/332
f 71/104/333 74/109/334 87/125/335 86/124/336
f 74/109/337 75/110/338 88/126/339 87/125/340
f 75/110/341 70/103/342 85/123/343 88/126/344
f 81/119/345 82/120/346 90/128/347 89/127/348
f 82/120/349 83/121/350 91/129/351 90/128/352
f 83/121/353 84/122/354 92/130/355 91/129/356
f 84/122/357 81/119/358 89/127/359 92/130/360
f 85/123/361 86/124/362 94/132/363 93/131/364
f 86/124/365 87/125/366 95/133/367 94/132/368
f 87/125/369 88/126/370 96/134/371 95/133/372
f 88/126/373 85/123/374 93/131/375 96/134/376
