# This file uses meters as units for non-parametric coordinates.

v -25.628082 0.000000 52.766113
v -16.427307 0.000000 60.316162
v -22.594635 10.199735 49.469452
v -14.483032 10.199735 56.547699
v 25.628052 0.000000 52.766113
v 16.427002 0.000000 60.316162
v 22.594604 10.199735 49.469452
v 14.482727 10.199735 56.547699
v -22.594635 10.199735 -49.469452
v -14.483032 10.199735 -56.547699
v -25.628082 0.000000 -52.766113
v -16.427307 0.000000 -60.316162
v 14.482727 10.199735 -56.547699
v 22.594604 10.199735 -49.469452
v 25.628052 0.000000 -52.766113
v 16.427002 0.000000 -60.316162
v -11.840515 10.199735 52.496033
v -18.472595 10.199735 45.924530
v 11.840210 10.199735 52.496033
v 18.472595 10.199735 45.924530
v 18.472595 10.199735 -45.925293
v 11.840210 10.199735 -52.496185
v -11.840515 10.199735 -52.496185
v -18.472595 10.199735 -45.925293
v -10.260010 6.698131 50.111542
v -16.006470 6.698131 43.838654
v 10.259705 6.698131 50.111542
v 16.006470 6.698131 43.838654
v 16.006470 6.698131 -43.839111
v 10.259705 6.698131 -50.111694
v -10.260010 6.698131 -50.111694
v -16.006470 6.698131 -43.839111
v 25.628052 0.000000 -29.858398
v 22.594604 10.199735 -27.992859
v 18.472595 10.199735 -27.992859
v 16.006470 6.698131 -27.992859
v 22.069397 0.000000 -20.742950
v 19.457397 10.199735 -19.446869
v 15.907593 10.199735 -19.446869
v 13.783875 6.698131 -19.446869
v 22.069397 0.000000 20.742340
v 19.457397 10.199735 19.446411
v 15.907593 10.199735 19.446411
v 13.783875 6.698131 19.446411
v 25.628052 0.000000 29.857635
v 22.594604 10.199735 27.992249
v 18.472595 10.199735 27.992249
v 16.006470 6.698131 27.992249
v -16.006470 6.698131 -27.992859
v -18.472595 10.199735 -27.992859
v -22.594635 10.199735 -27.992859
v -25.628082 0.000000 -29.858398
v -13.784180 6.698131 -19.446869
v -15.907898 10.199735 -19.446869
v -19.457428 10.199735 -19.446869
v -22.069733 0.000000 -20.742950
v -13.784180 6.698131 19.446411
v -15.907898 10.199735 19.446411
v -19.457428 10.199735 19.446411
v -22.069733 0.000000 20.742340
v -16.006470 6.698131 27.992249
v -18.472595 10.199735 27.992249
v -22.594635 10.199735 27.992249
v -25.628082 0.000000 29.857635
v -9.288635 8.544215 -42.068939
v -11.502991 6.698131 -42.068939
v 11.504822 6.698131 -42.068939
v 9.290466 8.544215 -42.068939
v 0.000916 9.429225 -42.068939
v -9.288635 8.544215 43.447723
v -11.502991 6.698131 43.447723
v 11.504822 6.698131 43.447723
v 9.290466 8.544215 43.447723
v 0.000916 9.429225 43.447723
v -12.152405 8.879527 -42.068939
v -15.050354 6.698131 -42.068939
v 15.052185 6.698131 -42.068939
v 12.154236 8.879527 -42.068939
v 0.000916 10.099696 -42.068939
v -12.152405 8.879527 43.447723
v -15.050354 6.698131 43.447723
v 15.052185 6.698131 43.447723
v 12.154236 8.879527 43.447723
v 0.000916 10.099696 43.447723
v -12.152405 8.879527 -45.218658
v -15.050354 6.698131 -45.218658
v 15.052185 6.698131 -45.218658
v 12.154236 8.879527 -45.218658
v 0.000916 10.099696 -45.218658
v -12.152405 8.879527 46.597290
v -15.050354 6.698131 46.597290
v 15.052185 6.698131 46.597290
v 12.154236 8.879527 46.597290
v 0.000916 10.099696 46.597290
v -9.518127 8.571300 -47.343750
v -11.788635 6.698131 -47.343750
v 0.000916 6.698131 -47.343750
v 11.790466 6.698131 -47.343750
v 9.519958 8.571300 -47.343750
v 0.000916 9.483241 -47.343750
v -9.518127 8.571300 48.722382
v -11.788635 6.698131 48.722382
v 0.000916 6.698131 48.722382
v 11.790466 6.698131 48.722382
v 9.519958 8.571300 48.722382
v 0.000916 9.483241 48.722382
vt 0.233536 0.323917
vt 0.233535 0.323917
vt 0.233536 0.323917
vt 0.233535 0.323917
vt 0.233535 0.323917
vt 0.233535 0.323917
vt 0.233536 0.323917
vt 0.233536 0.323917
vt 0.233536 0.323917
vt 0.233535 0.323917
vt 0.233536 0.323917
vt 0.233535 0.323917
vt 0.233535 0.323917
vt 0.233536 0.323917
vt 0.233535 0.323917
vt 0.233535 0.323917
vt 0.233535 0.323917
vt 0.233535 0.323917
vt 0.233536 0.323917
vt 0.233536 0.323917
vt 0.233535 0.323917
vt 0.233535 0.323917
vt 0.233536 0.323917
vt 0.233536 0.323917
vt 0.233535 0.323917
vt 0.233535 0.323917
vt 0.233536 0.323917
vt 0.233536 0.323917
vt 0.233535 0.323917
vt 0.233535 0.323917
vt 0.233535 0.323917
vt 0.233535 0.323917
vt 0.233536 0.323917
vt 0.233536 0.323917
vt 0.233536 0.323917
vt 0.233536 0.323917
vt 0.233535 0.323917
vt 0.233535 0.323917
vt 0.233535 0.323917
vt 0.233535 0.323917
vt 0.233536 0.323917
vt 0.233536 0.323917
vt 0.233535 0.323917
vt 0.233535 0.323917
vt 0.233535 0.323917
vt 0.233535 0.323917
vt 0.233535 0.323917
vt 0.233535 0.323917
vt 0.233535 0.323917
vt 0.233535 0.323917
vt 0.233535 0.323917
vt 0.233535 0.323917
vt 0.233535 0.323917
vt 0.233535 0.323917
vt 0.233535 0.323917
vt 0.233535 0.323917
vt 0.233535 0.323917
vt 0.233535 0.323917
vt 0.233535 0.323917
vt 0.233535 0.323917
vt 0.233535 0.323917
vt 0.233535 0.323917
vt 0.233535 0.323917
vt 0.233535 0.323917
vt 0.233535 0.323917
vt 0.233535 0.323917
vt 0.233536 0.323917
vt 0.233536 0.323917
vt 0.233536 0.323917
vt 0.233536 0.323917
vt 0.233535 0.323917
vt 0.233536 0.323917
vt 0.233536 0.323917
vt 0.233536 0.323917
vt 0.233536 0.323917
vt 0.233536 0.323917
vt 0.233535 0.323917
vt 0.233536 0.323917
vt 0.233536 0.323917
vt 0.233536 0.323917
vt 0.233536 0.323917
vt 0.233536 0.323917
vt 0.233535 0.323917
vt 0.233536 0.323917
vt 0.233536 0.323917
vt 0.233536 0.323917
vt 0.233536 0.323917
vt 0.233536 0.323917
vt 0.233535 0.323917
vt 0.233536 0.323917
vt 0.235260 0.232715
vt 0.235260 0.232715
vt 0.235260 0.232715
vt 0.235260 0.232715
vt 0.235260 0.232715
vt 0.235260 0.232715
vt 0.235260 0.232715
vt 0.235260 0.232715
vt 0.235260 0.232715
vt 0.235260 0.232715
vt 0.235260 0.232715
vt 0.235260 0.232715
vt 0.235260 0.232715
vt 0.235260 0.232715
vt 0.235260 0.232715
vt 0.235260 0.232715
vt 0.265296 0.039318
vt 0.265296 0.039318
vt 0.265296 0.039318
vt 0.265296 0.039318
vt 0.265296 0.039318
vt 0.265296 0.039318
vt 0.265296 0.039318
vt 0.265296 0.039318
vt 0.265296 0.039318
vt 0.265296 0.039318
vt 0.234390 0.280899
vt 0.234390 0.280899
vt 0.234390 0.280899
vt 0.234390 0.280899
vt 0.234390 0.280899
vt 0.234390 0.280899
vt 0.234390 0.280899
vt 0.234390 0.280899
vt 0.234390 0.280899
vt 0.234390 0.280899
vt 0.234390 0.280899
vt 0.234390 0.280899
vt 0.234390 0.280899
vt 0.234390 0.280899
vt 0.234390 0.280899
vt 0.234390 0.280899
vt 0.234390 0.280899
vt 0.234390 0.280899
vt 0.234390 0.280899
vt 0.234390 0.280899
vt 0.234390 0.280899
vt 0.234390 0.280899
vt 0.234390 0.280899
vt 0.234390 0.280899
vt 0.234390 0.280899
vt 0.234390 0.280899
vt 0.234390 0.280899
vt 0.234390 0.280899
vt 0.234390 0.280899
vt 0.234390 0.280899
vt 0.234390 0.280899
vt 0.234390 0.280899
vt 0.234390 0.280899
vt 0.234390 0.280899
vt 0.234390 0.280899
vt 0.234390 0.280899
vt 0.234390 0.280899
vt 0.234390 0.280899
vt 0.234390 0.280899
vt 0.234390 0.280899
vt 0.234390 0.280899
vt 0.234390 0.280899
vn 0.000000 0.346569 0.938025
vn 0.000000 0.346569 0.938025
vn 0.000000 0.346569 0.938025
vn 0.000000 0.346569 0.938025
vn 0.000000 0.346569 -0.938025
vn 0.000000 0.346569 -0.938025
vn 0.000000 0.346569 -0.938025
vn 0.000000 0.346569 -0.938025
vn 0.958508 0.285065 0.000000
vn 0.958508 0.285065 0.000000
vn 0.959806 0.267968 -0.083461
vn 0.957872 0.258790 -0.124534
vn -0.957871 0.258796 -0.124528
vn -0.959805 0.267972 -0.083458
vn -0.958508 0.285064 0.000000
vn -0.958508 0.285065 0.000000
vn 0.000000 1.000000 0.000000
vn 0.000000 1.000000 0.000000
vn 0.000000 1.000000 0.000000
vn 0.000000 1.000000 0.000000
vn 0.000000 1.000000 0.000000
vn 0.000000 1.000000 0.000000
vn 0.000000 1.000000 0.000000
vn 0.000000 1.000000 0.000000
vn 0.000000 1.000000 0.000000
vn 0.000000 1.000000 0.000000
vn 0.000000 1.000000 0.000000
vn 0.000000 1.000000 0.000000
vn 0.000000 1.000000 0.000000
vn 0.000000 1.000000 0.000000
vn 0.000000 1.000000 0.000000
vn 0.000000 1.000000 0.000000
vn 0.000000 -1.000000 0.000000
vn 0.000000 -1.000000 0.000000
vn 0.000000 -1.000000 0.000000
vn 0.000000 -1.000000 0.000000
vn 0.000000 -1.000000 0.000000
vn 0.000000 -1.000000 0.000000
vn 0.000000 -1.000000 0.000000
vn 0.000000 -1.000000 0.000000
vn 0.000000 -1.000000 0.000000
vn 0.000000 -1.000000 0.000000
vn 0.000000 -1.000000 0.000000
vn 0.000000 -1.000000 0.000000
vn 0.000000 -1.000000 0.000000
vn 0.000000 -1.000000 0.000000
vn 0.000000 -1.000000 0.000000
vn 0.000000 -1.000000 0.000000
vn -0.594625 0.388825 0.703730
vn -0.594625 0.388825 0.703730
vn -0.594625 0.388825 0.703730
vn -0.594625 0.388825 0.703730
vn 0.594614 0.388825 0.703739
vn 0.594614 0.388825 0.703739
vn 0.594614 0.388825 0.703740
vn 0.594614 0.388825 0.703740
vn -0.594625 0.388825 -0.703730
vn -0.594625 0.388825 -0.703730
vn -0.594625 0.388825 -0.703730
vn -0.594625 0.388825 -0.703730
vn 0.594614 0.388825 -0.703739
vn 0.594614 0.388825 -0.703739
vn 0.594614 0.388825 -0.703739
vn 0.594614 0.388825 -0.703739
vn 0.000000 1.000000 -0.000000
vn 0.000000 1.000000 -0.000000
vn 0.000000 1.000000 -0.000000
vn 0.000000 1.000000 -0.000000
vn 0.000000 1.000000 0.000000
vn 0.000000 1.000000 0.000000
vn 0.000000 1.000000 0.000000
vn 0.000000 1.000000 0.000000
vn 0.000000 1.000000 -0.000000
vn 0.000000 1.000000 -0.000000
vn 0.000000 1.000000 -0.000000
vn 0.000000 1.000000 -0.000000
vn 0.000000 1.000000 0.000000
vn 0.000000 1.000000 0.000000
vn 0.000000 1.000000 0.000000
vn 0.000000 1.000000 0.000000
vn 0.000000 1.000000 0.000000
vn 0.000000 1.000000 0.000000
vn 0.000000 1.000000 0.000000
vn 0.000000 1.000000 0.000000
vn 0.000000 1.000000 0.000000
vn 0.000000 1.000000 0.000000
vn 0.000000 1.000000 0.000000
vn 0.000000 1.000000 0.000000
vn 0.000000 1.000000 0.000000
vn 0.000000 1.000000 0.000000
vn 0.000000 1.000000 0.000000
vn 0.000000 1.000000 0.000000
vn 0.000000 1.000000 0.000000
vn 0.000000 1.000000 0.000000
vn 0.000000 1.000000 0.000000
vn 0.000000 1.000000 0.000000
vn 0.546192 0.651610 -0.526382
vn 0.546192 0.651610 -0.526382
vn 0.546192 0.651610 -0.526382
vn 0.546192 0.651610 -0.526382
vn 0.000000 0.562859 -0.826553
vn 0.000000 0.562859 -0.826553
vn 0.000000 0.562859 -0.826553
vn 0.000000 0.562859 -0.826553
vn -0.546179 0.651611 -0.526395
vn -0.546179 0.651611 -0.526395
vn -0.546179 0.651611 -0.526395
vn -0.546179 0.651611 -0.526395
vn -0.817583 0.575811 0.000000
vn -0.821327 0.565939 0.071664
vn -0.821510 0.564277 0.081926
vn -0.817583 0.575811 0.000000
vn -0.546151 0.651625 0.526406
vn -0.546151 0.651625 0.526406
vn -0.546151 0.651625 0.526406
vn -0.546151 0.651625 0.526406
vn 0.000000 0.562859 0.826553
vn 0.000000 0.562859 0.826553
vn 0.000000 0.562859 0.826553
vn 0.000000 0.562859 0.826553
vn 0.546165 0.651624 0.526393
vn 0.546165 0.651624 0.526393
vn 0.546165 0.651624 0.526393
vn 0.546165 0.651624 0.526393
vn 0.821327 0.565939 0.071655
vn 0.817583 0.575811 0.000000
vn 0.817583 0.575811 0.000000
vn 0.821511 0.564278 0.081915
vn 0.957872 0.258788 0.124537
vn 0.959806 0.267967 0.083462
vn 0.958508 0.285065 0.000000
vn 0.958508 0.285065 0.000000
vn 0.000000 1.000000 -0.000000
vn 0.000000 1.000000 -0.000000
vn 0.000000 1.000000 0.000000
vn 0.000000 1.000000 0.000000
vn -0.821510 0.564277 -0.081925
vn -0.821327 0.565939 -0.071663
vn -0.817583 0.575811 0.000000
vn -0.817583 0.575811 0.000000
vn 0.968575 0.242468 0.055425
vn 0.967652 0.239978 0.077852
vn 0.959806 0.267967 0.083462
vn 0.957872 0.258788 0.124537
vn 0.000000 1.000000 -0.000000
vn 0.000000 1.000000 -0.000000
vn 0.000000 1.000000 -0.000000
vn 0.000000 1.000000 -0.000000
vn -0.851239 0.523253 -0.039974
vn -0.850521 0.523907 -0.046213
vn -0.821327 0.565939 -0.071663
vn -0.821510 0.564277 -0.081925
vn 0.968575 0.242468 -0.055426
vn 0.967652 0.239979 -0.077851
vn 0.967652 0.239978 0.077852
vn 0.968575 0.242468 0.055425
vn 0.000000 1.000000 0.000000
vn 0.000000 1.000000 0.000000
vn 0.000000 1.000000 -0.000000
vn 0.000000 1.000000 -0.000000
vn -0.851239 0.523253 0.039974
vn -0.850521 0.523906 0.046213
vn -0.850521 0.523907 -0.046213
vn -0.851239 0.523253 -0.039974
vn 0.957872 0.258790 -0.124534
vn 0.959806 0.267968 -0.083461
vn 0.967652 0.239979 -0.077851
vn 0.968575 0.242468 -0.055426
vn 0.000000 1.000000 0.000000
vn 0.000000 1.000000 0.000000
vn 0.000000 1.000000 0.000000
vn 0.000000 1.000000 0.000000
vn -0.821510 0.564277 0.081926
vn -0.821327 0.565939 0.071664
vn -0.850521 0.523906 0.046213
vn -0.851239 0.523253 0.039974
vn 0.817583 0.575811 0.000000
vn 0.821327 0.565939 -0.071655
vn 0.821511 0.564278 -0.081914
vn 0.817583 0.575811 0.000000
vn 0.000000 1.000000 0.000000
vn 0.000000 1.000000 0.000000
vn 0.000000 1.000000 0.000000
vn 0.000000 1.000000 0.000000
vn -0.958508 0.285065 0.000000
vn -0.958508 0.285065 0.000000
vn -0.959805 0.267971 0.083458
vn -0.957872 0.258793 0.124531
vn 0.821327 0.565939 -0.071655
vn 0.850522 0.523907 -0.046207
vn 0.851239 0.523253 -0.039970
vn 0.821511 0.564278 -0.081914
vn 0.000000 1.000000 0.000000
vn 0.000000 1.000000 0.000000
vn 0.000000 1.000000 0.000000
vn 0.000000 1.000000 0.000000
vn -0.957872 0.258793 0.124531
vn -0.959805 0.267971 0.083458
vn -0.967646 0.240003 0.077848
vn -0.968569 0.242493 0.055421
vn 0.850522 0.523907 -0.046207
vn 0.850522 0.523907 0.046207
vn 0.851239 0.523253 0.039970
vn 0.851239 0.523253 -0.039970
vn 0.000000 1.000000 0.000000
vn 0.000000 1.000000 0.000000
vn 0.000000 1.000000 0.000000
vn 0.000000 1.000000 0.000000
vn -0.968569 0.242493 0.055421
vn -0.967646 0.240003 0.077848
vn -0.967646 0.240004 -0.077848
vn -0.968569 0.242494 -0.055422
vn 0.850522 0.523907 0.046207
vn 0.821327 0.565939 0.071655
vn 0.821511 0.564278 0.081915
vn 0.851239 0.523253 0.039970
vn 0.000000 1.000000 0.000000
vn 0.000000 1.000000 0.000000
vn 0.000000 1.000000 0.000000
vn 0.000000 1.000000 0.000000
vn -0.968569 0.242494 -0.055422
vn -0.967646 0.240004 -0.077848
vn -0.959805 0.267972 -0.083458
vn -0.957871 0.258796 -0.124528
vn -0.640346 0.768087 0.000000
vn -0.640346 0.768087 0.000000
vn -0.640346 0.768087 0.000000
vn -0.640346 0.768087 0.000000
vn 0.640346 0.768087 0.000000
vn 0.640346 0.768087 0.000000
vn 0.640346 0.768087 0.000000
vn 0.640346 0.768087 0.000000
vn 0.094840 0.995493 0.000000
vn 0.094840 0.995493 0.000000
vn 0.094840 0.995493 0.000000
vn 0.094840 0.995493 0.000000
vn -0.094840 0.995493 0.000000
vn -0.094840 0.995493 0.000000
vn -0.094840 0.995493 0.000000
vn -0.094840 0.995493 0.000000
vn 0.000000 0.000000 -1.000000
vn 0.000000 0.000000 -1.000000
vn 0.000000 0.000000 -1.000000
vn 0.000000 0.000000 -1.000000
vn 0.000000 0.000000 -1.000000
vn 0.000000 0.000000 -1.000000
vn 0.000000 0.000000 -1.000000
vn 0.000000 0.000000 -1.000000
vn 0.000000 0.000000 -1.000000
vn 0.000000 0.000000 -1.000000
vn 0.000000 0.000000 -1.000000
vn 0.000000 0.000000 -1.000000
vn 0.000000 0.000000 1.000000
vn 0.000000 0.000000 1.000000
vn 0.000000 0.000000 1.000000
vn 0.000000 0.000000 1.000000
vn 0.000000 0.000000 1.000000
vn 0.000000 0.000000 1.000000
vn 0.000000 0.000000 1.000000
vn 0.000000 0.000000 1.000000
vn 0.000000 0.000000 1.000000
vn 0.000000 0.000000 1.000000
vn 0.000000 0.000000 1.000000
vn 0.000000 0.000000 1.000000
vn 0.000000 0.000000 1.000000
vn 0.000001 0.000000 1.000000
vn 0.000000 0.000000 1.000000
vn 0.000000 0.000000 1.000000
vn 0.000000 0.000000 1.000000
vn 0.000000 0.000000 1.000000
vn 0.000000 0.000000 1.000000
vn 0.000000 0.000000 1.000000
vn 0.000000 0.000000 1.000000
vn 0.000000 0.000000 1.000000
vn 0.000000 0.000000 1.000000
vn 0.000000 0.000000 1.000000
vn 0.000001 0.000000 1.000000
vn 0.000000 0.000000 1.000000
vn 0.000000 0.000000 1.000000
vn 0.000000 0.000000 1.000000
vn 0.000000 0.000000 -1.000000
vn 0.000001 0.000000 -1.000000
vn 0.000001 0.000000 -1.000000
vn 0.000001 0.000000 -1.000000
vn -0.000001 0.000000 -1.000000
vn -0.000000 0.000000 -1.000000
vn -0.000001 0.000000 -1.000000
vn -0.000001 0.000000 -1.000000
vn -0.000000 0.000000 -1.000000
vn 0.000000 0.000000 -1.000000
vn 0.000000 0.000000 -1.000000
vn -0.000001 0.000000 -1.000000
vn 0.000000 0.000000 -1.000000
vn 0.000000 0.000000 -1.000000
vn 0.000001 0.000000 -1.000000
vn 0.000000 0.000000 -1.000000
vn -0.601399 0.798949 0.000000
vn -0.601399 0.798949 0.000000
vn -0.561560 0.732008 -0.385766
vn -0.590623 0.776678 -0.218941
vn 0.601399 0.798949 0.000000
vn 0.601399 0.798949 0.000000
vn 0.590623 0.776678 -0.218941
vn 0.561560 0.732008 -0.385766
vn 0.099896 0.994998 0.000000
vn 0.099896 0.994998 0.000000
vn 0.099301 0.993321 -0.058764
vn 0.098636 0.989840 -0.102406
vn -0.099896 0.994998 0.000000
vn -0.099896 0.994998 0.000000
vn -0.098636 0.989840 -0.102406
vn -0.099301 0.993321 -0.058764
vn -0.601399 0.798949 0.000000
vn -0.601399 0.798949 0.000000
vn -0.590622 0.776677 0.218948
vn -0.561558 0.732005 0.385774
vn 0.601399 0.798949 0.000000
vn 0.601399 0.798949 0.000000
vn 0.561558 0.732005 0.385774
vn 0.590622 0.776677 0.218949
vn 0.099896 0.994998 0.000000
vn 0.099896 0.994998 0.000000
vn 0.098636 0.989840 0.102409
vn 0.099301 0.993321 0.058766
vn -0.099896 0.994998 0.000000
vn -0.099896 0.994998 0.000000
vn -0.099301 0.993321 0.058766
vn -0.098636 0.989840 0.102409
vn -0.590623 0.776678 -0.218941
vn -0.561560 0.732008 -0.385766
vn -0.455754 0.580961 -0.674368
vn -0.455754 0.580961 -0.674369
vn 0.561560 0.732008 -0.385766
vn 0.590623 0.776678 -0.218941
vn 0.455754 0.580961 -0.674369
vn 0.455754 0.580961 -0.674369
vn 0.098636 0.989840 -0.102406
vn 0.099301 0.993321 -0.058764
vn 0.094349 0.959032 -0.267127
vn 0.094349 0.959032 -0.267127
vn -0.099301 0.993321 -0.058764
vn -0.098636 0.989840 -0.102406
vn -0.094349 0.959031 -0.267127
vn -0.094349 0.959031 -0.267127
vn -0.561558 0.732005 0.385774
vn -0.590622 0.776677 0.218948
vn -0.455754 0.580961 0.674369
vn -0.455754 0.580961 0.674369
vn 0.590622 0.776677 0.218949
vn 0.561558 0.732005 0.385774
vn 0.455754 0.580961 0.674369
vn 0.455754 0.580961 0.674369
vn 0.099301 0.993321 0.058766
vn 0.098636 0.989840 0.102409
vn 0.094349 0.959031 0.267127
vn 0.094349 0.959031 0.267127
vn -0.098636 0.989840 0.102409
vn -0.099301 0.993321 0.058766
vn -0.094349 0.959031 0.267127
vn -0.094349 0.959031 0.267127
s off
f 4/9/1 2/19/2 6/10/3 8/22/4
f 12/14/5 10/23/6 13/15/7 16/26/8
f 7/16/9 5/21/10 45/62/11 46/64/12
f 63/87/13 64/89/14 1/13/15 3/20/16
f 26/91/17 25/92/18 27/93/19 28/94/20 48/95/21 44/96/22 40/97/23 36/98/24 29/99/25 30/100/26 31/101/27 32/102/28 49/103/29 53/104/30 57/105/31 61/106/32
f 11/24/33 12/14/34 16/26/35 15/4/36 33/43/37 37/49/38 41/55/39 45/61/40 5/5/41 6/6/42 2/7/43 1/8/44 64/90/45 60/84/46 56/78/47 52/72/48
f 1/13/49 2/19/50 4/9/51 3/20/52
f 6/10/53 5/21/54 7/16/55 8/22/56
f 9/3/57 10/23/58 12/14/59 11/24/60
f 13/15/61 14/25/62 15/4/63 16/26/64
f 3/1/65 4/9/66 17/28/67 18/27/68
f 4/9/69 8/22/70 19/29/71 17/28/72
f 8/22/73 7/2/74 20/30/75 19/29/76
f 7/2/77 46/63/78 47/65/79 20/30/80
f 14/25/81 13/15/82 22/32/83 21/31/84
f 13/15/85 10/23/86 23/33/87 22/32/88
f 10/23/89 9/3/90 24/34/91 23/33/92
f 63/88/93 3/1/94 18/27/95 62/86/96
f 18/27/97 17/28/98 25/36/99 26/35/100
f 17/28/101 19/29/102 27/37/103 25/36/104
f 19/29/105 20/30/106 28/38/107 27/37/108
f 20/30/109 47/65/110 48/66/111 28/38/112
f 21/31/113 22/32/114 30/40/115 29/39/116
f 22/32/117 23/33/118 31/41/119 30/40/120
f 23/33/121 24/34/122 32/42/123 31/41/124
f 62/86/125 18/27/126 26/35/127 61/85/128
f 34/46/129 33/44/130 15/17/131 14/18/132
f 35/47/133 34/45/134 14/25/135 21/31/136
f 36/48/137 35/47/138 21/31/139 29/39/140
f 38/52/141 37/50/142 33/44/143 34/46/144
f 39/53/145 38/51/146 34/45/147 35/47/148
f 40/54/149 39/53/150 35/47/151 36/48/152
f 42/58/153 41/56/154 37/50/155 38/52/156
f 43/59/157 42/57/158 38/51/159 39/53/160
f 44/60/161 43/59/162 39/53/163 40/54/164
f 46/64/165 45/62/166 41/56/167 42/58/168
f 47/65/169 46/63/170 42/57/171 43/59/172
f 48/66/173 47/65/174 43/59/175 44/60/176
f 24/34/177 50/68/178 49/67/179 32/42/180
f 9/3/181 51/70/182 50/68/183 24/34/184
f 9/11/185 11/12/186 52/71/187 51/69/188
f 50/68/189 54/74/190 53/73/191 49/67/192
f 51/70/193 55/76/194 54/74/195 50/68/196
f 51/69/197 52/71/198 56/77/199 55/75/200
f 54/74/201 58/80/202 57/79/203 53/73/204
f 55/76/205 59/82/206 58/80/207 54/74/208
f 55/75/209 56/77/210 60/83/211 59/81/212
f 58/80/213 62/86/214 61/85/215 57/79/216
f 59/82/217 63/88/218 62/86/219 58/80/220
f 59/81/221 60/83/222 64/89/223 63/87/224
f 65/107/225 66/108/226 71/109/227 70/110/228
f 67/111/229 68/112/230 73/113/231 72/114/232
f 68/112/233 69/115/234 74/116/235 73/113/236
f 69/115/237 65/107/238 70/110/239 74/116/240
f 96/117/241 95/118/242 97/119/243
f 99/120/244 98/121/245 97/119/246
f 100/122/247 99/120/248 97/119/249
f 95/118/250 100/122/251 97/119/252
f 101/123/253 102/124/254 103/125/255
f 104/126/256 105/127/257 103/125/258
f 105/127/259 106/128/260 103/125/261
f 106/128/262 101/123/263 103/125/264
f 66/129/265 65/130/266 75/131/267 76/132/268
f 68/133/269 67/134/270 77/135/271 78/136/272
f 69/137/273 68/133/274 78/136/275 79/138/276
f 65/130/277 69/137/278 79/138/279 75/131/280
f 70/139/281 71/140/282 81/141/283 80/142/284
f 72/143/285 73/144/286 83/145/287 82/146/288
f 73/144/289 74/147/290 84/148/291 83/145/292
f 74/147/293 70/139/294 80/142/295 84/148/296
f 76/132/297 75/131/298 85/149/299 86/150/300
f 78/136/301 77/135/302 87/151/303 88/152/304
f 79/138/305 78/136/306 88/152/307 89/153/308
f 75/131/309 79/138/310 89/153/311 85/149/312
f 80/142/313 81/141/314 91/154/315 90/155/316
f 82/146/317 83/145/318 93/156/319 92/157/320
f 83/145/321 84/148/322 94/158/323 93/156/324
f 84/148/325 80/142/326 90/155/327 94/158/328
f 86/150/329 85/149/330 95/118/331 96/117/332
f 88/152/333 87/151/334 98/121/335 99/120/336
f 89/153/337 88/152/338 99/120/339 100/122/340
f 85/149/341 89/153/342 100/122/343 95/118/344
f 90/155/345 91/154/346 102/124/347 101/123/348
f 92/157/349 93/156/350 105/127/351 104/126/352
f 93/156/353 94/158/354 106/128/355 105/127/356
f 94/158/357 90/155/358 101/123/359 106/128/360
