# This file uses meters as units for non-parametric coordinates.

v 22.908323 13.821524 -1.324596
v 23.696247 12.781235 -0.818645
v 23.696247 12.781235 0.818645
v 22.908323 13.821524 1.324595
v 22.421328 14.464470 0.000000
v -22.723900 39.203209 -1.330312
v -23.696198 38.540066 -0.819797
v -23.696198 38.540066 0.819797
v -22.723900 39.203209 1.330312
v -22.126249 39.612934 0.000000
v -22.993166 39.019897 0.000000
v -19.190777 24.962069 1.329360
v -20.153828 24.279320 0.819605
v -20.153828 24.279320 -0.819605
v -19.190777 24.962069 -1.329360
v -18.596859 25.379505 0.000000
v -13.631399 12.455975 1.328407
v -14.342222 11.286308 0.819413
v -14.342222 11.286308 -0.819413
v -13.631399 12.455975 -1.328407
v -13.192139 13.174854 0.000000
v -5.161007 4.206239 1.327454
v -5.512976 2.728971 0.819221
v -5.512976 2.728971 -0.819221
v -5.161007 4.206239 -1.327454
v -4.942640 5.116397 0.000000
v 4.838175 1.559945 1.326501
v 4.896356 0.000003 0.819029
v 4.896356 0.000003 -0.819029
v 4.838175 1.559945 -1.326501
v 4.802953 2.522601 0.000000
v 14.732987 4.949448 1.325548
v 15.191374 3.543189 0.818837
v 15.191374 3.543189 -0.818837
v 14.732987 4.949448 -1.325549
v 14.450202 5.818158 0.000000
vt 0.234315 0.277680
vt 0.234315 0.277680
vt 0.234315 0.277680
vt 0.234315 0.277680
vt 0.234315 0.277680
vt 0.234315 0.277680
vt 0.234315 0.277680
vt 0.234315 0.277680
vt 0.234315 0.277680
vt 0.234315 0.277680
vt 0.234315 0.277680
vt 0.234315 0.277680
vt 0.234315 0.277680
vt 0.234315 0.277680
vt 0.234315 0.277680
vt 0.234315 0.277680
vt 0.234315 0.277680
vt 0.234315 0.277680
vt 0.234315 0.277680
vt 0.234315 0.277680
vt 0.234315 0.277680
vt 0.234315 0.277680
vt 0.234315 0.277680
vt 0.234315 0.277680
vt 0.234315 0.277680
vt 0.234315 0.277680
vt 0.234315 0.277680
vt 0.234315 0.277680
vt 0.234315 0.277680
vt 0.234315 0.277680
vt 0.234315 0.277680
vt 0.234315 0.277680
vt 0.234315 0.277680
vt 0.234315 0.277680
vt 0.234315 0.277680
vt 0.234315 0.277680
vt 0.234315 0.277680
vt 0.234315 0.277680
vt 0.234315 0.277680
vt 0.234315 0.277680
vt 0.234315 0.277680
vt 0.234315 0.277680
vt 0.234315 0.277680
vt 0.234315 0.277680
vt 0.234315 0.277680
vt 0.234315 0.277680
vt 0.234315 0.277680
vt 0.234315 0.277680
vt 0.234315 0.277680
vt 0.234315 0.277680
vt 0.234315 0.277680
vt 0.234315 0.277680
vt 0.234315 0.277680
vt 0.234315 0.277680
vt 0.234315 0.277680
vt 0.234315 0.277680
vt 0.234315 0.277680
vn 0.269311 -0.247988 -0.930577
vn 0.269311 -0.247988 -0.930577
vn 0.173092 -0.282822 -0.943425
vn 0.199759 -0.273534 -0.940891
vn 0.735698 -0.677310 0.000000
vn 0.735698 -0.677310 0.000000
vn 0.562202 -0.827000 0.000000
vn 0.562202 -0.827000 0.000000
vn 0.173092 -0.282822 0.943425
vn 0.269311 -0.247988 0.930577
vn 0.269311 -0.247988 0.930577
vn 0.199759 -0.273534 0.940891
vn -0.630464 0.581119 0.514603
vn -0.630464 0.581119 0.514603
vn -0.483212 0.681080 0.550123
vn -0.448791 0.700009 0.555494
vn -0.630464 0.581119 -0.514603
vn -0.630465 0.581119 -0.514603
vn -0.448791 0.700010 -0.555494
vn -0.483212 0.681080 -0.550123
vn -0.563545 0.826086 -0.000241
vn -0.563545 0.826086 -0.000241
vn -0.563545 0.826086 -0.000241
vn -0.563729 0.825960 0.000000
vn -0.563729 0.825960 0.000000
vn -0.563729 0.825960 0.000000
vn -0.563543 0.826086 0.000243
vn -0.563543 0.826086 0.000243
vn -0.563543 0.826086 0.000243
vn -0.564610 0.825357 0.000545
vn -0.564610 0.825357 0.000545
vn -0.564610 0.825357 0.000545
vn -0.564610 0.825357 -0.000546
vn -0.564610 0.825357 -0.000546
vn -0.564610 0.825357 -0.000546
vn -0.407908 -0.101298 0.907386
vn -0.387325 -0.139059 0.911396
vn -0.393297 -0.128265 0.910421
vn -0.407908 -0.101298 0.907386
vn -0.945845 -0.324619 0.000000
vn -0.945845 -0.324619 0.000000
vn -0.970507 -0.241074 0.000000
vn -0.970507 -0.241074 0.000000
vn -0.393297 -0.128265 -0.910421
vn -0.387325 -0.139059 -0.911396
vn -0.407908 -0.101298 -0.907386
vn -0.407908 -0.101298 -0.907386
vn 0.842317 0.278686 -0.461342
vn 0.837520 0.290967 -0.462492
vn 0.864744 0.214466 -0.454116
vn 0.864744 0.214466 -0.454116
vn 0.837520 0.290967 0.462492
vn 0.842317 0.278686 0.461342
vn 0.864744 0.214466 0.454116
vn 0.864744 0.214466 0.454116
vn -0.387325 -0.139059 0.911396
vn -0.296012 -0.224822 0.928349
vn -0.326409 -0.201836 0.923428
vn -0.393297 -0.128265 0.910421
vn -0.827179 -0.561939 0.000000
vn -0.827179 -0.561939 0.000000
vn -0.945845 -0.324619 0.000000
vn -0.945845 -0.324619 0.000000
vn -0.326409 -0.201836 -0.923428
vn -0.296012 -0.224822 -0.928349
vn -0.387325 -0.139059 -0.911396
vn -0.393297 -0.128265 -0.910421
vn 0.731219 0.467824 -0.496448
vn 0.702028 0.502936 -0.504194
vn 0.837520 0.290967 -0.462492
vn 0.842317 0.278686 -0.461342
vn 0.702028 0.502936 0.504194
vn 0.731218 0.467824 0.496448
vn 0.842317 0.278686 0.461342
vn 0.837520 0.290967 0.462492
vn -0.296012 -0.224822 0.928349
vn -0.150437 -0.289452 0.945297
vn -0.179741 -0.280630 0.942836
vn -0.326409 -0.201836 0.923428
vn -0.506033 -0.862514 0.000000
vn -0.506033 -0.862514 0.000000
vn -0.827179 -0.561939 0.000000
vn -0.827179 -0.561939 0.000000
vn -0.179741 -0.280630 -0.942836
vn -0.150437 -0.289451 -0.945297
vn -0.296012 -0.224822 -0.928349
vn -0.326409 -0.201836 -0.923428
vn 0.439554 0.704800 -0.556821
vn 0.400117 0.723689 -0.562300
vn 0.702028 0.502936 -0.504194
vn 0.731219 0.467824 -0.496448
vn 0.400117 0.723689 0.562300
vn 0.439554 0.704800 0.556821
vn 0.731218 0.467824 0.496448
vn 0.702028 0.502936 0.504194
vn -0.150437 -0.289452 0.945297
vn 0.011800 -0.308519 0.951145
vn 0.011737 -0.308520 0.951145
vn -0.179741 -0.280630 0.942836
vn 0.039257 -0.999229 0.000000
vn 0.039257 -0.999229 0.000000
vn -0.506033 -0.862514 0.000000
vn -0.506033 -0.862514 0.000000
vn 0.011737 -0.308520 -0.951145
vn 0.011800 -0.308519 -0.951145
vn -0.150437 -0.289451 -0.945297
vn -0.179741 -0.280630 -0.942836
vn -0.029446 0.808202 -0.588169
vn -0.029689 0.808194 -0.588167
vn 0.400117 0.723689 -0.562300
vn 0.439554 0.704800 -0.556821
vn -0.029689 0.808194 0.588167
vn -0.029446 0.808201 0.588169
vn 0.439554 0.704800 0.556821
vn 0.400117 0.723689 0.562300
vn 0.011800 -0.308519 0.951145
vn 0.173092 -0.282822 0.943425
vn 0.199759 -0.273534 0.940891
vn 0.011737 -0.308520 0.951145
vn 0.562202 -0.827000 0.000000
vn 0.562202 -0.827000 0.000000
vn 0.039257 -0.999229 0.000000
vn 0.039257 -0.999229 0.000000
vn 0.199759 -0.273534 -0.940891
vn 0.173092 -0.282822 -0.943425
vn 0.011800 -0.308519 -0.951145
vn 0.011737 -0.308520 -0.951145
vn -0.483212 0.681080 -0.550123
vn -0.448791 0.700010 -0.555494
vn -0.029689 0.808194 -0.588167
vn -0.029446 0.808202 -0.588169
vn -0.448791 0.700009 0.555494
vn -0.483212 0.681080 0.550123
vn -0.029446 0.808201 0.588169
vn -0.029689 0.808194 0.588167
s off
f 1/1/1 2/2/2 34/54/3 35/56/4
f 2/2/5 3/5/6 33/53/7 34/54/8
f 33/53/9 3/5/10 4/7/11 32/52/12
f 4/7/13 5/9/14 36/57/15 32/52/16
f 5/9/17 1/11/18 35/55/19 36/57/20
f 6/13/21 7/14/22 11/15/23
f 7/16/24 8/17/25 11/18/26
f 8/19/27 9/20/28 11/21/29
f 9/22/30 10/23/31 11/24/32
f 10/25/33 6/26/34 11/27/35
f 8/6/36 13/29/37 12/28/38 9/8/39
f 14/30/40 13/29/41 8/6/42 7/3/43
f 15/32/44 14/30/45 7/3/46 6/4/47
f 16/33/48 15/31/49 6/12/50 10/10/51
f 12/28/52 16/33/53 10/10/54 9/8/55
f 13/29/56 18/35/57 17/34/58 12/28/59
f 19/36/60 18/35/61 13/29/62 14/30/63
f 20/38/64 19/36/65 14/30/66 15/32/67
f 21/39/68 20/37/69 15/31/70 16/33/71
f 17/34/72 21/39/73 16/33/74 12/28/75
f 18/35/76 23/41/77 22/40/78 17/34/79
f 24/42/80 23/41/81 18/35/82 19/36/83
f 25/44/84 24/42/85 19/36/86 20/38/87
f 26/45/88 25/43/89 20/37/90 21/39/91
f 22/40/92 26/45/93 21/39/94 17/34/95
f 23/41/96 28/47/97 27/46/98 22/40/99
f 29/48/100 28/47/101 23/41/102 24/42/103
f 30/50/104 29/48/105 24/42/106 25/44/107
f 31/51/108 30/49/109 25/43/110 26/45/111
f 27/46/112 31/51/113 26/45/114 22/40/115
f 28/47/116 33/53/117 32/52/118 27/46/119
f 34/54/120 33/53/121 28/47/122 29/48/123
f 35/56/124 34/54/125 29/48/126 30/50/127
f 36/57/128 35/55/129 30/49/130 31/51/131
f 32/52/132 36/57/133 31/51/134 27/46/135
