# This file uses meters as units for non-parametric coordinates.

v -3.195801 -78.707184 -4.573212
v -7.128906 -78.707184 -1.548615
v -7.214355 -78.707184 0.949554
v -3.259277 -78.707184 4.710541
v 2.196350 -78.707184 4.573212
v 5.957031 -78.707184 0.618439
v 6.042480 -78.707184 -1.880035
v 2.260132 -78.707184 -4.710541
v -3.195801 -72.936249 -4.573212
v -7.128906 -72.936249 -1.548615
v -7.214355 -72.936249 0.949554
v -3.259277 -72.936249 4.710541
v 2.196350 -72.936249 4.573212
v 5.957031 -72.936249 0.618439
v 6.042480 -72.936249 -1.880035
v 2.260132 -72.936249 -4.710541
v -0.697021 -78.707184 -1.943817
v -0.697021 -72.936249 -1.943817
v 3.851318 -95.096130 3.189850
v 7.213745 -94.022079 0.003815
v 1.242065 116.653763 3.715363
v 4.651794 116.653763 0.401764
v -2.071533 116.653763 0.305328
v 1.338196 116.653763 -3.008270
v 0.830688 -96.108780 -0.339508
v 4.192810 -95.034752 -3.525848
v 0.358276 -115.068626 1.426544
v -1.155396 -116.653763 -3.171844
v -0.370483 116.653763 1.517792
v -1.155396 116.653763 -3.171844
v -5.059814 116.653763 2.302704
v -5.844727 116.653763 -2.386932
v -4.331055 -115.068626 2.211456
v -5.844727 -116.653763 -2.386932
v 1.242065 3.521371 3.715363
v 4.651794 3.526978 0.401764
v -2.071533 3.402429 0.305328
v 1.338196 3.408027 -3.008270
v -0.370483 3.454289 1.517792
v -1.155396 3.359647 -3.171844
v -5.059814 3.382001 2.302704
v -5.844727 3.287373 -2.387238
v -1.516113 44.257580 0.572357
v 2.409058 44.136837 -3.241730
v -4.956055 44.370895 2.871857
v -5.859680 44.443966 -2.526703
v 2.297974 44.085228 4.498138
v 6.223450 43.964478 0.683441
v 0.441895 44.173553 1.968231
v -0.461731 44.246613 -3.430328
v -2.071533 93.259903 0.305023
v 1.338196 93.094978 -3.008270
v -5.059814 93.391762 2.302704
v -5.844727 93.353546 -2.386932
v 1.241760 93.192291 3.715668
v 4.652100 93.027359 0.401459
v -0.370483 93.217659 1.517181
v -1.155396 93.179443 -3.172150
v 1.242065 -75.641159 3.715363
v 4.651794 -75.542023 0.401764
v -0.370483 -75.855576 1.517792
v -1.155396 -76.121078 -3.171844
v -2.071533 -76.032585 0.305328
v 1.338501 -75.933441 -3.008575
v -5.059814 -76.159790 2.302704
v -5.844727 -76.425285 -2.387238
v -1.494751 -36.266029 0.582733
v 2.450562 -36.563652 -3.251495
v -4.952087 -36.073483 2.894135
v -5.860291 -36.415401 -2.532196
v 2.338867 -36.056198 4.528046
v 6.284180 -36.353813 0.694427
v 0.473633 -36.198818 1.985626
v -0.434570 -36.540737 -3.440094
v -5.783386 -1.197085 -4.029694
v -7.128906 -1.197085 -1.548615
v -7.214355 -1.197085 0.949554
v -3.259277 -1.197085 4.710541
v 2.196350 -1.197085 4.573212
v 5.957031 -1.197085 0.618439
v 6.042480 -1.197085 -1.880035
v 2.260132 -1.197085 -4.710541
v -5.783386 4.573851 -4.029694
v -7.128906 4.573851 -1.548615
v -7.214355 4.573851 0.949554
v -3.259277 4.573851 4.710541
v 2.196350 4.573851 4.573212
v 5.957031 4.573851 0.618439
v 6.042480 4.573851 -1.880035
v 2.260132 4.573851 -4.710541
v -0.697021 -1.197085 -1.943817
v -0.697021 4.573851 -1.943817
vt 0.080074 0.230998
vt 0.080074 0.230998
vt 0.080074 0.230998
vt 0.080074 0.230998
vt 0.080074 0.230998
vt 0.080074 0.230998
vt 0.080074 0.230998
vt 0.080074 0.230998
vt 0.080074 0.230998
vt 0.080074 0.230998
vt 0.080074 0.230998
vt 0.080074 0.230998
vt 0.080074 0.230998
vt 0.080074 0.230998
vt 0.080074 0.230998
vt 0.080074 0.230998
vt 0.080074 0.230998
vt 0.080074 0.230998
vt 0.080074 0.230998
vt 0.080074 0.230998
vt 0.080074 0.230998
vt 0.080074 0.230998
vt 0.080074 0.230998
vt 0.080074 0.230998
vt 0.080074 0.230998
vt 0.080074 0.230998
vt 0.080074 0.230998
vt 0.080074 0.230998
vt 0.080074 0.230998
vt 0.080074 0.230998
vt 0.080074 0.230998
vt 0.080074 0.230998
vt 0.080074 0.230998
vt 0.080074 0.230998
vt 0.080074 0.230998
vt 0.080074 0.230998
vt 0.338104 0.420609
vt 0.338104 0.420609
vt 0.338104 0.420608
vt 0.338104 0.420608
vt 0.338104 0.420609
vt 0.338104 0.420609
vt 0.338104 0.420609
vt 0.338104 0.420609
vt 0.338104 0.420609
vt 0.338104 0.420609
vt 0.338104 0.420609
vt 0.338104 0.420609
vt 0.338104 0.420608
vt 0.338104 0.420608
vt 0.124969 0.445674
vt 0.124969 0.445674
vt 0.124969 0.445674
vt 0.124969 0.445674
vt 0.124969 0.445674
vt 0.124969 0.445674
vt 0.124969 0.445674
vt 0.124969 0.445674
vt 0.124969 0.445674
vt 0.124969 0.445674
vt 0.124969 0.445674
vt 0.124969 0.445674
vt 0.124969 0.445674
vt 0.124969 0.445674
vt 0.338104 0.420608
vt 0.338104 0.420608
vt 0.338104 0.420608
vt 0.338104 0.420608
vt 0.338104 0.420608
vt 0.338104 0.420608
vt 0.338104 0.420608
vt 0.338104 0.420608
vt 0.338104 0.420608
vt 0.338104 0.420608
vt 0.124969 0.445674
vt 0.124969 0.445674
vt 0.124969 0.445674
vt 0.124969 0.445674
vt 0.124969 0.445674
vt 0.124969 0.445674
vt 0.124969 0.445674
vt 0.124969 0.445674
vt 0.124969 0.445674
vt 0.124969 0.445674
vt 0.338104 0.420609
vt 0.338104 0.420609
vt 0.124969 0.445674
vt 0.124969 0.445674
vt 0.338104 0.420608
vt 0.338104 0.420608
vt 0.124969 0.445674
vt 0.124969 0.445674
vt 0.080074 0.230998
vt 0.080074 0.230998
vt 0.080074 0.230998
vt 0.080074 0.230998
vt 0.080074 0.230998
vt 0.080074 0.230998
vt 0.080074 0.230998
vt 0.080074 0.230998
vt 0.080074 0.230998
vt 0.080074 0.230998
vt 0.080074 0.230998
vt 0.080074 0.230998
vt 0.080074 0.230998
vt 0.080074 0.230998
vt 0.080074 0.230998
vt 0.080074 0.230998
vt 0.080074 0.230998
vt 0.080074 0.230998
vt 0.080074 0.230998
vt 0.080074 0.230998
vt 0.080074 0.230998
vt 0.080074 0.230998
vt 0.080074 0.230998
vt 0.080074 0.230998
vt 0.080074 0.230998
vt 0.080074 0.230998
vt 0.080074 0.230998
vt 0.080074 0.230998
vt 0.080074 0.230998
vt 0.080074 0.230998
vt 0.080074 0.230998
vt 0.080074 0.230998
vt 0.080074 0.230998
vt 0.080074 0.230998
vt 0.080074 0.230998
vt 0.080074 0.230998
vn -0.609601 0.000000 -0.792708
vn -0.609601 0.000000 -0.792708
vn -0.609601 0.000000 -0.792708
vn -0.609601 0.000000 -0.792708
vn -0.999416 0.000000 -0.034185
vn -0.999416 0.000000 -0.034185
vn -0.999416 0.000000 -0.034185
vn -0.999416 0.000000 -0.034185
vn -0.689102 0.000000 0.724664
vn -0.689102 0.000000 0.724664
vn -0.689102 0.000000 0.724664
vn -0.689102 0.000000 0.724664
vn 0.025164 0.000000 0.999683
vn 0.025164 0.000000 0.999683
vn 0.025164 0.000000 0.999683
vn 0.025164 0.000000 0.999683
vn 0.724666 0.000000 0.689101
vn 0.724666 0.000000 0.689101
vn 0.724666 0.000000 0.689101
vn 0.724666 0.000000 0.689101
vn 0.999416 0.000000 0.034181
vn 0.999416 0.000000 0.034181
vn 0.999416 0.000000 0.034181
vn 0.999416 0.000000 0.034181
vn 0.599153 0.000000 -0.800635
vn 0.599153 0.000000 -0.800635
vn 0.599153 0.000000 -0.800635
vn 0.599153 0.000000 -0.800635
vn -0.025163 0.000000 -0.999683
vn -0.025163 0.000000 -0.999683
vn -0.025163 0.000000 -0.999683
vn -0.025163 0.000000 -0.999683
vn 0.000000 -1.000000 0.000000
vn 0.000000 -1.000000 0.000000
vn 0.000000 -1.000000 0.000000
vn 0.000000 -1.000000 0.000000
vn 0.000000 -1.000000 0.000000
vn 0.000000 -1.000000 0.000000
vn 0.000000 -1.000000 0.000000
vn 0.000000 -1.000000 0.000000
vn 0.000000 -1.000000 0.000000
vn 0.000000 -1.000000 0.000000
vn 0.000000 -1.000000 0.000000
vn 0.000000 -1.000000 0.000000
vn 0.000000 -1.000000 0.000000
vn 0.000000 -1.000000 0.000000
vn 0.000000 -1.000000 0.000000
vn 0.000000 -1.000000 0.000000
vn 0.000000 -1.000000 0.000000
vn 0.000000 -1.000000 0.000000
vn 0.000000 -1.000000 0.000000
vn 0.000000 -1.000000 0.000000
vn 0.000000 -1.000000 0.000000
vn 0.000000 -1.000000 0.000000
vn 0.000000 -1.000000 0.000000
vn 0.000000 -1.000000 0.000000
vn 0.000000 1.000000 -0.000001
vn 0.000000 1.000000 0.000000
vn 0.000000 1.000000 -0.000000
vn 0.000000 1.000000 0.000000
vn 0.000000 1.000000 0.000001
vn 0.000000 1.000000 -0.000000
vn 0.000000 1.000000 0.000001
vn 0.000000 1.000000 0.000001
vn 0.000000 1.000000 -0.000000
vn 0.000000 1.000000 0.000001
vn 0.000000 1.000000 -0.000000
vn 0.000000 1.000000 -0.000000
vn 0.000000 1.000000 -0.000000
vn 0.000000 1.000000 -0.000001
vn 0.000000 1.000000 -0.000000
vn 0.000000 1.000000 -0.000001
vn 0.000000 1.000000 -0.000001
vn 0.000000 1.000000 -0.000000
vn 0.000000 1.000000 -0.000001
vn 0.000000 1.000000 -0.000003
vn 0.000000 1.000000 -0.000000
vn 0.000000 1.000000 -0.000003
vn 0.000000 1.000000 -0.000001
vn 0.000000 1.000000 -0.000000
vn 0.683623 0.075518 0.725918
vn 0.683623 0.075519 0.725918
vn 0.693026 0.000442 0.720912
vn 0.693194 -0.001271 0.720750
vn 0.000000 1.000000 0.000000
vn 0.000000 1.000000 0.000000
vn 0.000000 1.000000 0.000000
vn 0.000000 1.000000 0.000000
vn -0.696909 0.000005 -0.717160
vn -0.696909 0.000005 -0.717160
vn -0.697037 -0.008314 -0.716987
vn -0.697034 -0.008055 -0.716993
vn 0.310377 -0.950587 0.007093
vn 0.310377 -0.950587 0.007093
vn 0.310377 -0.950587 0.007093
vn 0.310377 -0.950587 0.007093
vn 0.720961 0.120524 -0.682414
vn 0.720961 0.120524 -0.682414
vn 0.720649 0.022233 -0.692944
vn 0.720480 0.018052 -0.693241
vn -0.720894 -0.120712 0.682452
vn -0.720894 -0.120712 0.682451
vn -0.719676 -0.032536 0.693548
vn -0.719850 -0.036461 0.693171
vn 0.970249 0.009143 -0.241937
vn 0.970249 0.009143 -0.241937
vn 0.979117 -0.004923 -0.203237
vn 0.979707 -0.005969 -0.200344
vn 0.000000 1.000000 0.000000
vn 0.000000 1.000000 0.000000
vn 0.000000 1.000000 0.000000
vn 0.000000 1.000000 0.000000
vn -0.986281 0.000000 0.165075
vn -0.986281 0.000000 0.165075
vn -0.986280 -0.000119 0.165079
vn -0.986280 -0.000118 0.165079
vn 0.051912 -0.949272 0.310141
vn 0.051912 -0.949272 0.310141
vn 0.051912 -0.949272 0.310141
vn 0.051912 -0.949272 0.310141
vn -0.165055 -0.000004 -0.986284
vn -0.165055 -0.000004 -0.986284
vn -0.165012 -0.001812 -0.986290
vn -0.165008 -0.001972 -0.986290
vn 0.165061 0.000776 0.986283
vn 0.165061 0.000776 0.986283
vn 0.165228 -0.007845 0.986224
vn 0.165217 -0.007250 0.986231
vn 0.697124 0.000689 0.716950
vn 0.697124 0.000656 0.716951
vn 0.697088 -0.000373 0.716985
vn 0.697099 0.000398 0.716975
vn -0.697013 -0.000304 -0.717059
vn -0.697013 -0.000291 -0.717059
vn -0.696973 0.000528 -0.717097
vn -0.696991 -0.000519 -0.717080
vn 0.716879 0.000128 -0.697198
vn 0.716873 0.000856 -0.697204
vn 0.717283 0.000394 -0.696782
vn 0.717276 -0.000390 -0.696789
vn -0.717122 -0.000195 0.696947
vn -0.717125 -0.000029 0.696945
vn -0.717261 0.000086 0.696805
vn -0.717263 -0.000092 0.696802
vn 0.986218 0.000152 -0.165453
vn 0.986216 0.000611 -0.165463
vn 0.986287 0.000140 -0.165040
vn 0.986287 -0.000127 -0.165040
vn -0.986281 -0.000001 0.165077
vn -0.986281 -0.000006 0.165077
vn -0.986282 0.000009 0.165067
vn -0.986282 -0.000009 0.165068
vn -0.165061 0.000038 -0.986283
vn -0.165060 0.000105 -0.986284
vn -0.165060 0.000071 -0.986283
vn -0.165062 -0.000070 -0.986283
vn 0.165060 0.000442 0.986284
vn 0.165057 0.000165 0.986284
vn 0.165273 -0.000283 0.986248
vn 0.165288 0.000298 0.986245
vn -0.696975 -0.000178 -0.717095
vn -0.696971 0.000167 -0.717100
vn -0.697013 -0.000291 -0.717059
vn -0.697013 -0.000304 -0.717059
vn -0.986280 0.000001 0.165078
vn -0.986280 -0.000002 0.165078
vn -0.986281 -0.000006 0.165077
vn -0.986281 -0.000001 0.165077
vn 0.697099 0.000398 0.716975
vn 0.697088 -0.000373 0.716985
vn 0.697174 0.018591 0.716661
vn 0.697170 0.018012 0.716679
vn 0.717276 -0.000390 -0.696789
vn 0.717283 0.000394 -0.696782
vn 0.717289 0.013017 -0.696654
vn 0.717291 0.013261 -0.696648
vn -0.717263 -0.000092 0.696802
vn -0.717261 0.000086 0.696805
vn -0.717289 -0.003027 0.696769
vn -0.717288 -0.002971 0.696771
vn 0.986287 -0.000127 -0.165040
vn 0.986287 0.000140 -0.165040
vn 0.986233 0.010304 -0.165041
vn 0.986233 0.010258 -0.165041
vn -0.165062 -0.000070 -0.986283
vn -0.165060 0.000071 -0.986283
vn -0.165052 0.001958 -0.986283
vn -0.165050 0.002020 -0.986283
vn 0.165288 0.000298 0.986245
vn 0.165273 -0.000283 0.986248
vn 0.165444 0.008317 0.986184
vn 0.165435 0.008060 0.986188
vn -0.697034 -0.008055 -0.716993
vn -0.697037 -0.008314 -0.716987
vn -0.696971 0.000167 -0.717100
vn -0.696975 -0.000178 -0.717095
vn -0.986280 -0.000118 0.165079
vn -0.986280 -0.000119 0.165079
vn -0.986280 -0.000002 0.165078
vn -0.986280 0.000001 0.165078
vn 0.697170 0.018012 0.716679
vn 0.697174 0.018591 0.716661
vn 0.696926 -0.000000 0.717143
vn 0.696926 -0.000000 0.717143
vn 0.717291 0.013261 -0.696648
vn 0.717289 0.013017 -0.696654
vn 0.717143 0.000009 -0.696926
vn 0.717143 0.000009 -0.696926
vn -0.717288 -0.002971 0.696771
vn -0.717289 -0.003027 0.696769
vn -0.717222 0.000005 0.696845
vn -0.717222 0.000005 0.696845
vn 0.986233 0.010258 -0.165041
vn 0.986233 0.010304 -0.165041
vn 0.986280 0.000003 -0.165081
vn 0.986280 0.000003 -0.165081
vn -0.165050 0.002020 -0.986283
vn -0.165052 0.001958 -0.986283
vn -0.165117 0.000006 -0.986274
vn -0.165117 0.000006 -0.986274
vn 0.165435 0.008060 0.986188
vn 0.165444 0.008317 0.986184
vn 0.165148 -0.000013 0.986269
vn 0.165148 -0.000013 0.986269
vn 0.693194 -0.001271 0.720750
vn 0.693026 0.000442 0.720912
vn 0.696993 -0.001185 0.717077
vn 0.697033 0.001167 0.717038
vn 0.720480 0.018052 -0.693241
vn 0.720649 0.022233 -0.692944
vn 0.717469 -0.000587 -0.696590
vn 0.717430 0.000613 -0.696630
vn -0.719850 -0.036461 0.693171
vn -0.719676 -0.032536 0.693548
vn -0.717228 -0.000138 0.696839
vn -0.717237 0.000134 0.696830
vn 0.979707 -0.005969 -0.200344
vn 0.979117 -0.004923 -0.203237
vn 0.986312 -0.000753 -0.164890
vn 0.986299 0.000759 -0.164966
vn -0.165008 -0.001972 -0.986290
vn -0.165012 -0.001812 -0.986290
vn -0.164991 0.000053 -0.986295
vn -0.164990 -0.000054 -0.986295
vn 0.165217 -0.007250 0.986231
vn 0.165228 -0.007845 0.986224
vn 0.165288 -0.000222 0.986245
vn 0.165285 0.000219 0.986246
vn -0.693207 -0.013485 -0.720612
vn -0.692976 -0.015258 -0.720800
vn -0.683176 -0.078848 -0.725984
vn -0.683176 -0.078848 -0.725984
vn -0.979670 -0.004124 0.200575
vn -0.979081 -0.004474 0.203423
vn -0.970247 -0.009213 0.241943
vn -0.970247 -0.009213 0.241943
vn -0.696991 -0.000519 -0.717080
vn -0.696973 0.000528 -0.717097
vn -0.692976 -0.015258 -0.720800
vn -0.693207 -0.013485 -0.720612
vn -0.986282 -0.000009 0.165068
vn -0.986282 0.000009 0.165067
vn -0.979081 -0.004474 0.203423
vn -0.979670 -0.004124 0.200575
vn 0.697033 0.001167 0.717038
vn 0.696993 -0.001185 0.717077
vn 0.697124 0.000656 0.716951
vn 0.697124 0.000689 0.716950
vn 0.717430 0.000613 -0.696630
vn 0.717469 -0.000587 -0.696590
vn 0.716873 0.000856 -0.697204
vn 0.716879 0.000128 -0.697198
vn -0.717237 0.000134 0.696830
vn -0.717228 -0.000138 0.696839
vn -0.717125 -0.000029 0.696945
vn -0.717122 -0.000195 0.696947
vn 0.986299 0.000759 -0.164966
vn 0.986312 -0.000753 -0.164890
vn 0.986216 0.000611 -0.165463
vn 0.986218 0.000152 -0.165453
vn -0.164990 -0.000054 -0.986295
vn -0.164991 0.000053 -0.986295
vn -0.165060 0.000105 -0.986284
vn -0.165061 0.000038 -0.986283
vn 0.165285 0.000219 0.986246
vn 0.165288 -0.000222 0.986245
vn 0.165057 0.000165 0.986284
vn 0.165060 0.000442 0.986284
vn -0.879054 0.000000 -0.476722
vn -0.879054 0.000000 -0.476722
vn -0.879054 0.000000 -0.476722
vn -0.879054 0.000000 -0.476722
vn -0.999416 0.000000 -0.034185
vn -0.999416 0.000000 -0.034185
vn -0.999416 0.000000 -0.034185
vn -0.999416 0.000000 -0.034185
vn -0.689102 0.000000 0.724664
vn -0.689102 0.000000 0.724664
vn -0.689102 0.000000 0.724664
vn -0.689102 0.000000 0.724664
vn 0.025164 0.000000 0.999683
vn 0.025164 0.000000 0.999683
vn 0.025164 0.000000 0.999683
vn 0.025164 0.000000 0.999683
vn 0.724666 0.000000 0.689101
vn 0.724666 0.000000 0.689101
vn 0.724666 0.000000 0.689101
vn 0.724666 0.000000 0.689101
vn 0.999416 0.000000 0.034181
vn 0.999416 0.000000 0.034181
vn 0.999416 0.000000 0.034181
vn 0.999416 0.000000 0.034181
vn 0.599152 0.000000 -0.800635
vn 0.599152 0.000000 -0.800635
vn 0.599152 0.000000 -0.800635
vn 0.599152 0.000000 -0.800635
vn -0.084344 0.000000 -0.996437
vn -0.084344 0.000000 -0.996437
vn -0.084344 0.000000 -0.996437
vn -0.084344 0.000000 -0.996437
vn 0.000000 -1.000000 0.000000
vn 0.000000 -1.000000 0.000000
vn 0.000000 -1.000000 -0.000000
vn 0.000000 -1.000000 0.000000
vn 0.000000 -1.000000 0.000000
vn 0.000000 -1.000000 -0.000000
vn 0.000000 -1.000000 -0.000000
vn 0.000000 -1.000000 0.000000
vn 0.000000 -1.000000 -0.000000
vn 0.000000 -1.000000 0.000000
vn 0.000000 -1.000000 -0.000000
vn 0.000000 -1.000000 -0.000000
vn 0.000000 -1.000000 0.000000
vn 0.000000 -1.000000 0.000000
vn 0.000000 -1.000000 -0.000000
vn 0.000000 -1.000000 -0.000000
vn 0.000000 -1.000000 0.000000
vn 0.000000 -1.000000 -0.000000
vn 0.000000 -1.000000 -0.000000
vn 0.000000 -1.000000 -0.000000
vn 0.000000 -1.000000 -0.000000
vn 0.000000 -1.000000 0.000000
vn 0.000000 -1.000000 -0.000000
vn 0.000000 -1.000000 -0.000000
vn 0.000000 1.000000 -0.000000
vn 0.000000 1.000000 0.000000
vn 0.000000 1.000000 -0.000000
vn 0.000000 1.000000 0.000000
vn 0.000000 1.000000 0.000000
vn 0.000000 1.000000 -0.000000
vn 0.000000 1.000000 0.000000
vn 0.000000 1.000000 0.000000
vn 0.000000 1.000000 -0.000000
vn 0.000000 1.000000 0.000000
vn 0.000000 1.000000 0.000000
vn 0.000000 1.000000 -0.000000
vn 0.000000 1.000000 0.000000
vn 0.000000 1.000000 -0.000000
vn 0.000000 1.000000 -0.000000
vn 0.000000 1.000000 -0.000000
vn 0.000000 1.000000 0.000000
vn 0.000000 1.000000 -0.000000
vn 0.000000 1.000000 0.000000
vn 0.000000 1.000000 -0.000000
vn 0.000000 1.000000 -0.000000
vn 0.000000 1.000000 -0.000000
vn 0.000000 1.000000 -0.000000
vn 0.000000 1.000000 -0.000000
s off
f 1/9/1 2/10/2 10/19/3 9/18/4
f 2/10/5 3/11/6 11/20/7 10/19/8
f 3/11/9 4/12/10 12/21/11 11/20/12
f 4/12/13 5/13/14 13/22/15 12/21/16
f 5/13/17 6/14/18 14/23/19 13/22/20
f 6/14/21 7/15/22 15/24/23 14/23/24
f 7/15/25 8/16/26 16/25/27 15/24/28
f 8/16/29 1/17/30 9/26/31 16/25/32
f 2/2/33 1/1/34 17/35/35
f 3/3/36 2/2/37 17/35/38
f 4/4/39 3/3/40 17/35/41
f 5/5/42 4/4/43 17/35/44
f 6/6/45 5/5/46 17/35/47
f 7/7/48 6/6/49 17/35/50
f 8/8/51 7/7/52 17/35/53
f 1/1/54 8/8/55 17/35/56
f 9/33/57 10/32/58 18/36/59
f 10/32/60 11/31/61 18/36/62
f 11/31/63 12/30/64 18/36/65
f 12/30/66 13/29/67 18/36/68
f 13/29/69 14/28/70 18/36/71
f 14/28/72 15/27/73 18/36/74
f 15/27/75 16/34/76 18/36/77
f 16/34/78 9/33/79 18/36/80
f 19/37/81 20/38/82 60/39/83 59/40/84
f 21/41/85 22/42/86 24/43/87 23/44/88
f 23/44/89 24/43/90 52/45/91 51/46/92
f 25/47/93 26/48/94 20/38/95 19/37/96
f 20/38/97 26/48/98 64/49/99 60/39/100
f 25/47/101 19/37/102 59/40/103 63/50/104
f 27/51/105 28/52/106 62/53/107 61/54/108
f 29/55/109 30/56/110 32/57/111 31/58/112
f 31/58/113 32/57/114 54/59/115 53/60/116
f 33/61/117 34/62/118 28/52/119 27/51/120
f 28/52/121 34/62/122 66/63/123 62/53/124
f 33/61/125 27/51/126 61/54/127 65/64/128
f 35/65/129 36/66/130 48/67/131 47/68/132
f 37/69/133 38/70/134 68/71/135 67/72/136
f 36/66/137 38/70/138 44/73/139 48/67/140
f 37/69/141 35/65/142 47/68/143 43/74/144
f 39/75/145 40/76/146 50/77/147 49/78/148
f 41/79/149 42/80/150 70/81/151 69/82/152
f 40/76/153 42/80/154 46/83/155 50/77/156
f 41/79/157 39/75/158 49/78/159 45/84/160
f 43/74/161 44/73/162 38/70/163 37/69/164
f 45/84/165 46/83/166 42/80/167 41/79/168
f 47/68/169 48/67/170 56/85/171 55/86/172
f 48/67/173 44/73/174 52/45/175 56/85/176
f 43/74/177 47/68/178 55/86/179 51/46/180
f 49/78/181 50/77/182 58/87/183 57/88/184
f 50/77/185 46/83/186 54/59/187 58/87/188
f 45/84/189 49/78/190 57/88/191 53/60/192
f 51/46/193 52/45/194 44/73/195 43/74/196
f 53/60/197 54/59/198 46/83/199 45/84/200
f 55/86/201 56/85/202 22/42/203 21/41/204
f 56/85/205 52/45/206 24/43/207 22/42/208
f 51/46/209 55/86/210 21/41/211 23/44/212
f 57/88/213 58/87/214 30/56/215 29/55/216
f 58/87/217 54/59/218 32/57/219 30/56/220
f 53/60/221 57/88/222 29/55/223 31/58/224
f 59/40/225 60/39/226 72/89/227 71/90/228
f 60/39/229 64/49/230 68/71/231 72/89/232
f 63/50/233 59/40/234 71/90/235 67/72/236
f 61/54/237 62/53/238 74/91/239 73/92/240
f 62/53/241 66/63/242 70/81/243 74/91/244
f 65/64/245 61/54/246 73/92/247 69/82/248
f 63/50/249 64/49/250 26/48/251 25/47/252
f 65/64/253 66/63/254 34/62/255 33/61/256
f 67/72/257 68/71/258 64/49/259 63/50/260
f 69/82/261 70/81/262 66/63/263 65/64/264
f 71/90/265 72/89/266 36/66/267 35/65/268
f 72/89/269 68/71/270 38/70/271 36/66/272
f 67/72/273 71/90/274 35/65/275 37/69/276
f 73/92/277 74/91/278 40/76/279 39/75/280
f 74/91/281 70/81/282 42/80/283 40/76/284
f 69/82/285 73/92/286 39/75/287 41/79/288
f 75/93/289 76/94/290 84/95/291 83/96/292
f 76/94/293 77/97/294 85/98/295 84/95/296
f 77/97/297 78/99/298 86/100/299 85/98/300
f 78/99/301 79/101/302 87/102/303 86/100/304
f 79/101/305 80/103/306 88/104/307 87/102/308
f 80/103/309 81/105/310 89/106/311 88/104/312
f 81/105/313 82/107/314 90/108/315 89/106/316
f 82/107/317 75/109/318 83/110/319 90/108/320
f 76/111/321 75/112/322 91/113/323
f 77/114/324 76/111/325 91/113/326
f 78/115/327 77/114/328 91/113/329
f 79/116/330 78/115/331 91/113/332
f 80/117/333 79/116/334 91/113/335
f 81/118/336 80/117/337 91/113/338
f 82/119/339 81/118/340 91/113/341
f 75/112/342 82/119/343 91/113/344
f 83/120/345 84/121/346 92/122/347
f 84/121/348 85/123/349 92/122/350
f 85/123/351 86/124/352 92/122/353
f 86/124/354 87/125/355 92/122/356
f 87/125/357 88/126/358 92/122/359
f 88/126/360 89/127/361 92/122/362
f 89/127/363 90/128/364 92/122/365
f 90/128/366 83/120/367 92/122/368
