# This file uses meters as units for non-parametric coordinates.

v 16.751186 0.000000 -41.088772
v -16.751196 0.000000 -41.088772
v -40.440964 0.000000 -17.399036
v -40.440964 0.000000 16.103344
v -16.751196 0.000000 39.793106
v 16.751192 0.000000 39.793106
v 40.440964 0.000000 16.103344
v 40.440964 0.000000 -17.399036
v 14.665223 17.377626 -36.052830
v -14.665229 17.377626 -36.052830
v -35.404987 17.377626 -15.313034
v -35.404987 17.377626 14.017391
v -14.665226 17.377626 34.757156
v 14.665225 17.377626 34.757156
v 35.404987 17.377626 14.017391
v 35.404987 17.377626 -15.313072
v 16.751186 11.622113 -41.088772
v -16.751196 11.622113 -41.088772
v -40.440964 11.622113 -17.399036
v -40.440964 11.622113 16.103344
v -16.751196 11.622113 39.793106
v 16.751186 11.622113 39.793106
v 40.440964 11.622113 16.103344
v 40.440964 11.622113 -17.399036
v -14.665226 17.377626 6.304483
v 14.665225 17.377626 6.304483
v -10.478876 11.622113 39.793106
v 10.479072 11.622113 39.793106
v 10.479072 17.377626 34.757156
v -10.478876 17.377626 34.757156
v -10.478876 0.000000 39.793106
v 10.479072 0.000000 39.793106
v -10.478876 17.377626 9.177732
v 10.479071 17.377626 9.177732
v -8.286306 10.583048 38.298111
v 8.286503 10.583048 38.298111
v 8.286503 15.297867 34.246311
v -8.286306 15.297867 34.246311
v -8.286306 0.000000 38.298111
v 8.286503 0.000000 38.298111
v -8.286306 15.297867 11.589622
v 8.286503 15.297867 11.589622
v -5.952439 11.699577 41.088776
v 5.952635 11.699577 41.088776
v 5.952635 17.990774 35.421143
v -5.952439 17.990774 35.421143
v -5.952439 0.000000 39.575691
v 5.952635 0.000000 39.575691
v -5.952439 18.688025 14.473972
v 5.952635 18.688025 14.473972
v -8.894102 17.377626 1.916981
v 8.894102 17.377626 1.916981
v -6.355145 17.377626 4.790258
v 6.355342 17.377626 4.790258
v -5.025404 15.297867 7.202148
v 5.025601 15.297867 7.202148
v -3.609970 18.688025 10.086470
v 3.610168 18.688025 10.086470
v 0.000042 0.000000 16.439371
vt 0.243920 0.348716
vt 0.243920 0.348716
vt 0.243920 0.348716
vt 0.243920 0.348716
vt 0.243920 0.348716
vt 0.243920 0.348716
vt 0.243920 0.348716
vt 0.243920 0.348716
vt 0.243920 0.348716
vt 0.243920 0.348716
vt 0.243920 0.348716
vt 0.243920 0.348716
vt 0.243920 0.348716
vt 0.243920 0.348716
vt 0.243920 0.348716
vt 0.243920 0.348716
vt 0.243920 0.348716
vt 0.243920 0.348716
vt 0.243920 0.348716
vt 0.243920 0.348716
vt 0.243920 0.348716
vt 0.243920 0.348716
vt 0.243920 0.348716
vt 0.243920 0.348716
vt 0.243920 0.348716
vt 0.243920 0.348716
vt 0.243920 0.348716
vt 0.243920 0.348716
vt 0.243920 0.348716
vt 0.243920 0.348716
vt 0.243920 0.348716
vt 0.243920 0.348716
vt 0.243920 0.348716
vt 0.243920 0.348716
vt 0.243920 0.348716
vt 0.243920 0.348716
vt 0.243920 0.348716
vt 0.243920 0.348716
vt 0.243920 0.348716
vt 0.243920 0.348716
vt 0.243920 0.348716
vt 0.243920 0.348716
vt 0.243920 0.348716
vt 0.243920 0.348716
vt 0.243920 0.348716
vt 0.243920 0.348716
vt 0.243920 0.348716
vt 0.243920 0.348716
vt 0.243920 0.348716
vt 0.243920 0.348716
vt 0.243920 0.348716
vt 0.243920 0.348716
vt 0.243920 0.348716
vt 0.243920 0.348716
vt 0.243920 0.348716
vt 0.243920 0.348716
vt 0.243920 0.348716
vt 0.243920 0.348716
vt 0.243920 0.348716
vt 0.243920 0.348716
vt 0.243920 0.348716
vt 0.243920 0.348716
vt 0.243920 0.348716
vt 0.243920 0.348716
vt 0.243920 0.348716
vt 0.243920 0.348716
vt 0.243920 0.348716
vt 0.243920 0.348716
vt 0.243920 0.348716
vt 0.243920 0.348716
vt 0.243920 0.348716
vt 0.243920 0.348716
vt 0.243920 0.348716
vt 0.243920 0.348716
vt 0.243920 0.348716
vt 0.243920 0.348716
vt 0.243920 0.348716
vt 0.243920 0.348716
vt 0.243920 0.348716
vt 0.243920 0.348716
vt 0.243920 0.348716
vt 0.243920 0.348716
vt 0.243920 0.348716
vt 0.243920 0.348716
vt 0.243920 0.348716
vt 0.243920 0.348716
vt 0.243920 0.348716
vt 0.243920 0.348716
vt 0.243920 0.348716
vt 0.243920 0.348716
vn 0.000000 0.658495 -0.752585
vn 0.000000 0.658495 -0.752585
vn 0.000000 0.658495 -0.752585
vn 0.000000 0.658495 -0.752585
vn -0.532157 0.658497 -0.532156
vn -0.532157 0.658497 -0.532156
vn -0.532157 0.658497 -0.532156
vn -0.532157 0.658497 -0.532156
vn -0.752583 0.658497 0.000000
vn -0.752583 0.658497 0.000000
vn -0.752583 0.658497 0.000000
vn -0.752583 0.658497 0.000000
vn -0.532157 0.658496 0.532157
vn -0.532157 0.658496 0.532157
vn -0.532157 0.658496 0.532157
vn -0.532157 0.658496 0.532157
vn 0.000000 0.669327 0.742968
vn 0.000000 0.669327 0.742968
vn 0.000000 0.669327 0.742968
vn 0.000000 0.669327 0.742968
vn 0.532157 0.658496 0.532157
vn 0.532157 0.658496 0.532157
vn 0.532157 0.658496 0.532157
vn 0.532157 0.658496 0.532157
vn 0.752583 0.658497 0.000000
vn 0.752583 0.658497 0.000000
vn 0.752583 0.658497 0.000000
vn 0.752583 0.658497 0.000000
vn 0.532157 0.658496 -0.532158
vn 0.532157 0.658496 -0.532158
vn 0.532157 0.658496 -0.532158
vn 0.532157 0.658496 -0.532158
vn 0.000000 1.000000 0.000000
vn 0.000000 1.000000 0.000000
vn 0.000000 1.000000 0.000000
vn 0.000000 0.000000 -1.000000
vn 0.000000 0.000000 -1.000000
vn 0.000000 0.000000 -1.000000
vn 0.000000 0.000000 -1.000000
vn -0.707106 0.000000 -0.707107
vn -0.707106 0.000000 -0.707107
vn -0.707106 0.000000 -0.707107
vn -0.707106 0.000000 -0.707107
vn -1.000000 0.000000 0.000000
vn -1.000000 0.000000 0.000000
vn -1.000000 0.000000 0.000000
vn -1.000000 0.000000 0.000000
vn -0.707107 0.000000 0.707107
vn -0.707107 0.000000 0.707107
vn -0.707107 0.000000 0.707107
vn -0.707107 0.000000 0.707107
vn 0.000000 -0.128260 0.991741
vn 0.000000 -0.128260 0.991741
vn 0.000000 -0.128260 0.991741
vn 0.000000 -0.128260 0.991741
vn 0.707107 0.000000 0.707107
vn 0.707107 0.000000 0.707107
vn 0.707107 0.000000 0.707107
vn 0.707107 0.000000 0.707107
vn 1.000000 0.000000 0.000000
vn 1.000000 0.000000 0.000000
vn 1.000000 0.000000 0.000000
vn 1.000000 0.000000 0.000000
vn 0.707106 0.000000 -0.707107
vn 0.707106 0.000000 -0.707107
vn 0.707106 0.000000 -0.707107
vn 0.707106 0.000000 -0.707107
vn 0.000000 1.000000 0.000000
vn 0.000000 1.000000 0.000000
vn 0.000000 1.000000 0.000000
vn 0.000000 1.000000 0.000000
vn 0.000000 1.000000 0.000000
vn 0.000000 1.000000 0.000000
vn 0.000000 0.658495 0.752585
vn 0.000000 0.658495 0.752585
vn 0.000000 0.658495 0.752585
vn 0.000000 0.658495 0.752585
vn 0.000000 0.658495 0.752585
vn 0.000000 0.658495 0.752585
vn 0.000000 0.658495 0.752585
vn 0.000000 0.658495 0.752585
vn 0.000000 0.000000 1.000000
vn 0.000000 0.000000 1.000000
vn 0.000000 0.000000 1.000000
vn 0.000000 0.000000 1.000000
vn 0.000000 0.000000 1.000000
vn 0.000000 0.000000 1.000000
vn 0.000000 0.000000 1.000000
vn 0.000000 0.000000 1.000000
vn 0.000000 1.000000 0.000000
vn 0.000000 1.000000 0.000000
vn 0.000000 1.000000 0.000000
vn 0.000000 1.000000 0.000000
vn 0.000000 1.000000 0.000000
vn 0.000000 1.000000 0.000000
vn 0.000000 1.000000 0.000000
vn 0.000000 1.000000 0.000000
vn 0.000000 1.000000 0.000000
vn 0.000000 1.000000 0.000000
vn 0.000000 1.000000 0.000000
vn 0.000000 1.000000 0.000000
vn -0.630192 0.508944 0.586373
vn -0.630192 0.508944 0.586373
vn -0.630192 0.508944 0.586373
vn -0.630192 0.508944 0.586373
vn 0.630192 0.508944 0.586373
vn 0.630192 0.508944 0.586373
vn 0.630192 0.508944 0.586374
vn 0.630192 0.508944 0.586374
vn -0.563353 0.000000 0.826216
vn -0.563353 0.000000 0.826216
vn -0.563353 0.000000 0.826216
vn -0.563353 0.000000 0.826216
vn 0.563353 0.000000 0.826216
vn 0.563353 0.000000 0.826216
vn 0.563353 0.000000 0.826216
vn 0.563353 0.000000 0.826217
vn -0.445848 0.812674 0.375207
vn -0.445848 0.812674 0.375207
vn -0.445848 0.812674 0.375207
vn -0.445848 0.812674 0.375207
vn 0.688196 0.725525 0.000000
vn 0.688196 0.725525 0.000000
vn 0.688196 0.725525 0.000000
vn 0.688196 0.725525 0.000000
vn -0.688196 0.725525 0.000000
vn -0.688196 0.725525 0.000000
vn -0.688196 0.725525 0.000000
vn -0.688196 0.725525 0.000000
vn 0.762087 0.428588 0.485321
vn 0.762087 0.428588 0.485321
vn 0.762087 0.428588 0.485321
vn 0.762087 0.428588 0.485321
vn -0.762087 0.428588 0.485321
vn -0.762087 0.428588 0.485321
vn -0.762087 0.428588 0.485321
vn -0.762087 0.428588 0.485321
vn 0.649131 -0.051535 0.758929
vn 0.649131 -0.051535 0.758929
vn 0.649131 -0.051535 0.758929
vn 0.649131 -0.051535 0.758929
vn -0.649131 -0.051534 0.758929
vn -0.649131 -0.051534 0.758929
vn -0.649131 -0.051534 0.758929
vn -0.649131 -0.051534 0.758929
vn 0.619039 0.678625 -0.395295
vn 0.619039 0.678625 -0.395295
vn 0.619039 0.678625 -0.395295
vn 0.619039 0.678625 -0.395295
vn -0.796420 0.604667 0.009669
vn -0.796420 0.604667 0.009669
vn -0.796420 0.604667 0.009669
vn -0.796420 0.604667 0.009669
vn 0.796420 0.604667 0.009669
vn 0.796420 0.604667 0.009669
vn 0.796420 0.604667 0.009669
vn 0.796420 0.604667 0.009669
vn 0.000000 1.000000 -0.000000
vn 0.000000 1.000000 -0.000000
vn 0.000000 1.000000 -0.000000
vn 0.000000 1.000000 -0.000000
vn 0.445848 0.812674 0.375207
vn 0.445848 0.812674 0.375207
vn 0.445848 0.812674 0.375207
vn 0.445848 0.812674 0.375207
vn -0.619039 0.678625 -0.395295
vn -0.619039 0.678625 -0.395295
vn -0.619039 0.678625 -0.395295
vn -0.619039 0.678625 -0.395295
vn 0.000000 1.000000 0.000000
vn 0.000000 1.000000 0.000000
vn 0.000000 1.000000 0.000000
vn 0.000000 1.000000 0.000000
vn 0.000000 0.647999 -0.761641
vn 0.000000 0.647999 -0.761641
vn 0.000000 0.647999 -0.761641
vn 0.000000 0.647999 -0.761641
vn 0.000000 0.757326 0.653038
vn 0.000000 0.757325 0.653038
vn 0.000000 0.757325 0.653038
vn 0.000000 0.757326 0.653038
vn 0.000000 1.000000 0.000000
vn 0.000000 1.000000 0.000000
vn 0.000000 1.000000 0.000000
vn 0.000000 1.000000 0.000000
vn 0.000000 0.999447 0.033268
vn 0.000000 0.999447 0.033268
vn 0.000000 0.999447 0.033268
vn 0.000000 0.999447 0.033268
vn 0.000000 1.000000 0.000000
vn 0.000000 1.000000 0.000000
vn 0.000000 1.000000 0.000000
vn 0.000000 1.000000 0.000000
vn 0.000000 1.000000 0.000000
vn 0.000000 1.000000 0.000000
vn 0.000000 1.000000 0.000000
vn 0.000000 1.000000 -0.000000
vn 0.000000 1.000000 -0.000000
vn 0.000000 1.000000 -0.000000
vn 0.000000 1.000000 -0.000000
vn 0.000000 1.000000 0.000000
vn 0.000000 1.000000 0.000000
vn 0.000000 1.000000 0.000000
vn 0.000000 1.000000 0.000000
vn 0.000000 -1.000000 -0.000000
vn 0.000000 -1.000000 -0.000000
vn 0.000000 -1.000000 -0.000000
vn -0.000000 -1.000000 -0.000000
vn -0.000000 -1.000000 -0.000000
vn -0.000000 -1.000000 -0.000000
vn -0.000000 -1.000000 0.000000
vn -0.000000 -1.000000 0.000000
vn -0.000000 -1.000000 0.000000
vn -0.000000 -1.000000 0.000000
vn -0.000000 -1.000000 0.000000
vn -0.000000 -1.000000 0.000000
vn 0.000000 -1.000000 0.000000
vn 0.000000 -1.000000 0.000000
vn 0.000000 -1.000000 0.000000
vn 0.000000 -1.000000 0.000000
vn 0.000000 -1.000000 0.000000
vn 0.000000 -1.000000 0.000000
vn 0.000000 -1.000000 -0.000000
vn 0.000000 -1.000000 -0.000000
vn 0.000000 -1.000000 -0.000000
vn -0.000000 -1.000000 0.000000
vn -0.000000 -1.000000 0.000000
vn -0.000000 -1.000000 0.000000
vn -0.000000 -1.000000 0.000000
vn 0.000000 -1.000000 0.000000
vn 0.000000 -1.000000 0.000000
vn 0.000000 -1.000000 0.000000
vn 0.000000 -1.000000 0.000000
vn 0.000000 -1.000000 0.000000
vn 0.000000 -1.000000 0.000000
vn 0.000000 -1.000000 0.000000
vn 0.000000 -1.000000 0.000000
vn 0.000000 -1.000000 0.000000
s off
f 17/28/1 18/29/2 10/11/3 9/10/4
f 18/29/5 19/30/6 11/12/7 10/11/8
f 19/30/9 20/31/10 12/13/11 11/12/12
f 20/31/13 21/32/14 13/14/15 12/13/16
f 43/61/17 44/58/18 45/59/19 46/60/20
f 22/33/21 23/34/22 15/16/23 14/15/24
f 23/34/25 24/35/26 16/17/27 15/16/28
f 24/35/29 17/27/30 9/18/31 16/17/32
f 13/21/33 25/36/34 12/22/35
f 1/1/36 2/2/37 18/29/38 17/28/39
f 2/2/40 3/3/41 19/30/42 18/29/43
f 3/3/44 4/4/45 20/31/46 19/30/47
f 4/4/48 5/5/49 21/32/50 20/31/51
f 47/63/52 48/62/53 44/58/54 43/61/55
f 6/6/56 7/7/57 23/34/58 22/33/59
f 7/7/60 8/8/61 24/35/62 23/34/63
f 8/8/64 1/9/65 17/27/66 24/35/67
f 16/26/68 26/37/69 15/19/70
f 26/37/71 14/20/72 15/19/73
f 22/33/74 14/15/75 29/39/76 28/38/77
f 13/14/78 21/32/79 27/41/80 30/40/81
f 6/6/82 22/33/83 28/38/84 32/42/85
f 21/32/86 5/5/87 31/43/88 27/41/89
f 26/37/90 52/69/91 54/71/92 34/44/93
f 25/36/94 13/21/95 30/46/96 33/45/97
f 14/20/98 26/37/99 34/44/100 29/47/101
f 28/38/102 29/39/103 37/49/104 36/48/105
f 30/40/106 27/41/107 35/51/108 38/50/109
f 32/42/110 28/38/111 36/48/112 40/52/113
f 27/41/114 31/43/115 39/53/116 35/51/117
f 34/44/118 54/71/119 56/73/120 42/54/121
f 33/45/122 30/46/123 38/56/124 41/55/125
f 29/47/126 34/44/127 42/54/128 37/57/129
f 36/48/130 37/49/131 45/59/132 44/58/133
f 38/50/134 35/51/135 43/61/136 46/60/137
f 40/52/138 36/48/139 44/58/140 48/62/141
f 35/51/142 39/53/143 47/63/144 43/61/145
f 42/54/146 56/73/147 58/75/148 50/64/149
f 41/55/150 38/56/151 46/66/152 49/65/153
f 37/57/154 42/54/155 50/64/156 45/67/157
f 53/70/158 51/68/159 25/36/160 33/45/161
f 55/72/162 53/70/163 33/45/164 41/55/165
f 57/74/166 55/72/167 41/55/168 49/65/169
f 57/74/170 49/65/171 50/64/172 58/75/173
f 58/75/174 56/73/175 55/72/176 57/74/177
f 56/73/178 54/71/179 53/70/180 55/72/181
f 54/71/182 52/69/183 51/68/184 53/70/185
f 50/64/186 49/65/187 46/66/188 45/67/189
f 25/36/190 11/23/191 12/22/192
f 52/69/193 26/37/194 16/26/195 9/25/196
f 51/68/197 10/24/198 11/23/199 25/36/200
f 52/69/201 9/25/202 10/24/203 51/68/204
f 2/76/205 1/77/206 59/78/207
f 3/79/208 2/76/209 59/78/210
f 4/80/211 3/79/212 59/78/213
f 5/81/214 4/80/215 59/78/216
f 7/82/217 6/83/218 59/78/219
f 8/84/220 7/82/221 59/78/222
f 1/77/223 8/84/224 59/78/225
f 59/78/226 6/83/227 32/86/228 40/88/229
f 59/78/230 39/87/231 31/85/232 5/81/233
f 59/78/234 40/88/235 48/90/236 47/89/237 39/87/238
