# This file uses meters as units for non-parametric coordinates.

v -25.871918 -0.455935 -4.295807
v -25.871918 -0.455935 19.606293
v -10.716522 -0.455935 36.507782
v 10.716476 -0.455935 36.507782
v 25.871872 -0.455935 19.606293
v 25.871872 -0.455935 -4.295807
v 10.716476 -0.455935 -21.197235
v -10.716522 -0.455935 -21.197235
v -30.042252 53.267374 -6.222137
v -30.042252 53.267374 21.532806
v -12.443909 53.267374 41.158539
v 12.443893 53.267374 41.158539
v 30.042221 53.267374 21.532806
v 30.042221 53.267374 -6.222137
v 12.443893 53.267374 -25.848053
v -12.443909 53.267374 -25.848053
v -0.000015 -0.455935 7.655304
v -30.042252 39.304461 21.532806
v -12.443909 39.304461 41.158539
v 12.443893 39.304461 41.158539
v 30.042160 39.304461 21.532806
v 30.042160 39.304461 -6.222137
v 12.443893 39.304461 -25.848053
v -12.443909 39.304461 -25.848053
v -30.042252 39.304461 -6.222137
v -25.871918 6.593452 19.606354
v -10.716522 6.593452 36.507782
v 10.716476 6.593452 36.507782
v 25.871872 6.593452 19.606354
v 25.871872 6.593452 -4.295807
v 10.716476 6.593452 -21.197235
v -10.716522 6.593452 -21.197235
v -25.871918 6.593452 -4.295807
v -6.943237 25.667944 -11.038239
v 6.943222 25.667944 -11.038239
v 16.762375 25.667944 -0.087799
v 16.762375 25.667944 15.398407
v 6.943222 25.667944 26.348724
v -6.943237 25.667944 26.348724
v -16.762421 25.667944 15.398407
v -16.762421 25.667944 -0.087799
v -19.849503 53.267374 -1.513824
v -19.849503 53.267374 16.824554
v -8.221939 53.267374 29.791473
v 8.221909 53.267374 29.791473
v 19.849411 53.267374 16.824554
v 19.849411 53.267374 -1.513824
v 8.221909 53.267374 -14.480988
v -8.221939 53.267374 -14.480988
v -17.599365 49.820387 -0.474396
v -17.599365 49.820387 15.785065
v -0.000015 49.820387 7.655304
v -7.289902 49.820387 27.282135
v 7.289871 49.820387 27.282135
v 17.599289 49.820387 15.785065
v 17.599289 49.820387 -0.474396
v 7.289871 49.820387 -11.971527
v -7.289902 49.820387 -11.971527
v 12.443893 49.711741 -38.021332
v -12.443909 49.711741 -38.021332
v 12.443893 72.971022 -38.021332
v -12.443909 72.971022 -38.021332
v -12.443909 72.970999 -25.848053
v 12.443893 72.970999 -25.848053
v 21.436600 79.489531 -41.158539
v -21.436615 79.489531 -41.158539
v -21.436615 79.489508 -21.466278
v 21.436600 79.489508 -21.466278
v 21.436600 110.146086 -41.158539
v -21.436615 110.146086 -41.158539
v -21.436615 110.146071 -21.466278
v 21.436600 110.146071 -21.466278
v 16.104004 115.912977 -38.374359
v -16.104050 115.912977 -38.374359
v -16.104050 115.912947 -24.153961
v 16.104004 115.912947 -24.153961
v -17.241623 11.232604 15.619720
v -7.141739 11.232604 26.883209
v 7.141708 11.232604 26.883209
v 17.241592 11.232604 15.619720
v 17.241592 11.232604 -0.309174
v 7.141708 11.232604 -11.572662
v -7.141739 11.232604 -11.572662
v -17.241623 11.232604 -0.309174
v -7.328247 100.677428 -21.466278
v -17.292603 100.677428 -21.466278
v -7.328247 106.650267 -21.466278
v -17.292603 106.650267 -21.466278
v -12.443909 49.078501 -25.847992
v -30.042252 49.078501 -6.222137
v -30.042252 49.078501 21.532806
v -12.443909 49.078501 41.158539
v 12.443893 49.078501 41.158539
v 30.042206 49.078501 21.532806
v 30.042206 49.078501 -6.222137
v 12.443893 49.078501 -25.847992
v -12.443909 45.168883 -25.847992
v -30.042252 45.168883 -6.222137
v -30.042252 45.168883 21.532806
v -12.443909 45.168883 41.158539
v 12.443893 45.168883 41.158539
v 30.042191 45.168883 21.532806
v 30.042191 45.168883 -6.222137
v 12.443893 45.168883 -25.847992
vt 0.244922 0.378796
vt 0.244922 0.378796
vt 0.244922 0.378796
vt 0.244922 0.378796
vt 0.244922 0.378796
vt 0.244922 0.378796
vt 0.244922 0.378796
vt 0.244922 0.378796
vt 0.244922 0.378796
vt 0.244922 0.378796
vt 0.244922 0.378796
vt 0.244922 0.378796
vt 0.244922 0.378796
vt 0.244922 0.378796
vt 0.244922 0.378796
vt 0.244922 0.378796
vt 0.244922 0.378796
vt 0.244922 0.378796
vt 0.244922 0.378796
vt 0.244922 0.378796
vt 0.244922 0.378796
vt 0.244922 0.378796
vt 0.244922 0.378796
vt 0.244922 0.378796
vt 0.244922 0.378796
vt 0.244922 0.378796
vt 0.244922 0.378796
vt 0.244922 0.378796
vt 0.244922 0.378796
vt 0.244922 0.378796
vt 0.244922 0.378796
vt 0.245941 0.228611
vt 0.245941 0.228611
vt 0.245941 0.228611
vt 0.245941 0.228611
vt 0.245941 0.228611
vt 0.245941 0.228611
vt 0.245941 0.228611
vt 0.245941 0.228611
vt 0.245941 0.228611
vt 0.244922 0.378796
vt 0.244922 0.378796
vt 0.244922 0.378796
vt 0.244922 0.378796
vt 0.244922 0.378796
vt 0.244922 0.378796
vt 0.244922 0.378796
vt 0.244922 0.378796
vt 0.244922 0.378796
vt 0.244922 0.378796
vt 0.244922 0.378796
vt 0.244922 0.378796
vt 0.244922 0.378796
vt 0.244922 0.378796
vt 0.244922 0.378796
vt 0.244922 0.378796
vt 0.244922 0.378796
vt 0.244922 0.378796
vt 0.244922 0.378796
vt 0.244922 0.378796
vt 0.244922 0.378796
vt 0.244922 0.378796
vt 0.244922 0.378796
vt 0.244922 0.378796
vt 0.244922 0.378796
vt 0.244922 0.378796
vt 0.244922 0.378796
vt 0.244922 0.378796
vt 0.244922 0.378796
vt 0.244922 0.378796
vt 0.244922 0.378796
vt 0.244922 0.378796
vt 0.244922 0.378796
vt 0.244922 0.378796
vt 0.244922 0.378796
vt 0.244922 0.378796
vt 0.244922 0.378796
vt 0.244922 0.378796
vt 0.244922 0.378796
vt 0.244922 0.378796
vt 0.244922 0.378796
vt 0.244922 0.378796
vt 0.244922 0.378796
vt 0.244922 0.378796
vt 0.244922 0.378796
vt 0.244922 0.378796
vt 0.244922 0.378796
vt 0.244922 0.378796
vt 0.244922 0.378796
vt 0.244922 0.378796
vt 0.244922 0.378796
vt 0.244922 0.378796
vt 0.244922 0.378796
vt 0.244922 0.378796
vt 0.244922 0.378796
vt 0.244922 0.378796
vt 0.244922 0.378796
vt 0.244922 0.378796
vt 0.244922 0.378796
vt 0.244922 0.378796
vt 0.244922 0.378796
vt 0.244922 0.378796
vt 0.244922 0.378796
vt 0.244922 0.378796
vt 0.244922 0.378796
vt 0.244922 0.378796
vt 0.244922 0.378796
vt 0.244922 0.378796
vt 0.244922 0.378796
vt 0.244922 0.378796
vt 0.244922 0.378796
vt 0.244922 0.378796
vt 0.244922 0.378796
vt 0.455139 0.026917
vt 0.455139 0.026917
vt 0.455139 0.026917
vt 0.455139 0.026917
vt 0.244922 0.378796
vt 0.244922 0.378796
vt 0.244922 0.378796
vt 0.244922 0.378796
vt 0.244922 0.378796
vt 0.244922 0.378796
vt 0.244922 0.378796
vt 0.244922 0.378796
vt 0.244922 0.378796
vt 0.244922 0.378796
vt 0.244922 0.378796
vt 0.244922 0.378796
vt 0.244922 0.378796
vt 0.244922 0.378796
vt 0.244922 0.378796
vt 0.244922 0.378796
vt 0.244922 0.378796
vt 0.244922 0.378796
vt 0.244922 0.378796
vt 0.244922 0.378796
vt 0.244922 0.378796
vt 0.244922 0.378796
vt 0.244922 0.378796
vt 0.455139 0.026917
vt 0.455139 0.026917
vt 0.455139 0.026917
vt 0.455139 0.026917
vt 0.455139 0.026917
vt 0.455139 0.026917
vt 0.455139 0.026917
vt 0.455139 0.026917
vt 0.455139 0.026917
vt 0.455139 0.026917
vt 0.455139 0.026917
vt 0.455139 0.026917
vt 0.455139 0.026917
vt 0.455139 0.026917
vt 0.455139 0.026917
vt 0.455139 0.026917
vn -1.000000 0.000000 -0.000000
vn -1.000000 0.000000 -0.000000
vn -1.000000 0.000000 -0.000000
vn -1.000000 0.000000 -0.000000
vn -0.744516 0.000000 0.667605
vn -0.744516 0.000000 0.667605
vn -0.744515 0.000000 0.667605
vn -0.744515 0.000000 0.667605
vn -0.000000 0.000000 1.000000
vn -0.000000 0.000000 1.000000
vn -0.000000 0.000000 1.000000
vn -0.000000 0.000000 1.000000
vn 0.744516 -0.000000 0.667605
vn 0.744516 -0.000000 0.667605
vn 0.744516 -0.000000 0.667605
vn 0.744516 -0.000000 0.667605
vn 1.000000 -0.000004 0.000000
vn 1.000000 -0.000004 0.000000
vn 1.000000 -0.000004 0.000000
vn 1.000000 -0.000004 0.000000
vn 0.744518 -0.000009 -0.667602
vn 0.744518 -0.000009 -0.667602
vn 0.744518 -0.000005 -0.667602
vn 0.744518 -0.000005 -0.667602
vn -0.000000 1.000000 0.000002
vn -0.000000 1.000000 0.000002
vn -0.000000 1.000000 0.000002
vn -0.000000 1.000000 0.000002
vn -0.744518 -0.000004 -0.667603
vn -0.744518 -0.000004 -0.667603
vn -0.744518 -0.000002 -0.667603
vn -0.744518 -0.000002 -0.667603
vn 0.000000 -1.000000 0.000000
vn 0.000000 -1.000000 0.000000
vn 0.000000 -1.000000 0.000000
vn 0.000000 -1.000000 0.000000
vn 0.000000 -1.000000 0.000000
vn 0.000000 -1.000000 0.000000
vn 0.000000 -1.000000 0.000000
vn 0.000000 -1.000000 0.000000
vn 0.000000 -1.000000 0.000000
vn 0.000000 -1.000000 0.000000
vn 0.000000 -1.000000 0.000000
vn 0.000000 -1.000000 0.000000
vn 0.000000 -1.000000 0.000000
vn 0.000000 -1.000000 0.000000
vn 0.000000 -1.000000 0.000000
vn 0.000000 -1.000000 0.000000
vn 0.000000 -1.000000 0.000000
vn 0.000000 -1.000000 0.000000
vn 0.000000 -1.000000 0.000000
vn 0.000000 -1.000000 0.000000
vn 0.000000 -1.000000 0.000000
vn 0.000000 -1.000000 0.000000
vn 0.000000 -1.000000 0.000000
vn 0.000000 -1.000000 0.000000
vn 0.000000 1.000000 0.000000
vn 0.000000 1.000000 0.000000
vn 0.000000 1.000000 0.000000
vn 0.000000 1.000000 0.000000
vn 0.000000 1.000000 0.000000
vn 0.000000 1.000000 0.000000
vn 0.000000 1.000000 0.000000
vn 0.000000 1.000000 0.000000
vn 0.000000 1.000000 0.000000
vn 0.000000 1.000000 0.000000
vn 0.000000 1.000000 0.000000
vn 0.000000 1.000000 0.000000
vn 0.000000 1.000000 0.000000
vn 0.000000 1.000000 0.000000
vn 0.000000 1.000000 0.000000
vn -0.000000 1.000000 -0.000000
vn -0.000000 1.000000 -0.000000
vn -0.000000 1.000000 -0.000000
vn 0.000000 1.000000 0.000000
vn 0.000000 1.000000 0.000000
vn 0.000000 1.000000 0.000000
vn 0.000000 1.000000 0.000000
vn 0.000000 1.000000 0.000000
vn 0.000000 1.000000 0.000000
vn -0.621679 0.550234 0.557457
vn -0.610184 0.572978 0.547149
vn -0.744061 0.034933 0.667198
vn -0.744061 0.034933 0.667198
vn -0.000000 0.580110 0.814538
vn -0.000000 0.580110 0.814538
vn -0.000000 0.037000 0.999315
vn -0.000000 0.037000 0.999315
vn 0.610184 0.572978 0.547149
vn 0.621679 0.550234 0.557457
vn 0.744062 0.034933 0.667197
vn 0.744062 0.034933 0.667197
vn 0.837497 0.546441 0.000000
vn 0.837497 0.546442 0.000000
vn 0.999449 0.033179 0.000000
vn 0.999449 0.033179 0.000000
vn 0.621681 0.550232 -0.557456
vn 0.610186 0.572976 -0.547149
vn 0.744063 0.034934 -0.667195
vn 0.744063 0.034934 -0.667195
vn 0.000000 0.580108 -0.814539
vn 0.000000 0.580109 -0.814539
vn 0.000000 0.036998 -0.999315
vn 0.000000 0.036998 -0.999315
vn -0.610186 0.572976 -0.547149
vn -0.621681 0.550232 -0.557457
vn -0.744063 0.034934 -0.667196
vn -0.744063 0.034934 -0.667196
vn -0.837496 0.546443 -0.000000
vn -0.837497 0.546442 -0.000000
vn -0.999449 0.033178 -0.000000
vn -0.999449 0.033178 -0.000000
vn -0.744518 -0.000003 0.667603
vn -0.744518 -0.000003 0.667603
vn -0.744518 -0.000003 0.667603
vn -0.744518 -0.000003 0.667603
vn -0.000000 0.000000 1.000000
vn -0.000000 0.000000 1.000000
vn -0.000000 0.000000 1.000000
vn -0.000000 0.000000 1.000000
vn 0.744518 -0.000003 0.667603
vn 0.744518 -0.000003 0.667603
vn 0.744518 -0.000003 0.667603
vn 0.744518 -0.000003 0.667603
vn 1.000000 0.000000 0.000000
vn 1.000000 0.000000 0.000000
vn 1.000000 0.000000 0.000000
vn 1.000000 0.000000 0.000000
vn 0.744517 0.000000 -0.667603
vn 0.744517 0.000000 -0.667603
vn 0.744517 0.000000 -0.667603
vn 0.744517 0.000000 -0.667603
vn 0.000000 0.000000 -1.000000
vn 0.000000 0.000000 -1.000000
vn 0.000000 0.000000 -1.000000
vn 0.000000 0.000000 -1.000000
vn -0.744517 0.000000 -0.667603
vn -0.744517 0.000000 -0.667603
vn -0.744517 0.000000 -0.667603
vn -0.744517 0.000000 -0.667603
vn -1.000000 0.000000 -0.000000
vn -1.000000 0.000000 -0.000000
vn -1.000000 0.000000 -0.000000
vn -1.000000 0.000000 -0.000000
vn 0.000000 -0.735647 -0.677365
vn 0.000000 -0.735647 -0.677365
vn 0.000000 -0.735647 -0.677365
vn 0.000000 -0.735647 -0.677365
vn 0.519821 -0.715905 -0.466117
vn 0.519821 -0.715905 -0.466117
vn 0.519821 -0.715905 -0.466117
vn 0.519821 -0.715905 -0.466117
vn 0.716415 -0.697674 0.000000
vn 0.716415 -0.697674 0.000000
vn 0.716415 -0.697674 0.000000
vn 0.716415 -0.697674 0.000000
vn 0.519819 -0.715906 0.466119
vn 0.519819 -0.715906 0.466119
vn 0.519819 -0.715906 0.466119
vn 0.519819 -0.715906 0.466119
vn -0.000000 -0.735646 0.677366
vn -0.000000 -0.735646 0.677366
vn -0.000000 -0.735646 0.677366
vn -0.000000 -0.735646 0.677366
vn -0.519817 -0.715907 0.466119
vn -0.519817 -0.715907 0.466119
vn -0.519817 -0.715907 0.466119
vn -0.519817 -0.715907 0.466119
vn -0.716415 -0.697675 -0.000000
vn -0.716415 -0.697675 -0.000000
vn -0.716415 -0.697675 -0.000000
vn -0.716415 -0.697675 -0.000000
vn -0.519820 -0.715906 -0.466117
vn -0.519820 -0.715906 -0.466117
vn -0.519820 -0.715906 -0.466117
vn -0.519820 -0.715906 -0.466117
vn 0.000000 1.000000 0.000000
vn 0.000000 1.000000 0.000000
vn 0.000000 1.000000 0.000000
vn 0.000000 1.000000 0.000000
vn 0.000000 1.000000 0.000000
vn 0.000000 1.000000 0.000000
vn 0.000000 1.000000 0.000000
vn 0.000000 1.000000 0.000000
vn 0.000000 1.000000 0.000000
vn 0.000000 1.000000 0.000000
vn 0.000000 1.000000 0.000000
vn 0.000000 1.000000 0.000000
vn -0.000000 1.000000 -0.000000
vn -0.000000 1.000000 -0.000000
vn -0.000000 1.000000 -0.000000
vn -0.000000 1.000000 -0.000000
vn -0.000001 1.000000 -0.000000
vn -0.000001 1.000000 -0.000000
vn -0.000001 1.000000 -0.000000
vn -0.000001 1.000000 -0.000000
vn 0.000000 1.000000 0.000000
vn 0.000000 1.000000 0.000000
vn 0.000000 1.000000 0.000000
vn 0.000000 1.000000 0.000000
vn 0.000000 1.000000 0.000000
vn 0.000000 1.000000 0.000000
vn 0.000000 1.000000 0.000000
vn 0.000000 1.000000 0.000000
vn -0.000000 1.000000 -0.000000
vn -0.000000 1.000000 -0.000000
vn -0.000000 1.000000 -0.000000
vn -0.000000 1.000000 -0.000000
vn 0.837377 0.546626 0.000000
vn 0.837377 0.546626 0.000000
vn 0.837377 0.546626 0.000000
vn 0.837377 0.546626 0.000000
vn 0.613559 0.566432 -0.550183
vn 0.613558 0.566432 -0.550183
vn 0.613559 0.566432 -0.550183
vn 0.613559 0.566432 -0.550183
vn 0.000000 0.588548 -0.808462
vn 0.000000 0.588548 -0.808462
vn 0.000000 0.588548 -0.808462
vn 0.000000 0.588548 -0.808462
vn -0.613562 0.566428 -0.550183
vn -0.613562 0.566428 -0.550183
vn -0.613562 0.566428 -0.550183
vn -0.613562 0.566428 -0.550183
vn -0.837379 0.546624 -0.000000
vn -0.837379 0.546624 -0.000000
vn -0.837379 0.546624 -0.000000
vn -0.837379 0.546624 -0.000000
vn -0.613562 0.566434 0.550176
vn -0.613562 0.566434 0.550176
vn -0.613562 0.566434 0.550176
vn -0.613562 0.566434 0.550176
vn -0.000000 0.588562 0.808452
vn -0.000000 0.588562 0.808452
vn -0.000000 0.588562 0.808452
vn -0.000000 0.588562 0.808452
vn 0.613562 0.566430 0.550180
vn 0.613562 0.566430 0.550180
vn 0.613562 0.566431 0.550180
vn 0.613562 0.566431 0.550180
vn 0.000000 -0.760087 -0.649821
vn 0.000000 -0.760087 -0.649821
vn 0.000000 -0.760087 -0.649821
vn 0.000000 -0.760087 -0.649821
vn -1.000000 0.000000 -0.000000
vn -1.000000 0.000000 -0.000000
vn -1.000000 0.000000 -0.000000
vn -1.000000 0.000000 -0.000000
vn 1.000000 0.000000 0.000000
vn 1.000000 0.000000 -0.000000
vn 1.000000 0.000000 -0.000000
vn 0.000000 0.000000 -1.000000
vn 0.000000 0.000000 -1.000000
vn 0.000000 0.000000 -1.000000
vn 0.000000 0.000000 -1.000000
vn -1.000000 0.000000 -0.000000
vn -1.000000 0.000000 -0.000000
vn -1.000000 0.000000 -0.000000
vn -1.000000 0.000000 -0.000000
vn -0.000000 0.000000 1.000000
vn -0.000000 0.000000 1.000000
vn -0.000000 0.000000 1.000000
vn -0.000000 0.000000 1.000000
vn 1.000000 0.000000 0.000000
vn 1.000000 0.000000 0.000000
vn 1.000000 0.000000 0.000000
vn 1.000000 0.000000 0.000000
vn 0.000000 -0.433664 -0.901075
vn 0.000000 -0.433664 -0.901075
vn 0.000000 -0.433664 -0.901075
vn 0.000000 -0.433664 -0.901075
vn -0.586896 -0.809662 -0.000001
vn -0.586896 -0.809662 -0.000001
vn -0.586896 -0.809662 -0.000001
vn -0.586896 -0.809662 -0.000001
vn -0.000000 -0.557877 0.829924
vn -0.000000 -0.557877 0.829924
vn -0.000000 -0.557877 0.829924
vn -0.000000 -0.557877 0.829924
vn 0.586896 -0.809662 -0.000001
vn 0.586896 -0.809662 -0.000001
vn 0.586896 -0.809662 -0.000001
vn 0.586896 -0.809662 -0.000001
vn 0.000000 0.000000 -1.000000
vn 0.000000 0.000000 -1.000000
vn 0.000000 0.000000 -1.000000
vn 0.000000 0.000000 -1.000000
vn -1.000000 0.000000 0.000000
vn -1.000000 0.000000 0.000000
vn -1.000000 0.000000 0.000000
vn -1.000000 0.000000 0.000000
vn -0.000000 0.000000 1.000000
vn -0.000000 0.000000 1.000000
vn -0.000000 0.000000 1.000000
vn -0.000000 0.000000 1.000000
vn 1.000000 0.000000 0.000000
vn 1.000000 0.000000 0.000000
vn 1.000000 0.000000 0.000000
vn 1.000000 0.000000 0.000000
vn 0.000000 0.434767 -0.900543
vn 0.000000 0.434767 -0.900543
vn 0.000000 0.434767 -0.900543
vn 0.000000 0.434767 -0.900543
vn -0.734214 0.678918 0.000001
vn -0.734214 0.678918 0.000001
vn -0.734214 0.678918 0.000001
vn -0.734214 0.678918 0.000001
vn -0.000000 0.422430 0.906396
vn -0.000000 0.422430 0.906396
vn -0.000000 0.422430 0.906396
vn -0.000000 0.422430 0.906396
vn 0.734212 0.678920 0.000001
vn 0.734212 0.678920 0.000001
vn 0.734212 0.678920 0.000001
vn 0.734212 0.678920 0.000001
vn -0.338534 0.890643 0.303561
vn -0.338534 0.890643 0.303561
vn -0.610184 0.572978 0.547149
vn -0.621679 0.550234 0.557457
vn -0.000000 0.900815 0.434203
vn -0.000000 0.900815 0.434203
vn -0.000000 0.580110 0.814538
vn -0.000000 0.580110 0.814538
vn 0.338534 0.890643 0.303561
vn 0.338534 0.890643 0.303561
vn 0.621679 0.550234 0.557457
vn 0.610184 0.572978 0.547149
vn 0.473473 0.880808 0.000000
vn 0.473473 0.880808 0.000000
vn 0.837497 0.546442 0.000000
vn 0.837497 0.546441 0.000000
vn 0.338535 0.890643 -0.303562
vn 0.338535 0.890643 -0.303562
vn 0.610186 0.572976 -0.547149
vn 0.621681 0.550232 -0.557456
vn 0.000000 0.900815 -0.434204
vn 0.000000 0.900815 -0.434204
vn 0.000000 0.580109 -0.814539
vn 0.000000 0.580108 -0.814539
vn -0.338534 0.890643 -0.303561
vn -0.338534 0.890643 -0.303561
vn -0.621681 0.550232 -0.557457
vn -0.610186 0.572976 -0.547149
vn -0.473472 0.880809 -0.000000
vn -0.473472 0.880809 -0.000000
vn -0.837497 0.546442 -0.000000
vn -0.837496 0.546443 -0.000000
vn -0.000000 -0.000001 1.000000
vn -0.000000 -0.000001 1.000000
vn -0.000000 -0.000001 1.000000
vn -0.000000 -0.000001 1.000000
vn -0.000000 0.000000 1.000000
vn -0.000000 0.000000 1.000000
vn -0.000000 0.000000 1.000000
vn -0.000000 0.000000 1.000000
vn -0.000000 0.000000 1.000000
vn -0.000000 0.000000 1.000000
vn -0.000000 0.000000 1.000000
vn -0.000000 0.000000 1.000000
vn -0.000000 0.000000 1.000000
vn -0.000000 0.000000 1.000000
vn -0.000000 0.000000 1.000000
vn -0.000000 0.000000 1.000000
vn -0.744518 -0.000002 -0.667603
vn -0.744518 -0.000002 -0.667603
vn -0.744518 0.000002 -0.667602
vn -0.744518 0.000002 -0.667602
vn -1.000000 0.000000 -0.000000
vn -1.000000 0.000000 -0.000000
vn -1.000000 0.000000 -0.000000
vn -1.000000 0.000000 -0.000000
vn -0.744515 0.000000 0.667605
vn -0.744515 0.000000 0.667605
vn -0.744516 0.000000 0.667605
vn -0.744516 0.000000 0.667605
vn -0.000000 0.000000 1.000000
vn -0.000000 0.000000 1.000000
vn -0.000000 0.000000 1.000000
vn -0.000000 0.000000 1.000000
vn 0.744516 -0.000000 0.667605
vn 0.744516 -0.000000 0.667605
vn 0.744517 -0.000001 0.667604
vn 0.744517 -0.000001 0.667604
vn 1.000000 -0.000004 0.000000
vn 1.000000 -0.000004 0.000000
vn 1.000000 -0.000005 0.000000
vn 1.000000 -0.000005 0.000000
vn 0.744518 -0.000005 -0.667602
vn 0.744518 -0.000005 -0.667602
vn 0.744519 0.000000 -0.667601
vn 0.744519 0.000000 -0.667601
vn 1.000000 0.000000 -0.000000
vn 1.000000 0.000000 -0.000000
vn 1.000000 0.000000 -0.000000
vn 1.000000 0.000000 -0.000000
vn -1.000000 0.000000 -0.000000
vn -1.000000 0.000000 -0.000000
vn -1.000000 0.000000 -0.000000
vn -0.744518 0.000002 -0.667602
vn -0.744518 0.000002 -0.667602
vn -0.744518 0.000003 -0.667602
vn -0.744518 0.000003 -0.667602
vn -1.000000 0.000000 -0.000000
vn -1.000000 0.000000 -0.000000
vn -1.000000 0.000000 -0.000000
vn -1.000000 0.000000 -0.000000
vn -0.744516 0.000000 0.667605
vn -0.744516 0.000000 0.667605
vn -0.744516 0.000000 0.667605
vn -0.744516 0.000000 0.667605
vn -0.000000 0.000000 1.000000
vn -0.000000 0.000000 1.000000
vn -0.000000 0.000000 1.000000
vn -0.000000 0.000000 1.000000
vn 0.744517 -0.000001 0.667604
vn 0.744517 -0.000001 0.667604
vn 0.744517 -0.000001 0.667604
vn 0.744517 -0.000001 0.667604
vn 1.000000 -0.000005 0.000000
vn 1.000000 -0.000005 0.000000
vn 1.000000 -0.000005 0.000000
vn 1.000000 -0.000005 0.000000
vn 0.744519 0.000000 -0.667601
vn 0.744519 0.000000 -0.667601
vn 0.744519 0.000000 -0.667601
vn 0.744519 0.000000 -0.667601
s off
f 10/1/1 9/2/2 90/125/3 91/126/4
f 11/5/5 10/1/6 91/126/7 92/127/8
f 12/7/9 11/5/10 92/127/11 93/128/12
f 13/9/13 12/7/14 93/128/15 94/129/16
f 14/11/17 13/9/18 94/129/19 95/130/20
f 15/13/21 14/11/22 95/130/23 96/131/24
f 75/15/25 76/16/26 73/17/27 74/18/28
f 9/19/29 16/20/30 89/123/31 90/124/32
f 2/23/33 1/24/34 17/25/35
f 3/26/36 2/23/37 17/25/38
f 4/27/39 3/26/40 17/25/41
f 5/28/42 4/27/43 17/25/44
f 6/29/45 5/28/46 17/25/47
f 7/30/48 6/29/49 17/25/50
f 8/31/51 7/30/52 17/25/53
f 1/24/54 8/31/55 17/25/56
f 50/32/57 51/33/58 52/34/59
f 51/33/60 53/35/61 52/34/62
f 53/35/63 54/36/64 52/34/65
f 54/36/66 55/37/67 52/34/68
f 55/37/69 56/38/70 52/34/71
f 56/38/72 57/39/73 52/34/74
f 57/39/75 58/40/76 52/34/77
f 58/40/78 50/32/79 52/34/80
f 77/41/81 78/42/82 39/43/83 40/44/84
f 78/42/85 79/45/86 38/46/87 39/43/88
f 79/45/89 80/47/90 37/48/91 38/46/92
f 80/47/93 81/49/94 36/50/95 37/48/96
f 81/49/97 82/51/98 35/52/99 36/50/100
f 82/51/101 83/53/102 34/54/103 35/52/104
f 83/53/105 84/55/106 41/56/107 34/54/108
f 84/57/109 77/41/110 40/44/111 41/58/112
f 2/59/113 3/60/114 27/61/115 26/62/116
f 3/60/117 4/63/118 28/64/119 27/61/120
f 4/63/121 5/65/122 29/66/123 28/64/124
f 5/65/125 6/67/126 30/68/127 29/66/128
f 6/67/129 7/69/130 31/70/131 30/68/132
f 7/69/133 8/71/134 32/72/135 31/70/136
f 8/71/137 1/73/138 33/74/139 32/72/140
f 1/75/141 2/59/142 26/62/143 33/76/144
f 35/52/145 34/54/146 24/21/147 23/14/148
f 36/50/149 35/52/150 23/14/151 22/12/152
f 37/48/153 36/50/154 22/12/155 21/10/156
f 38/46/157 37/48/158 21/10/159 20/8/160
f 39/43/161 38/46/162 20/8/163 19/6/164
f 40/44/165 39/43/166 19/6/167 18/4/168
f 41/58/169 40/44/170 18/4/171 25/3/172
f 34/54/173 41/56/174 25/22/175 24/21/176
f 9/77/177 10/78/178 43/79/179 42/80/180
f 10/78/181 11/81/182 44/82/183 43/79/184
f 11/81/185 12/83/186 45/84/187 44/82/188
f 12/83/189 13/85/190 46/86/191 45/84/192
f 13/85/193 14/87/194 47/88/195 46/86/196
f 14/87/197 15/89/198 48/90/199 47/88/200
f 15/89/201 16/91/202 49/92/203 48/90/204
f 16/91/205 9/77/206 42/80/207 49/92/208
f 42/80/209 43/79/210 51/93/211 50/94/212
f 43/79/213 44/82/214 53/95/215 51/93/216
f 44/82/217 45/84/218 54/96/219 53/95/220
f 45/84/221 46/86/222 55/97/223 54/96/224
f 46/86/225 47/88/226 56/98/227 55/97/228
f 47/88/229 48/90/230 57/99/231 56/98/232
f 48/90/233 49/92/234 58/100/235 57/99/236
f 49/92/237 42/80/238 50/94/239 58/100/240
f 23/14/241 24/21/242 60/101/243 59/102/244
f 89/123/245 60/101/246 24/21/247 97/132/248
f 15/13/249 96/131/250 59/102/251
f 59/102/252 60/101/253 62/103/254 61/104/255
f 16/20/256 63/105/257 62/103/258 60/101/259
f 16/20/260 15/13/261 64/106/262 63/105/263
f 64/106/264 15/13/265 59/102/266 61/104/267
f 61/104/268 62/103/269 66/107/270 65/108/271
f 63/105/272 67/109/273 66/107/274 62/103/275
f 63/105/276 64/106/277 68/110/278 67/109/279
f 68/110/280 64/106/281 61/104/282 65/108/283
f 65/108/284 66/107/285 70/111/286 69/112/287
f 67/109/288 71/113/289 70/111/290 66/107/291
f 86/114/292 85/115/293 87/116/294 88/117/295
f 72/118/296 68/110/297 65/108/298 69/112/299
f 69/112/300 70/111/301 74/18/302 73/17/303
f 70/111/304 71/113/305 75/15/306 74/18/307
f 71/113/308 72/118/309 76/16/310 75/15/311
f 76/16/312 72/118/313 69/112/314 73/17/315
f 26/62/316 27/61/317 78/42/318 77/41/319
f 27/61/320 28/64/321 79/45/322 78/42/323
f 28/64/324 29/66/325 80/47/326 79/45/327
f 29/66/328 30/68/329 81/49/330 80/47/331
f 30/68/332 31/70/333 82/51/334 81/49/335
f 31/70/336 32/72/337 83/53/338 82/51/339
f 32/72/340 33/74/341 84/55/342 83/53/343
f 33/76/344 26/62/345 77/41/346 84/57/347
f 67/109/348 68/110/349 85/119/350 86/120/351
f 68/110/352 72/118/353 87/121/354 85/119/355
f 72/118/356 71/113/357 88/122/358 87/121/359
f 71/113/360 67/109/361 86/120/362 88/122/363
f 90/141/364 89/142/365 97/143/366 98/144/367
f 91/145/368 90/141/369 98/144/370 99/146/371
f 92/147/372 91/145/373 99/146/374 100/148/375
f 93/149/376 92/147/377 100/148/378 101/150/379
f 94/151/380 93/149/381 101/150/382 102/152/383
f 95/153/384 94/151/385 102/152/386 103/154/387
f 96/155/388 95/153/389 103/154/390 104/156/391
f 59/102/392 96/131/393 104/140/394 23/14/395
f 16/20/396 60/101/397 89/123/398
f 98/133/399 97/132/400 24/21/401 25/22/402
f 99/135/403 98/134/404 25/3/405 18/4/406
f 100/136/407 99/135/408 18/4/409 19/6/410
f 101/137/411 100/136/412 19/6/413 20/8/414
f 102/138/415 101/137/416 20/8/417 21/10/418
f 103/139/419 102/138/420 21/10/421 22/12/422
f 104/140/423 103/139/424 22/12/425 23/14/426
