# This file uses meters as units for non-parametric coordinates.

v -9.539997 0.237964 11.560976
v 20.757061 0.237964 11.560976
v -9.539997 1.466731 11.560976
v 20.757061 1.466731 11.560976
v -9.539997 1.466731 -11.560976
v 20.757061 1.466731 -11.560976
v -9.539997 0.237964 -11.560976
v 20.757061 0.237964 -11.560976
v -6.921553 2.108376 8.877657
v 8.328656 2.108376 8.877657
v 8.328656 2.108376 -8.877657
v -6.921553 2.108376 -8.877657
v -5.654122 4.644161 7.078383
v 7.127572 4.644161 7.194799
v 6.494922 4.644161 -7.434432
v -6.240227 4.644161 -8.084393
v -3.405263 0.885975 -12.673642
v -1.698597 2.108376 -9.732100
v -1.184752 5.378387 -8.862486
v -1.184752 5.378387 8.862486
v -1.698597 2.108376 9.732029
v -3.405263 0.885975 12.673642
v -3.405263 -0.418715 12.673642
v -3.405263 -0.418715 -12.673642
v 17.297045 1.645364 5.714406
v 17.297045 1.645364 -5.714441
v 12.397737 1.898298 -5.714441
v 12.397737 1.898298 5.714406
v 21.910337 1.466731 1.826272
v 17.409397 1.645364 0.368642
v 12.857489 1.898298 0.368642
v 9.885426 2.108376 0.572733
v 8.093528 4.644161 0.352078
v -1.521212 5.378387 0.571755
v -7.210505 4.644161 -0.013899
v -8.401833 2.108376 0.572733
v -11.542352 1.466731 0.745844
v -11.542352 0.237964 0.745846
v -4.184454 -0.418715 0.817627
v 21.910337 0.237964 1.826273
vt 0.113665 0.325836
vt 0.113665 0.325836
vt 0.113665 0.325836
vt 0.113665 0.325836
vt 0.113665 0.325836
vt 0.113665 0.325836
vt 0.113665 0.325836
vt 0.113665 0.325836
vt 0.113665 0.325836
vt 0.113665 0.325836
vt 0.113665 0.325836
vt 0.113665 0.325836
vt 0.113665 0.325836
vt 0.113665 0.325836
vt 0.113665 0.325836
vt 0.113665 0.325836
vt 0.113665 0.325836
vt 0.113665 0.325836
vt 0.144806 0.421509
vt 0.144806 0.421509
vt 0.144806 0.421509
vt 0.144806 0.421509
vt 0.113665 0.325836
vt 0.113665 0.325836
vt 0.144806 0.421509
vt 0.144806 0.421509
vt 0.113665 0.325836
vt 0.113665 0.325836
vt 0.113665 0.325836
vt 0.113665 0.325836
vt 0.113665 0.325836
vt 0.113665 0.325836
vt 0.113665 0.325836
vt 0.113665 0.325836
vt 0.113665 0.325836
vt 0.144806 0.421509
vt 0.144806 0.421509
vt 0.144806 0.421509
vt 0.144806 0.421509
vt 0.144806 0.421509
vt 0.144806 0.421509
vt 0.134705 0.376968
vt 0.134705 0.376968
vt 0.134705 0.376968
vt 0.134705 0.376968
vt 0.113665 0.325836
vt 0.113665 0.325836
vt 0.134705 0.376968
vt 0.113665 0.325836
vt 0.113665 0.325836
vt 0.134705 0.376968
vt 0.144806 0.421509
vt 0.113665 0.325836
vt 0.144806 0.421509
vt 0.144806 0.421509
vt 0.144806 0.421509
vt 0.113665 0.325836
vt 0.144806 0.421509
vt 0.113665 0.325836
vt 0.113665 0.325836
vt 0.113665 0.325836
vt 0.113665 0.325836
vt 0.113665 0.325836
vt 0.113665 0.325836
vt 0.113665 0.325836
vn 0.046001 0.000000 0.998941
vn 0.046001 0.000000 0.998941
vn 0.046001 0.000000 0.998941
vn 0.046001 0.000000 0.998941
vn 0.081995 0.996627 0.003411
vn 0.081995 0.996627 0.003411
vn 0.081995 0.996627 0.003411
vn 0.081995 0.996627 0.003411
vn 0.046001 0.000000 -0.998941
vn 0.046001 0.000000 -0.998941
vn 0.046001 0.000000 -0.998941
vn 0.046001 0.000000 -0.998941
vn 0.026125 -0.999659 0.000453
vn 0.026125 -0.999659 0.000453
vn 0.026125 -0.999659 0.000453
vn 0.026125 -0.999659 0.000453
vn 0.993055 0.000000 0.117648
vn 0.993055 0.000000 0.117648
vn 0.993055 0.000000 0.117648
vn 0.993055 0.000000 0.117648
vn -0.983289 0.000000 0.182050
vn -0.983289 0.000000 0.182050
vn -0.983289 0.000000 0.182050
vn -0.983289 0.000000 0.182050
vn 0.001781 0.950242 0.311506
vn 0.001781 0.950242 0.311506
vn 0.001781 0.950242 0.311506
vn 0.001781 0.950242 0.311506
vn 0.053447 0.998567 0.002860
vn 0.053447 0.998567 0.002860
vn 0.053447 0.998567 0.002860
vn 0.053447 0.998567 0.002860
vn 0.001782 0.950242 -0.311509
vn 0.001782 0.950242 -0.311509
vn 0.001782 0.950242 -0.311509
vn 0.001782 0.950242 -0.311509
vn -0.200098 0.979098 0.036447
vn -0.200098 0.979098 0.036447
vn -0.200098 0.979098 0.036447
vn -0.200098 0.979098 0.036447
vn 0.140298 0.412344 0.900160
vn 0.140298 0.412344 0.900160
vn 0.140298 0.412344 0.900160
vn 0.140298 0.412344 0.900160
vn 0.829398 0.541313 0.138130
vn 0.829398 0.541313 0.138130
vn 0.829398 0.541313 0.138130
vn 0.829398 0.541313 0.138130
vn 0.133574 0.392825 -0.909861
vn 0.133574 0.392825 -0.909861
vn 0.133574 0.392825 -0.909861
vn 0.133574 0.392825 -0.909861
vn -0.853576 0.493020 0.168344
vn -0.853576 0.493020 0.168344
vn -0.853576 0.493020 0.168344
vn -0.853576 0.493020 0.168344
vn -0.005253 0.950420 -0.310925
vn -0.005253 0.950420 -0.310925
vn -0.005253 0.950420 -0.310925
vn -0.005253 0.950420 -0.310925
vn -0.170577 0.303603 -0.937405
vn -0.170577 0.303603 -0.937405
vn -0.170577 0.303603 -0.937405
vn -0.170577 0.303603 -0.937405
vn -0.147178 0.988944 0.018110
vn -0.147178 0.988944 0.018110
vn -0.147178 0.988944 0.018110
vn -0.147178 0.988944 0.018110
vn -0.264911 0.468661 0.842721
vn -0.264911 0.468661 0.842722
vn -0.264911 0.468661 0.842722
vn -0.264911 0.468661 0.842722
vn -0.005250 0.950421 0.310923
vn -0.005250 0.950421 0.310923
vn -0.005250 0.950421 0.310923
vn -0.005250 0.950421 0.310923
vn -0.178460 0.000000 0.983947
vn -0.178460 0.000000 0.983947
vn -0.178460 0.000000 0.983947
vn -0.178460 0.000000 0.983947
vn -0.097919 -0.995122 0.012014
vn -0.097919 -0.995122 0.012014
vn -0.097919 -0.995122 0.012014
vn -0.097919 -0.995122 0.012014
vn -0.178460 0.000000 -0.983947
vn -0.178460 0.000000 -0.983947
vn -0.178460 0.000000 -0.983947
vn -0.178460 0.000000 -0.983947
vn 0.041632 0.999127 0.003494
vn 0.041632 0.999127 0.003494
vn 0.041632 0.999127 0.003494
vn 0.041632 0.999127 0.003494
vn 0.051558 0.998670 0.000000
vn 0.051558 0.998670 0.000000
vn 0.051558 0.998670 0.000000
vn 0.051558 0.998670 0.000000
vn 0.064073 0.997900 0.009465
vn 0.064073 0.997900 0.009465
vn 0.064073 0.997900 0.009465
vn 0.064073 0.997900 0.009465
vn 0.051558 0.998670 -0.000000
vn 0.051558 0.998670 -0.000000
vn 0.051558 0.998670 -0.000000
vn 0.051558 0.998670 -0.000000
vn 0.043284 0.999059 -0.002814
vn 0.043284 0.999059 -0.002814
vn 0.043284 0.999059 -0.002814
vn 0.043284 0.999059 -0.002814
vn 0.053447 0.998568 -0.002513
vn 0.053447 0.998568 -0.002513
vn 0.053447 0.998568 -0.002513
vn 0.053447 0.998568 -0.002513
vn 0.062988 0.997981 -0.008177
vn 0.062988 0.997981 -0.008177
vn 0.062988 0.997981 -0.008177
vn 0.062988 0.997981 -0.008177
vn 0.788202 0.598263 -0.144288
vn 0.788202 0.598263 -0.144288
vn 0.788202 0.598263 -0.144288
vn 0.788202 0.598263 -0.144288
vn 0.085035 0.996358 -0.006232
vn 0.085035 0.996358 -0.006232
vn 0.085035 0.996358 -0.006232
vn 0.085035 0.996358 -0.006232
vn -0.135579 0.990715 -0.010121
vn -0.135579 0.990715 -0.010121
vn -0.135579 0.990715 -0.010121
vn -0.135579 0.990715 -0.010121
vn -0.928419 0.348105 -0.129853
vn -0.928419 0.348105 -0.129853
vn -0.928419 0.348105 -0.129853
vn -0.928419 0.348105 -0.129853
vn -0.203815 0.978466 -0.032624
vn -0.203815 0.978466 -0.032624
vn -0.203815 0.978466 -0.032624
vn -0.203815 0.978466 -0.032624
vn -0.987021 0.000000 -0.160591
vn -0.987021 0.000000 -0.160591
vn -0.987021 0.000000 -0.160591
vn -0.987021 0.000000 -0.160591
vn -0.097681 -0.995162 -0.010532
vn -0.097681 -0.995162 -0.010532
vn -0.097681 -0.995162 -0.010532
vn -0.097681 -0.995162 -0.010532
vn 0.026139 -0.999658 -0.000364
vn 0.026139 -0.999658 -0.000364
vn 0.026139 -0.999658 -0.000364
vn 0.026139 -0.999658 -0.000364
vn 0.996310 0.000000 -0.085829
vn 0.996310 0.000000 -0.085829
vn 0.996310 0.000000 -0.085829
vn 0.996310 0.000000 -0.085829
s off
f 22/28/1 23/29/2 2/2/3 4/4/4
f 33/54/5 34/55/6 20/20/7 14/21/8
f 24/31/9 17/23/10 6/6/11 8/8/12
f 23/30/13 39/63/14 40/64/15 2/10/16
f 2/2/17 40/65/18 29/47/19 4/4/20
f 37/59/21 38/61/22 1/1/23 3/3/24
f 21/27/25 22/28/26 4/4/27 10/16/28
f 25/42/29 30/48/30 31/51/31 28/45/32
f 6/6/33 17/23/34 18/24/35 11/17/36
f 36/57/37 37/60/38 3/3/39 9/15/40
f 20/20/41 21/25/42 10/26/43 14/21/44
f 10/26/45 32/52/46 33/54/47 14/21/48
f 11/36/49 18/37/50 19/19/51 15/22/52
f 35/56/53 36/58/54 9/39/55 13/40/56
f 18/24/57 17/23/58 5/5/59 12/18/60
f 19/19/61 18/37/62 12/38/63 16/41/64
f 13/40/65 20/20/66 34/55/67 35/56/68
f 9/39/69 21/25/70 20/20/71 13/40/72
f 3/3/73 22/28/74 21/27/75 9/15/76
f 1/1/77 23/29/78 22/28/79 3/3/80
f 38/62/81 39/63/82 23/30/83 1/9/84
f 5/5/85 17/23/86 24/31/87 7/7/88
f 4/4/89 29/46/90 30/49/91 25/32/92
f 6/6/93 11/17/94 27/34/95 26/33/96
f 31/50/97 32/53/98 10/16/99 28/35/100
f 10/16/101 4/4/102 25/32/103 28/35/104
f 30/49/105 29/46/106 6/6/107 26/33/108
f 31/51/109 30/48/110 26/43/111 27/44/112
f 11/17/113 32/53/114 31/50/115 27/34/116
f 33/54/117 32/52/118 11/36/119 15/22/120
f 19/19/121 34/55/122 33/54/123 15/22/124
f 35/56/125 34/55/126 19/19/127 16/41/128
f 12/38/129 36/58/130 35/56/131 16/41/132
f 5/5/133 37/60/134 36/57/135 12/18/136
f 7/13/137 38/61/138 37/59/139 5/14/140
f 7/7/141 24/31/142 39/63/143 38/62/144
f 40/64/145 39/63/146 24/31/147 8/8/148
f 29/47/149 40/65/150 8/11/151 6/12/152
