# This file uses meters as units for non-parametric coordinates.

v -23.740845 0.000000 19.358807
v 23.740845 0.000000 19.358807
v -22.812500 3.436467 18.295231
v 22.813110 3.436467 18.295231
v -22.812500 3.436467 -18.295231
v 22.813110 3.436467 -18.295231
v -23.740845 0.000000 -19.358959
v 23.740845 0.000000 -19.358959
v -18.275757 3.436467 15.725273
v -13.278198 3.436467 15.725273
v -17.709351 4.284930 14.861185
v -13.844604 4.284930 14.861185
v -17.709351 4.284930 -14.861338
v -13.844604 4.284930 -14.861338
v -18.275757 3.436467 -15.725273
v -13.278198 3.436467 -15.725273
v -6.596680 3.436467 15.725273
v -1.599121 3.436467 15.725273
v -6.030273 4.284930 14.861185
v -2.165527 4.284930 14.861185
v -6.030273 4.284930 -14.861338
v -2.165527 4.284930 -14.861338
v -6.596680 3.436467 -15.725273
v -1.599121 3.436467 -15.725273
v 13.089600 3.436467 15.725273
v 18.087158 3.436467 15.725273
v 13.656006 4.284930 14.861185
v 17.520752 4.284930 14.861185
v 13.656006 4.284930 -14.861338
v 17.520752 4.284930 -14.861338
v 13.089600 3.436467 -15.725273
v 18.087158 3.436467 -15.725273
v 1.504517 3.436467 15.725273
v 6.502686 3.436467 15.725273
v 2.071533 4.284930 14.861185
v 5.935669 4.284930 14.861185
v 2.071533 4.284930 -14.861338
v 5.935669 4.284930 -14.861338
v 1.504517 3.436467 -15.725273
v 6.502686 3.436467 -15.725273
v -17.268677 4.284930 6.503296
v -14.285278 4.284930 6.503296
v -16.929932 6.004124 6.311018
v -14.624023 6.004124 6.311018
v -16.929932 6.004124 -0.302995
v -14.624023 6.004124 -0.302995
v -17.268677 4.284930 -0.495273
v -14.285278 4.284930 -0.495273
v -14.624023 5.482399 1.901626
v -16.929932 5.482399 1.901626
v -17.268677 4.284930 1.837482
v -14.285278 4.284930 1.837482
v -14.624023 5.482399 4.106398
v -16.929932 5.482399 4.106398
v -17.268677 4.284930 4.170389
v -14.285278 4.284930 4.170389
v -5.650024 4.284930 -4.283429
v -2.667236 4.284930 -4.283429
v -5.311890 6.004124 -4.475707
v -3.005371 6.004124 -4.475707
v -5.311890 6.004124 -11.089874
v -3.005371 6.004124 -11.089874
v -5.650024 4.284930 -11.282150
v -2.667236 4.284930 -11.282150
v -3.005371 5.482399 -8.885098
v -5.311890 5.482399 -8.885098
v -5.650024 4.284930 -8.949243
v -2.667236 4.284930 -8.949243
v -3.005371 5.482399 -6.680479
v -5.311890 5.482399 -6.680479
v -5.650024 4.284930 -6.616336
v -2.667236 4.284930 -6.616336
v 2.535400 4.284930 12.837376
v 5.518188 4.284930 12.837376
v 2.873535 6.004124 12.645100
v 5.180054 6.004124 12.645100
v 2.873535 6.004124 6.031086
v 5.180054 6.004124 6.031086
v 2.535400 4.284930 5.838809
v 5.518188 4.284930 5.838809
v 5.180054 5.482399 8.235707
v 2.873535 5.482399 8.235707
v 2.535400 4.284930 8.171716
v 5.518188 4.284930 8.171716
v 5.180054 5.482399 10.440481
v 2.873535 5.482399 10.440481
v 2.535400 4.284930 10.504471
v 5.518188 4.284930 10.504471
v 14.309692 4.284930 -5.527685
v 17.292480 4.284930 -5.527685
v 14.647827 6.004124 -5.719962
v 16.954346 6.004124 -5.719962
v 14.647827 6.004124 -12.334127
v 16.954346 6.004124 -12.334127
v 14.309692 4.284930 -12.526405
v 17.292480 4.284930 -12.526405
v 16.954346 5.482399 -10.129354
v 14.647827 5.482399 -10.129354
v 14.309692 4.284930 -10.193499
v 17.292480 4.284930 -10.193499
v 16.954346 5.482399 -7.924734
v 14.647827 5.482399 -7.924734
v 14.309692 4.284930 -7.860592
v 17.292480 4.284930 -7.860592
vt 0.242883 0.378224
vt 0.242883 0.378224
vt 0.242883 0.378224
vt 0.242883 0.378224
vt 0.242883 0.378224
vt 0.242883 0.378224
vt 0.242883 0.378224
vt 0.242883 0.378224
vt 0.242883 0.378224
vt 0.242883 0.378224
vt 0.242883 0.378224
vt 0.242883 0.378224
vt 0.242883 0.378224
vt 0.242883 0.378224
vt 0.000948 0.998707
vt 0.000948 0.925356
vt 0.074299 0.925356
vt 0.074299 0.998707
vt 0.234228 0.230588
vt 0.234228 0.230588
vt 0.234228 0.230588
vt 0.234228 0.230588
vt 0.234228 0.230588
vt 0.234228 0.230588
vt 0.234228 0.230588
vt 0.234228 0.230588
vt 0.234228 0.230588
vt 0.234228 0.230588
vt 0.234228 0.230588
vt 0.234228 0.230588
vt 0.234228 0.230588
vt 0.234228 0.230588
vt 0.234228 0.230588
vt 0.234228 0.230588
vt 0.234228 0.230588
vt 0.234228 0.230588
vt 0.234228 0.230588
vt 0.234228 0.230588
vt 0.234228 0.230588
vt 0.234228 0.230588
vt 0.234228 0.230588
vt 0.234228 0.230588
vt 0.234228 0.230588
vt 0.234228 0.230588
vt 0.234228 0.230588
vt 0.234228 0.230588
vt 0.234228 0.230588
vt 0.234228 0.230588
vt 0.234228 0.230588
vt 0.234228 0.230588
vt 0.234228 0.230588
vt 0.234228 0.230588
vt 0.234228 0.230588
vt 0.234228 0.230588
vt 0.234228 0.230588
vt 0.234228 0.230588
vt 0.234228 0.230588
vt 0.234228 0.230588
vt 0.234228 0.230588
vt 0.234228 0.230588
vt 0.234228 0.230588
vt 0.234228 0.230588
vt 0.234228 0.230588
vt 0.234228 0.230588
vt 0.234228 0.230588
vt 0.234228 0.230588
vt 0.268770 0.328846
vt 0.268770 0.328846
vt 0.268770 0.328846
vt 0.268770 0.328846
vt 0.268770 0.328845
vt 0.268770 0.328845
vt 0.268770 0.328846
vt 0.268770 0.328846
vt 0.268770 0.328846
vt 0.268770 0.328846
vt 0.268770 0.328846
vt 0.268770 0.328846
vt 0.268770 0.328846
vt 0.268770 0.328846
vt 0.268770 0.328846
vt 0.268770 0.328846
vt 0.268770 0.328846
vt 0.268770 0.328846
vt 0.268770 0.328846
vt 0.268770 0.328846
vt 0.268769 0.328846
vt 0.268769 0.328846
vt 0.268770 0.328846
vt 0.268770 0.328846
vt 0.268770 0.328846
vt 0.268770 0.328846
vt 0.268770 0.328846
vt 0.268770 0.328846
vt 0.268770 0.328845
vt 0.268770 0.328845
vt 0.268770 0.328846
vt 0.268770 0.328846
vt 0.268770 0.328846
vt 0.268770 0.328846
vt 0.268770 0.328846
vt 0.268770 0.328846
vt 0.268770 0.328846
vt 0.268770 0.328846
vt 0.268770 0.328846
vt 0.268770 0.328846
vt 0.268770 0.328846
vt 0.268770 0.328846
vt 0.268770 0.328846
vt 0.268770 0.328846
vt 0.268769 0.328846
vt 0.268769 0.328846
vt 0.268770 0.328846
vt 0.268770 0.328846
vt 0.268770 0.328846
vt 0.268770 0.328846
vt 0.268770 0.328846
vt 0.268770 0.328846
vt 0.268770 0.328845
vt 0.268770 0.328845
vt 0.268770 0.328846
vt 0.268770 0.328846
vt 0.268770 0.328846
vt 0.268770 0.328846
vt 0.268770 0.328846
vt 0.268770 0.328846
vt 0.268770 0.328846
vt 0.268770 0.328846
vt 0.268770 0.328846
vt 0.268770 0.328846
vt 0.268770 0.328846
vt 0.268770 0.328846
vt 0.268770 0.328846
vt 0.268770 0.328846
vt 0.268769 0.328846
vt 0.268769 0.328846
vt 0.268770 0.328846
vt 0.268770 0.328846
vt 0.268770 0.328846
vt 0.268770 0.328846
vt 0.268770 0.328846
vt 0.268770 0.328846
vt 0.268770 0.328845
vt 0.268770 0.328845
vt 0.268770 0.328846
vt 0.268770 0.328846
vt 0.268770 0.328846
vt 0.268770 0.328846
vt 0.268770 0.328846
vt 0.268770 0.328846
vt 0.268770 0.328846
vt 0.268770 0.328846
vt 0.268770 0.328846
vt 0.268770 0.328846
vt 0.268770 0.328846
vt 0.268770 0.328846
vt 0.268770 0.328846
vt 0.268770 0.328846
vt 0.268769 0.328846
vt 0.268769 0.328846
vt 0.268770 0.328846
vt 0.268770 0.328846
vn 0.000000 0.295660 0.955293
vn 0.000000 0.295660 0.955293
vn 0.000000 0.295660 0.955293
vn 0.000000 0.295660 0.955293
vn 0.000000 1.000000 0.000000
vn 0.000000 1.000000 0.000000
vn 0.000000 1.000000 0.000000
vn 0.000000 1.000000 0.000000
vn 0.000000 0.295699 -0.955281
vn 0.000000 0.295699 -0.955281
vn 0.000000 0.295699 -0.955281
vn 0.000000 0.295699 -0.955281
vn 0.000000 -1.000000 0.000000
vn 0.000000 -1.000000 0.000000
vn 0.000000 -1.000000 0.000000
vn 0.000000 -1.000000 0.000000
vn 0.965437 0.260636 0.000000
vn 0.965437 0.260636 0.000000
vn 0.965437 0.260636 0.000000
vn 0.965437 0.260636 0.000000
vn -0.965394 0.260796 0.000000
vn -0.965394 0.260796 0.000000
vn -0.965394 0.260796 0.000000
vn -0.965394 0.260796 0.000000
vn 0.000000 0.713529 0.700626
vn 0.000000 0.713529 0.700626
vn 0.000000 0.713529 0.700626
vn 0.000000 0.713529 0.700626
vn 0.000000 1.000000 0.000000
vn 0.000000 1.000000 0.000000
vn 0.000000 1.000000 0.000000
vn 0.000000 1.000000 0.000000
vn 0.000000 0.713467 -0.700689
vn 0.000000 0.713467 -0.700689
vn 0.000000 0.713467 -0.700689
vn 0.000000 0.713467 -0.700689
vn 0.831704 0.555219 0.000000
vn 0.831704 0.555219 0.000000
vn 0.831704 0.555219 0.000000
vn 0.831704 0.555219 0.000000
vn -0.831705 0.555218 0.000000
vn -0.831705 0.555218 0.000000
vn -0.831705 0.555218 0.000000
vn -0.831705 0.555218 0.000000
vn 0.000000 0.713529 0.700626
vn 0.000000 0.713529 0.700626
vn 0.000000 0.713529 0.700626
vn 0.000000 0.713529 0.700626
vn 0.000000 1.000000 0.000000
vn 0.000000 1.000000 0.000000
vn 0.000000 1.000000 0.000000
vn 0.000000 1.000000 0.000000
vn 0.000000 0.713467 -0.700689
vn 0.000000 0.713467 -0.700689
vn 0.000000 0.713467 -0.700689
vn 0.000000 0.713467 -0.700689
vn 0.831704 0.555219 0.000000
vn 0.831704 0.555219 0.000000
vn 0.831704 0.555219 0.000000
vn 0.831704 0.555219 0.000000
vn -0.831704 0.555219 0.000000
vn -0.831704 0.555219 0.000000
vn -0.831704 0.555219 0.000000
vn -0.831704 0.555219 0.000000
vn 0.000000 0.713529 0.700626
vn 0.000000 0.713529 0.700626
vn 0.000000 0.713529 0.700626
vn 0.000000 0.713529 0.700626
vn 0.000000 1.000000 0.000000
vn 0.000000 1.000000 0.000000
vn 0.000000 1.000000 0.000000
vn 0.000000 1.000000 0.000000
vn 0.000000 0.713467 -0.700689
vn 0.000000 0.713467 -0.700689
vn 0.000000 0.713467 -0.700689
vn 0.000000 0.713467 -0.700689
vn 0.831704 0.555220 0.000000
vn 0.831704 0.555220 0.000000
vn 0.831704 0.555220 0.000000
vn 0.831704 0.555220 0.000000
vn -0.831704 0.555219 0.000000
vn -0.831704 0.555219 0.000000
vn -0.831704 0.555219 0.000000
vn -0.831704 0.555219 0.000000
vn 0.000000 0.713529 0.700626
vn 0.000000 0.713529 0.700626
vn 0.000000 0.713529 0.700626
vn 0.000000 0.713529 0.700626
vn 0.000000 1.000000 0.000000
vn 0.000000 1.000000 0.000000
vn 0.000000 1.000000 0.000000
vn 0.000000 1.000000 0.000000
vn 0.000000 0.713467 -0.700689
vn 0.000000 0.713467 -0.700689
vn 0.000000 0.713467 -0.700689
vn 0.000000 0.713467 -0.700689
vn 0.831428 0.555633 0.000000
vn 0.831428 0.555633 0.000000
vn 0.831428 0.555633 0.000000
vn 0.831428 0.555633 0.000000
vn -0.831428 0.555633 0.000000
vn -0.831428 0.555633 0.000000
vn -0.831428 0.555633 0.000000
vn -0.831428 0.555633 0.000000
vn 0.000000 0.111149 0.993804
vn 0.000000 0.111149 0.993804
vn 0.000000 0.111149 0.993804
vn 0.000000 0.111149 0.993804
vn 0.000000 0.973122 -0.230290
vn 0.000000 0.973122 -0.230290
vn 0.000000 0.973122 -0.230290
vn 0.000000 0.973122 -0.230290
vn 0.000000 0.111149 -0.993804
vn 0.000000 0.111149 -0.993804
vn 0.000000 0.111149 -0.993804
vn 0.000000 0.111149 -0.993804
vn 0.974240 0.224036 -0.025760
vn 0.974240 0.224036 -0.025760
vn 0.974240 0.224036 -0.025760
vn 0.974240 0.224036 -0.025760
vn -0.974240 0.224036 -0.025760
vn -0.974240 0.224036 -0.025760
vn -0.974240 0.224036 -0.025760
vn -0.974240 0.224036 -0.025760
vn 0.000000 0.973122 0.230290
vn 0.000000 0.973122 0.230290
vn 0.000000 0.973122 0.230290
vn 0.000000 0.973122 0.230290
vn -0.974241 0.224035 0.025760
vn -0.974241 0.224035 0.025760
vn -0.974241 0.224035 0.025760
vn -0.974241 0.224035 0.025760
vn 0.974241 0.224035 0.025760
vn 0.974241 0.224035 0.025760
vn 0.974241 0.224035 0.025760
vn 0.974241 0.224035 0.025760
vn 0.000000 1.000000 0.000000
vn 0.000000 1.000000 0.000000
vn 0.000000 1.000000 0.000000
vn 0.000000 1.000000 0.000000
vn -0.962240 0.272202 0.000000
vn -0.962240 0.272202 0.000000
vn -0.962240 0.272202 0.000000
vn -0.962240 0.272202 0.000000
vn 0.962240 0.272203 0.000000
vn 0.962240 0.272203 0.000000
vn 0.962240 0.272203 0.000000
vn 0.962240 0.272203 0.000000
vn 0.000000 0.111149 0.993804
vn 0.000000 0.111149 0.993804
vn 0.000000 0.111149 0.993804
vn 0.000000 0.111149 0.993804
vn 0.000000 0.973126 -0.230275
vn 0.000000 0.973126 -0.230275
vn 0.000000 0.973126 -0.230275
vn 0.000000 0.973126 -0.230275
vn 0.000000 0.111148 -0.993804
vn 0.000000 0.111148 -0.993804
vn 0.000000 0.111148 -0.993804
vn 0.000000 0.111148 -0.993804
vn 0.974330 0.223651 -0.025715
vn 0.974330 0.223651 -0.025715
vn 0.974330 0.223651 -0.025715
vn 0.974330 0.223651 -0.025715
vn -0.974330 0.223651 -0.025715
vn -0.974330 0.223651 -0.025715
vn -0.974330 0.223651 -0.025715
vn -0.974330 0.223651 -0.025715
vn 0.000000 0.973126 0.230274
vn 0.000000 0.973126 0.230274
vn 0.000000 0.973126 0.230274
vn 0.000000 0.973126 0.230274
vn -0.974330 0.223651 0.025715
vn -0.974330 0.223651 0.025715
vn -0.974330 0.223651 0.025715
vn -0.974330 0.223651 0.025715
vn 0.974330 0.223651 0.025715
vn 0.974330 0.223651 0.025715
vn 0.974330 0.223651 0.025715
vn 0.974330 0.223651 0.025715
vn 0.000000 1.000000 0.000000
vn 0.000000 1.000000 0.000000
vn 0.000000 1.000000 0.000000
vn 0.000000 1.000000 0.000000
vn -0.962368 0.271748 0.000000
vn -0.962368 0.271748 0.000000
vn -0.962368 0.271748 0.000000
vn -0.962368 0.271748 0.000000
vn 0.962368 0.271748 0.000000
vn 0.962368 0.271748 0.000000
vn 0.962368 0.271748 0.000000
vn 0.962368 0.271748 0.000000
vn 0.000000 0.111148 0.993804
vn 0.000000 0.111148 0.993804
vn 0.000000 0.111148 0.993804
vn 0.000000 0.111148 0.993804
vn 0.000000 0.973122 -0.230290
vn 0.000000 0.973122 -0.230290
vn 0.000000 0.973122 -0.230290
vn 0.000000 0.973122 -0.230290
vn 0.000000 0.111148 -0.993804
vn 0.000000 0.111148 -0.993804
vn 0.000000 0.111148 -0.993804
vn 0.000000 0.111148 -0.993804
vn 0.974330 0.223653 -0.025716
vn 0.974330 0.223653 -0.025716
vn 0.974330 0.223653 -0.025716
vn 0.974330 0.223653 -0.025716
vn -0.974330 0.223653 -0.025716
vn -0.974330 0.223653 -0.025716
vn -0.974330 0.223653 -0.025716
vn -0.974330 0.223653 -0.025716
vn 0.000000 0.973122 0.230290
vn 0.000000 0.973122 0.230290
vn 0.000000 0.973122 0.230290
vn 0.000000 0.973122 0.230290
vn -0.974330 0.223653 0.025716
vn -0.974330 0.223653 0.025716
vn -0.974330 0.223653 0.025716
vn -0.974330 0.223652 0.025716
vn 0.974330 0.223652 0.025716
vn 0.974330 0.223652 0.025716
vn 0.974330 0.223652 0.025716
vn 0.974330 0.223652 0.025716
vn 0.000000 1.000000 0.000000
vn 0.000000 1.000000 0.000000
vn 0.000000 1.000000 0.000000
vn 0.000000 1.000000 0.000000
vn -0.962368 0.271748 0.000000
vn -0.962368 0.271748 0.000000
vn -0.962368 0.271748 0.000000
vn -0.962368 0.271748 0.000000
vn 0.962368 0.271749 0.000000
vn 0.962368 0.271749 0.000000
vn 0.962368 0.271749 0.000000
vn 0.962368 0.271749 0.000000
vn 0.000000 0.111148 0.993804
vn 0.000000 0.111148 0.993804
vn 0.000000 0.111148 0.993804
vn 0.000000 0.111148 0.993804
vn 0.000000 0.973126 -0.230275
vn 0.000000 0.973126 -0.230275
vn 0.000000 0.973126 -0.230275
vn 0.000000 0.973126 -0.230275
vn 0.000000 0.111149 -0.993804
vn 0.000000 0.111149 -0.993804
vn 0.000000 0.111149 -0.993804
vn 0.000000 0.111149 -0.993804
vn 0.974330 0.223652 -0.025715
vn 0.974330 0.223652 -0.025715
vn 0.974330 0.223652 -0.025715
vn 0.974330 0.223652 -0.025715
vn -0.974330 0.223651 -0.025715
vn -0.974330 0.223651 -0.025715
vn -0.974330 0.223651 -0.025715
vn -0.974330 0.223651 -0.025715
vn 0.000000 0.973126 0.230275
vn 0.000000 0.973126 0.230275
vn 0.000000 0.973126 0.230275
vn 0.000000 0.973126 0.230275
vn -0.974330 0.223651 0.025715
vn -0.974330 0.223651 0.025715
vn -0.974330 0.223651 0.025715
vn -0.974330 0.223651 0.025715
vn 0.974330 0.223651 0.025715
vn 0.974330 0.223651 0.025715
vn 0.974330 0.223651 0.025715
vn 0.974330 0.223651 0.025715
vn 0.000000 1.000000 0.000000
vn 0.000000 1.000000 0.000000
vn 0.000000 1.000000 0.000000
vn 0.000000 1.000000 0.000000
vn -0.962369 0.271747 0.000000
vn -0.962369 0.271747 0.000000
vn -0.962369 0.271747 0.000000
vn -0.962369 0.271747 0.000000
vn 0.962368 0.271748 0.000000
vn 0.962368 0.271748 0.000000
vn 0.962368 0.271748 0.000000
vn 0.962368 0.271748 0.000000
s off
f 1/1/1 2/2/2 4/4/3 3/3/4
f 3/15/5 4/16/6 6/17/7 5/18/8
f 5/5/9 6/6/10 8/8/11 7/7/12
f 7/7/13 8/8/14 2/10/15 1/9/16
f 2/2/17 8/11/18 6/12/19 4/4/20
f 7/13/21 1/1/22 3/3/23 5/14/24
f 9/19/25 10/20/26 12/21/27 11/22/28
f 11/22/29 12/21/30 14/23/31 13/24/32
f 13/24/33 14/23/34 16/25/35 15/26/36
f 10/20/37 16/27/38 14/28/39 12/21/40
f 15/29/41 9/19/42 11/22/43 13/30/44
f 17/31/45 18/32/46 20/33/47 19/34/48
f 19/34/49 20/33/50 22/35/51 21/36/52
f 21/36/53 22/35/54 24/37/55 23/38/56
f 18/32/57 24/39/58 22/40/59 20/33/60
f 23/41/61 17/31/62 19/34/63 21/42/64
f 25/43/65 26/44/66 28/45/67 27/46/68
f 27/46/69 28/45/70 30/47/71 29/48/72
f 29/48/73 30/47/74 32/49/75 31/50/76
f 26/44/77 32/51/78 30/52/79 28/45/80
f 31/53/81 25/43/82 27/46/83 29/54/84
f 33/55/85 34/56/86 36/57/87 35/58/88
f 35/58/89 36/57/90 38/59/91 37/60/92
f 37/60/93 38/59/94 40/61/95 39/62/96
f 34/56/97 40/63/98 38/64/99 36/57/100
f 39/65/101 33/55/102 35/58/103 37/66/104
f 41/67/105 42/68/106 44/69/107 43/70/108
f 43/70/109 44/69/110 53/71/111 54/72/112
f 45/73/113 46/74/114 48/75/115 47/76/116
f 42/68/117 56/77/118 53/78/119 44/69/120
f 55/79/121 41/67/122 43/70/123 54/80/124
f 50/81/125 49/82/126 46/74/127 45/73/128
f 47/83/129 51/84/130 50/85/131 45/86/132
f 49/87/133 52/88/134 48/89/135 46/90/136
f 54/72/137 53/71/138 49/82/139 50/81/140
f 51/84/141 55/79/142 54/80/143 50/85/144
f 53/78/145 56/77/146 52/88/147 49/87/148
f 57/91/149 58/92/150 60/93/151 59/94/152
f 59/94/153 60/93/154 69/95/155 70/96/156
f 61/97/157 62/98/158 64/99/159 63/100/160
f 58/92/161 72/101/162 69/102/163 60/93/164
f 71/103/165 57/91/166 59/94/167 70/104/168
f 66/105/169 65/106/170 62/98/171 61/97/172
f 63/107/173 67/108/174 66/109/175 61/110/176
f 65/111/177 68/112/178 64/113/179 62/114/180
f 70/96/181 69/95/182 65/106/183 66/105/184
f 67/108/185 71/103/186 70/104/187 66/109/188
f 69/102/189 72/101/190 68/112/191 65/111/192
f 73/115/193 74/116/194 76/117/195 75/118/196
f 75/118/197 76/117/198 85/119/199 86/120/200
f 77/121/201 78/122/202 80/123/203 79/124/204
f 74/116/205 88/125/206 85/126/207 76/117/208
f 87/127/209 73/115/210 75/118/211 86/128/212
f 82/129/213 81/130/214 78/122/215 77/121/216
f 79/131/217 83/132/218 82/133/219 77/134/220
f 81/135/221 84/136/222 80/137/223 78/138/224
f 86/120/225 85/119/226 81/130/227 82/129/228
f 83/132/229 87/127/230 86/128/231 82/133/232
f 85/126/233 88/125/234 84/136/235 81/135/236
f 89/139/237 90/140/238 92/141/239 91/142/240
f 91/142/241 92/141/242 101/143/243 102/144/244
f 93/145/245 94/146/246 96/147/247 95/148/248
f 90/140/249 104/149/250 101/150/251 92/141/252
f 103/151/253 89/139/254 91/142/255 102/152/256
f 98/153/257 97/154/258 94/146/259 93/145/260
f 95/155/261 99/156/262 98/157/263 93/158/264
f 97/159/265 100/160/266 96/161/267 94/162/268
f 102/144/269 101/143/270 97/154/271 98/153/272
f 99/156/273 103/151/274 102/152/275 98/157/276
f 101/150/277 104/149/278 100/160/279 97/159/280
