# This file uses meters as units for non-parametric coordinates.

v -23.695183 -23.695164 10.916643
v 22.054825 -21.231577 10.916662
v -23.695183 23.695221 10.916643
v 23.695175 23.695221 10.916643
v -25.022041 25.022049 -0.000038
v 25.022041 25.022049 -0.000038
v -25.022041 -25.022030 -0.000038
v 25.022041 -25.022030 -0.000038
v 3.680153 3.680191 20.223930
v -25.022041 -25.022030 8.733337
v -25.022041 25.022049 8.733337
v 25.022041 25.022049 8.733320
v 25.022041 -25.022030 8.733337
v 9.062929 23.695221 10.916643
v 19.344311 23.695221 10.916643
v 16.371021 25.022049 8.733322
v 14.654690 22.298832 11.565948
v -12.469139 25.022049 8.733332
v 3.363543 25.022049 8.733328
v -2.092352 23.695221 10.916643
v -1.997271 25.022049 6.311821
v 23.695175 -17.224291 10.916643
v 19.699326 -19.699345 12.774792
v 14.860468 -23.695164 10.916643
v -7.211790 -7.211761 18.581615
v -11.427460 -8.210239 16.621239
v -14.302416 -14.302406 15.284330
v -8.073263 -11.195871 16.729033
v -23.695183 -17.417450 10.916643
v -23.695183 -4.520073 10.916643
v -25.022041 -13.309803 8.733337
v -25.022041 -8.955326 8.733337
v -25.022041 -11.157742 7.026916
v -21.614361 -9.925268 11.884201
v -23.799088 -10.953619 8.733337
v -1.966648 1.966686 21.020775
v -2.269249 -2.269230 20.880054
v 3.621206 -3.621197 20.251266
v -1.966648 1.966686 21.020775
v -2.269249 -2.269230 20.880054
v 3.621206 -3.621197 20.251266
v 3.680153 3.680191 20.223930
v 3.680153 3.680191 20.223930
v -1.966648 1.966686 21.020775
vt 0.245051 0.355403
vt 0.245051 0.355403
vt 0.245051 0.355403
vt 0.245051 0.355403
vt 0.245051 0.355403
vt 0.245051 0.355403
vt 0.245051 0.355403
vt 0.245051 0.355403
vt 0.245051 0.355403
vt 0.245051 0.355403
vt 0.245051 0.355403
vt 0.245051 0.355403
vt 0.245051 0.355403
vt 0.245051 0.355403
vt 0.245051 0.355403
vt 0.245051 0.355403
vt 0.245051 0.355403
vt 0.245051 0.355403
vt 0.245051 0.355403
vt 0.245051 0.355403
vt 0.245051 0.355403
vt 0.245051 0.355403
vt 0.245051 0.355403
vt 0.245051 0.355403
vt 0.245051 0.355403
vt 0.245051 0.355403
vt 0.245051 0.355403
vt 0.245051 0.355403
vt 0.245051 0.355403
vt 0.245051 0.355403
vt 0.245051 0.355403
vt 0.245051 0.355403
vt 0.245051 0.355403
vt 0.245051 0.355403
vt 0.245051 0.355403
vt 0.245051 0.355403
vt 0.245051 0.355403
vt 0.245051 0.355403
vt 0.245051 0.355403
vt 0.245051 0.355403
vt 0.245051 0.355403
vt 0.245051 0.355403
vt 0.245051 0.355403
vt 0.245051 0.355403
vt 0.245051 0.355403
vt 0.245051 0.355403
vt 0.245051 0.355403
vt 0.245051 0.355403
vt 0.245051 0.355403
vt 0.245051 0.355403
vt 0.245051 0.355403
vt 0.245051 0.355403
vt 0.245051 0.355403
vt 0.245051 0.355403
vt 0.245051 0.355403
vn 0.516793 -0.211541 0.829563
vn 0.516793 -0.211541 0.829563
vn 0.516793 -0.211541 0.829563
vn 0.000000 1.000000 -0.000000
vn 0.000000 1.000000 -0.000000
vn 0.000000 1.000000 -0.000000
vn 0.000000 0.000000 -1.000000
vn 0.000000 0.000000 -1.000000
vn 0.000000 0.000000 -1.000000
vn 0.000000 0.000000 -1.000000
vn 0.000000 -1.000000 0.000000
vn 0.000000 -1.000000 0.000000
vn 0.000000 -1.000000 0.000000
vn 0.000000 -1.000000 0.000000
vn 1.000000 0.000000 0.000000
vn 1.000000 0.000000 0.000000
vn 1.000000 0.000000 0.000000
vn 1.000000 0.000000 0.000000
vn -1.000000 0.000000 0.000000
vn -1.000000 0.000000 0.000000
vn -1.000000 0.000000 0.000000
vn -1.000000 0.000000 0.000000
vn 0.208335 -0.608402 0.765796
vn 0.208335 -0.608402 0.765796
vn 0.208335 -0.608402 0.765796
vn -0.763447 0.195636 0.615528
vn -0.763447 0.195636 0.615528
vn -0.763447 0.195636 0.615528
vn -0.763447 0.195636 0.615528
vn 0.064175 0.958572 0.277528
vn 0.064175 0.958572 0.277528
vn 0.064175 0.958572 0.277528
vn 0.428309 -0.175321 0.886461
vn 0.428310 -0.175321 0.886461
vn 0.428309 -0.175321 0.886461
vn 0.140220 -0.409489 0.901475
vn 0.140220 -0.409489 0.901475
vn 0.140220 -0.409489 0.901475
vn 0.000000 0.854572 0.519333
vn 0.000000 0.854572 0.519333
vn 0.000000 0.854572 0.519333
vn 0.000000 0.854572 0.519333
vn 0.089084 0.690510 0.717816
vn 0.089084 0.690510 0.717816
vn 0.089084 0.690510 0.717816
vn -0.135516 0.753990 0.642755
vn -0.135516 0.753990 0.642755
vn -0.135516 0.753990 0.642755
vn 0.000000 0.854571 0.519335
vn 0.000000 0.854571 0.519335
vn 0.000000 0.854571 0.519335
vn 0.000000 0.854571 0.519335
vn 0.000000 0.854572 0.519333
vn 0.000000 0.854572 0.519333
vn 0.000000 0.854572 0.519333
vn 0.000000 0.854572 0.519333
vn -0.123055 0.954276 0.272423
vn -0.123055 0.954276 0.272423
vn -0.123055 0.954276 0.272423
vn -0.156596 -0.140632 0.977599
vn -0.156596 -0.140632 0.977599
vn -0.156596 -0.140632 0.977599
vn 0.000000 -0.854563 0.519347
vn 0.000000 -0.854563 0.519347
vn 0.000000 -0.854563 0.519347
vn 0.000000 -0.854563 0.519347
vn 0.854565 0.000000 0.519345
vn 0.854565 0.000000 0.519345
vn 0.854565 0.000000 0.519345
vn 0.854565 0.000000 0.519345
vn 0.152586 -0.043700 0.987324
vn 0.152586 -0.043700 0.987324
vn 0.152586 -0.043700 0.987324
vn 0.106792 0.002860 0.994277
vn 0.106792 0.002860 0.994277
vn 0.106792 0.002860 0.994277
vn -0.854565 0.000000 0.519344
vn -0.854565 0.000000 0.519344
vn -0.854565 0.000000 0.519344
vn -0.854565 0.000000 0.519344
vn -0.767441 0.398333 0.502359
vn -0.767441 0.398333 0.502359
vn -0.767441 0.398333 0.502359
vn -0.854565 0.000000 0.519344
vn -0.854565 0.000000 0.519344
vn -0.854565 0.000000 0.519344
vn -0.854565 0.000000 0.519344
vn -0.421650 0.000001 0.906759
vn -0.421650 0.000001 0.906759
vn -0.421650 0.000001 0.906759
vn -0.421650 0.000001 0.906759
vn -0.421650 0.000001 0.906759
vn -0.421651 -0.000001 0.906758
vn -0.421651 -0.000001 0.906758
vn -0.421651 -0.000001 0.906758
vn -0.421651 -0.000001 0.906758
vn -0.695281 -0.220880 0.683957
vn -0.695281 -0.220880 0.683957
vn -0.695281 -0.220880 0.683957
vn -0.695281 -0.220880 0.683957
vn -0.707379 -0.432916 0.558748
vn -0.707379 -0.432916 0.558748
vn -0.707379 -0.432916 0.558748
vn -1.000000 0.000000 0.000000
vn -1.000000 0.000000 0.000000
vn -1.000000 0.000000 0.000000
vn -1.000000 0.000000 0.000000
vn -1.000000 0.000000 0.000000
vn -1.000000 0.000000 0.000000
vn -1.000000 0.000000 0.000000
vn -0.000002 -0.421655 0.906757
vn -0.000002 -0.421655 0.906757
vn -0.000002 -0.421655 0.906757
vn -0.000002 -0.421655 0.906757
vn 0.000000 0.421636 0.906765
vn 0.000000 0.421636 0.906765
vn 0.000000 0.421636 0.906765
vn 0.000000 1.000000 0.000000
vn 0.000000 1.000000 0.000000
vn 0.000000 1.000000 0.000000
vn 0.000000 1.000000 0.000000
vn 0.000000 1.000000 0.000000
vn 0.000000 1.000000 0.000000
vn 0.000000 1.000000 0.000000
vn 0.000000 1.000000 0.000000
vn 0.000000 1.000000 0.000000
vn 0.000000 1.000000 0.000000
vn 0.000000 1.000000 0.000000
vn -0.329652 -0.338528 0.881322
vn -0.329652 -0.338528 0.881322
vn -0.329652 -0.338528 0.881322
vn 0.000000 0.000000 0.000000
vn 0.000000 0.000000 0.000000
vn 0.000000 0.000000 0.000000
vn 0.000000 0.000000 0.000000
vn 0.000000 0.000000 0.000000
vn 0.000000 0.000000 0.000000
vn 0.000000 0.000000 0.000000
vn 0.000000 0.000000 0.000000
vn 0.000000 0.000000 0.000000
vn 0.000000 0.000000 0.000000
vn 0.000000 0.000000 0.000000
vn 0.000000 0.000000 0.000000
vn 0.000000 0.000000 0.000000
vn 0.000000 0.000000 0.000000
vn 0.000000 0.000000 0.000000
vn 0.000000 0.000000 0.000000
vn 0.000000 0.000000 0.000000
vn 0.000000 0.000000 0.000000
vn 0.000000 0.000000 0.000000
vn 0.000000 0.000000 0.000000
vn 0.000000 0.000000 0.000000
vn 0.000000 0.000000 0.000000
vn -0.421661 -0.000005 0.906754
vn -0.421661 -0.000005 0.906754
vn -0.421661 -0.000005 0.906754
vn -0.421661 -0.000005 0.906754
vn -0.421661 -0.000005 0.906754
vn 0.000001 -0.421653 0.906758
vn 0.000001 -0.421653 0.906757
vn 0.000001 -0.421653 0.906757
vn 0.000001 -0.421653 0.906757
vn 0.000001 -0.421653 0.906758
vn 0.000001 -0.421653 0.906757
vn 0.421654 -0.000001 0.906757
vn 0.421654 -0.000001 0.906757
vn 0.421654 -0.000001 0.906757
vn 0.421654 -0.000001 0.906757
vn 0.421654 -0.000001 0.906757
vn -0.000004 0.421658 0.906755
vn -0.000000 0.000000 0.000000
vn -0.000000 0.000000 0.000000
vn -0.000004 0.421658 0.906755
vn -0.000004 0.421658 0.906755
vn 0.000003 0.421656 0.906756
vn 0.000003 0.421656 0.906756
vn 0.000003 0.421656 0.906756
vn 0.000003 0.421656 0.906756
vn 0.000000 0.421657 0.906756
vn 0.000000 0.000000 0.000000
vn 0.000000 0.000000 0.000000
vn 0.000000 0.421657 0.906756
s off
f 22/32/1 23/33/2 2/2/3
f 21/31/4 6/6/5 5/5/6
f 5/5/7 6/6/8 8/8/9 7/7/10
f 7/7/11 8/8/12 13/22/13 10/17/14
f 6/12/15 12/21/16 13/23/17 8/11/18
f 7/13/19 10/16/20 31/42/21 33/44/22
f 23/33/23 24/34/24 2/2/25
f 34/45/26 35/46/27 31/42/28 29/40/29
f 20/30/30 21/31/31 18/28/32
f 13/23/33 22/32/34 2/2/35
f 24/35/36 13/22/37 2/10/38
f 12/20/39 16/26/40 15/25/41 4/4/42
f 17/27/43 16/26/44 14/24/45
f 15/25/46 16/26/47 17/27/48
f 20/30/49 18/28/50 11/19/51 3/3/52
f 14/24/53 16/26/54 19/29/55 20/30/56
f 20/30/57 19/29/58 21/31/59
f 27/38/60 28/39/61 26/37/62
f 10/17/63 13/22/64 24/35/65 1/9/66
f 12/21/67 4/4/68 22/32/69 13/23/70
f 36/47/71 37/48/72 9/15/73
f 37/48/74 38/49/75 9/15/76
f 11/18/77 32/43/78 30/41/79 3/3/80
f 35/46/81 33/44/82 31/42/83
f 29/40/84 31/42/85 10/16/86 1/1/87
f 1/1/88 27/38/89 26/37/90 34/45/91 29/40/92
f 34/45/93 26/37/94 3/3/95 30/41/96
f 30/41/97 32/43/98 35/46/99 34/45/100
f 32/43/101 33/44/102 35/46/103
f 7/13/104 33/44/105 5/14/106
f 5/14/107 33/44/108 32/43/109 11/18/110
f 1/1/111 24/34/112 28/39/113 27/38/114
f 20/30/115 17/27/116 14/24/117
f 21/31/118 5/5/119 11/19/120 18/28/121
f 12/20/122 6/6/123 16/26/124
f 16/26/125 6/6/126 21/31/127 19/29/128
f 26/37/129 28/39/130 25/36/131
f 39/50/132 40/51/133 37/48/134 36/47/135
f 40/51/136 41/52/137 38/49/138 37/48/139
f 41/52/140 42/53/141 9/15/142 38/49/143
f 42/53/144 43/54/145 9/15/146
f 43/54/147 44/55/148 36/47/149 9/15/150
f 44/55/151 39/50/152 36/47/153
f 3/3/154 26/37/155 25/36/156 40/51/157 39/50/158
f 28/39/159 24/34/160 23/33/161 41/52/162 40/51/163 25/36/164
f 4/4/165 42/53/166 41/52/167 23/33/168 22/32/169
f 17/27/170 43/54/171 42/53/172 4/4/173 15/25/174
f 20/30/175 44/55/176 43/54/177 17/27/178
f 3/3/179 39/50/180 44/55/181 20/30/182
