# This file uses meters as units for non-parametric coordinates.

v 11.334892 19.347149 -19.632652
v -11.334999 19.347149 -19.632660
v -22.669899 19.347149 0.000023
v -11.334999 19.347149 19.632660
v 11.334892 19.347149 19.632660
v 22.669861 19.347149 0.000023
v -11.334999 24.798109 -19.632660
v -22.669899 24.798109 0.000023
v -11.334999 24.798109 19.632660
v 11.334892 24.798109 19.632660
v 22.669861 24.798109 0.000023
v 11.334892 24.798109 -19.632652
v 7.868156 19.347149 -13.627930
v -7.868187 19.347149 -13.627930
v 15.736237 19.347149 0.000023
v 7.868156 19.347149 13.627953
v -7.868187 19.347149 13.627953
v -15.736237 19.347149 0.000023
v -15.736237 24.798109 0.000023
v -7.868080 24.798109 13.627953
v 7.868156 24.798109 13.627953
v 15.736305 24.798109 0.000023
v 7.868156 24.798109 -13.627930
v -7.868080 24.798109 -13.627930
v 8.446877 0.000000 -14.630371
v -8.446877 0.000000 -14.630379
v -16.893715 0.000000 0.000008
v -8.446877 0.000000 14.630379
v 8.446877 0.000000 14.630379
v 16.893715 0.000000 0.000008
v -0.000038 0.000000 0.000008
v 2.576080 52.572189 -4.461884
v -2.576080 52.572189 -4.461884
v -5.152168 52.572189 0.000008
v -2.576080 52.572189 4.461899
v 2.576080 52.572189 4.461899
v 5.152206 52.572189 0.000008
v 13.424393 57.863945 -23.251663
v -13.424362 57.863945 -23.251663
v -13.424362 66.009666 -23.251663
v 13.424393 66.009666 -23.251663
v -26.848717 57.863945 0.000008
v -26.848717 66.009666 0.000008
v -13.424362 57.863945 23.251663
v -13.424362 66.009666 23.251663
v 13.424393 57.863945 23.251663
v 13.424393 66.009666 23.251663
v 26.848717 57.863945 0.000008
v 26.848717 66.009666 0.000008
v 0.000000 66.009666 0.000008
v -8.446877 4.113544 -14.630379
v -16.893715 4.113544 0.000008
v -8.446877 4.113544 14.630379
v 8.446877 4.113544 14.630379
v 16.893715 4.113544 0.000008
v 8.446877 4.113544 -14.630371
v 5.152206 6.573525 0.000008
v 2.576080 6.573525 4.461899
v -2.576080 6.573525 4.461899
v -5.152168 6.573525 0.000008
v -2.576080 6.573525 -4.461884
v 2.576080 6.573525 -4.461884
vt 0.116059 0.304292
vt 0.116059 0.304292
vt 0.116059 0.304292
vt 0.116059 0.304292
vt 0.116059 0.304292
vt 0.116059 0.304292
vt 0.116059 0.304292
vt 0.116059 0.304292
vt 0.116059 0.304292
vt 0.116059 0.304292
vt 0.116059 0.304292
vt 0.116059 0.304292
vt 0.116059 0.304292
vt 0.116059 0.304292
vt 0.116059 0.304292
vt 0.116059 0.304292
vt 0.116059 0.304292
vt 0.116059 0.304292
vt 0.116059 0.304292
vt 0.116059 0.304292
vt 0.116059 0.304292
vt 0.116059 0.304292
vt 0.116059 0.304292
vt 0.116059 0.304292
vt 0.116059 0.304292
vt 0.116059 0.304292
vt 0.116059 0.304292
vt 0.116059 0.304292
vt 0.116059 0.304292
vt 0.116059 0.304292
vt 0.116059 0.304292
vt 0.116059 0.304292
vt 0.038757 0.377254
vt 0.038757 0.377254
vt 0.038757 0.377254
vt 0.038757 0.377254
vt 0.038757 0.377254
vt 0.038757 0.377254
vt 0.038757 0.377254
vt 0.038757 0.377254
vt 0.038757 0.377254
vt 0.038757 0.377254
vt 0.038757 0.377254
vt 0.038757 0.377254
vt 0.116059 0.304292
vt 0.116059 0.304292
vt 0.116059 0.304292
vt 0.116059 0.304292
vt 0.116059 0.304292
vt 0.116059 0.304292
vt 0.116059 0.304292
vt 0.038757 0.377254
vt 0.116059 0.304292
vt 0.116059 0.304292
vt 0.116059 0.304292
vt 0.116059 0.304292
vt 0.116059 0.304292
vt 0.116059 0.304292
vt 0.116059 0.304292
vt 0.116059 0.304292
vt 0.116059 0.304292
vt 0.116059 0.304292
vt 0.116059 0.304292
vt 0.116059 0.304292
vt 0.116059 0.304292
vt 0.116059 0.304292
vt 0.038757 0.377254
vt 0.038757 0.377254
vt 0.038757 0.377254
vt 0.038757 0.377254
vt 0.038757 0.377254
vt 0.038757 0.377254
vt 0.116059 0.304292
vt 0.116059 0.304292
vt 0.116059 0.304292
vt 0.116059 0.304292
vt 0.116059 0.304292
vt 0.116059 0.304292
vt 0.116059 0.304292
vt 0.116059 0.304292
vt 0.116059 0.304292
vt 0.116059 0.304292
vt 0.116059 0.304292
vt 0.116059 0.304292
vt 0.116059 0.304292
vt 0.116059 0.304292
vn -0.866026 0.000000 -0.499999
vn -0.866026 0.000000 -0.499999
vn -0.866026 0.000000 -0.499999
vn -0.866026 0.000000 -0.499999
vn -0.866026 0.000000 0.500000
vn -0.866026 0.000000 0.500000
vn -0.866026 0.000000 0.500000
vn -0.866026 0.000000 0.500000
vn 0.000000 0.000000 1.000000
vn 0.000000 0.000000 1.000000
vn 0.000000 0.000000 1.000000
vn 0.000000 0.000000 1.000000
vn 0.866024 0.000000 0.500002
vn 0.866024 0.000000 0.500002
vn 0.866024 0.000000 0.500002
vn 0.866024 0.000000 0.500002
vn 0.866025 0.000000 -0.500001
vn 0.866025 0.000000 -0.500001
vn 0.866025 0.000000 -0.500001
vn 0.866025 0.000000 -0.500001
vn 0.000000 0.000000 -1.000000
vn 0.000000 0.000000 -1.000000
vn 0.000000 0.000000 -1.000000
vn 0.000000 0.000000 -1.000000
vn 0.000000 -1.000000 -0.000000
vn 0.000000 -1.000000 -0.000000
vn 0.000000 -1.000000 -0.000000
vn 0.000000 -1.000000 -0.000000
vn 0.000000 -1.000000 0.000000
vn 0.000000 -1.000000 0.000000
vn 0.000000 -1.000000 0.000000
vn 0.000000 -1.000000 0.000000
vn 0.000000 -1.000000 -0.000000
vn 0.000000 -1.000000 -0.000000
vn 0.000000 -1.000000 -0.000000
vn 0.000000 -1.000000 -0.000000
vn 0.000000 -1.000000 0.000000
vn 0.000000 -1.000000 0.000000
vn 0.000000 -1.000000 0.000000
vn 0.000000 -1.000000 0.000000
vn 0.000000 -1.000000 -0.000000
vn 0.000000 -1.000000 -0.000000
vn 0.000000 -1.000000 -0.000000
vn 0.000000 -1.000000 -0.000000
vn 0.000000 -1.000000 0.000000
vn 0.000000 -1.000000 0.000000
vn 0.000000 -1.000000 0.000000
vn 0.000000 -1.000000 0.000000
vn 0.000000 1.000000 -0.000000
vn 0.000000 1.000000 -0.000000
vn 0.000000 1.000000 -0.000000
vn 0.000000 1.000000 -0.000000
vn 0.000000 1.000000 0.000000
vn 0.000000 1.000000 0.000000
vn 0.000000 1.000000 0.000000
vn 0.000000 1.000000 0.000000
vn 0.000000 1.000000 -0.000000
vn 0.000000 1.000000 -0.000000
vn 0.000000 1.000000 -0.000000
vn 0.000000 1.000000 -0.000000
vn 0.000000 1.000000 0.000000
vn 0.000000 1.000000 0.000000
vn 0.000000 1.000000 0.000000
vn 0.000000 1.000000 0.000000
vn 0.000000 1.000000 -0.000000
vn 0.000000 1.000000 -0.000000
vn 0.000000 1.000000 -0.000000
vn 0.000000 1.000000 -0.000000
vn 0.000000 1.000000 0.000000
vn 0.000000 1.000000 0.000000
vn 0.000000 1.000000 0.000000
vn 0.000000 1.000000 0.000000
vn 0.000000 0.000000 1.000000
vn 0.000000 0.000000 1.000000
vn 0.000000 0.000000 1.000000
vn 0.000000 0.000000 1.000000
vn -0.866025 0.000006 0.500001
vn -0.866025 0.000006 0.500001
vn -0.866025 0.000006 0.500001
vn -0.866025 0.000006 0.500001
vn -0.866025 0.000006 -0.500001
vn -0.866025 0.000006 -0.500001
vn -0.866025 0.000006 -0.500001
vn -0.866025 0.000006 -0.500001
vn 0.000000 0.000000 -1.000000
vn 0.000000 0.000000 -1.000000
vn 0.000000 0.000000 -1.000000
vn 0.000000 0.000000 -1.000000
vn 0.866025 -0.000010 -0.500000
vn 0.866025 -0.000010 -0.500000
vn 0.866025 -0.000010 -0.500000
vn 0.866025 -0.000010 -0.500000
vn 0.866026 -0.000008 0.500000
vn 0.866026 -0.000008 0.500000
vn 0.866026 -0.000008 0.500000
vn 0.866026 -0.000008 0.500000
vn 0.000000 0.000000 -1.000000
vn 0.000000 0.000000 -1.000000
vn 0.000000 0.000000 -1.000000
vn 0.000000 0.000000 -1.000000
vn -0.866025 0.000000 -0.500000
vn -0.866025 0.000000 -0.500000
vn -0.866025 0.000000 -0.500000
vn -0.866025 0.000000 -0.500000
vn -0.866025 0.000000 0.500000
vn -0.866025 0.000000 0.500000
vn -0.866025 0.000000 0.500000
vn -0.866025 0.000000 0.500000
vn 0.000000 0.000000 1.000000
vn 0.000000 0.000000 1.000000
vn 0.000000 0.000000 1.000000
vn 0.000000 0.000000 1.000000
vn 0.866026 0.000000 0.499999
vn 0.866026 0.000000 0.499999
vn 0.866026 0.000000 0.499999
vn 0.866026 0.000000 0.499999
vn 0.866026 0.000000 -0.499999
vn 0.866026 0.000000 -0.499999
vn 0.866026 0.000000 -0.499999
vn 0.866026 0.000000 -0.499999
vn 0.000000 -1.000000 0.000000
vn 0.000000 -1.000000 0.000000
vn 0.000000 -1.000000 0.000000
vn 0.000000 -1.000000 0.000000
vn 0.000000 -1.000000 0.000000
vn 0.000000 -1.000000 0.000000
vn 0.000000 -1.000000 0.000000
vn 0.000000 -1.000000 0.000000
vn 0.000000 -1.000000 0.000000
vn 0.000000 -1.000000 0.000000
vn 0.000000 -1.000000 0.000000
vn 0.000000 -1.000000 0.000000
vn 0.000000 -1.000000 0.000000
vn 0.000000 -1.000000 0.000000
vn 0.000000 -1.000000 0.000000
vn 0.000000 -1.000000 0.000000
vn 0.000000 -1.000000 0.000000
vn 0.000000 -1.000000 0.000000
vn 0.000000 1.000000 -0.000000
vn 0.000000 1.000000 -0.000000
vn 0.000000 1.000000 -0.000000
vn 0.000000 1.000000 0.000000
vn 0.000000 1.000000 0.000000
vn 0.000000 1.000000 0.000000
vn 0.000000 1.000000 0.000000
vn 0.000000 1.000000 0.000000
vn 0.000000 1.000000 0.000000
vn 0.000000 1.000000 0.000000
vn 0.000000 1.000000 0.000000
vn 0.000000 1.000000 0.000000
vn 0.000000 1.000000 0.000000
vn 0.000000 1.000000 0.000000
vn 0.000000 1.000000 0.000000
vn 0.000000 1.000000 -0.000001
vn 0.000000 1.000000 -0.000001
vn 0.000000 1.000000 -0.000001
vn 0.000000 0.971962 -0.235139
vn 0.000000 0.971962 -0.235139
vn 0.000000 0.971962 -0.235139
vn 0.000000 0.971962 -0.235139
vn -0.203636 0.971962 -0.117570
vn -0.203636 0.971962 -0.117570
vn -0.203636 0.971962 -0.117570
vn -0.203636 0.971962 -0.117570
vn -0.203636 0.971962 0.117569
vn -0.203636 0.971962 0.117569
vn -0.203636 0.971962 0.117569
vn -0.203636 0.971962 0.117569
vn 0.000000 0.971962 0.235139
vn 0.000000 0.971962 0.235139
vn 0.000000 0.971962 0.235139
vn 0.000000 0.971962 0.235139
vn 0.203636 0.971962 0.117570
vn 0.203636 0.971962 0.117570
vn 0.203636 0.971962 0.117570
vn 0.203636 0.971962 0.117570
vn 0.203636 0.971962 -0.117570
vn 0.203636 0.971962 -0.117570
vn 0.203636 0.971962 -0.117570
vn 0.203636 0.971962 -0.117570
vn 0.000000 -0.962556 -0.271084
vn 0.000000 -0.962556 -0.271084
vn 0.000000 -0.962556 -0.271084
vn 0.000000 -0.962556 -0.271084
vn -0.234766 -0.962556 -0.135542
vn -0.234766 -0.962556 -0.135542
vn -0.234766 -0.962556 -0.135542
vn -0.234766 -0.962556 -0.135542
vn -0.234766 -0.962556 0.135542
vn -0.234766 -0.962556 0.135542
vn -0.234766 -0.962556 0.135542
vn -0.234766 -0.962556 0.135542
vn 0.000000 -0.962556 0.271084
vn 0.000000 -0.962556 0.271084
vn 0.000000 -0.962556 0.271084
vn 0.000000 -0.962556 0.271084
vn 0.234766 -0.962556 0.135542
vn 0.234766 -0.962556 0.135542
vn 0.234766 -0.962556 0.135542
vn 0.234766 -0.962556 0.135542
vn 0.234766 -0.962556 -0.135542
vn 0.234766 -0.962556 -0.135542
vn 0.234766 -0.962556 -0.135542
vn 0.234766 -0.962556 -0.135542
vn -0.866026 0.000000 -0.499999
vn -0.866026 0.000000 -0.499999
vn -0.866026 0.000000 -0.499999
vn -0.866026 0.000000 -0.499999
vn -0.866026 0.000000 0.500000
vn -0.866026 0.000000 0.500000
vn -0.866026 0.000000 0.500000
vn -0.866026 0.000000 0.500000
vn 0.000000 0.000000 1.000000
vn 0.000000 0.000000 1.000000
vn 0.000000 0.000000 1.000000
vn 0.000000 0.000000 1.000000
vn 0.866026 0.000000 0.500000
vn 0.866026 0.000000 0.500000
vn 0.866026 0.000000 0.500000
vn 0.866026 0.000000 0.500000
vn 0.866026 0.000000 -0.499999
vn 0.866026 0.000000 -0.499999
vn 0.866026 0.000000 -0.499999
vn 0.866026 0.000000 -0.499999
vn 0.000000 0.000000 -1.000000
vn 0.000000 0.000000 -1.000000
vn 0.000000 0.000000 -1.000000
vn 0.000000 0.000000 -1.000000
vn 0.866022 0.000000 0.500006
vn 0.866022 0.000000 0.500006
vn 0.866022 0.000000 0.500006
vn 0.866022 0.000000 0.500006
vn 0.000000 0.000000 1.000000
vn 0.000000 0.000000 1.000000
vn 0.000000 0.000000 1.000000
vn 0.000000 0.000000 1.000000
vn -0.866025 0.000000 0.500001
vn -0.866025 0.000000 0.500001
vn -0.866025 0.000000 0.500001
vn -0.866025 0.000000 0.500001
vn -0.866024 0.000000 -0.500002
vn -0.866024 0.000000 -0.500002
vn -0.866024 0.000000 -0.500002
vn -0.866024 0.000000 -0.500002
vn 0.000000 0.000000 -1.000000
vn 0.000000 0.000000 -1.000000
vn 0.000000 0.000000 -1.000000
vn 0.000000 0.000000 -1.000000
vn 0.866021 0.000000 -0.500007
vn 0.866021 0.000000 -0.500007
vn 0.866021 0.000000 -0.500007
vn 0.866021 0.000000 -0.500007
s off
f 2/1/1 3/2/2 8/3/3 7/4/4
f 3/2/5 4/5/6 9/6/7 8/3/8
f 4/5/9 5/7/10 10/8/11 9/6/12
f 5/7/13 6/9/14 11/10/15 10/8/16
f 6/9/17 1/11/18 12/12/19 11/10/20
f 1/13/21 2/1/22 7/4/23 12/14/24
f 2/1/25 1/11/26 13/15/27 14/16/28
f 1/11/29 6/9/30 15/17/31 13/15/32
f 6/9/33 5/7/34 16/18/35 15/17/36
f 5/7/37 4/5/38 17/19/39 16/18/40
f 4/5/41 3/2/42 18/20/43 17/19/44
f 3/2/45 2/1/46 14/16/47 18/20/48
f 8/3/49 9/6/50 20/21/51 19/22/52
f 9/6/53 10/8/54 21/23/55 20/21/56
f 10/8/57 11/10/58 22/24/59 21/23/60
f 11/10/61 12/14/62 23/25/63 22/24/64
f 12/14/65 7/4/66 24/26/67 23/25/68
f 7/4/69 8/3/70 19/22/71 24/26/72
f 14/16/73 13/15/74 23/27/75 24/28/76
f 13/15/77 15/17/78 22/29/79 23/27/80
f 15/17/81 16/18/82 21/30/83 22/29/84
f 16/18/85 17/19/86 20/31/87 21/30/88
f 17/19/89 18/20/90 19/32/91 20/31/92
f 18/20/93 14/16/94 24/28/95 19/32/96
f 38/33/97 39/34/98 40/35/99 41/36/100
f 39/34/101 42/37/102 43/38/103 40/35/104
f 42/37/105 44/39/106 45/40/107 43/38/108
f 44/39/109 46/41/110 47/42/111 45/40/112
f 46/41/113 48/43/114 49/44/115 47/42/116
f 48/43/117 38/33/118 41/36/119 49/44/120
f 26/45/121 25/46/122 31/47/123
f 27/48/124 26/45/125 31/47/126
f 28/49/127 27/48/128 31/47/129
f 29/50/130 28/49/131 31/47/132
f 30/51/133 29/50/134 31/47/135
f 25/46/136 30/51/137 31/47/138
f 41/36/139 40/35/140 50/52/141
f 40/35/142 43/38/143 50/52/144
f 43/38/145 45/40/146 50/52/147
f 45/40/148 47/42/149 50/52/150
f 47/42/151 49/44/152 50/52/153
f 49/44/154 41/36/155 50/52/156
f 56/53/157 51/54/158 61/55/159 62/56/160
f 51/54/161 52/57/162 60/58/163 61/55/164
f 52/57/165 53/59/166 59/60/167 60/58/168
f 53/59/169 54/61/170 58/62/171 59/60/172
f 54/61/173 55/63/174 57/64/175 58/62/176
f 55/63/177 56/65/178 62/66/179 57/64/180
f 32/67/181 33/68/182 39/34/183 38/33/184
f 33/68/185 34/69/186 42/37/187 39/34/188
f 34/69/189 35/70/190 44/39/191 42/37/192
f 35/70/193 36/71/194 46/41/195 44/39/196
f 36/71/197 37/72/198 48/43/199 46/41/200
f 37/72/201 32/67/202 38/33/203 48/43/204
f 26/73/205 27/74/206 52/57/207 51/54/208
f 27/74/209 28/75/210 53/59/211 52/57/212
f 28/75/213 29/76/214 54/61/215 53/59/216
f 29/76/217 30/77/218 55/63/219 54/61/220
f 30/77/221 25/78/222 56/65/223 55/63/224
f 25/79/225 26/73/226 51/54/227 56/53/228
f 58/62/229 57/64/230 37/80/231 36/81/232
f 59/60/233 58/62/234 36/81/235 35/82/236
f 60/58/237 59/60/238 35/82/239 34/83/240
f 61/55/241 60/58/242 34/83/243 33/84/244
f 62/56/245 61/55/246 33/84/247 32/85/248
f 57/64/249 62/66/250 32/86/251 37/80/252
