# This file uses meters as units for non-parametric coordinates.

v -21.163940 0.000000 9.584255
v 21.163940 0.000000 9.584255
v -20.096436 3.950589 8.361378
v 20.097656 3.950589 8.361378
v -20.096436 3.950589 -8.361329
v 20.097656 3.950589 -8.361329
v -21.163940 0.000000 -9.584207
v 21.163940 0.000000 -9.584207
v 5.048828 3.950589 -2.773952
v 0.244141 3.950589 -5.547848
v -4.559937 3.950589 -2.773952
v -4.559937 3.950589 2.773838
v 0.244141 3.950589 5.547733
v 5.048828 3.950589 2.773838
v 4.344482 4.703753 -2.367363
v 0.244141 4.703753 -4.734612
v -3.855591 4.703753 -2.367306
v -3.855591 4.703753 2.367401
v 0.244141 4.703753 4.734497
v 4.344482 4.703753 2.367191
v 3.607788 4.703753 -1.942062
v 0.244141 4.703753 -3.884048
v -3.118896 4.703753 -1.941891
v -3.118896 4.703753 1.941948
v 0.244141 4.703753 3.883934
v 3.607788 4.703753 1.941929
v 3.095703 5.878490 -1.646404
v 0.244141 5.878490 -3.292828
v 0.244141 5.878490 -0.000057
v -2.606812 5.878490 -1.646328
v -2.606812 5.878490 1.646442
v 0.244141 5.878490 3.292713
v 3.095703 5.878490 1.646366
v -6.901855 3.950589 -2.773952
v -11.706543 3.950589 -5.547848
v -16.511230 3.950589 -2.773952
v -16.511230 3.950589 2.773838
v -11.706543 3.950589 5.547733
v -6.901855 3.950589 2.773838
v -7.606201 4.703753 -2.367363
v -11.706543 4.703753 -4.734612
v -15.806885 4.703753 -2.367306
v -15.806885 4.703753 2.367401
v -11.706543 4.703753 4.734497
v -7.606201 4.703753 2.367191
v -8.342896 4.703753 -1.942062
v -11.706543 4.703753 -3.884048
v -15.070190 4.703753 -1.941891
v -15.070190 4.703753 1.941948
v -11.706543 4.703753 3.883934
v -8.342896 4.703753 1.941929
v -8.854980 5.878490 -1.646404
v -11.706543 5.878490 -3.292828
v -11.706543 5.878490 -0.000057
v -14.558105 5.878490 -1.646328
v -14.558105 5.878490 1.646442
v -11.706543 5.878490 3.292713
v -8.854980 5.878490 1.646366
v 16.876221 3.950589 -2.773952
v 12.071533 3.950589 -5.547848
v 7.267456 3.950589 -2.773952
v 7.267456 3.950589 2.773838
v 12.071533 3.950589 5.547733
v 16.876221 3.950589 2.773838
v 16.171875 4.703753 -2.367363
v 12.071533 4.703753 -4.734612
v 7.971191 4.703753 -2.367306
v 7.971191 4.703753 2.367401
v 12.071533 4.703753 4.734497
v 16.171875 4.703753 2.367191
v 15.435181 4.703753 -1.942062
v 12.071533 4.703753 -3.884048
v 8.708496 4.703753 -1.941891
v 8.708496 4.703753 1.941948
v 12.071533 4.703753 3.883934
v 15.435181 4.703753 1.941929
v 14.923096 5.878490 -1.646404
v 12.071533 5.878490 -3.292828
v 12.071533 5.878490 -0.000057
v 9.220581 5.878490 -1.646328
v 9.220581 5.878490 1.646442
v 12.071533 5.878490 3.292713
v 14.923096 5.878490 1.646366
vt 0.242883 0.378224
vt 0.242883 0.378224
vt 0.242883 0.378224
vt 0.242883 0.378224
vt 0.242883 0.378224
vt 0.242883 0.378224
vt 0.242883 0.378224
vt 0.242883 0.378224
vt 0.242883 0.378224
vt 0.242883 0.378224
vt 0.242883 0.378224
vt 0.242883 0.378224
vt 0.242883 0.378224
vt 0.242883 0.378224
vt 0.000948 0.998707
vt 0.000948 0.925356
vt 0.074299 0.925356
vt 0.074299 0.998707
vt 0.080261 0.229279
vt 0.080261 0.229279
vt 0.080261 0.229278
vt 0.080261 0.229278
vt 0.080261 0.229279
vt 0.080261 0.229278
vt 0.080261 0.229279
vt 0.080261 0.229278
vt 0.080261 0.229279
vt 0.080261 0.229278
vt 0.080261 0.229279
vt 0.080261 0.229278
vt 0.386773 0.039383
vt 0.386773 0.039383
vt 0.386773 0.039383
vt 0.386773 0.039383
vt 0.386773 0.039383
vt 0.386773 0.039383
vt 0.386773 0.039383
vt 0.080261 0.229278
vt 0.080261 0.229278
vt 0.080261 0.229278
vt 0.080261 0.229278
vt 0.080261 0.229278
vt 0.080261 0.229278
vt 0.386773 0.039383
vt 0.386773 0.039383
vt 0.386773 0.039383
vt 0.386773 0.039383
vt 0.386773 0.039383
vt 0.386773 0.039383
vt 0.080261 0.229279
vt 0.080261 0.229279
vt 0.080261 0.229278
vt 0.080261 0.229278
vt 0.080261 0.229279
vt 0.080261 0.229278
vt 0.080261 0.229279
vt 0.080261 0.229278
vt 0.080261 0.229279
vt 0.080261 0.229278
vt 0.080261 0.229279
vt 0.080261 0.229278
vt 0.324855 0.040912
vt 0.324855 0.040912
vt 0.324855 0.040912
vt 0.324855 0.040912
vt 0.324855 0.040912
vt 0.324855 0.040912
vt 0.324855 0.040912
vt 0.080261 0.229278
vt 0.080261 0.229278
vt 0.080261 0.229278
vt 0.080261 0.229278
vt 0.080261 0.229278
vt 0.080261 0.229278
vt 0.324855 0.040912
vt 0.324855 0.040912
vt 0.324855 0.040912
vt 0.324855 0.040912
vt 0.324855 0.040912
vt 0.324855 0.040912
vt 0.080261 0.229279
vt 0.080261 0.229279
vt 0.080261 0.229278
vt 0.080261 0.229278
vt 0.080261 0.229279
vt 0.080261 0.229278
vt 0.080261 0.229279
vt 0.080261 0.229278
vt 0.080261 0.229279
vt 0.080261 0.229278
vt 0.080261 0.229279
vt 0.080261 0.229278
vt 0.421936 0.040147
vt 0.421936 0.040147
vt 0.421936 0.040147
vt 0.421936 0.040147
vt 0.421936 0.040147
vt 0.421936 0.040147
vt 0.421936 0.040147
vt 0.080261 0.229278
vt 0.080261 0.229278
vt 0.080261 0.229278
vt 0.080261 0.229278
vt 0.080261 0.229278
vt 0.080261 0.229278
vt 0.421936 0.040147
vt 0.421936 0.040147
vt 0.421936 0.040147
vt 0.421936 0.040147
vt 0.421936 0.040147
vt 0.421936 0.040147
vn 0.000000 0.295701 0.955281
vn 0.000000 0.295701 0.955281
vn 0.000000 0.295700 0.955281
vn 0.000000 0.295701 0.955281
vn 0.000000 1.000000 0.000000
vn 0.000000 1.000000 0.000000
vn 0.000000 1.000000 0.000000
vn 0.000000 1.000000 0.000000
vn 0.000000 0.295701 -0.955281
vn 0.000000 0.295700 -0.955281
vn 0.000000 0.295701 -0.955281
vn 0.000000 0.295701 -0.955281
vn 0.000000 -1.000000 0.000000
vn 0.000000 -1.000000 0.000000
vn 0.000000 -1.000000 0.000000
vn 0.000000 -1.000000 0.000000
vn 0.965452 0.260581 0.000000
vn 0.965452 0.260581 0.000000
vn 0.965452 0.260581 0.000000
vn 0.965452 0.260581 0.000000
vn -0.965377 0.260859 0.000000
vn -0.965377 0.260859 0.000000
vn -0.965377 0.260859 0.000000
vn -0.965377 0.260859 0.000000
vn 0.365195 0.683009 -0.632559
vn 0.365195 0.683009 -0.632559
vn 0.365195 0.683009 -0.632559
vn 0.365195 0.683009 -0.632559
vn -0.365230 0.683022 -0.632525
vn -0.365230 0.683022 -0.632525
vn -0.365230 0.683022 -0.632525
vn -0.365230 0.683022 -0.632525
vn -0.730381 0.683040 0.000000
vn -0.730381 0.683040 0.000000
vn -0.730381 0.683040 0.000000
vn -0.730381 0.683040 0.000000
vn -0.365241 0.682975 0.632570
vn -0.365241 0.682975 0.632570
vn -0.365241 0.682975 0.632570
vn -0.365241 0.682975 0.632570
vn 0.365193 0.683022 0.632547
vn 0.365193 0.683022 0.632547
vn 0.365193 0.683022 0.632547
vn 0.365193 0.683022 0.632547
vn 0.730381 0.683040 0.000000
vn 0.730381 0.683040 0.000000
vn 0.730381 0.683040 0.000000
vn 0.730381 0.683040 0.000000
vn 0.000000 1.000000 0.000000
vn 0.000000 1.000000 0.000000
vn 0.000000 1.000000 0.000000
vn 0.000000 1.000000 0.000000
vn 0.000000 1.000000 0.000000
vn 0.000000 1.000000 0.000000
vn 0.000000 1.000000 0.000000
vn 0.000000 1.000000 0.000000
vn 0.000000 1.000000 0.000000
vn 0.000000 1.000000 0.000000
vn 0.000000 1.000000 0.000000
vn 0.000000 1.000000 0.000000
vn 0.000000 1.000000 0.000000
vn 0.000000 1.000000 0.000000
vn 0.000000 1.000000 0.000000
vn 0.000000 1.000000 0.000000
vn 0.000000 1.000000 0.000000
vn 0.000000 1.000000 0.000000
vn 0.000000 1.000000 0.000000
vn 0.000000 1.000000 0.000000
vn 0.000000 1.000000 0.000000
vn 0.000000 1.000000 0.000000
vn 0.000000 1.000000 0.000000
vn 0.000000 1.000000 0.000000
vn 0.000000 1.000000 0.000000
vn 0.000000 1.000000 0.000000
vn 0.000000 1.000000 0.000000
vn 0.000000 1.000000 0.000000
vn 0.000000 1.000000 0.000000
vn 0.000000 1.000000 0.000000
vn 0.000000 1.000000 -0.000000
vn 0.000000 1.000000 -0.000000
vn 0.000000 1.000000 -0.000000
vn 0.000000 1.000000 -0.000000
vn 0.000000 1.000000 0.000000
vn 0.000000 1.000000 0.000000
vn 0.000000 1.000000 0.000000
vn 0.000000 1.000000 0.000000
vn 0.000000 1.000000 0.000000
vn 0.000000 1.000000 0.000000
vn 0.000000 1.000000 0.000000
vn 0.000000 1.000000 0.000000
vn 0.458355 0.399576 -0.793882
vn 0.458355 0.399576 -0.793882
vn 0.458355 0.399576 -0.793882
vn 0.458355 0.399576 -0.793882
vn -0.458452 0.399549 -0.793840
vn -0.458452 0.399549 -0.793840
vn -0.458452 0.399549 -0.793840
vn -0.458452 0.399549 -0.793840
vn -0.916690 0.399599 0.000000
vn -0.916690 0.399599 0.000000
vn -0.916690 0.399599 0.000000
vn -0.916690 0.399599 0.000000
vn -0.458418 0.399533 0.793868
vn -0.458418 0.399533 0.793868
vn -0.458418 0.399533 0.793868
vn -0.458418 0.399533 0.793868
vn 0.458356 0.399549 0.793896
vn 0.458356 0.399549 0.793896
vn 0.458356 0.399549 0.793896
vn 0.458356 0.399549 0.793896
vn 0.916690 0.399599 0.000000
vn 0.916690 0.399599 0.000000
vn 0.916690 0.399598 0.000000
vn 0.916690 0.399598 0.000000
vn 0.365195 0.683009 -0.632559
vn 0.365195 0.683009 -0.632559
vn 0.365195 0.683009 -0.632559
vn 0.365195 0.683009 -0.632559
vn -0.365193 0.683022 -0.632547
vn -0.365193 0.683022 -0.632547
vn -0.365193 0.683022 -0.632547
vn -0.365193 0.683022 -0.632547
vn -0.730381 0.683040 0.000000
vn -0.730381 0.683040 0.000000
vn -0.730381 0.683040 0.000000
vn -0.730381 0.683040 0.000000
vn -0.365203 0.682975 0.632591
vn -0.365203 0.682975 0.632591
vn -0.365203 0.682975 0.632591
vn -0.365203 0.682975 0.632591
vn 0.365193 0.683022 0.632547
vn 0.365193 0.683022 0.632547
vn 0.365193 0.683022 0.632547
vn 0.365193 0.683022 0.632547
vn 0.730381 0.683040 0.000000
vn 0.730381 0.683040 0.000000
vn 0.730381 0.683040 0.000000
vn 0.730381 0.683040 0.000000
vn 0.000000 1.000000 0.000000
vn 0.000000 1.000000 0.000000
vn 0.000000 1.000000 0.000000
vn 0.000000 1.000000 0.000000
vn 0.000000 1.000000 0.000000
vn 0.000000 1.000000 0.000000
vn 0.000000 1.000000 0.000000
vn 0.000000 1.000000 0.000000
vn 0.000000 1.000000 0.000000
vn 0.000000 1.000000 0.000000
vn 0.000000 1.000000 0.000000
vn 0.000000 1.000000 0.000000
vn 0.000000 1.000000 0.000000
vn 0.000000 1.000000 0.000000
vn 0.000000 1.000000 0.000000
vn 0.000000 1.000000 0.000000
vn 0.000000 1.000000 0.000000
vn 0.000000 1.000000 0.000000
vn 0.000000 1.000000 0.000000
vn 0.000000 1.000000 0.000000
vn 0.000000 1.000000 0.000000
vn 0.000000 1.000000 0.000000
vn 0.000000 1.000000 0.000000
vn 0.000000 1.000000 0.000000
vn 0.000000 1.000000 0.000000
vn 0.000000 1.000000 0.000000
vn 0.000000 1.000000 0.000000
vn 0.000000 1.000000 0.000000
vn 0.000000 1.000000 0.000000
vn 0.000000 1.000000 0.000000
vn 0.000000 1.000000 -0.000000
vn 0.000000 1.000000 -0.000000
vn 0.000000 1.000000 -0.000000
vn 0.000000 1.000000 -0.000000
vn 0.000000 1.000000 0.000000
vn 0.000000 1.000000 0.000000
vn 0.000000 1.000000 0.000000
vn 0.000000 1.000000 0.000000
vn 0.000000 1.000000 0.000000
vn 0.000000 1.000000 0.000000
vn 0.000000 1.000000 0.000000
vn 0.000000 1.000000 0.000000
vn 0.458355 0.399576 -0.793882
vn 0.458355 0.399576 -0.793882
vn 0.458355 0.399576 -0.793882
vn 0.458355 0.399576 -0.793882
vn -0.458385 0.399549 -0.793879
vn -0.458385 0.399549 -0.793879
vn -0.458385 0.399549 -0.793879
vn -0.458385 0.399549 -0.793879
vn -0.916690 0.399599 0.000000
vn -0.916690 0.399599 0.000000
vn -0.916690 0.399599 0.000000
vn -0.916690 0.399599 0.000000
vn -0.458350 0.399533 0.793907
vn -0.458350 0.399533 0.793907
vn -0.458350 0.399533 0.793907
vn -0.458350 0.399533 0.793907
vn 0.458356 0.399549 0.793896
vn 0.458356 0.399549 0.793896
vn 0.458356 0.399549 0.793896
vn 0.458356 0.399549 0.793896
vn 0.916690 0.399598 0.000000
vn 0.916690 0.399598 0.000000
vn 0.916690 0.399598 0.000000
vn 0.916690 0.399598 0.000000
vn 0.365196 0.683009 -0.632559
vn 0.365196 0.683009 -0.632559
vn 0.365196 0.683009 -0.632559
vn 0.365196 0.683009 -0.632559
vn -0.365248 0.682943 -0.632600
vn -0.365248 0.682943 -0.632600
vn -0.365248 0.682943 -0.632600
vn -0.365248 0.682943 -0.632600
vn -0.730677 0.682724 0.000000
vn -0.730677 0.682724 0.000000
vn -0.730677 0.682724 0.000000
vn -0.730677 0.682724 0.000000
vn -0.365259 0.682896 0.632644
vn -0.365259 0.682896 0.632644
vn -0.365259 0.682896 0.632644
vn -0.365259 0.682896 0.632644
vn 0.365193 0.683022 0.632547
vn 0.365193 0.683022 0.632547
vn 0.365193 0.683022 0.632547
vn 0.365193 0.683022 0.632547
vn 0.730381 0.683040 0.000000
vn 0.730381 0.683040 0.000000
vn 0.730381 0.683040 0.000000
vn 0.730381 0.683040 0.000000
vn 0.000000 1.000000 0.000000
vn 0.000000 1.000000 0.000000
vn 0.000000 1.000000 0.000000
vn 0.000000 1.000000 0.000000
vn 0.000000 1.000000 0.000000
vn 0.000000 1.000000 0.000000
vn 0.000000 1.000000 0.000000
vn 0.000000 1.000000 0.000000
vn 0.000000 1.000000 0.000000
vn 0.000000 1.000000 0.000000
vn 0.000000 1.000000 0.000000
vn 0.000000 1.000000 0.000000
vn 0.000000 1.000000 0.000000
vn 0.000000 1.000000 0.000000
vn 0.000000 1.000000 0.000000
vn 0.000000 1.000000 0.000000
vn 0.000000 1.000000 0.000000
vn 0.000000 1.000000 0.000000
vn 0.000000 1.000000 0.000000
vn 0.000000 1.000000 0.000000
vn 0.000000 1.000000 0.000000
vn 0.000000 1.000000 0.000000
vn 0.000000 1.000000 0.000000
vn 0.000000 1.000000 0.000000
vn 0.000000 1.000000 0.000000
vn 0.000000 1.000000 0.000000
vn 0.000000 1.000000 0.000000
vn 0.000000 1.000000 0.000000
vn 0.000000 1.000000 0.000000
vn 0.000000 1.000000 0.000000
vn 0.000000 1.000000 0.000000
vn 0.000000 1.000000 0.000000
vn 0.000000 1.000000 0.000000
vn 0.000000 1.000000 0.000000
vn 0.000000 1.000000 0.000000
vn 0.000000 1.000000 0.000000
vn 0.000000 1.000000 0.000000
vn 0.000000 1.000000 0.000000
vn 0.000000 1.000000 0.000000
vn 0.000000 1.000000 0.000000
vn 0.000000 1.000000 0.000000
vn 0.000000 1.000000 0.000000
vn 0.458355 0.399576 -0.793882
vn 0.458355 0.399576 -0.793882
vn 0.458355 0.399576 -0.793882
vn 0.458355 0.399576 -0.793882
vn -0.458452 0.399549 -0.793840
vn -0.458452 0.399549 -0.793840
vn -0.458452 0.399549 -0.793840
vn -0.458452 0.399549 -0.793840
vn -0.916691 0.399598 0.000000
vn -0.916690 0.399598 0.000000
vn -0.916690 0.399598 0.000000
vn -0.916690 0.399598 0.000000
vn -0.458418 0.399533 0.793868
vn -0.458418 0.399533 0.793868
vn -0.458418 0.399533 0.793868
vn -0.458418 0.399533 0.793868
vn 0.458356 0.399549 0.793896
vn 0.458356 0.399549 0.793896
vn 0.458356 0.399549 0.793896
vn 0.458356 0.399549 0.793896
vn 0.916690 0.399599 0.000000
vn 0.916690 0.399599 0.000000
vn 0.916690 0.399599 0.000000
vn 0.916690 0.399599 0.000000
s off
f 1/1/1 2/2/2 4/4/3 3/3/4
f 3/15/5 4/16/6 6/17/7 5/18/8
f 5/5/9 6/6/10 8/8/11 7/7/12
f 7/7/13 8/8/14 2/10/15 1/9/16
f 2/2/17 8/11/18 6/12/19 4/4/20
f 7/13/21 1/1/22 3/3/23 5/14/24
f 9/19/25 10/20/26 16/21/27 15/22/28
f 10/20/29 11/23/30 17/24/31 16/21/32
f 11/23/33 12/25/34 18/26/35 17/24/36
f 12/25/37 13/27/38 19/28/39 18/26/40
f 13/27/41 14/29/42 20/30/43 19/28/44
f 14/29/45 9/19/46 15/22/47 20/30/48
f 27/31/49 28/32/50 29/33/51
f 28/32/52 30/34/53 29/33/54
f 30/34/55 31/35/56 29/33/57
f 31/35/58 32/36/59 29/33/60
f 32/36/61 33/37/62 29/33/63
f 33/37/64 27/31/65 29/33/66
f 15/22/67 16/21/68 22/38/69 21/39/70
f 16/21/71 17/24/72 23/40/73 22/38/74
f 17/24/75 18/26/76 24/41/77 23/40/78
f 18/26/79 19/28/80 25/42/81 24/41/82
f 19/28/83 20/30/84 26/43/85 25/42/86
f 20/30/87 15/22/88 21/39/89 26/43/90
f 21/44/91 22/45/92 28/32/93 27/31/94
f 22/45/95 23/46/96 30/34/97 28/32/98
f 23/46/99 24/47/100 31/35/101 30/34/102
f 24/47/103 25/48/104 32/36/105 31/35/106
f 25/48/107 26/49/108 33/37/109 32/36/110
f 26/49/111 21/44/112 27/31/113 33/37/114
f 34/50/115 35/51/116 41/52/117 40/53/118
f 35/51/119 36/54/120 42/55/121 41/52/122
f 36/54/123 37/56/124 43/57/125 42/55/126
f 37/56/127 38/58/128 44/59/129 43/57/130
f 38/58/131 39/60/132 45/61/133 44/59/134
f 39/60/135 34/50/136 40/53/137 45/61/138
f 52/62/139 53/63/140 54/64/141
f 53/63/142 55/65/143 54/64/144
f 55/65/145 56/66/146 54/64/147
f 56/66/148 57/67/149 54/64/150
f 57/67/151 58/68/152 54/64/153
f 58/68/154 52/62/155 54/64/156
f 40/53/157 41/52/158 47/69/159 46/70/160
f 41/52/161 42/55/162 48/71/163 47/69/164
f 42/55/165 43/57/166 49/72/167 48/71/168
f 43/57/169 44/59/170 50/73/171 49/72/172
f 44/59/173 45/61/174 51/74/175 50/73/176
f 45/61/177 40/53/178 46/70/179 51/74/180
f 46/75/181 47/76/182 53/63/183 52/62/184
f 47/76/185 48/77/186 55/65/187 53/63/188
f 48/77/189 49/78/190 56/66/191 55/65/192
f 49/78/193 50/79/194 57/67/195 56/66/196
f 50/79/197 51/80/198 58/68/199 57/67/200
f 51/80/201 46/75/202 52/62/203 58/68/204
f 59/81/205 60/82/206 66/83/207 65/84/208
f 60/82/209 61/85/210 67/86/211 66/83/212
f 61/85/213 62/87/214 68/88/215 67/86/216
f 62/87/217 63/89/218 69/90/219 68/88/220
f 63/89/221 64/91/222 70/92/223 69/90/224
f 64/91/225 59/81/226 65/84/227 70/92/228
f 77/93/229 78/94/230 79/95/231
f 78/94/232 80/96/233 79/95/234
f 80/96/235 81/97/236 79/95/237
f 81/97/238 82/98/239 79/95/240
f 82/98/241 83/99/242 79/95/243
f 83/99/244 77/93/245 79/95/246
f 65/84/247 66/83/248 72/100/249 71/101/250
f 66/83/251 67/86/252 73/102/253 72/100/254
f 67/86/255 68/88/256 74/103/257 73/102/258
f 68/88/259 69/90/260 75/104/261 74/103/262
f 69/90/263 70/92/264 76/105/265 75/104/266
f 70/92/267 65/84/268 71/101/269 76/105/270
f 71/106/271 72/107/272 78/94/273 77/93/274
f 72/107/275 73/108/276 80/96/277 78/94/278
f 73/108/279 74/109/280 81/97/281 80/96/282
f 74/109/283 75/110/284 82/98/285 81/97/286
f 75/110/287 76/111/288 83/99/289 82/98/290
f 76/111/291 71/106/292 77/93/293 83/99/294
