# This file uses meters as units for non-parametric coordinates.

v 50.000000 -50.000000 -7.209560
v -50.000000 -50.000000 -7.209560
v 50.000000 50.000000 -7.209560
v -50.000000 50.000000 -7.209560
v 50.000000 50.000000 7.209560
v -50.000000 50.000000 7.209560
v 50.000000 -50.000000 7.209560
v -50.000000 -50.000000 7.209560
v 50.000000 -50.000000 -7.209560
v -50.000000 -50.000000 -7.209560
v 50.000000 50.000000 -7.209560
v -50.000000 50.000000 -7.209560
v 50.000000 50.000000 7.209560
v -50.000000 50.000000 7.209560
v 50.000000 -50.000000 7.209560
v -50.000000 -50.000000 7.209560
v 58.376442 56.588371 -7.209560
v -55.637913 58.376431 -3.832148
v -55.637913 58.376431 7.209560
v 58.376442 56.588371 7.209560
v 56.435562 -58.376442 7.209560
v -55.705673 -58.376442 7.209560
v -55.705673 -58.376442 -7.209560
v 56.435562 -58.376442 -7.209560
v -44.480156 58.376431 -7.209560
v -55.026131 55.026131 -7.209560
v -58.376442 41.015953 -7.209560
v 8.449697 -58.376442 -7.209560
v -26.234379 -58.376442 -7.209560
v -7.246241 -53.295971 -7.209560
v -6.701629 -58.376431 -0.663664
v 58.376431 35.232742 -7.209560
v 58.376431 -12.205786 -7.209560
v 53.732471 11.408270 -7.209560
v 58.376431 11.835913 -1.724791
v 58.376442 -55.198639 7.209560
v 58.376431 -55.471916 -7.209560
v 56.322269 58.376431 -7.209560
v 55.716972 58.376442 7.209560
v -58.376431 56.494308 -4.198309
v -58.376431 56.486870 7.209560
v -58.376427 -55.563904 -7.209562
v -58.376431 -54.731785 7.209560
v -3.611475 58.376442 7.209560
v 17.859337 58.376442 7.209560
v 5.939777 58.376442 1.270117
v 6.319155 53.296120 7.209560
v 50.000000 -50.000000 -7.209560
v -50.000000 -50.000000 -7.209560
v 50.000000 50.000000 -7.209560
v -50.000000 50.000000 -7.209560
v 50.000000 50.000000 7.209560
v -50.000000 50.000000 7.209560
v 50.000000 -50.000000 7.209560
v -50.000000 -50.000000 7.209560
vt 0.048904 0.824242
vt 0.500489 0.011554
vt 0.048904 0.824242
vt 0.048904 0.824242
vt 0.048904 0.824242
vt 0.048904 0.824242
vt 0.048904 0.824242
vt 0.048904 0.824242
vt 0.048904 0.824242
vt 0.048904 0.824242
vt 0.048904 0.824242
vt 0.048904 0.824242
vt 0.048904 0.824242
vt 0.048904 0.824242
vt 0.048904 0.824242
vt 0.500489 0.134803
vt 0.048904 0.824242
vt 0.377240 0.011554
vt 0.377240 0.134803
vt 0.048904 0.824242
vt 0.048904 0.824242
vt 0.048904 0.824242
vt 0.048904 0.824242
vt 0.048904 0.824242
vt 0.048904 0.824242
vt 0.048904 0.824242
vt 0.048904 0.824242
vt 0.048904 0.824242
vt 0.048904 0.824242
vt 0.048904 0.824242
vt 0.048904 0.824242
vt 0.048904 0.824242
vt 0.048904 0.824242
vt 0.048904 0.824242
vt 0.048904 0.824242
vt 0.048904 0.824242
vt 0.048904 0.824242
vt 0.048904 0.824242
vt 0.048904 0.824242
vt 0.048904 0.824242
vt 0.048904 0.824242
vt 0.048904 0.824242
vt 0.048904 0.824242
vt 0.048904 0.824242
vt 0.048904 0.824242
vt 0.048904 0.824242
vt 0.048904 0.824242
vt 0.048904 0.824242
vt 0.048904 0.824242
vt 0.048904 0.824242
vt 0.048904 0.824242
vt 0.048904 0.824242
vt 0.048904 0.824242
vt 0.048904 0.824242
vt 0.048904 0.824242
vt 0.048904 0.824242
vt 0.048904 0.824242
vt 0.048904 0.824242
vt 0.048904 0.824242
vt 0.048904 0.824242
vt 0.048904 0.824242
vt 0.048904 0.824242
vt 0.048904 0.824242
vt 0.048904 0.824242
vt 0.048904 0.824242
vt 0.048904 0.824242
vt 0.048904 0.824242
vt 0.048904 0.824242
vt 0.048904 0.824242
vt 0.048904 0.824242
vt 0.048904 0.824242
vt 0.048904 0.824242
vt 0.048904 0.824242
vt 0.048904 0.824242
vt 0.048904 0.824242
vt 0.048904 0.824242
vt 0.048904 0.824242
vt 0.048904 0.824242
vt 0.048904 0.824242
vt 0.048904 0.824242
vt 0.048904 0.824242
vt 0.048904 0.824242
vt 0.048904 0.824242
vt 0.048904 0.824242
vt 0.048904 0.824242
vt 0.048904 0.824242
vt 0.048904 0.824242
vt 0.048904 0.824242
vt 0.048904 0.824242
vt 0.048904 0.824242
vt 0.048904 0.824242
vt 0.500489 0.134803
vt 0.377240 0.134803
vt 0.500489 0.011554
vt 0.377240 0.011554
vn 0.000000 0.000000 -1.000000
vn 0.000000 0.000000 -1.000000
vn 0.000000 0.000000 -1.000000
vn 0.000000 0.000000 -1.000000
vn 0.000000 0.000000 -1.000000
vn 0.000000 0.000000 -1.000000
vn 0.000000 1.000000 0.000000
vn 0.000000 1.000000 0.000000
vn 0.000000 1.000000 0.000000
vn 0.000000 1.000000 0.000000
vn 0.000000 1.000000 0.000000
vn 0.000000 1.000000 0.000000
vn 0.000000 0.000000 1.000000
vn 0.000000 0.000000 1.000000
vn 0.000000 0.000000 1.000000
vn 0.000000 0.000000 1.000000
vn 0.000000 0.000000 1.000000
vn 0.000000 0.000000 1.000000
vn 0.000000 -1.000000 0.000000
vn 0.000000 -1.000000 0.000000
vn 0.000000 -1.000000 0.000000
vn 0.000000 -1.000000 0.000000
vn 0.000000 -1.000000 0.000000
vn 0.000000 -1.000000 0.000000
vn -1.000000 0.000000 0.000000
vn -1.000000 0.000000 0.000000
vn -1.000000 0.000000 0.000000
vn -1.000000 0.000000 0.000000
vn -1.000000 0.000000 0.000000
vn -1.000000 0.000000 0.000000
vn 1.000000 0.000000 0.000000
vn 1.000000 0.000000 0.000000
vn 1.000000 0.000000 0.000000
vn 1.000000 0.000000 0.000000
vn 1.000000 0.000000 0.000000
vn 1.000000 0.000000 0.000000
vn 0.000000 1.000000 0.000000
vn 0.000000 1.000000 0.000000
vn 0.000000 1.000000 0.000000
vn 0.000000 1.000000 0.000000
vn 0.000000 1.000000 0.000000
vn 0.000000 1.000000 0.000000
vn 0.000000 -1.000000 0.000000
vn 0.000000 -1.000000 0.000000
vn 0.000000 -1.000000 0.000000
vn 0.000000 -1.000000 0.000000
vn 0.000000 -1.000000 0.000000
vn 0.000000 -1.000000 0.000000
vn -1.000000 0.000000 0.000000
vn -1.000000 0.000000 0.000000
vn -1.000000 0.000000 0.000000
vn -1.000000 0.000000 0.000000
vn -1.000000 0.000000 0.000000
vn -1.000000 0.000000 0.000000
vn 1.000000 0.000000 0.000000
vn 1.000000 0.000000 0.000000
vn 1.000000 0.000000 0.000000
vn 1.000000 0.000000 0.000000
vn 1.000000 0.000000 0.000000
vn 1.000000 0.000000 0.000000
vn 0.656561 0.754273 0.000000
vn 0.641676 0.766967 0.003695
vn 0.568365 0.822508 0.021026
vn 0.568365 0.822508 0.021026
vn 0.641676 0.766967 0.003695
vn 0.557804 0.829643 0.023415
vn 0.000000 -1.000000 0.000000
vn 0.000000 -1.000000 0.000000
vn 0.000000 -1.000000 0.000000
vn 1.000000 0.000000 -0.000001
vn 1.000000 0.000000 -0.000001
vn 1.000000 0.000000 -0.000001
vn -0.214066 0.673831 -0.707197
vn -0.229878 0.669800 -0.706063
vn -0.242231 0.666514 -0.705041
vn 0.000000 0.000000 1.000000
vn -0.000000 0.000000 1.000000
vn -0.000000 0.000000 1.000000
vn 0.000000 0.000000 1.000000
vn 0.000000 0.000000 1.000000
vn 0.000000 0.000000 1.000000
vn 0.000000 0.000000 1.000000
vn 0.000000 0.000000 1.000000
vn 0.000000 0.000000 1.000000
vn 0.000000 0.000000 -1.000000
vn 0.000000 0.000000 -1.000000
vn 0.000000 0.000000 -1.000000
vn 0.000000 0.000000 1.000000
vn 0.000000 0.000000 1.000000
vn 0.000000 0.000000 1.000000
vn -0.624015 0.149223 -0.767032
vn -0.624015 0.149223 -0.767032
vn -0.624015 0.149223 -0.767032
vn 0.000000 0.000000 -1.000000
vn 0.000000 0.000000 -1.000000
vn 0.000000 0.000000 -1.000000
vn 0.000000 0.000000 1.000000
vn 0.000000 0.000000 1.000000
vn 0.000000 0.000000 1.000000
vn -0.000000 0.000000 -1.000000
vn 0.000000 0.000000 -1.000000
vn 0.000000 0.000000 -1.000000
vn 0.000000 -0.000000 -1.000000
vn 0.000000 -0.000000 -1.000000
vn 0.000000 -0.000000 -1.000000
vn -0.566453 0.824094 0.000538
vn -0.567642 0.823276 0.000103
vn -0.566703 0.823922 0.000447
vn -0.566703 0.823922 0.000447
vn -0.567642 0.823276 0.000103
vn -0.567922 0.823082 0.000000
vn 0.000000 -1.000000 0.000000
vn 0.000000 -1.000000 0.000000
vn 0.000000 -1.000000 0.000000
vn 0.000000 0.000000 -1.000000
vn 0.000000 0.000000 -1.000000
vn 0.000000 0.000000 -1.000000
vn 0.000000 -0.000000 -1.000000
vn 0.000000 0.000000 -1.000000
vn 0.000000 -0.000000 -1.000000
vn -0.250767 -0.774735 -0.580432
vn -0.250767 -0.774735 -0.580432
vn -0.250767 -0.774735 -0.580432
vn 0.000000 0.000000 -1.000000
vn 0.000000 0.000000 -1.000000
vn 0.000000 0.000000 -1.000000
vn 0.000000 -1.000000 0.000001
vn 0.000000 -1.000000 0.000001
vn 0.000000 -1.000000 0.000001
vn 0.204668 -0.764940 -0.610719
vn 0.204668 -0.764940 -0.610719
vn 0.204668 -0.764940 -0.610719
vn -0.000000 -1.000000 0.000001
vn -0.000000 -1.000000 0.000001
vn -0.000000 -1.000000 0.000001
vn 0.000000 -1.000000 -0.000002
vn 0.000000 -1.000000 -0.000002
vn 0.000000 -1.000000 -0.000002
vn 0.000000 0.000000 -1.000000
vn 0.000000 0.000000 -1.000000
vn 0.000000 0.000000 -1.000000
vn -0.000000 0.000000 -1.000000
vn -0.000000 0.000000 -1.000000
vn -0.000000 0.000000 -1.000000
vn -0.000000 0.000000 -1.000000
vn -0.000000 0.000000 -1.000000
vn -0.000000 0.000000 -1.000000
vn 1.000000 -0.000000 -0.000001
vn 1.000000 -0.000000 -0.000001
vn 1.000000 -0.000000 -0.000001
vn 1.000000 -0.000000 -0.000001
vn 1.000000 0.000000 -0.000001
vn 1.000000 -0.000000 -0.000001
vn 1.000000 0.000000 -0.000001
vn 1.000000 0.000000 -0.000000
vn 1.000000 -0.000000 -0.000001
vn 1.000000 -0.000000 0.000000
vn 1.000000 -0.000000 0.000000
vn 1.000000 -0.000000 0.000000
vn 0.000000 0.000000 -1.000000
vn 0.000000 0.000000 -1.000000
vn 0.000000 0.000000 -1.000000
vn 0.000000 0.000000 -1.000000
vn 0.000000 0.000000 -1.000000
vn 0.000000 0.000000 -1.000000
vn 0.760420 -0.148224 -0.632291
vn 0.760420 -0.148224 -0.632291
vn 0.760420 -0.148224 -0.632291
vn 0.749158 0.147330 -0.645799
vn 0.749158 0.147330 -0.645799
vn 0.749158 0.147330 -0.645799
vn 0.831452 -0.555597 0.000000
vn 0.835252 -0.549865 0.001666
vn 0.850325 -0.526191 0.008463
vn 0.850325 -0.526191 0.008463
vn 0.835252 -0.549865 0.001666
vn 0.853373 -0.521206 0.009878
vn 0.000000 0.000000 -1.000000
vn 0.000000 0.000000 -1.000000
vn 0.000000 0.000000 -1.000000
vn 0.000000 0.000000 1.000000
vn 0.000000 0.000000 1.000000
vn -0.000000 0.000000 1.000000
vn -0.000000 0.000000 1.000000
vn 0.000000 0.000000 1.000000
vn -0.000000 0.000000 1.000000
vn -0.000000 1.000000 0.000000
vn -0.000000 1.000000 0.000000
vn -0.000000 1.000000 0.000000
vn 0.000000 0.000000 -1.000000
vn 0.000000 0.000000 -1.000000
vn 0.000000 0.000000 -1.000000
vn 0.000000 0.000000 1.000000
vn 0.000000 0.000000 1.000000
vn 0.000000 0.000000 1.000000
vn -1.000000 -0.000000 -0.000000
vn -1.000000 -0.000000 -0.000000
vn -1.000000 0.000000 0.000002
vn -1.000000 0.000000 0.000000
vn -1.000000 0.000000 0.000000
vn -1.000000 -0.000000 -0.000000
vn -1.000000 -0.000000 -0.000000
vn -1.000000 0.000000 0.000000
vn -1.000000 0.000000 0.000002
vn -0.000000 0.000000 1.000000
vn 0.000000 0.000000 1.000000
vn -0.000000 0.000000 1.000000
vn -0.000000 0.000000 1.000000
vn 0.000000 0.000000 1.000000
vn 0.000000 0.000000 1.000000
vn -0.229878 0.669800 -0.706063
vn -0.343768 0.634809 -0.691984
vn -0.242231 0.666514 -0.705041
vn -0.725148 -0.688592 0.000000
vn -0.795118 -0.605756 0.029118
vn -0.743638 -0.668543 0.007336
vn -0.743638 -0.668543 0.007336
vn -0.795118 -0.605756 0.029118
vn -0.806146 -0.590734 0.034091
vn 0.000000 0.000000 -1.000000
vn 0.000000 0.000000 -1.000000
vn 0.000000 0.000000 -1.000000
vn 0.000000 0.000000 1.000000
vn 0.000000 0.000000 1.000000
vn 0.000000 0.000000 1.000000
vn 0.367435 0.718234 0.590874
vn 0.367435 0.718234 0.590874
vn 0.367435 0.718234 0.590874
vn 0.000000 1.000000 -0.000002
vn 0.000000 1.000000 -0.000002
vn 0.000000 1.000000 -0.000002
vn -0.000000 1.000000 0.000000
vn -0.000000 1.000000 0.000000
vn -0.000000 1.000000 0.000000
vn 0.000000 1.000000 -0.000001
vn 0.000000 1.000000 -0.000001
vn 0.000000 1.000000 -0.000001
vn 0.000000 1.000000 -0.000001
vn -0.000000 1.000000 -0.000000
vn -0.000000 1.000000 -0.000001
vn -0.000000 1.000000 -0.000001
vn -0.000000 1.000000 -0.000000
vn -0.000000 1.000000 0.000000
vn 0.000000 0.000000 1.000000
vn 0.000000 0.000000 1.000000
vn 0.000000 0.000000 1.000000
vn 0.000000 0.000000 1.000000
vn 0.000000 0.000000 1.000000
vn 0.000000 0.000000 1.000000
vn 0.000000 0.000000 1.000000
vn 0.000000 0.000000 1.000000
vn 0.000000 0.000000 1.000000
vn -0.313306 0.711690 0.628758
vn -0.313306 0.711690 0.628758
vn -0.313307 0.711690 0.628758
vn 0.000000 0.000000 -1.000000
vn 0.000000 0.000000 -1.000000
vn 0.000000 0.000000 -1.000000
vn 0.000000 0.000000 -1.000000
vn 0.000000 0.000000 -1.000000
vn 0.000000 0.000000 -1.000000
vn -0.000000 0.000000 -1.000000
vn 0.000000 0.000000 -1.000000
vn -0.000000 0.000000 -1.000000
vn -0.000000 0.000000 -1.000000
vn 0.000000 0.000000 -1.000000
vn 0.000000 0.000000 -1.000000
vn 0.000000 0.000000 1.000000
vn 0.000000 0.000000 1.000000
vn 0.000000 0.000000 1.000000
vn 0.000000 1.000000 0.000000
vn 0.000000 1.000000 0.000000
vn 0.000000 1.000000 0.000000
vn 0.000000 1.000000 0.000000
vn 0.000000 1.000000 0.000000
vn 0.000000 1.000000 0.000000
vn 0.000000 -1.000000 0.000000
vn 0.000000 -1.000000 0.000000
vn 0.000000 -1.000000 0.000000
vn 0.000000 -1.000000 0.000000
vn 0.000000 -1.000000 0.000000
vn 0.000000 -1.000000 0.000000
vn -1.000000 0.000000 0.000000
vn -1.000000 0.000000 0.000000
vn -1.000000 0.000000 0.000000
vn -1.000000 0.000000 0.000000
vn -1.000000 0.000000 0.000000
vn -1.000000 0.000000 0.000000
vn 1.000000 0.000000 0.000000
vn 1.000000 0.000000 0.000000
vn 1.000000 0.000000 0.000000
vn 1.000000 0.000000 0.000000
vn 1.000000 0.000000 0.000000
vn 1.000000 0.000000 0.000000
s off
f 1/18/1 2/2/2 3/19/3
f 3/19/4 2/2/5 4/16/6
f 3/3/7 4/17/8 5/5/9
f 5/5/10 4/17/11 6/6/12
f 5/92/13 6/93/14 7/94/15
f 7/94/16 6/93/17 8/95/18
f 7/7/19 8/8/20 1/9/21
f 1/9/22 8/8/23 2/10/24
f 2/15/25 8/11/26 4/4/27
f 4/4/28 8/11/29 6/12/30
f 7/13/31 1/1/32 5/14/33
f 5/14/34 1/1/35 3/20/36
f 11/21/37 12/22/38 13/24/39
f 13/24/40 12/22/41 14/23/42
f 15/25/43 16/26/44 9/28/45
f 9/28/46 16/26/47 10/27/48
f 10/29/49 16/30/50 12/32/51
f 12/32/52 16/30/53 14/31/54
f 15/33/55 9/34/56 13/36/57
f 13/36/58 9/34/59 11/35/60
f 17/37/61 38/38/62 20/40/63
f 20/40/64 38/38/65 39/39/66
f 21/41/67 28/42/68 24/43/69
f 36/44/70 37/45/71 33/46/72
f 25/47/73 26/48/74 18/49/75
f 39/39/76 13/50/77 20/40/78
f 16/52/79 22/53/80 15/51/81
f 15/51/82 22/53/83 21/41/84
f 28/42/85 9/54/86 24/43/87
f 41/55/88 14/56/89 19/57/90
f 26/48/91 27/58/92 40/59/93
f 32/60/94 11/61/95 17/37/96
f 36/44/97 15/51/98 21/41/99
f 25/47/100 12/62/101 26/48/102
f 42/63/103 10/64/104 23/65/105
f 40/59/106 41/55/107 18/49/108
f 18/49/109 41/55/110 19/57/111
f 29/66/112 22/53/113 23/65/114
f 30/67/115 9/54/116 28/42/117
f 10/64/118 29/66/119 23/65/120
f 28/42/121 31/68/122 30/67/123
f 10/64/124 30/67/125 29/66/126
f 31/68/127 22/53/128 29/66/129
f 30/67/130 31/68/131 29/66/132
f 21/41/133 31/68/134 28/42/135
f 21/41/136 22/53/137 31/68/138
f 10/64/139 9/54/140 30/67/141
f 34/69/142 11/61/143 32/60/144
f 9/54/145 33/46/146 37/45/147
f 32/60/148 20/40/149 35/70/150
f 20/40/151 36/44/152 35/70/153
f 36/44/154 33/46/155 35/70/156
f 20/40/157 32/60/158 17/37/159
f 9/54/160 11/61/161 34/69/162
f 9/54/163 34/69/164 33/46/165
f 32/60/166 35/70/167 34/69/168
f 34/69/169 35/70/170 33/46/171
f 24/43/172 37/45/173 21/41/174
f 21/41/175 37/45/176 36/44/177
f 9/54/178 37/45/179 24/43/180
f 15/51/181 36/44/182 13/50/183
f 13/50/184 36/44/185 20/40/186
f 44/71/187 18/49/188 19/57/189
f 11/61/190 38/38/191 17/37/192
f 45/72/193 13/50/194 39/39/195
f 42/63/196 43/73/197 27/58/198
f 41/55/199 40/59/200 43/73/201
f 43/73/202 40/59/203 27/58/204
f 16/52/205 14/56/206 43/73/207
f 43/73/208 14/56/209 41/55/210
f 26/48/211 40/59/212 18/49/213
f 23/65/214 22/53/215 42/63/216
f 42/63/217 22/53/218 43/73/219
f 12/62/220 27/58/221 26/48/222
f 14/56/223 44/71/224 19/57/225
f 44/71/226 47/74/227 46/75/228
f 39/39/229 38/38/230 45/72/231
f 46/75/232 18/49/233 44/71/234
f 45/72/235 38/38/236 46/75/237
f 38/38/238 25/47/239 46/75/240
f 46/75/241 25/47/242 18/49/243
f 47/74/244 13/50/245 45/72/246
f 14/56/247 47/74/248 44/71/249
f 14/56/250 13/50/251 47/74/252
f 46/75/253 47/74/254 45/72/255
f 12/62/256 25/47/257 11/61/258
f 11/61/259 25/47/260 38/38/261
f 12/62/262 10/64/263 27/58/264
f 27/58/265 10/64/266 42/63/267
f 16/52/268 43/73/269 22/53/270
f 50/76/271 51/77/272 52/79/273
f 52/79/274 51/77/275 53/78/276
f 54/80/277 55/81/278 48/83/279
f 48/83/280 55/81/281 49/82/282
f 49/84/283 55/85/284 51/87/285
f 51/87/286 55/85/287 53/86/288
f 54/88/289 48/89/290 52/91/291
f 52/91/292 48/89/293 50/90/294
