# This file uses meters as units for non-parametric coordinates.

v 50.000000 -50.000000 -7.209560
v -50.000000 -50.000000 -7.209560
v 50.000000 50.000000 -7.209560
v -50.000000 50.000000 -7.209560
v 50.000000 50.000000 7.209560
v -50.000000 50.000000 7.209560
v 50.000000 -50.000000 7.209560
v -50.000000 -50.000000 7.209560
v 50.000000 -50.000000 -7.209560
v -50.000000 -50.000000 -7.209560
v 50.000000 50.000000 -7.209560
v -50.000000 50.000000 -7.209560
v 50.000000 50.000000 7.209560
v -50.000000 50.000000 7.209560
v 50.000000 -50.000000 7.209560
v -50.000000 -50.000000 7.209560
v 58.376442 56.588371 -7.209560
v -55.637913 58.376431 -3.832148
v -55.637913 58.376431 7.209560
v 58.376442 56.588371 7.209560
v 56.435562 -58.376442 7.209560
v -55.705673 -58.376442 7.209560
v -55.705673 -58.376442 -7.209560
v 56.435562 -58.376442 -7.209560
v -44.480156 58.376431 -7.209560
v -55.026131 55.026131 -7.209560
v -58.376442 41.015953 -7.209560
v 8.449697 -58.376442 -7.209560
v -26.234379 -58.376442 -7.209560
v -7.246241 -53.295971 -7.209560
v -6.701629 -58.376431 -0.663664
v 58.376431 35.232742 -7.209560
v 58.376431 -12.205786 -7.209560
v 53.732471 11.408270 -7.209560
v 58.376431 11.835913 -1.724791
v 58.376442 -55.198639 7.209560
v 58.376431 -55.471916 -7.209560
v 56.322269 58.376431 -7.209560
v 55.716972 58.376442 7.209560
v -58.376431 56.494308 -4.198309
v -58.376431 56.486870 7.209560
v -58.376427 -55.563904 -7.209562
v -58.376431 -54.731785 7.209560
v -3.611475 58.376442 7.209560
v 17.859337 58.376442 7.209560
v 5.939777 58.376442 1.270117
v 6.319155 53.296120 7.209560
v 50.000000 -50.000000 -7.209560
v -50.000000 -50.000000 -7.209560
v 50.000000 50.000000 -7.209560
v -50.000000 50.000000 -7.209560
v 50.000000 50.000000 7.209560
v -50.000000 50.000000 7.209560
v 50.000000 -50.000000 7.209560
v -50.000000 -50.000000 7.209560
vt 0.048904 0.824242
vt 0.377166 0.137036
vt 0.048904 0.824242
vt 0.048904 0.824242
vt 0.048904 0.824242
vt 0.048904 0.824242
vt 0.048904 0.824242
vt 0.048904 0.824242
vt 0.048904 0.824242
vt 0.048904 0.824242
vt 0.048904 0.824242
vt 0.048904 0.824242
vt 0.048904 0.824242
vt 0.048904 0.824242
vt 0.048904 0.824242
vt 0.377166 0.259815
vt 0.048904 0.824242
vt 0.254388 0.137036
vt 0.254388 0.259815
vt 0.048904 0.824242
vt 0.048904 0.824242
vt 0.048904 0.824242
vt 0.048904 0.824242
vt 0.048904 0.824242
vt 0.048904 0.824242
vt 0.048904 0.824242
vt 0.048904 0.824242
vt 0.048904 0.824242
vt 0.048904 0.824242
vt 0.048904 0.824242
vt 0.048904 0.824242
vt 0.048904 0.824242
vt 0.048904 0.824242
vt 0.048904 0.824242
vt 0.048904 0.824242
vt 0.048904 0.824242
vt 0.048904 0.824242
vt 0.048904 0.824242
vt 0.048904 0.824242
vt 0.048904 0.824242
vt 0.048904 0.824242
vt 0.048904 0.824242
vt 0.048904 0.824242
vt 0.048904 0.824242
vt 0.048904 0.824242
vt 0.048904 0.824242
vt 0.048904 0.824242
vt 0.048904 0.824242
vt 0.048904 0.824242
vt 0.048904 0.824242
vt 0.048904 0.824242
vt 0.048904 0.824242
vt 0.048904 0.824242
vt 0.048904 0.824242
vt 0.048904 0.824242
vt 0.048904 0.824242
vt 0.048904 0.824242
vt 0.048904 0.824242
vt 0.048904 0.824242
vt 0.048904 0.824242
vt 0.048904 0.824242
vt 0.048904 0.824242
vt 0.048904 0.824242
vt 0.048904 0.824242
vt 0.048904 0.824242
vt 0.048904 0.824242
vt 0.048904 0.824242
vt 0.048904 0.824242
vt 0.048904 0.824242
vt 0.048904 0.824242
vt 0.048904 0.824242
vt 0.048904 0.824242
vt 0.048904 0.824242
vt 0.048904 0.824242
vt 0.048904 0.824242
vt 0.048904 0.824242
vt 0.048904 0.824242
vt 0.048904 0.824242
vt 0.048904 0.824242
vt 0.048904 0.824242
vt 0.048904 0.824242
vt 0.048904 0.824242
vt 0.048904 0.824242
vt 0.048904 0.824242
vt 0.048904 0.824242
vt 0.048904 0.824242
vt 0.048904 0.824242
vt 0.048904 0.824242
vt 0.048904 0.824242
vt 0.048904 0.824242
vt 0.048904 0.824242
vt 0.377166 0.259815
vt 0.254387 0.259815
vt 0.254388 0.137036
vt 0.377166 0.137036
vn 0.000000 0.000000 -1.000000
vn 0.000000 0.000000 -1.000000
vn 0.000000 0.000000 -1.000000
vn 0.000000 1.000000 0.000000
vn 0.000000 1.000000 0.000000
vn 0.000000 1.000000 0.000000
vn 0.000000 1.000000 0.000000
vn 0.000000 1.000000 0.000000
vn 0.000000 1.000000 0.000000
vn 0.000000 0.000000 1.000000
vn 0.000000 0.000000 1.000000
vn 0.000000 0.000000 1.000000
vn 0.000000 -1.000000 0.000000
vn 0.000000 -1.000000 0.000000
vn 0.000000 -1.000000 0.000000
vn 0.000000 -1.000000 0.000000
vn 0.000000 -1.000000 0.000000
vn 0.000000 -1.000000 0.000000
vn -1.000000 0.000000 0.000000
vn -1.000000 0.000000 0.000000
vn -1.000000 0.000000 0.000000
vn -1.000000 0.000000 0.000000
vn -1.000000 0.000000 0.000000
vn -1.000000 0.000000 0.000000
vn 1.000000 0.000000 0.000000
vn 1.000000 0.000000 0.000000
vn 1.000000 0.000000 0.000000
vn 1.000000 0.000000 0.000000
vn 1.000000 0.000000 0.000000
vn 1.000000 0.000000 0.000000
vn 0.000000 1.000000 0.000000
vn 0.000000 1.000000 0.000000
vn 0.000000 1.000000 0.000000
vn 0.000000 1.000000 0.000000
vn 0.000000 1.000000 0.000000
vn 0.000000 1.000000 0.000000
vn 0.000000 -1.000000 0.000000
vn 0.000000 -1.000000 0.000000
vn 0.000000 -1.000000 0.000000
vn 0.000000 -1.000000 0.000000
vn 0.000000 -1.000000 0.000000
vn 0.000000 -1.000000 0.000000
vn -1.000000 0.000000 0.000000
vn -1.000000 0.000000 0.000000
vn -1.000000 0.000000 0.000000
vn -1.000000 0.000000 0.000000
vn -1.000000 0.000000 0.000000
vn -1.000000 0.000000 0.000000
vn 1.000000 0.000000 0.000000
vn 1.000000 0.000000 0.000000
vn 1.000000 0.000000 0.000000
vn 1.000000 0.000000 0.000000
vn 1.000000 0.000000 0.000000
vn 1.000000 0.000000 0.000000
vn 0.656561 0.754273 0.000000
vn 0.641676 0.766967 0.003695
vn 0.568365 0.822508 0.021026
vn 0.568365 0.822508 0.021026
vn 0.641676 0.766967 0.003695
vn 0.557804 0.829643 0.023415
vn 0.000000 -1.000000 0.000000
vn 0.000000 -1.000000 0.000000
vn 0.000000 -1.000000 0.000000
vn 1.000000 0.000000 -0.000001
vn 1.000000 0.000000 -0.000001
vn 1.000000 0.000000 -0.000001
vn -0.214066 0.673831 -0.707197
vn -0.229878 0.669800 -0.706063
vn -0.242231 0.666514 -0.705041
vn 0.000000 0.000000 1.000000
vn -0.000000 0.000000 1.000000
vn -0.000000 0.000000 1.000000
vn 0.000000 0.000000 1.000000
vn 0.000000 0.000000 1.000000
vn 0.000000 0.000000 1.000000
vn 0.000000 0.000000 1.000000
vn 0.000000 0.000000 1.000000
vn 0.000000 0.000000 1.000000
vn 0.000000 0.000000 -1.000000
vn 0.000000 0.000000 -1.000000
vn 0.000000 0.000000 -1.000000
vn 0.000000 0.000000 1.000000
vn 0.000000 0.000000 1.000000
vn 0.000000 0.000000 1.000000
vn -0.624015 0.149223 -0.767032
vn -0.624015 0.149223 -0.767032
vn -0.624015 0.149223 -0.767032
vn 0.000000 0.000000 -1.000000
vn 0.000000 0.000000 -1.000000
vn 0.000000 0.000000 -1.000000
vn 0.000000 0.000000 1.000000
vn 0.000000 0.000000 1.000000
vn 0.000000 0.000000 1.000000
vn -0.000000 0.000000 -1.000000
vn 0.000000 0.000000 -1.000000
vn 0.000000 0.000000 -1.000000
vn 0.000000 -0.000000 -1.000000
vn 0.000000 -0.000000 -1.000000
vn 0.000000 -0.000000 -1.000000
vn -0.566453 0.824094 0.000538
vn -0.567642 0.823276 0.000103
vn -0.566703 0.823922 0.000447
vn -0.566703 0.823922 0.000447
vn -0.567642 0.823276 0.000103
vn -0.567922 0.823082 0.000000
vn 0.000000 -1.000000 0.000000
vn 0.000000 -1.000000 0.000000
vn 0.000000 -1.000000 0.000000
vn 0.000000 0.000000 -1.000000
vn 0.000000 0.000000 -1.000000
vn 0.000000 0.000000 -1.000000
vn 0.000000 -0.000000 -1.000000
vn 0.000000 0.000000 -1.000000
vn 0.000000 -0.000000 -1.000000
vn -0.250767 -0.774735 -0.580432
vn -0.250767 -0.774735 -0.580432
vn -0.250767 -0.774735 -0.580432
vn 0.000000 0.000000 -1.000000
vn 0.000000 0.000000 -1.000000
vn 0.000000 0.000000 -1.000000
vn 0.000000 -1.000000 0.000001
vn 0.000000 -1.000000 0.000001
vn 0.000000 -1.000000 0.000001
vn 0.204668 -0.764940 -0.610719
vn 0.204668 -0.764940 -0.610719
vn 0.204668 -0.764940 -0.610719
vn -0.000000 -1.000000 0.000001
vn -0.000000 -1.000000 0.000001
vn -0.000000 -1.000000 0.000001
vn 0.000000 -1.000000 -0.000002
vn 0.000000 -1.000000 -0.000002
vn 0.000000 -1.000000 -0.000002
vn 0.000000 0.000000 -1.000000
vn 0.000000 0.000000 -1.000000
vn 0.000000 0.000000 -1.000000
vn -0.000000 0.000000 -1.000000
vn -0.000000 0.000000 -1.000000
vn -0.000000 0.000000 -1.000000
vn -0.000000 0.000000 -1.000000
vn -0.000000 0.000000 -1.000000
vn -0.000000 0.000000 -1.000000
vn 1.000000 -0.000000 -0.000001
vn 1.000000 -0.000000 -0.000001
vn 1.000000 -0.000000 -0.000001
vn 1.000000 -0.000000 -0.000001
vn 1.000000 0.000000 -0.000001
vn 1.000000 -0.000000 -0.000001
vn 1.000000 0.000000 -0.000001
vn 1.000000 0.000000 -0.000000
vn 1.000000 -0.000000 -0.000001
vn 1.000000 -0.000000 0.000000
vn 1.000000 -0.000000 0.000000
vn 1.000000 -0.000000 0.000000
vn 0.000000 0.000000 -1.000000
vn 0.000000 0.000000 -1.000000
vn 0.000000 0.000000 -1.000000
vn 0.000000 0.000000 -1.000000
vn 0.000000 0.000000 -1.000000
vn 0.000000 0.000000 -1.000000
vn 0.760420 -0.148224 -0.632291
vn 0.760420 -0.148224 -0.632291
vn 0.760420 -0.148224 -0.632291
vn 0.749158 0.147330 -0.645799
vn 0.749158 0.147330 -0.645799
vn 0.749158 0.147330 -0.645799
vn 0.831452 -0.555597 0.000000
vn 0.835252 -0.549865 0.001666
vn 0.850325 -0.526191 0.008463
vn 0.850325 -0.526191 0.008463
vn 0.835252 -0.549865 0.001666
vn 0.853373 -0.521206 0.009878
vn 0.000000 0.000000 -1.000000
vn 0.000000 0.000000 -1.000000
vn 0.000000 0.000000 -1.000000
vn 0.000000 0.000000 1.000000
vn 0.000000 0.000000 1.000000
vn -0.000000 0.000000 1.000000
vn -0.000000 0.000000 1.000000
vn 0.000000 0.000000 1.000000
vn -0.000000 0.000000 1.000000
vn -0.000000 1.000000 0.000000
vn -0.000000 1.000000 0.000000
vn -0.000000 1.000000 0.000000
vn 0.000000 0.000000 -1.000000
vn 0.000000 0.000000 -1.000000
vn 0.000000 0.000000 -1.000000
vn 0.000000 0.000000 1.000000
vn 0.000000 0.000000 1.000000
vn 0.000000 0.000000 1.000000
vn -1.000000 -0.000000 -0.000000
vn -1.000000 -0.000000 -0.000000
vn -1.000000 0.000000 0.000002
vn -1.000000 0.000000 0.000000
vn -1.000000 0.000000 0.000000
vn -1.000000 -0.000000 -0.000000
vn -1.000000 -0.000000 -0.000000
vn -1.000000 0.000000 0.000000
vn -1.000000 0.000000 0.000002
vn -0.000000 0.000000 1.000000
vn 0.000000 0.000000 1.000000
vn -0.000000 0.000000 1.000000
vn -0.000000 0.000000 1.000000
vn 0.000000 0.000000 1.000000
vn 0.000000 0.000000 1.000000
vn -0.229878 0.669800 -0.706063
vn -0.343768 0.634809 -0.691984
vn -0.242231 0.666514 -0.705041
vn -0.725148 -0.688592 0.000000
vn -0.795118 -0.605756 0.029118
vn -0.743638 -0.668543 0.007336
vn -0.743638 -0.668543 0.007336
vn -0.795118 -0.605756 0.029118
vn -0.806146 -0.590734 0.034091
vn 0.000000 0.000000 -1.000000
vn 0.000000 0.000000 -1.000000
vn 0.000000 0.000000 -1.000000
vn 0.000000 0.000000 1.000000
vn 0.000000 0.000000 1.000000
vn 0.000000 0.000000 1.000000
vn 0.367435 0.718234 0.590874
vn 0.367435 0.718234 0.590874
vn 0.367435 0.718234 0.590874
vn 0.000000 1.000000 -0.000002
vn 0.000000 1.000000 -0.000002
vn 0.000000 1.000000 -0.000002
vn -0.000000 1.000000 0.000000
vn -0.000000 1.000000 0.000000
vn -0.000000 1.000000 0.000000
vn 0.000000 1.000000 -0.000001
vn 0.000000 1.000000 -0.000001
vn 0.000000 1.000000 -0.000001
vn 0.000000 1.000000 -0.000001
vn -0.000000 1.000000 -0.000000
vn -0.000000 1.000000 -0.000001
vn -0.000000 1.000000 -0.000001
vn -0.000000 1.000000 -0.000000
vn -0.000000 1.000000 0.000000
vn 0.000000 0.000000 1.000000
vn 0.000000 0.000000 1.000000
vn 0.000000 0.000000 1.000000
vn 0.000000 0.000000 1.000000
vn 0.000000 0.000000 1.000000
vn 0.000000 0.000000 1.000000
vn 0.000000 0.000000 1.000000
vn 0.000000 0.000000 1.000000
vn 0.000000 0.000000 1.000000
vn -0.313306 0.711690 0.628758
vn -0.313306 0.711690 0.628758
vn -0.313307 0.711690 0.628758
vn 0.000000 0.000000 -1.000000
vn 0.000000 0.000000 -1.000000
vn 0.000000 0.000000 -1.000000
vn 0.000000 0.000000 -1.000000
vn 0.000000 0.000000 -1.000000
vn 0.000000 0.000000 -1.000000
vn -0.000000 0.000000 -1.000000
vn 0.000000 0.000000 -1.000000
vn -0.000000 0.000000 -1.000000
vn -0.000000 0.000000 -1.000000
vn 0.000000 0.000000 -1.000000
vn 0.000000 0.000000 -1.000000
vn 0.000000 0.000000 1.000000
vn 0.000000 0.000000 1.000000
vn 0.000000 0.000000 1.000000
vn 0.000000 1.000000 0.000000
vn 0.000000 1.000000 0.000000
vn 0.000000 1.000000 0.000000
vn 0.000000 1.000000 0.000000
vn 0.000000 1.000000 0.000000
vn 0.000000 1.000000 0.000000
vn 0.000000 -1.000000 0.000000
vn 0.000000 -1.000000 0.000000
vn 0.000000 -1.000000 0.000000
vn 0.000000 -1.000000 0.000000
vn 0.000000 -1.000000 0.000000
vn 0.000000 -1.000000 0.000000
vn -1.000000 0.000000 0.000000
vn -1.000000 0.000000 0.000000
vn -1.000000 0.000000 0.000000
vn -1.000000 0.000000 0.000000
vn -1.000000 0.000000 0.000000
vn -1.000000 0.000000 0.000000
vn 1.000000 0.000000 0.000000
vn 1.000000 0.000000 0.000000
vn 1.000000 0.000000 0.000000
vn 1.000000 0.000000 0.000000
vn 1.000000 0.000000 0.000000
vn 1.000000 0.000000 0.000000
vn 0.000000 0.000000 1.000000
vn 0.000000 0.000000 1.000000
vn 0.000000 0.000000 1.000000
vn 0.000000 0.000000 -1.000000
vn 0.000000 0.000000 -1.000000
vn 0.000000 0.000000 -1.000000
s off
f 1/18/1 2/2/2 3/19/3
f 3/3/4 4/17/5 5/5/6
f 5/5/7 4/17/8 6/6/9
f 5/92/10 6/93/11 8/94/12
f 7/7/13 8/8/14 1/9/15
f 1/9/16 8/8/17 2/10/18
f 2/15/19 8/11/20 4/4/21
f 4/4/22 8/11/23 6/12/24
f 7/13/25 1/1/26 5/14/27
f 5/14/28 1/1/29 3/20/30
f 11/21/31 12/22/32 13/24/33
f 13/24/34 12/22/35 14/23/36
f 15/25/37 16/26/38 9/28/39
f 9/28/40 16/26/41 10/27/42
f 10/29/43 16/30/44 12/32/45
f 12/32/46 16/30/47 14/31/48
f 15/33/49 9/34/50 13/36/51
f 13/36/52 9/34/53 11/35/54
f 17/37/55 38/38/56 20/40/57
f 20/40/58 38/38/59 39/39/60
f 21/41/61 28/42/62 24/43/63
f 36/44/64 37/45/65 33/46/66
f 25/47/67 26/48/68 18/49/69
f 39/39/70 13/50/71 20/40/72
f 16/52/73 22/53/74 15/51/75
f 15/51/76 22/53/77 21/41/78
f 28/42/79 9/54/80 24/43/81
f 41/55/82 14/56/83 19/57/84
f 26/48/85 27/58/86 40/59/87
f 32/60/88 11/61/89 17/37/90
f 36/44/91 15/51/92 21/41/93
f 25/47/94 12/62/95 26/48/96
f 42/63/97 10/64/98 23/65/99
f 40/59/100 41/55/101 18/49/102
f 18/49/103 41/55/104 19/57/105
f 29/66/106 22/53/107 23/65/108
f 30/67/109 9/54/110 28/42/111
f 10/64/112 29/66/113 23/65/114
f 28/42/115 31/68/116 30/67/117
f 10/64/118 30/67/119 29/66/120
f 31/68/121 22/53/122 29/66/123
f 30/67/124 31/68/125 29/66/126
f 21/41/127 31/68/128 28/42/129
f 21/41/130 22/53/131 31/68/132
f 10/64/133 9/54/134 30/67/135
f 34/69/136 11/61/137 32/60/138
f 9/54/139 33/46/140 37/45/141
f 32/60/142 20/40/143 35/70/144
f 20/40/145 36/44/146 35/70/147
f 36/44/148 33/46/149 35/70/150
f 20/40/151 32/60/152 17/37/153
f 9/54/154 11/61/155 34/69/156
f 9/54/157 34/69/158 33/46/159
f 32/60/160 35/70/161 34/69/162
f 34/69/163 35/70/164 33/46/165
f 24/43/166 37/45/167 21/41/168
f 21/41/169 37/45/170 36/44/171
f 9/54/172 37/45/173 24/43/174
f 15/51/175 36/44/176 13/50/177
f 13/50/178 36/44/179 20/40/180
f 44/71/181 18/49/182 19/57/183
f 11/61/184 38/38/185 17/37/186
f 45/72/187 13/50/188 39/39/189
f 42/63/190 43/73/191 27/58/192
f 41/55/193 40/59/194 43/73/195
f 43/73/196 40/59/197 27/58/198
f 16/52/199 14/56/200 43/73/201
f 43/73/202 14/56/203 41/55/204
f 26/48/205 40/59/206 18/49/207
f 23/65/208 22/53/209 42/63/210
f 42/63/211 22/53/212 43/73/213
f 12/62/214 27/58/215 26/48/216
f 14/56/217 44/71/218 19/57/219
f 44/71/220 47/74/221 46/75/222
f 39/39/223 38/38/224 45/72/225
f 46/75/226 18/49/227 44/71/228
f 45/72/229 38/38/230 46/75/231
f 38/38/232 25/47/233 46/75/234
f 46/75/235 25/47/236 18/49/237
f 47/74/238 13/50/239 45/72/240
f 14/56/241 47/74/242 44/71/243
f 14/56/244 13/50/245 47/74/246
f 46/75/247 47/74/248 45/72/249
f 12/62/250 25/47/251 11/61/252
f 11/61/253 25/47/254 38/38/255
f 12/62/256 10/64/257 27/58/258
f 27/58/259 10/64/260 42/63/261
f 16/52/262 43/73/263 22/53/264
f 50/76/265 51/77/266 52/79/267
f 52/79/268 51/77/269 53/78/270
f 54/80/271 55/81/272 48/83/273
f 48/83/274 55/81/275 49/82/276
f 49/84/277 55/85/278 51/87/279
f 51/87/280 55/85/281 53/86/282
f 54/88/283 48/89/284 52/91/285
f 52/91/286 48/89/287 50/90/288
f 5/92/289 8/94/290 7/95/291
f 3/19/292 2/2/293 4/16/294
