# This file uses meters as units for non-parametric coordinates.

v 50.000000 -50.000000 -7.209560
v -50.000000 -50.000000 -7.209560
v 50.000000 50.000000 -7.209560
v -50.000000 50.000000 -7.209560
v 50.000000 50.000000 7.209560
v -50.000000 50.000000 7.209560
v 50.000000 -50.000000 7.209560
v -50.000000 -50.000000 7.209560
v 58.376442 56.588371 -7.209560
v -55.637913 58.376431 -3.832148
v -55.637913 58.376431 7.209560
v 58.376442 56.588371 7.209560
v 56.435562 -58.376442 7.209560
v -55.705673 -58.376442 7.209560
v -55.705673 -58.376442 -7.209560
v 56.435562 -58.376442 -7.209560
v -44.480156 58.376431 -7.209560
v -55.026131 55.026131 -7.209560
v -58.376442 41.015953 -7.209560
v 8.449697 -58.376442 -7.209560
v -26.234379 -58.376442 -7.209560
v -7.246241 -53.295971 -7.209560
v -6.701629 -58.376431 -0.663664
v 58.376431 35.232742 -7.209560
v 58.376431 -12.205786 -7.209560
v 53.732471 11.408270 -7.209560
v 58.376431 11.835913 -1.724791
v 58.376442 -55.198639 7.209560
v 58.376431 -55.471916 -7.209560
v 56.322269 58.376431 -7.209560
v 55.716972 58.376442 7.209560
v -58.376431 56.494308 -4.198309
v -58.376431 56.486870 7.209560
v -58.376427 -55.563904 -7.209562
v -58.376431 -54.731785 7.209560
v -3.611475 58.376442 7.209560
v 17.859337 58.376442 7.209560
v 5.939777 58.376442 1.270117
v 6.319155 53.296120 7.209560
vt 0.049243 0.823749
vt 0.049243 0.823749
vt 0.049243 0.823749
vt 0.049243 0.823749
vt 0.049243 0.823749
vt 0.049243 0.823749
vt 0.049243 0.823749
vt 0.049243 0.823749
vt 0.049243 0.823749
vt 0.049243 0.823749
vt 0.049243 0.823749
vt 0.049243 0.823749
vt 0.049243 0.823749
vt 0.049243 0.823749
vt 0.049243 0.823749
vt 0.049243 0.823749
vt 0.049243 0.823749
vt 0.049243 0.823749
vt 0.049243 0.823749
vt 0.049243 0.823749
vt 0.049243 0.823749
vt 0.049243 0.823749
vt 0.049243 0.823749
vt 0.049243 0.823749
vt 0.049243 0.823749
vt 0.049243 0.823749
vt 0.049243 0.823749
vt 0.049243 0.823749
vt 0.049243 0.823749
vt 0.049243 0.823749
vt 0.049243 0.823749
vt 0.049243 0.823749
vt 0.049243 0.823749
vt 0.049243 0.823749
vt 0.049243 0.823749
vt 0.049243 0.823749
vt 0.049243 0.823749
vt 0.049243 0.823749
vt 0.049243 0.823749
vt 0.217017 0.893620
vt 0.317316 0.893620
vt 0.317316 0.993919
vt 0.217017 0.993919
vt 0.317316 0.993919
vt 0.217017 0.993919
vt 0.217017 0.893620
vt 0.317316 0.893620
vn 0.656562 0.754272 0.000000
vn 0.641677 0.766967 0.003695
vn 0.568365 0.822508 0.021026
vn 0.568365 0.822508 0.021026
vn 0.641677 0.766967 0.003695
vn 0.557804 0.829643 0.023416
vn 0.000000 -1.000000 0.000000
vn 0.000000 -1.000000 0.000000
vn 0.000000 -1.000000 0.000000
vn 1.000000 0.000000 -0.000001
vn 1.000000 0.000000 -0.000001
vn 1.000000 0.000000 -0.000001
vn -0.214066 0.673830 -0.707198
vn -0.229878 0.669799 -0.706064
vn -0.242231 0.666513 -0.705042
vn 0.000000 0.000000 1.000000
vn -0.000000 0.000000 1.000000
vn -0.000000 0.000000 1.000000
vn 0.000000 0.000000 1.000000
vn 0.000000 0.000000 1.000000
vn 0.000000 0.000000 1.000000
vn 0.000000 0.000000 1.000000
vn 0.000000 0.000000 1.000000
vn 0.000000 0.000000 1.000000
vn 0.000000 0.000000 -1.000000
vn 0.000000 0.000000 -1.000000
vn 0.000000 0.000000 -1.000000
vn 0.000000 0.000000 1.000000
vn -0.000000 0.000000 1.000000
vn -0.000000 0.000000 1.000000
vn -0.624015 0.149223 -0.767032
vn -0.624015 0.149223 -0.767032
vn -0.624015 0.149223 -0.767032
vn 0.000000 0.000000 -1.000000
vn 0.000000 0.000000 -1.000000
vn 0.000000 0.000000 -1.000000
vn 0.000000 0.000000 1.000000
vn 0.000000 0.000000 1.000000
vn 0.000000 0.000000 1.000000
vn 0.000000 0.000000 -1.000000
vn 0.000000 0.000000 -1.000000
vn 0.000000 0.000000 -1.000000
vn 0.000000 -0.000000 -1.000000
vn 0.000000 -0.000000 -1.000000
vn 0.000000 -0.000000 -1.000000
vn -0.566454 0.824093 0.000537
vn -0.567642 0.823275 0.000103
vn -0.566703 0.823922 0.000446
vn -0.566703 0.823922 0.000446
vn -0.567642 0.823275 0.000103
vn -0.567923 0.823082 0.000000
vn 0.000000 -1.000000 0.000000
vn 0.000000 -1.000000 0.000000
vn 0.000000 -1.000000 0.000000
vn 0.000000 0.000000 -1.000000
vn 0.000000 0.000000 -1.000000
vn 0.000000 0.000000 -1.000000
vn 0.000000 -0.000000 -1.000000
vn 0.000000 0.000000 -1.000000
vn 0.000000 -0.000000 -1.000000
vn -0.250767 -0.774735 -0.580432
vn -0.250767 -0.774735 -0.580432
vn -0.250767 -0.774735 -0.580432
vn 0.000000 0.000000 -1.000000
vn 0.000000 0.000000 -1.000000
vn 0.000000 0.000000 -1.000000
vn 0.000000 -1.000000 0.000001
vn 0.000000 -1.000000 0.000001
vn 0.000000 -1.000000 0.000001
vn 0.204667 -0.764939 -0.610721
vn 0.204667 -0.764939 -0.610721
vn 0.204667 -0.764939 -0.610721
vn -0.000000 -1.000000 0.000000
vn -0.000000 -1.000000 0.000000
vn -0.000000 -1.000000 0.000000
vn 0.000000 -1.000000 -0.000001
vn 0.000000 -1.000000 -0.000001
vn 0.000000 -1.000000 -0.000001
vn 0.000000 0.000000 -1.000000
vn 0.000000 0.000000 -1.000000
vn 0.000000 0.000000 -1.000000
vn -0.000000 0.000000 -1.000000
vn -0.000000 0.000000 -1.000000
vn -0.000000 0.000000 -1.000000
vn -0.000000 0.000000 -1.000000
vn -0.000000 0.000000 -1.000000
vn -0.000000 0.000000 -1.000000
vn 1.000000 0.000000 -0.000000
vn 1.000000 0.000000 -0.000000
vn 1.000000 0.000000 -0.000000
vn 1.000000 0.000000 0.000000
vn 1.000000 0.000000 0.000000
vn 1.000000 0.000000 0.000000
vn 0.000000 0.000000 -1.000000
vn 0.000000 0.000000 -1.000000
vn 0.000000 0.000000 -1.000000
vn 0.000000 0.000000 -1.000000
vn 0.000000 0.000000 -1.000000
vn 0.000000 0.000000 -1.000000
vn 0.760420 -0.148224 -0.632291
vn 0.760420 -0.148224 -0.632291
vn 0.760420 -0.148224 -0.632291
vn 0.749158 0.147330 -0.645799
vn 0.749158 0.147330 -0.645799
vn 0.749158 0.147330 -0.645799
vn 0.831452 -0.555597 0.000000
vn 0.835252 -0.549866 0.001666
vn 0.850324 -0.526192 0.008463
vn 0.850324 -0.526192 0.008463
vn 0.835252 -0.549866 0.001666
vn 0.853373 -0.521208 0.009878
vn 0.000000 0.000000 -1.000000
vn 0.000000 0.000000 -1.000000
vn 0.000000 0.000000 -1.000000
vn 0.000000 0.000000 1.000000
vn 0.000000 0.000000 1.000000
vn -0.000000 0.000000 1.000000
vn -0.000000 0.000000 1.000000
vn 0.000000 0.000000 1.000000
vn -0.000000 0.000000 1.000000
vn -0.000000 1.000000 0.000000
vn -0.000000 1.000000 0.000000
vn -0.000000 1.000000 0.000000
vn 0.000000 0.000000 -1.000000
vn 0.000000 0.000000 -1.000000
vn 0.000000 0.000000 -1.000000
vn 0.000000 0.000000 1.000000
vn 0.000000 0.000000 1.000000
vn 0.000000 0.000000 1.000000
vn -1.000000 -0.000000 -0.000001
vn -1.000000 -0.000000 -0.000000
vn -1.000000 0.000000 0.000001
vn -1.000000 0.000000 0.000000
vn -1.000000 0.000000 0.000000
vn -1.000000 -0.000000 -0.000000
vn -1.000000 -0.000000 -0.000000
vn -1.000000 0.000000 0.000000
vn -1.000000 0.000000 0.000001
vn -0.000000 0.000000 1.000000
vn 0.000000 0.000000 1.000000
vn -0.000000 0.000000 1.000000
vn -0.000000 0.000000 1.000000
vn 0.000000 0.000000 1.000000
vn 0.000000 0.000000 1.000000
vn -0.229878 0.669799 -0.706064
vn -0.343767 0.634809 -0.691984
vn -0.242231 0.666513 -0.705042
vn -0.725148 -0.688592 0.000000
vn -0.795117 -0.605757 0.029118
vn -0.743637 -0.668543 0.007335
vn -0.743637 -0.668543 0.007335
vn -0.795117 -0.605757 0.029118
vn -0.806145 -0.590735 0.034091
vn 0.000000 0.000000 -1.000000
vn 0.000000 0.000000 -1.000000
vn 0.000000 0.000000 -1.000000
vn -0.000000 0.000000 1.000000
vn -0.000000 0.000000 1.000000
vn -0.000000 0.000000 1.000000
vn 0.367435 0.718234 0.590874
vn 0.367435 0.718234 0.590874
vn 0.367435 0.718234 0.590874
vn 0.000000 1.000000 0.000000
vn 0.000000 1.000000 0.000000
vn 0.000000 1.000000 0.000000
vn -0.000000 1.000000 0.000000
vn -0.000000 1.000000 0.000000
vn -0.000000 1.000000 0.000000
vn 0.000000 1.000000 -0.000001
vn 0.000000 1.000000 -0.000001
vn 0.000000 1.000000 -0.000001
vn 0.000000 1.000000 -0.000001
vn -0.000000 1.000000 -0.000000
vn -0.000000 1.000000 -0.000001
vn -0.000000 1.000000 -0.000001
vn -0.000000 1.000000 -0.000000
vn -0.000000 1.000000 0.000000
vn 0.000000 0.000000 1.000000
vn 0.000000 0.000000 1.000000
vn 0.000000 0.000000 1.000000
vn 0.000000 0.000000 1.000000
vn 0.000000 0.000000 1.000000
vn 0.000000 0.000000 1.000000
vn 0.000000 0.000000 1.000000
vn 0.000000 0.000000 1.000000
vn 0.000000 0.000000 1.000000
vn -0.313306 0.711690 0.628758
vn -0.313306 0.711690 0.628758
vn -0.313307 0.711690 0.628758
vn 0.000000 0.000000 -1.000000
vn 0.000000 0.000000 -1.000000
vn 0.000000 0.000000 -1.000000
vn 0.000000 0.000000 -1.000000
vn 0.000000 0.000000 -1.000000
vn 0.000000 0.000000 -1.000000
vn -0.000000 0.000000 -1.000000
vn 0.000000 0.000000 -1.000000
vn -0.000000 0.000000 -1.000000
vn -0.000000 0.000000 -1.000000
vn 0.000000 0.000000 -1.000000
vn 0.000000 0.000000 -1.000000
vn 0.000000 0.000000 1.000000
vn 0.000000 0.000000 1.000000
vn 0.000000 0.000000 1.000000
vn 0.000000 0.000000 -1.000000
vn 0.000000 0.000000 -1.000000
vn 0.000000 0.000000 -1.000000
vn 0.000000 0.000000 1.000000
vn 0.000000 0.000000 1.000000
vn 0.000000 0.000000 1.000000
vn 1.000000 0.000000 -0.000001
vn 1.000000 0.000000 -0.000001
vn 1.000000 0.000000 -0.000001
vn 1.000000 0.000000 -0.000000
vn 1.000000 0.000000 -0.000000
vn 1.000000 0.000000 -0.000000
vn 0.000000 0.000000 -1.000000
vn 0.000000 0.000000 -1.000000
vn 0.000000 0.000000 -1.000000
vn 0.000000 0.000000 1.000000
vn 0.000000 0.000000 1.000000
vn 0.000000 0.000000 1.000000
s off
f 9/1/1 30/30/2 12/4/3
f 12/4/4 30/30/5 31/31/6
f 13/5/7 20/20/8 16/8/9
f 28/28/10 29/29/11 25/25/12
f 17/17/13 18/18/14 10/2/15
f 31/31/16 5/12/17 12/4/18
f 8/14/19 14/6/20 7/13/21
f 7/13/22 14/6/23 13/5/24
f 20/20/25 1/16/26 16/8/27
f 33/33/28 6/11/29 11/3/30
f 18/18/31 19/19/32 32/32/33
f 24/24/34 3/9/35 9/1/36
f 28/28/37 7/13/38 13/5/39
f 17/17/40 4/10/41 18/18/42
f 34/34/43 2/15/44 15/7/45
f 32/32/46 33/33/47 10/2/48
f 10/2/49 33/33/50 11/3/51
f 21/21/52 14/6/53 15/7/54
f 22/22/55 1/16/56 20/20/57
f 2/15/58 21/21/59 15/7/60
f 20/20/61 23/23/62 22/22/63
f 2/15/64 22/22/65 21/21/66
f 23/23/67 14/6/68 21/21/69
f 22/22/70 23/23/71 21/21/72
f 13/5/73 23/23/74 20/20/75
f 13/5/76 14/6/77 23/23/78
f 2/15/79 1/16/80 22/22/81
f 26/26/82 3/9/83 24/24/84
f 1/16/85 25/25/86 29/29/87
f 28/28/88 25/25/89 27/27/90
f 12/4/91 24/24/92 9/1/93
f 1/16/94 3/9/95 26/26/96
f 1/16/97 26/26/98 25/25/99
f 24/24/100 27/27/101 26/26/102
f 26/26/103 27/27/104 25/25/105
f 16/8/106 29/29/107 13/5/108
f 13/5/109 29/29/110 28/28/111
f 1/16/112 29/29/113 16/8/114
f 7/13/115 28/28/116 5/12/117
f 5/12/118 28/28/119 12/4/120
f 36/36/121 10/2/122 11/3/123
f 3/9/124 30/30/125 9/1/126
f 37/37/127 5/12/128 31/31/129
f 34/34/130 35/35/131 19/19/132
f 33/33/133 32/32/134 35/35/135
f 35/35/136 32/32/137 19/19/138
f 8/14/139 6/11/140 35/35/141
f 35/35/142 6/11/143 33/33/144
f 18/18/145 32/32/146 10/2/147
f 15/7/148 14/6/149 34/34/150
f 34/34/151 14/6/152 35/35/153
f 4/10/154 19/19/155 18/18/156
f 6/11/157 36/36/158 11/3/159
f 36/36/160 39/39/161 38/38/162
f 31/31/163 30/30/164 37/37/165
f 38/38/166 10/2/167 36/36/168
f 37/37/169 30/30/170 38/38/171
f 30/30/172 17/17/173 38/38/174
f 38/38/175 17/17/176 10/2/177
f 39/39/178 5/12/179 37/37/180
f 6/11/181 39/39/182 36/36/183
f 6/11/184 5/12/185 39/39/186
f 38/38/187 39/39/188 37/37/189
f 4/10/190 17/17/191 3/9/192
f 3/9/193 17/17/194 30/30/195
f 4/10/196 2/15/197 19/19/198
f 19/19/199 2/15/200 34/34/201
f 8/14/202 35/35/203 14/6/204
f 1/40/205 4/42/206 3/43/207
f 5/44/208 6/45/209 8/46/210
f 28/28/211 27/27/212 12/4/213
f 12/4/214 27/27/215 24/24/216
f 1/40/217 2/41/218 4/42/219
f 5/44/220 8/46/221 7/47/222
