# This file uses meters as units for non-parametric coordinates.

v 50.000000 -50.000000 -7.209560
v -50.000000 -50.000000 -7.209560
v 50.000000 50.000000 -7.209560
v -50.000000 50.000000 -7.209560
v 50.000000 50.000000 7.209560
v -50.000000 50.000000 7.209560
v 50.000000 -50.000000 7.209560
v -50.000000 -50.000000 7.209560
v 58.376442 56.588371 -7.209560
v -55.637913 58.376431 -3.832148
v -55.637913 58.376431 7.209560
v 58.376442 56.588371 7.209560
v 56.435562 -58.376442 7.209560
v -55.705673 -58.376442 7.209560
v -55.705673 -58.376442 -7.209560
v 56.435562 -58.376442 -7.209560
v -44.480156 58.376431 -7.209560
v -55.026131 55.026131 -7.209560
v -58.376442 41.015953 -7.209560
v 8.449697 -58.376442 -7.209560
v -26.234379 -58.376442 -7.209560
v -7.246241 -53.295971 -7.209560
v -6.701629 -58.376431 -0.663664
v 58.376431 35.232742 -7.209560
v 58.376431 -12.205786 -7.209560
v 53.732471 11.408270 -7.209560
v 58.376431 11.835913 -1.724791
v 58.376442 -55.198639 7.209560
v 58.376431 -55.471916 -7.209560
v 56.322269 58.376431 -7.209560
v 55.716972 58.376442 7.209560
v -58.376431 56.494308 -4.198309
v -58.376431 56.486870 7.209560
v -58.376427 -55.563904 -7.209562
v -58.376431 -54.731785 7.209560
v -3.611475 58.376442 7.209560
v 17.859337 58.376442 7.209560
v 5.939777 58.376442 1.270117
v 6.319155 53.296120 7.209560
vt 0.048904 0.824242
vt 0.246276 0.016539
vt 0.048904 0.824242
vt 0.048904 0.824242
vt 0.048904 0.824242
vt 0.048904 0.824242
vt 0.048904 0.824242
vt 0.048904 0.824242
vt 0.048904 0.824242
vt 0.048904 0.824242
vt 0.048904 0.824242
vt 0.048904 0.824242
vt 0.048904 0.824242
vt 0.048904 0.824242
vt 0.048904 0.824242
vt 0.246276 0.135778
vt 0.048904 0.824242
vt 0.127037 0.016539
vt 0.127037 0.135778
vt 0.048904 0.824242
vt 0.048904 0.824242
vt 0.048904 0.824242
vt 0.048904 0.824242
vt 0.048904 0.824242
vt 0.048904 0.824242
vt 0.048904 0.824242
vt 0.048904 0.824242
vt 0.048904 0.824242
vt 0.048904 0.824242
vt 0.048904 0.824242
vt 0.048904 0.824242
vt 0.048904 0.824242
vt 0.048904 0.824242
vt 0.048904 0.824242
vt 0.048904 0.824242
vt 0.048904 0.824242
vt 0.048904 0.824242
vt 0.048904 0.824242
vt 0.048904 0.824242
vt 0.048904 0.824242
vt 0.048904 0.824242
vt 0.048904 0.824242
vt 0.048904 0.824242
vt 0.048904 0.824242
vt 0.048904 0.824242
vt 0.048904 0.824242
vt 0.048904 0.824242
vt 0.048904 0.824242
vt 0.048904 0.824242
vt 0.048904 0.824242
vt 0.048904 0.824242
vt 0.048904 0.824242
vt 0.048904 0.824242
vt 0.048904 0.824242
vt 0.048904 0.824242
vt 0.048904 0.824242
vt 0.048904 0.824242
vt 0.048904 0.824242
vt 0.048904 0.824242
vt 0.048904 0.824242
vt 0.048904 0.824242
vt 0.048904 0.824242
vt 0.048904 0.824242
vt 0.048904 0.824242
vt 0.048904 0.824242
vt 0.048904 0.824242
vt 0.048904 0.824242
vt 0.048904 0.824242
vt 0.048904 0.824242
vt 0.048904 0.824242
vt 0.048904 0.824242
vt 0.048904 0.824242
vt 0.048904 0.824242
vt 0.048904 0.824242
vt 0.048904 0.824242
vt 0.048904 0.824242
vt 0.048904 0.824242
vt 0.048904 0.824242
vt 0.048904 0.824242
vt 0.048904 0.824242
vt 0.048904 0.824242
vt 0.048904 0.824242
vt 0.048904 0.824242
vt 0.048904 0.824242
vt 0.048904 0.824242
vt 0.048904 0.824242
vt 0.048904 0.824242
vt 0.048904 0.824242
vt 0.048904 0.824242
vt 0.048904 0.824242
vt 0.048904 0.824242
vt 0.246276 0.135778
vt 0.127037 0.135778
vt 0.127037 0.016539
vt 0.246276 0.016539
vn 0.000000 0.000000 -1.000000
vn 0.000000 0.000000 -1.000000
vn 0.000000 0.000000 -1.000000
vn 0.000000 1.000000 0.000000
vn 0.000000 1.000000 0.000000
vn 0.000000 1.000000 0.000000
vn 0.000000 1.000000 0.000000
vn 0.000000 1.000000 0.000000
vn 0.000000 1.000000 0.000000
vn 0.000000 0.000000 1.000000
vn 0.000000 0.000000 1.000000
vn 0.000000 0.000000 1.000000
vn 0.000000 -1.000000 0.000000
vn 0.000000 -1.000000 0.000000
vn 0.000000 -1.000000 0.000000
vn 0.000000 -1.000000 0.000000
vn 0.000000 -1.000000 0.000000
vn 0.000000 -1.000000 0.000000
vn -1.000000 0.000000 0.000000
vn -1.000000 0.000000 0.000000
vn -1.000000 0.000000 0.000000
vn -1.000000 0.000000 0.000000
vn -1.000000 0.000000 0.000000
vn -1.000000 0.000000 0.000000
vn 1.000000 0.000000 0.000000
vn 1.000000 0.000000 0.000000
vn 1.000000 0.000000 0.000000
vn 1.000000 0.000000 0.000000
vn 1.000000 0.000000 0.000000
vn 1.000000 0.000000 0.000000
vn 0.000000 1.000000 0.000000
vn 0.000000 1.000000 0.000000
vn 0.000000 1.000000 0.000000
vn 0.000000 1.000000 0.000000
vn 0.000000 1.000000 0.000000
vn 0.000000 1.000000 0.000000
vn 0.000000 -1.000000 0.000000
vn 0.000000 -1.000000 0.000000
vn 0.000000 -1.000000 0.000000
vn 0.000000 -1.000000 0.000000
vn 0.000000 -1.000000 0.000000
vn 0.000000 -1.000000 0.000000
vn -1.000000 0.000000 0.000000
vn -1.000000 0.000000 0.000000
vn -1.000000 0.000000 0.000000
vn -1.000000 0.000000 0.000000
vn -1.000000 0.000000 0.000000
vn -1.000000 0.000000 0.000000
vn 1.000000 0.000000 0.000000
vn 1.000000 0.000000 0.000000
vn 1.000000 0.000000 0.000000
vn 1.000000 0.000000 0.000000
vn 1.000000 0.000000 0.000000
vn 1.000000 0.000000 0.000000
vn 0.656561 0.754273 0.000000
vn 0.641676 0.766967 0.003695
vn 0.568365 0.822508 0.021026
vn 0.568365 0.822508 0.021026
vn 0.641676 0.766967 0.003695
vn 0.557804 0.829643 0.023415
vn 0.000000 -1.000000 0.000000
vn 0.000000 -1.000000 0.000000
vn 0.000000 -1.000000 0.000000
vn 1.000000 0.000000 -0.000001
vn 1.000000 0.000000 -0.000001
vn 1.000000 0.000000 -0.000001
vn -0.214066 0.673831 -0.707197
vn -0.229878 0.669800 -0.706063
vn -0.242231 0.666514 -0.705041
vn 0.000000 0.000000 1.000000
vn -0.000000 0.000000 1.000000
vn -0.000000 0.000000 1.000000
vn 0.000000 0.000000 1.000000
vn 0.000000 0.000000 1.000000
vn 0.000000 0.000000 1.000000
vn 0.000000 0.000000 1.000000
vn 0.000000 0.000000 1.000000
vn 0.000000 0.000000 1.000000
vn 0.000000 0.000000 -1.000000
vn 0.000000 0.000000 -1.000000
vn 0.000000 0.000000 -1.000000
vn 0.000000 0.000000 1.000000
vn 0.000000 0.000000 1.000000
vn 0.000000 0.000000 1.000000
vn -0.624015 0.149223 -0.767032
vn -0.624015 0.149223 -0.767032
vn -0.624015 0.149223 -0.767032
vn 0.000000 0.000000 -1.000000
vn 0.000000 0.000000 -1.000000
vn 0.000000 0.000000 -1.000000
vn 0.000000 0.000000 1.000000
vn 0.000000 0.000000 1.000000
vn 0.000000 0.000000 1.000000
vn -0.000000 0.000000 -1.000000
vn 0.000000 0.000000 -1.000000
vn 0.000000 0.000000 -1.000000
vn 0.000000 -0.000000 -1.000000
vn 0.000000 -0.000000 -1.000000
vn 0.000000 -0.000000 -1.000000
vn -0.566453 0.824094 0.000538
vn -0.567642 0.823276 0.000103
vn -0.566703 0.823922 0.000447
vn -0.566703 0.823922 0.000447
vn -0.567642 0.823276 0.000103
vn -0.567922 0.823082 0.000000
vn 0.000000 -1.000000 0.000000
vn 0.000000 -1.000000 0.000000
vn 0.000000 -1.000000 0.000000
vn 0.000000 0.000000 -1.000000
vn 0.000000 0.000000 -1.000000
vn 0.000000 0.000000 -1.000000
vn 0.000000 -0.000000 -1.000000
vn 0.000000 0.000000 -1.000000
vn 0.000000 -0.000000 -1.000000
vn -0.250767 -0.774735 -0.580432
vn -0.250767 -0.774735 -0.580432
vn -0.250767 -0.774735 -0.580432
vn 0.000000 0.000000 -1.000000
vn 0.000000 0.000000 -1.000000
vn 0.000000 0.000000 -1.000000
vn 0.000000 -1.000000 0.000001
vn 0.000000 -1.000000 0.000001
vn 0.000000 -1.000000 0.000001
vn 0.204668 -0.764940 -0.610719
vn 0.204668 -0.764940 -0.610719
vn 0.204668 -0.764940 -0.610719
vn -0.000000 -1.000000 0.000001
vn -0.000000 -1.000000 0.000001
vn -0.000000 -1.000000 0.000001
vn 0.000000 -1.000000 -0.000002
vn 0.000000 -1.000000 -0.000002
vn 0.000000 -1.000000 -0.000002
vn 0.000000 0.000000 -1.000000
vn 0.000000 0.000000 -1.000000
vn 0.000000 0.000000 -1.000000
vn -0.000000 0.000000 -1.000000
vn -0.000000 0.000000 -1.000000
vn -0.000000 0.000000 -1.000000
vn -0.000000 0.000000 -1.000000
vn -0.000000 0.000000 -1.000000
vn -0.000000 0.000000 -1.000000
vn 1.000000 -0.000000 -0.000001
vn 1.000000 -0.000000 -0.000001
vn 1.000000 -0.000000 -0.000001
vn 1.000000 -0.000000 -0.000001
vn 1.000000 0.000000 -0.000001
vn 1.000000 -0.000000 -0.000001
vn 1.000000 0.000000 -0.000001
vn 1.000000 0.000000 -0.000000
vn 1.000000 -0.000000 -0.000001
vn 1.000000 -0.000000 0.000000
vn 1.000000 -0.000000 0.000000
vn 1.000000 -0.000000 0.000000
vn 0.000000 0.000000 -1.000000
vn 0.000000 0.000000 -1.000000
vn 0.000000 0.000000 -1.000000
vn 0.000000 0.000000 -1.000000
vn 0.000000 0.000000 -1.000000
vn 0.000000 0.000000 -1.000000
vn 0.760420 -0.148224 -0.632291
vn 0.760420 -0.148224 -0.632291
vn 0.760420 -0.148224 -0.632291
vn 0.749158 0.147330 -0.645799
vn 0.749158 0.147330 -0.645799
vn 0.749158 0.147330 -0.645799
vn 0.831452 -0.555597 0.000000
vn 0.835252 -0.549865 0.001666
vn 0.850325 -0.526191 0.008463
vn 0.850325 -0.526191 0.008463
vn 0.835252 -0.549865 0.001666
vn 0.853373 -0.521206 0.009878
vn 0.000000 0.000000 -1.000000
vn 0.000000 0.000000 -1.000000
vn 0.000000 0.000000 -1.000000
vn 0.000000 0.000000 1.000000
vn 0.000000 0.000000 1.000000
vn -0.000000 0.000000 1.000000
vn -0.000000 0.000000 1.000000
vn 0.000000 0.000000 1.000000
vn -0.000000 0.000000 1.000000
vn -0.000000 1.000000 0.000000
vn -0.000000 1.000000 0.000000
vn -0.000000 1.000000 0.000000
vn 0.000000 0.000000 -1.000000
vn 0.000000 0.000000 -1.000000
vn 0.000000 0.000000 -1.000000
vn 0.000000 0.000000 1.000000
vn 0.000000 0.000000 1.000000
vn 0.000000 0.000000 1.000000
vn -1.000000 -0.000000 -0.000000
vn -1.000000 -0.000000 -0.000000
vn -1.000000 0.000000 0.000002
vn -1.000000 0.000000 0.000000
vn -1.000000 0.000000 0.000000
vn -1.000000 -0.000000 -0.000000
vn -1.000000 -0.000000 -0.000000
vn -1.000000 0.000000 0.000000
vn -1.000000 0.000000 0.000002
vn -0.000000 0.000000 1.000000
vn 0.000000 0.000000 1.000000
vn -0.000000 0.000000 1.000000
vn -0.000000 0.000000 1.000000
vn 0.000000 0.000000 1.000000
vn 0.000000 0.000000 1.000000
vn -0.229878 0.669800 -0.706063
vn -0.343768 0.634809 -0.691984
vn -0.242231 0.666514 -0.705041
vn -0.725148 -0.688592 0.000000
vn -0.795118 -0.605756 0.029118
vn -0.743638 -0.668543 0.007336
vn -0.743638 -0.668543 0.007336
vn -0.795118 -0.605756 0.029118
vn -0.806146 -0.590734 0.034091
vn 0.000000 0.000000 -1.000000
vn 0.000000 0.000000 -1.000000
vn 0.000000 0.000000 -1.000000
vn 0.000000 0.000000 1.000000
vn 0.000000 0.000000 1.000000
vn 0.000000 0.000000 1.000000
vn 0.367435 0.718234 0.590874
vn 0.367435 0.718234 0.590874
vn 0.367435 0.718234 0.590874
vn 0.000000 1.000000 -0.000002
vn 0.000000 1.000000 -0.000002
vn 0.000000 1.000000 -0.000002
vn -0.000000 1.000000 0.000000
vn -0.000000 1.000000 0.000000
vn -0.000000 1.000000 0.000000
vn 0.000000 1.000000 -0.000001
vn 0.000000 1.000000 -0.000001
vn 0.000000 1.000000 -0.000001
vn 0.000000 1.000000 -0.000001
vn -0.000000 1.000000 -0.000000
vn -0.000000 1.000000 -0.000001
vn -0.000000 1.000000 -0.000001
vn -0.000000 1.000000 -0.000000
vn -0.000000 1.000000 0.000000
vn 0.000000 0.000000 1.000000
vn 0.000000 0.000000 1.000000
vn 0.000000 0.000000 1.000000
vn 0.000000 0.000000 1.000000
vn 0.000000 0.000000 1.000000
vn 0.000000 0.000000 1.000000
vn 0.000000 0.000000 1.000000
vn 0.000000 0.000000 1.000000
vn 0.000000 0.000000 1.000000
vn -0.313306 0.711690 0.628758
vn -0.313306 0.711690 0.628758
vn -0.313307 0.711690 0.628758
vn 0.000000 0.000000 -1.000000
vn 0.000000 0.000000 -1.000000
vn 0.000000 0.000000 -1.000000
vn 0.000000 0.000000 -1.000000
vn 0.000000 0.000000 -1.000000
vn 0.000000 0.000000 -1.000000
vn -0.000000 0.000000 -1.000000
vn 0.000000 0.000000 -1.000000
vn -0.000000 0.000000 -1.000000
vn -0.000000 0.000000 -1.000000
vn 0.000000 0.000000 -1.000000
vn 0.000000 0.000000 -1.000000
vn 0.000000 0.000000 1.000000
vn 0.000000 0.000000 1.000000
vn 0.000000 0.000000 1.000000
vn 0.000000 1.000000 0.000000
vn 0.000000 1.000000 0.000000
vn 0.000000 1.000000 0.000000
vn 0.000000 1.000000 0.000000
vn 0.000000 1.000000 0.000000
vn 0.000000 1.000000 0.000000
vn 0.000000 -1.000000 0.000000
vn 0.000000 -1.000000 0.000000
vn 0.000000 -1.000000 0.000000
vn 0.000000 -1.000000 0.000000
vn 0.000000 -1.000000 0.000000
vn 0.000000 -1.000000 0.000000
vn -1.000000 0.000000 0.000000
vn -1.000000 0.000000 0.000000
vn -1.000000 0.000000 0.000000
vn -1.000000 0.000000 0.000000
vn -1.000000 0.000000 0.000000
vn -1.000000 0.000000 0.000000
vn 1.000000 0.000000 0.000000
vn 1.000000 0.000000 0.000000
vn 1.000000 0.000000 0.000000
vn 1.000000 0.000000 0.000000
vn 1.000000 0.000000 0.000000
vn 1.000000 0.000000 0.000000
vn 0.000000 0.000000 -1.000000
vn 0.000000 0.000000 -1.000000
vn 0.000000 0.000000 -1.000000
vn 0.000000 0.000000 1.000000
vn 0.000000 0.000000 1.000000
vn 0.000000 0.000000 1.000000
s off
f 3/19/1 2/2/2 4/16/3
f 3/3/4 4/17/5 5/5/6
f 5/5/7 4/17/8 6/6/9
f 5/92/10 6/93/11 8/94/12
f 7/7/13 8/8/14 1/9/15
f 1/9/16 8/8/17 2/10/18
f 2/15/19 8/11/20 4/4/21
f 4/4/22 8/11/23 6/12/24
f 7/13/25 1/1/26 5/14/27
f 5/14/28 1/1/29 3/20/30
f 3/21/31 4/22/32 5/24/33
f 5/24/34 4/22/35 6/23/36
f 7/25/37 8/26/38 1/28/39
f 1/28/40 8/26/41 2/27/42
f 2/29/43 8/30/44 4/32/45
f 4/32/46 8/30/47 6/31/48
f 7/33/49 1/34/50 5/36/51
f 5/36/52 1/34/53 3/35/54
f 9/37/55 30/38/56 12/40/57
f 12/40/58 30/38/59 31/39/60
f 13/41/61 20/42/62 16/43/63
f 28/44/64 29/45/65 25/46/66
f 17/47/67 18/48/68 10/49/69
f 31/39/70 5/50/71 12/40/72
f 8/52/73 14/53/74 7/51/75
f 7/51/76 14/53/77 13/41/78
f 20/42/79 1/54/80 16/43/81
f 33/55/82 6/56/83 11/57/84
f 18/48/85 19/58/86 32/59/87
f 24/60/88 3/61/89 9/37/90
f 28/44/91 7/51/92 13/41/93
f 17/47/94 4/62/95 18/48/96
f 34/63/97 2/64/98 15/65/99
f 32/59/100 33/55/101 10/49/102
f 10/49/103 33/55/104 11/57/105
f 21/66/106 14/53/107 15/65/108
f 22/67/109 1/54/110 20/42/111
f 2/64/112 21/66/113 15/65/114
f 20/42/115 23/68/116 22/67/117
f 2/64/118 22/67/119 21/66/120
f 23/68/121 14/53/122 21/66/123
f 22/67/124 23/68/125 21/66/126
f 13/41/127 23/68/128 20/42/129
f 13/41/130 14/53/131 23/68/132
f 2/64/133 1/54/134 22/67/135
f 26/69/136 3/61/137 24/60/138
f 1/54/139 25/46/140 29/45/141
f 24/60/142 12/40/143 27/70/144
f 12/40/145 28/44/146 27/70/147
f 28/44/148 25/46/149 27/70/150
f 12/40/151 24/60/152 9/37/153
f 1/54/154 3/61/155 26/69/156
f 1/54/157 26/69/158 25/46/159
f 24/60/160 27/70/161 26/69/162
f 26/69/163 27/70/164 25/46/165
f 16/43/166 29/45/167 13/41/168
f 13/41/169 29/45/170 28/44/171
f 1/54/172 29/45/173 16/43/174
f 7/51/175 28/44/176 5/50/177
f 5/50/178 28/44/179 12/40/180
f 36/71/181 10/49/182 11/57/183
f 3/61/184 30/38/185 9/37/186
f 37/72/187 5/50/188 31/39/189
f 34/63/190 35/73/191 19/58/192
f 33/55/193 32/59/194 35/73/195
f 35/73/196 32/59/197 19/58/198
f 8/52/199 6/56/200 35/73/201
f 35/73/202 6/56/203 33/55/204
f 18/48/205 32/59/206 10/49/207
f 15/65/208 14/53/209 34/63/210
f 34/63/211 14/53/212 35/73/213
f 4/62/214 19/58/215 18/48/216
f 6/56/217 36/71/218 11/57/219
f 36/71/220 39/74/221 38/75/222
f 31/39/223 30/38/224 37/72/225
f 38/75/226 10/49/227 36/71/228
f 37/72/229 30/38/230 38/75/231
f 30/38/232 17/47/233 38/75/234
f 38/75/235 17/47/236 10/49/237
f 39/74/238 5/50/239 37/72/240
f 6/56/241 39/74/242 36/71/243
f 6/56/244 5/50/245 39/74/246
f 38/75/247 39/74/248 37/72/249
f 4/62/250 17/47/251 3/61/252
f 3/61/253 17/47/254 30/38/255
f 4/62/256 2/64/257 19/58/258
f 19/58/259 2/64/260 34/63/261
f 8/52/262 35/73/263 14/53/264
f 3/76/265 4/77/266 5/79/267
f 5/79/268 4/77/269 6/78/270
f 7/80/271 8/81/272 1/83/273
f 1/83/274 8/81/275 2/82/276
f 2/84/277 8/85/278 4/87/279
f 4/87/280 8/85/281 6/86/282
f 7/88/283 1/89/284 5/91/285
f 5/91/286 1/89/287 3/90/288
f 1/18/289 2/2/290 3/19/291
f 5/92/292 8/94/293 7/95/294
