# This file uses meters as units for non-parametric coordinates.

v 50.000000 -50.000000 -7.209560
v -50.000000 -50.000000 -7.209560
v 50.000000 50.000000 -7.209560
v -50.000000 50.000000 -7.209560
v 50.000000 50.000000 7.209560
v -50.000000 50.000000 7.209560
v 50.000000 -50.000000 7.209560
v -50.000000 -50.000000 7.209560
v 58.376442 56.588371 -7.209560
v -55.637913 58.376431 -3.832148
v -55.637913 58.376431 7.209560
v 58.376442 56.588371 7.209560
v 56.435562 -58.376442 7.209560
v -55.705673 -58.376442 7.209560
v -55.705673 -58.376442 -7.209560
v 56.435562 -58.376442 -7.209560
v -44.480156 58.376431 -7.209560
v -55.026131 55.026131 -7.209560
v -58.376442 41.015953 -7.209560
v 8.449697 -58.376442 -7.209560
v -26.234379 -58.376442 -7.209560
v -7.246241 -53.295971 -7.209560
v -6.701629 -58.376431 -0.663664
v 58.376431 35.232742 -7.209560
v 58.376431 -12.205786 -7.209560
v 53.732471 11.408270 -7.209560
v 58.376431 11.835913 -1.724791
v 58.376442 -55.198639 7.209560
v 58.376431 -55.471916 -7.209560
v 56.322269 58.376431 -7.209560
v 55.716972 58.376442 7.209560
v -58.376431 56.494308 -4.198309
v -58.376431 56.486870 7.209560
v -58.376427 -55.563904 -7.209562
v -58.376431 -54.731785 7.209560
v -3.611475 58.376442 7.209560
v 17.859337 58.376442 7.209560
v 5.939777 58.376442 1.270117
v 6.319155 53.296120 7.209560
vt 0.048905 0.824243
vt 0.241650 0.271906
vt 0.048905 0.824243
vt 0.048905 0.824243
vt 0.241650 0.379503
vt 0.134054 0.379502
vt 0.134054 0.271906
vt 0.241650 0.271906
vt 0.048905 0.824243
vt 0.048905 0.824243
vt 0.048905 0.824243
vt 0.048905 0.824243
vt 0.048905 0.824243
vt 0.048905 0.824243
vt 0.048905 0.824243
vt 0.241650 0.379503
vt 0.048905 0.824243
vt 0.134054 0.271906
vt 0.134054 0.379503
vt 0.048905 0.824243
vt 0.048905 0.824243
vt 0.048905 0.824243
vt 0.048905 0.824243
vt 0.048905 0.824243
vt 0.048905 0.824243
vt 0.048905 0.824243
vt 0.048905 0.824243
vt 0.048905 0.824243
vt 0.048905 0.824243
vt 0.048905 0.824243
vt 0.048905 0.824243
vt 0.048905 0.824243
vt 0.048905 0.824243
vt 0.048905 0.824243
vt 0.048905 0.824243
vt 0.048905 0.824243
vt 0.048905 0.824243
vt 0.048905 0.824243
vt 0.048905 0.824243
vt 0.048905 0.824243
vt 0.048905 0.824243
vt 0.048905 0.824243
vt 0.048905 0.824243
vt 0.048905 0.824243
vt 0.048905 0.824243
vt 0.048905 0.824243
vt 0.048905 0.824243
vn 0.000000 0.000000 -1.000000
vn -0.000000 0.000000 -1.000000
vn 0.000000 0.000000 -1.000000
vn 0.656561 0.754273 0.000000
vn 0.641676 0.766967 0.003695
vn 0.568365 0.822508 0.021026
vn 0.568365 0.822508 0.021026
vn 0.641676 0.766967 0.003695
vn 0.557804 0.829643 0.023415
vn 0.000000 0.000000 1.000000
vn 0.000000 0.000000 1.000000
vn -0.000000 0.000000 1.000000
vn 0.000000 -1.000000 0.000000
vn 0.000000 -1.000000 0.000000
vn 0.000000 -1.000000 0.000000
vn 1.000000 0.000000 -0.000001
vn 1.000000 0.000000 -0.000001
vn 1.000000 0.000000 -0.000001
vn -0.214066 0.673831 -0.707197
vn -0.229878 0.669800 -0.706063
vn -0.242231 0.666514 -0.705041
vn 0.000000 0.000000 1.000000
vn -0.000000 0.000000 1.000000
vn -0.000000 0.000000 1.000000
vn -0.000000 0.000000 1.000000
vn 0.000000 0.000000 1.000000
vn 0.000000 0.000000 1.000000
vn 0.000000 0.000000 1.000000
vn 0.000000 0.000000 1.000000
vn 0.000000 0.000000 1.000000
vn 0.000000 0.000000 -1.000000
vn 0.000000 0.000000 -1.000000
vn 0.000000 0.000000 -1.000000
vn 0.000000 0.000000 1.000000
vn 0.000000 0.000000 1.000000
vn 0.000000 0.000000 1.000000
vn -0.624015 0.149223 -0.767032
vn -0.624015 0.149223 -0.767032
vn -0.624015 0.149223 -0.767032
vn 0.000000 0.000000 -1.000000
vn 0.000000 0.000000 -1.000000
vn 0.000000 0.000000 -1.000000
vn 0.000000 0.000000 1.000000
vn 0.000000 0.000000 1.000000
vn 0.000000 0.000000 1.000000
vn 0.000000 0.000000 -1.000000
vn 0.000000 0.000000 -1.000000
vn 0.000000 0.000000 -1.000000
vn 0.000000 0.000000 -1.000000
vn 0.000000 0.000000 -1.000000
vn -0.000000 0.000000 -1.000000
vn 0.000000 0.000000 -1.000000
vn -0.000000 0.000000 -1.000000
vn 0.000000 0.000000 -1.000000
vn 0.000000 -0.000000 -1.000000
vn 0.000000 -0.000000 -1.000000
vn 0.000000 -0.000000 -1.000000
vn -0.566453 0.824094 0.000538
vn -0.567642 0.823276 0.000103
vn -0.566703 0.823922 0.000447
vn -0.566703 0.823922 0.000447
vn -0.567642 0.823276 0.000103
vn -0.567922 0.823082 0.000000
vn 0.000000 -1.000000 0.000000
vn 0.000000 -1.000000 0.000000
vn 0.000000 -1.000000 0.000000
vn 0.000000 0.000000 -1.000000
vn 0.000000 0.000000 -1.000000
vn 0.000000 0.000000 -1.000000
vn 0.000000 -0.000000 -1.000000
vn 0.000000 0.000000 -1.000000
vn 0.000000 -0.000000 -1.000000
vn -0.250767 -0.774735 -0.580432
vn -0.250767 -0.774735 -0.580432
vn -0.250767 -0.774735 -0.580432
vn 0.000000 0.000000 -1.000000
vn 0.000000 0.000000 -1.000000
vn 0.000000 0.000000 -1.000000
vn 0.000000 -1.000000 0.000001
vn 0.000000 -1.000000 0.000001
vn 0.000000 -1.000000 0.000001
vn 0.204668 -0.764940 -0.610719
vn 0.204668 -0.764940 -0.610719
vn 0.204668 -0.764940 -0.610719
vn -0.000000 -1.000000 0.000001
vn -0.000000 -1.000000 0.000001
vn -0.000000 -1.000000 0.000001
vn 0.000000 -1.000000 -0.000002
vn 0.000000 -1.000000 -0.000002
vn 0.000000 -1.000000 -0.000002
vn 0.000000 0.000000 -1.000000
vn 0.000000 0.000000 -1.000000
vn 0.000000 0.000000 -1.000000
vn -0.000000 0.000000 -1.000000
vn -0.000000 0.000000 -1.000000
vn -0.000000 0.000000 -1.000000
vn -0.000000 0.000000 -1.000000
vn -0.000000 0.000000 -1.000000
vn -0.000000 0.000000 -1.000000
vn 1.000000 -0.000000 -0.000001
vn 1.000000 -0.000000 -0.000001
vn 1.000000 -0.000000 -0.000001
vn 1.000000 -0.000000 -0.000001
vn 1.000000 0.000000 -0.000001
vn 1.000000 -0.000000 -0.000001
vn 1.000000 0.000000 -0.000001
vn 1.000000 0.000000 -0.000000
vn 1.000000 -0.000000 -0.000001
vn 1.000000 -0.000000 0.000000
vn 1.000000 -0.000000 0.000000
vn 1.000000 -0.000000 0.000000
vn 0.000000 0.000000 -1.000000
vn 0.000000 0.000000 -1.000000
vn 0.000000 0.000000 -1.000000
vn 0.000000 0.000000 -1.000000
vn 0.000000 0.000000 -1.000000
vn 0.000000 0.000000 -1.000000
vn 0.760420 -0.148224 -0.632291
vn 0.760420 -0.148224 -0.632291
vn 0.760420 -0.148224 -0.632291
vn 0.749158 0.147330 -0.645799
vn 0.749158 0.147330 -0.645799
vn 0.749158 0.147330 -0.645799
vn 0.831452 -0.555597 0.000000
vn 0.835252 -0.549865 0.001666
vn 0.850325 -0.526191 0.008463
vn 0.850325 -0.526191 0.008463
vn 0.835252 -0.549865 0.001666
vn 0.853373 -0.521206 0.009878
vn 0.000000 0.000000 -1.000000
vn 0.000000 0.000000 -1.000000
vn 0.000000 0.000000 -1.000000
vn 0.000000 0.000000 1.000000
vn 0.000000 0.000000 1.000000
vn -0.000000 0.000000 1.000000
vn -0.000000 0.000000 1.000000
vn 0.000000 0.000000 1.000000
vn -0.000000 0.000000 1.000000
vn -0.000000 1.000000 0.000000
vn -0.000000 1.000000 0.000000
vn -0.000000 1.000000 0.000000
vn 0.000000 0.000000 -1.000000
vn 0.000000 0.000000 -1.000000
vn 0.000000 0.000000 -1.000000
vn 0.000000 0.000000 1.000000
vn 0.000000 0.000000 1.000000
vn 0.000000 0.000000 1.000000
vn -1.000000 -0.000000 -0.000000
vn -1.000000 -0.000000 -0.000000
vn -1.000000 0.000000 0.000002
vn -1.000000 0.000000 0.000000
vn -1.000000 0.000000 0.000000
vn -1.000000 -0.000000 -0.000000
vn -1.000000 -0.000000 -0.000000
vn -1.000000 0.000000 0.000000
vn -1.000000 0.000000 0.000002
vn 0.000000 0.000000 1.000000
vn -0.000000 0.000000 1.000000
vn 0.000000 0.000000 1.000000
vn 0.000000 0.000000 1.000000
vn -0.000000 0.000000 1.000000
vn -0.000000 0.000000 1.000000
vn -0.000000 0.000000 1.000000
vn 0.000000 0.000000 1.000000
vn -0.000000 0.000000 1.000000
vn -0.229878 0.669800 -0.706063
vn -0.343768 0.634809 -0.691984
vn -0.242231 0.666514 -0.705041
vn -0.725148 -0.688592 0.000000
vn -0.795118 -0.605756 0.029118
vn -0.743638 -0.668543 0.007336
vn -0.743638 -0.668543 0.007336
vn -0.795118 -0.605756 0.029118
vn -0.806146 -0.590734 0.034091
vn 0.000000 0.000000 -1.000000
vn -0.000000 0.000000 -1.000000
vn 0.000000 0.000000 -1.000000
vn 0.000000 0.000000 -1.000000
vn -0.000000 0.000000 -1.000000
vn -0.000000 0.000000 -1.000000
vn -0.000000 0.000000 -1.000000
vn 0.000000 0.000000 -1.000000
vn -0.000000 0.000000 -1.000000
vn 0.000000 0.000000 1.000000
vn 0.000000 0.000000 1.000000
vn 0.000000 0.000000 1.000000
vn 0.367435 0.718234 0.590874
vn 0.367435 0.718234 0.590874
vn 0.367435 0.718234 0.590874
vn 0.000000 1.000000 -0.000002
vn 0.000000 1.000000 -0.000002
vn 0.000000 1.000000 -0.000002
vn -0.000000 1.000000 0.000000
vn -0.000000 1.000000 0.000000
vn -0.000000 1.000000 0.000000
vn 0.000000 1.000000 -0.000001
vn 0.000000 1.000000 -0.000001
vn 0.000000 1.000000 -0.000001
vn 0.000000 1.000000 -0.000001
vn -0.000000 1.000000 -0.000000
vn -0.000000 1.000000 -0.000001
vn -0.000000 1.000000 -0.000001
vn -0.000000 1.000000 -0.000000
vn -0.000000 1.000000 0.000000
vn 0.000000 0.000000 1.000000
vn 0.000000 0.000000 1.000000
vn 0.000000 0.000000 1.000000
vn 0.000000 0.000000 1.000000
vn 0.000000 0.000000 1.000000
vn 0.000000 0.000000 1.000000
vn 0.000000 0.000000 1.000000
vn 0.000000 0.000000 1.000000
vn 0.000000 0.000000 1.000000
vn -0.313306 0.711690 0.628758
vn -0.313306 0.711690 0.628758
vn -0.313307 0.711690 0.628758
vn -0.000000 0.000000 1.000000
vn -0.000000 0.000000 1.000000
vn 0.000000 0.000000 1.000000
vn 0.000000 0.000000 -1.000000
vn -0.000000 0.000000 -1.000000
vn 0.000000 0.000000 -1.000000
s off
f 1/18/1 4/16/2 3/19/3
f 9/1/4 30/38/5 12/9/6
f 12/9/7 30/38/8 31/39/9
f 5/5/10 6/6/11 8/7/12
f 13/10/13 20/28/14 16/13/15
f 28/36/16 29/37/17 25/33/18
f 17/25/19 18/26/20 10/3/21
f 31/39/22 5/20/23 12/9/24
f 8/22/25 14/11/26 7/21/27
f 7/21/28 14/11/29 13/10/30
f 20/28/31 1/24/32 16/13/33
f 33/41/34 6/17/35 11/4/36
f 18/26/37 19/27/38 32/40/39
f 24/32/40 3/14/41 9/1/42
f 28/36/43 7/21/44 13/10/45
f 30/38/46 3/14/47 17/25/48
f 18/26/49 17/25/50 4/15/51
f 3/14/52 4/15/53 17/25/54
f 34/42/55 2/23/56 15/12/57
f 32/40/58 33/41/59 10/3/60
f 10/3/61 33/41/62 11/4/63
f 21/29/64 14/11/65 15/12/66
f 22/30/67 1/24/68 20/28/69
f 2/23/70 21/29/71 15/12/72
f 20/28/73 23/31/74 22/30/75
f 2/23/76 22/30/77 21/29/78
f 23/31/79 14/11/80 21/29/81
f 22/30/82 23/31/83 21/29/84
f 13/10/85 23/31/86 20/28/87
f 13/10/88 14/11/89 23/31/90
f 2/23/91 1/24/92 22/30/93
f 26/34/94 3/14/95 24/32/96
f 1/24/97 25/33/98 29/37/99
f 24/32/100 12/9/101 27/35/102
f 12/9/103 28/36/104 27/35/105
f 28/36/106 25/33/107 27/35/108
f 12/9/109 24/32/110 9/1/111
f 1/24/112 3/14/113 26/34/114
f 1/24/115 26/34/116 25/33/117
f 24/32/118 27/35/119 26/34/120
f 26/34/121 27/35/122 25/33/123
f 16/13/124 29/37/125 13/10/126
f 13/10/127 29/37/128 28/36/129
f 1/24/130 29/37/131 16/13/132
f 7/21/133 28/36/134 5/20/135
f 5/20/136 28/36/137 12/9/138
f 36/44/139 10/3/140 11/4/141
f 3/14/142 30/38/143 9/1/144
f 37/45/145 5/20/146 31/39/147
f 34/42/148 35/43/149 19/27/150
f 33/41/151 32/40/152 35/43/153
f 35/43/154 32/40/155 19/27/156
f 33/41/157 35/43/158 6/17/159
f 14/11/160 8/22/161 35/43/162
f 8/22/163 6/17/164 35/43/165
f 18/26/166 32/40/167 10/3/168
f 15/12/169 14/11/170 34/42/171
f 34/42/172 14/11/173 35/43/174
f 34/42/175 19/27/176 2/23/177
f 18/26/178 4/15/179 19/27/180
f 4/15/181 2/23/182 19/27/183
f 6/17/184 36/44/185 11/4/186
f 36/44/187 39/47/188 38/46/189
f 31/39/190 30/38/191 37/45/192
f 38/46/193 10/3/194 36/44/195
f 37/45/196 30/38/197 38/46/198
f 30/38/199 17/25/200 38/46/201
f 38/46/202 17/25/203 10/3/204
f 39/47/205 5/20/206 37/45/207
f 6/17/208 39/47/209 36/44/210
f 6/17/211 5/20/212 39/47/213
f 38/46/214 39/47/215 37/45/216
f 5/5/217 8/7/218 7/8/219
f 2/2/220 4/16/221 1/18/222
