# This file uses meters as units for non-parametric coordinates.

v 50.000000 -50.000000 -7.209560
v -50.000000 -50.000000 -7.209560
v 50.000000 50.000000 -7.209560
v -50.000000 50.000000 -7.209560
v 50.000000 50.000000 7.209560
v -50.000000 50.000000 7.209560
v 50.000000 -50.000000 7.209560
v -50.000000 -50.000000 7.209560
v 58.376442 56.588371 -7.209560
v -55.637913 58.376431 -3.832148
v -55.637913 58.376431 7.209560
v 58.376442 56.588371 7.209560
v 56.435562 -58.376442 7.209560
v -55.705673 -58.376442 7.209560
v -55.705673 -58.376442 -7.209560
v 56.435562 -58.376442 -7.209560
v -44.480156 58.376431 -7.209560
v -55.026131 55.026131 -7.209560
v -58.376442 41.015953 -7.209560
v 8.449697 -58.376442 -7.209560
v -26.234379 -58.376442 -7.209560
v -7.246241 -53.295971 -7.209560
v -6.701629 -58.376431 -0.663664
v 58.376431 35.232742 -7.209560
v 58.376431 -12.205786 -7.209560
v 53.732471 11.408270 -7.209560
v 58.376431 11.835913 -1.724791
v 58.376442 -55.198639 7.209560
v 58.376431 -55.471916 -7.209560
v 56.322269 58.376431 -7.209560
v 55.716972 58.376442 7.209560
v -58.376431 56.494308 -4.198309
v -58.376431 56.486870 7.209560
v -58.376427 -55.563904 -7.209562
v -58.376431 -54.731785 7.209560
v -3.611475 58.376442 7.209560
v 17.859337 58.376442 7.209560
v 5.939777 58.376442 1.270117
v 6.319155 53.296120 7.209560
vt 0.048904 0.824242
vt 0.048904 0.824242
vt 0.048904 0.824242
vt 0.048904 0.824242
vt 0.048904 0.824242
vt 0.048904 0.824242
vt 0.048904 0.824242
vt 0.048904 0.824242
vt 0.048904 0.824242
vt 0.048904 0.824242
vt 0.048904 0.824242
vt 0.048904 0.824242
vt 0.048904 0.824242
vt 0.048904 0.824242
vt 0.048904 0.824242
vt 0.048904 0.824242
vt 0.048904 0.824242
vt 0.048904 0.824242
vt 0.048904 0.824242
vt 0.048904 0.824242
vt 0.048904 0.824242
vt 0.048904 0.824242
vt 0.048904 0.824242
vt 0.048904 0.824242
vt 0.048904 0.824242
vt 0.048904 0.824242
vt 0.048904 0.824242
vt 0.048904 0.824242
vt 0.048904 0.824242
vt 0.048904 0.824242
vt 0.048904 0.824242
vt 0.048904 0.824242
vt 0.048904 0.824242
vt 0.048904 0.824242
vt 0.048904 0.824242
vt 0.048904 0.824242
vt 0.048904 0.824242
vt 0.048904 0.824242
vt 0.048904 0.824242
vt 0.015965 0.268042
vt 0.128214 0.268042
vt 0.128214 0.380292
vt 0.015965 0.380292
vt 0.128214 0.380292
vt 0.015965 0.380292
vt 0.015965 0.268042
vt 0.128214 0.268042
vn 0.656561 0.754273 0.000000
vn 0.641676 0.766967 0.003695
vn 0.568365 0.822508 0.021026
vn 0.568365 0.822508 0.021026
vn 0.641676 0.766967 0.003695
vn 0.557804 0.829643 0.023415
vn 0.000000 -1.000000 0.000000
vn 0.000000 -1.000000 0.000000
vn 0.000000 -1.000000 0.000000
vn 1.000000 0.000000 -0.000001
vn 1.000000 0.000000 -0.000001
vn 1.000000 0.000000 -0.000001
vn -0.214066 0.673831 -0.707197
vn -0.229878 0.669800 -0.706063
vn -0.242231 0.666514 -0.705041
vn 0.000000 0.000000 1.000000
vn -0.000000 0.000000 1.000000
vn -0.000000 0.000000 1.000000
vn 0.000000 0.000000 1.000000
vn 0.000000 0.000000 1.000000
vn 0.000000 0.000000 1.000000
vn 0.000000 0.000000 1.000000
vn 0.000000 0.000000 1.000000
vn 0.000000 0.000000 1.000000
vn 0.000000 0.000000 -1.000000
vn 0.000000 0.000000 -1.000000
vn 0.000000 0.000000 -1.000000
vn 0.000000 0.000000 1.000000
vn 0.000000 0.000000 1.000000
vn 0.000000 0.000000 1.000000
vn -0.624015 0.149223 -0.767032
vn -0.624015 0.149223 -0.767032
vn -0.624015 0.149223 -0.767032
vn 0.000000 0.000000 -1.000000
vn 0.000000 0.000000 -1.000000
vn 0.000000 0.000000 -1.000000
vn 0.000000 0.000000 1.000000
vn 0.000000 0.000000 1.000000
vn 0.000000 0.000000 1.000000
vn -0.000000 0.000000 -1.000000
vn 0.000000 0.000000 -1.000000
vn 0.000000 0.000000 -1.000000
vn 0.000000 -0.000000 -1.000000
vn 0.000000 -0.000000 -1.000000
vn 0.000000 -0.000000 -1.000000
vn -0.566453 0.824094 0.000538
vn -0.567642 0.823276 0.000103
vn -0.566703 0.823922 0.000447
vn -0.566703 0.823922 0.000447
vn -0.567642 0.823276 0.000103
vn -0.567922 0.823082 0.000000
vn 0.000000 -1.000000 0.000000
vn 0.000000 -1.000000 0.000000
vn 0.000000 -1.000000 0.000000
vn 0.000000 0.000000 -1.000000
vn 0.000000 0.000000 -1.000000
vn 0.000000 0.000000 -1.000000
vn 0.000000 -0.000000 -1.000000
vn 0.000000 0.000000 -1.000000
vn 0.000000 -0.000000 -1.000000
vn -0.250767 -0.774735 -0.580432
vn -0.250767 -0.774735 -0.580432
vn -0.250767 -0.774735 -0.580432
vn 0.000000 0.000000 -1.000000
vn 0.000000 0.000000 -1.000000
vn 0.000000 0.000000 -1.000000
vn 0.000000 -1.000000 0.000001
vn 0.000000 -1.000000 0.000001
vn 0.000000 -1.000000 0.000001
vn 0.204668 -0.764940 -0.610719
vn 0.204668 -0.764940 -0.610719
vn 0.204668 -0.764940 -0.610719
vn -0.000000 -1.000000 0.000001
vn -0.000000 -1.000000 0.000001
vn -0.000000 -1.000000 0.000001
vn 0.000000 -1.000000 -0.000002
vn 0.000000 -1.000000 -0.000002
vn 0.000000 -1.000000 -0.000002
vn 0.000000 0.000000 -1.000000
vn 0.000000 0.000000 -1.000000
vn 0.000000 0.000000 -1.000000
vn -0.000000 0.000000 -1.000000
vn -0.000000 0.000000 -1.000000
vn -0.000000 0.000000 -1.000000
vn -0.000000 0.000000 -1.000000
vn -0.000000 0.000000 -1.000000
vn -0.000000 0.000000 -1.000000
vn 1.000000 -0.000000 -0.000001
vn 1.000000 -0.000000 -0.000001
vn 1.000000 -0.000000 -0.000001
vn 1.000000 -0.000000 -0.000001
vn 1.000000 0.000000 -0.000001
vn 1.000000 -0.000000 -0.000001
vn 1.000000 0.000000 -0.000001
vn 1.000000 0.000000 -0.000000
vn 1.000000 -0.000000 -0.000001
vn 1.000000 -0.000000 0.000000
vn 1.000000 -0.000000 0.000000
vn 1.000000 -0.000000 0.000000
vn 0.000000 0.000000 -1.000000
vn 0.000000 0.000000 -1.000000
vn 0.000000 0.000000 -1.000000
vn 0.000000 0.000000 -1.000000
vn 0.000000 0.000000 -1.000000
vn 0.000000 0.000000 -1.000000
vn 0.760420 -0.148224 -0.632291
vn 0.760420 -0.148224 -0.632291
vn 0.760420 -0.148224 -0.632291
vn 0.749158 0.147330 -0.645799
vn 0.749158 0.147330 -0.645799
vn 0.749158 0.147330 -0.645799
vn 0.831452 -0.555597 0.000000
vn 0.835252 -0.549865 0.001666
vn 0.850325 -0.526191 0.008463
vn 0.850325 -0.526191 0.008463
vn 0.835252 -0.549865 0.001666
vn 0.853373 -0.521206 0.009878
vn 0.000000 0.000000 -1.000000
vn 0.000000 0.000000 -1.000000
vn 0.000000 0.000000 -1.000000
vn 0.000000 0.000000 1.000000
vn 0.000000 0.000000 1.000000
vn -0.000000 0.000000 1.000000
vn -0.000000 0.000000 1.000000
vn 0.000000 0.000000 1.000000
vn -0.000000 0.000000 1.000000
vn -0.000000 1.000000 0.000000
vn -0.000000 1.000000 0.000000
vn -0.000000 1.000000 0.000000
vn 0.000000 0.000000 -1.000000
vn 0.000000 0.000000 -1.000000
vn 0.000000 0.000000 -1.000000
vn 0.000000 0.000000 1.000000
vn 0.000000 0.000000 1.000000
vn 0.000000 0.000000 1.000000
vn -1.000000 -0.000000 -0.000000
vn -1.000000 -0.000000 -0.000000
vn -1.000000 0.000000 0.000002
vn -1.000000 0.000000 0.000000
vn -1.000000 0.000000 0.000000
vn -1.000000 -0.000000 -0.000000
vn -1.000000 -0.000000 -0.000000
vn -1.000000 0.000000 0.000000
vn -1.000000 0.000000 0.000002
vn -0.000000 0.000000 1.000000
vn 0.000000 0.000000 1.000000
vn -0.000000 0.000000 1.000000
vn -0.000000 0.000000 1.000000
vn 0.000000 0.000000 1.000000
vn 0.000000 0.000000 1.000000
vn -0.229878 0.669800 -0.706063
vn -0.343768 0.634809 -0.691984
vn -0.242231 0.666514 -0.705041
vn -0.725148 -0.688592 0.000000
vn -0.795118 -0.605756 0.029118
vn -0.743638 -0.668543 0.007336
vn -0.743638 -0.668543 0.007336
vn -0.795118 -0.605756 0.029118
vn -0.806146 -0.590734 0.034091
vn 0.000000 0.000000 -1.000000
vn 0.000000 0.000000 -1.000000
vn 0.000000 0.000000 -1.000000
vn 0.000000 0.000000 1.000000
vn 0.000000 0.000000 1.000000
vn 0.000000 0.000000 1.000000
vn 0.367435 0.718234 0.590874
vn 0.367435 0.718234 0.590874
vn 0.367435 0.718234 0.590874
vn 0.000000 1.000000 -0.000002
vn 0.000000 1.000000 -0.000002
vn 0.000000 1.000000 -0.000002
vn -0.000000 1.000000 0.000000
vn -0.000000 1.000000 0.000000
vn -0.000000 1.000000 0.000000
vn 0.000000 1.000000 -0.000001
vn 0.000000 1.000000 -0.000001
vn 0.000000 1.000000 -0.000001
vn 0.000000 1.000000 -0.000001
vn -0.000000 1.000000 -0.000000
vn -0.000000 1.000000 -0.000001
vn -0.000000 1.000000 -0.000001
vn -0.000000 1.000000 -0.000000
vn -0.000000 1.000000 0.000000
vn 0.000000 0.000000 1.000000
vn 0.000000 0.000000 1.000000
vn 0.000000 0.000000 1.000000
vn 0.000000 0.000000 1.000000
vn 0.000000 0.000000 1.000000
vn 0.000000 0.000000 1.000000
vn 0.000000 0.000000 1.000000
vn 0.000000 0.000000 1.000000
vn 0.000000 0.000000 1.000000
vn -0.313306 0.711690 0.628758
vn -0.313306 0.711690 0.628758
vn -0.313307 0.711690 0.628758
vn 0.000000 0.000000 -1.000000
vn 0.000000 0.000000 -1.000000
vn 0.000000 0.000000 -1.000000
vn 0.000000 0.000000 1.000000
vn 0.000000 0.000000 1.000000
vn 0.000000 0.000000 1.000000
vn 0.000000 0.000000 -1.000000
vn 0.000000 0.000000 -1.000000
vn 0.000000 0.000000 -1.000000
vn 0.000000 0.000000 -1.000000
vn 0.000000 0.000000 -1.000000
vn 0.000000 0.000000 -1.000000
vn -0.000000 0.000000 -1.000000
vn 0.000000 0.000000 -1.000000
vn -0.000000 0.000000 -1.000000
vn -0.000000 0.000000 -1.000000
vn 0.000000 0.000000 -1.000000
vn 0.000000 0.000000 -1.000000
vn 0.000000 0.000000 1.000000
vn 0.000000 0.000000 1.000000
vn 0.000000 0.000000 1.000000
vn 0.000000 0.000000 1.000000
vn 0.000000 0.000000 1.000000
vn 0.000000 0.000000 1.000000
vn 0.000000 0.000000 -1.000000
vn 0.000000 0.000000 -1.000000
vn 0.000000 0.000000 -1.000000
s off
f 9/1/1 30/30/2 12/4/3
f 12/4/4 30/30/5 31/31/6
f 13/5/7 20/20/8 16/8/9
f 28/28/10 29/29/11 25/25/12
f 17/17/13 18/18/14 10/2/15
f 31/31/16 5/12/17 12/4/18
f 8/14/19 14/6/20 7/13/21
f 7/13/22 14/6/23 13/5/24
f 20/20/25 1/16/26 16/8/27
f 33/33/28 6/11/29 11/3/30
f 18/18/31 19/19/32 32/32/33
f 24/24/34 3/9/35 9/1/36
f 28/28/37 7/13/38 13/5/39
f 17/17/40 4/10/41 18/18/42
f 34/34/43 2/15/44 15/7/45
f 32/32/46 33/33/47 10/2/48
f 10/2/49 33/33/50 11/3/51
f 21/21/52 14/6/53 15/7/54
f 22/22/55 1/16/56 20/20/57
f 2/15/58 21/21/59 15/7/60
f 20/20/61 23/23/62 22/22/63
f 2/15/64 22/22/65 21/21/66
f 23/23/67 14/6/68 21/21/69
f 22/22/70 23/23/71 21/21/72
f 13/5/73 23/23/74 20/20/75
f 13/5/76 14/6/77 23/23/78
f 2/15/79 1/16/80 22/22/81
f 26/26/82 3/9/83 24/24/84
f 1/16/85 25/25/86 29/29/87
f 24/24/88 12/4/89 27/27/90
f 12/4/91 28/28/92 27/27/93
f 28/28/94 25/25/95 27/27/96
f 12/4/97 24/24/98 9/1/99
f 1/16/100 3/9/101 26/26/102
f 1/16/103 26/26/104 25/25/105
f 24/24/106 27/27/107 26/26/108
f 26/26/109 27/27/110 25/25/111
f 16/8/112 29/29/113 13/5/114
f 13/5/115 29/29/116 28/28/117
f 1/16/118 29/29/119 16/8/120
f 7/13/121 28/28/122 5/12/123
f 5/12/124 28/28/125 12/4/126
f 36/36/127 10/2/128 11/3/129
f 3/9/130 30/30/131 9/1/132
f 37/37/133 5/12/134 31/31/135
f 34/34/136 35/35/137 19/19/138
f 33/33/139 32/32/140 35/35/141
f 35/35/142 32/32/143 19/19/144
f 8/14/145 6/11/146 35/35/147
f 35/35/148 6/11/149 33/33/150
f 18/18/151 32/32/152 10/2/153
f 15/7/154 14/6/155 34/34/156
f 34/34/157 14/6/158 35/35/159
f 4/10/160 19/19/161 18/18/162
f 6/11/163 36/36/164 11/3/165
f 36/36/166 39/39/167 38/38/168
f 31/31/169 30/30/170 37/37/171
f 38/38/172 10/2/173 36/36/174
f 37/37/175 30/30/176 38/38/177
f 30/30/178 17/17/179 38/38/180
f 38/38/181 17/17/182 10/2/183
f 39/39/184 5/12/185 37/37/186
f 6/11/187 39/39/188 36/36/189
f 6/11/190 5/12/191 39/39/192
f 38/38/193 39/39/194 37/37/195
f 1/40/196 4/42/197 3/43/198
f 5/44/199 6/45/200 7/47/201
f 4/10/202 17/17/203 3/9/204
f 3/9/205 17/17/206 30/30/207
f 4/10/208 2/15/209 19/19/210
f 19/19/211 2/15/212 34/34/213
f 8/14/214 35/35/215 14/6/216
f 7/47/217 6/45/218 8/46/219
f 1/40/220 2/41/221 4/42/222
