# This file uses meters as units for non-parametric coordinates.

v 196.578278 -37.523140 -7.209559
v -196.578293 -37.523140 -7.209559
v 196.578278 37.523140 -7.209559
v -196.578293 37.523140 -7.209559
v 196.578278 37.523140 7.209561
v -196.578293 37.523140 7.209561
v 196.578278 -37.523140 7.209561
v -196.578293 -37.523140 7.209561
v 204.954712 44.111511 -7.209559
v -202.216202 45.899567 -3.832147
v -202.216202 45.899567 7.209561
v 204.954712 44.111511 7.209561
v 203.013840 -45.899582 7.209561
v -202.283966 -45.899582 7.209561
v -202.283966 -45.899582 -7.209559
v 203.013840 -45.899582 -7.209559
v -191.058441 45.899567 -7.209559
v -201.604431 42.549271 -7.209559
v -204.954742 28.539091 -7.209559
v -138.128601 -45.899582 -7.209559
v -172.812668 -45.899582 -7.209559
v -153.824539 -40.819111 -7.209559
v -153.279922 -45.899570 -0.663663
v 204.954712 34.528961 -7.209559
v 204.954712 -12.909567 -7.209559
v 200.310745 10.704489 -7.209559
v 204.954712 11.132132 -1.724790
v 204.954712 -42.721779 7.209561
v 204.954712 -42.995056 -7.209559
v 202.900543 45.899567 -7.209559
v 202.295258 45.899582 7.209561
v -204.954727 44.017448 -4.198308
v -204.954727 44.010010 7.209561
v -204.954712 -43.087044 -7.209561
v -204.954727 -42.254925 7.209561
v -150.189774 45.899582 7.209561
v -128.718964 45.899582 7.209561
v -140.638519 45.899582 1.270118
v -140.259140 40.819260 7.209561
vt 0.049423 0.823700
vt 0.462121 0.802412
vt 0.049423 0.823699
vt 0.049423 0.823701
vt 0.049423 0.823702
vt 0.049423 0.823702
vt 0.049423 0.823704
vt 0.049423 0.823704
vt 0.049423 0.823706
vt 0.049423 0.823706
vt 0.049423 0.823699
vt 0.049423 0.823701
vt 0.049423 0.823700
vt 0.049423 0.823702
vt 0.049423 0.823699
vt 0.462121 0.885573
vt 0.049423 0.823699
vt 0.026452 0.802412
vt 0.026452 0.885573
vt 0.049423 0.823702
vt 0.049423 0.823699
vt 0.049423 0.823699
vt 0.049423 0.823702
vt 0.049423 0.823702
vt 0.049423 0.823704
vt 0.049423 0.823704
vt 0.049423 0.823706
vt 0.049423 0.823706
vt 0.049423 0.823699
vt 0.049423 0.823699
vt 0.049423 0.823701
vt 0.049423 0.823701
vt 0.049423 0.823700
vt 0.049423 0.823700
vt 0.049423 0.823702
vt 0.049423 0.823702
vt 0.049423 0.824081
vt 0.049423 0.824081
vt 0.049423 0.824081
vt 0.049423 0.824081
vt 0.049423 0.824081
vt 0.049423 0.824081
vt 0.049423 0.824081
vt 0.049423 0.824081
vt 0.049423 0.824081
vt 0.049423 0.824081
vt 0.049423 0.824081
vt 0.049423 0.824081
vt 0.049423 0.824081
vt 0.049423 0.824081
vt 0.049423 0.824081
vt 0.049423 0.824081
vt 0.049423 0.824081
vt 0.049423 0.824081
vt 0.049423 0.824081
vt 0.049423 0.824081
vt 0.049423 0.824081
vt 0.049423 0.824081
vt 0.049423 0.824081
vt 0.049423 0.824081
vt 0.049423 0.824081
vt 0.049423 0.824081
vt 0.049423 0.824081
vt 0.049423 0.824081
vt 0.049423 0.824081
vt 0.049423 0.824081
vt 0.049423 0.824081
vt 0.049423 0.824081
vt 0.049423 0.824081
vt 0.049423 0.824081
vt 0.049423 0.824081
vt 0.049423 0.824081
vt 0.049423 0.824081
vt 0.049423 0.824081
vt 0.049423 0.824081
vt 0.049423 0.823699
vt 0.049423 0.823699
vt 0.049423 0.823702
vt 0.049423 0.823702
vt 0.049423 0.823704
vt 0.049423 0.823704
vt 0.049423 0.823706
vt 0.049423 0.823706
vt 0.049423 0.823699
vt 0.049423 0.823699
vt 0.049423 0.823701
vt 0.049423 0.823701
vt 0.049423 0.823700
vt 0.049423 0.823700
vt 0.049423 0.823702
vt 0.049423 0.823702
vt 0.462121 0.885573
vt 0.026452 0.885573
vt 0.026452 0.802412
vt 0.462121 0.802412
vn 0.000000 0.000000 -1.000000
vn 0.000000 0.000000 -1.000000
vn 0.000000 0.000000 -1.000000
vn 0.000000 0.000000 -1.000000
vn 0.000000 0.000000 -1.000000
vn 0.000000 0.000000 -1.000000
vn 0.000000 1.000000 0.000000
vn 0.000000 1.000000 0.000000
vn 0.000000 1.000000 0.000000
vn 0.000000 1.000000 0.000000
vn 0.000000 1.000000 0.000000
vn 0.000000 1.000000 0.000000
vn 0.000000 0.000000 1.000000
vn 0.000000 0.000000 1.000000
vn 0.000000 0.000000 1.000000
vn 0.000000 0.000000 1.000000
vn 0.000000 0.000000 1.000000
vn 0.000000 0.000000 1.000000
vn 0.000000 -1.000000 0.000000
vn 0.000000 -1.000000 0.000000
vn 0.000000 -1.000000 0.000000
vn 0.000000 -1.000000 0.000000
vn 0.000000 -1.000000 0.000000
vn 0.000000 -1.000000 0.000000
vn -1.000000 0.000000 0.000000
vn -1.000000 0.000000 0.000000
vn -1.000000 0.000000 0.000000
vn -1.000000 0.000000 0.000000
vn -1.000000 0.000000 0.000000
vn -1.000000 0.000000 0.000000
vn 1.000000 0.000000 0.000000
vn 1.000000 0.000000 0.000000
vn 1.000000 0.000000 0.000000
vn 1.000000 0.000000 0.000000
vn 1.000000 0.000000 0.000000
vn 1.000000 0.000000 0.000000
vn 0.000000 1.000000 0.000000
vn 0.000000 1.000000 0.000000
vn 0.000000 1.000000 0.000000
vn 0.000000 1.000000 0.000000
vn 0.000000 1.000000 0.000000
vn 0.000000 1.000000 0.000000
vn 0.000000 -1.000000 0.000000
vn 0.000000 -1.000000 0.000000
vn 0.000000 -1.000000 0.000000
vn 0.000000 -1.000000 0.000000
vn 0.000000 -1.000000 0.000000
vn 0.000000 -1.000000 0.000000
vn -1.000000 0.000000 0.000000
vn -1.000000 0.000000 0.000000
vn -1.000000 0.000000 0.000000
vn -1.000000 0.000000 0.000000
vn -1.000000 0.000000 0.000000
vn -1.000000 0.000000 0.000000
vn 1.000000 0.000000 0.000000
vn 1.000000 0.000000 0.000000
vn 1.000000 0.000000 0.000000
vn 1.000000 0.000000 0.000000
vn 1.000000 0.000000 0.000000
vn 1.000000 0.000000 0.000000
vn 0.656555 0.754278 0.000000
vn 0.641672 0.766970 0.003695
vn 0.568369 0.822505 0.021026
vn 0.568369 0.822505 0.021026
vn 0.641672 0.766970 0.003695
vn 0.557808 0.829639 0.023415
vn 0.000000 -1.000000 0.000000
vn 0.000000 -1.000000 0.000000
vn 0.000000 -1.000000 0.000000
vn 1.000000 0.000000 0.000000
vn 1.000000 0.000000 0.000000
vn 1.000000 0.000000 0.000000
vn -0.214066 0.673831 -0.707197
vn -0.229878 0.669800 -0.706062
vn -0.242231 0.666515 -0.705041
vn 0.000000 0.000000 1.000000
vn 0.000000 0.000000 1.000000
vn 0.000000 0.000000 1.000000
vn 0.000000 0.000000 1.000000
vn 0.000000 0.000000 1.000000
vn -0.000000 0.000000 1.000000
vn -0.000000 0.000000 1.000000
vn 0.000000 0.000000 1.000000
vn -0.000000 0.000000 1.000000
vn 0.000000 0.000000 -1.000000
vn 0.000000 0.000000 -1.000000
vn 0.000000 0.000000 -1.000000
vn 0.000000 0.000000 1.000000
vn 0.000000 0.000000 1.000000
vn 0.000000 0.000000 1.000000
vn -0.624016 0.149225 -0.767031
vn -0.624016 0.149225 -0.767031
vn -0.624016 0.149225 -0.767031
vn 0.000000 0.000000 -1.000000
vn 0.000000 0.000000 -1.000000
vn 0.000000 0.000000 -1.000000
vn -0.000000 0.000000 1.000000
vn -0.000000 0.000000 1.000000
vn -0.000000 0.000000 1.000000
vn -0.000000 0.000000 -1.000000
vn 0.000000 0.000000 -1.000000
vn 0.000000 0.000000 -1.000000
vn 0.000000 -0.000000 -1.000000
vn 0.000000 -0.000000 -1.000000
vn 0.000000 -0.000000 -1.000000
vn -0.566451 0.824096 0.000538
vn -0.567642 0.823276 0.000103
vn -0.566700 0.823924 0.000447
vn -0.566700 0.823924 0.000447
vn -0.567642 0.823276 0.000103
vn -0.567923 0.823082 0.000000
vn 0.000000 -1.000000 0.000000
vn 0.000000 -1.000000 0.000000
vn 0.000000 -1.000000 0.000000
vn -0.000000 0.000000 -1.000000
vn -0.000000 0.000000 -1.000000
vn -0.000000 0.000000 -1.000000
vn 0.000000 -0.000000 -1.000000
vn 0.000000 0.000000 -1.000000
vn 0.000000 -0.000000 -1.000000
vn -0.250767 -0.774737 -0.580430
vn -0.250767 -0.774737 -0.580430
vn -0.250767 -0.774737 -0.580430
vn 0.000000 0.000000 -1.000000
vn 0.000000 0.000000 -1.000000
vn 0.000000 0.000000 -1.000000
vn 0.000000 -1.000000 0.000001
vn 0.000000 -1.000000 0.000001
vn 0.000000 -1.000000 0.000001
vn 0.204667 -0.764939 -0.610720
vn 0.204667 -0.764939 -0.610720
vn 0.204667 -0.764939 -0.610720
vn -0.000000 -1.000000 0.000002
vn -0.000000 -1.000000 0.000002
vn -0.000000 -1.000000 0.000002
vn 0.000000 -1.000000 -0.000002
vn 0.000000 -1.000000 -0.000002
vn 0.000000 -1.000000 -0.000002
vn 0.000000 0.000000 -1.000000
vn 0.000000 0.000000 -1.000000
vn 0.000000 0.000000 -1.000000
vn 0.000000 0.000000 -1.000000
vn 0.000000 0.000000 -1.000000
vn 0.000000 0.000000 -1.000000
vn 0.000000 0.000000 -1.000000
vn 0.000000 0.000000 -1.000000
vn 0.000000 0.000000 -1.000000
vn 1.000000 -0.000001 0.000000
vn 1.000000 -0.000000 0.000000
vn 1.000000 -0.000000 0.000000
vn 1.000000 -0.000000 0.000000
vn 1.000000 0.000000 0.000000
vn 1.000000 -0.000000 0.000000
vn 1.000000 0.000000 0.000000
vn 1.000000 0.000000 0.000000
vn 1.000000 -0.000000 0.000000
vn 1.000000 0.000000 0.000000
vn 1.000000 0.000000 0.000000
vn 1.000000 0.000000 0.000000
vn -0.000000 0.000000 -1.000000
vn -0.000000 0.000000 -1.000000
vn -0.000000 0.000000 -1.000000
vn 0.000000 0.000000 -1.000000
vn 0.000000 0.000000 -1.000000
vn 0.000000 0.000000 -1.000000
vn 0.760419 -0.148225 -0.632292
vn 0.760419 -0.148225 -0.632292
vn 0.760419 -0.148225 -0.632292
vn 0.749157 0.147331 -0.645800
vn 0.749157 0.147331 -0.645800
vn 0.749157 0.147331 -0.645800
vn 0.831451 -0.555598 0.000000
vn 0.835251 -0.549867 0.001666
vn 0.850323 -0.526192 0.008464
vn 0.850323 -0.526192 0.008464
vn 0.835251 -0.549867 0.001666
vn 0.853372 -0.521208 0.009878
vn 0.000000 0.000000 -1.000000
vn 0.000000 0.000000 -1.000000
vn 0.000000 0.000000 -1.000000
vn 0.000000 0.000000 1.000000
vn 0.000000 0.000000 1.000000
vn 0.000000 0.000000 1.000000
vn 0.000000 0.000000 1.000000
vn 0.000000 0.000000 1.000000
vn 0.000000 0.000000 1.000000
vn -0.000000 1.000000 0.000000
vn -0.000000 1.000000 0.000000
vn -0.000000 1.000000 0.000000
vn 0.000000 0.000000 -1.000000
vn -0.000000 0.000000 -1.000000
vn 0.000000 0.000000 -1.000000
vn 0.000000 0.000000 1.000000
vn 0.000000 0.000000 1.000000
vn 0.000000 0.000000 1.000000
vn -1.000000 -0.000001 -0.000001
vn -1.000000 -0.000001 -0.000001
vn -1.000000 -0.000000 0.000002
vn -1.000000 0.000000 0.000000
vn -1.000000 0.000000 0.000000
vn -1.000000 -0.000001 -0.000001
vn -1.000000 -0.000001 -0.000001
vn -1.000000 0.000000 0.000000
vn -1.000000 -0.000000 0.000002
vn -0.000000 0.000000 1.000000
vn 0.000000 0.000000 1.000000
vn -0.000000 0.000000 1.000000
vn -0.000000 0.000000 1.000000
vn 0.000000 0.000000 1.000000
vn 0.000000 0.000000 1.000000
vn -0.229878 0.669800 -0.706062
vn -0.343766 0.634811 -0.691982
vn -0.242231 0.666515 -0.705041
vn -0.725148 -0.688593 0.000000
vn -0.795119 -0.605754 0.029117
vn -0.743638 -0.668543 0.007335
vn -0.743638 -0.668543 0.007335
vn -0.795119 -0.605754 0.029117
vn -0.806148 -0.590731 0.034090
vn 0.000000 0.000000 -1.000000
vn 0.000000 0.000000 -1.000000
vn 0.000000 0.000000 -1.000000
vn 0.000000 0.000000 1.000000
vn 0.000000 0.000000 1.000000
vn 0.000000 0.000000 1.000000
vn 0.367434 0.718234 0.590874
vn 0.367434 0.718234 0.590874
vn 0.367434 0.718234 0.590874
vn 0.000000 1.000000 -0.000001
vn 0.000000 1.000000 -0.000001
vn 0.000000 1.000000 -0.000001
vn -0.000000 1.000000 -0.000001
vn -0.000000 1.000000 -0.000001
vn -0.000000 1.000000 -0.000001
vn 0.000000 1.000000 -0.000000
vn 0.000000 1.000000 -0.000000
vn 0.000000 1.000000 -0.000000
vn 0.000000 1.000000 -0.000002
vn -0.000000 1.000000 -0.000002
vn -0.000000 1.000000 -0.000002
vn -0.000000 1.000000 -0.000002
vn -0.000000 1.000000 -0.000002
vn -0.000000 1.000000 -0.000002
vn 0.000000 0.000000 1.000000
vn 0.000000 0.000000 1.000000
vn 0.000000 0.000000 1.000000
vn 0.000000 0.000000 1.000000
vn 0.000000 0.000000 1.000000
vn 0.000000 0.000000 1.000000
vn 0.000000 0.000000 1.000000
vn 0.000000 0.000000 1.000000
vn 0.000000 0.000000 1.000000
vn -0.313307 0.711689 0.628759
vn -0.313307 0.711689 0.628759
vn -0.313307 0.711689 0.628759
vn 0.000000 0.000000 -1.000000
vn 0.000000 0.000000 -1.000000
vn 0.000000 0.000000 -1.000000
vn 0.000000 0.000000 -1.000000
vn 0.000000 0.000000 -1.000000
vn 0.000000 0.000000 -1.000000
vn 0.000000 0.000000 -1.000000
vn 0.000000 0.000000 -1.000000
vn 0.000000 0.000000 -1.000000
vn 0.000000 0.000000 -1.000000
vn 0.000000 0.000000 -1.000000
vn 0.000000 0.000000 -1.000000
vn 0.000000 0.000000 1.000000
vn 0.000000 0.000000 1.000000
vn 0.000000 0.000000 1.000000
vn 0.000000 1.000000 0.000000
vn 0.000000 1.000000 0.000000
vn 0.000000 1.000000 0.000000
vn 0.000000 1.000000 0.000000
vn 0.000000 1.000000 0.000000
vn 0.000000 1.000000 0.000000
vn 0.000000 -1.000000 0.000000
vn 0.000000 -1.000000 0.000000
vn 0.000000 -1.000000 0.000000
vn 0.000000 -1.000000 0.000000
vn 0.000000 -1.000000 0.000000
vn 0.000000 -1.000000 0.000000
vn -1.000000 0.000000 0.000000
vn -1.000000 0.000000 0.000000
vn -1.000000 0.000000 0.000000
vn -1.000000 0.000000 0.000000
vn -1.000000 0.000000 0.000000
vn -1.000000 0.000000 0.000000
vn 1.000000 0.000000 0.000000
vn 1.000000 0.000000 0.000000
vn 1.000000 0.000000 0.000000
vn 1.000000 0.000000 0.000000
vn 1.000000 0.000000 0.000000
vn 1.000000 0.000000 0.000000
s off
f 1/18/1 2/2/2 3/19/3
f 3/19/4 2/2/5 4/16/6
f 3/3/7 4/17/8 5/5/9
f 5/5/10 4/17/11 6/6/12
f 5/92/13 6/93/14 7/95/15
f 7/95/16 6/93/17 8/94/18
f 7/7/19 8/8/20 1/9/21
f 1/9/22 8/8/23 2/10/24
f 2/15/25 8/11/26 4/4/27
f 4/4/28 8/11/29 6/12/30
f 7/13/31 1/1/32 5/14/33
f 5/14/34 1/1/35 3/20/36
f 3/21/37 4/22/38 5/24/39
f 5/24/40 4/22/41 6/23/42
f 7/25/43 8/26/44 1/28/45
f 1/28/46 8/26/47 2/27/48
f 2/29/49 8/30/50 4/32/51
f 4/32/52 8/30/53 6/31/54
f 7/33/55 1/34/56 5/36/57
f 5/36/58 1/34/59 3/35/60
f 9/37/61 30/38/62 12/40/63
f 12/40/64 30/38/65 31/39/66
f 13/41/67 20/42/68 16/43/69
f 28/44/70 29/45/71 25/46/72
f 17/47/73 18/48/74 10/49/75
f 31/39/76 5/50/77 12/40/78
f 8/52/79 14/53/80 7/51/81
f 7/51/82 14/53/83 13/41/84
f 20/42/85 1/54/86 16/43/87
f 33/55/88 6/56/89 11/57/90
f 18/48/91 19/58/92 32/59/93
f 24/60/94 3/61/95 9/37/96
f 28/44/97 7/51/98 13/41/99
f 17/47/100 4/62/101 18/48/102
f 34/63/103 2/64/104 15/65/105
f 32/59/106 33/55/107 10/49/108
f 10/49/109 33/55/110 11/57/111
f 21/66/112 14/53/113 15/65/114
f 22/67/115 1/54/116 20/42/117
f 2/64/118 21/66/119 15/65/120
f 20/42/121 23/68/122 22/67/123
f 2/64/124 22/67/125 21/66/126
f 23/68/127 14/53/128 21/66/129
f 22/67/130 23/68/131 21/66/132
f 13/41/133 23/68/134 20/42/135
f 13/41/136 14/53/137 23/68/138
f 2/64/139 1/54/140 22/67/141
f 26/69/142 3/61/143 24/60/144
f 1/54/145 25/46/146 29/45/147
f 24/60/148 12/40/149 27/70/150
f 12/40/151 28/44/152 27/70/153
f 28/44/154 25/46/155 27/70/156
f 12/40/157 24/60/158 9/37/159
f 1/54/160 3/61/161 26/69/162
f 1/54/163 26/69/164 25/46/165
f 24/60/166 27/70/167 26/69/168
f 26/69/169 27/70/170 25/46/171
f 16/43/172 29/45/173 13/41/174
f 13/41/175 29/45/176 28/44/177
f 1/54/178 29/45/179 16/43/180
f 7/51/181 28/44/182 5/50/183
f 5/50/184 28/44/185 12/40/186
f 36/71/187 10/49/188 11/57/189
f 3/61/190 30/38/191 9/37/192
f 37/72/193 5/50/194 31/39/195
f 34/63/196 35/73/197 19/58/198
f 33/55/199 32/59/200 35/73/201
f 35/73/202 32/59/203 19/58/204
f 8/52/205 6/56/206 35/73/207
f 35/73/208 6/56/209 33/55/210
f 18/48/211 32/59/212 10/49/213
f 15/65/214 14/53/215 34/63/216
f 34/63/217 14/53/218 35/73/219
f 4/62/220 19/58/221 18/48/222
f 6/56/223 36/71/224 11/57/225
f 36/71/226 39/74/227 38/75/228
f 31/39/229 30/38/230 37/72/231
f 38/75/232 10/49/233 36/71/234
f 37/72/235 30/38/236 38/75/237
f 30/38/238 17/47/239 38/75/240
f 38/75/241 17/47/242 10/49/243
f 39/74/244 5/50/245 37/72/246
f 6/56/247 39/74/248 36/71/249
f 6/56/250 5/50/251 39/74/252
f 38/75/253 39/74/254 37/72/255
f 4/62/256 17/47/257 3/61/258
f 3/61/259 17/47/260 30/38/261
f 4/62/262 2/64/263 19/58/264
f 19/58/265 2/64/266 34/63/267
f 8/52/268 35/73/269 14/53/270
f 3/76/271 4/77/272 5/79/273
f 5/79/274 4/77/275 6/78/276
f 7/80/277 8/81/278 1/83/279
f 1/83/280 8/81/281 2/82/282
f 2/84/283 8/85/284 4/87/285
f 4/87/286 8/85/287 6/86/288
f 7/88/289 1/89/290 5/91/291
f 5/91/292 1/89/293 3/90/294
