# This file uses meters as units for non-parametric coordinates.

v 3.676010 -112.213013 48.392578
v -3.676041 -112.213013 48.392578
v -7.352066 -109.011734 53.896484
v -3.676041 -105.810448 59.400146
v 3.676010 -105.810448 59.400146
v 7.352036 -109.011734 53.896484
v 3.676010 -11.853043 -9.982178
v -3.676041 -11.853043 -9.982178
v -7.352066 -8.651764 -4.478271
v -3.676041 -5.450485 1.025391
v 3.676010 -5.450485 1.025391
v 7.352036 -8.651764 -4.478271
v -0.000015 -109.011734 53.896484
v -0.000015 -8.651764 -4.478271
v -3.676041 -33.845924 17.541748
v 3.676010 -33.845924 17.541748
v 7.352036 -37.047211 12.037842
v 3.676010 -40.248489 6.534180
v -3.676041 -40.248497 6.534180
v -7.352066 -37.047211 12.037842
v -3.676041 -82.796982 46.014404
v 3.676010 -82.796982 46.014404
v 7.352036 -85.998268 40.510498
v 3.676010 -89.199554 35.006836
v -3.676041 -89.199554 35.006836
v -7.352066 -85.998268 40.510498
v -2.470901 -85.460190 35.246582
v 2.470871 -85.460182 35.246582
v 4.941788 -83.308395 38.946045
v 2.470871 -81.156601 42.645264
v -2.470901 -81.156601 42.645264
v -4.941818 -83.308395 38.946045
v -2.470901 -41.676987 9.779785
v 2.470871 -41.676987 9.779785
v 4.941788 -39.525192 13.479248
v 2.470871 -37.373398 17.178711
v -2.470901 -37.373398 17.178711
v -4.941818 -39.525192 13.479248
v -21.503155 -149.654953 86.921875
v 21.503136 -149.654953 86.921875
v -16.756907 -138.684235 79.614746
v 16.756889 -138.684235 79.614746
v -16.756907 -138.684235 -86.528076
v 16.756889 -138.684235 -86.528076
v -21.503155 -149.654953 -93.834961
v 21.503136 -149.654953 -93.834961
v 31.102989 -125.038597 -82.775146
v 31.102989 -125.038597 63.252441
v 23.572353 -121.369736 -79.544189
v 23.572353 -121.369736 60.499756
v -31.102989 -125.038605 -82.775146
v -31.102989 -125.038605 63.252441
v -23.572363 -121.369766 60.499756
v -23.572363 -121.369766 -79.544189
v -12.353626 -138.684235 63.454834
v 12.353603 -138.684235 63.454834
v 12.353603 -138.684235 -70.368164
v -12.353626 -138.684235 -70.368164
v -12.353626 -110.880272 63.454834
v 12.353603 -110.880272 63.454834
v 12.353603 -110.880272 -70.368164
v -12.353626 -110.880272 -70.368164
v 12.353603 -110.880272 4.568115
v -12.353626 -110.880272 4.568115
v 10.448372 -110.880272 0.000000
v -10.448387 -110.880272 0.000000
v 10.448372 -110.880272 -26.247803
v -10.448387 -110.880272 -26.247803
v 10.448372 -0.455933 0.000000
v -10.448387 -0.455933 0.000000
v 10.448372 -0.455933 -26.247803
v -10.448387 -0.455933 -26.247803
v -10.448387 -42.394157 0.000000
v 10.448372 -42.394157 0.000000
v 10.448372 -42.394157 -26.247803
v -10.448387 -42.394157 -26.247803
v -6.740433 -47.506523 -3.753418
v 6.740437 -47.506523 -3.753418
v 6.740437 -47.506523 -22.494385
v -6.740433 -47.506523 -22.494385
v -6.740433 -90.578972 -3.753418
v 6.740437 -90.578972 -3.753418
v 6.740437 -90.578972 -22.494385
v -6.740433 -90.578972 -22.494385
v -10.448387 -96.571556 0.000000
v 10.448372 -96.571556 0.000000
v 10.448372 -96.571556 -26.247803
v -10.448387 -96.571556 -26.247803
v -9.037392 -105.004814 67.892090
v 9.037384 -105.004814 67.892090
v 9.037384 -105.004814 15.064941
v -9.037392 -105.004814 15.064941
v -9.037392 -129.224213 67.892090
v 9.037384 -129.224213 67.892090
vt 0.245783 0.253785
vt 0.245783 0.253785
vt 0.245783 0.253785
vt 0.245783 0.253785
vt 0.245783 0.253785
vt 0.245783 0.253785
vt 0.245783 0.253785
vt 0.245783 0.253785
vt 0.245783 0.253785
vt 0.245783 0.253785
vt 0.245783 0.253785
vt 0.245783 0.253785
vt 0.245783 0.253785
vt 0.245783 0.253785
vt 0.245783 0.253785
vt 0.245783 0.253785
vt 0.245783 0.253785
vt 0.245783 0.253785
vt 0.245783 0.253785
vt 0.245783 0.253785
vt 0.245783 0.253785
vt 0.245783 0.253785
vt 0.245783 0.253785
vt 0.245783 0.253785
vt 0.245783 0.253785
vt 0.245783 0.253785
vt 0.245783 0.253785
vt 0.245783 0.253785
vt 0.245783 0.253785
vt 0.245783 0.253785
vt 0.245783 0.253785
vt 0.245783 0.253785
vt 0.245783 0.253785
vt 0.245783 0.253785
vt 0.245783 0.253785
vt 0.245783 0.253785
vt 0.245783 0.253785
vt 0.245783 0.253785
vt 0.245783 0.253785
vt 0.245783 0.253785
vt 0.245783 0.253785
vt 0.245783 0.253785
vt 0.245783 0.253785
vt 0.245783 0.303276
vt 0.245783 0.303276
vt 0.245783 0.303276
vt 0.245783 0.303276
vt 0.245783 0.303276
vt 0.245783 0.303276
vt 0.245783 0.303276
vt 0.245783 0.253785
vt 0.245783 0.253785
vt 0.245783 0.253785
vt 0.245783 0.253785
vt 0.245783 0.253785
vt 0.245783 0.253785
vt 0.245783 0.253785
vt 0.245783 0.303276
vt 0.245783 0.253785
vt 0.245783 0.253785
vt 0.245783 0.253785
vt 0.245783 0.303276
vt 0.245783 0.253785
vt 0.245783 0.303276
vt 0.245783 0.253785
vt 0.245783 0.303276
vt 0.245783 0.303276
vt 0.245783 0.303276
vt 0.245783 0.253785
vt 0.245783 0.253785
vt 0.245783 0.253785
vt 0.245783 0.253785
vt 0.245783 0.253785
vt 0.245783 0.253785
vt 0.245783 0.253785
vt 0.245783 0.253785
vt 0.245783 0.253785
vt 0.245783 0.253785
vt 0.245783 0.253785
vt 0.245783 0.253785
vt 0.245783 0.253785
vt 0.245783 0.253785
vt 0.245783 0.253785
vt 0.245783 0.253785
vt 0.245783 0.253785
vt 0.245783 0.253785
vt 0.245783 0.253785
vt 0.245783 0.253785
vt 0.245783 0.303276
vt 0.245783 0.253785
vt 0.245783 0.253785
vt 0.245783 0.253785
vt 0.245783 0.253785
vt 0.245783 0.253785
vt 0.245783 0.253785
vt 0.245783 0.253785
vt 0.245783 0.253785
vt 0.245783 0.253785
vt 0.245783 0.253785
vt 0.245783 0.253785
vt 0.245783 0.253785
vt 0.245783 0.253785
vt 0.245783 0.253785
vt 0.245783 0.253785
vt 0.245783 0.253785
vt 0.245783 0.253785
vt 0.245783 0.253785
vt 0.245783 0.253785
vt 0.245783 0.253785
vt 0.245783 0.253785
vt 0.245783 0.253785
vt 0.245783 0.253785
vt 0.245783 0.253785
vt 0.245783 0.253785
vt 0.245783 0.253785
vt 0.245783 0.253785
vt 0.245783 0.253785
vt 0.245783 0.253785
vt 0.245783 0.253785
vt 0.245783 0.253785
vt 0.245783 0.253785
vt 0.245783 0.253785
vt 0.245783 0.253785
vt 0.245783 0.253785
vt 0.245783 0.253785
vt 0.245783 0.253785
vt 0.245783 0.253785
vt 0.245783 0.253785
vt 0.245783 0.253785
vt 0.245783 0.253785
vt 0.245783 0.253785
vt 0.245783 0.253785
vt 0.245783 0.253785
vt 0.245783 0.253785
vt 0.245783 0.253785
vt 0.245783 0.253785
vt 0.245783 0.253785
vt 0.245783 0.253785
vt 0.245783 0.253785
vt 0.245783 0.253785
vt 0.245783 0.253785
vt 0.245783 0.253785
vt 0.245783 0.253785
vt 0.245783 0.253785
vt 0.245783 0.253785
vt 0.245783 0.253785
vt 0.112564 0.348694
vt 0.112579 0.348694
vt 0.112579 0.348694
vt 0.112564 0.348694
vt 0.246277 0.276066
vt 0.246277 0.276066
vt 0.246277 0.276066
vt 0.246277 0.276066
vt 0.112564 0.348694
vt 0.112579 0.348694
vt 0.112579 0.348694
vt 0.112564 0.348694
vt 0.112579 0.348694
vt 0.112579 0.348694
vt 0.112579 0.348694
vt 0.112579 0.348694
vt 0.112564 0.348694
vt 0.112564 0.348694
vt 0.112564 0.348694
vt 0.112564 0.348694
vt 0.112579 0.348694
vt 0.112564 0.348694
vt 0.112579 0.348694
vt 0.112564 0.348694
vt 0.246277 0.276066
vt 0.246277 0.276066
vt 0.246277 0.276066
vt 0.246277 0.276066
vt 0.246277 0.276066
vt 0.246277 0.276066
vt 0.246277 0.276066
vt 0.246277 0.276066
vt 0.246277 0.276066
vt 0.246277 0.276066
vt 0.246277 0.276066
vt 0.246277 0.276066
vt 0.246277 0.276066
vt 0.246277 0.276066
vt 0.246277 0.276066
vt 0.246277 0.276066
vt 0.112564 0.329689
vt 0.112579 0.329689
vt 0.112579 0.329697
vt 0.112564 0.329697
vt 0.112579 0.329689
vt 0.112564 0.329689
vt 0.112564 0.329697
vt 0.112579 0.329697
vt 0.112564 0.329689
vt 0.112579 0.329689
vt 0.112579 0.329689
vt 0.112564 0.329689
vt 0.112564 0.300502
vt 0.112579 0.300502
vt 0.112579 0.300502
vt 0.112564 0.300502
vt 0.112579 0.300502
vt 0.112564 0.300502
vt 0.112564 0.300502
vt 0.112579 0.300502
vt 0.112564 0.329689
vt 0.112579 0.329689
vt 0.112579 0.329689
vt 0.112564 0.329689
vt 0.112579 0.329689
vt 0.112564 0.329689
vt 0.112564 0.329689
vt 0.112579 0.329689
vt 0.112564 0.329689
vt 0.112579 0.329689
vt 0.112579 0.329689
vt 0.112564 0.329689
vt 0.112564 0.300502
vt 0.112564 0.300502
vt 0.112564 0.300502
vt 0.112564 0.300502
vt 0.112579 0.300502
vt 0.112579 0.300502
vt 0.112579 0.300502
vt 0.112579 0.300502
vn 0.000000 -0.536725 -0.843757
vn 0.000000 -0.536725 -0.843757
vn 0.000000 -0.502788 -0.864410
vn 0.000000 -0.502788 -0.864410
vn -0.865343 -0.285529 -0.411892
vn -0.865343 -0.285528 -0.411893
vn -0.866026 -0.251392 -0.432204
vn -0.866026 -0.251392 -0.432204
vn -0.865343 0.216859 0.451833
vn -0.865343 0.216859 0.451834
vn -0.866026 0.251392 0.432204
vn -0.866026 0.251392 0.432204
vn 0.000000 0.468057 0.883699
vn 0.000000 0.468057 0.883699
vn 0.000000 0.502788 0.864410
vn 0.000000 0.502788 0.864410
vn 0.865343 0.216859 0.451834
vn 0.865343 0.216859 0.451833
vn 0.866026 0.251392 0.432204
vn 0.866026 0.251392 0.432204
vn 0.865343 -0.285528 -0.411893
vn 0.865343 -0.285529 -0.411892
vn 0.866026 -0.251392 -0.432204
vn 0.866026 -0.251392 -0.432204
vn 0.000000 -0.864416 0.502778
vn 0.000000 -0.864416 0.502778
vn 0.000000 -0.864411 0.502786
vn 0.000000 -0.864411 0.502786
vn 0.000000 -0.864416 0.502778
vn 0.000000 -0.864411 0.502786
vn 0.000000 -0.864406 0.502794
vn 0.000000 -0.864411 0.502786
vn 0.000000 -0.864411 0.502786
vn 0.000000 -0.864406 0.502794
vn 0.000000 -0.864406 0.502794
vn 0.000000 -0.864411 0.502786
vn 0.000000 -0.864411 0.502786
vn 0.000000 -0.864406 0.502794
vn 0.000000 -0.864411 0.502786
vn 0.000000 -0.864416 0.502778
vn 0.000000 -0.864411 0.502786
vn 0.000000 -0.864411 0.502786
vn 0.000000 0.864416 -0.502777
vn 0.000000 0.864416 -0.502777
vn 0.000000 0.864411 -0.502785
vn 0.000000 0.864416 -0.502777
vn 0.000000 0.864411 -0.502785
vn 0.000000 0.864411 -0.502785
vn 0.000000 0.864411 -0.502785
vn 0.000000 0.864407 -0.502794
vn 0.000000 0.864411 -0.502785
vn 0.000000 0.864407 -0.502794
vn 0.000000 0.864407 -0.502794
vn 0.000000 0.864411 -0.502785
vn 0.000000 0.864407 -0.502794
vn 0.000000 0.864411 -0.502785
vn 0.000000 0.864411 -0.502785
vn 0.000000 0.864411 -0.502785
vn 0.000000 0.864416 -0.502777
vn 0.000000 0.864411 -0.502785
vn 0.000000 0.544279 0.838904
vn 0.000000 0.544279 0.838904
vn 0.000000 0.550554 0.834799
vn 0.000000 0.550554 0.834799
vn 0.864999 0.293180 0.407212
vn 0.864999 0.293181 0.407211
vn 0.864653 0.299562 0.403285
vn 0.864653 0.299560 0.403286
vn 0.864999 -0.209007 -0.456172
vn 0.864999 -0.209009 -0.456171
vn 0.864658 -0.202440 -0.459767
vn 0.864658 -0.202440 -0.459767
vn -0.000000 -0.460102 -0.887866
vn -0.000000 -0.460102 -0.887866
vn 0.000000 -0.453437 -0.891288
vn 0.000000 -0.453437 -0.891288
vn -0.864999 -0.209009 -0.456171
vn -0.864999 -0.209008 -0.456172
vn -0.864658 -0.202440 -0.459767
vn -0.864658 -0.202440 -0.459767
vn -0.864999 0.293181 0.407211
vn -0.864999 0.293180 0.407212
vn -0.864653 0.299559 0.403286
vn -0.864653 0.299562 0.403285
vn 0.000000 0.502784 0.864412
vn 0.000000 0.502784 0.864412
vn 0.000000 0.544279 0.838904
vn 0.000000 0.544279 0.838904
vn 0.866026 0.251393 0.432204
vn 0.866026 0.251393 0.432204
vn 0.864999 0.293181 0.407211
vn 0.864999 0.293180 0.407212
vn 0.866026 -0.251393 -0.432204
vn 0.866026 -0.251393 -0.432204
vn 0.864999 -0.209009 -0.456171
vn 0.864999 -0.209007 -0.456172
vn 0.000000 -0.502784 -0.864412
vn 0.000000 -0.502784 -0.864412
vn -0.000000 -0.460102 -0.887866
vn -0.000000 -0.460102 -0.887866
vn -0.866026 -0.251393 -0.432204
vn -0.866026 -0.251393 -0.432204
vn -0.864999 -0.209008 -0.456172
vn -0.864999 -0.209009 -0.456171
vn -0.866026 0.251393 0.432204
vn -0.866026 0.251393 0.432204
vn -0.864999 0.293180 0.407212
vn -0.864999 0.293181 0.407211
vn 0.000000 -0.453437 -0.891288
vn 0.000000 -0.453437 -0.891288
vn 0.000000 -0.551243 -0.834345
vn 0.000000 -0.551243 -0.834345
vn 0.864658 -0.202440 -0.459767
vn 0.864658 -0.202440 -0.459767
vn 0.864617 -0.300258 -0.402844
vn 0.864617 -0.300257 -0.402844
vn 0.864653 0.299560 0.403286
vn 0.864653 0.299562 0.403285
vn 0.864612 0.201716 0.460169
vn 0.864613 0.201717 0.460169
vn 0.000000 0.550554 0.834799
vn 0.000000 0.550554 0.834799
vn 0.000000 0.452696 0.891665
vn 0.000000 0.452696 0.891665
vn -0.864653 0.299562 0.403285
vn -0.864653 0.299559 0.403286
vn -0.864613 0.201717 0.460169
vn -0.864612 0.201716 0.460169
vn -0.864658 -0.202440 -0.459767
vn -0.864658 -0.202440 -0.459767
vn -0.864617 -0.300257 -0.402844
vn -0.864617 -0.300258 -0.402843
vn 0.000000 -0.551243 -0.834345
vn 0.000000 -0.551243 -0.834345
vn 0.000000 -0.536725 -0.843757
vn 0.000000 -0.536725 -0.843757
vn 0.864617 -0.300257 -0.402844
vn 0.864617 -0.300258 -0.402844
vn 0.865343 -0.285529 -0.411892
vn 0.865343 -0.285528 -0.411893
vn 0.864613 0.201717 0.460169
vn 0.864612 0.201716 0.460169
vn 0.865343 0.216859 0.451833
vn 0.865343 0.216859 0.451834
vn 0.000000 0.452696 0.891665
vn 0.000000 0.452696 0.891665
vn 0.000000 0.468057 0.883699
vn 0.000000 0.468057 0.883699
vn -0.864612 0.201716 0.460169
vn -0.864613 0.201717 0.460169
vn -0.865343 0.216859 0.451834
vn -0.865343 0.216859 0.451833
vn -0.864617 -0.300258 -0.402843
vn -0.864617 -0.300257 -0.402844
vn -0.865343 -0.285528 -0.411893
vn -0.865343 -0.285529 -0.411892
vn 0.000000 0.554349 0.832285
vn 0.000000 0.554349 0.832285
vn 0.000000 0.554349 0.832285
vn 0.000000 0.554349 0.832285
vn 0.000000 1.000000 0.000000
vn 0.000000 1.000000 0.000000
vn 0.000000 1.000000 0.000000
vn 0.000000 1.000000 0.000000
vn 0.000000 0.554336 -0.832293
vn 0.000000 0.554336 -0.832293
vn 0.000000 0.554336 -0.832293
vn 0.000000 0.554336 -0.832293
vn 0.000000 -1.000000 0.000000
vn 0.000000 -1.000000 0.000000
vn 0.000000 -1.000000 0.000000
vn 0.000000 -1.000000 0.000000
vn 0.437978 0.898986 0.000000
vn 0.437978 0.898986 0.000000
vn 0.437978 0.898986 0.000000
vn 0.437978 0.898986 0.000000
vn -0.437976 0.898987 0.000000
vn -0.437976 0.898987 0.000000
vn -0.437976 0.898987 0.000000
vn -0.437976 0.898987 0.000000
vn 0.931661 -0.363328 0.000000
vn 0.931661 -0.363328 0.000000
vn 0.931661 -0.363328 0.000000
vn 0.931661 -0.363328 0.000000
vn -0.204199 0.453308 -0.867649
vn -0.204199 0.453308 -0.867649
vn -0.204199 0.453308 -0.867649
vn -0.204199 0.453308 -0.867649
vn -0.930507 0.366273 0.000000
vn -0.930507 0.366273 0.000000
vn -0.930507 0.366273 0.000000
vn -0.930507 0.366273 0.000000
vn 0.196026 0.661690 0.723699
vn 0.196026 0.661690 0.723699
vn 0.196026 0.661690 0.723699
vn 0.196026 0.661690 0.723699
vn -0.931661 -0.363328 0.000000
vn -0.931661 -0.363328 0.000000
vn -0.931662 -0.363328 0.000000
vn -0.931661 -0.363328 0.000000
vn -0.196025 0.661691 0.723699
vn -0.196025 0.661691 0.723699
vn -0.196025 0.661691 0.723699
vn -0.196025 0.661691 0.723699
vn 0.930507 0.366274 0.000000
vn 0.930507 0.366274 0.000000
vn 0.930507 0.366274 0.000000
vn 0.930507 0.366274 0.000000
vn 0.204200 0.453308 -0.867649
vn 0.204200 0.453308 -0.867649
vn 0.204200 0.453308 -0.867649
vn 0.204200 0.453308 -0.867649
vn 0.000000 1.000000 0.000000
vn 0.000000 1.000000 0.000000
vn 0.000000 1.000000 0.000000
vn 0.000000 1.000000 0.000000
vn 0.000000 1.000000 0.000000
vn 0.000000 1.000000 0.000000
vn 0.000000 1.000000 0.000000
vn 0.000000 1.000000 0.000000
vn 0.000000 1.000000 0.000000
vn 0.000000 1.000000 0.000000
vn 0.000000 1.000000 0.000000
vn 0.000000 1.000000 0.000000
vn 0.000000 1.000000 0.000000
vn 0.000000 1.000000 0.000000
vn 0.000000 1.000000 0.000000
vn 0.000000 1.000000 0.000000
vn 0.000000 0.000000 1.000000
vn 0.000000 0.000000 1.000000
vn 0.000000 0.000000 1.000000
vn 0.000000 0.000000 1.000000
vn 1.000000 0.000000 0.000000
vn 1.000000 0.000000 0.000000
vn 1.000000 0.000000 0.000000
vn 0.000000 0.000000 -1.000000
vn 0.000000 0.000000 -1.000000
vn 0.000000 0.000000 -1.000000
vn 0.000000 0.000000 -1.000000
vn -1.000000 0.000000 0.000000
vn -1.000000 0.000000 0.000000
vn -1.000000 0.000000 0.000000
vn 1.000000 0.000000 0.000000
vn 1.000000 0.000000 0.000000
vn 1.000000 0.000000 0.000000
vn 1.000000 0.000000 0.000000
vn 0.000000 1.000000 -0.000000
vn 0.000000 1.000000 -0.000000
vn 0.000000 1.000000 -0.000000
vn 0.000000 1.000000 -0.000000
vn 0.000000 1.000000 0.000000
vn 0.000000 1.000000 0.000000
vn 0.000000 1.000000 0.000000
vn 0.000000 1.000000 0.000000
vn 0.000000 1.000000 -0.000000
vn 0.000000 1.000000 -0.000000
vn 0.000000 1.000000 -0.000000
vn 0.000000 1.000000 -0.000000
vn 0.000000 0.000000 1.000000
vn 0.000000 0.000000 1.000000
vn 0.000000 0.000000 1.000000
vn 0.000000 0.000000 1.000000
vn 0.000000 0.000000 -1.000000
vn 0.000000 0.000000 -1.000000
vn 0.000000 0.000000 -1.000000
vn 0.000000 0.000000 -1.000000
vn 0.000000 -0.591810 0.806078
vn 0.000000 -0.591810 0.806078
vn 0.000000 -0.591810 0.806078
vn 0.000000 -0.591810 0.806078
vn 0.000000 -0.591810 -0.806078
vn 0.000000 -0.591810 -0.806078
vn 0.000000 -0.591810 -0.806078
vn 0.000000 -0.591810 -0.806078
vn 0.000000 0.000000 1.000000
vn 0.000000 0.000000 1.000000
vn 0.000000 0.000000 1.000000
vn 0.000000 0.000000 1.000000
vn 0.000000 0.000000 -1.000000
vn 0.000000 0.000000 -1.000000
vn 0.000000 0.000000 -1.000000
vn 0.000000 0.000000 -1.000000
vn 0.000000 0.530817 0.847486
vn 0.000000 0.530817 0.847486
vn 0.000000 0.530817 0.847486
vn 0.000000 0.530817 0.847486
vn 0.000000 0.530817 -0.847486
vn 0.000000 0.530817 -0.847486
vn 0.000000 0.530817 -0.847486
vn 0.000000 0.530817 -0.847486
vn 0.000000 0.000000 1.000000
vn 0.000000 0.000000 1.000000
vn 0.000000 0.000000 1.000000
vn 0.000000 0.000000 1.000000
vn 0.000000 0.000000 -1.000000
vn 0.000000 0.000000 -1.000000
vn 0.000000 0.000000 -1.000000
vn 0.000000 0.000000 -1.000000
vn 0.870861 0.491530 0.000000
vn 0.870861 0.491530 0.000000
vn 0.870861 0.491530 0.000000
vn 0.870861 0.491530 0.000000
vn 0.000000 0.872604 -0.488428
vn 0.000000 0.872604 -0.488428
vn 0.000000 0.872604 -0.488428
vn 0.000000 0.872604 -0.488428
vn -0.870860 0.491532 0.000000
vn -0.870860 0.491532 0.000000
vn -0.870860 0.491532 0.000000
vn -0.870860 0.491532 0.000000
vn 0.000000 -0.424659 0.905353
vn 0.000000 -0.424659 0.905353
vn 0.000000 -0.424659 0.905353
vn 0.000000 -0.424659 0.905353
vn 0.801015 0.000000 0.598645
vn 0.801015 0.000000 0.598645
vn 0.801015 0.000000 0.598645
vn 0.801015 0.000000 0.598645
vn -0.801013 0.000000 0.598647
vn -0.801013 0.000000 0.598647
vn -0.801013 0.000000 0.598647
vn -0.801013 0.000000 0.598647
vn 0.000000 1.000000 0.000000
vn 0.000000 1.000000 0.000000
vn 0.000000 1.000000 0.000000
vn 0.000000 1.000000 0.000000
vn -0.850376 0.526176 0.000000
vn -0.850376 0.526176 0.000000
vn -0.850376 0.526176 0.000000
vn -0.850376 0.526176 0.000000
vn -1.000000 0.000000 0.000000
vn -1.000000 0.000000 0.000000
vn -1.000000 0.000000 0.000000
vn -1.000000 0.000000 0.000000
vn -0.809498 -0.587122 0.000000
vn -0.809498 -0.587122 0.000000
vn -0.809498 -0.587122 0.000000
vn -0.809498 -0.587122 0.000000
vn -1.000000 0.000000 0.000000
vn -1.000000 0.000000 0.000000
vn -1.000000 0.000000 0.000000
vn -1.000000 0.000000 0.000000
vn 0.000000 1.000000 0.000000
vn 0.000000 1.000000 0.000000
vn 0.000000 1.000000 0.000000
vn 0.000000 1.000000 0.000000
vn 1.000000 0.000000 0.000000
vn 1.000000 0.000000 0.000000
vn 1.000000 0.000000 0.000000
vn 1.000000 0.000000 0.000000
vn 0.809500 -0.587120 0.000000
vn 0.809500 -0.587120 0.000000
vn 0.809500 -0.587120 0.000000
vn 0.809500 -0.587120 0.000000
vn 1.000000 0.000000 0.000000
vn 1.000000 0.000000 0.000000
vn 1.000000 0.000000 0.000000
vn 1.000000 0.000000 0.000000
vn 0.850377 0.526174 0.000000
vn 0.850377 0.526174 0.000000
vn 0.850377 0.526174 0.000000
vn 0.850377 0.526174 0.000000
vn -1.000000 0.000000 0.000000
vn -1.000000 0.000000 0.000000
vn -1.000000 0.000000 0.000000
vn -1.000000 0.000000 0.000000
vn 1.000000 0.000000 0.000000
vn 1.000000 0.000000 0.000000
vn 1.000000 0.000000 0.000000
vn 1.000000 0.000000 0.000000
vn -1.000000 0.000000 0.000000
vn -1.000000 0.000000 0.000000
vn -1.000000 0.000000 0.000000
vn -1.000000 0.000000 0.000000
s off
f 18/33/1 19/83/2 8/15/3 7/14/4
f 19/84/5 20/69/6 9/16/7 8/118/8
f 20/70/9 15/72/10 10/17/11 9/116/12
f 15/73/13 16/75/14 11/18/15 10/125/16
f 16/76/17 17/78/18 12/19/19 11/123/20
f 17/79/21 18/81/22 7/20/23 12/121/24
f 2/2/25 1/146/26 13/131/27
f 3/3/28 2/145/29 13/132/30
f 4/4/31 3/143/32 13/133/33
f 5/5/34 4/141/35 13/134/36
f 6/6/37 5/139/38 13/135/39
f 1/1/40 6/137/41 13/27/42
f 7/119/43 8/24/44 14/129/45
f 8/117/46 9/23/47 14/128/48
f 9/115/49 10/22/50 14/127/51
f 10/124/52 11/21/53 14/126/54
f 11/122/55 12/26/56 14/28/57
f 12/120/58 7/25/59 14/130/60
f 21/101/61 22/113/62 30/93/63 31/90/64
f 22/114/65 23/110/66 29/95/67 30/92/68
f 23/111/69 24/107/70 28/97/71 29/94/72
f 24/108/73 25/105/74 27/88/75 28/96/76
f 25/106/77 26/99/78 32/87/79 27/43/80
f 26/100/81 21/36/82 31/91/83 32/86/84
f 4/140/85 5/11/86 22/112/87 21/102/88
f 5/138/89 6/12/90 23/109/91 22/37/92
f 6/136/93 1/13/94 24/39/95 23/38/96
f 1/7/97 2/8/98 25/104/99 24/40/100
f 2/144/101 3/9/102 26/98/103 25/41/104
f 3/142/105 4/10/106 21/103/107 26/42/108
f 28/45/109 27/89/110 33/50/111 34/67/112
f 29/46/113 28/44/114 34/68/115 35/66/116
f 30/47/117 29/46/118 35/66/119 36/64/120
f 31/48/121 30/47/122 36/64/123 37/62/124
f 32/49/125 31/48/126 37/62/127 38/58/128
f 27/89/129 32/49/130 38/58/131 33/50/132
f 34/52/133 33/59/134 19/34/135 18/82/136
f 35/65/137 34/51/138 18/32/139 17/80/140
f 36/63/141 35/53/142 17/31/143 16/77/144
f 37/61/145 36/54/146 16/30/147 15/74/148
f 38/57/149 37/55/150 15/29/151 20/71/152
f 33/60/153 38/56/154 20/35/155 19/85/156
f 39/147/157 40/148/158 42/149/159 41/150/160
f 89/151/161 90/152/162 91/153/163 92/154/164
f 43/155/165 44/156/166 46/157/167 45/158/168
f 45/158/169 46/157/170 40/148/171 39/147/172
f 47/159/173 49/160/174 50/161/175 48/162/176
f 54/163/177 51/164/178 52/165/179 53/166/180
f 46/157/181 47/159/182 48/162/183 40/148/184
f 46/157/185 44/156/186 49/160/187 47/159/188
f 49/160/189 44/156/190 42/149/191 50/161/192
f 42/149/193 40/148/194 48/162/195 50/161/196
f 51/164/197 45/158/198 39/147/199 52/165/200
f 39/147/201 41/150/202 53/166/203 52/165/204
f 43/155/205 54/163/206 53/166/207 41/150/208
f 43/155/209 45/158/210 51/164/211 54/163/212
f 41/150/213 42/149/214 56/167/215 55/168/216
f 42/149/217 44/156/218 57/169/219 56/167/220
f 44/156/221 43/155/222 58/170/223 57/169/224
f 58/170/225 43/155/226 41/150/227 55/168/228
f 93/171/229 94/172/230 90/152/231 89/151/232
f 56/173/233 63/174/234 60/175/235
f 57/176/236 58/177/237 62/178/238 61/179/239
f 64/180/240 55/181/241 59/182/242
f 57/176/243 61/179/244 63/174/245 56/173/246
f 64/180/247 63/174/248 65/183/249 66/184/250
f 61/179/251 67/185/252 65/183/253 63/174/254
f 61/179/255 62/178/256 68/186/257 67/185/258
f 73/187/259 74/188/260 69/189/261 70/190/262
f 75/191/263 76/192/264 72/193/265 71/194/266
f 77/195/267 78/196/268 74/188/269 73/187/270
f 79/197/271 80/198/272 76/192/273 75/191/274
f 81/199/275 82/200/276 78/201/277 77/202/278
f 83/203/279 84/204/280 80/205/281 79/206/282
f 85/207/283 86/208/284 82/209/285 81/210/286
f 87/211/287 88/212/288 84/213/289 83/214/290
f 66/215/291 65/216/292 86/208/293 85/207/294
f 67/217/295 68/218/296 88/212/297 87/211/298
f 60/175/299 63/174/300 91/153/301 90/152/302
f 63/174/303 64/180/304 92/154/305 91/153/306
f 64/180/307 59/182/308 89/151/309 92/154/310
f 55/181/311 56/173/312 94/172/313 93/171/314
f 56/173/315 60/175/316 90/152/317 94/172/318
f 59/182/319 55/181/320 93/171/321 89/151/322
f 68/186/323 62/178/324 64/180/325 66/184/326
f 84/213/327 88/212/328 85/207/329 81/210/330
f 80/219/331 84/220/332 81/221/333 77/222/334
f 76/192/335 80/198/336 77/195/337 73/187/338
f 72/193/339 76/192/340 73/187/341 70/190/342
f 71/194/343 72/193/344 70/190/345 69/189/346
f 75/191/347 71/194/348 69/189/349 74/188/350
f 79/197/351 75/191/352 74/188/353 78/196/354
f 83/223/355 79/224/356 78/225/357 82/226/358
f 87/211/359 83/214/360 82/209/361 86/208/362
f 88/212/363 68/218/364 66/215/365 85/207/366
f 67/217/367 87/211/368 86/208/369 65/216/370
f 62/178/371 58/177/372 55/181/373 64/180/374
