# This file uses meters as units for non-parametric coordinates.

v -71.624451 55.378113 -62.744141
v 71.624451 55.378113 -62.744141
v -71.624451 148.211365 -62.744141
v 71.624451 148.211365 -62.744141
v -91.188965 69.551697 -62.744141
v 91.188965 69.551697 -62.744141
v 91.188965 134.889832 -62.744141
v -91.188965 134.889832 -62.744141
v -91.188965 4.148865 74.243164
v 91.188965 4.148865 74.243164
v 91.188965 134.889832 74.243164
v -91.188965 134.889832 74.243164
v -71.624451 -35.207825 74.243164
v 71.624451 -35.207825 74.243164
v -71.624451 148.211365 74.243164
v 71.624451 148.211365 74.243164
v 79.816437 79.637146 -74.243164
v 79.816437 124.889832 -74.243164
v -79.816437 124.889832 -74.243164
v -79.816437 79.637146 -74.243164
v 62.691803 137.688904 -74.243164
v -62.691803 137.688904 -74.243164
v -62.691803 65.899353 -74.243164
v 62.691803 65.899353 -74.243164
v -66.243439 109.934998 -38.303223
v 66.243439 109.934998 -38.303223
v 66.243439 94.272156 -38.303223
v -66.243439 94.272156 -38.303223
v -52.982635 121.486511 -38.303223
v 52.982635 121.486511 -38.303223
v -52.982635 82.102966 -38.303223
v 52.982635 82.102966 -38.303223
v 71.890259 118.628845 -74.243164
v 71.890259 85.721130 -74.243164
v -71.890259 118.628845 -74.243164
v -71.890259 85.721130 -74.243164
v -56.466217 129.025574 -74.243164
v 56.466217 129.025574 -74.243164
v -56.466217 74.563904 -74.243164
v 56.466217 74.563904 -74.243164
v 91.188965 134.889832 105.690918
v -91.188965 134.889832 105.690918
v -91.188965 4.148865 105.690918
v 91.188965 4.148865 105.690918
v -71.624451 -35.207825 105.690918
v 71.624451 -35.207825 105.690918
v 71.624451 148.211365 105.690918
v -71.624451 148.211365 105.690918
vt 0.234886 0.231487
vt 0.234886 0.231487
vt 0.234886 0.231487
vt 0.234886 0.231487
vt 0.234886 0.231487
vt 0.234886 0.231487
vt 0.234886 0.231487
vt 0.234886 0.231487
vt 0.245355 0.354169
vt 0.245355 0.354169
vt 0.245355 0.354169
vt 0.245355 0.354169
vt 0.245355 0.354169
vt 0.245355 0.354169
vt 0.245355 0.354169
vt 0.245355 0.354169
vt 0.245355 0.354169
vt 0.245355 0.354169
vt 0.245355 0.354169
vt 0.245355 0.354169
vt 0.245355 0.354169
vt 0.245355 0.354169
vt 0.245355 0.354169
vt 0.245355 0.354169
vt 0.245355 0.354169
vt 0.245355 0.354169
vt 0.245355 0.354169
vt 0.245355 0.354169
vt 0.245355 0.354169
vt 0.245355 0.354169
vt 0.245355 0.354169
vt 0.245355 0.354169
vt 0.245355 0.354169
vt 0.245355 0.354169
vt 0.245355 0.354169
vt 0.245355 0.354169
vt 0.245355 0.354169
vt 0.245355 0.354169
vt 0.245355 0.354169
vt 0.245355 0.354169
vt 0.245452 0.280856
vt 0.245452 0.280856
vt 0.245452 0.280856
vt 0.245452 0.280856
vt 0.245452 0.280856
vt 0.245452 0.280856
vt 0.245452 0.280856
vt 0.245452 0.280856
vt 0.245452 0.280856
vt 0.245452 0.280856
vt 0.245452 0.280856
vt 0.245452 0.280856
vt 0.245452 0.280856
vt 0.245452 0.280856
vt 0.245452 0.280856
vt 0.245452 0.280856
vt 0.245452 0.280856
vt 0.245452 0.280856
vt 0.245452 0.280856
vt 0.245452 0.280856
vt 0.245452 0.280856
vt 0.245452 0.280856
vt 0.245452 0.280856
vt 0.245452 0.280856
vn 0.000000 0.000000 -1.000000
vn 0.000000 0.000000 -1.000000
vn 0.000000 0.000000 -1.000000
vn 0.000000 0.000000 -1.000000
vn 0.000000 0.000000 -1.000000
vn 0.000000 0.000000 -1.000000
vn 0.000000 0.000000 -1.000000
vn 0.000000 0.000000 -1.000000
vn 0.000000 0.000000 -1.000000
vn 0.000000 0.000000 -1.000000
vn 0.000000 0.000000 -1.000000
vn 0.000000 0.000000 -1.000000
vn 0.711007 0.000000 -0.703185
vn 0.711007 0.000000 -0.703185
vn 0.711007 0.000000 -0.703185
vn 0.711007 0.000000 -0.703185
vn -0.711007 0.000000 -0.703185
vn -0.711007 0.000000 -0.703185
vn -0.711007 0.000000 -0.703185
vn -0.711007 0.000000 -0.703185
vn 0.000000 0.737739 -0.675086
vn 0.000000 0.737739 -0.675086
vn 0.000000 0.737739 -0.675086
vn 0.000000 0.737739 -0.675086
vn 0.364257 0.511637 -0.778168
vn 0.364257 0.511637 -0.778168
vn 0.364257 0.511637 -0.778168
vn 0.364257 0.511637 -0.778168
vn -0.364257 0.511637 -0.778168
vn -0.364257 0.511637 -0.778168
vn -0.364256 0.511637 -0.778168
vn -0.364256 0.511637 -0.778168
vn 0.000000 -0.737778 -0.675043
vn 0.000000 -0.737778 -0.675043
vn 0.000000 -0.737778 -0.675043
vn 0.000000 -0.737778 -0.675043
vn -0.378657 -0.497740 -0.780304
vn -0.378657 -0.497740 -0.780304
vn -0.378657 -0.497740 -0.780304
vn -0.378657 -0.497740 -0.780304
vn 0.378657 -0.497740 -0.780304
vn 0.378657 -0.497740 -0.780304
vn 0.378657 -0.497740 -0.780304
vn 0.378657 -0.497740 -0.780304
vn -0.987881 0.000000 -0.155214
vn -0.987881 0.000000 -0.155214
vn -0.987881 0.000000 -0.155214
vn -0.987881 0.000000 -0.155214
vn 0.987881 0.000000 -0.155214
vn 0.987881 0.000000 -0.155214
vn 0.987881 0.000000 -0.155214
vn 0.987881 0.000000 -0.155214
vn 0.000000 -0.978699 -0.205300
vn 0.000000 -0.978699 -0.205300
vn 0.000000 -0.978699 -0.205300
vn 0.000000 -0.978699 -0.205300
vn -0.588612 -0.769276 -0.248496
vn -0.588612 -0.769276 -0.248496
vn -0.588612 -0.769276 -0.248496
vn -0.588612 -0.769276 -0.248496
vn 0.588612 -0.769276 -0.248496
vn 0.588612 -0.769276 -0.248496
vn 0.588612 -0.769276 -0.248496
vn 0.588612 -0.769276 -0.248496
vn 0.000000 0.978699 -0.205300
vn 0.000000 0.978699 -0.205300
vn 0.000000 0.978699 -0.205300
vn 0.000000 0.978699 -0.205300
vn 0.611528 0.752005 -0.246012
vn 0.611528 0.752005 -0.246012
vn 0.611528 0.752005 -0.246012
vn 0.611528 0.752005 -0.246012
vn -0.611528 0.752005 -0.246012
vn -0.611528 0.752005 -0.246012
vn -0.611528 0.752005 -0.246012
vn -0.611528 0.752005 -0.246012
vn 1.000000 0.000000 0.000000
vn 1.000000 0.000000 0.000000
vn 1.000000 0.000000 0.000000
vn 1.000000 0.000000 0.000000
vn -1.000000 0.000000 0.000000
vn -1.000000 0.000000 0.000000
vn -1.000000 0.000000 0.000000
vn -1.000000 0.000000 0.000000
vn 0.000000 -0.834121 -0.551581
vn 0.000000 -0.834121 -0.551581
vn 0.000000 -0.834121 -0.551581
vn 0.000000 -0.834121 -0.551581
vn 0.765273 -0.559392 -0.318492
vn 0.765273 -0.559392 -0.318492
vn 0.765273 -0.559392 -0.318492
vn 0.765273 -0.559392 -0.318493
vn -0.765273 -0.559392 -0.318493
vn -0.765273 -0.559392 -0.318493
vn -0.765273 -0.559392 -0.318493
vn -0.765273 -0.559392 -0.318493
vn 0.000000 1.000000 0.000000
vn 0.000000 1.000000 0.000000
vn 0.000000 1.000000 0.000000
vn 0.000000 1.000000 0.000000
vn -0.562820 0.826579 0.000000
vn -0.562820 0.826579 0.000000
vn -0.562820 0.826579 0.000000
vn -0.562820 0.826579 0.000000
vn 0.562820 0.826579 0.000000
vn 0.562820 0.826579 0.000000
vn 0.562820 0.826579 0.000000
vn 0.562820 0.826579 0.000000
vn 0.000000 0.000000 -1.000000
vn 0.000000 0.000000 -1.000000
vn 0.000000 0.000000 -1.000000
vn 0.000000 0.000000 -1.000000
vn 0.000000 0.000000 -1.000000
vn 0.000000 0.000000 -1.000000
vn 0.000000 0.000000 -1.000000
vn 0.000000 0.000000 -1.000000
vn 0.000000 0.000000 -1.000000
vn 0.000000 0.000000 -1.000000
vn 0.000000 0.000000 -1.000000
vn 0.000000 0.000000 -1.000000
vn 0.000000 0.000000 -1.000000
vn 0.000000 0.000000 -1.000000
vn 0.000000 0.000000 -1.000000
vn 0.000000 0.000000 -1.000000
vn 0.000000 0.000000 -1.000000
vn 0.000000 0.000000 -1.000000
vn 0.000000 0.000000 -1.000000
vn 0.000000 0.000000 -1.000000
vn 0.000000 0.000000 -1.000000
vn 0.000000 0.000000 -1.000000
vn 0.000000 0.000000 -1.000000
vn 0.000000 0.000000 -1.000000
vn 0.000000 0.000000 -1.000000
vn 0.000000 0.000000 -1.000000
vn 0.000000 0.000000 -1.000000
vn 0.000000 0.000000 -1.000000
vn 0.000000 0.000000 -1.000000
vn 0.000000 0.000000 -1.000000
vn 0.000000 0.000000 -1.000000
vn 0.000000 0.000000 -1.000000
vn 0.000000 0.000000 1.000000
vn 0.000000 0.000000 1.000000
vn 0.000000 0.000000 1.000000
vn 0.000000 0.000000 1.000000
vn 0.000000 0.000000 1.000000
vn 0.000000 0.000000 1.000000
vn 0.000000 0.000000 1.000000
vn 0.000000 0.000000 1.000000
vn 0.000000 0.000000 1.000000
vn 0.000000 0.000000 1.000000
vn 0.000000 0.000000 1.000000
vn 0.000000 0.000000 1.000000
vn -1.000000 0.000000 0.000000
vn -1.000000 0.000000 0.000000
vn -1.000000 0.000000 0.000000
vn -1.000000 0.000000 0.000000
vn 1.000000 0.000000 0.000000
vn 1.000000 0.000000 0.000000
vn 1.000000 0.000000 0.000000
vn 1.000000 0.000000 0.000000
vn -0.895461 -0.445141 0.000000
vn -0.895461 -0.445141 0.000000
vn -0.895461 -0.445141 0.000000
vn -0.895461 -0.445141 0.000000
vn 0.000000 -1.000000 0.000000
vn 0.000000 -1.000000 0.000000
vn 0.000000 -1.000000 0.000000
vn 0.000000 -1.000000 0.000000
vn 0.895461 -0.445141 0.000000
vn 0.895461 -0.445141 0.000000
vn 0.895461 -0.445141 0.000000
vn 0.895461 -0.445141 0.000000
vn 0.562820 0.826580 0.000000
vn 0.562820 0.826580 0.000000
vn 0.562820 0.826580 0.000000
vn 0.562820 0.826580 0.000000
vn 0.000000 1.000000 0.000000
vn 0.000000 1.000000 0.000000
vn 0.000000 1.000000 0.000000
vn 0.000000 1.000000 0.000000
vn -0.562820 0.826580 0.000000
vn -0.562820 0.826580 0.000000
vn -0.562820 0.826580 0.000000
vn -0.562820 0.826580 0.000000
s off
f 25/1/1 26/2/2 27/3/3 28/4/4
f 29/5/5 30/6/6 26/2/7 25/1/8
f 32/7/9 31/8/10 28/4/11 27/3/12
f 7/9/13 6/10/14 17/11/15 18/12/16
f 5/13/17 8/14/18 19/15/19 20/16/20
f 3/17/21 4/18/22 21/19/23 22/20/24
f 4/18/25 7/9/26 18/12/27 21/19/28
f 8/14/29 3/17/30 22/20/31 19/15/32
f 2/21/33 1/22/34 23/23/35 24/24/36
f 1/22/37 5/13/38 20/16/39 23/23/40
f 6/10/41 2/21/42 24/24/43 17/11/44
f 33/25/45 34/26/46 27/27/47 26/28/48
f 36/29/49 35/30/50 25/31/51 28/32/52
f 37/33/53 38/34/54 30/35/55 29/36/56
f 38/34/57 33/25/58 26/28/59 30/35/60
f 35/30/61 37/33/62 29/36/63 25/31/64
f 40/37/65 39/38/66 31/39/67 32/40/68
f 39/38/69 36/29/70 28/32/71 31/39/72
f 34/26/73 40/37/74 32/40/75 27/27/76
f 6/41/77 7/42/78 11/43/79 10/44/80
f 8/45/81 5/46/82 9/47/83 12/48/84
f 1/49/85 2/50/86 14/51/87 13/52/88
f 2/50/89 6/41/90 10/44/91 14/51/92
f 5/46/93 1/49/94 13/52/95 9/47/96
f 4/53/97 3/54/98 15/55/99 16/56/100
f 3/54/101 8/45/102 12/48/103 15/55/104
f 7/42/105 4/53/106 16/56/107 11/43/108
f 18/12/109 17/11/110 34/26/111 33/25/112
f 20/16/113 19/15/114 35/30/115 36/29/116
f 22/20/117 21/19/118 38/34/119 37/33/120
f 21/19/121 18/12/122 33/25/123 38/34/124
f 19/15/125 22/20/126 37/33/127 35/30/128
f 24/24/129 23/23/130 39/38/131 40/37/132
f 23/23/133 20/16/134 36/29/135 39/38/136
f 17/11/137 24/24/138 40/37/139 34/26/140
f 41/60/141 42/57/142 43/58/143 44/59/144
f 44/59/145 43/58/146 45/61/147 46/62/148
f 41/60/149 47/63/150 48/64/151 42/57/152
f 12/48/153 9/47/154 43/58/155 42/57/156
f 10/44/157 11/43/158 41/60/159 44/59/160
f 9/47/161 13/52/162 45/61/163 43/58/164
f 13/52/165 14/51/166 46/62/167 45/61/168
f 14/51/169 10/44/170 44/59/171 46/62/172
f 11/43/173 16/56/174 47/63/175 41/60/176
f 16/56/177 15/55/178 48/64/179 47/63/180
f 15/55/181 12/48/182 42/57/183 48/64/184
