# This file uses meters as units for non-parametric coordinates.

v -95.754906 162.507294 358.636475
v 6.593575 141.763885 358.636475
v -93.796135 193.421600 358.636475
v 20.661415 169.431122 358.636475
v -93.796135 193.421600 -152.554932
v 20.661415 169.431122 -152.554932
v -95.754906 162.507294 -152.554932
v 6.593575 141.763885 -152.554932
v 93.075058 -24.442200 -152.554932
v 93.075058 -24.442200 358.636475
v 129.067490 -13.175110 -139.283447
v 129.067490 -13.175110 358.636475
v 96.444199 -176.734680 -152.554932
v 96.444199 -176.734680 358.636475
v 132.436630 -176.734680 -139.283447
v 132.436630 -176.734680 358.636475
v -93.796135 193.421600 -348.822021
v 20.661415 169.431122 -348.822021
v 6.593575 141.763885 -358.636475
v -95.754906 162.507294 -358.636475
v -132.436584 162.507294 -129.971924
v -132.436584 162.507294 336.051025
v -130.477661 193.421600 336.051025
v -130.477661 193.421600 -129.971924
v -76.935173 189.886444 327.276611
v 3.800606 172.965057 327.276611
v 3.800606 172.965057 -316.998291
v -76.935173 189.886444 -316.998291
v -5.893456 174.997528 -331.988525
v -67.241264 187.855194 -331.988525
v -60.788017 186.502655 343.707275
v -12.346550 176.350067 343.707275
v -70.117546 196.236542 321.644287
v -55.836845 193.336151 337.789307
v -12.994438 184.638641 337.789307
v 1.286263 181.739471 321.644287
v -70.117546 196.236542 -311.341553
v 1.286263 181.739471 -311.341553
v -7.287193 183.480194 -326.072998
v -61.544090 194.495819 -326.072998
v 96.444199 -196.236633 -133.426514
v 96.444199 -196.236633 339.505615
v 132.436630 -196.236633 -121.136475
v 132.436630 -196.236633 339.505615
v 27.541145 157.842987 340.853271
v 26.609749 159.411591 -125.020752
v 122.060196 -1.370911 340.853271
v 121.128799 0.197693 -113.448486
v 25.678505 160.980194 -310.635986
v 129.239456 -29.322571 340.963135
v 129.239456 -29.322571 -121.610107
v 132.264511 -164.027161 340.963135
v 132.264511 -164.027161 -121.610107
v 132.264511 -180.087952 323.177490
v 132.264511 -180.087952 -104.739990
v 23.890785 108.521698 -50.311279
v 23.890785 108.521698 256.390381
v 75.777847 8.801208 -50.311279
v 75.777847 8.801208 256.390381
v -50.005241 70.070740 -50.311279
v -50.005241 70.070740 256.390381
v 1.881660 -29.648499 -50.311279
v 1.881660 -29.648499 256.390381
v -58.886925 46.959778 -27.484131
v -58.886925 46.959778 233.563232
v -21.727959 -24.453796 -27.484131
v -21.727959 -24.453796 233.563232
vt 0.244487 0.353770
vt 0.244487 0.353770
vt 0.244487 0.353770
vt 0.244487 0.353770
vt 0.234528 0.278137
vt 0.234528 0.278137
vt 0.234528 0.278137
vt 0.234528 0.278137
vt 0.244487 0.353770
vt 0.244487 0.353770
vt 0.244487 0.353770
vt 0.244487 0.353770
vt 0.244487 0.353770
vt 0.244487 0.353770
vt 0.244487 0.353770
vt 0.244487 0.353770
vt 0.244487 0.353770
vt 0.244487 0.353770
vt 0.244487 0.353770
vt 0.244487 0.353770
vt 0.244487 0.353770
vt 0.244487 0.353770
vt 0.244487 0.353770
vt 0.244487 0.353770
vt 0.244487 0.353770
vt 0.244487 0.353770
vt 0.244487 0.353770
vt 0.244487 0.353770
vt 0.285010 0.385455
vt 0.285010 0.385455
vt 0.285010 0.385455
vt 0.285010 0.385455
vt 0.244487 0.353770
vt 0.244487 0.353770
vt 0.244487 0.353770
vt 0.244487 0.353770
vt 0.244487 0.353770
vt 0.285010 0.385455
vt 0.285010 0.385455
vt 0.285010 0.385455
vt 0.285010 0.385455
vt 0.244487 0.353770
vt 0.234528 0.278137
vt 0.234528 0.278137
vt 0.234528 0.278137
vt 0.234528 0.278137
vt 0.244487 0.353770
vt 0.285010 0.385455
vt 0.244487 0.353770
vt 0.244487 0.353770
vt 0.244487 0.353770
vt 0.244487 0.353770
vt 0.244487 0.353770
vt 0.244487 0.353770
vt 0.244487 0.353770
vt 0.244487 0.353770
vt 0.244487 0.353770
vt 0.244487 0.353770
vt 0.244487 0.353770
vt 0.244487 0.353770
vt 0.234527 0.278137
vt 0.234528 0.278137
vt 0.234528 0.278137
vt 0.234528 0.278137
vt 0.234528 0.278137
vt 0.234528 0.278137
vt 0.234528 0.278137
vt 0.234527 0.278137
vt 0.285010 0.385455
vt 0.285010 0.385455
vt 0.244487 0.353770
vt 0.244487 0.353770
vt 0.244487 0.353770
vt 0.244487 0.353770
vt 0.244487 0.353770
vt 0.244487 0.353770
vt 0.244487 0.353770
vt 0.244487 0.353770
vt 0.244487 0.353770
vt 0.244487 0.353770
vt 0.244487 0.353770
vt 0.244487 0.353770
vt 0.244487 0.353770
vt 0.244487 0.353770
vt 0.244487 0.353770
vt 0.244487 0.353770
vt 0.233603 0.255035
vt 0.233603 0.255035
vt 0.233603 0.255035
vt 0.233603 0.255035
vt 0.233603 0.255035
vt 0.233603 0.255035
vt 0.233603 0.255035
vt 0.233603 0.255035
vt 0.233603 0.255035
vt 0.233603 0.255035
vt 0.233603 0.255035
vt 0.233603 0.255035
vn 0.000000 0.000000 1.000000
vn 0.000000 0.000000 1.000000
vn 0.000000 0.000000 1.000000
vn 0.000000 0.000000 1.000000
vn 0.198964 0.980007 0.000037
vn 0.198964 0.980007 0.000037
vn 0.198964 0.980007 0.000037
vn 0.198964 0.980007 0.000037
vn 0.062258 0.301738 -0.951356
vn 0.062258 0.301738 -0.951356
vn 0.062258 0.301738 -0.951356
vn 0.062258 0.301738 -0.951356
vn -0.198636 -0.980073 0.000000
vn -0.198636 -0.980073 0.000000
vn -0.198636 -0.980073 0.000000
vn -0.198636 -0.980073 0.000000
vn 0.000000 -1.000000 0.000000
vn 0.000000 -1.000000 0.000000
vn 0.000000 -1.000000 0.000000
vn 0.000000 -1.000000 0.000000
vn -0.997998 0.063239 0.000000
vn -0.997998 0.063239 0.000000
vn -0.997998 0.063239 0.000000
vn -0.997998 0.063239 0.000000
vn 0.629797 -0.423777 -0.650975
vn 0.629797 -0.423777 -0.650975
vn 0.629797 -0.423777 -0.650975
vn 0.629797 -0.423777 -0.650975
vn 0.859888 0.510482 -0.000000
vn 0.859888 0.510482 -0.000000
vn 0.859888 0.510482 -0.000000
vn 0.859888 0.510482 -0.000000
vn 0.000001 0.000000 1.000000
vn 0.000001 0.000000 1.000000
vn 0.000001 0.000000 1.000000
vn 0.000001 0.000000 1.000000
vn -0.999755 -0.022117 0.000000
vn -0.999755 -0.022117 0.000000
vn -0.999755 -0.022117 0.000000
vn -0.999755 -0.022117 0.000000
vn 0.344937 0.007359 -0.938597
vn 0.344937 0.007359 -0.938597
vn 0.344937 0.007359 -0.938597
vn 0.344937 0.007359 -0.938597
vn 0.999748 0.022451 0.000000
vn 0.999748 0.022451 0.000000
vn 0.999748 0.022451 0.000000
vn 0.999748 0.022451 0.000000
vn 0.000000 0.000000 1.000000
vn 0.000000 0.000000 1.000000
vn 0.000000 0.000000 1.000000
vn 0.000000 0.000000 1.000000
vn 0.198969 0.980006 -0.000001
vn 0.198969 0.980006 -0.000001
vn 0.198969 0.980006 -0.000001
vn 0.198969 0.980006 -0.000001
vn -0.198636 -0.980073 0.000000
vn -0.198636 -0.980073 0.000000
vn -0.198636 -0.980073 0.000000
vn -0.198636 -0.980073 0.000000
vn -0.997999 0.063235 0.000000
vn -0.997999 0.063235 0.000000
vn -0.997999 0.063235 0.000000
vn -0.997999 0.063235 0.000000
vn 0.859888 0.510482 -0.000000
vn 0.859888 0.510482 -0.000000
vn 0.859888 0.510482 -0.000000
vn -0.887098 -0.461581 0.000000
vn -0.887098 -0.461581 0.000000
vn -0.887098 -0.461581 0.000000
vn 0.000000 -1.000000 0.000000
vn 0.000000 -1.000000 0.000000
vn 0.000000 -1.000000 0.000000
vn 0.000000 -1.000000 0.000000
vn -0.524013 0.033203 0.851063
vn -0.524013 0.033203 0.851063
vn -0.524013 0.033203 0.851063
vn -0.524013 0.033203 0.851063
vn 0.000000 1.000000 0.000000
vn 0.000000 1.000000 0.000000
vn 0.000000 1.000000 0.000000
vn 0.000000 1.000000 0.000000
vn -0.523972 0.033201 -0.851088
vn -0.523972 0.033201 -0.851088
vn -0.523972 0.033201 -0.851088
vn -0.523972 0.033201 -0.851088
vn 0.205139 0.978733 0.000001
vn 0.205139 0.978733 0.000001
vn 0.205139 0.978733 0.000001
vn 0.205139 0.978733 0.000001
vn 0.205137 0.978733 0.000000
vn 0.205137 0.978733 0.000000
vn 0.205137 0.978733 0.000000
vn 0.205137 0.978733 0.000000
vn 0.205203 0.978719 0.000000
vn 0.205203 0.978719 0.000000
vn 0.205203 0.978719 0.000000
vn 0.205203 0.978719 0.000000
vn 0.205137 0.978733 0.000000
vn 0.205137 0.978733 0.000000
vn 0.205137 0.978733 0.000000
vn 0.205139 0.978733 0.000001
vn 0.205139 0.978733 0.000001
vn 0.205139 0.978733 0.000001
vn 0.205139 0.978733 0.000001
vn 0.205203 0.978719 0.000000
vn 0.205203 0.978719 0.000000
vn 0.205203 0.978719 0.000000
vn 0.205162 0.978728 -0.000013
vn 0.205162 0.978728 -0.000013
vn 0.205162 0.978728 -0.000013
vn 0.205139 0.978733 -0.000037
vn 0.205139 0.978733 -0.000037
vn 0.205139 0.978733 -0.000037
vn 0.198970 0.980006 0.000000
vn 0.198970 0.980006 0.000000
vn 0.198970 0.980006 0.000000
vn 0.198970 0.980006 0.000000
vn 0.205172 0.978726 0.000018
vn 0.205172 0.978726 0.000018
vn 0.205172 0.978726 0.000018
vn 0.205138 0.978733 0.000036
vn 0.205138 0.978733 0.000036
vn 0.205138 0.978733 0.000036
vn -0.377644 0.777580 0.502747
vn -0.377644 0.777580 0.502747
vn -0.377644 0.777580 0.502747
vn -0.377644 0.777580 0.502747
vn 0.121841 0.590026 0.798138
vn 0.121841 0.590026 0.798138
vn 0.121841 0.590026 0.798138
vn 0.121841 0.590026 0.798138
vn 0.681311 0.492711 0.541342
vn 0.681311 0.492711 0.541342
vn 0.681311 0.492711 0.541342
vn 0.681311 0.492711 0.541342
vn 0.781382 0.459854 -0.421873
vn 0.781382 0.459854 -0.421873
vn 0.781382 0.459854 -0.421873
vn 0.781382 0.459854 -0.421873
vn 0.121806 0.589840 -0.798281
vn 0.121806 0.589840 -0.798281
vn 0.121806 0.589840 -0.798281
vn 0.121806 0.589840 -0.798281
vn -0.466661 0.794932 -0.387700
vn -0.466661 0.794932 -0.387700
vn -0.466661 0.794932 -0.387700
vn -0.466661 0.794932 -0.387700
vn 0.961311 0.275467 0.000000
vn 0.961311 0.275467 0.000000
vn 0.961311 0.275467 0.000000
vn 0.961311 0.275467 0.000000
vn -0.681571 0.731752 0.000000
vn -0.681571 0.731752 0.000000
vn -0.681571 0.731752 0.000000
vn -0.681571 0.731752 0.000000
vn -1.000000 0.000000 0.000000
vn -1.000000 0.000000 0.000000
vn -1.000000 0.000000 0.000000
vn -1.000000 0.000000 0.000000
vn 0.248652 -0.669207 -0.700239
vn 0.248652 -0.669207 -0.700239
vn 0.248652 -0.669207 -0.700239
vn 0.248652 -0.669207 -0.700239
vn 1.000000 0.000000 0.000000
vn 1.000000 0.000000 0.000000
vn 1.000000 0.000000 0.000000
vn 1.000000 0.000000 0.000000
vn 0.000000 -0.700282 0.713866
vn 0.000000 -0.700282 0.713866
vn 0.000000 -0.700282 0.713866
vn 0.000000 -0.700282 0.713866
vn 0.859881 0.510495 -0.000000
vn 0.859881 0.510495 -0.000000
vn 0.859881 0.510495 -0.000000
vn 0.859881 0.510495 -0.000000
vn 0.859889 0.510482 0.000017
vn 0.859888 0.510482 0.000017
vn 0.859888 0.510482 0.000017
vn 0.859889 0.510482 0.000017
vn 0.859898 0.510466 -0.000000
vn 0.859898 0.510466 -0.000000
vn 0.859898 0.510466 -0.000000
vn 0.859898 0.510466 -0.000000
vn 0.859891 0.510478 -0.000004
vn 0.859891 0.510478 -0.000004
vn 0.859891 0.510478 -0.000004
vn 0.859891 0.510478 -0.000004
vn 0.859884 0.510490 0.000000
vn 0.859884 0.510490 0.000000
vn 0.859884 0.510490 0.000000
vn 0.859884 0.510490 0.000000
vn 0.999943 0.010649 0.000000
vn 0.999943 0.010649 0.000000
vn 0.999943 0.010649 0.000000
vn 0.999943 0.010649 0.000000
vn 0.999768 0.021433 -0.002090
vn 0.999768 0.021433 -0.002090
vn 0.999768 0.021433 -0.002090
vn 0.999768 0.021433 -0.002090
vn 0.999768 0.021433 0.002090
vn 0.999768 0.021433 0.002090
vn 0.999768 0.021433 0.002090
vn 0.999768 0.021433 0.002090
vn 0.999970 0.005587 -0.005382
vn 0.999970 0.005587 -0.005382
vn 0.999970 0.005587 -0.005382
vn 0.999970 0.005587 -0.005382
vn 0.999943 0.010658 0.000000
vn 0.999943 0.010658 0.000000
vn 0.999943 0.010658 0.000000
vn 0.999943 0.010658 0.000000
vn 0.999970 0.005424 0.005509
vn 0.999970 0.005424 0.005509
vn 0.999970 0.005424 0.005509
vn 0.999970 0.005424 0.005509
vn -0.887094 -0.461590 0.000000
vn -0.887094 -0.461590 0.000000
vn -0.887094 -0.461589 0.000000
vn -0.887094 -0.461590 0.000000
vn -0.887098 -0.461580 0.000003
vn -0.887098 -0.461581 0.000003
vn -0.887098 -0.461581 0.000003
vn -0.887098 -0.461580 0.000003
vn -0.887101 -0.461576 0.000000
vn -0.887101 -0.461576 0.000000
vn -0.887101 -0.461576 0.000000
vn -0.887101 -0.461576 0.000000
vn -0.887098 -0.461580 -0.000003
vn -0.887098 -0.461580 -0.000003
vn -0.887098 -0.461580 -0.000003
vn -0.887098 -0.461580 -0.000003
vn -0.461589 0.887094 0.000000
vn -0.461589 0.887094 0.000000
vn -0.461589 0.887094 0.000000
vn -0.461589 0.887094 0.000000
vn -0.000000 0.000000 -1.000000
vn -0.000000 0.000000 -1.000000
vn -0.000000 0.000000 -1.000000
vn -0.000000 0.000000 -1.000000
vn 0.461577 -0.887100 0.000000
vn 0.461577 -0.887100 0.000000
vn 0.461577 -0.887100 0.000000
vn 0.461577 -0.887100 0.000000
vn -0.000000 0.000000 1.000000
vn -0.000000 0.000000 1.000000
vn -0.000000 0.000000 1.000000
vn -0.000000 0.000000 1.000000
vn -0.882783 -0.459342 0.098486
vn -0.882783 -0.459342 -0.098486
vn -0.882868 -0.459386 -0.097515
vn -0.882867 -0.459386 0.097515
vn -0.933442 0.358728 0.000000
vn -0.933442 0.358728 0.000000
vn -0.933442 0.358728 0.000000
vn -0.933442 0.358728 0.000000
vn -0.688498 -0.358247 -0.630579
vn -0.688498 -0.358247 -0.630579
vn -0.882868 -0.459386 -0.097515
vn -0.882783 -0.459342 -0.098486
vn -0.214885 -0.976639 0.000000
vn -0.214885 -0.976639 0.000000
vn -0.214885 -0.976639 0.000000
vn -0.214885 -0.976639 0.000000
vn -0.688497 -0.358248 0.630579
vn -0.688497 -0.358248 0.630579
vn -0.882783 -0.459342 0.098486
vn -0.882867 -0.459386 0.097515
s off
f 1/1/1 2/2/2 4/3/3 3/4/4
f 33/5/5 34/6/6 35/7/7 36/8/8
f 17/9/9 18/10/10 19/11/11 20/12/12
f 7/13/13 8/14/14 2/15/15 1/16/16
f 42/17/17 41/18/18 43/19/19 44/20/20
f 21/21/21 22/22/22 23/23/23 24/24/24
f 19/25/25 18/26/26 11/27/27 9/28/28
f 46/29/29 45/30/30 47/31/31 48/32/32
f 4/3/33 2/2/34 10/33/35 12/34/36
f 10/33/37 9/28/38 13/35/39 14/36/40
f 9/28/41 11/27/42 15/37/43 13/35/44
f 51/38/45 50/39/46 52/40/47 53/41/48
f 12/34/49 10/33/50 14/36/51 16/42/52
f 37/43/53 38/44/54 39/45/55 40/46/56
f 8/14/57 7/13/58 20/12/59 19/11/60
f 7/13/61 5/47/62 17/9/63 20/12/64
f 46/29/65 48/32/66 49/48/67
f 9/28/68 8/49/69 19/25/70
f 7/50/71 1/1/72 22/22/73 21/21/74
f 1/1/75 3/4/76 23/23/77 22/22/78
f 3/4/79 5/51/80 24/24/81 23/23/82
f 5/51/83 7/50/84 21/21/85 24/24/86
f 3/4/87 4/3/88 32/52/89 31/53/90
f 4/3/91 6/54/92 27/55/93 26/56/94
f 5/47/95 3/4/96 25/57/97 28/58/98
f 6/54/99 18/10/100 27/55/101
f 18/10/102 17/9/103 30/59/104 29/60/105
f 17/9/106 5/47/107 28/58/108
f 32/52/109 4/3/110 26/56/111
f 3/4/112 31/53/113 25/57/114
f 33/5/115 36/8/116 38/44/117 37/43/118
f 27/55/119 18/10/120 29/60/121
f 17/9/122 28/58/123 30/59/124
f 25/61/125 31/62/126 34/6/127 33/5/128
f 31/62/129 32/63/130 35/7/131 34/6/132
f 32/63/133 26/64/134 36/8/135 35/7/136
f 27/65/137 29/66/138 39/45/139 38/44/140
f 29/66/141 30/67/142 40/46/143 39/45/144
f 30/67/145 28/68/146 37/43/147 40/46/148
f 26/64/149 27/65/150 38/44/151 36/8/152
f 28/68/153 25/61/154 33/5/155 37/43/156
f 14/36/157 13/35/158 41/18/159 42/17/160
f 13/35/161 15/37/162 43/19/163 41/18/164
f 53/41/165 52/40/166 54/69/167 55/70/168
f 16/42/169 14/36/170 42/17/171 44/20/172
f 6/71/173 4/3/174 45/72/175 46/73/176
f 4/3/177 12/34/178 47/74/179 45/72/180
f 12/34/181 11/27/182 48/75/183 47/74/184
f 11/27/185 18/26/186 49/76/187 48/75/188
f 18/26/189 6/71/190 46/73/191 49/76/192
f 11/27/193 12/34/194 50/77/195 51/78/196
f 12/34/197 16/42/198 52/79/199 50/77/200
f 15/37/201 11/27/202 51/78/203 53/80/204
f 16/42/205 44/20/206 54/81/207 52/79/208
f 44/20/209 43/19/210 55/82/211 54/81/212
f 43/19/213 15/37/214 53/80/215 55/82/216
f 2/2/217 8/49/218 56/83/219 57/84/220
f 8/49/221 9/28/222 58/85/223 56/83/224
f 9/28/225 10/33/226 59/86/227 58/85/228
f 10/33/229 2/2/230 57/84/231 59/86/232
f 57/87/233 56/88/234 60/89/235 61/90/236
f 56/88/237 58/91/238 62/92/239 60/89/240
f 58/91/241 59/93/242 63/94/243 62/92/244
f 59/93/245 57/87/246 61/90/247 63/94/248
f 65/95/249 64/96/250 66/97/251 67/98/252
f 61/90/253 60/89/254 64/96/255 65/95/256
f 60/89/257 62/92/258 66/97/259 64/96/260
f 62/92/261 63/94/262 67/98/263 66/97/264
f 63/94/265 61/90/266 65/95/267 67/98/268
