# This file uses meters as units for non-parametric coordinates.

v -182.050781 0.000000 -455.010986
v 182.050751 0.000000 455.010986
v -182.050781 0.000000 455.010986
v 182.050751 0.000000 -455.010986
v -151.743164 170.431274 -342.276611
v 151.748047 170.431274 -342.276611
v 151.748047 170.431274 252.728271
v -151.743164 170.431274 252.728271
v 193.348358 59.763794 465.162354
v 120.405273 68.385010 383.509521
v -120.404053 68.385010 383.509521
v -99.863281 132.930298 239.075928
v 99.863281 132.930298 239.075928
v -193.348389 59.763794 -465.162354
v -193.348389 59.763794 465.162354
v 193.348358 59.763794 -465.162354
v -152.019058 85.350952 432.034912
v 152.019043 85.350952 432.034912
v -117.391357 160.983276 272.135010
v 117.392578 160.983276 272.135010
v -139.228516 282.178345 20.657959
v 139.233398 282.178345 20.657959
v 139.233398 282.178345 252.728271
v -139.228516 282.178345 252.728271
v 107.709961 254.836792 272.135010
v -107.709946 254.836792 272.135010
v 91.628418 209.549927 239.075928
v -91.628418 209.549927 239.075928
v 84.071045 59.120239 359.178467
v 67.451172 58.894409 359.151611
v 67.233887 138.670654 347.869873
v 83.854980 138.896484 347.896729
v 61.694336 98.820801 290.540771
v 88.107910 99.179688 290.582275
v 65.078125 232.435913 175.416260
v 81.699219 232.661743 175.443115
v 60.012207 151.980591 154.315186
v 86.425781 152.339233 154.359131
v 35.229492 58.455811 359.100342
v 18.608398 58.229980 359.073486
v 18.391113 138.006592 347.789307
v 35.012207 138.232422 347.816162
v 12.851563 98.157349 290.460205
v 39.265137 98.516235 290.501709
v 16.236572 231.771606 175.338135
v 32.857666 231.997070 175.364990
v 11.169434 151.316284 154.234619
v 37.583008 151.675415 154.281006
v -14.108887 57.785034 359.019775
v -30.729980 57.559204 358.992920
v -30.946045 137.335815 347.708740
v -14.324951 137.562256 347.735596
v -36.486816 97.486572 290.379639
v -10.073242 97.845459 290.423584
v -33.100586 231.100830 175.257568
v -16.479492 231.326660 175.284424
v -38.168945 150.645752 154.154053
v -11.754150 151.004395 154.200439
v -62.951660 57.121582 358.939209
v -79.572754 56.895142 358.912354
v -79.787598 136.672363 347.630615
v -63.167725 136.897339 347.657471
v -85.329590 96.821899 290.301514
v -58.916016 97.181396 290.343018
v -81.944580 230.436401 175.177002
v -65.322266 230.662231 175.203857
v -87.010498 149.981079 154.075928
v -60.596924 150.340576 154.119873
vt 0.245728 0.351868
vt 0.245728 0.351868
vt 0.245728 0.351868
vt 0.245728 0.351868
vt 0.080719 0.230225
vt 0.080719 0.230225
vt 0.080719 0.230225
vt 0.080719 0.230225
vt 0.245728 0.351929
vt 0.245728 0.351868
vt 0.245728 0.351868
vt 0.245728 0.351929
vt 0.245728 0.351868
vt 0.245728 0.351868
vt 0.245728 0.351868
vt 0.245728 0.351868
vt 0.245728 0.351868
vt 0.245728 0.351868
vt 0.245728 0.351868
vt 0.245728 0.351868
vt 0.245728 0.351868
vt 0.245728 0.351868
vt 0.245728 0.351868
vt 0.245728 0.351868
vt 0.245728 0.351868
vt 0.245728 0.351868
vt 0.245728 0.351868
vt 0.245728 0.351868
vt 0.245728 0.351868
vt 0.245728 0.351868
vt 0.245728 0.351868
vt 0.245728 0.351868
vt 0.245728 0.351868
vt 0.245728 0.351868
vt 0.245728 0.351868
vt 0.245728 0.351868
vt 0.245728 0.351868
vt 0.245728 0.351868
vt 0.245728 0.351868
vt 0.245728 0.351868
vt 0.245728 0.351868
vt 0.245728 0.351868
vt 0.245728 0.351868
vt 0.245728 0.351868
vt 0.080719 0.230225
vt 0.080719 0.230225
vt 0.245728 0.351868
vt 0.245728 0.351868
vt 0.245728 0.351868
vt 0.245728 0.351868
vt 0.245682 0.279266
vt 0.245682 0.279266
vt 0.245682 0.279266
vt 0.245682 0.279266
vt 0.245682 0.279266
vt 0.245682 0.279266
vt 0.245682 0.279266
vt 0.245682 0.279266
vt 0.245682 0.279266
vt 0.245682 0.279266
vt 0.245682 0.279266
vt 0.245682 0.279266
vt 0.245682 0.279266
vt 0.245682 0.279266
vt 0.245682 0.279266
vt 0.245682 0.279266
vt 0.245682 0.279266
vt 0.245682 0.279266
vt 0.245682 0.279266
vt 0.245682 0.279266
vt 0.245682 0.279266
vt 0.245682 0.279266
vt 0.245682 0.279266
vt 0.245682 0.279266
vt 0.245682 0.279266
vt 0.245682 0.279266
vt 0.245682 0.279266
vt 0.245682 0.279266
vt 0.245682 0.279266
vt 0.245682 0.279266
vt 0.245682 0.279266
vt 0.245682 0.279266
vt 0.245682 0.279266
vt 0.245682 0.279266
vt 0.245682 0.279266
vt 0.245682 0.279266
vt 0.245682 0.279266
vt 0.245682 0.279266
vt 0.245682 0.279266
vt 0.245682 0.279266
vn 0.000000 1.000000 0.000000
vn 0.000000 1.000000 0.000000
vn 0.000000 1.000000 0.000000
vn 0.000000 1.000000 0.000000
vn 0.000000 0.912983 0.407999
vn 0.000000 0.912983 0.407999
vn 0.000000 0.912983 0.407999
vn 0.000000 0.912983 0.407999
vn -0.936037 0.351901 0.000000
vn -0.936037 0.351901 0.000000
vn -0.936037 0.351901 0.000000
vn -0.936037 0.351901 0.000000
vn 0.000000 0.743083 -0.669200
vn 0.000000 0.743083 -0.669200
vn 0.000000 0.743083 -0.669200
vn 0.000000 0.743083 -0.669200
vn 0.936051 0.351865 0.000000
vn 0.936051 0.351865 0.000000
vn 0.936051 0.351865 0.000000
vn 0.936051 0.351865 0.000000
vn 0.000000 0.791416 0.611278
vn 0.000000 0.791416 0.611278
vn 0.000000 0.791416 0.611278
vn 0.000000 0.791416 0.611278
vn -0.114232 0.897608 0.425736
vn -0.114232 0.897608 0.425736
vn -0.114232 0.897608 0.425736
vn -0.114232 0.897608 0.425736
vn 0.000000 0.578808 0.815464
vn 0.000000 0.578807 0.815464
vn 0.000000 0.578807 0.815464
vn 0.000000 0.578808 0.815464
vn 0.114226 0.897607 0.425739
vn 0.114226 0.897607 0.425739
vn 0.114226 0.897607 0.425739
vn 0.114226 0.897607 0.425739
vn 0.000000 0.943967 -0.330039
vn 0.000000 0.943967 -0.330039
vn 0.000000 0.943967 -0.330039
vn 0.000000 0.943967 -0.330039
vn 0.873036 0.363112 0.325512
vn 0.873036 0.363112 0.325512
vn 0.873036 0.363112 0.325512
vn 0.873036 0.363112 0.325512
vn 0.000000 -0.589608 0.807690
vn 0.000000 -0.589608 0.807690
vn 0.000000 -0.589608 0.807690
vn 0.000000 -0.589608 0.807690
vn -0.873036 0.363112 0.325512
vn -0.873036 0.363112 0.325512
vn -0.873036 0.363112 0.325512
vn -0.873036 0.363112 0.325512
vn -0.982597 -0.185748 0.000000
vn -0.982598 -0.185748 0.000000
vn -0.982598 -0.185748 0.000000
vn -0.982597 -0.185748 0.000000
vn 0.000000 -0.167460 -0.985879
vn 0.000000 -0.167460 -0.985879
vn 0.000000 -0.167460 -0.985879
vn 0.000000 -0.167460 -0.985879
vn 0.982598 -0.185748 0.000000
vn 0.982597 -0.185748 0.000000
vn 0.982597 -0.185748 0.000000
vn 0.982598 -0.185748 0.000000
vn 0.000000 -0.167460 0.985879
vn 0.000000 -0.167460 0.985879
vn 0.000000 -0.167460 0.985879
vn 0.000000 -0.167460 0.985879
vn 0.000000 0.955724 -0.294266
vn 0.000000 0.955724 -0.294266
vn 0.000000 0.955724 -0.294266
vn 0.000000 0.955724 -0.294266
vn 0.993787 0.111295 0.000000
vn 0.993787 0.111295 0.000000
vn 0.993787 0.111295 0.000000
vn 0.993787 0.111295 0.000000
vn -0.993787 0.111295 0.000000
vn -0.993787 0.111295 0.000000
vn -0.993787 0.111295 0.000000
vn -0.993787 0.111295 0.000000
vn 0.485048 0.052367 0.872918
vn 0.485048 0.052367 0.872918
vn 0.485048 0.052367 0.872918
vn 0.485048 0.052367 0.872918
vn -0.485094 0.052369 0.872892
vn -0.485094 0.052369 0.872892
vn -0.485094 0.052369 0.872892
vn -0.485094 0.052369 0.872892
vn -0.844677 -0.088779 0.527863
vn -0.844677 -0.088779 0.527863
vn -0.844677 -0.088779 0.527863
vn -0.844677 -0.088779 0.527863
vn 0.000000 0.000000 1.000000
vn 0.000000 0.000000 1.000000
vn 0.000000 0.000000 1.000000
vn 0.000000 0.000000 1.000000
vn 0.844687 -0.088774 0.527847
vn 0.844687 -0.088774 0.527847
vn 0.844687 -0.088774 0.527847
vn 0.844687 -0.088774 0.527847
vn -0.003502 0.140014 0.990143
vn -0.003502 0.140014 0.990143
vn -0.003502 0.140014 0.990143
vn -0.003502 0.140014 0.990143
vn -0.995952 0.009922 0.089340
vn -0.995952 0.009922 0.089340
vn -0.995952 0.009922 0.089340
vn 0.997766 0.011997 0.065724
vn 0.997766 0.011997 0.065724
vn 0.997766 0.011997 0.065724
vn -0.012707 0.878401 0.477756
vn -0.012707 0.878400 0.477756
vn -0.012707 0.878401 0.477756
vn -0.012707 0.878400 0.477756
vn -0.997283 0.060926 0.041399
vn -0.997283 0.060926 0.041399
vn -0.997283 0.060926 0.041399
vn -0.997283 0.060926 0.041399
vn 0.997850 0.063124 0.017639
vn 0.997850 0.063124 0.017639
vn 0.997850 0.063124 0.017639
vn 0.997850 0.063124 0.017639
vn -0.003502 0.140043 0.990139
vn -0.003502 0.140043 0.990139
vn -0.003502 0.140043 0.990139
vn -0.003502 0.140043 0.990139
vn -0.995952 0.009924 0.089338
vn -0.995952 0.009924 0.089338
vn -0.995952 0.009924 0.089338
vn 0.997766 0.012012 0.065714
vn 0.997766 0.012012 0.065714
vn 0.997766 0.012012 0.065714
vn -0.012698 0.878399 0.477760
vn -0.012698 0.878399 0.477760
vn -0.012698 0.878399 0.477760
vn -0.012698 0.878399 0.477760
vn -0.997283 0.060935 0.041400
vn -0.997283 0.060935 0.041400
vn -0.997283 0.060935 0.041400
vn -0.997283 0.060935 0.041400
vn 0.997850 0.063114 0.017639
vn 0.997850 0.063114 0.017639
vn 0.997850 0.063114 0.017639
vn 0.997850 0.063114 0.017639
vn -0.003506 0.140042 0.990139
vn -0.003506 0.140042 0.990139
vn -0.003506 0.140042 0.990139
vn -0.003506 0.140042 0.990139
vn -0.995951 0.009941 0.089348
vn -0.995951 0.009941 0.089348
vn -0.995951 0.009941 0.089348
vn 0.997767 0.011996 0.065706
vn 0.997767 0.011996 0.065706
vn 0.997767 0.011996 0.065706
vn -0.012722 0.878399 0.477759
vn -0.012722 0.878399 0.477760
vn -0.012722 0.878399 0.477760
vn -0.012722 0.878399 0.477759
vn -0.997282 0.060951 0.041407
vn -0.997282 0.060951 0.041407
vn -0.997282 0.060951 0.041407
vn -0.997282 0.060951 0.041407
vn 0.997851 0.063105 0.017638
vn 0.997851 0.063105 0.017638
vn 0.997851 0.063105 0.017638
vn 0.997851 0.063105 0.017638
vn -0.003502 0.140014 0.990143
vn -0.003502 0.140013 0.990143
vn -0.003502 0.140013 0.990143
vn -0.003502 0.140013 0.990143
vn -0.995950 0.009955 0.089359
vn -0.995950 0.009955 0.089359
vn -0.995950 0.009955 0.089359
vn 0.997767 0.011994 0.065705
vn 0.997767 0.011994 0.065705
vn 0.997767 0.011994 0.065705
vn -0.012684 0.878403 0.477753
vn -0.012684 0.878403 0.477753
vn -0.012684 0.878403 0.477753
vn -0.012684 0.878403 0.477753
vn -0.997282 0.060941 0.041406
vn -0.997282 0.060941 0.041406
vn -0.997282 0.060941 0.041406
vn -0.997282 0.060941 0.041406
vn 0.997851 0.063105 0.017638
vn 0.997851 0.063105 0.017638
vn 0.997851 0.063105 0.017638
vn 0.997851 0.063105 0.017638
vn 0.000000 -1.000000 0.000000
vn 0.000000 -1.000000 0.000000
vn 0.000000 -1.000000 0.000000
vn 0.000000 -1.000000 0.000000
s off
f 21/1/1 24/2/2 23/3/3 22/4/4
f 10/5/5 13/6/6 12/7/7 11/8/8
f 15/9/9 8/10/10 5/11/11 14/12/12
f 14/12/13 5/11/14 6/13/15 16/14/16
f 6/13/17 7/15/18 9/16/19 16/14/20
f 9/16/21 18/17/22 17/18/23 15/9/24
f 15/9/25 17/18/26 19/19/27 8/10/28
f 24/2/29 26/20/30 25/21/31 23/3/32
f 7/15/33 20/22/34 18/17/35 9/16/36
f 18/17/37 10/23/38 11/24/39 17/18/40
f 17/18/41 11/24/42 12/25/43 19/19/44
f 26/20/45 28/26/46 27/27/47 25/21/48
f 20/22/49 13/28/50 10/23/51 18/17/52
f 3/29/53 15/9/54 14/12/55 1/30/56
f 1/30/57 14/12/58 16/14/59 4/31/60
f 9/16/61 2/32/62 4/31/63 16/14/64
f 2/32/65 9/16/66 15/9/67 3/29/68
f 5/11/69 21/1/70 22/4/71 6/13/72
f 6/13/73 22/4/74 23/3/75 7/15/76
f 8/10/77 24/2/78 21/1/79 5/11/80
f 7/33/81 23/34/82 25/35/83 20/36/84
f 19/37/85 26/38/86 24/39/87 8/40/88
f 20/41/89 25/42/90 27/43/91 13/44/92
f 13/6/93 27/45/94 28/46/95 12/7/96
f 12/47/97 28/48/98 26/49/99 19/50/100
f 29/51/101 32/52/102 31/53/103 30/54/104
f 30/54/105 31/53/106 33/55/107
f 34/56/108 32/52/109 29/51/110
f 32/52/111 36/57/112 35/58/113 31/53/114
f 31/53/115 35/58/116 37/59/117 33/55/118
f 34/56/119 38/60/120 36/57/121 32/52/122
f 39/61/123 42/62/124 41/63/125 40/64/126
f 40/64/127 41/63/128 43/65/129
f 44/66/130 42/62/131 39/61/132
f 42/62/133 46/67/134 45/68/135 41/63/136
f 41/63/137 45/68/138 47/69/139 43/65/140
f 44/66/141 48/70/142 46/67/143 42/62/144
f 49/71/145 52/72/146 51/73/147 50/74/148
f 50/74/149 51/73/150 53/75/151
f 54/76/152 52/72/153 49/71/154
f 52/72/155 56/77/156 55/78/157 51/73/158
f 51/73/159 55/78/160 57/79/161 53/75/162
f 54/76/163 58/80/164 56/77/165 52/72/166
f 59/81/167 62/82/168 61/83/169 60/84/170
f 60/84/171 61/83/172 63/85/173
f 64/86/174 62/82/175 59/81/176
f 62/82/177 66/87/178 65/88/179 61/83/180
f 61/83/181 65/88/182 67/89/183 63/85/184
f 64/86/185 68/90/186 66/87/187 62/82/188
f 2/32/189 3/29/190 1/30/191 4/31/192
