# This file uses meters as units for non-parametric coordinates.

v 26.306717 -44.251221 -269.744873
v 39.274857 54.545166 -298.465576
v -26.306808 -44.251221 -269.744873
v -39.274948 54.545166 -298.465576
v -13.770950 -26.236084 300.330811
v 13.770859 -26.236084 300.330811
v 22.339890 -33.968018 -272.735596
v -22.339981 -33.968018 -272.735596
v 39.274857 13.505127 -30.982666
v 26.306717 -43.823975 -15.538330
v -26.306808 -43.823975 -15.538330
v -39.274948 13.505127 -30.982666
v -14.330338 -54.545410 -266.754150
v -12.169388 -44.263428 -269.742432
v 12.169296 -44.263428 -269.742432
v 14.330246 -54.545410 -266.754150
v -14.330338 -54.545410 -58.612061
v 14.330246 -54.545410 -58.612061
v 27.846329 7.268555 -284.720459
v -27.846268 7.268555 -284.720459
v 16.707718 16.422607 -287.381592
v -16.707809 16.422607 -287.381592
v -8.041122 -36.485107 -284.315186
v -7.600601 -30.972412 -275.118408
v 7.600662 -30.972412 -275.118408
v 8.041183 -36.485107 -284.315186
v -14.761551 -29.123047 -286.456299
v -13.095749 -24.313477 -275.118408
v 13.095657 -24.313477 -275.118408
v 14.761459 -29.123047 -286.456299
v 15.496170 -0.259521 -275.118408
v 18.399918 0.367920 -295.028076
v -15.496262 -0.259521 -275.118408
v -18.400009 0.367920 -295.028076
v 11.039993 6.914551 -296.932373
v 9.906265 6.616699 -275.118408
v -9.906357 6.616699 -275.118408
v -11.039932 6.914551 -296.932373
v 11.414597 -43.374756 -283.782959
v -11.414536 -43.374756 -283.782959
v -20.954330 -33.717773 -286.590576
v 20.954239 -33.717773 -286.590576
v 26.119034 4.960205 -297.835693
v -26.119125 4.960205 -297.835693
v 15.671494 13.546631 -300.330811
v -15.671432 13.546631 -300.330811
v -36.379288 28.732178 -28.619385
v -12.755630 -10.620850 299.503174
v 12.755539 -10.620850 299.503174
v 36.379196 28.732178 -28.619385
v 36.379196 69.374268 -293.477783
v -36.379288 69.374268 -293.477783
vt 0.245775 0.327532
vt 0.245775 0.327532
vt 0.245775 0.327532
vt 0.245775 0.327532
vt 0.245775 0.327532
vt 0.245775 0.327532
vt 0.245775 0.327532
vt 0.245775 0.327532
vt 0.245775 0.327532
vt 0.245775 0.327532
vt 0.245775 0.327532
vt 0.245775 0.327532
vt 0.245775 0.327532
vt 0.245775 0.327532
vt 0.245775 0.378215
vt 0.245775 0.378215
vt 0.245775 0.378215
vt 0.245775 0.378215
vt 0.245775 0.327532
vt 0.245775 0.327532
vt 0.245775 0.327532
vt 0.245775 0.327532
vt 0.245775 0.327532
vt 0.245775 0.327532
vt 0.245775 0.378215
vt 0.245775 0.378215
vt 0.234817 0.228907
vt 0.234817 0.228907
vt 0.234817 0.228907
vt 0.234817 0.228907
vt 0.245775 0.378215
vt 0.245775 0.378215
vt 0.245775 0.327532
vt 0.245775 0.378215
vt 0.245775 0.378215
vt 0.234817 0.228907
vt 0.234817 0.228907
vt 0.245775 0.378215
vt 0.245775 0.378215
vt 0.245775 0.327532
vt 0.245775 0.378215
vt 0.245775 0.378215
vt 0.245775 0.378215
vt 0.245775 0.378215
vt 0.234817 0.228907
vt 0.234817 0.228907
vt 0.245775 0.378215
vt 0.245775 0.378215
vt 0.245775 0.378215
vt 0.245775 0.378215
vt 0.245775 0.378215
vt 0.245775 0.378215
vt 0.245775 0.378215
vt 0.245775 0.378215
vt 0.245775 0.378215
vt 0.245775 0.378215
vt 0.245775 0.378215
vt 0.245775 0.378215
vt 0.245775 0.378215
vt 0.245775 0.378215
vt 0.245775 0.378215
vt 0.245775 0.378215
vt 0.245775 0.327532
vt 0.245775 0.327532
vt 0.245775 0.327532
vt 0.245775 0.327532
vt 0.245775 0.327532
vt 0.245775 0.327532
vn 0.000000 -0.279185 -0.960237
vn 0.000000 -0.279185 -0.960237
vn 0.000000 -0.279185 -0.960237
vn 0.000000 -0.279185 -0.960237
vn -0.976954 -0.207435 0.050322
vn -0.976954 -0.207435 0.050322
vn -0.976954 -0.207435 0.050322
vn 0.976954 -0.207435 0.050322
vn 0.976954 -0.207435 0.050322
vn 0.976954 -0.207435 0.050322
vn 0.000000 0.992885 0.119081
vn 0.000000 0.992885 0.119081
vn 0.000000 0.992885 0.119081
vn 0.000000 0.992885 0.119081
vn 0.000000 -0.998453 0.055595
vn 0.000000 -0.998453 0.055595
vn 0.000000 -0.998453 0.055595
vn 0.000000 -0.998453 0.055595
vn 0.000000 -0.279085 -0.960266
vn 0.000000 -0.279085 -0.960266
vn 0.000000 -0.279085 -0.960266
vn 0.000000 -0.279085 -0.960266
vn 0.000000 0.857714 -0.514127
vn 0.000000 0.857714 -0.514127
vn 0.000000 0.857714 -0.514127
vn 0.000000 0.857714 -0.514127
vn 0.000000 -1.000000 0.000000
vn 0.000000 -1.000000 0.000000
vn 0.000000 -1.000000 0.000000
vn 0.000000 -1.000000 0.000000
vn 0.000000 0.988431 0.151673
vn 0.000000 0.988431 0.151673
vn 0.000000 0.988431 0.151673
vn 0.000000 0.988431 0.151673
vn -0.000074 -0.279154 -0.960246
vn -0.000074 -0.279154 -0.960246
vn -0.000074 -0.279154 -0.960246
vn -0.000074 -0.279154 -0.960246
vn 0.000074 -0.279154 -0.960246
vn 0.000074 -0.279154 -0.960246
vn 0.000074 -0.279154 -0.960246
vn 0.000074 -0.279154 -0.960246
vn 0.728677 0.578990 -0.365787
vn 0.728677 0.578990 -0.365787
vn 0.728677 0.578990 -0.365787
vn 0.728677 0.578990 -0.365787
vn 0.000000 0.000000 -1.000000
vn 0.000000 0.000000 -1.000000
vn 0.000000 0.000000 -1.000000
vn 0.000000 0.000000 -1.000000
vn -0.728685 0.578982 -0.365784
vn -0.728685 0.578982 -0.365784
vn -0.728685 0.578982 -0.365784
vn -0.728685 0.578982 -0.365784
vn -0.658856 -0.752269 0.000695
vn -0.658856 -0.752269 0.000695
vn -0.658856 -0.752269 0.000695
vn -0.658856 -0.752269 0.000695
vn 0.658856 -0.752269 0.000695
vn 0.658856 -0.752269 0.000695
vn 0.658856 -0.752269 0.000695
vn 0.658856 -0.752269 0.000695
vn 0.000000 -0.970391 0.241539
vn 0.000000 -0.970391 0.241539
vn 0.000000 -0.970391 0.241539
vn 0.000000 -0.970391 0.241539
vn 0.985794 -0.167452 -0.013036
vn 0.985794 -0.167452 -0.013036
vn 0.985794 -0.167452 -0.013036
vn 0.985794 -0.167452 -0.013036
vn -0.000092 -0.279121 -0.960256
vn -0.000092 -0.279121 -0.960256
vn -0.000092 -0.279121 -0.960256
vn -0.000092 -0.279121 -0.960256
vn -0.984087 0.086106 -0.155434
vn -0.984087 0.086106 -0.155434
vn -0.984087 0.086106 -0.155434
vn -0.984086 0.086106 -0.155434
vn 0.000000 0.000000 -1.000000
vn 0.000000 0.000000 -1.000000
vn 0.000000 0.000000 -1.000000
vn 0.000000 0.000000 -1.000000
vn 0.984086 0.086106 -0.155434
vn 0.984086 0.086106 -0.155434
vn 0.984086 0.086106 -0.155434
vn 0.984086 0.086106 -0.155434
vn 0.000092 -0.279121 -0.960256
vn 0.000092 -0.279121 -0.960256
vn 0.000092 -0.279121 -0.960256
vn 0.000092 -0.279121 -0.960256
vn -0.985794 -0.167452 -0.013036
vn -0.985794 -0.167452 -0.013036
vn -0.985794 -0.167452 -0.013036
vn -0.985794 -0.167452 -0.013036
vn 0.000000 -0.999907 -0.013653
vn 0.000000 -0.999907 -0.013653
vn 0.000000 -0.999907 -0.013653
vn 0.000000 -0.999907 -0.013653
vn -0.000021 -0.279173 -0.960241
vn -0.000021 -0.279173 -0.960241
vn -0.000021 -0.279173 -0.960241
vn -0.711110 -0.698009 -0.084292
vn -0.711110 -0.698009 -0.084292
vn -0.711110 -0.698009 -0.084292
vn -0.711110 -0.698009 -0.084292
vn 0.711106 -0.698014 -0.084289
vn 0.711106 -0.698014 -0.084289
vn 0.711106 -0.698014 -0.084289
vn 0.711106 -0.698014 -0.084289
vn 0.000021 -0.279173 -0.960241
vn 0.000021 -0.279173 -0.960241
vn 0.000021 -0.279173 -0.960241
vn 0.000000 0.000000 -1.000000
vn 0.000000 0.000000 -1.000000
vn 0.000000 0.000000 -1.000000
vn 0.000000 0.000000 -1.000000
vn 0.000000 -0.077021 -0.997030
vn 0.000000 -0.077021 -0.997030
vn 0.000000 -0.077021 -0.997029
vn 0.000000 -0.077021 -0.997029
vn 0.140151 -0.150652 -0.978602
vn 0.140151 -0.150652 -0.978602
vn 0.140151 -0.150652 -0.978602
vn 0.140151 -0.150652 -0.978602
vn -0.140153 -0.150653 -0.978602
vn -0.140153 -0.150653 -0.978602
vn -0.140153 -0.150653 -0.978602
vn -0.140153 -0.150653 -0.978602
vn -0.200384 -0.249536 -0.947406
vn -0.200384 -0.249536 -0.947406
vn -0.200384 -0.249536 -0.947406
vn -0.200384 -0.249536 -0.947406
vn 0.200385 -0.249536 -0.947406
vn 0.200385 -0.249536 -0.947406
vn 0.200385 -0.249536 -0.947406
vn 0.200385 -0.249536 -0.947406
vn 0.000000 -0.456037 -0.889961
vn 0.000000 -0.456037 -0.889961
vn 0.000000 -0.456037 -0.889961
vn 0.000000 -0.456037 -0.889961
vn -0.105338 -0.389902 -0.914812
vn -0.105338 -0.389902 -0.914812
vn -0.105338 -0.389902 -0.914812
vn -0.105338 -0.389902 -0.914812
vn 0.105337 -0.389903 -0.914811
vn 0.105337 -0.389903 -0.914811
vn 0.105337 -0.389903 -0.914811
vn 0.105337 -0.389903 -0.914811
vn 0.000000 -0.998003 -0.063167
vn 0.000000 -0.998003 -0.063167
vn 0.000000 -0.998003 -0.063167
vn 0.000000 -0.998003 -0.063167
vn -0.696875 -0.712425 -0.082560
vn -0.696875 -0.712425 -0.082560
vn -0.696875 -0.712425 -0.082560
vn -0.696875 -0.712425 -0.082560
vn 0.696878 -0.712422 -0.082556
vn 0.696879 -0.712422 -0.082556
vn 0.696878 -0.712422 -0.082556
vn 0.696878 -0.712422 -0.082556
vn 0.981848 -0.160491 -0.101079
vn 0.981848 -0.160491 -0.101079
vn 0.981848 -0.160491 -0.101079
vn 0.981848 -0.160491 -0.101079
vn -0.981849 -0.160488 -0.101074
vn -0.981849 -0.160488 -0.101074
vn -0.981849 -0.160488 -0.101074
vn -0.981849 -0.160488 -0.101074
vn 0.000000 0.976213 -0.216814
vn 0.000000 0.976213 -0.216814
vn 0.000000 0.976213 -0.216814
vn 0.000000 0.976213 -0.216814
vn 0.650226 0.728996 -0.213941
vn 0.650226 0.728996 -0.213941
vn 0.650226 0.728996 -0.213941
vn 0.650226 0.728996 -0.213941
vn -0.650226 0.728996 -0.213941
vn -0.650226 0.728996 -0.213941
vn -0.650226 0.728996 -0.213941
vn -0.650226 0.728996 -0.213941
vn -0.988731 0.120987 0.088171
vn -0.988731 0.120987 0.088171
vn -0.988731 0.120987 0.088171
vn -0.988731 0.120987 0.088171
vn 0.000000 0.052928 0.998598
vn 0.000000 0.052928 0.998598
vn 0.000000 0.052928 0.998598
vn 0.000000 0.052928 0.998598
vn 0.988731 0.120987 0.088171
vn 0.988731 0.120987 0.088171
vn 0.988731 0.120987 0.088171
vn 0.988731 0.120987 0.088171
vn 0.000000 0.318801 -0.947822
vn 0.000000 0.318801 -0.947822
vn 0.000000 0.318801 -0.947822
vn 0.000000 0.318801 -0.947822
vn -0.982803 0.182520 0.028006
vn -0.982803 0.182520 0.028006
vn -0.982803 0.182520 0.028006
vn -0.982803 0.182520 0.028006
vn 0.982803 0.182520 0.028006
vn 0.982803 0.182520 0.028006
vn 0.982803 0.182520 0.028006
vn 0.982803 0.182520 0.028006
s off
f 2/1/1 21/2/2 22/3/3 4/4/4
f 11/5/5 5/6/6 12/7/7
f 6/8/8 10/9/9 9/10/10
f 47/63/11 48/64/12 49/65/13 50/66/14
f 6/8/15 5/6/16 11/5/17 10/9/18
f 13/11/19 14/12/20 15/13/21 16/14/22
f 23/15/23 24/16/24 25/17/25 26/18/26
f 17/19/27 13/11/28 16/14/29 18/20/30
f 51/67/31 52/68/32 47/63/33 50/66/34
f 3/21/35 8/22/36 14/12/37 13/11/38
f 7/23/39 1/24/40 16/14/41 15/13/42
f 27/25/43 28/26/44 24/16/45 23/15/46
f 28/27/47 29/28/48 25/29/49 24/30/50
f 29/31/51 30/32/52 26/18/53 25/17/54
f 11/5/55 3/21/56 13/11/57 17/19/58
f 1/24/59 10/9/60 18/20/61 16/14/62
f 10/9/63 11/5/64 17/19/65 18/20/66
f 10/9/67 1/24/68 2/1/69 9/10/70
f 1/24/71 7/23/72 19/33/73 2/1/74
f 30/32/75 29/31/76 31/34/77 32/35/78
f 29/28/79 28/27/80 33/36/81 31/37/82
f 34/38/83 33/39/84 28/26/85 27/25/86
f 4/4/87 20/40/88 8/22/89 3/21/90
f 3/21/91 11/5/92 12/7/93 4/4/94
f 35/41/95 36/42/96 37/43/97 38/44/98
f 19/33/99 21/2/100 2/1/101
f 31/34/102 36/42/103 35/41/104 32/35/105
f 38/44/106 37/43/107 33/39/108 34/38/109
f 4/4/110 22/3/111 20/40/112
f 31/37/113 33/36/114 37/45/115 36/46/116
f 39/47/117 40/48/118 23/15/119 26/18/120
f 40/48/121 41/49/122 27/25/123 23/15/124
f 42/50/125 39/47/126 26/18/127 30/32/128
f 43/51/129 42/50/130 30/32/131 32/35/132
f 41/49/133 44/52/134 34/38/135 27/25/136
f 46/53/137 45/54/138 35/41/139 38/44/140
f 45/54/141 43/51/142 32/35/143 35/41/144
f 44/52/145 46/53/146 38/44/147 34/38/148
f 15/55/149 14/56/150 40/48/151 39/47/152
f 14/56/153 8/57/154 41/49/155 40/48/156
f 7/58/157 15/55/158 39/47/159 42/50/160
f 19/59/161 7/58/162 42/50/163 43/51/164
f 8/57/165 20/60/166 44/52/167 41/49/168
f 22/61/169 21/62/170 45/54/171 46/53/172
f 21/62/173 19/59/174 43/51/175 45/54/176
f 20/60/177 22/61/178 46/53/179 44/52/180
f 12/7/181 5/6/182 48/64/183 47/63/184
f 5/6/185 6/8/186 49/65/187 48/64/188
f 6/8/189 9/10/190 50/66/191 49/65/192
f 2/1/193 4/4/194 52/68/195 51/67/196
f 4/4/197 12/7/198 47/63/199 52/68/200
f 9/10/201 2/1/202 51/67/203 50/66/204
