# This file uses meters as units for non-parametric coordinates.

v -88.791206 -8.909302 -170.756836
v -88.791206 43.511353 -130.871582
v -67.852791 50.402832 -116.445313
v -36.372299 -50.928955 -218.010254
v -17.758255 43.511353 -130.871582
v -30.227280 50.402832 -116.445313
v -42.290802 -30.436401 -211.694336
v -30.388031 34.377441 -150.634766
v -75.683739 -4.320068 -187.285156
v -75.765610 34.730225 -151.037598
v -38.395309 50.402832 -136.796875
v -62.413254 50.402832 -136.796875
v -17.758255 43.511353 -71.440430
v -30.227280 50.402832 -63.410645
v -67.852791 50.402832 -63.410645
v -88.791206 43.511353 -71.440430
v -88.791206 -8.909302 -98.134766
v -36.372299 -50.928955 -126.484375
v -14.646759 51.201172 -63.344727
v -39.469986 -59.303589 -115.410156
v -96.353378 51.201172 -62.163086
v -96.353378 -14.854126 -90.383301
v -73.631668 59.303589 -52.895508
v -27.802582 59.303589 -52.895508
v 88.791199 -8.909302 -170.756836
v 88.791199 43.511353 -130.871582
v 67.852783 50.402832 -116.445313
v 36.372299 -50.928955 -218.010254
v 17.758255 43.511353 -130.871582
v 30.227280 50.402832 -116.445313
v 42.290802 -30.436401 -211.694336
v 30.388031 34.377441 -150.634766
v 75.683746 -4.320068 -187.285156
v 75.765610 34.730225 -151.037598
v 38.395309 50.402832 -136.796875
v 62.413254 50.402832 -136.796875
v 17.758255 43.511353 -71.440430
v 30.227280 50.402832 -63.410645
v 67.852783 50.402832 -63.410645
v 88.791199 43.511353 -71.440430
v 88.791199 -8.909302 -98.134766
v 36.372299 -50.928955 -126.484375
v 14.646759 51.201172 -63.344727
v 39.469986 -59.303589 -115.410156
v 96.353378 51.201172 -62.163086
v 96.353378 -14.854126 -90.383301
v 73.631668 59.303589 -52.895508
v 27.802582 59.303589 -52.895508
v -88.791206 -8.909302 170.759277
v -88.791206 43.511353 130.874023
v -67.852791 50.402832 116.447754
v -36.372299 -50.928955 218.010254
v -17.758255 43.511353 130.874023
v -30.227280 50.402832 116.447754
v -42.290802 -30.436401 211.694336
v -30.388031 34.377441 150.634766
v -75.683739 -4.320068 187.285156
v -75.765610 34.730225 151.040039
v -38.395309 50.402832 136.799316
v -62.413254 50.402832 136.799316
v -17.758255 43.511353 71.440430
v -30.227280 50.402832 63.410645
v -67.852791 50.402832 63.410645
v -88.791206 43.511353 71.440430
v -88.791206 -8.909302 98.134766
v -36.372299 -50.928955 126.486816
v -14.646759 51.201172 63.344727
v -39.469986 -59.303589 115.410156
v -96.353378 51.201172 62.165527
v -96.353378 -14.854126 90.383301
v -73.631668 59.303589 52.895508
v -27.802582 59.303589 52.895508
v 88.791199 -8.909302 170.759277
v 88.791199 43.511353 130.874023
v 67.852783 50.402832 116.447754
v 36.372299 -50.928955 218.010254
v 17.758255 43.511353 130.874023
v 30.227280 50.402832 116.447754
v 42.290802 -30.436401 211.694336
v 30.388031 34.377441 150.634766
v 75.683746 -4.320068 187.285156
v 75.765610 34.730225 151.040039
v 38.395309 50.402832 136.799316
v 62.413254 50.402832 136.799316
v 17.758255 43.511353 71.440430
v 30.227280 50.402832 63.410645
v 67.852783 50.402832 63.410645
v 88.791199 43.511353 71.440430
v 88.791199 -8.909302 98.134766
v 36.372299 -50.928955 126.486816
v 14.646759 51.201172 63.344727
v 39.469986 -59.303589 115.410156
v 96.353378 51.201172 62.165527
v 96.353378 -14.854126 90.383301
v 73.631668 59.303589 52.895508
v 27.802582 59.303589 52.895508
vt 0.245353 0.254049
vt 0.245353 0.254049
vt 0.245353 0.254049
vt 0.245353 0.254049
vt 0.245353 0.254049
vt 0.245353 0.254049
vt 0.245353 0.254049
vt 0.245353 0.254049
vt 0.245353 0.254049
vt 0.245353 0.254049
vt 0.245353 0.254049
vt 0.245353 0.254049
vt 0.283825 0.386910
vt 0.283825 0.386910
vt 0.283825 0.386910
vt 0.283825 0.386910
vt 0.283825 0.386910
vt 0.283825 0.386910
vt 0.283825 0.386910
vt 0.283825 0.386910
vt 0.283825 0.386910
vt 0.283825 0.386910
vt 0.283825 0.386910
vt 0.283825 0.386910
vt 0.245353 0.254049
vt 0.245353 0.254049
vt 0.245353 0.254049
vt 0.245353 0.254049
vt 0.245353 0.254049
vt 0.245353 0.254049
vt 0.245353 0.254049
vt 0.245353 0.254049
vt 0.245353 0.254049
vt 0.245353 0.254049
vt 0.245353 0.254049
vt 0.245353 0.254049
vt 0.245353 0.254049
vt 0.245353 0.254049
vt 0.245353 0.254049
vt 0.245353 0.254049
vt 0.245353 0.254049
vt 0.245353 0.254049
vt 0.245353 0.254049
vt 0.245353 0.254049
vt 0.245353 0.254049
vt 0.245353 0.254049
vt 0.245353 0.254049
vt 0.245353 0.254049
vt 0.245353 0.254049
vt 0.245353 0.254049
vt 0.283825 0.386910
vt 0.283825 0.386910
vt 0.283825 0.386910
vt 0.283825 0.386910
vt 0.283825 0.386910
vt 0.283825 0.386910
vt 0.283825 0.386910
vt 0.283825 0.386910
vt 0.283825 0.386910
vt 0.283825 0.386910
vt 0.283825 0.386910
vt 0.283825 0.386910
vt 0.245353 0.254049
vt 0.245353 0.254049
vt 0.245353 0.254049
vt 0.245353 0.254049
vt 0.245353 0.254049
vt 0.245353 0.254049
vt 0.245353 0.254049
vt 0.245353 0.254049
vt 0.245353 0.254049
vt 0.245353 0.254049
vt 0.245353 0.254049
vt 0.245353 0.254049
vt 0.245353 0.254049
vt 0.245353 0.254049
vt 0.245353 0.254049
vt 0.245353 0.254049
vt 0.245353 0.254049
vt 0.245353 0.254049
vt 0.245353 0.254049
vt 0.245353 0.254049
vt 0.245353 0.254049
vt 0.245353 0.254049
vt 0.245353 0.254049
vt 0.245353 0.254049
vt 0.245353 0.254049
vt 0.245353 0.254049
vt 0.245353 0.254049
vt 0.245353 0.254049
vt 0.245353 0.254049
vt 0.245353 0.254049
vt 0.245353 0.254049
vt 0.245353 0.254049
vt 0.245353 0.254049
vt 0.245353 0.254049
vt 0.283825 0.386910
vt 0.283825 0.386910
vt 0.283825 0.386910
vt 0.283825 0.386910
vt 0.283825 0.386910
vt 0.283825 0.386910
vt 0.283825 0.386910
vt 0.283825 0.386910
vt 0.283825 0.386910
vt 0.283825 0.386910
vt 0.283825 0.386910
vt 0.283825 0.386910
vt 0.245353 0.254049
vt 0.245353 0.254049
vt 0.245353 0.254049
vt 0.245353 0.254049
vt 0.245353 0.254049
vt 0.245353 0.254049
vt 0.245353 0.254049
vt 0.245353 0.254049
vt 0.245353 0.254049
vt 0.245353 0.254049
vt 0.245353 0.254049
vt 0.245353 0.254049
vt 0.245353 0.254049
vt 0.245353 0.254049
vt 0.245353 0.254049
vt 0.245353 0.254049
vt 0.245353 0.254049
vt 0.245353 0.254049
vt 0.245353 0.254049
vt 0.283825 0.386910
vt 0.283825 0.386910
vt 0.283825 0.386910
vt 0.283825 0.386910
vt 0.283825 0.386910
vt 0.283825 0.386910
vt 0.283825 0.386910
vt 0.283825 0.386910
vt 0.283825 0.386910
vt 0.283825 0.386910
vt 0.283825 0.386910
vt 0.283825 0.386910
vt 0.245353 0.254049
vt 0.245353 0.254049
vt 0.245353 0.254049
vt 0.245353 0.254049
vt 0.245353 0.254049
vn 0.007069 0.683251 -0.730150
vn 0.007069 0.683251 -0.730150
vn 0.007069 0.683250 -0.730150
vn 0.007069 0.683250 -0.730150
vn 0.007716 0.662329 -0.749173
vn 0.007716 0.662329 -0.749173
vn 0.007716 0.662329 -0.749173
vn 0.007716 0.662329 -0.749173
vn 0.687061 0.420057 -0.592873
vn 0.687061 0.420057 -0.592873
vn 0.687061 0.420057 -0.592873
vn 0.687061 0.420057 -0.592873
vn -0.682951 -0.098930 -0.723734
vn -0.682951 -0.098930 -0.723734
vn -0.682951 -0.098930 -0.723734
vn -0.682951 -0.098930 -0.723733
vn -0.698942 0.457147 -0.549998
vn -0.698942 0.457147 -0.549998
vn -0.698942 0.457147 -0.549998
vn -0.698942 0.457147 -0.549998
vn 0.390704 0.832791 -0.392186
vn 0.390704 0.832791 -0.392186
vn 0.390704 0.832791 -0.392186
vn 0.390704 0.832791 -0.392186
vn -0.307711 0.891167 -0.333370
vn -0.307711 0.891167 -0.333370
vn -0.307711 0.891167 -0.333370
vn -0.307711 0.891167 -0.333370
vn 0.000000 1.000000 -0.000000
vn 0.000000 1.000000 -0.000000
vn 0.000000 1.000000 -0.000000
vn 0.000000 1.000000 -0.000000
vn 0.483724 0.875221 0.000000
vn 0.483724 0.875221 0.000000
vn 0.483724 0.875221 0.000000
vn 0.483724 0.875221 0.000000
vn 0.000000 1.000000 0.000000
vn 0.000000 1.000000 0.000000
vn 0.000000 1.000000 0.000000
vn 0.000000 1.000000 0.000000
vn -0.312633 0.949874 0.000000
vn -0.312633 0.949874 0.000000
vn -0.312633 0.949874 0.000000
vn -0.312633 0.949874 0.000000
vn -1.000000 0.000000 0.000000
vn -1.000000 0.000000 0.000000
vn -1.000000 0.000000 0.000000
vn -1.000000 0.000000 0.000000
vn -0.625462 -0.780255 0.000000
vn -0.625462 -0.780255 0.000000
vn -0.625462 -0.780255 0.000000
vn -0.625462 -0.780255 0.000000
vn 0.000000 0.725049 -0.688698
vn 0.000000 0.725049 -0.688698
vn 0.000000 0.725049 -0.688698
vn 0.000000 0.725049 -0.688698
vn -0.697367 0.301400 -0.650260
vn -0.697367 0.301400 -0.650260
vn -0.697367 0.301400 -0.650260
vn -0.697367 0.301400 -0.650260
vn -0.006834 0.764083 -0.645081
vn -0.006834 0.764083 -0.645081
vn -0.006834 0.764083 -0.645081
vn -0.006834 0.764083 -0.645081
vn 0.000000 0.763267 -0.646083
vn 0.000000 0.763267 -0.646083
vn 0.000000 0.763267 -0.646083
vn 0.000000 0.763267 -0.646083
vn -0.636534 -0.396132 -0.661743
vn -0.636534 -0.396132 -0.661743
vn -0.636534 -0.396132 -0.661743
vn -0.636534 -0.396132 -0.661743
vn -0.035705 0.751237 -0.659066
vn -0.035705 0.751237 -0.659066
vn -0.035705 0.751237 -0.659066
vn -0.035705 0.751237 -0.659066
vn 0.000000 0.678125 -0.734947
vn 0.000000 0.678125 -0.734947
vn 0.000000 0.678125 -0.734947
vn 0.000000 0.678125 -0.734947
vn -0.007069 0.683251 -0.730150
vn -0.007069 0.683251 -0.730150
vn -0.007069 0.683251 -0.730150
vn -0.007069 0.683251 -0.730150
vn -0.007716 0.662329 -0.749173
vn -0.007716 0.662329 -0.749173
vn -0.007716 0.662329 -0.749173
vn -0.007716 0.662329 -0.749173
vn -0.687061 0.420057 -0.592874
vn -0.687061 0.420057 -0.592874
vn -0.687061 0.420057 -0.592874
vn -0.687061 0.420057 -0.592874
vn 0.682951 -0.098930 -0.723734
vn 0.682951 -0.098930 -0.723734
vn 0.682951 -0.098930 -0.723734
vn 0.682951 -0.098930 -0.723734
vn 0.698942 0.457146 -0.549997
vn 0.698942 0.457146 -0.549997
vn 0.698942 0.457146 -0.549997
vn 0.698942 0.457146 -0.549997
vn -0.390704 0.832791 -0.392186
vn -0.390704 0.832791 -0.392186
vn -0.390704 0.832791 -0.392186
vn -0.390704 0.832791 -0.392186
vn 0.307711 0.891167 -0.333370
vn 0.307711 0.891167 -0.333370
vn 0.307711 0.891167 -0.333370
vn 0.307711 0.891167 -0.333370
vn 0.000000 1.000000 0.000000
vn 0.000000 1.000000 0.000000
vn 0.000000 1.000000 0.000000
vn 0.000000 1.000000 0.000000
vn 0.000000 1.000000 0.000000
vn 0.000000 1.000000 0.000000
vn 0.000000 1.000000 0.000000
vn 0.000000 1.000000 0.000000
vn -0.483724 0.875221 0.000000
vn -0.483724 0.875221 0.000000
vn -0.483724 0.875221 0.000000
vn -0.483724 0.875221 0.000000
vn 0.000000 1.000000 0.000000
vn 0.000000 1.000000 0.000000
vn 0.000000 1.000000 0.000000
vn 0.000000 1.000000 0.000000
vn 0.312633 0.949874 0.000000
vn 0.312633 0.949874 0.000000
vn 0.312633 0.949874 0.000000
vn 0.312633 0.949874 0.000000
vn 1.000000 0.000000 0.000000
vn 1.000000 0.000000 0.000000
vn 1.000000 0.000000 0.000000
vn 1.000000 0.000000 0.000000
vn 0.625462 -0.780255 0.000000
vn 0.625462 -0.780255 0.000000
vn 0.625462 -0.780255 0.000000
vn 0.625462 -0.780255 0.000000
vn 0.000000 -1.000000 0.000000
vn 0.000000 -1.000000 0.000000
vn 0.000000 -1.000000 0.000000
vn 0.000000 -1.000000 0.000000
vn 0.000000 -0.797609 -0.603175
vn 0.000000 -0.797609 -0.603175
vn 0.000000 -0.797609 -0.603175
vn 0.000000 -0.797609 -0.603175
vn 0.697366 0.301401 -0.650260
vn 0.697366 0.301401 -0.650260
vn 0.697366 0.301401 -0.650260
vn 0.697366 0.301401 -0.650260
vn 0.006834 0.764083 -0.645081
vn 0.006834 0.764083 -0.645081
vn 0.006834 0.764083 -0.645081
vn 0.006834 0.764083 -0.645081
vn 0.000000 0.763267 -0.646083
vn 0.000000 0.763267 -0.646083
vn 0.000000 0.763267 -0.646083
vn 0.000000 0.763267 -0.646083
vn 0.636534 -0.396132 -0.661743
vn 0.636534 -0.396132 -0.661743
vn 0.636534 -0.396132 -0.661743
vn 0.636534 -0.396132 -0.661743
vn 0.035705 0.751237 -0.659066
vn 0.035705 0.751237 -0.659066
vn 0.035705 0.751237 -0.659066
vn 0.035705 0.751237 -0.659066
vn 0.000000 -1.000000 0.000000
vn 0.000000 -1.000000 0.000000
vn 0.000000 -1.000000 0.000000
vn 0.000000 -1.000000 0.000000
vn -0.615724 -0.787962 0.000000
vn -0.615724 -0.787962 0.000000
vn -0.615724 -0.787962 0.000000
vn -0.615724 -0.787962 0.000000
vn -1.000000 0.000000 0.000000
vn -1.000000 0.000000 0.000000
vn -1.000000 0.000000 0.000000
vn -1.000000 0.000000 0.000000
vn -0.335878 0.941906 0.000000
vn -0.335878 0.941906 0.000000
vn -0.335878 0.941906 0.000000
vn -0.335878 0.941906 0.000000
vn 0.000000 1.000000 0.000000
vn 0.000000 1.000000 0.000000
vn 0.000000 1.000000 0.000000
vn 0.000000 1.000000 0.000000
vn 0.524404 0.851470 0.000000
vn 0.524404 0.851470 0.000000
vn 0.524404 0.851470 0.000000
vn 0.524404 0.851470 0.000000
vn 0.000000 1.000000 0.000000
vn 0.000000 1.000000 0.000000
vn 0.000000 1.000000 0.000000
vn 0.000000 1.000000 0.000000
vn -0.524404 0.851470 0.000000
vn -0.524404 0.851470 0.000000
vn -0.524404 0.851470 0.000000
vn -0.524404 0.851470 0.000000
vn 0.000000 1.000000 0.000000
vn 0.000000 1.000000 0.000000
vn 0.000000 1.000000 0.000000
vn 0.000000 1.000000 0.000000
vn 0.335878 0.941906 0.000000
vn 0.335878 0.941906 0.000000
vn 0.335878 0.941906 0.000000
vn 0.335878 0.941906 0.000000
vn 1.000000 0.000000 0.000000
vn 1.000000 0.000000 0.000000
vn 1.000000 0.000000 0.000000
vn 1.000000 0.000000 0.000000
vn 0.615724 -0.787962 0.000000
vn 0.615724 -0.787962 0.000000
vn 0.615724 -0.787962 0.000000
vn 0.615724 -0.787962 0.000000
vn 0.007085 0.683240 0.730159
vn 0.007085 0.683240 0.730159
vn 0.007085 0.683240 0.730159
vn 0.007085 0.683240 0.730159
vn 0.007742 0.662294 0.749204
vn 0.007742 0.662294 0.749204
vn 0.007742 0.662294 0.749204
vn 0.007742 0.662294 0.749204
vn 0.687020 0.420083 0.592903
vn 0.687020 0.420083 0.592903
vn 0.687020 0.420083 0.592903
vn 0.687020 0.420083 0.592903
vn -0.682922 -0.098882 0.723768
vn -0.682922 -0.098882 0.723768
vn -0.682922 -0.098882 0.723768
vn -0.682922 -0.098882 0.723768
vn -0.698921 0.457151 0.550020
vn -0.698921 0.457151 0.550020
vn -0.698921 0.457151 0.550020
vn -0.698921 0.457151 0.550020
vn 0.390706 0.832779 0.392208
vn 0.390706 0.832779 0.392208
vn 0.390706 0.832779 0.392208
vn 0.390707 0.832779 0.392208
vn -0.307711 0.891167 0.333370
vn -0.307711 0.891167 0.333371
vn -0.307711 0.891167 0.333370
vn -0.307711 0.891167 0.333370
vn 0.000000 1.000000 0.000000
vn 0.000000 1.000000 0.000000
vn 0.000000 1.000000 0.000000
vn 0.000000 1.000000 0.000000
vn 0.483724 0.875221 0.000000
vn 0.483724 0.875221 0.000000
vn 0.483724 0.875221 0.000000
vn 0.483724 0.875221 0.000000
vn 0.000000 1.000000 0.000000
vn 0.000000 1.000000 0.000000
vn 0.000000 1.000000 0.000000
vn 0.000000 1.000000 0.000000
vn -0.312633 0.949874 0.000000
vn -0.312633 0.949874 0.000000
vn -0.312633 0.949874 0.000000
vn -0.312633 0.949874 0.000000
vn -1.000000 0.000000 0.000000
vn -1.000000 0.000000 0.000000
vn -1.000000 0.000000 0.000000
vn -1.000000 0.000000 0.000000
vn -0.625462 -0.780255 0.000000
vn -0.625462 -0.780255 0.000000
vn -0.625462 -0.780255 0.000000
vn -0.625462 -0.780255 0.000000
vn 0.000000 0.725048 0.688698
vn 0.000000 0.725048 0.688698
vn 0.000000 0.725048 0.688698
vn 0.000000 0.725048 0.688698
vn -0.697316 0.301410 0.650309
vn -0.697316 0.301410 0.650309
vn -0.697316 0.301410 0.650309
vn -0.697316 0.301410 0.650309
vn -0.006781 0.764062 0.645107
vn -0.006781 0.764062 0.645107
vn -0.006781 0.764062 0.645107
vn -0.006781 0.764062 0.645107
vn 0.000000 0.763267 0.646083
vn 0.000000 0.763267 0.646083
vn 0.000000 0.763267 0.646083
vn 0.000000 0.763267 0.646083
vn -0.636557 -0.396169 0.661698
vn -0.636557 -0.396169 0.661698
vn -0.636557 -0.396169 0.661698
vn -0.636557 -0.396169 0.661698
vn -0.035705 0.751237 0.659066
vn -0.035705 0.751237 0.659066
vn -0.035705 0.751237 0.659066
vn -0.035705 0.751237 0.659066
vn 0.000000 0.678114 0.734956
vn 0.000000 0.678114 0.734956
vn 0.000000 0.678114 0.734956
vn 0.000000 0.678114 0.734956
vn -0.007085 0.683240 0.730159
vn -0.007085 0.683240 0.730159
vn -0.007085 0.683240 0.730159
vn -0.007085 0.683240 0.730159
vn -0.007742 0.662294 0.749204
vn -0.007742 0.662294 0.749204
vn -0.007742 0.662294 0.749204
vn -0.007742 0.662294 0.749204
vn -0.687020 0.420083 0.592902
vn -0.687020 0.420083 0.592902
vn -0.687020 0.420083 0.592902
vn -0.687020 0.420083 0.592902
vn 0.682922 -0.098882 0.723768
vn 0.682922 -0.098882 0.723768
vn 0.682922 -0.098882 0.723768
vn 0.682922 -0.098882 0.723768
vn 0.698922 0.457151 0.550020
vn 0.698922 0.457151 0.550020
vn 0.698922 0.457151 0.550020
vn 0.698922 0.457151 0.550020
vn -0.390706 0.832779 0.392208
vn -0.390706 0.832779 0.392208
vn -0.390706 0.832779 0.392208
vn -0.390706 0.832779 0.392208
vn 0.307711 0.891167 0.333370
vn 0.307711 0.891167 0.333370
vn 0.307711 0.891167 0.333370
vn 0.307711 0.891167 0.333370
vn 0.000000 1.000000 -0.000000
vn 0.000000 1.000000 -0.000000
vn 0.000000 1.000000 -0.000000
vn 0.000000 1.000000 -0.000000
vn 0.000000 1.000000 0.000000
vn 0.000000 1.000000 0.000000
vn 0.000000 1.000000 0.000000
vn 0.000000 1.000000 0.000000
vn -0.483724 0.875221 0.000000
vn -0.483724 0.875221 0.000000
vn -0.483724 0.875221 0.000000
vn -0.483724 0.875221 0.000000
vn 0.000000 1.000000 0.000000
vn 0.000000 1.000000 0.000000
vn 0.000000 1.000000 0.000000
vn 0.000000 1.000000 0.000000
vn 0.312633 0.949874 0.000000
vn 0.312633 0.949874 0.000000
vn 0.312633 0.949874 0.000000
vn 0.312633 0.949874 0.000000
vn 1.000000 0.000000 0.000000
vn 1.000000 0.000000 0.000000
vn 1.000000 0.000000 0.000000
vn 1.000000 0.000000 0.000000
vn 0.625462 -0.780255 0.000000
vn 0.625462 -0.780255 0.000000
vn 0.625462 -0.780255 0.000000
vn 0.625462 -0.780255 0.000000
vn 0.000000 -1.000000 0.000000
vn 0.000000 -1.000000 0.000000
vn 0.000000 -1.000000 0.000000
vn 0.000000 -1.000000 0.000000
vn 0.000000 -0.797673 0.603090
vn 0.000000 -0.797673 0.603090
vn 0.000000 -0.797673 0.603090
vn 0.000000 -0.797673 0.603090
vn 0.697316 0.301410 0.650310
vn 0.697316 0.301410 0.650310
vn 0.697316 0.301410 0.650310
vn 0.697316 0.301410 0.650310
vn 0.006781 0.764062 0.645107
vn 0.006781 0.764062 0.645107
vn 0.006781 0.764062 0.645107
vn 0.006781 0.764062 0.645107
vn 0.000000 0.763267 0.646083
vn 0.000000 0.763267 0.646083
vn 0.000000 0.763267 0.646083
vn 0.000000 0.763267 0.646083
vn 0.636558 -0.396169 0.661698
vn 0.636558 -0.396169 0.661698
vn 0.636558 -0.396169 0.661698
vn 0.636558 -0.396169 0.661698
vn 0.035705 0.751237 0.659066
vn 0.035705 0.751237 0.659066
vn 0.035705 0.751237 0.659066
vn 0.035705 0.751237 0.659066
s off
f 8/1/1 7/2/2 9/3/3 10/4/4
f 11/5/5 8/1/6 10/4/7 12/6/8
f 5/7/9 4/8/10 7/2/11 8/1/12
f 4/8/13 1/9/14 9/3/15 7/2/16
f 1/9/17 2/10/18 10/4/19 9/3/20
f 6/11/21 5/7/22 8/1/23 11/5/24
f 2/10/25 3/12/26 12/6/27 10/4/28
f 3/12/29 6/11/30 11/5/31 12/6/32
f 6/13/33 14/14/34 13/15/35 5/16/36
f 15/17/37 14/14/38 6/13/39 3/18/40
f 2/19/41 16/20/42 15/17/43 3/18/44
f 1/21/45 17/22/46 16/20/47 2/19/48
f 4/23/49 18/24/50 17/22/51 1/21/52
f 19/25/53 43/26/54 37/27/55 13/28/56
f 16/29/57 17/30/58 22/31/59 21/32/60
f 15/33/61 16/29/62 21/32/63 23/34/64
f 14/35/65 15/33/66 23/34/67 24/36/68
f 17/30/69 18/37/70 20/38/71 22/31/72
f 13/28/73 14/35/74 24/36/75 19/25/76
f 4/8/77 5/7/78 29/39/79 28/40/80
f 32/41/81 34/42/82 33/43/83 31/44/84
f 35/45/85 36/46/86 34/42/87 32/41/88
f 29/39/89 32/41/90 31/44/91 28/40/92
f 28/40/93 31/44/94 33/43/95 25/47/96
f 25/47/97 33/43/98 34/42/99 26/48/100
f 30/49/101 35/45/102 32/41/103 29/39/104
f 26/48/105 34/42/106 36/46/107 27/50/108
f 27/50/109 36/46/110 35/45/111 30/49/112
f 5/16/113 13/15/114 37/51/115 29/52/116
f 30/53/117 29/52/118 37/51/119 38/54/120
f 39/55/121 27/56/122 30/53/123 38/54/124
f 26/57/125 27/56/126 39/55/127 40/58/128
f 25/59/129 26/57/130 40/58/131 41/60/132
f 28/61/133 25/59/134 41/60/135 42/62/136
f 18/24/137 4/23/138 28/61/139 42/62/140
f 20/38/141 18/37/142 42/63/143 44/64/144
f 40/65/145 45/66/146 46/67/147 41/68/148
f 39/69/149 47/70/150 45/66/151 40/65/152
f 38/71/153 48/72/154 47/70/155 39/69/156
f 41/68/157 46/67/158 44/64/159 42/63/160
f 37/27/161 43/26/162 48/72/163 38/71/164
f 20/38/165 44/64/166 92/73/167 68/74/168
f 22/31/169 20/38/170 68/74/171 70/75/172
f 21/32/173 22/31/174 70/75/175 69/76/176
f 23/34/177 21/32/178 69/76/179 71/77/180
f 24/36/181 23/34/182 71/77/183 72/78/184
f 19/25/185 24/36/186 72/78/187 67/79/188
f 43/26/189 19/25/190 67/79/191 91/80/192
f 48/72/193 43/26/194 91/80/195 96/81/196
f 47/70/197 48/72/198 96/81/199 95/82/200
f 45/66/201 47/70/202 95/82/203 93/83/204
f 46/67/205 45/66/206 93/83/207 94/84/208
f 44/64/209 46/67/210 94/84/211 92/73/212
f 56/85/213 58/86/214 57/87/215 55/88/216
f 59/89/217 60/90/218 58/86/219 56/85/220
f 53/91/221 56/85/222 55/88/223 52/92/224
f 52/92/225 55/88/226 57/87/227 49/93/228
f 49/93/229 57/87/230 58/86/231 50/94/232
f 54/95/233 59/89/234 56/85/235 53/91/236
f 50/94/237 58/86/238 60/90/239 51/96/240
f 51/96/241 60/90/242 59/89/243 54/95/244
f 54/97/245 53/98/246 61/99/247 62/100/248
f 63/101/249 51/102/250 54/97/251 62/100/252
f 50/103/253 51/102/254 63/101/255 64/104/256
f 49/105/257 50/103/258 64/104/259 65/106/260
f 52/107/261 49/105/262 65/106/263 66/108/264
f 67/79/265 61/109/266 85/110/267 91/80/268
f 64/111/269 69/76/270 70/75/271 65/112/272
f 63/113/273 71/77/274 69/76/275 64/111/276
f 62/114/277 72/78/278 71/77/279 63/113/280
f 65/112/281 70/75/282 68/74/283 66/115/284
f 61/109/285 67/79/286 72/78/287 62/114/288
f 52/92/289 76/116/290 77/117/291 53/91/292
f 80/118/293 79/119/294 81/120/295 82/121/296
f 83/122/297 80/118/298 82/121/299 84/123/300
f 77/117/301 76/116/302 79/119/303 80/118/304
f 76/116/305 73/124/306 81/120/307 79/119/308
f 73/124/309 74/125/310 82/121/311 81/120/312
f 78/126/313 77/117/314 80/118/315 83/122/316
f 74/125/317 75/127/318 84/123/319 82/121/320
f 75/127/321 78/126/322 83/122/323 84/123/324
f 53/98/325 77/128/326 85/129/327 61/99/328
f 78/130/329 86/131/330 85/129/331 77/128/332
f 87/132/333 86/131/334 78/130/335 75/133/336
f 74/134/337 88/135/338 87/132/339 75/133/340
f 73/136/341 89/137/342 88/135/343 74/134/344
f 76/138/345 90/139/346 89/137/347 73/136/348
f 66/108/349 90/139/350 76/138/351 52/107/352
f 68/74/353 92/73/354 90/140/355 66/115/356
f 88/141/357 89/142/358 94/84/359 93/83/360
f 87/143/361 88/141/362 93/83/363 95/82/364
f 86/144/365 87/143/366 95/82/367 96/81/368
f 89/142/369 90/140/370 92/73/371 94/84/372
f 85/110/373 86/144/374 96/81/375 91/80/376
