# This file uses meters as units for non-parametric coordinates.

v 0.000000 112.070313 33.839600
v 0.000061 31.893738 159.405029
v 0.000061 116.260742 -96.805420
v 0.000000 114.566040 28.581543
v 0.000000 112.892700 36.694580
v 0.000061 34.541687 160.390137
v 0.000061 119.060913 -95.170410
v 0.000000 117.822510 28.590332
v -32.322815 112.070313 33.839600
v -77.376038 62.595032 18.886475
v -65.242920 32.662598 159.006836
v -78.475220 63.502930 -89.265625
v -32.322754 116.262573 -97.635498
v -78.585083 63.195862 11.514160
v -32.322815 114.818970 28.046875
v -67.700928 33.345093 154.082275
v -35.417419 108.969788 33.138672
v -35.500366 112.078491 27.177002
v -35.108276 113.449219 -97.587402
v -31.762512 112.892700 36.694580
v -37.431946 109.221191 36.010254
v -78.249573 64.807983 21.189209
v -68.198975 36.208191 154.121338
v -64.163940 35.310547 159.991699
v -80.023804 65.698486 10.592285
v -37.961243 113.925537 27.170654
v -37.548096 114.991699 -95.863770
v -79.914673 65.998291 -87.574219
v -31.763428 119.062622 -95.971924
v -31.763428 118.075195 28.077148
v 0.000061 116.284180 -102.294678
v 0.000061 28.572021 160.654297
v -33.797058 115.136230 -102.294678
v -81.836121 57.913513 -95.028809
v -67.040039 28.572021 160.654297
v -81.836121 57.913513 20.947021
v 32.322815 112.070313 33.839600
v 77.376160 62.595032 18.886475
v 65.243042 32.662598 159.006836
v 78.475342 63.502930 -89.265625
v 32.322876 116.262573 -97.635498
v 78.585205 63.195862 11.514160
v 32.322815 114.818970 28.046875
v 67.701050 33.345093 154.082275
v 35.417419 108.969788 33.138672
v 35.500366 112.078491 27.177002
v 35.108398 113.449219 -97.587402
v 31.762573 112.892700 36.694580
v 37.432007 109.210938 36.067383
v 78.249695 64.807983 21.189209
v 68.199097 36.208191 154.121338
v 64.164063 35.310547 159.991699
v 80.023926 65.698486 10.592285
v 37.961304 113.777344 27.155762
v 37.548218 114.991699 -95.863770
v 79.914795 65.998291 -87.574219
v 31.763550 119.062622 -95.971924
v 31.763489 118.075195 28.077148
v 33.797180 115.136230 -102.294678
v 81.836243 57.913513 -95.028809
v 67.040161 28.572021 160.654297
v 81.836243 57.913513 20.947021
vt 0.134282 0.332268
vt 0.134282 0.332268
vt 0.134282 0.332268
vt 0.134282 0.332268
vt 0.134282 0.332268
vt 0.134282 0.332268
vt 0.134282 0.332268
vt 0.134282 0.332268
vt 0.134282 0.332268
vt 0.134282 0.332268
vt 0.134282 0.332268
vt 0.134282 0.332268
vt 0.134282 0.332268
vt 0.134282 0.332268
vt 0.134282 0.332268
vt 0.134282 0.332268
vt 0.134282 0.332268
vt 0.134282 0.332268
vt 0.134282 0.332268
vt 0.134282 0.332268
vt 0.134282 0.332268
vt 0.134282 0.332268
vt 0.134282 0.332268
vt 0.134282 0.332268
vt 0.134282 0.332268
vt 0.134282 0.332268
vt 0.134282 0.332268
vt 0.134282 0.332268
vt 0.134282 0.332268
vt 0.134282 0.332268
vt 0.134282 0.332268
vt 0.134282 0.332268
vt 0.134282 0.332268
vt 0.134282 0.332268
vt 0.134282 0.332268
vt 0.134282 0.332268
vt 0.134282 0.332268
vt 0.134282 0.332268
vt 0.134282 0.332268
vt 0.134282 0.332268
vt 0.134282 0.332268
vt 0.134282 0.332268
vt 0.134282 0.332268
vt 0.134282 0.332268
vt 0.134282 0.332268
vt 0.134282 0.332268
vt 0.134282 0.332268
vt 0.134282 0.332268
vt 0.134282 0.332268
vt 0.134282 0.332268
vt 0.134282 0.332268
vt 0.134282 0.332268
vt 0.134282 0.332268
vt 0.134282 0.332268
vt 0.134282 0.332268
vt 0.134282 0.332268
vt 0.134282 0.332268
vt 0.134282 0.332268
vt 0.134282 0.332268
vt 0.134282 0.332268
vt 0.134282 0.332268
vt 0.134282 0.332268
vt 0.134282 0.332268
vt 0.134282 0.332268
vt 0.134282 0.332268
vt 0.134282 0.332268
vt 0.134282 0.332268
vt 0.134282 0.332268
vt 0.134282 0.332268
vt 0.134282 0.332268
vt 0.134282 0.332268
vt 0.134282 0.332268
vt 0.134282 0.332268
vt 0.134282 0.332268
vt 0.134282 0.332268
vt 0.134282 0.332268
vt 0.134282 0.332268
vt 0.134282 0.332268
vt 0.134282 0.332268
vt 0.134282 0.332268
vt 0.134282 0.332268
vt 0.134282 0.332268
vt 0.134282 0.332268
vt 0.134282 0.332268
vt 0.134282 0.332268
vt 0.134282 0.332268
vt 0.134282 0.332268
vt 0.134282 0.332268
vt 0.134282 0.332268
vt 0.134282 0.332268
vt 0.134282 0.332268
vt 0.134282 0.332268
vt 0.134282 0.332268
vt 0.134282 0.332268
vt 0.134282 0.332268
vt 0.134282 0.332268
vt 0.134282 0.332268
vt 0.134282 0.332268
vt 0.134282 0.332268
vt 0.134282 0.332268
vt 0.134282 0.332268
vt 0.134282 0.332268
vt 0.134282 0.332268
vt 0.134282 0.332268
vt 0.134282 0.332268
vt 0.134282 0.332268
vt 0.134282 0.332268
vt 0.134282 0.332268
vt 0.134282 0.332268
vt 0.134282 0.332268
vt 0.134282 0.332268
vt 0.134282 0.332268
vt 0.134282 0.332268
vt 0.134282 0.332268
vt 0.134282 0.332268
vt 0.134282 0.332268
vt 0.134282 0.332268
vt 0.134282 0.332268
vt 0.134282 0.332268
vt 0.134282 0.332268
vt 0.134282 0.332268
vt 0.134282 0.332268
vt 0.134282 0.332268
vt 0.134282 0.332268
vt 0.134282 0.332268
vt 0.134282 0.332268
vt 0.134282 0.332268
vt 0.134282 0.332268
vt 0.134282 0.332268
vt 0.134282 0.332268
vt 0.134282 0.332268
vt 0.134282 0.332268
vt 0.134282 0.332268
vt 0.134282 0.332268
vt 0.134282 0.332268
vt 0.134282 0.332268
vt 0.134282 0.332268
vt 0.134282 0.332268
vt 0.134282 0.332268
vt 0.134282 0.332268
vt 0.134282 0.332268
vt 0.134282 0.332268
vt 0.134282 0.332268
vt 0.134282 0.332268
vt 0.134282 0.332268
vt 0.134282 0.332268
vt 0.134282 0.332268
vt 0.134282 0.332268
vt 0.134282 0.332268
vt 0.134282 0.332268
vt 0.134282 0.332268
vt 0.134282 0.332268
vt 0.134282 0.332268
vt 0.134282 0.332268
vt 0.134282 0.332268
vt 0.134282 0.332268
vt 0.134282 0.332268
vt 0.134282 0.332268
vt 0.134282 0.332268
vt 0.134282 0.332268
vt 0.134282 0.332268
vt 0.134282 0.332268
vt 0.134282 0.332268
vt 0.134282 0.332268
vt 0.134282 0.332268
vt 0.134282 0.332268
vt 0.134282 0.332268
vt 0.134282 0.332268
vt 0.134282 0.332268
vt 0.134282 0.332268
vt 0.134282 0.332268
vt 0.134282 0.332268
vt 0.134282 0.332268
vt 0.134282 0.332268
vt 0.134282 0.332268
vt 0.134282 0.332268
vt 0.134282 0.332268
vt 0.134282 0.332268
vt 0.134282 0.332268
vt 0.134282 0.332268
vt 0.134282 0.332268
vt 0.134282 0.332268
vt 0.134282 0.332268
vt 0.134282 0.332268
vt 0.134282 0.332268
vt 0.134282 0.332268
vt 0.134282 0.332268
vt 0.134282 0.332268
vt 0.134282 0.332268
vt 0.134282 0.332268
vt 0.134282 0.332268
vt 0.134282 0.332268
vt 0.134282 0.332268
vt 0.134282 0.332268
vt 0.134282 0.332268
vt 0.134282 0.332268
vt 0.134282 0.332268
vt 0.134282 0.332268
vt 0.134282 0.332268
vt 0.134282 0.332268
vt 0.134282 0.332268
vt 0.134282 0.332268
vt 0.134282 0.332268
vt 0.134282 0.332268
vt 0.134282 0.332268
vt 0.134282 0.332268
vt 0.134282 0.332268
vt 0.134282 0.332268
vt 0.134282 0.332268
vt 0.134282 0.332268
vt 0.134282 0.332268
vt 0.134282 0.332268
vt 0.134282 0.332268
vt 0.134282 0.332268
vt 0.134282 0.332268
vt 0.134282 0.332268
vt 0.134282 0.332268
vt 0.134282 0.332268
vt 0.134282 0.332268
vt 0.134282 0.332268
vt 0.134282 0.332268
vt 0.134282 0.332268
vt 0.134282 0.332268
vt 0.134282 0.332268
vt 0.134282 0.332268
vt 0.134282 0.332268
vt 0.134282 0.332268
vt 0.134282 0.332268
vt 0.134282 0.332268
vt 0.134282 0.332268
vt 0.134282 0.332268
vt 0.134282 0.332268
vt 0.134282 0.332268
vt 0.134282 0.332268
vt 0.134282 0.332268
vt 0.134282 0.332268
vt 0.134282 0.332268
vt 0.134282 0.332268
vt 0.134282 0.332268
vt 0.134282 0.332268
vt 0.134282 0.332268
vt 0.134282 0.332268
vt 0.134282 0.332268
vt 0.134282 0.332268
vt 0.134282 0.332268
vt 0.134282 0.332268
vt 0.134282 0.332268
vt 0.134282 0.332268
vt 0.134282 0.332268
vt 0.134282 0.332268
vt 0.134282 0.332268
vt 0.134282 0.332268
vt 0.134282 0.332268
vt 0.134282 0.332268
vt 0.134282 0.332268
vt 0.134282 0.332268
vt 0.134282 0.332268
vt 0.134282 0.332268
vt 0.134282 0.332268
vt 0.134282 0.332268
vt 0.134282 0.332268
vt 0.134282 0.332268
vt 0.134282 0.332268
vt 0.134282 0.332268
vt 0.134282 0.332268
vt 0.134282 0.332268
vt 0.134282 0.332268
vt 0.134282 0.332268
vt 0.134282 0.332268
vt 0.134282 0.332268
vt 0.134282 0.332268
vt 0.134282 0.332268
vt 0.134282 0.332268
vt 0.134282 0.332268
vt 0.134282 0.332268
vt 0.134282 0.332268
vt 0.134282 0.332268
vt 0.134282 0.332268
vt 0.134282 0.332268
vt 0.134282 0.332268
vt 0.134282 0.332268
vt 0.134282 0.332268
vt 0.134282 0.332268
vt 0.134282 0.332268
vt 0.134282 0.332268
vt 0.134282 0.332268
vt 0.134282 0.332268
vt 0.134282 0.332268
vt 0.134282 0.332268
vt 0.134282 0.332268
vt 0.134282 0.332268
vt 0.134282 0.332268
vt 0.134282 0.332268
vt 0.134282 0.332268
vt 0.134282 0.332268
vt 0.134282 0.332268
vt 0.134282 0.332268
vt 0.134282 0.332268
vt 0.134282 0.332268
vt 0.134282 0.332268
vn 0.015907 -0.994266 0.105743
vn 0.015907 -0.994266 0.105743
vn 0.015907 -0.994266 0.105743
vn 0.015907 -0.994266 0.105743
vn 0.764177 -0.638902 0.088529
vn 0.764177 -0.638902 0.088529
vn 0.764177 -0.638902 0.088529
vn 0.764177 -0.638902 0.088529
vn 0.000687 -0.364137 -0.931345
vn 0.000687 -0.364137 -0.931345
vn 0.000687 -0.364137 -0.931345
vn 0.000687 -0.364137 -0.931345
vn 0.843095 -0.505728 -0.182838
vn 0.843095 -0.505728 -0.182838
vn 0.843095 -0.505728 -0.182838
vn 0.843095 -0.505728 -0.182838
vn 0.854350 -0.519698 -0.000303
vn 0.854350 -0.519698 -0.000303
vn 0.854350 -0.519698 -0.000303
vn 0.854350 -0.519698 -0.000303
vn 0.675305 -0.717856 -0.169252
vn 0.675305 -0.717856 -0.169252
vn 0.675305 -0.717856 -0.169252
vn 0.760338 -0.602992 -0.241426
vn 0.760338 -0.602992 -0.241426
vn 0.760338 -0.602992 -0.241426
vn 0.760338 -0.602992 -0.241426
vn 0.000011 -0.903428 -0.428741
vn 0.000011 -0.903428 -0.428741
vn 0.000011 -0.903428 -0.428741
vn 0.000011 -0.903428 -0.428741
vn 0.742932 -0.503864 -0.440652
vn 0.742932 -0.503864 -0.440652
vn 0.742932 -0.503864 -0.440652
vn 0.617174 -0.729116 -0.295780
vn 0.617174 -0.729116 -0.295780
vn 0.617174 -0.729116 -0.295780
vn 0.617174 -0.729116 -0.295780
vn 0.686471 -0.648883 -0.328191
vn 0.686470 -0.648883 -0.328191
vn 0.686470 -0.648883 -0.328191
vn 0.686470 -0.648883 -0.328191
vn 0.682060 -0.731261 -0.007149
vn 0.682060 -0.731261 -0.007149
vn 0.682060 -0.731261 -0.007149
vn 0.682060 -0.731261 -0.007149
vn 0.709095 -0.703010 -0.054428
vn 0.709095 -0.703010 -0.054428
vn 0.709095 -0.703010 -0.054428
vn 0.000000 -0.960928 0.276799
vn 0.000000 -0.960928 0.276799
vn 0.000000 -0.960928 0.276799
vn 0.000000 -0.960928 0.276800
vn 0.498327 -0.641217 0.583533
vn 0.498327 -0.641217 0.583533
vn 0.498327 -0.641217 0.583533
vn 0.498327 -0.641217 0.583533
vn 0.963721 0.266577 -0.013384
vn 0.963721 0.266577 -0.013384
vn 0.963721 0.266577 -0.013384
vn 0.963721 0.266577 -0.013384
vn -0.857528 -0.303862 -0.415106
vn -0.857528 -0.303862 -0.415106
vn -0.857528 -0.303862 -0.415106
vn -0.857528 -0.303862 -0.415106
vn 0.912024 -0.409692 -0.019089
vn 0.912024 -0.409692 -0.019089
vn 0.912024 -0.409692 -0.019089
vn 0.912024 -0.409692 -0.019089
vn 0.009895 0.346852 -0.937868
vn 0.009895 0.346852 -0.937868
vn 0.009895 0.346852 -0.937868
vn 0.009895 0.346852 -0.937868
vn 0.293450 0.059475 -0.954123
vn 0.293450 0.059475 -0.954123
vn 0.293450 0.059475 -0.954123
vn 0.293450 0.059475 -0.954123
vn -0.571162 -0.820777 -0.009928
vn -0.571162 -0.820777 -0.009928
vn -0.571162 -0.820777 -0.009928
vn -0.571162 -0.820777 -0.009928
vn 0.467910 -0.263841 0.843474
vn 0.467911 -0.263841 0.843474
vn 0.467910 -0.263841 0.843474
vn 0.467910 -0.263841 0.843474
vn 0.866742 0.498750 0.002475
vn 0.866742 0.498750 0.002475
vn 0.866742 0.498750 0.002475
vn 0.866742 0.498750 0.002475
vn -0.021984 -0.505762 0.862393
vn -0.021984 -0.505762 0.862393
vn -0.021984 -0.505762 0.862393
vn -0.021984 -0.505762 0.862393
vn 0.983450 -0.181169 -0.001763
vn 0.983450 -0.181169 -0.001763
vn 0.983450 -0.181169 -0.001763
vn 0.983450 -0.181169 -0.001763
vn 0.016385 0.004590 -0.999855
vn 0.016385 0.004590 -0.999855
vn 0.016385 0.004590 -0.999855
vn 0.016385 0.004590 -0.999855
vn -0.536622 0.727150 0.428123
vn -0.536622 0.727150 0.428123
vn -0.536622 0.727150 0.428123
vn -0.536622 0.727150 0.428123
vn -0.478279 0.795848 0.371316
vn -0.478279 0.795848 0.371316
vn -0.478279 0.795848 0.371316
vn -0.478279 0.795848 0.371316
vn -0.738048 0.370464 0.563952
vn -0.738048 0.370464 0.563952
vn -0.738048 0.370464 0.563952
vn -0.002599 0.073318 0.997305
vn -0.002599 0.073318 0.997305
vn -0.002599 0.073318 0.997305
vn -0.002599 0.073318 0.997305
vn -0.966201 0.219763 0.134758
vn -0.966201 0.219763 0.134758
vn -0.966201 0.219763 0.134758
vn -0.966201 0.219763 0.134758
vn -0.874608 0.448508 0.184124
vn -0.874608 0.448508 0.184125
vn -0.874608 0.448508 0.184124
vn -0.761723 0.593017 0.260977
vn -0.761723 0.593017 0.260977
vn -0.761723 0.593017 0.260977
vn -0.761723 0.593017 0.260977
vn -0.565974 0.824402 0.005906
vn -0.565974 0.824402 0.005906
vn -0.565974 0.824402 0.005906
vn -0.565974 0.824402 0.005906
vn -0.551983 0.776263 -0.304516
vn -0.551983 0.776263 -0.304516
vn -0.551983 0.776263 -0.304516
vn -0.722657 0.554691 -0.412413
vn -0.722657 0.554691 -0.412413
vn -0.722657 0.554691 -0.412413
vn -0.722657 0.554691 -0.412413
vn -0.973428 0.228992 -0.000175
vn -0.973428 0.228992 -0.000175
vn -0.973428 0.228992 -0.000175
vn -0.973428 0.228992 -0.000175
vn -0.010219 0.895539 -0.444866
vn -0.010219 0.895539 -0.444866
vn -0.010219 0.895539 -0.444866
vn -0.010219 0.895539 -0.444866
vn -0.000777 0.855697 0.517476
vn -0.000777 0.855697 0.517476
vn -0.000777 0.855697 0.517476
vn -0.000777 0.855697 0.517476
vn -0.015907 -0.994266 0.105743
vn -0.015907 -0.994266 0.105743
vn -0.015907 -0.994266 0.105743
vn -0.015907 -0.994266 0.105743
vn -0.764177 -0.638902 0.088529
vn -0.764177 -0.638902 0.088529
vn -0.764177 -0.638902 0.088529
vn -0.764177 -0.638902 0.088529
vn -0.000687 -0.364137 -0.931345
vn -0.000687 -0.364137 -0.931345
vn -0.000687 -0.364137 -0.931345
vn -0.000687 -0.364137 -0.931345
vn -0.843095 -0.505728 -0.182839
vn -0.843095 -0.505728 -0.182839
vn -0.843095 -0.505728 -0.182839
vn -0.843095 -0.505728 -0.182839
vn -0.854351 -0.519697 -0.000303
vn -0.854351 -0.519697 -0.000303
vn -0.854351 -0.519697 -0.000303
vn -0.854351 -0.519697 -0.000303
vn -0.675304 -0.717857 -0.169252
vn -0.675304 -0.717857 -0.169252
vn -0.675304 -0.717857 -0.169252
vn -0.760337 -0.602993 -0.241426
vn -0.760337 -0.602993 -0.241426
vn -0.760337 -0.602993 -0.241426
vn -0.760337 -0.602993 -0.241426
vn -0.000011 -0.903428 -0.428741
vn -0.000011 -0.903428 -0.428741
vn -0.000011 -0.903428 -0.428741
vn -0.000011 -0.903428 -0.428741
vn -0.742931 -0.503865 -0.440651
vn -0.742931 -0.503865 -0.440651
vn -0.742931 -0.503865 -0.440651
vn -0.617174 -0.729117 -0.295780
vn -0.617174 -0.729117 -0.295780
vn -0.617174 -0.729117 -0.295780
vn -0.617174 -0.729117 -0.295780
vn -0.686470 -0.648883 -0.328191
vn -0.686470 -0.648883 -0.328191
vn -0.686470 -0.648883 -0.328191
vn -0.686470 -0.648883 -0.328191
vn -0.682061 -0.731261 -0.007150
vn -0.682061 -0.731261 -0.007150
vn -0.682060 -0.731261 -0.007150
vn -0.682060 -0.731261 -0.007150
vn -0.709095 -0.703010 -0.054428
vn -0.709095 -0.703010 -0.054428
vn -0.709095 -0.703010 -0.054428
vn 0.000000 -0.960928 0.276797
vn 0.000000 -0.960928 0.276797
vn 0.000000 -0.960928 0.276797
vn 0.000000 -0.960928 0.276797
vn -0.912028 -0.409684 -0.019081
vn -0.912028 -0.409684 -0.019081
vn -0.912028 -0.409684 -0.019081
vn -0.912028 -0.409684 -0.019081
vn -0.501632 -0.643093 0.578616
vn -0.501632 -0.643093 0.578616
vn -0.501632 -0.643093 0.578616
vn -0.501632 -0.643093 0.578616
vn -0.963720 0.266578 -0.013384
vn -0.963720 0.266578 -0.013384
vn -0.963721 0.266578 -0.013384
vn -0.963720 0.266578 -0.013384
vn 0.859520 -0.300354 -0.413537
vn 0.859520 -0.300354 -0.413537
vn 0.859520 -0.300354 -0.413537
vn 0.859520 -0.300354 -0.413537
vn -0.009895 0.346852 -0.937868
vn -0.009895 0.346852 -0.937868
vn -0.009895 0.346852 -0.937868
vn -0.009895 0.346852 -0.937868
vn -0.294080 0.058815 -0.953970
vn -0.294080 0.058815 -0.953970
vn -0.294080 0.058815 -0.953970
vn -0.294080 0.058815 -0.953970
vn 0.554153 -0.832349 -0.010484
vn 0.554153 -0.832349 -0.010484
vn 0.554153 -0.832349 -0.010484
vn 0.554153 -0.832349 -0.010484
vn -0.467910 -0.263841 0.843474
vn -0.467910 -0.263841 0.843474
vn -0.467910 -0.263841 0.843474
vn -0.467910 -0.263841 0.843474
vn -0.866744 0.498748 0.002475
vn -0.866744 0.498748 0.002475
vn -0.866744 0.498748 0.002475
vn -0.866744 0.498748 0.002475
vn 0.021984 -0.505762 0.862393
vn 0.021984 -0.505762 0.862393
vn 0.021984 -0.505762 0.862393
vn 0.021984 -0.505762 0.862393
vn -0.983452 -0.181160 -0.001764
vn -0.983452 -0.181160 -0.001764
vn -0.983452 -0.181160 -0.001764
vn -0.983452 -0.181160 -0.001764
vn -0.016385 0.004590 -0.999855
vn -0.016385 0.004590 -0.999855
vn -0.016385 0.004590 -0.999855
vn -0.016385 0.004590 -0.999855
vn 0.477358 0.796170 0.371812
vn 0.477358 0.796170 0.371812
vn 0.477358 0.796170 0.371812
vn 0.477358 0.796170 0.371812
vn 0.543410 0.726550 0.420513
vn 0.543410 0.726550 0.420513
vn 0.543410 0.726550 0.420513
vn 0.543410 0.726550 0.420513
vn 0.738048 0.370463 0.563952
vn 0.738048 0.370463 0.563952
vn 0.738048 0.370463 0.563952
vn 0.002599 0.073318 0.997305
vn 0.002599 0.073318 0.997305
vn 0.002599 0.073318 0.997305
vn 0.002599 0.073318 0.997305
vn 0.966201 0.219763 0.134758
vn 0.966201 0.219763 0.134758
vn 0.966201 0.219763 0.134758
vn 0.966201 0.219763 0.134758
vn 0.874608 0.448508 0.184124
vn 0.874608 0.448508 0.184124
vn 0.874608 0.448508 0.184124
vn 0.761510 0.595271 0.256426
vn 0.761510 0.595271 0.256426
vn 0.761510 0.595271 0.256426
vn 0.761510 0.595271 0.256426
vn 0.572869 0.819622 0.006346
vn 0.572869 0.819622 0.006346
vn 0.572869 0.819622 0.006346
vn 0.572869 0.819622 0.006346
vn 0.551983 0.776263 -0.304516
vn 0.551983 0.776263 -0.304516
vn 0.551983 0.776263 -0.304516
vn 0.722657 0.554691 -0.412413
vn 0.722657 0.554691 -0.412413
vn 0.722657 0.554691 -0.412413
vn 0.722657 0.554691 -0.412413
vn 0.973429 0.228991 -0.000175
vn 0.973428 0.228991 -0.000175
vn 0.973429 0.228991 -0.000175
vn 0.973428 0.228991 -0.000175
vn 0.010219 0.895539 -0.444866
vn 0.010219 0.895539 -0.444866
vn 0.010219 0.895539 -0.444866
vn 0.010219 0.895539 -0.444866
vn 0.000777 0.855697 0.517477
vn 0.000777 0.855697 0.517477
vn 0.000777 0.855697 0.517477
vn 0.000777 0.855697 0.517477
s off
f 31/1/1 3/4/2 13/3/3 33/2/4
f 12/5/5 34/8/6 33/7/7 19/6/8
f 2/9/9 32/12/10 35/11/11 11/10/12
f 16/13/13 35/16/14 36/15/15 10/14/16
f 12/17/17 14/20/18 36/19/19 34/18/20
f 14/21/21 10/23/22 36/22/23
f 17/24/24 10/27/25 14/26/26 18/25/27
f 4/28/28 1/31/29 9/30/30 15/29/31
f 16/32/32 11/34/33 35/33/34
f 17/38/35 9/37/36 11/35/37 16/36/38
f 9/39/39 17/42/40 18/41/41 15/40/42
f 19/43/43 13/46/44 15/45/45 18/44/46
f 33/47/47 13/49/48 19/48/49
f 1/50/50 5/53/51 20/52/52 9/51/53
f 17/56/54 21/59/55 22/58/56 10/57/57
f 22/60/58 23/63/59 16/62/60 10/61/61
f 21/66/62 17/67/63 16/64/64 23/65/65
f 24/69/66 11/68/67 9/55/68 20/54/69
f 11/70/70 24/73/71 6/72/72 2/71/73
f 14/74/74 25/77/75 26/76/76 18/75/77
f 18/78/78 26/81/79 27/80/80 19/79/81
f 19/82/82 27/85/83 28/84/84 12/83/85
f 12/86/86 28/89/87 25/88/88 14/87/89
f 3/90/90 7/93/91 29/92/92 13/91/93
f 13/94/94 29/97/95 30/96/96 15/95/97
f 15/98/98 30/101/99 8/100/100 4/99/101
f 20/104/102 30/107/103 26/106/104 21/105/105
f 21/103/106 23/108/107 24/109/108 20/102/109
f 23/110/110 35/112/111 24/111/112
f 35/113/113 32/116/114 6/115/115 24/114/116
f 23/117/117 22/120/118 36/119/119 35/118/120
f 22/121/121 25/123/122 36/122/123
f 22/124/124 21/127/125 26/126/126 25/125/127
f 30/128/128 29/131/129 27/130/130 26/129/131
f 29/132/132 33/134/133 27/133/134
f 27/135/135 33/138/136 34/137/137 28/136/138
f 34/139/139 36/142/140 25/141/141 28/140/142
f 29/143/143 7/146/144 31/145/145 33/144/146
f 20/147/147 5/150/148 8/149/149 30/148/150
f 31/151/151 59/152/152 41/153/153 3/154/154
f 40/155/155 47/156/156 59/157/157 60/158/158
f 2/159/159 39/160/160 61/161/161 32/162/162
f 44/163/163 38/164/164 62/165/165 61/166/166
f 40/167/167 60/168/168 62/169/169 42/170/170
f 42/171/171 62/172/172 38/173/173
f 45/174/174 46/175/175 42/176/176 38/177/177
f 4/178/178 43/179/179 37/180/180 1/181/181
f 44/182/182 61/183/183 39/184/184
f 44/186/185 39/185/186 37/187/187 45/188/188
f 37/189/189 43/190/190 46/191/191 45/192/192
f 47/193/193 46/194/194 43/195/195 41/196/196
f 59/197/197 47/198/198 41/199/199
f 1/200/200 37/201/201 48/202/202 5/203/203
f 48/204/204 37/205/205 39/218/206 52/219/207
f 45/206/208 38/207/209 50/208/210 49/209/211
f 50/210/212 38/211/213 44/212/214 51/213/215
f 51/215/216 44/214/217 45/217/218 49/216/219
f 39/220/220 2/221/221 6/222/222 52/223/223
f 42/224/224 46/225/225 54/226/226 53/227/227
f 46/228/228 47/229/229 55/230/230 54/231/231
f 47/232/232 40/233/233 56/234/234 55/235/235
f 40/236/236 42/237/237 53/238/238 56/239/239
f 3/240/240 41/241/241 57/242/242 7/243/243
f 41/244/244 43/245/245 58/246/246 57/247/247
f 43/248/248 4/249/249 8/250/250 58/251/251
f 51/258/252 49/253/253 48/252/254 52/259/255
f 48/254/256 49/255/257 54/256/258 58/257/259
f 51/260/260 52/261/261 61/262/262
f 61/263/263 52/264/264 6/265/265 32/266/266
f 51/267/267 61/268/268 62/269/269 50/270/270
f 50/271/271 62/272/272 53/273/273
f 50/274/274 53/275/275 54/276/276 49/277/277
f 58/278/278 54/279/279 55/280/280 57/281/281
f 57/282/282 55/283/283 59/284/284
f 55/285/285 56/286/286 60/287/287 59/288/288
f 60/289/289 56/290/290 53/291/291 62/292/292
f 57/293/293 59/294/294 31/295/295 7/296/296
f 48/297/297 58/298/298 8/299/299 5/300/300
v -80.023804 65.698547 10.592285
v -79.914673 65.998413 -87.574219
v -37.548096 114.991699 -95.863770
v -37.961243 113.925537 27.170654
v 0.000000 117.822571 28.590332
v -31.763428 118.075195 28.077148
v -31.763428 119.062683 -95.971924
v 0.000000 119.060913 -95.170410
v 31.763489 119.062683 -95.971924
v 31.763489 118.075195 28.077148
v 37.432007 109.221191 36.010254
v 78.249634 64.808044 21.189209
v 68.199036 36.208252 154.121338
v -31.762512 112.892700 36.694580
v 0.000000 112.892700 36.694580
v 31.762573 112.892700 36.694580
v 0.000000 34.541748 160.390137
v -64.163940 35.310669 159.991699
v 64.164001 35.310669 159.991699
v -37.431946 109.221191 36.010254
v -68.198975 36.208252 154.121338
v -78.249573 64.808044 21.189209
v 80.023865 65.698547 10.592285
v 37.961304 113.925537 27.170654
v 37.548157 114.991699 -95.863770
v 79.914734 65.998413 -87.574219
vt 0.389218 0.094986
vt 0.389218 0.094986
vt 0.389218 0.094986
vt 0.389218 0.094986
vt 0.389218 0.094986
vt 0.389218 0.094986
vt 0.389218 0.094986
vt 0.389218 0.094986
vt 0.389218 0.094986
vt 0.389218 0.094986
vt 0.389218 0.094986
vt 0.389218 0.094986
vt 0.389218 0.094986
vt 0.389218 0.094986
vt 0.389218 0.094986
vt 0.389218 0.094986
vt 0.389218 0.094986
vt 0.389218 0.094986
vt 0.389218 0.094986
vt 0.389218 0.094986
vt 0.389218 0.094986
vt 0.389218 0.094986
vt 0.389218 0.094986
vt 0.389218 0.094986
vt 0.389218 0.094986
vt 0.389218 0.094986
vt 0.389218 0.094986
vt 0.389218 0.094986
vt 0.389218 0.094986
vt 0.389218 0.094986
vn 0.755123 -0.655579 -0.002266
vn 0.755123 -0.655579 -0.002266
vn 0.755123 -0.655579 -0.002266
vn 0.755123 -0.655579 -0.002266
vn -0.003818 -0.999952 -0.008982
vn -0.003818 -0.999952 -0.008982
vn -0.003818 -0.999952 -0.008982
vn -0.003818 -0.999952 -0.008982
vn 0.003818 -0.999952 -0.008982
vn 0.003818 -0.999952 -0.008982
vn 0.003818 -0.999952 -0.008982
vn 0.003818 -0.999952 -0.008982
vn -0.753673 -0.628518 -0.192206
vn -0.753673 -0.628518 -0.192206
vn -0.753673 -0.628518 -0.192206
vn 0.004557 -0.845307 -0.534262
vn 0.004557 -0.845307 -0.534262
vn 0.004557 -0.845307 -0.534262
vn 0.004557 -0.845307 -0.534262
vn -0.004557 -0.845307 -0.534262
vn -0.004557 -0.845307 -0.534262
vn -0.004557 -0.845307 -0.534262
vn -0.004557 -0.845307 -0.534262
vn 0.753673 -0.628518 -0.192206
vn 0.753673 -0.628518 -0.192206
vn 0.753673 -0.628518 -0.192206
vn -0.755123 -0.655579 -0.002266
vn -0.755123 -0.655579 -0.002266
vn -0.755123 -0.655579 -0.002266
vn -0.755123 -0.655579 -0.002266
s off
f 63/301/301 64/302/302 65/303/303 66/304/304
f 70/305/305 67/306/306 68/307/307 69/308/308
f 70/309/309 71/310/310 72/311/311 67/312/312
f 73/313/313 74/314/314 75/315/315
f 77/316/316 78/317/317 81/318/318 79/319/319
f 77/320/320 79/321/321 80/322/322 76/323/323
f 82/324/324 83/325/325 84/326/326
f 85/327/327 86/328/328 87/329/329 88/330/330
