# This file uses meters as units for non-parametric coordinates.

v -97.369690 23.114929 168.472900
v 65.881653 -51.694031 168.472900
v -87.330627 58.904724 168.472900
v 78.943176 -15.807190 168.472900
v -89.040833 40.123596 -237.757568
v 70.760193 -33.487854 4.776611
v -95.513611 29.804993 -237.757568
v 67.737732 -45.004578 4.776611
v -94.710388 32.325134 231.197510
v 68.540955 -42.484436 231.197510
v 70.760193 -33.487854 231.197510
v -89.040833 40.123596 231.197510
v 108.417664 -63.940125 4.466553
v 106.545715 -70.664978 168.729248
v 111.440125 -52.422791 4.466553
v 119.607849 -34.777527 168.729248
v 111.408997 -52.492981 232.020264
v 109.189758 -61.489563 232.020264
v 41.487122 -12.356262 24.901123
v 34.567566 -31.915588 11.805420
v -62.661438 32.632751 -120.228271
v -41.100159 18.040466 -164.998779
v -46.538391 7.361755 -164.998779
v -69.794617 16.390686 -122.847900
v -66.374817 18.088684 -121.983643
v -45.002747 9.858093 -161.688232
v 66.638489 -40.751648 3.109131
v 35.820618 -28.652039 9.354248
v -60.665588 28.821106 -120.411377
v -41.474915 16.412659 -161.636963
v 41.326599 -14.759216 20.906982
v 67.864685 -33.397522 3.160400
v -85.455627 28.075256 237.933350
v 59.347839 -38.280334 237.933350
v 61.746521 -29.065247 237.906494
v -79.978333 36.269836 237.913818
v -87.995911 19.408264 180.523682
v 56.808167 -46.947327 180.523682
v -78.229675 53.625793 180.469971
v 69.291077 -12.560730 180.487061
v -79.223328 28.341980 233.980713
v 55.384827 -33.341370 233.980713
v 55.883484 -28.742371 233.782959
v -75.862732 31.992493 233.790283
v -80.707092 22.292786 182.066650
v 53.901672 -39.390564 182.066650
v -75.090637 46.166687 181.673584
v 62.043762 -15.360413 181.688232
v 69.122620 -12.788391 151.058350
v 65.333557 -27.180481 36.724854
v 107.044373 -31.236267 151.058350
v 103.592834 -44.875183 32.462158
v -54.561462 42.284241 151.058350
v 32.912292 -5.303650 53.970947
v 126.255188 -59.804993 37.562256
v 125.036926 -63.772888 159.151611
v 127.997742 -52.668152 37.562256
v 133.210144 -41.673889 159.151611
v 128.092346 -52.420959 218.468018
v 126.839294 -58.002625 218.470459
v -129.674377 46.193542 -237.933350
v -133.210144 45.318909 153.748779
v -129.876404 70.664978 155.882568
v -126.595154 56.238708 -237.930908
v -103.567810 36.305847 226.187744
v -98.367615 42.803650 226.173096
v 17.593079 -0.401917 25.394287
v -55.909729 40.259705 107.315674
v -70.766907 46.677551 86.612549
v -58.098450 33.185730 -61.646729
v -49.262390 28.477478 -67.769775
vt 0.308340 0.384025
vt 0.308340 0.384025
vt 0.308340 0.384025
vt 0.308340 0.384025
vt 0.245219 0.252728
vt 0.245219 0.252728
vt 0.245219 0.252728
vt 0.245219 0.252728
vt 0.245219 0.252728
vt 0.245219 0.252728
vt 0.308340 0.384025
vt 0.308340 0.384025
vt 0.308340 0.384025
vt 0.308340 0.384025
vt 0.245219 0.252728
vt 0.245219 0.252728
vt 0.245219 0.252728
vt 0.245219 0.252728
vt 0.245219 0.252728
vt 0.245219 0.252728
vt 0.245219 0.252728
vt 0.245219 0.252728
vt 0.308340 0.384025
vt 0.308340 0.384025
vt 0.245219 0.252728
vt 0.245219 0.252728
vt 0.308340 0.384025
vt 0.308340 0.384025
vt 0.245219 0.252728
vt 0.245219 0.252728
vt 0.245219 0.252728
vt 0.245219 0.252728
vt 0.245219 0.252728
vt 0.245219 0.252728
vt 0.245219 0.252728
vt 0.245219 0.252728
vt 0.283511 0.386152
vt 0.283511 0.386152
vt 0.283511 0.386152
vt 0.283511 0.386152
vt 0.245219 0.252728
vt 0.245219 0.252728
vt 0.245219 0.252728
vt 0.245219 0.252728
vt 0.245219 0.252728
vt 0.245219 0.252728
vt 0.245219 0.252728
vt 0.245219 0.252728
vt 0.245219 0.252728
vt 0.245219 0.252728
vt 0.283511 0.386152
vt 0.283511 0.386156
vt 0.245219 0.252728
vt 0.308340 0.384025
vt 0.308340 0.384025
vt 0.308340 0.384025
vt 0.308340 0.384025
vt 0.245219 0.252728
vt 0.245219 0.252728
vt 0.245219 0.252728
vt 0.245219 0.252728
vt 0.245219 0.252728
vt 0.245219 0.252728
vt 0.245219 0.252728
vt 0.245219 0.252728
vt 0.245219 0.252728
vt 0.245219 0.252728
vt 0.245219 0.252728
vt 0.245219 0.252728
vt 0.245219 0.252728
vt 0.245219 0.252728
vt 0.245219 0.252728
vt 0.245219 0.252728
vt 0.245219 0.252728
vt 0.245219 0.252728
vt 0.245219 0.252728
vt 0.245219 0.252728
vt 0.245219 0.252728
vt 0.245219 0.252728
vt 0.245219 0.252728
vt 0.245219 0.252728
vt 0.245219 0.252728
vt 0.245219 0.252728
vt 0.245219 0.252728
vt 0.245219 0.252728
vt 0.245219 0.252728
vt 0.245219 0.252728
vt 0.245219 0.252728
vt 0.245219 0.252728
vt 0.245219 0.252728
vt 0.245219 0.252728
vt 0.245219 0.252728
vt 0.245219 0.252728
vt 0.245219 0.252728
vt 0.245219 0.252728
vt 0.245219 0.252728
vt 0.245219 0.252728
vt 0.245219 0.252728
vt 0.245219 0.252728
vt 0.245219 0.252728
vt 0.283511 0.386156
vt 0.283511 0.386156
vt 0.283511 0.386156
vt 0.283511 0.386156
vt 0.283511 0.386156
vn 0.017807 0.038683 0.999093
vn 0.017807 0.038683 0.999093
vn 0.017807 0.038683 0.999093
vn 0.017807 0.038683 0.999093
vn 0.339731 0.939727 -0.038693
vn 0.324618 0.945844 0.001747
vn 0.446305 0.893837 -0.043203
vn 0.702436 -0.398466 -0.589753
vn 0.702436 -0.398466 -0.589753
vn 0.702436 -0.398466 -0.589753
vn 0.702436 -0.398466 -0.589753
vn -0.383231 -0.923264 -0.026783
vn -0.383231 -0.923264 -0.026783
vn -0.383231 -0.923264 -0.026783
vn -0.383231 -0.923264 -0.026783
vn 0.946995 -0.321187 -0.006274
vn 0.946995 -0.321187 -0.006274
vn 0.946995 -0.321187 -0.006274
vn 0.946995 -0.321187 -0.006274
vn -0.980719 0.178337 -0.079919
vn -0.983786 0.178966 -0.011625
vn -0.983787 0.178966 -0.011625
vn -0.981538 0.178498 -0.068713
vn -0.413724 -0.902850 0.117025
vn -0.413724 -0.902850 0.117025
vn -0.413724 -0.902850 0.117025
vn -0.413724 -0.902850 0.117025
vn 0.946539 -0.322330 0.012930
vn 0.946539 -0.322330 0.012930
vn 0.946539 -0.322330 0.012930
vn 0.946539 -0.322330 0.012930
vn 0.399785 0.879231 0.259086
vn 0.399785 0.879231 0.259086
vn 0.399785 0.879231 0.259086
vn 0.399785 0.879231 0.259086
vn -0.878814 0.206902 0.429973
vn -0.878814 0.206902 0.429973
vn -0.878814 0.206902 0.429973
vn -0.878814 0.206902 0.429973
vn -0.422044 -0.905610 -0.041839
vn -0.422044 -0.905609 -0.041839
vn -0.422044 -0.905610 -0.041839
vn -0.422044 -0.905609 -0.041839
vn -0.006792 0.001782 -0.999975
vn -0.006792 0.001782 -0.999975
vn -0.006792 0.001782 -0.999975
vn -0.006792 0.001782 -0.999975
vn 0.419924 0.899418 -0.121290
vn 0.419924 0.899418 -0.121290
vn 0.419924 0.899418 -0.121290
vn 0.419924 0.899418 -0.121290
vn 0.401009 0.867047 0.295672
vn 0.401009 0.867046 0.295672
vn 0.401009 0.867046 0.295672
vn 0.401009 0.867046 0.295672
vn -0.018144 0.004476 0.999825
vn -0.018144 0.004476 0.999825
vn -0.018144 0.004476 0.999825
vn -0.018144 0.004476 0.999825
vn -0.420097 -0.895280 0.148296
vn -0.420097 -0.895280 0.148296
vn -0.420097 -0.895280 0.148296
vn -0.420097 -0.895280 0.148296
vn -0.409230 -0.911823 -0.033318
vn -0.409230 -0.911823 -0.033318
vn -0.409230 -0.911823 -0.033318
vn -0.409230 -0.911823 -0.033318
vn 0.432067 0.897138 -0.091983
vn 0.432067 0.897138 -0.091983
vn 0.432067 0.897138 -0.091983
vn 0.432067 0.897138 -0.091983
vn -0.401940 -0.915510 -0.016914
vn -0.401940 -0.915510 -0.016914
vn -0.401940 -0.915510 -0.016914
vn 0.492037 0.867331 -0.075078
vn 0.492037 0.867331 -0.075078
vn 0.492037 0.867331 -0.075078
vn 0.492037 0.867331 -0.075078
vn 0.764655 -0.257004 -0.590975
vn 0.764655 -0.257004 -0.590975
vn 0.764655 -0.257004 -0.590975
vn 0.764655 -0.257004 -0.590975
vn -0.392403 -0.919586 -0.019523
vn -0.392403 -0.919586 -0.019523
vn -0.392403 -0.919586 -0.019523
vn 0.446313 0.893834 -0.043205
vn 0.446314 0.893833 -0.043204
vn 0.324618 0.945844 0.001747
vn 0.482532 0.874299 -0.052580
vn 0.482532 0.874299 -0.052580
vn 0.482532 0.874299 -0.052580
vn -0.488468 -0.872528 0.009695
vn -0.476753 -0.878958 -0.011850
vn -0.401937 -0.915511 -0.016914
vn 0.384270 -0.838511 0.386311
vn 0.384270 -0.838511 0.386311
vn 0.384270 -0.838511 0.386311
vn 0.384270 -0.838511 0.386311
vn -0.346554 -0.445295 -0.825599
vn -0.346554 -0.445295 -0.825599
vn -0.346554 -0.445295 -0.825599
vn -0.346554 -0.445295 -0.825599
vn 0.477542 -0.641705 -0.600140
vn 0.477541 -0.641705 -0.600140
vn 0.477542 -0.641705 -0.600140
vn 0.477542 -0.641705 -0.600140
vn 0.864101 0.419792 0.277677
vn 0.864101 0.419792 0.277677
vn 0.864101 0.419792 0.277677
vn 0.864101 0.419792 0.277677
vn 0.769997 0.496644 -0.400562
vn 0.769997 0.496644 -0.400562
vn 0.769997 0.496644 -0.400562
vn 0.769997 0.496644 -0.400562
vn 0.263253 0.832936 -0.486739
vn 0.263253 0.832936 -0.486739
vn 0.263253 0.832936 -0.486739
vn 0.263253 0.832936 -0.486739
vn 0.883311 -0.459287 -0.093898
vn 0.883311 -0.459287 -0.093898
vn 0.883311 -0.459287 -0.093898
vn 0.883311 -0.459287 -0.093898
vn 0.548353 -0.121210 -0.827416
vn 0.548353 -0.121210 -0.827416
vn 0.548353 -0.121210 -0.827416
vn 0.548353 -0.121210 -0.827416
vn 0.545563 -0.137119 0.826777
vn 0.545563 -0.137119 0.826777
vn 0.545563 -0.137119 0.826777
vn 0.545563 -0.137119 0.826776
vn -0.432532 0.311309 0.846170
vn -0.421262 0.306684 0.853512
vn -0.462877 0.323625 0.825234
vn -0.462877 0.323625 0.825234
vn -0.416178 -0.908200 0.044376
vn -0.416177 -0.908200 0.044376
vn -0.416178 -0.908200 0.044376
vn -0.416178 -0.908200 0.044376
vn -0.303409 -0.940484 0.153079
vn -0.303409 -0.940484 0.153079
vn -0.303409 -0.940484 0.153079
vn -0.303409 -0.940484 0.153079
vn -0.529885 -0.836710 0.138343
vn -0.488468 -0.872528 0.009695
vn -0.511018 -0.846712 0.148117
vn -0.511018 -0.846712 0.148117
vn 0.408085 0.908856 0.086299
vn 0.408085 0.908856 0.086299
vn 0.408085 0.908856 0.086299
vn 0.408085 0.908856 0.086299
vn 0.324618 0.945844 0.001747
vn 0.168375 0.941651 0.291451
vn 0.176404 0.941207 0.288118
vn 0.176404 0.941207 0.288118
vn 0.598396 0.746579 0.290761
vn 0.598396 0.746579 0.290761
vn 0.598396 0.746579 0.290761
vn 0.598396 0.746579 0.290761
vn -0.584734 0.135645 0.799804
vn -0.584734 0.135645 0.799804
vn -0.584734 0.135645 0.799804
vn -0.584734 0.135645 0.799804
vn 0.488222 -0.350104 0.799416
vn 0.488222 -0.350104 0.799416
vn 0.488222 -0.350104 0.799416
vn 0.488222 -0.350104 0.799416
vn -0.109587 -0.239147 0.964780
vn -0.109587 -0.239147 0.964780
vn -0.109587 -0.239147 0.964779
vn -0.109587 -0.239147 0.964780
vn -0.879966 -0.465433 0.095033
vn -0.879966 -0.465433 0.095033
vn -0.879966 -0.465433 0.095033
vn -0.879966 -0.465433 0.095033
vn 0.245634 -0.961852 0.120435
vn 0.245634 -0.961852 0.120435
vn 0.245634 -0.961852 0.120435
vn 0.245634 -0.961852 0.120435
vn 0.087020 0.194195 0.977096
vn 0.087020 0.194195 0.977096
vn 0.087020 0.194195 0.977096
vn 0.087020 0.194195 0.977096
vn 0.856944 0.489732 0.160655
vn 0.856944 0.489732 0.160655
vn 0.856943 0.489732 0.160655
vn 0.856944 0.489732 0.160655
vn -0.229810 0.945824 0.229357
vn -0.229810 0.945824 0.229357
vn -0.229810 0.945824 0.229357
vn -0.229810 0.945824 0.229357
vn 0.427797 0.897747 -0.105073
vn 0.427797 0.897747 -0.105073
vn 0.427797 0.897747 -0.105073
vn 0.427797 0.897747 -0.105073
vn 0.427893 0.896263 -0.116704
vn 0.427893 0.896263 -0.116704
vn 0.427893 0.896263 -0.116704
vn 0.427893 0.896263 -0.116704
vn 0.412393 0.903399 -0.117485
vn 0.412393 0.903399 -0.117485
vn 0.412393 0.903399 -0.117485
vn 0.412393 0.903399 -0.117485
vn 0.439347 0.896897 -0.050494
vn 0.324618 0.945844 0.001747
vn 0.402699 0.911091 -0.088015
vn 0.402699 0.911091 -0.088015
vn 0.406994 0.909284 -0.086935
vn 0.406994 0.909284 -0.086935
vn 0.406994 0.909284 -0.086935
vn 0.406994 0.909284 -0.086935
vn 0.547392 0.834919 -0.057200
vn 0.547392 0.834919 -0.057200
vn 0.547392 0.834919 -0.057200
vn 0.547392 0.834919 -0.057200
vn 0.309337 -0.950407 -0.032207
vn 0.309337 -0.950407 -0.032207
vn 0.309337 -0.950407 -0.032207
vn 0.309337 -0.950407 -0.032207
vn 0.870424 -0.222341 -0.439234
vn 0.870424 -0.222341 -0.439234
vn 0.870424 -0.222341 -0.439234
vn 0.870424 -0.222341 -0.439234
vn 0.308822 0.944840 -0.109119
vn 0.308822 0.944840 -0.109119
vn 0.308822 0.944840 -0.109119
vn 0.308822 0.944840 -0.109119
vn 0.389426 0.886985 0.248204
vn 0.389426 0.886985 0.248204
vn 0.389426 0.886985 0.248204
vn 0.389426 0.886985 0.248204
vn 0.622185 -0.148066 0.768741
vn 0.622185 -0.148066 0.768741
vn 0.622185 -0.148066 0.768741
vn 0.622185 -0.148066 0.768741
vn 0.334382 -0.936893 0.102077
vn 0.334382 -0.936893 0.102077
vn 0.334382 -0.936893 0.102077
vn 0.334382 -0.936893 0.102077
vn -0.476753 -0.878958 -0.011850
vn -0.488468 -0.872528 0.009695
vn -0.483879 -0.875119 -0.005348
vn -0.480880 -0.876710 -0.011561
vn 0.324618 0.945844 0.001747
vn 0.339731 0.939727 -0.038693
vn 0.333888 0.941829 -0.038437
vn 0.327480 0.944547 -0.024264
vn 0.004059 -0.001784 -0.999990
vn 0.004059 -0.001784 -0.999990
vn -0.980719 0.178337 -0.079919
vn -0.981538 0.178498 -0.068713
vn -0.488468 -0.872528 0.009695
vn -0.529885 -0.836710 0.138343
vn -0.543564 -0.829065 0.131111
vn -0.483879 -0.875119 -0.005348
vn -0.421262 0.306684 0.853512
vn -0.432532 0.311309 0.846170
vn -0.379127 0.289158 0.879005
vn -0.379127 0.289158 0.879005
vn 0.168375 0.941651 0.291451
vn 0.324618 0.945844 0.001747
vn 0.327480 0.944547 -0.024264
vn 0.162411 0.941934 0.293910
vn 0.446311 0.893835 -0.043201
vn 0.446305 0.893837 -0.043203
vn 0.446314 0.893833 -0.043204
vn 0.324618 0.945844 0.001747
vn 0.439347 0.896897 -0.050494
vn 0.446310 0.893835 -0.043202
vn 0.446313 0.893834 -0.043205
vn 0.446305 0.893837 -0.043203
vn 0.324618 0.945844 0.001747
vn 0.446314 0.893833 -0.043204
vn 0.446314 0.893833 -0.043204
vn 0.446314 0.893833 -0.043204
vn 0.446313 0.893834 -0.043205
vn 0.446310 0.893835 -0.043202
vn 0.446311 0.893835 -0.043201
vn 0.446314 0.893833 -0.043204
vn 0.439347 0.896897 -0.050494
vn 0.446305 0.893837 -0.043203
vn 0.446311 0.893835 -0.043201
vn 0.446310 0.893835 -0.043202
s off
f 41/1/1 42/2/2 43/3/3 44/4/4
f 5/5/5 3/6/6 21/7/7
f 5/5/8 22/8/9 23/9/10 7/10/11
f 25/11/12 26/12/13 27/13/14 28/14/15
f 56/15/16 55/16/17 57/17/18 58/18/19
f 61/19/20 62/20/21 63/21/22 64/22/23
f 45/23/24 46/24/25 42/2/26 41/1/27
f 56/15/28 58/18/29 59/25/30 60/26/31
f 48/27/32 47/28/33 44/4/34 43/3/35
f 63/21/36 62/20/37 65/29/38 66/30/39
f 2/31/40 8/32/41 13/33/42 14/34/43
f 8/32/44 6/35/45 15/36/46 13/33/47
f 50/37/48 49/38/49 51/39/50 52/40/51
f 4/41/52 11/42/53 17/43/54 16/44/55
f 11/42/56 10/45/57 18/46/58 17/43/59
f 10/45/60 2/31/61 14/34/62 18/46/63
f 20/47/64 8/48/65 2/49/66 1/50/67
f 54/51/68 53/52/69 49/38/70 50/37/71
f 1/50/72 24/53/73 20/47/74
f 30/54/75 29/55/76 31/56/77 32/57/78
f 26/12/79 30/54/80 32/57/81 27/13/82
f 24/53/83 7/10/84 23/9/85
f 68/58/86 69/59/87 3/6/88
f 5/5/89 21/7/90 22/8/91
f 1/50/92 7/10/93 24/53/94
f 24/53/95 23/9/96 26/60/97 25/61/98
f 8/48/99 20/47/100 28/62/101 27/63/102
f 20/47/103 24/53/104 25/61/105 28/62/106
f 22/8/107 21/7/108 29/64/109 30/65/110
f 21/7/111 19/66/112 31/67/113 29/64/114
f 19/66/115 6/68/116 32/69/117 31/67/118
f 23/9/119 22/8/120 30/65/121 26/60/122
f 6/68/123 8/48/124 27/63/125 32/69/126
f 10/45/127 11/42/128 35/70/129 34/71/130
f 12/72/131 9/73/132 33/74/133 36/75/134
f 1/76/135 2/31/136 38/77/137 37/78/138
f 2/31/139 10/45/140 34/71/141 38/77/142
f 9/73/143 1/76/144 37/78/145 33/74/146
f 4/41/147 3/6/148 39/79/149 40/80/150
f 3/6/151 12/72/152 36/75/153 39/79/154
f 11/42/155 4/41/156 40/80/157 35/70/158
f 34/71/159 35/70/160 43/81/161 42/82/162
f 36/75/163 33/74/164 41/83/165 44/84/166
f 37/78/167 38/77/168 46/85/169 45/86/170
f 38/77/171 34/71/172 42/82/173 46/85/174
f 33/74/175 37/78/176 45/86/177 41/83/178
f 40/80/179 39/79/180 47/87/181 48/88/182
f 39/79/183 36/75/184 44/84/185 47/87/186
f 35/70/187 40/80/188 48/88/189 43/81/190
f 4/41/191 16/44/192 51/89/193 49/90/194
f 16/44/195 15/36/196 52/91/197 51/89/198
f 15/36/199 6/35/200 50/92/201 52/91/202
f 19/66/203 3/6/204 53/93/205 54/94/206
f 3/6/207 4/41/208 49/90/209 53/93/210
f 6/68/211 19/66/212 54/94/213 50/95/214
f 14/34/215 13/33/216 55/16/217 56/15/218
f 13/33/219 15/36/220 57/17/221 55/16/222
f 15/36/223 16/44/224 58/18/225 57/17/226
f 16/44/227 17/43/228 59/25/229 58/18/230
f 17/43/231 18/46/232 60/26/233 59/25/234
f 18/46/235 14/34/236 56/15/237 60/26/238
f 7/96/239 1/76/240 62/20/241 61/19/242
f 3/6/243 5/97/244 64/22/245 63/21/246
f 5/97/247 7/96/248 61/19/249 64/22/250
f 1/76/251 9/73/252 65/29/253 62/20/254
f 9/73/255 12/72/256 66/30/257 65/29/258
f 12/72/259 3/6/260 63/21/261 66/30/262
f 71/98/263 21/7/264 70/99/265
f 3/6/266 19/66/267 67/100/268 68/58/269
f 21/7/270 3/6/271 69/59/272 70/99/273
f 69/101/274 68/102/275 67/103/276 71/104/277 70/105/278
f 19/66/279 21/7/280 71/98/281 67/100/282
