# This file uses meters as units for non-parametric coordinates.

v -433.969421 123.153992 2026.605225
v 433.969086 123.153992 2026.605225
v 433.969086 123.153992 1914.668945
v -433.969421 123.153992 1914.668945
v -499.862671 97.391052 1914.668945
v -499.862671 97.391052 2026.605225
v -433.969421 123.153992 2140.606445
v 433.969086 123.153992 2140.606445
v 499.862976 97.391052 2026.605225
v 499.862976 97.391052 1914.668945
v 335.353363 123.153992 1761.844482
v -335.354004 123.153992 1761.844482
v -499.862671 97.391052 -2112.403564
v -433.969421 123.153992 -2112.403564
v -737.913818 -127.304993 1914.668945
v -737.913818 -127.304993 2026.605225
v -499.862671 97.391052 2140.606445
v -355.854187 85.450134 2140.606445
v 355.853302 85.450134 2140.606445
v 499.862976 97.391052 2140.606445
v 737.913513 -127.304993 2026.605225
v 737.913513 -127.304993 1914.668945
v 499.862976 97.391052 -2112.403564
v 433.969086 123.153992 -2112.403564
v -379.717102 123.153992 1736.492920
v 379.716827 123.153992 1736.492920
v -304.154968 184.323425 1722.979492
v 304.154633 184.323425 1722.979492
v -355.854187 85.450134 -2112.403564
v -409.886475 65.446472 -2112.403564
v -379.717102 123.153992 -1834.185791
v -737.913818 -184.323395 1914.668945
v -737.913818 -184.323395 2026.605225
v -409.886475 65.446472 2140.606445
v 409.885834 65.446472 2140.606445
v -330.935974 76.252136 2095.267334
v 330.935638 76.252136 2095.267334
v 737.913513 -184.323395 2026.605225
v 737.913513 -184.323395 1914.668945
v 379.716827 123.153992 -1834.185791
v 409.885834 65.446472 -2112.403564
v 355.853302 85.450134 -2112.403564
v -344.390869 184.323425 1698.282227
v 344.390228 184.323425 1698.282227
v 148.901062 184.323425 1655.682373
v -148.901672 184.323425 1655.682373
v -737.913818 -127.303772 -2112.403564
v -605.087891 -107.351990 -2112.403564
v -381.184998 58.088074 -2067.064209
v -335.354004 123.153992 -1859.537354
v -344.390869 184.323425 -1795.977783
v -737.913818 -184.322845 -2112.403564
v -737.913818 -184.322845 2140.606445
v -737.913818 -127.303772 2140.606445
v -605.087891 -107.351990 2140.606445
v -381.184998 58.088074 2095.267334
v 737.913513 -127.303772 2140.606445
v 605.087585 -107.351990 2140.606445
v 381.184662 58.088074 2095.267334
v 737.913513 -184.322845 2140.606445
v 737.913513 -184.322845 -2112.403564
v 737.913513 -127.303772 -2112.403564
v 335.353363 123.153992 -1859.537354
v 344.390228 184.323425 -1795.977783
v 605.087585 -107.351990 -2112.403564
v 381.184662 58.088074 -2067.064209
v 261.657745 184.323425 1589.530029
v 209.326202 184.323425 1589.530029
v -148.901672 184.323425 -1753.377686
v 148.901062 184.323425 -1753.377686
v -209.326782 184.323425 1589.530029
v -261.658325 184.323425 1589.530029
v -562.717896 -98.155212 -2067.064209
v 330.935638 76.252136 -2067.064209
v -330.935974 76.252136 -2067.064209
v -261.658325 184.323425 -1687.222900
v -562.717896 -98.155212 2095.267334
v 562.717651 -98.155212 2095.267334
v 261.657745 184.323425 -1687.222900
v 562.717651 -98.155212 -2067.064209
v 209.326202 184.323425 -1687.222900
v 304.154633 184.323425 -1820.672607
v -304.154968 184.323425 -1820.672607
v -209.326782 184.323425 -1687.222900
vt 0.307527 0.383918
vt 0.307527 0.383918
vt 0.307527 0.383918
vt 0.307527 0.383918
vt 0.307527 0.383918
vt 0.307527 0.383918
vt 0.243973 0.326843
vt 0.243973 0.326843
vt 0.243973 0.326843
vt 0.243973 0.326843
vt 0.307527 0.383918
vt 0.307527 0.383918
vt 0.243973 0.326843
vt 0.243973 0.326843
vt 0.243973 0.326843
vt 0.243973 0.326843
vt 0.243973 0.326843
vt 0.243973 0.326843
vt 0.243973 0.326843
vt 0.307527 0.383918
vt 0.307527 0.383918
vt 0.243973 0.326843
vt 0.243973 0.326843
vt 0.243973 0.326843
vt 0.243973 0.326843
vt 0.243973 0.326843
vt 0.243973 0.326843
vt 0.307527 0.383918
vt 0.307527 0.383918
vt 0.243973 0.326843
vt 0.243973 0.326843
vt 0.243973 0.326843
vt 0.243973 0.326843
vt 0.243973 0.326843
vt 0.245538 0.253195
vt 0.245538 0.253195
vt 0.245538 0.253195
vt 0.245538 0.253195
vt 0.243973 0.326843
vt 0.243973 0.326843
vt 0.243965 0.326843
vt 0.243965 0.326843
vt 0.243973 0.326843
vt 0.243965 0.326843
vt 0.243965 0.326843
vt 0.243965 0.326843
vt 0.243965 0.326843
vt 0.243973 0.326843
vt 0.243973 0.326843
vt 0.243973 0.326843
vt 0.243973 0.326843
vt 0.243965 0.326843
vt 0.243965 0.326843
vt 0.243965 0.326843
vt 0.243965 0.326843
vt 0.243965 0.326843
vt 0.243965 0.326843
vt 0.243973 0.326843
vt 0.243973 0.326843
vt 0.243973 0.326843
vt 0.245538 0.253195
vt 0.245538 0.253195
vt 0.245538 0.253195
vt 0.245538 0.253195
vt 0.245538 0.253195
vt 0.245538 0.253195
vt 0.243965 0.326843
vt 0.243973 0.326843
vt 0.243973 0.326843
vt 0.243973 0.326843
vt 0.245538 0.253195
vt 0.245538 0.253195
vt 0.243965 0.326843
vt 0.243965 0.326843
vt 0.243965 0.326843
vt 0.243973 0.326843
vt 0.243965 0.326843
vt 0.243973 0.326843
vt 0.243965 0.326843
vt 0.243965 0.326843
vt 0.243973 0.326843
vt 0.245538 0.253195
vt 0.245538 0.253195
vt 0.243965 0.326843
vt 0.243973 0.326843
vt 0.243973 0.326843
vt 0.245538 0.253195
vt 0.245538 0.253195
vt 0.284190 0.385862
vt 0.284190 0.385862
vt 0.284190 0.385862
vt 0.284190 0.385862
vt 0.245538 0.253195
vt 0.245538 0.253195
vt 0.243973 0.326843
vt 0.245538 0.253195
vt 0.245538 0.253195
vt 0.245538 0.253195
vt 0.243973 0.326843
vt 0.243973 0.326843
vt 0.245538 0.253195
vt 0.245538 0.253195
vt 0.245538 0.253195
vt 0.245538 0.253195
vt 0.245538 0.253195
vt 0.245538 0.253195
vt 0.245538 0.253195
vt 0.243973 0.326843
vt 0.284190 0.385862
vt 0.284190 0.385862
vt 0.284190 0.385862
vt 0.284190 0.385862
vt 0.245538 0.253195
vt 0.245538 0.253195
vt 0.245538 0.253195
vt 0.245538 0.253195
vt 0.284190 0.385862
vt 0.284190 0.385862
vt 0.284190 0.385862
vt 0.284190 0.385862
vt 0.245538 0.253195
vt 0.245538 0.253195
vt 0.245538 0.253195
vt 0.245538 0.253195
vn 0.000000 1.000000 0.000000
vn 0.000000 1.000000 0.000000
vn 0.000000 1.000000 0.000000
vn 0.000000 1.000000 0.000000
vn -0.364138 0.931345 0.000000
vn -0.364138 0.931345 0.000000
vn -0.364138 0.931345 0.000000
vn -0.364138 0.931345 0.000000
vn 0.000000 1.000000 0.000000
vn 0.000000 1.000000 0.000000
vn 0.000000 1.000000 0.000000
vn 0.000000 1.000000 0.000000
vn 0.364134 0.931346 0.000000
vn 0.364134 0.931346 0.000000
vn 0.364134 0.931346 0.000000
vn 0.364134 0.931346 0.000000
vn 0.000000 1.000000 0.000000
vn 0.000000 1.000000 0.000000
vn 0.000000 1.000000 0.000000
vn 0.000000 1.000000 0.000000
vn -0.364137 0.931345 0.000000
vn -0.364137 0.931345 0.000000
vn -0.364137 0.931345 0.000000
vn -0.364137 0.931345 0.000000
vn -0.686414 0.727211 0.000000
vn -0.686414 0.727211 0.000000
vn -0.686414 0.727211 0.000000
vn -0.686414 0.727211 0.000000
vn -0.364137 0.931345 0.000000
vn -0.364137 0.931345 0.000000
vn -0.364137 0.931345 0.000000
vn -0.364137 0.931345 0.000000
vn 0.000000 0.000000 1.000000
vn 0.000000 0.000000 1.000000
vn 0.000000 0.000000 1.000000
vn 0.000000 0.000000 1.000000
vn 0.364134 0.931347 0.000000
vn 0.364134 0.931347 0.000000
vn 0.364134 0.931347 0.000000
vn 0.364134 0.931347 0.000000
vn 0.686415 0.727210 0.000000
vn 0.686415 0.727210 0.000000
vn 0.686415 0.727210 0.000000
vn 0.686415 0.727210 0.000000
vn 0.364134 0.931347 0.000000
vn 0.364134 0.931347 0.000000
vn 0.364134 0.931347 0.000000
vn 0.364134 0.931347 0.000000
vn 0.000000 1.000000 0.000000
vn 0.000000 1.000000 0.000000
vn 0.000000 1.000000 0.000000
vn 0.000000 1.000000 0.000000
vn 0.000000 1.000000 0.000000
vn 0.000000 1.000000 0.000000
vn 0.000000 0.536276 0.844043
vn 0.000000 0.536276 0.844043
vn 0.000000 0.536276 0.844043
vn 0.000000 0.536276 0.844043
vn 0.000000 0.000000 -1.000000
vn 0.000000 0.000000 -1.000000
vn 0.000000 0.000000 -1.000000
vn 0.000000 0.000000 -1.000000
vn -0.686413 0.727212 0.000000
vn -0.686413 0.727212 0.000000
vn -0.686413 0.727212 0.000000
vn -0.686413 0.727212 0.000000
vn 0.000000 1.000000 0.000000
vn 0.000000 1.000000 0.000000
vn 0.000000 1.000000 0.000000
vn 0.000000 1.000000 0.000000
vn -1.000000 0.000000 0.000000
vn -1.000000 0.000000 0.000000
vn -1.000000 0.000000 0.000000
vn -1.000000 0.000000 0.000000
vn -0.686412 0.727213 -0.000004
vn -0.686412 0.727213 -0.000004
vn -0.686412 0.727213 -0.000004
vn -0.686412 0.727213 -0.000004
vn 0.000000 0.000000 1.000000
vn 0.000000 0.000000 1.000000
vn 0.000000 0.000000 1.000000
vn 0.000000 0.000000 1.000000
vn 0.000000 0.000000 1.000000
vn 0.000000 0.000000 1.000000
vn 0.000000 0.000000 1.000000
vn 0.000000 0.000000 1.000000
vn 0.000000 -0.980036 0.198821
vn 0.000000 -0.980036 0.198821
vn 0.000000 -0.980036 0.198821
vn 0.000000 -0.980036 0.198821
vn 0.686413 0.727212 -0.000004
vn 0.686413 0.727212 -0.000004
vn 0.686413 0.727212 -0.000004
vn 0.686413 0.727212 -0.000004
vn 1.000000 0.000000 0.000000
vn 1.000000 0.000000 0.000000
vn 1.000000 0.000000 0.000000
vn 1.000000 0.000000 0.000000
vn 0.686414 0.727211 0.000000
vn 0.686414 0.727211 0.000000
vn 0.686414 0.727211 0.000000
vn 0.686414 0.727211 0.000000
vn 0.000000 1.000000 0.000000
vn 0.000000 1.000000 0.000000
vn 0.000000 1.000000 0.000000
vn 0.000000 1.000000 0.000000
vn 0.000000 0.000000 -1.000000
vn 0.000000 0.000000 -1.000000
vn 0.000000 0.000000 -1.000000
vn 0.000000 0.000000 -1.000000
vn -0.393896 0.633668 0.665815
vn -0.393896 0.633668 0.665815
vn -0.393896 0.633668 0.665815
vn -0.393896 0.633668 0.665815
vn 0.393896 0.633669 0.665815
vn 0.393896 0.633669 0.665815
vn 0.393896 0.633669 0.665815
vn 0.393896 0.633669 0.665815
vn 0.000000 1.000000 0.000000
vn 0.000000 1.000000 0.000000
vn 0.000000 1.000000 0.000000
vn 0.000000 1.000000 0.000000
vn 0.000000 0.000000 -1.000000
vn 0.000000 0.000000 -1.000000
vn 0.000000 0.000000 -1.000000
vn 0.000000 0.000000 -1.000000
vn 0.000000 0.000000 -1.000000
vn 0.000000 0.000000 -1.000000
vn 0.000000 0.000000 -1.000000
vn 0.000000 0.000000 -1.000000
vn 0.321855 -0.879372 -0.350877
vn 0.321855 -0.879372 -0.350877
vn 0.321855 -0.879372 -0.350877
vn 0.321855 -0.879372 -0.350877
vn 0.000000 1.000000 -0.000000
vn 0.000000 1.000000 -0.000000
vn 0.000000 1.000000 -0.000000
vn -0.865964 0.500106 0.000000
vn -0.865964 0.500106 0.000000
vn -0.865964 0.500107 0.000000
vn -0.865964 0.500106 0.000000
vn -1.000000 0.000000 0.000000
vn -1.000000 0.000000 0.000000
vn -1.000000 0.000000 0.000000
vn -1.000000 0.000000 0.000000
vn -1.000000 0.000000 0.000000
vn -1.000000 0.000000 0.000000
vn -1.000000 0.000000 0.000000
vn -1.000000 0.000000 0.000000
vn 0.000000 0.000000 1.000000
vn 0.000000 0.000000 1.000000
vn 0.000000 0.000000 1.000000
vn 0.000000 0.000000 1.000000
vn 0.321856 -0.879371 0.350879
vn 0.321856 -0.879371 0.350879
vn 0.321856 -0.879371 0.350879
vn 0.321856 -0.879371 0.350878
vn 0.000000 0.000000 1.000000
vn 0.000000 0.000000 1.000000
vn 0.000000 0.000000 1.000000
vn 0.000000 0.000000 1.000000
vn -0.321856 -0.879372 0.350876
vn -0.321856 -0.879372 0.350876
vn -0.321856 -0.879372 0.350876
vn -0.321856 -0.879372 0.350876
vn 0.000000 0.000000 1.000000
vn 0.000000 0.000000 1.000000
vn 0.000000 0.000000 1.000000
vn 0.000000 0.000000 1.000000
vn 1.000000 0.000000 0.000000
vn 1.000000 0.000000 0.000000
vn 1.000000 0.000000 0.000000
vn 1.000000 0.000000 0.000000
vn 1.000000 0.000000 0.000000
vn 1.000000 0.000000 0.000000
vn 1.000000 0.000000 0.000000
vn 1.000000 0.000000 0.000000
vn 0.000000 1.000000 0.000000
vn 0.000000 1.000000 0.000000
vn 0.000000 1.000000 0.000000
vn 0.865962 0.500110 0.000000
vn 0.865962 0.500110 0.000000
vn 0.865962 0.500110 0.000000
vn 0.865962 0.500110 0.000000
vn 0.000000 0.000000 -1.000000
vn 0.000000 0.000000 -1.000000
vn 0.000000 0.000000 -1.000000
vn 0.000000 0.000000 -1.000000
vn -0.321856 -0.879373 -0.350874
vn -0.321856 -0.879373 -0.350874
vn -0.321856 -0.879373 -0.350874
vn -0.321856 -0.879373 -0.350874
vn 0.000000 1.000000 0.000000
vn 0.000000 1.000000 0.000000
vn 0.000000 1.000000 0.000000
vn 0.000000 1.000000 0.000000
vn 0.000000 1.000000 0.000000
vn 0.000000 1.000000 0.000000
vn 0.000000 1.000000 0.000000
vn 0.000000 1.000000 0.000000
vn 0.000000 1.000000 0.000000
vn 0.000000 1.000000 0.000000
vn 0.000000 1.000000 0.000000
vn 0.000000 1.000000 0.000000
vn 0.000000 1.000000 0.000000
vn 0.000000 1.000000 0.000000
vn 0.000000 0.000000 -1.000000
vn 0.000000 0.000000 -1.000000
vn 0.000000 0.000000 -1.000000
vn 0.000000 0.000000 -1.000000
vn 0.588302 -0.673572 -0.447439
vn 0.588302 -0.673572 -0.447439
vn 0.588302 -0.673572 -0.447439
vn 0.588302 -0.673572 -0.447439
vn 0.000000 1.000000 -0.000000
vn 0.000000 1.000000 -0.000000
vn 0.000000 1.000000 -0.000000
vn 0.000000 1.000000 -0.000000
vn 0.000000 -0.980036 -0.198820
vn 0.000000 -0.980036 -0.198820
vn 0.000000 -0.980036 -0.198820
vn 0.000000 -0.980036 -0.198820
vn -0.393888 0.633657 -0.665831
vn -0.393888 0.633657 -0.665831
vn -0.393888 0.633657 -0.665831
vn -0.393888 0.633657 -0.665831
vn 0.000000 1.000000 0.000000
vn 0.000000 1.000000 0.000000
vn 0.000000 1.000000 0.000000
vn 0.000000 1.000000 0.000000
vn 0.000000 0.000000 -1.000000
vn 0.000000 0.000000 -1.000000
vn 0.000000 0.000000 -1.000000
vn 0.000000 0.000000 -1.000000
vn 0.000000 0.000000 1.000000
vn 0.000000 0.000000 1.000000
vn 0.000000 0.000000 1.000000
vn 0.000000 0.000000 1.000000
vn 0.000000 0.000000 1.000000
vn 0.000000 0.000000 1.000000
vn 0.000000 0.000000 1.000000
vn 0.000000 0.000000 1.000000
vn 0.588300 -0.673572 0.447441
vn 0.588300 -0.673572 0.447441
vn 0.588300 -0.673572 0.447441
vn 0.588300 -0.673572 0.447441
vn -0.588301 -0.673573 0.447439
vn -0.588301 -0.673573 0.447439
vn -0.588301 -0.673573 0.447439
vn -0.588301 -0.673573 0.447439
vn 0.000000 0.000000 1.000000
vn 0.000000 0.000000 1.000000
vn 0.000000 0.000000 1.000000
vn 0.000000 0.000000 1.000000
vn 0.393887 0.633657 -0.665831
vn 0.393887 0.633657 -0.665831
vn 0.393887 0.633657 -0.665831
vn 0.393887 0.633657 -0.665831
vn 0.000000 1.000000 0.000000
vn 0.000000 1.000000 0.000000
vn 0.000000 1.000000 0.000000
vn 0.000000 1.000000 0.000000
vn -0.588302 -0.673573 -0.447437
vn -0.588302 -0.673573 -0.447437
vn -0.588302 -0.673573 -0.447437
vn -0.588302 -0.673573 -0.447437
vn 0.000000 1.000000 0.000000
vn 0.000000 1.000000 0.000000
vn 0.000000 1.000000 0.000000
vn 0.000000 1.000000 0.000000
vn 0.000000 1.000000 0.000000
vn 0.000000 1.000000 0.000000
vn 0.000000 1.000000 0.000000
vn 0.000000 1.000000 0.000000
vn 0.000000 1.000000 -0.000000
vn 0.000000 1.000000 -0.000000
vn 0.000000 1.000000 -0.000000
vn 0.000000 1.000000 -0.000000
vn 0.000000 1.000000 0.000000
vn 0.000000 1.000000 0.000000
vn 0.000000 1.000000 0.000000
vn 0.000000 1.000000 0.000000
vn 0.000000 1.000000 0.000000
vn 0.000000 1.000000 0.000000
vn 0.000000 1.000000 0.000000
vn 0.000000 1.000000 0.000000
vn 0.000000 0.980041 -0.198795
vn 0.000000 0.980041 -0.198795
vn 0.000000 0.980041 -0.198795
vn 0.000000 0.980041 -0.198795
vn 0.000000 0.536274 -0.844044
vn 0.000000 0.536274 -0.844044
vn 0.000000 0.536274 -0.844044
vn 0.000000 0.536274 -0.844044
vn 0.000000 0.000000 -1.000000
vn 0.000000 0.000000 -1.000000
vn 0.000000 0.000000 -1.000000
vn 0.000000 0.000000 -1.000000
vn 0.000000 0.000000 -1.000000
vn 0.000000 0.000000 -1.000000
vn 0.000000 0.000000 -1.000000
vn 0.000000 0.000000 -1.000000
vn 0.000000 1.000000 -0.000000
vn 0.000000 1.000000 -0.000000
vn 0.000000 1.000000 -0.000000
vn 0.000000 1.000000 -0.000000
vn 0.000000 1.000000 -0.000000
vn 0.000000 0.980041 0.198796
vn 0.000000 0.980041 0.198796
vn 0.000000 0.980041 0.198796
vn 0.000000 0.980041 0.198796
vn 0.000000 1.000000 -0.000000
vn 0.000000 1.000000 -0.000000
vn 0.000000 1.000000 -0.000000
vn 0.000000 1.000000 -0.000000
vn 0.000000 1.000000 -0.000000
vn 0.000000 -1.000000 0.000002
vn 0.000000 -1.000000 0.000002
vn 0.000000 -1.000000 0.000005
vn 0.000000 -1.000000 0.000005
vn 0.000000 -1.000000 -0.000000
vn 0.000000 -1.000000 -0.000000
vn 0.000000 -1.000000 -0.000000
vn 0.000000 -1.000000 -0.000000
vn 0.000000 -1.000000 0.000002
vn 0.000000 -1.000000 -0.000000
vn 0.000000 -1.000000 -0.000000
vn 0.000000 -1.000000 0.000002
s off
f 1/1/1 2/2/2 3/3/3 4/4/4
f 4/4/5 5/5/6 6/6/7 1/1/8
f 7/7/9 8/8/10 2/9/11 1/10/12
f 2/2/13 9/11/14 10/12/15 3/3/16
f 4/13/17 3/14/18 11/15/19 12/16/20
f 13/17/21 5/18/22 4/13/23 14/19/24
f 5/5/25 15/20/26 16/21/27 6/6/28
f 1/10/29 6/22/30 17/23/31 7/7/32
f 8/8/33 7/7/34 18/24/35 19/25/36
f 20/26/37 9/27/38 2/9/39 8/8/40
f 9/11/41 21/28/42 22/29/43 10/12/44
f 3/14/45 10/30/46 23/31/47 24/32/48
f 4/13/49 12/16/50 25/33/51
f 11/15/52 3/14/53 26/34/54
f 27/35/55 12/36/56 11/37/57 28/38/58
f 13/17/59 14/19/60 29/39/61 30/40/62
f 15/41/63 5/18/64 13/17/65 47/42/66
f 14/19/67 4/13/68 25/33/69 31/43/70
f 32/44/71 33/45/72 16/46/73 15/41/74
f 17/23/75 6/22/76 16/46/77 54/47/78
f 7/7/79 17/23/80 34/48/81 18/24/82
f 20/26/83 8/8/84 19/25/85 35/49/86
f 19/25/87 18/24/88 36/50/89 37/51/90
f 21/52/91 9/27/92 20/26/93 57/53/94
f 38/54/95 39/55/96 22/56/97 21/52/98
f 23/31/99 10/30/100 22/56/101 62/57/102
f 3/14/103 24/32/104 40/58/105 26/34/106
f 24/32/107 23/31/108 41/59/109 42/60/110
f 43/61/111 25/62/112 12/36/113 27/35/114
f 11/37/115 26/63/116 44/64/117 28/38/118
f 28/38/119 45/65/120 46/66/121 27/35/122
f 47/42/123 13/17/124 30/40/125 48/67/126
f 14/19/127 24/32/128 42/60/129 29/39/130
f 49/68/131 30/40/132 29/39/133 75/69/134
f 50/70/135 14/19/136 31/43/137
f 31/71/138 25/62/139 43/61/140 51/72/141
f 52/73/142 32/44/143 15/41/144 47/42/145
f 33/45/146 53/74/147 54/47/148 16/46/149
f 17/23/150 54/47/151 55/75/152 34/48/153
f 18/24/154 34/48/155 56/76/156 36/50/157
f 57/53/158 20/26/159 35/49/160 58/77/161
f 59/78/162 35/49/163 19/25/164 37/51/165
f 56/76/166 59/78/167 37/51/168 36/50/169
f 60/79/170 38/54/171 21/52/172 57/53/173
f 39/55/174 61/80/175 62/57/176 22/56/177
f 24/32/178 63/81/179 40/58/180
f 26/63/181 40/82/182 64/83/183 44/64/184
f 23/31/185 62/57/186 65/84/187 41/59/188
f 42/60/189 41/59/190 66/85/191 74/86/192
f 44/64/193 67/87/194 68/88/195 45/65/196 28/38/197
f 69/89/198 46/90/199 45/91/200 70/92/201
f 27/35/202 46/66/203 71/93/204 72/94/205 43/61/206
f 62/57/207 47/42/208 48/67/209 65/84/210
f 73/95/211 48/67/212 30/40/213 49/68/214
f 24/32/215 14/19/216 50/70/217 63/81/218
f 29/39/219 42/60/220 74/86/221 75/69/222
f 50/96/223 31/71/224 51/72/225 83/97/226
f 51/72/227 43/61/228 72/94/229 76/98/230
f 61/80/231 52/73/232 47/42/233 62/57/234
f 53/74/235 60/79/236 57/53/237 54/47/238
f 54/47/239 57/53/240 58/77/241 55/75/242
f 34/48/243 55/75/244 77/99/245 56/76/246
f 78/100/247 58/77/248 35/49/249 59/78/250
f 77/101/251 78/102/252 59/103/253 56/104/254
f 64/83/255 40/82/256 63/105/257 82/106/258
f 44/64/259 64/83/260 79/107/261 67/87/262
f 41/59/263 65/84/264 80/108/265 66/85/266
f 81/109/267 68/110/268 67/111/269 79/112/270
f 70/113/271 45/65/272 68/88/273 81/114/274
f 70/113/275 82/106/276 83/97/277 69/115/278
f 84/116/279 71/93/280 46/66/281 69/115/282
f 72/117/283 71/118/284 84/119/285 76/120/286
f 65/84/287 48/67/288 73/95/289 80/108/290
f 82/106/291 63/105/292 50/96/293 83/97/294
f 66/85/295 49/68/296 75/69/297 74/86/298
f 80/121/299 73/122/300 49/123/301 66/124/302
f 69/115/303 83/97/304 51/72/305 76/98/306 84/116/307
f 55/75/308 58/77/309 78/100/310 77/99/311
f 70/113/312 81/114/313 79/107/314 64/83/315 82/106/316
f 33/45/317 38/54/318 60/79/319 53/74/320
f 39/55/321 32/44/322 52/73/323 61/80/324
f 33/45/325 32/44/326 39/55/327 38/54/328
